<svg xmlns="http://www.w3.org/2000/svg" xmlns:xlink="http://www.w3.org/1999/xlink" width="183.766" height="185.091" viewBox="0 0 183.766 185.091">
  <defs>
    <clipPath id="clip-path">
      <rect id="Rectángulo_350638" data-name="Rectángulo 350638" width="183.766" height="185.091" fill="none"/>
    </clipPath>
    <clipPath id="clip-path-3">
      <rect id="Rectángulo_350616" data-name="Rectángulo 350616" width="11.037" height="23.388" fill="none"/>
    </clipPath>
    <clipPath id="clip-path-4">
      <rect id="Rectángulo_350617" data-name="Rectángulo 350617" width="30.766" height="33.937" fill="none"/>
    </clipPath>
    <clipPath id="clip-path-5">
      <rect id="Rectángulo_350618" data-name="Rectángulo 350618" width="98.154" height="134.154" fill="#3ed0ee"/>
    </clipPath>
    <clipPath id="clip-path-6">
      <rect id="Rectángulo_350619" data-name="Rectángulo 350619" width="101.128" height="58.315" fill="none"/>
    </clipPath>
    <clipPath id="clip-path-7">
      <rect id="Rectángulo_350620" data-name="Rectángulo 350620" width="101.128" height="63.978" fill="none"/>
    </clipPath>
    <clipPath id="clip-path-8">
      <rect id="Rectángulo_350621" data-name="Rectángulo 350621" width="98.779" height="62.53" fill="none"/>
    </clipPath>
    <clipPath id="clip-path-9">
      <rect id="Rectángulo_350622" data-name="Rectángulo 350622" width="2.615" height="7.174" fill="none"/>
    </clipPath>
    <clipPath id="clip-path-10">
      <rect id="Rectángulo_350623" data-name="Rectángulo 350623" width="17.177" height="12.371" fill="none"/>
    </clipPath>
    <clipPath id="clip-path-11">
      <rect id="Rectángulo_350624" data-name="Rectángulo 350624" width="59.509" height="36.982" fill="#cda7ff"/>
    </clipPath>
    <clipPath id="clip-path-12">
      <rect id="Rectángulo_350625" data-name="Rectángulo 350625" width="0.886" height="1.144" fill="none"/>
    </clipPath>
    <clipPath id="clip-path-13">
      <rect id="Rectángulo_350626" data-name="Rectángulo 350626" width="15.73" height="11.605" fill="none"/>
    </clipPath>
    <clipPath id="clip-path-14">
      <rect id="Rectángulo_350627" data-name="Rectángulo 350627" width="15.73" height="10.161" fill="none"/>
    </clipPath>
    <clipPath id="clip-path-15">
      <rect id="Rectángulo_350628" data-name="Rectángulo 350628" width="3.182" height="5.398" fill="#e7edf6"/>
    </clipPath>
    <clipPath id="clip-path-16">
      <rect id="Rectángulo_350629" data-name="Rectángulo 350629" width="3.347" height="10.452" fill="#e7edf6"/>
    </clipPath>
    <clipPath id="clip-path-17">
      <rect id="Rectángulo_350630" data-name="Rectángulo 350630" width="27.912" height="16.839" fill="none"/>
    </clipPath>
    <clipPath id="clip-path-18">
      <rect id="Rectángulo_350631" data-name="Rectángulo 350631" width="41.872" height="24.175" fill="none"/>
    </clipPath>
    <clipPath id="clip-path-19">
      <rect id="Rectángulo_350633" data-name="Rectángulo 350633" width="37.485" height="17.546" fill="#e7edf6"/>
    </clipPath>
    <clipPath id="clip-path-20">
      <rect id="Rectángulo_350634" data-name="Rectángulo 350634" width="16.003" height="19.312" fill="none"/>
    </clipPath>
    <clipPath id="clip-path-21">
      <rect id="Rectángulo_350635" data-name="Rectángulo 350635" width="4.706" height="2.894" fill="none"/>
    </clipPath>
    <clipPath id="clip-path-22">
      <rect id="Rectángulo_350636" data-name="Rectángulo 350636" width="3.806" height="2.955" fill="none"/>
    </clipPath>
  </defs>
  <g id="Grupo_1018219" data-name="Grupo 1018219" transform="translate(6454.717 9965.094)">
    <g id="Grupo_159184" data-name="Grupo 159184" transform="translate(-6447.334 -9957.05)">
      <path id="Unión_12" data-name="Unión 12" d="M84.5,0A84.5,84.5,0,1,1,0,84.5,84.5,84.5,0,0,1,84.5,0Z" transform="translate(0 0)" fill="#fff"/>
    </g>
    <g id="Grupo_1018003" data-name="Grupo 1018003" transform="translate(-6454.717 -9965.094)">
      <g id="Grupo_1018002" data-name="Grupo 1018002" clip-path="url(#clip-path)">
        <g id="Grupo_1018001" data-name="Grupo 1018001">
          <g id="Grupo_1018000" data-name="Grupo 1018000" clip-path="url(#clip-path)">
            <path id="Trazado_719582" data-name="Trazado 719582" d="M194.641,356.45a5.351,5.351,0,0,0-.785-2.759,6.06,6.06,0,0,0-.337-.516l-.017-.024a5.576,5.576,0,0,0-.368-.452l-.035-.037a4.829,4.829,0,0,0-.4-.385l-.037-.03a3.927,3.927,0,0,0-.437-.321c-.085-.053-.17-.1-.254-.143-.039-.02-.076-.034-.115-.051s-.089-.042-.132-.059c-.064-.024-.126-.042-.188-.06-.017,0-.034-.012-.051-.016a1.91,1.91,0,0,0-.218-.042l-.013,0a1.376,1.376,0,0,0-.811.124h0l0,0h0c-2.245,1.126-15.184,9.358-21.139,13.069l-2.95,1.791a.663.663,0,0,0-.218.206l-.022.032a.851.851,0,0,0-.067.126c-.012.028-.022.059-.032.089s-.025.073-.034.115c-.005.025-.008.052-.012.078-.136.073-.3.163-.488.267l-.436.236a17.2,17.2,0,0,0-3.366-2.495,33.561,33.561,0,0,0-30.457,0c-4.228,2.441-6.556,5.738-6.556,9.283s2.328,6.841,6.556,9.282a33.562,33.562,0,0,0,30.457,0c4.228-2.441,6.556-5.738,6.556-9.282a8.544,8.544,0,0,0-1.385-4.587l.389-.211a.872.872,0,0,0,.836.082l.018-.01c2.021-1.113,21.717-9.506,25.744-11.666h0a1.8,1.8,0,0,0,.8-1.633m-34.827,24.083a29.886,29.886,0,0,1-26.734,0c-3.028-1.748-4.7-3.9-4.7-6.058s1.667-4.311,4.7-6.059a29.89,29.89,0,0,1,26.734,0c3.028,1.748,4.7,3.9,4.7,6.059s-1.667,4.31-4.7,6.058" transform="translate(-71.747 -202.321)" fill="#e0e0e0"/>
            <path id="Trazado_719583" data-name="Trazado 719583" d="M125.9,229.372l-19.979-11.559a4.062,4.062,0,0,0-3.676,0L.761,276.406a1.12,1.12,0,0,0,0,2.122L20.74,290.087a4.062,4.062,0,0,0,3.676,0l38.032-21.958,5.846,3.4a12.393,12.393,0,0,0,11.211,0l17.427-9.988c3.1-1.787,3.1-4.684,0-6.471l-5.842-3.4L125.9,231.494a1.12,1.12,0,0,0,0-2.122" transform="translate(0 -125.105)" fill="#e0e0e0"/>
            <path id="Trazado_719584" data-name="Trazado 719584" d="M362.858,324.562c7.65,4.417,7.65,11.578,0,15.995s-20.054,4.417-27.7,0-7.65-11.578,0-15.995,20.054-4.417,27.7,0" transform="translate(-189.589 -184.889)" fill="#e0e0e0"/>
            <path id="Trazado_719585" data-name="Trazado 719585" d="M401.711,292.9c0-2.651-.527-7.539,1.718-12.123,1.626-3.321,4.536-6.548,7.242-6.227,2.521.3,2.749,4.173.339,6.826s-5.478,6.322-6.147,12.187l-1.736,4.353Z" transform="translate(-231.166 -157.997)" fill="#27debf"/>
            <g id="Grupo_1017939" data-name="Grupo 1017939" transform="translate(170.492 116.527)" opacity="0.2">
              <g id="Grupo_1017938" data-name="Grupo 1017938">
                <g id="Grupo_1017937" data-name="Grupo 1017937" clip-path="url(#clip-path-3)">
                  <path id="Trazado_719586" data-name="Trazado 719586" d="M401.711,292.9c0-2.651-.527-7.539,1.718-12.123,1.626-3.321,4.536-6.548,7.242-6.227,2.521.3,2.749,4.173.339,6.826s-5.478,6.322-6.147,12.187l-1.736,4.353Z" transform="translate(-401.659 -274.524)"/>
                </g>
              </g>
            </g>
            <path id="Trazado_719587" data-name="Trazado 719587" d="M403.583,296.96a.184.184,0,0,0,.152-.189c-.305-7.54,2.149-13.8,7.1-18.1a.184.184,0,1,0-.242-.278c-5.035,4.378-7.533,10.738-7.223,18.394a.184.184,0,0,0,.192.177l.024,0" transform="translate(-232.135 -160.197)" fill="#fff"/>
            <path id="Trazado_719588" data-name="Trazado 719588" d="M397.5,321.723a9.375,9.375,0,0,0,4.663,1.3c2.838.067,3.886-1.426,3.886-1.426s-1.443-2.459-3.119-2.978a15.64,15.64,0,0,1,5.087,1.331s1.7-.2,2.028-2.881c0,0-1.214-1.424-4.7-1.814a11.216,11.216,0,0,1,5.041-.433c.233.059.73-3.416.809-5s-.539-1.484-1.787-1.643-5.375.187-6.04.95-.745,3.079-.745,3.079a4.516,4.516,0,0,1-.874-2.352,4.342,4.342,0,0,0-2.554.4c-1.29.653-1.7,1.175-1.768,2.167a9.853,9.853,0,0,0,.25,3.623,7.627,7.627,0,0,1-1.115-3.543,17.446,17.446,0,0,0-1.2,2.51c-.554,1.443.1,4.937,2.136,6.707" transform="translate(-227.436 -177.343)" fill="#27debf"/>
            <path id="Trazado_719589" data-name="Trazado 719589" d="M400.449,323.024a.184.184,0,0,0,.127-.121c1.615-4.952,9.215-11.473,12.119-12.453a.184.184,0,0,0,.115-.233.178.178,0,0,0-.233-.116c-2.96,1-10.706,7.643-12.352,12.687a.185.185,0,0,0,.118.233.188.188,0,0,0,.1,0" transform="translate(-230.337 -178.466)" fill="#fff"/>
            <path id="Trazado_719590" data-name="Trazado 719590" d="M154.076,282.508l15.015-8.682a3.939,3.939,0,0,0,2.322-3.235c0-1.172.007-2.089.007-2.089l-14.129-8.02a3.3,3.3,0,0,1-1.495-2.589V239.381l-26.227,15.155v18.513a3.305,3.305,0,0,0,1.495,2.589l11.8,6.871a12.391,12.391,0,0,0,11.21,0" transform="translate(-74.57 -137.771)" fill="#37474f"/>
            <path id="Trazado_719591" data-name="Trazado 719591" d="M135.863,292.968v2.079l-4.807-2.77a3.308,3.308,0,0,1-1.493-2.589V271.179l5-2.883c.1,1.269.216,2.58.319,3.858l-3.5,2.028v14.463a3.283,3.283,0,0,0,1.493,2.588Z" transform="translate(-74.567 -154.412)" fill="#263238"/>
            <path id="Trazado_719592" data-name="Trazado 719592" d="M133.831,276.081a3.3,3.3,0,0,0,1.495,2.589l9.992,5.825a12.394,12.394,0,0,0,11.211,0l15.023-8.681c3.1-1.787,3.1-4.684,0-6.471l-10-5.83a3.305,3.305,0,0,1-1.495-2.589V246.461l-26.227,15.154Z" transform="translate(-77.024 -141.846)" fill="#455a64"/>
            <g id="Grupo_1017942" data-name="Grupo 1017942" transform="translate(56.807 104.615)" opacity="0.15">
              <g id="Grupo_1017941" data-name="Grupo 1017941">
                <g id="Grupo_1017940" data-name="Grupo 1017940" clip-path="url(#clip-path-4)">
                  <path id="Trazado_719593" data-name="Trazado 719593" d="M164.6,265.275v0l-3.044-1.758a3.3,3.3,0,0,1-1.495-2.589V246.461L133.83,261.616v14.466a3.3,3.3,0,0,0,1.495,2.589l2.992,1.727Z" transform="translate(-133.83 -246.461)"/>
                </g>
              </g>
            </g>
            <path id="Trazado_719594" data-name="Trazado 719594" d="M197.394,307.991v2.088c0,1.174-.777,2.338-2.321,3.236l-15.018,8.677a11.244,11.244,0,0,1-5.35,1.329v-2.08a11.24,11.24,0,0,0,5.35-1.329l15.018-8.685a3.936,3.936,0,0,0,2.321-3.236" transform="translate(-100.547 -177.258)" fill="#37474f"/>
            <path id="Trazado_719595" data-name="Trazado 719595" d="M32.248,154.208a4.007,4.007,0,0,0,3.621-.067L137.3,95.583a4.128,4.128,0,0,0,1.868-3.236V3.57A4.007,4.007,0,0,0,137.411.4a4.008,4.008,0,0,0-3.621.067L32.365,59.025A4.13,4.13,0,0,0,30.5,62.261v88.778a4.006,4.006,0,0,0,1.753,3.169" transform="translate(-17.551 0)" fill="#455a64"/>
            <path id="Trazado_719596" data-name="Trazado 719596" d="M40.623,157.167,142.049,98.609a4.13,4.13,0,0,0,1.869-3.236V6.6c0-1.191-.837-1.674-1.869-1.079L40.624,64.075a4.129,4.129,0,0,0-1.869,3.236v88.777c0,1.191.837,1.674,1.869,1.079" transform="translate(-22.304 -3.028)" fill="#37474f"/>
            <path id="Trazado_719597" data-name="Trazado 719597" d="M47.011,152.15V76.263a2.477,2.477,0,0,1,1.121-1.942L144.04,18.949c.619-.357,1.121-.067,1.121.647l0,75.888a2.476,2.476,0,0,1-1.121,1.942L48.132,152.8c-.619.357-1.121.067-1.121-.647" transform="translate(-27.056 -10.818)" fill="#27debf"/>
            <g id="Grupo_1017945" data-name="Grupo 1017945" transform="translate(19.955 7.978)" opacity="0.7">
              <g id="Grupo_1017944" data-name="Grupo 1017944">
                <g id="Grupo_1017943" data-name="Grupo 1017943" clip-path="url(#clip-path-5)">
                  <path id="Trazado_719598" data-name="Trazado 719598" d="M47.011,152.15V76.263a2.477,2.477,0,0,1,1.121-1.942L144.04,18.949c.619-.357,1.121-.067,1.121.647l0,75.888a2.476,2.476,0,0,1-1.121,1.942L48.132,152.8c-.619.357-1.121.067-1.121-.647" transform="translate(-47.011 -18.796)" fill="#3ed0ee"/>
                </g>
              </g>
            </g>
            <path id="Trazado_719599" data-name="Trazado 719599" d="M160.575,278.973a1.1,1.1,0,0,1-.562-.146,1.429,1.429,0,0,1-.62-1.318,4.054,4.054,0,0,1,1.859-3.22,1.276,1.276,0,0,1,2.072,1.2,4.054,4.054,0,0,1-1.859,3.22,1.8,1.8,0,0,1-.89.269m1.566-4.529a1.386,1.386,0,0,0-.677.212,3.646,3.646,0,0,0-1.647,2.852.863.863,0,0,0,1.435.828,3.646,3.646,0,0,0,1.647-2.852,1.035,1.035,0,0,0-.407-.951.693.693,0,0,0-.351-.089" transform="translate(-91.735 -157.706)" fill="#27debf"/>
            <path id="Trazado_719600" data-name="Trazado 719600" d="M183.561,52.8,84.783,109.762v72.8a1.261,1.261,0,0,0,1.888,1.095l1.761-1.017,93.288-53.789a4.069,4.069,0,0,0,1.842-3.189Z" transform="translate(-48.795 -30.387)" fill="#f0f0f0"/>
            <path id="Trazado_719601" data-name="Trazado 719601" d="M183.137,53.534v72.131a3.661,3.661,0,0,1-1.629,2.821L88.22,182.274l-1.761,1.017a.819.819,0,0,1-.413.113.854.854,0,0,1-.584-.238.824.824,0,0,1-.254-.6V110.007Zm.424-.735L84.783,109.762v72.8a1.264,1.264,0,0,0,1.263,1.264,1.248,1.248,0,0,0,.625-.17l1.761-1.017,93.288-53.789a4.069,4.069,0,0,0,1.842-3.189Z" transform="translate(-48.795 -30.387)" fill="#e0e0e0"/>
            <g id="Grupo_1017948" data-name="Grupo 1017948" transform="translate(33.639 21.059)" opacity="0.8">
              <g id="Grupo_1017947" data-name="Grupo 1017947">
                <g id="Grupo_1017946" data-name="Grupo 1017946" clip-path="url(#clip-path-6)">
                  <path id="Trazado_719602" data-name="Trazado 719602" d="M178.033,49.612,79.248,106.571l2.349,1.356,98.779-56.963Z" transform="translate(-79.248 -49.612)" fill="#455a64"/>
                </g>
              </g>
            </g>
            <path id="Trazado_719603" data-name="Trazado 719603" d="M82.256,259.071a1.272,1.272,0,0,1-.661-1.112v-72.8L79.245,183.8l0,72.4a2.04,2.04,0,0,0,.018.269,1.949,1.949,0,0,0,.961,1.426l1.939,1.122Z" transform="translate(-45.606 -105.783)" fill="#ebebeb"/>
            <path id="Trazado_719604" data-name="Trazado 719604" d="M79.249,98.968V94.056a2.046,2.046,0,0,1,.916-1.6l96.952-55.891a2.019,2.019,0,0,1,1.835,0l.5.292a2.031,2.031,0,0,1,.919,1.592v4.92L81.6,100.323Z" transform="translate(-45.61 -20.918)" fill="#27debf"/>
            <g id="Grupo_1017951" data-name="Grupo 1017951" transform="translate(33.639 15.427)" opacity="0.3">
              <g id="Grupo_1017950" data-name="Grupo 1017950">
                <g id="Grupo_1017949" data-name="Grupo 1017949" clip-path="url(#clip-path-7)">
                  <path id="Trazado_719605" data-name="Trazado 719605" d="M79.249,98.968V94.056a2.046,2.046,0,0,1,.916-1.6l96.952-55.891a2.019,2.019,0,0,1,1.835,0l.5.292a2.031,2.031,0,0,1,.919,1.592v4.92L81.6,100.323Z" transform="translate(-79.249 -36.345)"/>
                </g>
              </g>
            </g>
            <path id="Trazado_719606" data-name="Trazado 719606" d="M84.783,97.375a2.044,2.044,0,0,1,.916-1.6l96.946-55.894c.506-.3.916-.06.916.525v4.92L84.783,102.287Z" transform="translate(-48.795 -22.881)" fill="#27debf"/>
            <g id="Grupo_1017954" data-name="Grupo 1017954" transform="translate(35.988 16.876)" opacity="0.4">
              <g id="Grupo_1017953" data-name="Grupo 1017953">
                <g id="Grupo_1017952" data-name="Grupo 1017952" clip-path="url(#clip-path-8)">
                  <path id="Trazado_719607" data-name="Trazado 719607" d="M84.783,97.375a2.044,2.044,0,0,1,.916-1.6l96.946-55.894c.506-.3.916-.06.916.525v4.92L84.783,102.287Z" transform="translate(-84.783 -39.757)"/>
                </g>
              </g>
            </g>
            <path id="Trazado_719608" data-name="Trazado 719608" d="M81.868,171.524a1.9,1.9,0,0,0-.267.909v4.911l-2.347-1.354v-4.916a1.879,1.879,0,0,1,.267-.9Z" transform="translate(-45.612 -97.938)" fill="#27debf"/>
            <g id="Grupo_1017957" data-name="Grupo 1017957" transform="translate(33.641 72.232)" opacity="0.5">
              <g id="Grupo_1017956" data-name="Grupo 1017956">
                <g id="Grupo_1017955" data-name="Grupo 1017955" clip-path="url(#clip-path-9)">
                  <path id="Trazado_719609" data-name="Trazado 719609" d="M81.868,171.524a1.9,1.9,0,0,0-.267.909v4.911l-2.347-1.354v-4.916a1.879,1.879,0,0,1,.267-.9Z" transform="translate(-79.253 -170.17)"/>
                </g>
              </g>
            </g>
            <path id="Trazado_719610" data-name="Trazado 719610" d="M307.338,50.179c0,.55.386.773.862.5a1.906,1.906,0,0,0,.862-1.493c0-.55-.386-.773-.862-.5a1.906,1.906,0,0,0-.862,1.493" transform="translate(-176.882 -27.952)" fill="#fafafa"/>
            <path id="Trazado_719611" data-name="Trazado 719611" d="M299.214,54.869c0,.55.386.773.862.5a1.906,1.906,0,0,0,.862-1.493c0-.55-.386-.773-.862-.5a1.906,1.906,0,0,0-.862,1.493" transform="translate(-172.207 -30.652)" fill="#fafafa"/>
            <path id="Trazado_719612" data-name="Trazado 719612" d="M291.09,59.56c0,.55.386.773.862.5a1.906,1.906,0,0,0,.862-1.493c0-.55-.386-.773-.862-.5a1.906,1.906,0,0,0-.862,1.493" transform="translate(-167.531 -33.351)" fill="#fafafa"/>
            <path id="Trazado_719613" data-name="Trazado 719613" d="M84.783,167.342v72.77a1.26,1.26,0,0,0,1.888,1.094l1.761-1.017,21.586-12.446V152.79L84.783,167.341Z" transform="translate(-48.795 -87.935)" fill="#fafafa"/>
            <path id="Trazado_719614" data-name="Trazado 719614" d="M148.3,101.086v70.679L218.045,131.5V60.817Z" transform="translate(-85.349 -35.002)" fill="#fafafa"/>
            <path id="Trazado_719615" data-name="Trazado 719615" d="M108.067,172.809l-16.1,9.3a1.192,1.192,0,0,0-.54.934v1.676c0,.344.241.483.539.312l16.1-9.3a1.193,1.193,0,0,0,.539-.934v-1.676c0-.344-.242-.483-.539-.312" transform="translate(-52.62 -99.414)" fill="#27debf"/>
            <g id="Grupo_1017960" data-name="Grupo 1017960" transform="translate(38.809 73.321)" opacity="0.8">
              <g id="Grupo_1017959" data-name="Grupo 1017959">
                <g id="Grupo_1017958" data-name="Grupo 1017958" clip-path="url(#clip-path-10)">
                  <path id="Trazado_719616" data-name="Trazado 719616" d="M108.067,172.809l-16.1,9.3a1.192,1.192,0,0,0-.54.934v1.676c0,.344.241.483.539.312l16.1-9.3a1.193,1.193,0,0,0,.539-.934v-1.676c0-.344-.242-.483-.539-.312" transform="translate(-91.429 -172.735)" fill="#fafafa"/>
                </g>
              </g>
            </g>
            <path id="Trazado_719617" data-name="Trazado 719617" d="M136.356,171.631l-.475-.457a2.114,2.114,0,0,0,.151-.758.9.9,0,0,0-.354-.815.561.561,0,0,0-.578.025,1.9,1.9,0,0,0-.745,1.542.9.9,0,0,0,.354.815.506.506,0,0,0,.255.068.643.643,0,0,0,.323-.094,1.281,1.281,0,0,0,.421-.432l.389.375a.187.187,0,0,0,.259-.269m-1.256,0a.2.2,0,0,1-.2.025c-.078-.045-.168-.2-.168-.491a1.547,1.547,0,0,1,.559-1.219.277.277,0,0,1,.135-.043.138.138,0,0,1,.069.018c.077.045.168.2.168.491a1.544,1.544,0,0,1-.559,1.218" transform="translate(-77.325 -97.572)" fill="#455a64"/>
            <path id="Trazado_719618" data-name="Trazado 719618" d="M91.81,211.823l-.361.208c-.021.012-.039,0-.039-.029v-.978a.093.093,0,0,1,.039-.074l.361-.208c.021-.012.039,0,.039.029v.978a.092.092,0,0,1-.039.073" transform="translate(-52.609 -121.286)" fill="#455a64"/>
            <path id="Trazado_719619" data-name="Trazado 719619" d="M93.085,211.087l-.361.208c-.021.012-.038,0-.038-.029v-.978a.092.092,0,0,1,.038-.073l.361-.208c.021-.012.039,0,.039.029v.978a.093.093,0,0,1-.039.073" transform="translate(-53.344 -120.862)" fill="#455a64"/>
            <path id="Trazado_719620" data-name="Trazado 719620" d="M94.36,210.351l-.361.208c-.021.012-.038,0-.038-.029v-.978a.092.092,0,0,1,.038-.073l.361-.208c.021-.012.039,0,.039.029v.978a.093.093,0,0,1-.039.073" transform="translate(-54.077 -120.439)" fill="#455a64"/>
            <path id="Trazado_719621" data-name="Trazado 719621" d="M91.81,214.793l-.361.208c-.021.012-.039,0-.039-.029v-.978a.093.093,0,0,1,.039-.074l.361-.208c.021-.012.039,0,.039.029v.978a.093.093,0,0,1-.039.073" transform="translate(-52.609 -122.995)" fill="#455a64"/>
            <path id="Trazado_719622" data-name="Trazado 719622" d="M93.085,214.057l-.361.208c-.021.012-.038,0-.038-.029v-.978a.093.093,0,0,1,.038-.074l.361-.208c.021-.012.039,0,.039.029v.978a.093.093,0,0,1-.039.073" transform="translate(-53.344 -122.572)" fill="#455a64"/>
            <path id="Trazado_719623" data-name="Trazado 719623" d="M94.36,213.321l-.361.208c-.021.012-.038,0-.038-.029v-.978a.093.093,0,0,1,.038-.074l.361-.208c.021-.012.039,0,.039.029v.978a.093.093,0,0,1-.039.073" transform="translate(-54.077 -122.148)" fill="#455a64"/>
            <path id="Trazado_719624" data-name="Trazado 719624" d="M91.867,222.537l-.444-.271c-.017-.011-.017-.05,0-.08l.444-.784c.022-.038.053-.032.053.009v1.055c0,.042-.031.083-.053.07" transform="translate(-52.609 -127.409)" fill="#455a64"/>
            <path id="Trazado_719625" data-name="Trazado 719625" d="M91.924,222.242l.585-.338v.278l-.585.338c-.05.029-.09-.01-.09-.087a.239.239,0,0,1,.09-.191" transform="translate(-52.853 -127.712)" fill="#455a64"/>
            <path id="Trazado_719626" data-name="Trazado 719626" d="M93.683,221.6l.2-.115v.278l-.2.115Z" transform="translate(-53.917 -127.471)" fill="#455a64"/>
            <path id="Trazado_719627" data-name="Trazado 719627" d="M94.841,220.949v1.023a.238.238,0,0,1-.09.191c-.05.028-.09-.009-.09-.087v-.885l-.247.143v-.278l.337-.2c.05-.028.09.011.09.087" transform="translate(-54.337 -127.108)" fill="#455a64"/>
            <path id="Trazado_719628" data-name="Trazado 719628" d="M92.04,229.373a1.938,1.938,0,0,0-.616,1.655c.073.533.39.513.424.76,0,.027.021.036.04.025l.4-.225a.1.1,0,0,0,.041-.072A4.707,4.707,0,0,0,92.772,230c0-.609-.331-.906-.732-.63" transform="translate(-52.609 -131.951)" fill="#455a64"/>
            <path id="Trazado_719629" data-name="Trazado 719629" d="M92.87,235.58l-.382.221c-.026.015-.048,0-.048-.036v-.351a.113.113,0,0,1,.048-.09l.382-.221c.026-.015.047,0,.047.036v.352a.112.112,0,0,1-.047.09" transform="translate(-53.202 -135.305)" fill="#455a64"/>
            <path id="Trazado_719630" data-name="Trazado 719630" d="M92.132,209.811a2.319,2.319,0,0,0-.692,1.465,1.538,1.538,0,0,0,.1.8l-.129.668c-.011.055.02.084.051.05l.385-.42a.6.6,0,0,0,.56-.164,2.321,2.321,0,0,0,.693-1.467c.091-.934-.4-1.4-.969-.932M92.27,212c-.354.2-.642-.073-.642-.618a1.7,1.7,0,0,1,.642-1.36c.354-.2.642.073.642.618A1.7,1.7,0,0,1,92.27,212" transform="translate(-52.609 -120.645)" fill="#455a64"/>
            <path id="Trazado_719631" data-name="Trazado 719631" d="M92.132,240.159a2.319,2.319,0,0,0-.692,1.465,1.538,1.538,0,0,0,.1.8l-.129.668c-.011.055.02.084.051.05l.385-.42a.6.6,0,0,0,.56-.164,2.321,2.321,0,0,0,.693-1.467c.091-.934-.4-1.4-.969-.932m.138,2.188c-.354.2-.642-.073-.642-.618a1.7,1.7,0,0,1,.642-1.36c.354-.2.642.073.642.618a1.7,1.7,0,0,1-.642,1.36" transform="translate(-52.609 -138.112)" fill="#455a64"/>
            <path id="Trazado_719632" data-name="Trazado 719632" d="M93.472,251.039a.893.893,0,0,1-.339.717c-.187.109-.339-.037-.339-.326a.893.893,0,0,1,.339-.717c.187-.108.339.038.339.326" transform="translate(-53.406 -144.273)" fill="#455a64"/>
            <path id="Trazado_719633" data-name="Trazado 719633" d="M95.15,251.445a.6.6,0,0,1-.226.478c-.124.072-.226-.025-.226-.217a.6.6,0,0,1,.226-.478c.125-.072.226.025.226.217" transform="translate(-54.502 -144.575)" fill="#455a64"/>
            <path id="Trazado_719634" data-name="Trazado 719634" d="M93.45,254.656l-.8.462V254.1a.694.694,0,0,1,.289-.553l.221-.127c.16-.093.29.006.29.219Z" transform="translate(-53.323 -145.833)" fill="#455a64"/>
            <path id="Trazado_719635" data-name="Trazado 719635" d="M95.015,253.141l-.22.127v1.168l.416-.24v-.907c0-.144-.087-.21-.2-.148" transform="translate(-54.557 -145.677)" fill="#455a64"/>
            <path id="Trazado_719636" data-name="Trazado 719636" d="M91.423,253.6c0,.192.1.289.226.217a.6.6,0,0,0,.226-.478c0-.192-.1-.289-.226-.217a.6.6,0,0,0-.226.478" transform="translate(-52.617 -145.664)" fill="#455a64"/>
            <path id="Trazado_719637" data-name="Trazado 719637" d="M91.606,254.989l.22-.127v1.167l-.416.24v-.907a.469.469,0,0,1,.2-.374" transform="translate(-52.61 -146.681)" fill="#455a64"/>
            <path id="Trazado_719638" data-name="Trazado 719638" d="M100.012,200.429l9.426-5.442c.254-.147.46-.042.46.232a.985.985,0,0,1-.46.763l-9.426,5.442c-.254.147-.459.042-.459-.232a.985.985,0,0,1,.459-.763" transform="translate(-57.296 -112.182)" fill="#e0e0e0"/>
            <path id="Trazado_719639" data-name="Trazado 719639" d="M100.012,210.882l9.426-5.442c.254-.146.46-.042.46.232a.985.985,0,0,1-.46.763l-9.426,5.442c-.254.147-.459.042-.459-.232a.985.985,0,0,1,.459-.763" transform="translate(-57.296 -118.199)" fill="#e0e0e0"/>
            <path id="Trazado_719640" data-name="Trazado 719640" d="M100.012,221.335l9.426-5.442c.254-.146.46-.042.46.232a.985.985,0,0,1-.46.763l-9.426,5.442c-.254.147-.459.042-.459-.232a.985.985,0,0,1,.459-.763" transform="translate(-57.296 -124.215)" fill="#e0e0e0"/>
            <path id="Trazado_719641" data-name="Trazado 719641" d="M100.012,231.788l9.426-5.442c.254-.146.46-.042.46.232a.985.985,0,0,1-.46.763l-9.426,5.442c-.254.147-.459.042-.459-.232a.985.985,0,0,1,.459-.763" transform="translate(-57.296 -130.231)" fill="#e0e0e0"/>
            <path id="Trazado_719642" data-name="Trazado 719642" d="M100.012,242.24l9.426-5.442c.254-.146.46-.042.46.233a.985.985,0,0,1-.46.763l-9.426,5.442c-.254.147-.459.042-.459-.232a.985.985,0,0,1,.459-.763" transform="translate(-57.296 -136.246)" fill="#e0e0e0"/>
            <path id="Trazado_719643" data-name="Trazado 719643" d="M104.074,250.775l9.426-5.442c.254-.147.459-.042.46.232a.985.985,0,0,1-.46.763l-9.426,5.442c-.254.147-.46.042-.46-.232a.985.985,0,0,1,.46-.763" transform="translate(-59.633 -141.158)" fill="#455a64"/>
            <path id="Trazado_719644" data-name="Trazado 719644" d="M104.074,257.837l9.426-5.442c.254-.146.459-.042.46.232a.985.985,0,0,1-.46.763l-9.426,5.442c-.254.147-.46.042-.46-.232a.985.985,0,0,1,.46-.763" transform="translate(-59.633 -145.223)" fill="#e0e0e0"/>
            <path id="Trazado_719645" data-name="Trazado 719645" d="M104.074,264.9l9.426-5.442c.254-.146.459-.042.46.232a.985.985,0,0,1-.46.763l-9.426,5.442c-.254.147-.46.042-.46-.232a.985.985,0,0,1,.46-.763" transform="translate(-59.633 -149.286)" fill="#e0e0e0"/>
            <path id="Trazado_719646" data-name="Trazado 719646" d="M108.4,269.386l9.426-5.442c.253-.147.459-.042.459.232a.986.986,0,0,1-.459.763l-9.426,5.442c-.254.147-.459.042-.459-.232a.984.984,0,0,1,.459-.763" transform="translate(-62.122 -151.869)" fill="#e0e0e0"/>
            <path id="Trazado_719647" data-name="Trazado 719647" d="M103.706,280.274l.765-1.351c.029-.051.029-.119,0-.137l-.765-.467c-.037-.022-.091.049-.091.121v1.818c0,.072.054.081.091.016" transform="translate(-59.634 -160.179)" fill="#455a64"/>
            <path id="Trazado_719648" data-name="Trazado 719648" d="M108.4,276.422l9.426-5.442c.253-.146.459-.042.459.233a.985.985,0,0,1-.459.763l-9.426,5.442c-.254.147-.459.043-.459-.232a.984.984,0,0,1,.459-.763" transform="translate(-62.122 -155.919)" fill="#e0e0e0"/>
            <path id="Trazado_719649" data-name="Trazado 719649" d="M103.706,287.311l.765-1.351c.029-.051.029-.119,0-.137l-.765-.467c-.037-.022-.091.049-.091.121v1.818c0,.072.054.082.091.016" transform="translate(-59.634 -164.229)" fill="#455a64"/>
            <path id="Trazado_719650" data-name="Trazado 719650" d="M108.4,283.459l9.426-5.442c.253-.147.459-.042.459.232a.986.986,0,0,1-.459.763l-9.426,5.442c-.254.147-.459.042-.459-.232a.984.984,0,0,1,.459-.763" transform="translate(-62.122 -159.969)" fill="#e0e0e0"/>
            <path id="Trazado_719651" data-name="Trazado 719651" d="M103.706,294.347l.765-1.351c.029-.051.029-.119,0-.137l-.765-.467c-.037-.022-.091.049-.091.121v1.818c0,.072.054.081.091.016" transform="translate(-59.634 -168.278)" fill="#455a64"/>
            <path id="Trazado_719652" data-name="Trazado 719652" d="M108.4,290.5l9.426-5.442c.253-.146.459-.042.459.233a.985.985,0,0,1-.459.763l-9.426,5.442c-.254.147-.459.043-.459-.232a.984.984,0,0,1,.459-.763" transform="translate(-62.122 -164.018)" fill="#e0e0e0"/>
            <path id="Trazado_719653" data-name="Trazado 719653" d="M103.706,301.384l.765-1.351c.029-.051.029-.119,0-.137l-.765-.467c-.037-.022-.091.049-.091.121v1.818c0,.072.054.081.091.016" transform="translate(-59.634 -172.328)" fill="#455a64"/>
            <path id="Trazado_719654" data-name="Trazado 719654" d="M108.4,297.532l9.426-5.442c.253-.147.459-.042.459.232a.986.986,0,0,1-.459.763l-9.426,5.442c-.254.147-.459.042-.459-.232a.984.984,0,0,1,.459-.763" transform="translate(-62.122 -168.068)" fill="#e0e0e0"/>
            <path id="Trazado_719655" data-name="Trazado 719655" d="M103.706,308.42l.765-1.351c.029-.051.029-.119,0-.137l-.765-.467c-.037-.022-.091.049-.091.121V308.4c0,.072.054.081.091.016" transform="translate(-59.634 -176.377)" fill="#455a64"/>
            <path id="Trazado_719656" data-name="Trazado 719656" d="M108.4,304.568l9.426-5.442c.253-.146.459-.042.459.232a.986.986,0,0,1-.459.763l-9.426,5.442c-.254.147-.459.042-.459-.232a.984.984,0,0,1,.459-.763" transform="translate(-62.122 -172.118)" fill="#e0e0e0"/>
            <path id="Trazado_719657" data-name="Trazado 719657" d="M103.706,315.457l.765-1.351c.029-.051.029-.119,0-.137l-.765-.467c-.037-.022-.091.049-.091.121v1.818c0,.072.054.081.091.016" transform="translate(-59.634 -180.427)" fill="#455a64"/>
            <path id="Trazado_719658" data-name="Trazado 719658" d="M108.4,311.605l9.426-5.442c.253-.146.459-.042.459.232a.986.986,0,0,1-.459.763L108.4,312.6c-.254.147-.459.042-.459-.232a.984.984,0,0,1,.459-.763" transform="translate(-62.122 -176.168)" fill="#e0e0e0"/>
            <path id="Trazado_719659" data-name="Trazado 719659" d="M103.706,322.493l.765-1.351c.029-.051.029-.119,0-.137l-.765-.467c-.037-.022-.091.049-.091.121v1.818c0,.072.054.081.091.016" transform="translate(-59.634 -184.477)" fill="#455a64"/>
            <path id="Trazado_719660" data-name="Trazado 719660" d="M108.4,318.641l9.426-5.442c.253-.147.459-.042.459.232a.986.986,0,0,1-.459.763l-9.426,5.442c-.254.147-.459.042-.459-.232a.984.984,0,0,1,.459-.763" transform="translate(-62.122 -180.217)" fill="#e0e0e0"/>
            <path id="Trazado_719661" data-name="Trazado 719661" d="M103.706,329.53l.765-1.351c.029-.051.029-.119,0-.137l-.765-.467c-.037-.023-.091.049-.091.121v1.818c0,.072.054.082.091.016" transform="translate(-59.634 -188.527)" fill="#455a64"/>
            <path id="Trazado_719662" data-name="Trazado 719662" d="M152.818,142.035,183.8,124.147a1.015,1.015,0,0,0,.459-.8v-7.9c0-.293-.205-.412-.459-.265l-30.982,17.884a1.015,1.015,0,0,0-.46.8v7.9c0,.293.206.412.46.265" transform="translate(-87.687 -66.258)" fill="#f0f0f0"/>
            <path id="Trazado_719663" data-name="Trazado 719663" d="M159.671,163.762a.091.091,0,0,1,0-.019l.2-.849-.281.162a.013.013,0,0,1-.018,0,.03.03,0,0,1-.007-.023v-.153a.075.075,0,0,1,.007-.032.05.05,0,0,1,.018-.022l.45-.26a.014.014,0,0,1,.018,0,.033.033,0,0,1,.007.023v.135a.369.369,0,0,1-.015.082l-.2.85a.2.2,0,0,1-.011.03.042.042,0,0,1-.017.021l-.132.076a.012.012,0,0,1-.016,0,.027.027,0,0,1-.007-.021" transform="translate(-91.838 -93.559)" fill="#455a64"/>
            <path id="Trazado_719664" data-name="Trazado 719664" d="M161.2,161.97a.229.229,0,0,1,.121-.038.119.119,0,0,1,.084.037.21.21,0,0,1,.05.1.623.623,0,0,1,.019.139c0,.041,0,.084,0,.129s0,.088,0,.129a.957.957,0,0,1-.019.161.7.7,0,0,1-.05.155.594.594,0,0,1-.084.134.461.461,0,0,1-.121.1.227.227,0,0,1-.122.038.12.12,0,0,1-.084-.036.222.222,0,0,1-.05-.1.677.677,0,0,1-.02-.139c0-.039,0-.081,0-.127s0-.089,0-.132a1.061,1.061,0,0,1,.02-.161.716.716,0,0,1,.05-.154.594.594,0,0,1,.084-.135.451.451,0,0,1,.122-.1m.1.586q0-.125,0-.243a.488.488,0,0,0-.007-.063.11.11,0,0,0-.017-.044.041.041,0,0,0-.03-.018.084.084,0,0,0-.047.014.164.164,0,0,0-.048.04.2.2,0,0,0-.03.053.365.365,0,0,0-.017.063.514.514,0,0,0-.006.07c0,.081,0,.163,0,.243a.386.386,0,0,0,.006.063.108.108,0,0,0,.017.043.043.043,0,0,0,.031.018.08.08,0,0,0,.048-.014.153.153,0,0,0,.047-.04.208.208,0,0,0,.031-.053.268.268,0,0,0,.017-.063.517.517,0,0,0,.006-.07" transform="translate(-92.616 -93.196)" fill="#455a64"/>
            <path id="Trazado_719665" data-name="Trazado 719665" d="M162.709,161.093c0,.038,0,.075,0,.11a.525.525,0,0,1-.011.087.369.369,0,0,1-.028.081.323.323,0,0,1-.045.07.268.268,0,0,1-.064.053.135.135,0,0,1-.064.021.06.06,0,0,1-.045-.018.112.112,0,0,1-.028-.05.321.321,0,0,1-.011-.074c0-.018,0-.036,0-.053s0-.036,0-.057a.53.53,0,0,1,.011-.087.38.38,0,0,1,.028-.081.284.284,0,0,1,.045-.07.234.234,0,0,1,.064-.053.129.129,0,0,1,.064-.021.06.06,0,0,1,.045.018.113.113,0,0,1,.028.049.327.327,0,0,1,.011.074m.236-.306a.149.149,0,0,1,.014-.028.057.057,0,0,1,.02-.019l.078-.045a.016.016,0,0,1,.017,0,.021.021,0,0,1,.006.017v.008l0,.01-.465,1.211a.2.2,0,0,1-.014.028.058.058,0,0,1-.02.019l-.077.045c-.007,0-.012,0-.017,0a.02.02,0,0,1-.006-.017v-.008a.037.037,0,0,1,0-.011Zm-.422.517a.122.122,0,0,0,.01.051c.006.01.015.011.029,0a.062.062,0,0,0,.028-.036.24.24,0,0,0,.01-.062.9.9,0,0,0,0-.1.133.133,0,0,0-.01-.051c-.006-.009-.014-.01-.028,0a.064.064,0,0,0-.029.035.231.231,0,0,0-.01.062.718.718,0,0,0,0,.1m.624.045c0,.037,0,.074,0,.11a.488.488,0,0,1-.011.087.386.386,0,0,1-.027.081.313.313,0,0,1-.046.07.245.245,0,0,1-.064.053.129.129,0,0,1-.065.021.059.059,0,0,1-.045-.018.114.114,0,0,1-.027-.049.3.3,0,0,1-.011-.074c0-.019,0-.036,0-.053s0-.036,0-.057a.477.477,0,0,1,.011-.087.4.4,0,0,1,.027-.082.291.291,0,0,1,.045-.07.238.238,0,0,1,.065-.053.123.123,0,0,1,.064-.021.06.06,0,0,1,.045.018.118.118,0,0,1,.027.05.3.3,0,0,1,.011.074m-.187.211a.131.131,0,0,0,.01.051c.005.009.015.01.029,0a.064.064,0,0,0,.028-.035.244.244,0,0,0,.01-.062.906.906,0,0,0,0-.1.128.128,0,0,0-.01-.051c-.006-.009-.015-.011-.028,0a.063.063,0,0,0-.029.036.241.241,0,0,0-.01.062.906.906,0,0,0,0,.1" transform="translate(-93.472 -92.483)" fill="#455a64"/>
            <path id="Trazado_719666" data-name="Trazado 719666" d="M158.376,159l-.311-.48a6.251,6.251,0,0,0-.735,1.981l.5-.039a4.613,4.613,0,0,1,.543-1.463" transform="translate(-90.548 -91.236)" fill="#455a64"/>
            <path id="Trazado_719667" data-name="Trazado 719667" d="M160.25,156.32v-.813a3.529,3.529,0,0,0-1.189,1.281l.311.48a2.609,2.609,0,0,1,.878-.948" transform="translate(-91.544 -89.499)" fill="#455a64"/>
            <path id="Trazado_719668" data-name="Trazado 719668" d="M157.625,163.854a4.107,4.107,0,0,1,.073-.753l-.5.039a5.534,5.534,0,0,0-.1,1.02,3.881,3.881,0,0,0,.1.905l.5-.542a2.877,2.877,0,0,1-.073-.669" transform="translate(-90.414 -93.869)" fill="#455a64"/>
            <path id="Trazado_719669" data-name="Trazado 719669" d="M161.178,156.259a1.674,1.674,0,0,0-.736-1.132,1.179,1.179,0,0,0-1.189.091v.813a.868.868,0,0,1,.877-.065,1.229,1.229,0,0,1,.544.835,2.877,2.877,0,0,1,.073.669,4.107,4.107,0,0,1-.073.753,4.594,4.594,0,0,1-.544,1.463,2.61,2.61,0,0,1-.877.948.869.869,0,0,1-.878.065,1.233,1.233,0,0,1-.543-.835l-.5.542a1.668,1.668,0,0,0,.735,1.132,1.18,1.18,0,0,0,1.189-.091,3.525,3.525,0,0,0,1.189-1.281,6.264,6.264,0,0,0,.736-1.981,5.562,5.562,0,0,0,.1-1.019,3.9,3.9,0,0,0-.1-.905" transform="translate(-90.548 -89.211)" fill="#27debf"/>
            <path id="Trazado_719670" data-name="Trazado 719670" d="M173.129,145.246l9.426-5.442c.254-.147.46-.042.46.233a.985.985,0,0,1-.46.763l-9.427,5.442c-.253.147-.459.042-.459-.232a.985.985,0,0,1,.46-.763" transform="translate(-99.376 -80.423)" fill="#455a64"/>
            <path id="Trazado_719671" data-name="Trazado 719671" d="M173.129,144.578l16.323-9.422c.254-.146.46-.042.46.233a.985.985,0,0,1-.46.763l-16.323,9.422c-.253.146-.459.042-.459-.233a.985.985,0,0,1,.46-.763" transform="translate(-99.376 -77.748)" fill="#e0e0e0"/>
            <path id="Trazado_719672" data-name="Trazado 719672" d="M232.021,96.3,263,78.411a1.015,1.015,0,0,0,.459-.8v-7.9c0-.293-.205-.412-.459-.265L232.021,87.336a1.015,1.015,0,0,0-.46.8v7.9c0,.293.206.412.46.265" transform="translate(-133.27 -39.936)" fill="#f0f0f0"/>
            <path id="Trazado_719673" data-name="Trazado 719673" d="M239.366,117.194a.585.585,0,0,1,.023-.165.671.671,0,0,1,.062-.15.579.579,0,0,1,.089-.122.425.425,0,0,1,.1-.084.241.241,0,0,1,.1-.034.136.136,0,0,1,.088.02.169.169,0,0,1,.062.079.346.346,0,0,1,.023.138.5.5,0,0,1-.006.081.617.617,0,0,1-.016.076c-.006.025-.014.049-.022.073l-.025.068-.179.484a.238.238,0,0,0-.01.025.048.048,0,0,1-.019.022l-.15.086a.009.009,0,0,1-.013,0,.029.029,0,0,1-.006-.02.038.038,0,0,1,0-.013.032.032,0,0,1,0-.009l.121-.331a.2.2,0,0,1-.088.012.133.133,0,0,1-.074-.031.186.186,0,0,1-.051-.077.37.37,0,0,1-.019-.127m.378-.218a.122.122,0,0,0-.008-.048.057.057,0,0,0-.022-.028.059.059,0,0,0-.033-.007.078.078,0,0,0-.038.013.149.149,0,0,0-.038.031.216.216,0,0,0-.032.045.233.233,0,0,0-.023.053.194.194,0,0,0-.008.058.113.113,0,0,0,.008.048.062.062,0,0,0,.023.028.048.048,0,0,0,.032.007.088.088,0,0,0,.038-.012.16.16,0,0,0,.038-.031.3.3,0,0,0,.033-.045.252.252,0,0,0,.022-.054.207.207,0,0,0,.008-.058" transform="translate(-137.762 -67.129)" fill="#455a64"/>
            <path id="Trazado_719674" data-name="Trazado 719674" d="M241.127,115.811a.229.229,0,0,1,.121-.038.12.12,0,0,1,.084.037.209.209,0,0,1,.05.1.649.649,0,0,1,.019.139c0,.041,0,.084,0,.129s0,.088,0,.129a1,1,0,0,1-.019.161.7.7,0,0,1-.05.155.609.609,0,0,1-.084.134.461.461,0,0,1-.121.1.227.227,0,0,1-.122.038.12.12,0,0,1-.084-.036.222.222,0,0,1-.05-.1.676.676,0,0,1-.019-.139c0-.039,0-.081,0-.127s0-.089,0-.132a1.056,1.056,0,0,1,.019-.161.715.715,0,0,1,.05-.154.6.6,0,0,1,.084-.135.458.458,0,0,1,.122-.1m.1.586q0-.125,0-.243a.427.427,0,0,0-.007-.063.11.11,0,0,0-.017-.044.041.041,0,0,0-.03-.018.084.084,0,0,0-.047.014.163.163,0,0,0-.048.04.2.2,0,0,0-.03.053.331.331,0,0,0-.017.063.519.519,0,0,0-.006.07c0,.081,0,.163,0,.243a.383.383,0,0,0,.006.063.1.1,0,0,0,.017.043.043.043,0,0,0,.031.018.08.08,0,0,0,.048-.014.153.153,0,0,0,.047-.04.213.213,0,0,0,.031-.053.253.253,0,0,0,.017-.063.457.457,0,0,0,.006-.07" transform="translate(-138.616 -66.631)" fill="#455a64"/>
            <path id="Trazado_719675" data-name="Trazado 719675" d="M242.634,114.934c0,.038,0,.075,0,.11a.525.525,0,0,1-.011.087.391.391,0,0,1-.028.081.322.322,0,0,1-.045.07.267.267,0,0,1-.064.053.135.135,0,0,1-.064.021.06.06,0,0,1-.045-.018.11.11,0,0,1-.028-.05.321.321,0,0,1-.011-.074c0-.018,0-.036,0-.053s0-.036,0-.057a.53.53,0,0,1,.011-.087.382.382,0,0,1,.028-.081.284.284,0,0,1,.045-.07.234.234,0,0,1,.064-.053.129.129,0,0,1,.064-.021.06.06,0,0,1,.045.018.113.113,0,0,1,.028.049.328.328,0,0,1,.011.074m.236-.306a.151.151,0,0,1,.014-.028.057.057,0,0,1,.02-.019l.078-.045a.016.016,0,0,1,.017,0,.022.022,0,0,1,.006.018v.008l0,.01-.465,1.211a.2.2,0,0,1-.014.028.062.062,0,0,1-.02.019l-.077.045c-.007,0-.012,0-.017,0a.02.02,0,0,1-.006-.017v-.008a.037.037,0,0,1,0-.011Zm-.422.517a.121.121,0,0,0,.01.051c.006.01.015.011.029,0a.062.062,0,0,0,.028-.036.24.24,0,0,0,.01-.062.906.906,0,0,0,0-.1.133.133,0,0,0-.01-.051c-.006-.009-.014-.01-.028,0a.064.064,0,0,0-.029.035.232.232,0,0,0-.01.062.724.724,0,0,0,0,.1m.624.045c0,.037,0,.074,0,.11a.532.532,0,0,1-.011.087.389.389,0,0,1-.027.081.33.33,0,0,1-.046.07.237.237,0,0,1-.064.053.134.134,0,0,1-.065.022.062.062,0,0,1-.045-.018.114.114,0,0,1-.027-.05.3.3,0,0,1-.011-.074c0-.019,0-.036,0-.053s0-.036,0-.057a.483.483,0,0,1,.011-.087.375.375,0,0,1,.027-.082.29.29,0,0,1,.045-.07.237.237,0,0,1,.065-.053.123.123,0,0,1,.064-.021.061.061,0,0,1,.045.018.119.119,0,0,1,.027.05.3.3,0,0,1,.011.074m-.187.211a.131.131,0,0,0,.01.051c.005.01.015.01.029,0a.064.064,0,0,0,.028-.035.229.229,0,0,0,.01-.062.729.729,0,0,0,0-.1.123.123,0,0,0-.01-.051c-.006-.009-.015-.011-.028,0a.063.063,0,0,0-.029.036.241.241,0,0,0-.01.062.906.906,0,0,0,0,.1" transform="translate(-139.472 -65.917)" fill="#455a64"/>
            <path id="Trazado_719676" data-name="Trazado 719676" d="M240.111,110.2v-.813a3.531,3.531,0,0,0-1.189,1.281l.311.48a2.611,2.611,0,0,1,.878-.948" transform="translate(-137.507 -62.954)" fill="#455a64"/>
            <path id="Trazado_719677" data-name="Trazado 719677" d="M240.9,110.138a1.672,1.672,0,0,0-.735-1.132,1.18,1.18,0,0,0-1.189.092v.813a.868.868,0,0,1,.877-.065,1.229,1.229,0,0,1,.544.835,2.885,2.885,0,0,1,.073.669,4.112,4.112,0,0,1-.073.753,4.616,4.616,0,0,1-.542,1.461,2.633,2.633,0,0,1-.879.95.869.869,0,0,1-.878.065,1.232,1.232,0,0,1-.543-.835,2.848,2.848,0,0,1-.073-.668,4.066,4.066,0,0,1,.073-.753,4.613,4.613,0,0,1,.543-1.463l-.311-.48a6.242,6.242,0,0,0-.735,1.981,5.539,5.539,0,0,0-.1,1.02,3.876,3.876,0,0,0,.1.9,1.669,1.669,0,0,0,.735,1.132,1.18,1.18,0,0,0,1.189-.091,3.528,3.528,0,0,0,1.189-1.281v0a6.247,6.247,0,0,0,.735-1.981,5.529,5.529,0,0,0,.1-1.019,3.884,3.884,0,0,0-.1-.906" transform="translate(-136.376 -62.666)" fill="#27debf"/>
            <path id="Trazado_719678" data-name="Trazado 719678" d="M252.971,99.124l9.426-5.442c.254-.147.46-.042.46.232a.985.985,0,0,1-.46.763l-9.427,5.443c-.253.146-.459.042-.459-.233a.985.985,0,0,1,.46-.763" transform="translate(-145.328 -53.878)" fill="#455a64"/>
            <path id="Trazado_719679" data-name="Trazado 719679" d="M252.971,98.456l16.323-9.422c.254-.146.46-.042.46.233a.985.985,0,0,1-.46.763L252.97,99.451c-.253.147-.459.042-.459-.232a.985.985,0,0,1,.46-.763" transform="translate(-145.328 -51.204)" fill="#e0e0e0"/>
            <path id="Trazado_719680" data-name="Trazado 719680" d="M160.254,178.342l6.612-3.829c.254-.146.46-.042.46.233a.987.987,0,0,1-.46.763l-6.612,3.829c-.254.146-.46.042-.46-.233a.985.985,0,0,1,.46-.763" transform="translate(-91.966 -100.399)" fill="#455a64"/>
            <path id="Trazado_719681" data-name="Trazado 719681" d="M217.649,104.989h0Zm-.195.112v50.5a.6.6,0,0,1-.247.428l-64.424,37.193v-50.5a.6.6,0,0,1,.247-.428l.805-.465a1.444,1.444,0,0,0,.672-1.163v-2.921a.6.6,0,0,1,.247-.428L164,131.979v2.715a.693.693,0,0,0,.679.752.83.83,0,0,0,.417-.119L217.454,105.1M164.2,131.866h0m53.426-27.3a.419.419,0,0,0-.205.063l-52.532,30.329a.416.416,0,0,1-.205.062c-.151,0-.254-.12-.254-.328v-2.921c0-.208-.1-.328-.254-.328a.414.414,0,0,0-.205.063l-9.426,5.442a1.015,1.015,0,0,0-.459.8v2.921a1.016,1.016,0,0,1-.46.8l-.805.465a1.015,1.015,0,0,0-.459.8v50.7c0,.208.1.328.254.328a.419.419,0,0,0,.205-.063l64.6-37.3a1.017,1.017,0,0,0,.46-.8V104.9c0-.208-.1-.328-.254-.328" transform="translate(-87.687 -60.181)" fill="#e0e0e0"/>
            <path id="Trazado_719682" data-name="Trazado 719682" d="M161.514,190.852a.445.445,0,0,1-.225-.059.531.531,0,0,1-.241-.481v-1.925a1.233,1.233,0,0,1,.566-.979l5.123-2.954a.489.489,0,0,1,.778.45v1.925a1.232,1.232,0,0,1-.566.979l-5.123,2.954a.631.631,0,0,1-.312.09m.312-3.077a.808.808,0,0,0-.354.612v1.925c0,.073.02.109.029.114s.05,0,.112-.032l5.123-2.954a.806.806,0,0,0,.354-.612V184.9c0-.073-.02-.108-.028-.114s-.05,0-.113.032Z" transform="translate(-92.688 -106.106)" fill="#e0e0e0"/>
            <path id="Trazado_719683" data-name="Trazado 719683" d="M163.182,191.583l3.339-1.938c.169-.1.306-.028.306.155a.657.657,0,0,1-.306.509l-3.339,1.938c-.169.1-.306.028-.306-.155a.656.656,0,0,1,.306-.509" transform="translate(-93.74 -109.121)" fill="#e0e0e0"/>
            <path id="Trazado_719684" data-name="Trazado 719684" d="M173.286,188.415l.277.393c.011.015.031,0,.042-.024l.276-.713c.014-.034,0-.066-.021-.053l-.554.32a.068.068,0,0,0-.021.078" transform="translate(-99.728 -108.208)" fill="#455a64"/>
            <path id="Trazado_719685" data-name="Trazado 719685" d="M159.883,243.516c.245-.141.443-.027.443.256a.979.979,0,0,1-.443.767c-.245.141-.443.027-.443-.256a.98.98,0,0,1,.443-.767" transform="translate(-91.762 -140.116)" fill="#27debf"/>
            <path id="Trazado_719686" data-name="Trazado 719686" d="M168.007,234.135c.245-.141.443-.027.443.256a.981.981,0,0,1-.443.767c-.245.141-.443.027-.443-.256a.979.979,0,0,1,.443-.767" transform="translate(-96.438 -134.717)" fill="#27debf"/>
            <path id="Trazado_719687" data-name="Trazado 719687" d="M176.13,229.445c.245-.141.443-.027.443.256a.979.979,0,0,1-.443.767c-.244.141-.443.027-.443-.256a.98.98,0,0,1,.443-.767" transform="translate(-101.113 -132.018)" fill="#27debf"/>
            <path id="Trazado_719688" data-name="Trazado 719688" d="M184.255,226.814c.245-.141.443-.027.443.256a.979.979,0,0,1-.443.767c-.244.141-.443.027-.443-.256a.98.98,0,0,1,.443-.767" transform="translate(-105.789 -130.503)" fill="#27debf"/>
            <path id="Trazado_719689" data-name="Trazado 719689" d="M192.388,218.368c.245-.141.443-.027.443.256a.979.979,0,0,1-.443.767c-.245.141-.443.027-.443-.256a.98.98,0,0,1,.443-.767" transform="translate(-110.47 -125.642)" fill="#27debf"/>
            <path id="Trazado_719690" data-name="Trazado 719690" d="M200.5,215.373c.244-.141.443-.027.443.256a.981.981,0,0,1-.443.767c-.245.141-.443.027-.443-.256a.979.979,0,0,1,.443-.767" transform="translate(-115.14 -123.919)" fill="#27debf"/>
            <path id="Trazado_719691" data-name="Trazado 719691" d="M208.626,205.992c.245-.141.443-.027.443.256a.979.979,0,0,1-.443.767c-.245.141-.443.027-.443-.256a.98.98,0,0,1,.443-.767" transform="translate(-119.815 -118.52)" fill="#27debf"/>
            <path id="Trazado_719692" data-name="Trazado 719692" d="M216.751,203.647c.245-.141.443-.027.443.256a.979.979,0,0,1-.443.767c-.245.141-.443.027-.443-.256a.98.98,0,0,1,.443-.767" transform="translate(-124.492 -117.17)" fill="#27debf"/>
            <path id="Trazado_719693" data-name="Trazado 719693" d="M224.875,177.85c.245-.141.443-.027.443.256a.979.979,0,0,1-.443.767c-.245.141-.443.027-.443-.256a.98.98,0,0,1,.443-.767" transform="translate(-129.167 -102.323)" fill="#27debf"/>
            <path id="Trazado_719694" data-name="Trazado 719694" d="M233,191.921c.245-.141.443-.027.443.256a.979.979,0,0,1-.443.767c-.245.141-.443.027-.443-.256a.98.98,0,0,1,.443-.767" transform="translate(-133.843 -110.421)" fill="#27debf"/>
            <path id="Trazado_719695" data-name="Trazado 719695" d="M241.123,191.921c.245-.141.443-.027.443.256a.981.981,0,0,1-.443.767c-.245.141-.443.027-.443-.256a.979.979,0,0,1,.443-.767" transform="translate(-138.518 -110.421)" fill="#27debf"/>
            <path id="Trazado_719696" data-name="Trazado 719696" d="M249.247,191.921c.245-.141.443-.027.443.256a.979.979,0,0,1-.443.767c-.245.141-.443.027-.443-.256a.98.98,0,0,1,.443-.767" transform="translate(-143.194 -110.421)" fill="#27debf"/>
            <path id="Trazado_719697" data-name="Trazado 719697" d="M257.371,177.85c.245-.141.443-.027.443.256a.979.979,0,0,1-.443.767c-.245.141-.443.027-.443-.256a.979.979,0,0,1,.443-.767" transform="translate(-147.87 -102.323)" fill="#27debf"/>
            <path id="Trazado_719698" data-name="Trazado 719698" d="M265.5,175.154c.245-.141.443-.027.443.256a.979.979,0,0,1-.443.767c-.245.141-.443.027-.443-.256a.98.98,0,0,1,.443-.767" transform="translate(-152.545 -100.771)" fill="#27debf"/>
            <path id="Trazado_719699" data-name="Trazado 719699" d="M273.648,163.779c.245-.141.443-.027.443.256a.979.979,0,0,1-.443.767c-.245.141-.444.027-.444-.256a.979.979,0,0,1,.444-.767" transform="translate(-157.237 -94.225)" fill="#27debf"/>
            <path id="Trazado_719700" data-name="Trazado 719700" d="M281.744,163.779c.245-.141.443-.027.443.256a.979.979,0,0,1-.443.767c-.245.141-.443.027-.443-.256a.978.978,0,0,1,.443-.767" transform="translate(-161.897 -94.225)" fill="#27debf"/>
            <path id="Trazado_719701" data-name="Trazado 719701" d="M289.868,163.779c.245-.141.443-.027.443.256a.979.979,0,0,1-.443.767c-.245.141-.444.027-.444-.256a.979.979,0,0,1,.444-.767" transform="translate(-166.572 -94.225)" fill="#27debf"/>
            <path id="Trazado_719702" data-name="Trazado 719702" d="M297.992,159.088c.245-.141.443-.027.443.256a.979.979,0,0,1-.443.767c-.245.141-.443.027-.443-.256a.979.979,0,0,1,.443-.767" transform="translate(-171.248 -91.525)" fill="#27debf"/>
            <path id="Trazado_719703" data-name="Trazado 719703" d="M160.318,196.179a.106.106,0,0,1-.08-.176l3.482-4a.106.106,0,0,1,.027-.023L167.171,190l3.443-1.118,3.43-3.566a.108.108,0,0,1,.04-.026l3.423-1.262,3.431-3.962a.107.107,0,0,1,.051-.033l3.393-.979,3.431-10.9a.107.107,0,0,1,.09-.073.109.109,0,0,1,.1.052l3.417,5.92,3.4,0,3.379,0,3.418-5.92a.1.1,0,0,1,.059-.048l3.416-1.134,3.428-4.8a.105.105,0,0,1,.086-.045h6.868l3.424-1.977a.106.106,0,1,1,.106.183l-3.449,1.991a.106.106,0,0,1-.053.014H208.66l-3.417,4.784a.1.1,0,0,1-.053.039l-3.41,1.132-3.428,5.938a.107.107,0,0,1-.092.053l-3.44,0-3.457,0a.107.107,0,0,1-.092-.053l-3.327-5.764-3.376,10.72a.106.106,0,0,1-.072.07l-3.418.986-3.428,3.959a.106.106,0,0,1-.043.03l-3.426,1.262-3.431,3.568a.112.112,0,0,1-.044.027l-3.448,1.117-3.388,1.958-3.47,3.988a.107.107,0,0,1-.08.037" transform="translate(-92.207 -92.157)" fill="#e7edf6"/>
            <path id="Trazado_719704" data-name="Trazado 719704" d="M160.2,203.527a.212.212,0,0,1-.107-.4l58.624-33.846a.212.212,0,0,1,.212.368L160.3,203.5a.207.207,0,0,1-.106.028" transform="translate(-92.075 -97.412)" fill="#e0e0e0"/>
            <path id="Trazado_719705" data-name="Trazado 719705" d="M159.883,238.825c.245-.141.443-.027.443.256a.979.979,0,0,1-.443.767c-.245.141-.443.027-.443-.256a.98.98,0,0,1,.443-.767" transform="translate(-91.762 -137.416)" fill="#27debf"/>
            <path id="Trazado_719706" data-name="Trazado 719706" d="M168.006,224.754c.244-.141.443-.027.443.256a.979.979,0,0,1-.443.767c-.244.141-.443.027-.443-.256a.979.979,0,0,1,.443-.767" transform="translate(-96.437 -129.318)" fill="#27debf"/>
            <path id="Trazado_719707" data-name="Trazado 719707" d="M176.131,223c.245-.141.443-.027.443.256a.979.979,0,0,1-.443.767c-.244.141-.443.027-.443-.256a.98.98,0,0,1,.443-.767" transform="translate(-101.114 -128.307)" fill="#27debf"/>
            <path id="Trazado_719708" data-name="Trazado 719708" d="M184.254,205.992c.245-.141.443-.027.443.256a.979.979,0,0,1-.443.767c-.244.141-.443.027-.443-.256a.98.98,0,0,1,.443-.767" transform="translate(-105.789 -118.52)" fill="#27debf"/>
            <path id="Trazado_719709" data-name="Trazado 719709" d="M192.388,210.683c.245-.141.443-.027.443.256a.979.979,0,0,1-.443.767c-.245.141-.443.027-.443-.256a.98.98,0,0,1,.443-.767" transform="translate(-110.47 -121.219)" fill="#27debf"/>
            <path id="Trazado_719710" data-name="Trazado 719710" d="M200.5,208.338c.245-.141.443-.027.443.256a.979.979,0,0,1-.443.767c-.245.141-.443.027-.443-.256a.98.98,0,0,1,.443-.767" transform="translate(-115.141 -119.87)" fill="#27debf"/>
            <path id="Trazado_719711" data-name="Trazado 719711" d="M208.626,201.3c.245-.141.443-.027.443.256a.979.979,0,0,1-.443.767c-.245.141-.443.027-.443-.256a.98.98,0,0,1,.443-.767" transform="translate(-119.815 -115.82)" fill="#27debf"/>
            <path id="Trazado_719712" data-name="Trazado 719712" d="M216.751,191.921c.244-.141.443-.027.443.256a.98.98,0,0,1-.443.767c-.245.141-.444.027-.444-.256a.979.979,0,0,1,.444-.767" transform="translate(-124.491 -110.421)" fill="#27debf"/>
            <path id="Trazado_719713" data-name="Trazado 719713" d="M224.875,189.576c.245-.141.443-.027.443.256a.979.979,0,0,1-.443.767c-.245.141-.443.027-.443-.256a.98.98,0,0,1,.443-.767" transform="translate(-129.167 -109.072)" fill="#27debf"/>
            <path id="Trazado_719714" data-name="Trazado 719714" d="M233,182.54c.245-.141.443-.027.443.256a.979.979,0,0,1-.443.767c-.245.141-.443.027-.443-.256a.98.98,0,0,1,.443-.767" transform="translate(-133.843 -105.022)" fill="#27debf"/>
            <path id="Trazado_719715" data-name="Trazado 719715" d="M241.123,182.54c.245-.141.443-.027.443.256a.979.979,0,0,1-.443.767c-.245.141-.443.027-.443-.256a.979.979,0,0,1,.443-.767" transform="translate(-138.518 -105.022)" fill="#27debf"/>
            <path id="Trazado_719716" data-name="Trazado 719716" d="M249.247,163.779c.245-.141.443-.027.443.256a.979.979,0,0,1-.443.767c-.245.141-.443.027-.443-.256a.98.98,0,0,1,.443-.767" transform="translate(-143.194 -94.225)" fill="#27debf"/>
            <path id="Trazado_719717" data-name="Trazado 719717" d="M257.371,173.093c.245-.141.443-.027.443.256a.979.979,0,0,1-.443.767c-.245.141-.443.027-.443-.256a.98.98,0,0,1,.443-.767" transform="translate(-147.87 -99.585)" fill="#27debf"/>
            <path id="Trazado_719718" data-name="Trazado 719718" d="M265.5,163.779c.244-.141.443-.027.443.256a.979.979,0,0,1-.443.767c-.245.141-.443.027-.443-.256a.979.979,0,0,1,.443-.767" transform="translate(-152.545 -94.225)" fill="#27debf"/>
            <path id="Trazado_719719" data-name="Trazado 719719" d="M273.619,159.088c.245-.141.443-.027.443.256a.981.981,0,0,1-.443.767c-.245.141-.443.027-.443-.256a.979.979,0,0,1,.443-.767" transform="translate(-157.221 -91.525)" fill="#27debf"/>
            <path id="Trazado_719720" data-name="Trazado 719720" d="M281.743,159.088c.245-.141.443-.027.443.256a.979.979,0,0,1-.443.767c-.244.141-.443.027-.443-.256a.979.979,0,0,1,.443-.767" transform="translate(-161.896 -91.525)" fill="#27debf"/>
            <path id="Trazado_719721" data-name="Trazado 719721" d="M289.868,154.4c.245-.141.443-.027.443.256a.979.979,0,0,1-.443.767c-.245.141-.444.027-.444-.256a.979.979,0,0,1,.444-.767" transform="translate(-166.572 -88.826)" fill="#27debf"/>
            <path id="Trazado_719722" data-name="Trazado 719722" d="M297.992,154.4c.245-.141.443-.027.443.256a.979.979,0,0,1-.443.767c-.245.141-.443.027-.443-.256a.979.979,0,0,1,.443-.767" transform="translate(-171.248 -88.826)" fill="#27debf"/>
            <path id="Trazado_719723" data-name="Trazado 719723" d="M160.34,191.484a.1.1,0,0,1-.053-.014.106.106,0,0,1-.039-.145l3.473-5.987a.107.107,0,0,1,.07-.051l3.372-.72,3.426-7.171a.106.106,0,0,1,.149-.046l3.414,1.971,3.379-.979,3.426-2.968L184.4,171.4a.1.1,0,0,1,.051-.033l3.426-.989,3.431-2.971a.108.108,0,0,1,.07-.026h3.379l3.421-7.9a.106.106,0,0,1,.178-.028l3.368,3.889,3.368-3.889a.106.106,0,0,1,.027-.022l3.461-2a.105.105,0,0,1,.053-.014h3.42l3.412-1.97a.107.107,0,0,1,.053-.014h3.449a.106.106,0,0,1,0,.212h-3.42l-3.412,1.97a.106.106,0,0,1-.053.014h-3.42l-3.421,1.975-3.436,3.968a.11.11,0,0,1-.161,0L198.3,159.72l-3.381,7.809a.107.107,0,0,1-.1.064h-3.409L188,170.553a.1.1,0,0,1-.04.022l-3.419.987-3.432,3.961-3.454,2.995a.107.107,0,0,1-.04.022l-3.445,1a.111.111,0,0,1-.082-.01l-3.353-1.936-3.4,7.115a.107.107,0,0,1-.074.058l-3.378.721-3.449,5.946a.106.106,0,0,1-.092.053" transform="translate(-92.22 -89.457)" fill="#27debf"/>
            <g id="Grupo_1017963" data-name="Grupo 1017963" transform="translate(67.678 65.511)" opacity="0.3">
              <g id="Grupo_1017962" data-name="Grupo 1017962">
                <g id="Grupo_1017961" data-name="Grupo 1017961" clip-path="url(#clip-path-11)">
                  <path id="Trazado_719724" data-name="Trazado 719724" d="M159.883,238.825c.245-.141.443-.027.443.256a.979.979,0,0,1-.443.767c-.245.141-.443.027-.443-.256a.98.98,0,0,1,.443-.767" transform="translate(-159.44 -202.927)" fill="#cda7ff"/>
                  <path id="Trazado_719725" data-name="Trazado 719725" d="M168.006,224.754c.244-.141.443-.027.443.256a.979.979,0,0,1-.443.767c-.244.141-.443.027-.443-.256a.979.979,0,0,1,.443-.767" transform="translate(-164.115 -194.829)" fill="#cda7ff"/>
                  <path id="Trazado_719726" data-name="Trazado 719726" d="M176.131,223c.245-.141.443-.027.443.256a.979.979,0,0,1-.443.767c-.244.141-.443.027-.443-.256a.98.98,0,0,1,.443-.767" transform="translate(-168.791 -193.819)" fill="#cda7ff"/>
                  <path id="Trazado_719727" data-name="Trazado 719727" d="M184.254,205.992c.245-.141.443-.027.443.256a.979.979,0,0,1-.443.767c-.244.141-.443.027-.443-.256a.98.98,0,0,1,.443-.767" transform="translate(-173.466 -184.031)" fill="#cda7ff"/>
                  <path id="Trazado_719728" data-name="Trazado 719728" d="M192.388,210.683c.245-.141.443-.027.443.256a.979.979,0,0,1-.443.767c-.245.141-.443.027-.443-.256a.98.98,0,0,1,.443-.767" transform="translate(-178.148 -186.731)" fill="#cda7ff"/>
                  <path id="Trazado_719729" data-name="Trazado 719729" d="M200.5,208.338c.245-.141.443-.027.443.256a.979.979,0,0,1-.443.767c-.245.141-.443.027-.443-.256a.98.98,0,0,1,.443-.767" transform="translate(-182.819 -185.381)" fill="#cda7ff"/>
                  <path id="Trazado_719730" data-name="Trazado 719730" d="M208.626,201.3c.245-.141.443-.027.443.256a.979.979,0,0,1-.443.767c-.245.141-.443.027-.443-.256a.98.98,0,0,1,.443-.767" transform="translate(-187.493 -181.332)" fill="#cda7ff"/>
                  <path id="Trazado_719731" data-name="Trazado 719731" d="M216.751,191.921c.244-.141.443-.027.443.256a.98.98,0,0,1-.443.767c-.245.141-.444.027-.444-.256a.979.979,0,0,1,.444-.767" transform="translate(-192.169 -175.933)" fill="#cda7ff"/>
                  <path id="Trazado_719732" data-name="Trazado 719732" d="M224.875,189.576c.245-.141.443-.027.443.256a.979.979,0,0,1-.443.767c-.245.141-.443.027-.443-.256a.98.98,0,0,1,.443-.767" transform="translate(-196.845 -174.583)" fill="#cda7ff"/>
                  <path id="Trazado_719733" data-name="Trazado 719733" d="M233,182.54c.245-.141.443-.027.443.256a.979.979,0,0,1-.443.767c-.245.141-.443.027-.443-.256a.98.98,0,0,1,.443-.767" transform="translate(-201.52 -170.534)" fill="#cda7ff"/>
                  <path id="Trazado_719734" data-name="Trazado 719734" d="M241.123,182.54c.245-.141.443-.027.443.256a.979.979,0,0,1-.443.767c-.245.141-.443.027-.443-.256a.979.979,0,0,1,.443-.767" transform="translate(-206.196 -170.534)" fill="#cda7ff"/>
                  <path id="Trazado_719735" data-name="Trazado 719735" d="M249.247,163.779c.245-.141.443-.027.443.256a.979.979,0,0,1-.443.767c-.245.141-.443.027-.443-.256a.98.98,0,0,1,.443-.767" transform="translate(-210.872 -159.736)" fill="#cda7ff"/>
                  <path id="Trazado_719736" data-name="Trazado 719736" d="M257.371,173.093c.245-.141.443-.027.443.256a.979.979,0,0,1-.443.767c-.245.141-.443.027-.443-.256a.98.98,0,0,1,.443-.767" transform="translate(-215.547 -165.097)" fill="#cda7ff"/>
                  <path id="Trazado_719737" data-name="Trazado 719737" d="M265.5,163.779c.244-.141.443-.027.443.256a.979.979,0,0,1-.443.767c-.245.141-.443.027-.443-.256a.979.979,0,0,1,.443-.767" transform="translate(-220.223 -159.736)" fill="#cda7ff"/>
                  <path id="Trazado_719738" data-name="Trazado 719738" d="M273.619,159.088c.245-.141.443-.027.443.256a.981.981,0,0,1-.443.767c-.245.141-.443.027-.443-.256a.979.979,0,0,1,.443-.767" transform="translate(-224.898 -157.036)" fill="#cda7ff"/>
                  <path id="Trazado_719739" data-name="Trazado 719739" d="M281.743,159.088c.245-.141.443-.027.443.256a.979.979,0,0,1-.443.767c-.244.141-.443.027-.443-.256a.979.979,0,0,1,.443-.767" transform="translate(-229.574 -157.036)" fill="#cda7ff"/>
                  <path id="Trazado_719740" data-name="Trazado 719740" d="M289.868,154.4c.245-.141.443-.027.443.256a.979.979,0,0,1-.443.767c-.245.141-.444.027-.444-.256a.979.979,0,0,1,.444-.767" transform="translate(-234.25 -154.337)" fill="#cda7ff"/>
                  <path id="Trazado_719741" data-name="Trazado 719741" d="M297.992,154.4c.245-.141.443-.027.443.256a.979.979,0,0,1-.443.767c-.245.141-.443.027-.443-.256a.979.979,0,0,1,.443-.767" transform="translate(-238.926 -154.337)" fill="#cda7ff"/>
                  <path id="Trazado_719742" data-name="Trazado 719742" d="M160.34,191.484a.1.1,0,0,1-.053-.014.106.106,0,0,1-.039-.145l3.473-5.987a.107.107,0,0,1,.07-.051l3.372-.72,3.426-7.171a.106.106,0,0,1,.149-.046l3.414,1.971,3.379-.979,3.426-2.968L184.4,171.4a.1.1,0,0,1,.051-.033l3.426-.989,3.431-2.971a.108.108,0,0,1,.07-.026h3.379l3.421-7.9a.106.106,0,0,1,.178-.028l3.368,3.889,3.368-3.889a.106.106,0,0,1,.027-.022l3.461-2a.105.105,0,0,1,.053-.014h3.42l3.412-1.97a.107.107,0,0,1,.053-.014h3.449a.106.106,0,0,1,0,.212h-3.42l-3.412,1.97a.106.106,0,0,1-.053.014h-3.42l-3.421,1.975-3.436,3.968a.11.11,0,0,1-.161,0L198.3,159.72l-3.381,7.809a.107.107,0,0,1-.1.064h-3.409L188,170.553a.1.1,0,0,1-.04.022l-3.419.987-3.432,3.961-3.454,2.995a.107.107,0,0,1-.04.022l-3.445,1a.111.111,0,0,1-.082-.01l-3.353-1.936-3.4,7.115a.107.107,0,0,1-.074.058l-3.378.721-3.449,5.946a.106.106,0,0,1-.092.053" transform="translate(-159.897 -154.969)" fill="#cda7ff"/>
                </g>
              </g>
            </g>
            <path id="Trazado_719743" data-name="Trazado 719743" d="M164.324,201.416l3.339-1.938c.169-.1.306-.028.306.155a.657.657,0,0,1-.306.509l-3.339,1.938c-.169.1-.306.028-.306-.155a.657.657,0,0,1,.306-.509" transform="translate(-94.397 -114.78)" fill="#e0e0e0"/>
            <path id="Trazado_719744" data-name="Trazado 719744" d="M159.882,205.993c.245-.141.443-.027.443.256a.979.979,0,0,1-.443.767c-.245.141-.443.027-.443-.256a.98.98,0,0,1,.443-.767" transform="translate(-91.762 -118.52)" fill="#27debf"/>
            <g id="Grupo_1017966" data-name="Grupo 1017966" transform="translate(67.678 87.412)" opacity="0.3">
              <g id="Grupo_1017965" data-name="Grupo 1017965">
                <g id="Grupo_1017964" data-name="Grupo 1017964" clip-path="url(#clip-path-12)">
                  <path id="Trazado_719745" data-name="Trazado 719745" d="M159.882,205.993c.245-.141.443-.027.443.256a.979.979,0,0,1-.443.767c-.245.141-.443.027-.443-.256a.98.98,0,0,1,.443-.767" transform="translate(-159.439 -205.932)"/>
                </g>
              </g>
            </g>
            <path id="Trazado_719746" data-name="Trazado 719746" d="M164.324,206.094l3.339-1.938c.169-.1.306-.028.306.155a.657.657,0,0,1-.306.509l-3.339,1.938c-.169.1-.306.028-.306-.155a.657.657,0,0,1,.306-.509" transform="translate(-94.397 -117.472)" fill="#e0e0e0"/>
            <path id="Trazado_719747" data-name="Trazado 719747" d="M159.882,210.683c.245-.141.443-.027.443.256a.979.979,0,0,1-.443.767c-.245.141-.443.027-.443-.256a.98.98,0,0,1,.443-.767" transform="translate(-91.762 -121.219)" fill="#27debf"/>
            <path id="Trazado_719748" data-name="Trazado 719748" d="M160.34,259.479a.106.106,0,0,1-.076-.18l1.75-1.8,1.718-.218,1.734-2.241,1.736.238,1.687-1.523,1.722-1.033,1.756-2.433,1.744.547,1.676-1.5a.106.106,0,0,1,.142.158l-1.766,1.578-1.712-.537-1.711,2.356-1.725,1.031-1.744,1.577-1.712-.235-1.714,2.214-1.731.219-1.7,1.746a.106.106,0,0,1-.076.032" transform="translate(-92.22 -143.486)" fill="#27debf"/>
            <path id="Trazado_719749" data-name="Trazado 719749" d="M161.327,258.075a.428.428,0,0,1,.044-.038.3.3,0,0,1,.048-.033.494.494,0,0,1,.261-.079.313.313,0,0,1,.207.079.5.5,0,0,1,.136.218,1.045,1.045,0,0,1,.05.341,1.635,1.635,0,0,1-.05.4,1.853,1.853,0,0,1-.136.376,1.5,1.5,0,0,1-.207.318,1.025,1.025,0,0,1-.261.223.511.511,0,0,1-.262.079.32.32,0,0,1-.207-.079.5.5,0,0,1-.136-.219,1.05,1.05,0,0,1-.049-.341,1.429,1.429,0,0,1,.017-.219,1.731,1.731,0,0,1,.043-.208c.017-.067.037-.133.059-.2s.043-.127.065-.185l.459-1.307c.008-.017.018-.039.028-.065a.109.109,0,0,1,.05-.058l.144-.083a.026.026,0,0,1,.037,0,.083.083,0,0,1,.014.052.126.126,0,0,1,0,.034.13.13,0,0,1-.009.024Zm-.323,1.1a.676.676,0,0,0,.028.205.343.343,0,0,0,.082.139.2.2,0,0,0,.129.056.33.33,0,0,0,.174-.052.644.644,0,0,0,.172-.147.986.986,0,0,0,.13-.206,1.15,1.15,0,0,0,.082-.234,1.03,1.03,0,0,0,.028-.238.662.662,0,0,0-.028-.2.33.33,0,0,0-.082-.139.194.194,0,0,0-.13-.055.312.312,0,0,0-.172.051.643.643,0,0,0-.174.148,1,1,0,0,0-.129.205,1.217,1.217,0,0,0-.082.233,1.065,1.065,0,0,0-.028.238" transform="translate(-92.524 -147.905)" fill="#455a64"/>
            <path id="Trazado_719750" data-name="Trazado 719750" d="M164.532,257.167a.513.513,0,0,0,.035.1.141.141,0,0,0,.068.071.2.2,0,0,0,.12.011.614.614,0,0,0,.193-.08.72.72,0,0,0,.149-.115.775.775,0,0,0,.124-.163.894.894,0,0,0,.084-.2.849.849,0,0,0,.032-.238.5.5,0,0,0-.03-.194.168.168,0,0,0-.082-.093.193.193,0,0,0-.122-.006.653.653,0,0,0-.154.065l-.209.121a.036.036,0,0,1-.048,0,.084.084,0,0,1-.02-.062v-.139a.206.206,0,0,1,.014-.073c.009-.025.018-.047.027-.068l.454-1.016-.726.419a.036.036,0,0,1-.048,0,.083.083,0,0,1-.02-.062v-.14a.2.2,0,0,1,.02-.085.122.122,0,0,1,.048-.059l.994-.574a.037.037,0,0,1,.048,0,.082.082,0,0,1,.02.062v.14a.248.248,0,0,1-.012.076.686.686,0,0,1-.033.083l-.447,1a.538.538,0,0,1,.231-.073.26.26,0,0,1,.179.056.389.389,0,0,1,.116.182.94.94,0,0,1,.042.3,1.473,1.473,0,0,1-.051.385,1.581,1.581,0,0,1-.135.342,1.422,1.422,0,0,1-.2.281,1.051,1.051,0,0,1-.244.2.732.732,0,0,1-.291.108.3.3,0,0,1-.2-.042.319.319,0,0,1-.118-.153.664.664,0,0,1-.042-.226.158.158,0,0,1,.017-.07.1.1,0,0,1,.039-.048l.116-.068c.019-.011.034-.011.044,0a.078.078,0,0,1,.022.044" transform="translate(-94.556 -146.517)" fill="#455a64"/>
            <path id="Trazado_719751" data-name="Trazado 719751" d="M168.068,255.125a.56.56,0,0,0,.035.1.147.147,0,0,0,.068.071.2.2,0,0,0,.12.01.59.59,0,0,0,.194-.08.724.724,0,0,0,.149-.114.785.785,0,0,0,.124-.163.931.931,0,0,0,.084-.2.852.852,0,0,0,.031-.238.5.5,0,0,0-.03-.195.166.166,0,0,0-.082-.092.19.19,0,0,0-.122-.005.57.57,0,0,0-.154.065l-.21.121a.037.037,0,0,1-.048,0,.082.082,0,0,1-.02-.062v-.14a.205.205,0,0,1,.014-.072c.009-.025.018-.047.027-.068l.454-1.015-.727.419a.037.037,0,0,1-.048,0,.085.085,0,0,1-.02-.062v-.141a.2.2,0,0,1,.02-.085.129.129,0,0,1,.048-.059l.994-.574a.037.037,0,0,1,.048,0,.083.083,0,0,1,.02.062v.14a.257.257,0,0,1-.012.075.694.694,0,0,1-.033.084l-.447,1a.532.532,0,0,1,.23-.073.26.26,0,0,1,.18.056.383.383,0,0,1,.116.182.939.939,0,0,1,.042.3,1.474,1.474,0,0,1-.051.385,1.61,1.61,0,0,1-.135.342,1.4,1.4,0,0,1-.2.28,1.026,1.026,0,0,1-.243.2.719.719,0,0,1-.292.108.3.3,0,0,1-.2-.042.324.324,0,0,1-.118-.153.659.659,0,0,1-.042-.226.161.161,0,0,1,.017-.07.109.109,0,0,1,.039-.048l.116-.067c.019-.011.034-.01.044,0a.081.081,0,0,1,.021.044" transform="translate(-96.592 -145.341)" fill="#455a64"/>
            <path id="Trazado_719752" data-name="Trazado 719752" d="M160.8,264.725l14.9-8.635c.169-.1.306-.028.306.155a.657.657,0,0,1-.306.509l-14.9,8.634c-.169.1-.306.028-.306-.155a.657.657,0,0,1,.306-.509" transform="translate(-92.371 -147.362)" fill="#e0e0e0"/>
            <path id="Trazado_719753" data-name="Trazado 719753" d="M160.8,250.341l3.339-1.938c.169-.1.306-.028.306.155a.657.657,0,0,1-.306.509L160.8,251c-.169.1-.306.028-.306-.155a.657.657,0,0,1,.306-.509" transform="translate(-92.371 -142.938)" fill="#e0e0e0"/>
            <path id="Trazado_719754" data-name="Trazado 719754" d="M160.34,285.646a.106.106,0,0,1-.074-.03.107.107,0,0,1,0-.15l1.75-1.8,1.729-.219,1.742-1.522,1.678-.458,1.75-3.484,1.755.86,1.692-1.492.029-.006,1.68-.319,1.7-2.934a.106.106,0,1,1,.184.106l-1.745,3.018-1.747.331L170.7,279.1l-1.694-.829-1.7,3.381-1.746.476-1.731,1.526-1.72.218-1.7,1.746a.106.106,0,0,1-.076.032" transform="translate(-92.22 -157.719)" fill="#27debf"/>
            <g id="Grupo_1017969" data-name="Grupo 1017969" transform="translate(68.015 116.322)" opacity="0.3">
              <g id="Grupo_1017968" data-name="Grupo 1017968">
                <g id="Grupo_1017967" data-name="Grupo 1017967" clip-path="url(#clip-path-13)">
                  <path id="Trazado_719755" data-name="Trazado 719755" d="M160.34,285.646a.106.106,0,0,1-.074-.03.107.107,0,0,1,0-.15l1.75-1.8,1.729-.219,1.742-1.522,1.678-.458,1.75-3.484,1.755.86,1.692-1.492.029-.006,1.68-.319,1.7-2.934a.106.106,0,1,1,.184.106l-1.745,3.018-1.747.331L170.7,279.1l-1.694-.829-1.7,3.381-1.746.476-1.731,1.526-1.72.218-1.7,1.746a.106.106,0,0,1-.076.032" transform="translate(-160.234 -274.041)"/>
                </g>
              </g>
            </g>
            <path id="Trazado_719756" data-name="Trazado 719756" d="M161.448,287.92a.2.2,0,0,1-.02.085.128.128,0,0,1-.048.059l-.1.059a.037.037,0,0,1-.048,0,.085.085,0,0,1-.02-.062v-2.141l-.409.714a.1.1,0,0,1-.051.053.039.039,0,0,1-.046-.013l-.06-.086a.1.1,0,0,1-.014-.07.212.212,0,0,1,.027-.084l.54-.949a.182.182,0,0,1,.041-.051.351.351,0,0,1,.04-.027l.1-.059a.036.036,0,0,1,.048,0,.085.085,0,0,1,.02.062Z" transform="translate(-92.446 -164.22)" fill="#455a64"/>
            <path id="Trazado_719757" data-name="Trazado 719757" d="M164.079,285.033a1.616,1.616,0,0,0,.114-.279,1.111,1.111,0,0,0,.037-.305.462.462,0,0,0-.078-.3c-.052-.062-.135-.06-.247.005a.548.548,0,0,0-.15.125.766.766,0,0,0-.1.166,1.105,1.105,0,0,0-.065.194c-.016.067-.029.135-.039.2a.246.246,0,0,1-.026.081.125.125,0,0,1-.039.046l-.117.067a.031.031,0,0,1-.039,0,.07.07,0,0,1-.016-.051,1.453,1.453,0,0,1,.042-.316,1.764,1.764,0,0,1,.116-.335,1.594,1.594,0,0,1,.186-.306.875.875,0,0,1,.251-.223.462.462,0,0,1,.244-.075.252.252,0,0,1,.177.077.457.457,0,0,1,.107.2,1.111,1.111,0,0,1,.037.3,2.086,2.086,0,0,1-.013.232,1.487,1.487,0,0,1-.042.216,2.006,2.006,0,0,1-.075.22q-.045.111-.111.239l-.562,1.133.772-.446a.037.037,0,0,1,.048,0,.085.085,0,0,1,.02.062v.14a.2.2,0,0,1-.02.085.129.129,0,0,1-.048.059l-1.087.627a.035.035,0,0,1-.048,0,.081.081,0,0,1-.021-.062v-.139a.254.254,0,0,1,.013-.081.739.739,0,0,1,.043-.1Z" transform="translate(-93.975 -163.295)" fill="#455a64"/>
            <path id="Trazado_719758" data-name="Trazado 719758" d="M168.111,282.418q0,.173,0,.327c0,.1,0,.212,0,.33a2.628,2.628,0,0,1-.042.445,1.937,1.937,0,0,1-.117.407,1.4,1.4,0,0,1-.2.34,1,1,0,0,1-.287.247.491.491,0,0,1-.287.084.278.278,0,0,1-.2-.111.657.657,0,0,1-.117-.272,1.9,1.9,0,0,1-.042-.4c0-.116,0-.225,0-.327s0-.212,0-.33a2.668,2.668,0,0,1,.042-.446,1.924,1.924,0,0,1,.117-.408,1.439,1.439,0,0,1,.2-.341.988.988,0,0,1,.287-.25.476.476,0,0,1,.287-.081.289.289,0,0,1,.2.112.665.665,0,0,1,.117.272,1.868,1.868,0,0,1,.042.4m-1.05,1.263a.8.8,0,0,0,.107.482q.1.115.3,0a.714.714,0,0,0,.3-.347,1.576,1.576,0,0,0,.107-.605q0-.177,0-.33c0-.1,0-.211,0-.326a.8.8,0,0,0-.107-.484c-.068-.079-.167-.079-.3,0a.716.716,0,0,0-.3.35,1.59,1.59,0,0,0-.107.608q0,.176,0,.329c0,.1,0,.211,0,.327" transform="translate(-96.011 -162.089)" fill="#455a64"/>
            <path id="Trazado_719759" data-name="Trazado 719759" d="M160.8,292.843l14.9-8.635c.169-.1.306-.028.306.155a.656.656,0,0,1-.306.508l-14.9,8.635c-.169.1-.306.028-.306-.155a.657.657,0,0,1,.306-.509" transform="translate(-92.371 -163.545)" fill="#e0e0e0"/>
            <path id="Trazado_719760" data-name="Trazado 719760" d="M160.8,278.458l3.339-1.937c.169-.1.306-.028.306.155a.656.656,0,0,1-.306.509l-3.339,1.938c-.169.1-.306.028-.306-.155a.657.657,0,0,1,.306-.509" transform="translate(-92.371 -159.12)" fill="#e0e0e0"/>
            <path id="Trazado_719761" data-name="Trazado 719761" d="M209.084,231.278a.106.106,0,0,1-.066-.189l1.724-1.375,1.737-1.984,1.762-.256,1.682-.379,1.741-2.057,1.714.3,1.718-2.721,1.746.027,1.689-1.51a.106.106,0,0,1,.142.159l-1.751,1.565-1.71-.028-1.731,2.742-1.734-.306-1.708,2.017-1.759.4-1.693.246-1.7,1.939-1.738,1.388a.1.1,0,0,1-.066.023" transform="translate(-120.273 -127.256)" fill="#27debf"/>
            <path id="Trazado_719762" data-name="Trazado 719762" d="M210.072,229.874a.438.438,0,0,1,.044-.038.328.328,0,0,1,.047-.033.5.5,0,0,1,.261-.079.317.317,0,0,1,.207.078.5.5,0,0,1,.136.219,1.043,1.043,0,0,1,.05.341,1.63,1.63,0,0,1-.05.4,1.842,1.842,0,0,1-.136.376,1.56,1.56,0,0,1-.207.318,1.008,1.008,0,0,1-.261.223.509.509,0,0,1-.262.079.317.317,0,0,1-.207-.079.5.5,0,0,1-.136-.219,1.049,1.049,0,0,1-.049-.341,1.421,1.421,0,0,1,.016-.219,1.891,1.891,0,0,1,.043-.208c.018-.067.037-.133.059-.2s.043-.126.065-.185l.459-1.307q.013-.026.028-.065a.115.115,0,0,1,.05-.058l.144-.083a.026.026,0,0,1,.037,0,.083.083,0,0,1,.014.052.123.123,0,0,1,0,.033.15.15,0,0,1-.009.025Zm-.323,1.1a.657.657,0,0,0,.029.2.34.34,0,0,0,.082.14.194.194,0,0,0,.129.055.319.319,0,0,0,.174-.051.648.648,0,0,0,.172-.148.981.981,0,0,0,.13-.206,1.2,1.2,0,0,0,.082-.233,1.031,1.031,0,0,0,.028-.238.662.662,0,0,0-.028-.2.34.34,0,0,0-.082-.14.192.192,0,0,0-.13-.054.313.313,0,0,0-.172.051.648.648,0,0,0-.174.148.982.982,0,0,0-.129.205,1.2,1.2,0,0,0-.082.233,1.042,1.042,0,0,0-.029.238" transform="translate(-120.579 -131.675)" fill="#455a64"/>
            <path id="Trazado_719763" data-name="Trazado 719763" d="M213.875,228.107a1.659,1.659,0,0,0,.114-.279,1.128,1.128,0,0,0,.037-.305.465.465,0,0,0-.078-.3c-.052-.062-.135-.06-.247.006a.553.553,0,0,0-.15.125.764.764,0,0,0-.1.166,1.071,1.071,0,0,0-.066.194c-.016.067-.029.135-.039.2a.256.256,0,0,1-.026.081.129.129,0,0,1-.039.046l-.116.067a.03.03,0,0,1-.039,0,.069.069,0,0,1-.016-.051,1.481,1.481,0,0,1,.042-.316,1.767,1.767,0,0,1,.116-.335,1.553,1.553,0,0,1,.185-.306.869.869,0,0,1,.251-.223.464.464,0,0,1,.245-.075.254.254,0,0,1,.177.077.466.466,0,0,1,.107.2,1.111,1.111,0,0,1,.036.3,2.093,2.093,0,0,1-.012.232,1.544,1.544,0,0,1-.042.216,1.773,1.773,0,0,1-.075.22q-.045.111-.111.239l-.562,1.133.772-.446a.037.037,0,0,1,.048,0,.085.085,0,0,1,.02.062v.14a.2.2,0,0,1-.02.085.124.124,0,0,1-.048.059l-1.087.627a.035.035,0,0,1-.048,0,.082.082,0,0,1-.02-.062v-.139a.253.253,0,0,1,.013-.081.74.74,0,0,1,.043-.1Z" transform="translate(-122.634 -130.532)" fill="#455a64"/>
            <path id="Trazado_719764" data-name="Trazado 719764" d="M217.51,224.493a.037.037,0,0,1,.048,0,.083.083,0,0,1,.02.062v.14a.49.49,0,0,1-.007.078c-.005.029-.012.06-.02.093l-.561,2.55a.607.607,0,0,1-.026.079.112.112,0,0,1-.047.056l-.116.067a.031.031,0,0,1-.042,0,.074.074,0,0,1-.018-.056s0-.011,0-.018a.267.267,0,0,1,.007-.033l.562-2.554-.827.478a.037.037,0,0,1-.048,0,.084.084,0,0,1-.02-.062v-.14a.2.2,0,0,1,.02-.085.13.13,0,0,1,.048-.059Z" transform="translate(-124.553 -129.198)" fill="#455a64"/>
            <path id="Trazado_719765" data-name="Trazado 719765" d="M209.548,236.525l14.9-8.635c.169-.1.306-.028.306.155a.656.656,0,0,1-.306.509l-14.9,8.635c-.169.1-.306.028-.306-.155a.657.657,0,0,1,.306-.509" transform="translate(-120.425 -131.132)" fill="#e0e0e0"/>
            <path id="Trazado_719766" data-name="Trazado 719766" d="M209.548,222.14l3.339-1.938c.169-.1.306-.028.306.155a.657.657,0,0,1-.306.509l-3.339,1.938c-.169.1-.306.028-.306-.155a.657.657,0,0,1,.306-.509" transform="translate(-120.425 -126.707)" fill="#e0e0e0"/>
            <path id="Trazado_719767" data-name="Trazado 719767" d="M209.084,259.4a.106.106,0,0,1-.091-.161l1.762-2.891,1.772.328,1.668-.456,1.725-2.1,1.714-.433,1.743-3.1,1.781.517,1.675-.317,1.7-1.512a.1.1,0,0,1,.149.008.106.106,0,0,1-.008.15l-1.742,1.551-.028.006-1.753.332-1.668-.484-1.705,3.037-1.735.438-1.724,2.1-.032.009-1.748.478-.024,0-1.652-.306-1.686,2.765a.107.107,0,0,1-.091.051" transform="translate(-120.273 -143.447)" fill="#27debf"/>
            <g id="Grupo_1017972" data-name="Grupo 1017972" transform="translate(88.705 105.797)" opacity="0.3">
              <g id="Grupo_1017971" data-name="Grupo 1017971">
                <g id="Grupo_1017970" data-name="Grupo 1017970" clip-path="url(#clip-path-14)">
                  <path id="Trazado_719768" data-name="Trazado 719768" d="M209.084,259.4a.106.106,0,0,1-.091-.161l1.762-2.891,1.772.328,1.668-.456,1.725-2.1,1.714-.433,1.743-3.1,1.781.517,1.675-.317,1.7-1.512a.1.1,0,0,1,.149.008.106.106,0,0,1-.008.15l-1.742,1.551-.028.006-1.753.332-1.668-.484-1.705,3.037-1.735.438-1.724,2.1-.032.009-1.748.478-.024,0-1.652-.306-1.686,2.765a.107.107,0,0,1-.091.051" transform="translate(-208.978 -249.244)"/>
                </g>
              </g>
            </g>
            <path id="Trazado_719769" data-name="Trazado 719769" d="M210.155,258.851a.222.222,0,0,1-.035.026c-.015.01-.026.018-.033.021a.511.511,0,0,1-.234.075.306.306,0,0,1-.2-.06.453.453,0,0,1-.143-.205,1,1,0,0,1-.054-.361,1.58,1.58,0,0,1,.051-.394,1.829,1.829,0,0,1,.138-.369,1.546,1.546,0,0,1,.2-.309.923.923,0,0,1,.243-.211.518.518,0,0,1,.264-.082.294.294,0,0,1,.2.077.478.478,0,0,1,.126.217,1.245,1.245,0,0,1,.024.547q-.02.111-.051.222c-.02.073-.042.146-.066.216s-.045.136-.065.194l-.459,1.307c-.009.018-.017.039-.028.065a.113.113,0,0,1-.051.058l-.144.083a.025.025,0,0,1-.036,0,.084.084,0,0,1-.014-.052.129.129,0,0,1,0-.033.137.137,0,0,1,.009-.025Zm.326-1.1a.677.677,0,0,0-.029-.208.307.307,0,0,0-.081-.134.187.187,0,0,0-.125-.046.324.324,0,0,0-.159.049.622.622,0,0,0-.16.135.88.88,0,0,0-.124.19,1.073,1.073,0,0,0-.08.226,1.033,1.033,0,0,0-.029.242.653.653,0,0,0,.029.21.3.3,0,0,0,.08.133.185.185,0,0,0,.124.047.31.31,0,0,0,.16-.05.607.607,0,0,0,.159-.135.885.885,0,0,0,.125-.191,1.106,1.106,0,0,0,.081-.225,1.043,1.043,0,0,0,.029-.244" transform="translate(-120.547 -147.901)" fill="#455a64"/>
            <path id="Trazado_719770" data-name="Trazado 719770" d="M213.1,257.187a.544.544,0,0,0,.035.1.144.144,0,0,0,.068.071.2.2,0,0,0,.12.01.6.6,0,0,0,.194-.08.738.738,0,0,0,.148-.115.772.772,0,0,0,.124-.163.913.913,0,0,0,.084-.2.834.834,0,0,0,.032-.238.506.506,0,0,0-.03-.194.167.167,0,0,0-.082-.093.192.192,0,0,0-.123-.005.6.6,0,0,0-.153.066l-.21.121a.036.036,0,0,1-.048,0,.083.083,0,0,1-.021-.062v-.14a.217.217,0,0,1,.014-.073c.01-.025.018-.047.027-.068l.454-1.015-.727.419a.037.037,0,0,1-.048,0,.084.084,0,0,1-.02-.062v-.14a.2.2,0,0,1,.02-.086.127.127,0,0,1,.048-.059L214,254.6a.037.037,0,0,1,.048,0,.083.083,0,0,1,.02.062v.14a.247.247,0,0,1-.012.075.651.651,0,0,1-.033.084l-.447,1a.529.529,0,0,1,.231-.073.258.258,0,0,1,.179.056.389.389,0,0,1,.116.182.954.954,0,0,1,.042.3,1.471,1.471,0,0,1-.051.385,1.592,1.592,0,0,1-.135.342,1.425,1.425,0,0,1-.2.28,1.035,1.035,0,0,1-.243.2.731.731,0,0,1-.292.108.3.3,0,0,1-.2-.042.318.318,0,0,1-.118-.153.649.649,0,0,1-.041-.226.163.163,0,0,1,.016-.07.1.1,0,0,1,.039-.048l.116-.067c.019-.011.033-.011.044,0a.079.079,0,0,1,.022.044" transform="translate(-122.508 -146.528)" fill="#455a64"/>
            <path id="Trazado_719771" data-name="Trazado 719771" d="M209.548,264.643l14.9-8.635c.169-.1.306-.028.306.155a.656.656,0,0,1-.306.509l-14.9,8.635c-.169.1-.306.028-.306-.155a.657.657,0,0,1,.306-.509" transform="translate(-120.425 -147.315)" fill="#e0e0e0"/>
            <path id="Trazado_719772" data-name="Trazado 719772" d="M209.548,250.258l3.339-1.938c.169-.1.306-.028.306.155a.657.657,0,0,1-.306.509l-3.339,1.938c-.169.1-.306.028-.306-.155a.657.657,0,0,1,.306-.509" transform="translate(-120.425 -142.89)" fill="#e0e0e0"/>
            <path id="Trazado_719773" data-name="Trazado 719773" d="M262.034,198.944A1.946,1.946,0,0,1,264,198.8l-1.965,5.3Z" transform="translate(-150.808 -114.298)" fill="#27debf"/>
            <path id="Trazado_719774" data-name="Trazado 719774" d="M257.4,201.54a5.843,5.843,0,0,1,1.965-2.123v5.153Z" transform="translate(-148.144 -114.77)" fill="#27debf"/>
            <path id="Trazado_719775" data-name="Trazado 719775" d="M254.537,207.694a10.313,10.313,0,0,1,1.217-3.275l1.965,3.03Z" transform="translate(-146.494 -117.649)" fill="#27debf"/>
            <g id="Grupo_1017975" data-name="Grupo 1017975" transform="translate(108.043 84.647)" opacity="0.3">
              <g id="Grupo_1017974" data-name="Grupo 1017974">
                <g id="Grupo_1017973" data-name="Grupo 1017973" clip-path="url(#clip-path-15)">
                  <path id="Trazado_719776" data-name="Trazado 719776" d="M255.754,201.54a10.317,10.317,0,0,0-1.217,3.275l3.182-.245v-5.153a5.843,5.843,0,0,0-1.965,2.123" transform="translate(-254.537 -199.417)" fill="#e7edf6"/>
                </g>
              </g>
            </g>
            <path id="Trazado_719777" data-name="Trazado 719777" d="M264,199.072a2.756,2.756,0,0,1,1.217,1.87l-3.182,3.429Z" transform="translate(-150.808 -114.572)" fill="#3ed0ee"/>
            <path id="Trazado_719778" data-name="Trazado 719778" d="M254.314,214.986a6.431,6.431,0,0,1-.165-1.5,9.184,9.184,0,0,1,.165-1.687l3.182-.245Z" transform="translate(-146.27 -121.757)" fill="#3ed0ee"/>
            <path id="Trazado_719779" data-name="Trazado 719779" d="M265.216,210.979A10.313,10.313,0,0,1,264,214.254l-1.965-3.03Z" transform="translate(-150.808 -121.425)" fill="#3ed0ee"/>
            <path id="Trazado_719780" data-name="Trazado 719780" d="M259.369,216.71a1.946,1.946,0,0,1-1.965.146l1.965-5.3Z" transform="translate(-148.144 -121.757)" fill="#3ed0ee"/>
            <path id="Trazado_719781" data-name="Trazado 719781" d="M254.537,214.986l3.182-3.429-1.965,5.3a2.757,2.757,0,0,1-1.217-1.87" transform="translate(-146.494 -121.757)" fill="#3ed0ee"/>
            <path id="Trazado_719782" data-name="Trazado 719782" d="M265.216,203.478a6.429,6.429,0,0,1,.165,1.5,9.181,9.181,0,0,1-.165,1.687l-3.182.245Z" transform="translate(-150.808 -117.108)" fill="#cda7ff"/>
            <path id="Trazado_719783" data-name="Trazado 719783" d="M264,214.587a5.843,5.843,0,0,1-1.965,2.123v-5.153Z" transform="translate(-150.808 -121.757)" fill="#3ed0ee"/>
            <path id="Trazado_719784" data-name="Trazado 719784" d="M257.687,227.2l3.339-1.938c.169-.1.306-.028.306.155a.657.657,0,0,1-.306.509l-3.339,1.938c-.169.1-.306.028-.306-.155a.657.657,0,0,1,.306-.509" transform="translate(-148.13 -129.62)" fill="#455a64"/>
            <path id="Trazado_719785" data-name="Trazado 719785" d="M255.952,231.749l4.811-2.792c.169-.1.306-.028.306.155a.656.656,0,0,1-.306.509l-4.811,2.792c-.169.1-.306.028-.306-.155a.657.657,0,0,1,.306-.509" transform="translate(-147.132 -131.746)" fill="#e0e0e0"/>
            <path id="Trazado_719786" data-name="Trazado 719786" d="M255.952,236.451l4.811-2.792c.169-.1.306-.028.306.155a.656.656,0,0,1-.306.509l-4.811,2.792c-.169.1-.306.028-.306-.155a.657.657,0,0,1,.306-.509" transform="translate(-147.132 -134.452)" fill="#e0e0e0"/>
            <path id="Trazado_719787" data-name="Trazado 719787" d="M255.952,241.152l4.811-2.792c.169-.1.306-.028.306.155a.656.656,0,0,1-.306.509l-4.811,2.792c-.169.1-.306.028-.306-.155a.657.657,0,0,1,.306-.509" transform="translate(-147.132 -137.158)" fill="#e0e0e0"/>
            <path id="Trazado_719788" data-name="Trazado 719788" d="M290.469,182.467a1.946,1.946,0,0,1,1.965-.146l-1.965,5.3Z" transform="translate(-167.174 -104.815)" fill="#3ed0ee"/>
            <path id="Trazado_719789" data-name="Trazado 719789" d="M285.839,185.063a5.843,5.843,0,0,1,1.965-2.123v5.153Z" transform="translate(-164.509 -105.287)" fill="#27debf"/>
            <path id="Trazado_719790" data-name="Trazado 719790" d="M282.972,191.216a10.314,10.314,0,0,1,1.217-3.275l1.965,3.03Z" transform="translate(-162.859 -108.166)" fill="#27debf"/>
            <path id="Trazado_719791" data-name="Trazado 719791" d="M292.434,182.6a2.756,2.756,0,0,1,1.217,1.87l-3.182,3.429Z" transform="translate(-167.174 -105.089)" fill="#3ed0ee"/>
            <path id="Trazado_719792" data-name="Trazado 719792" d="M282.749,198.508a6.428,6.428,0,0,1-.165-1.5,9.184,9.184,0,0,1,.165-1.687l3.182-.245Z" transform="translate(-162.635 -112.274)" fill="#27debf"/>
            <path id="Trazado_719793" data-name="Trazado 719793" d="M293.651,194.5a10.324,10.324,0,0,1-1.217,3.275l-1.965-3.03Z" transform="translate(-167.174 -111.941)" fill="#3ed0ee"/>
            <path id="Trazado_719794" data-name="Trazado 719794" d="M287.8,200.232a1.946,1.946,0,0,1-1.965.146l1.965-5.3Z" transform="translate(-164.509 -112.274)" fill="#3ed0ee"/>
            <path id="Trazado_719795" data-name="Trazado 719795" d="M282.972,198.508l3.182-3.429-1.965,5.3a2.757,2.757,0,0,1-1.217-1.87" transform="translate(-162.859 -112.274)" fill="#27debf"/>
            <g id="Grupo_1017978" data-name="Grupo 1017978" transform="translate(119.949 77.653)" opacity="0.3">
              <g id="Grupo_1017977" data-name="Grupo 1017977">
                <g id="Grupo_1017976" data-name="Grupo 1017976" clip-path="url(#clip-path-16)">
                  <path id="Trazado_719796" data-name="Trazado 719796" d="M283.966,185.063a10.318,10.318,0,0,0-1.217,3.275,9.185,9.185,0,0,0-.165,1.687,6.427,6.427,0,0,0,.165,1.5,2.756,2.756,0,0,0,1.217,1.87l1.965-5.3V182.94a5.844,5.844,0,0,0-1.965,2.123" transform="translate(-282.584 -182.94)" fill="#e7edf6"/>
                </g>
              </g>
            </g>
            <path id="Trazado_719797" data-name="Trazado 719797" d="M293.651,187a6.431,6.431,0,0,1,.165,1.5,9.184,9.184,0,0,1-.165,1.687l-3.182.245Z" transform="translate(-167.174 -107.624)" fill="#cda7ff"/>
            <path id="Trazado_719798" data-name="Trazado 719798" d="M292.434,198.11a5.844,5.844,0,0,1-1.965,2.123V195.08Z" transform="translate(-167.174 -112.274)" fill="#3ed0ee"/>
            <path id="Trazado_719799" data-name="Trazado 719799" d="M286.121,210.784l3.339-1.938c.169-.1.306-.028.306.155a.657.657,0,0,1-.306.509l-3.339,1.938c-.169.1-.306.028-.306-.155a.657.657,0,0,1,.306-.509" transform="translate(-164.495 -120.172)" fill="#455a64"/>
            <path id="Trazado_719800" data-name="Trazado 719800" d="M284.386,215.333l4.811-2.792c.169-.1.306-.028.306.155a.656.656,0,0,1-.306.509L284.386,216c-.169.1-.306.028-.306-.155a.657.657,0,0,1,.306-.509" transform="translate(-163.496 -122.298)" fill="#e0e0e0"/>
            <path id="Trazado_719801" data-name="Trazado 719801" d="M284.386,220.034l4.811-2.792c.169-.1.306-.028.306.155a.656.656,0,0,1-.306.509l-4.811,2.792c-.169.1-.306.028-.306-.155a.657.657,0,0,1,.306-.509" transform="translate(-163.496 -125.004)" fill="#e0e0e0"/>
            <path id="Trazado_719802" data-name="Trazado 719802" d="M284.386,224.735l4.811-2.792c.169-.1.306-.028.306.155a.656.656,0,0,1-.306.509l-4.811,2.792c-.169.1-.306.028-.306-.155a.657.657,0,0,1,.306-.509" transform="translate(-163.496 -127.709)" fill="#e0e0e0"/>
            <path id="Trazado_719803" data-name="Trazado 719803" d="M251.408,339.054a5.668,5.668,0,0,0-2.414-4.524,1.81,1.81,0,0,0-1.788-.247h0c-2.84,1.425-22.8,14.222-24.073,14.852l-.016.009a.908.908,0,0,0-.4.823,2.855,2.855,0,0,0,1.216,2.28.907.907,0,0,0,.911.12l.018-.01c2.021-1.113,21.717-9.506,25.744-11.666h0a1.8,1.8,0,0,0,.8-1.633" transform="translate(-128.177 -192.308)" fill="#e7edf6"/>
            <g id="Grupo_1017981" data-name="Grupo 1017981" transform="translate(94.534 141.833)" opacity="0.1">
              <g id="Grupo_1017980" data-name="Grupo 1017980">
                <g id="Grupo_1017979" data-name="Grupo 1017979" clip-path="url(#clip-path-17)">
                  <path id="Trazado_719804" data-name="Trazado 719804" d="M250.623,336.295a5.117,5.117,0,0,0-1.629-1.765,1.812,1.812,0,0,0-1.783-.25c-.1.052-.124.069-.058.031-2.593,1.326-17.445,10.8-22.443,13.881l-.033.02-.2.124-.062.038-.114.07-.134.082-.01.006c-.528.323-.885.533-1.023.6l-.017.008a.629.629,0,0,0-.117.091,1,1,0,0,0-.287.732,1.917,1.917,0,0,0,.014.286c0,.036.011.074.017.11.009.059.021.117.034.175s.023.093.037.14.035.109.054.164.028.082.044.122l.009.02Z" transform="translate(-222.711 -334.142)"/>
                </g>
              </g>
            </g>
            <path id="Trazado_719805" data-name="Trazado 719805" d="M223.921,372.5a2.844,2.844,0,0,1-1.211-2.27c.028-.821.615-1.134,1.311-.7a2.845,2.845,0,0,1,1.211,2.271c-.028.82-.614,1.133-1.311.7" transform="translate(-128.175 -212.562)" fill="#27debf"/>
            <path id="Trazado_719806" data-name="Trazado 719806" d="M211.515,373.666a2.184,2.184,0,0,0,.93,1.745.7.7,0,0,0,.693.093h0l4.827-2.57,0,0h0a.694.694,0,0,0,.308-.628,2.186,2.186,0,0,0-.93-1.745.7.7,0,0,0-.7-.093l-4.827,2.569h0a.691.691,0,0,0-.314.631" transform="translate(-121.733 -213.181)" fill="#37474f"/>
            <path id="Trazado_719807" data-name="Trazado 719807" d="M211.828,373.035a.693.693,0,0,0-.314.631,1.881,1.881,0,0,0,.146.745l6.225-3.321a1.877,1.877,0,0,0-.534-.531.7.7,0,0,0-.7-.093l-4.827,2.569Z" transform="translate(-121.732 -213.181)" fill="#263238"/>
            <path id="Trazado_719808" data-name="Trazado 719808" d="M169.331,371.79c0-3.094-2.044-6.187-6.132-8.547-8.176-4.721-21.432-4.721-29.608,0-4.088,2.36-6.132,5.454-6.132,8.547v5.7c0,3.094,2.044,6.187,6.132,8.547,8.176,4.72,21.432,4.72,29.608,0,4.088-2.36,6.132-5.454,6.132-8.547ZM134.6,365a30.725,30.725,0,0,1,27.583,0c3.3,1.906,5.12,4.319,5.12,6.794s-1.818,4.887-5.12,6.794a30.725,30.725,0,0,1-27.583,0c-3.3-1.906-5.12-4.319-5.12-6.794S131.3,366.9,134.6,365" transform="translate(-73.356 -207.019)" fill="#e7edf6"/>
            <g id="Grupo_1017984" data-name="Grupo 1017984" transform="translate(54.101 152.683)" opacity="0.3">
              <g id="Grupo_1017983" data-name="Grupo 1017983">
                <g id="Grupo_1017982" data-name="Grupo 1017982" clip-path="url(#clip-path-18)">
                  <path id="Trazado_719809" data-name="Trazado 719809" d="M133.588,380.336c8.176,4.721,21.432,4.721,29.608,0s8.176-12.373,0-17.094-21.432-4.721-29.608,0-8.176,12.374,0,17.094m-4.107-8.547c0-2.475,1.818-4.888,5.12-6.794a30.725,30.725,0,0,1,27.583,0c3.3,1.906,5.119,4.319,5.119,6.794s-1.818,4.887-5.119,6.793a30.725,30.725,0,0,1-27.583,0c-3.3-1.906-5.12-4.319-5.12-6.793" transform="translate(-127.456 -359.702)" fill="#fff"/>
                </g>
              </g>
            </g>
            <path id="Trazado_719810" data-name="Trazado 719810" d="M132.223,374.534a5.616,5.616,0,0,0,.818,2.851,11.411,11.411,0,0,1,4.3-3.944,30.7,30.7,0,0,1,27.58,0,11.458,11.458,0,0,1,4.308,3.944,5.653,5.653,0,0,0,.814-2.851c0-2.474-1.818-4.888-5.122-6.795a30.73,30.73,0,0,0-27.58,0c-3.3,1.907-5.123,4.321-5.123,6.795" transform="translate(-76.098 -209.764)" fill="#bcf987"/>
            <g id="Grupo_1017990" data-name="Grupo 1017990" transform="translate(56.807 156.771)" opacity="0.4">
              <g id="Grupo_1017989" data-name="Grupo 1017989">
                <g id="Grupo_1017988" data-name="Grupo 1017988" clip-path="url(#clip-path-19)">
                  <path id="Trazado_719812" data-name="Trazado 719812" d="M137.573,373.819a30.725,30.725,0,0,1,27.583,0c2.724,1.573,4.435,3.491,4.951,5.5-.516,2.013-2.227,3.931-4.951,5.5a30.729,30.729,0,0,1-27.583,0c-2.724-1.573-4.435-3.491-4.951-5.5.517-2.013,2.227-3.931,4.951-5.5" transform="translate(-132.622 -370.55)" fill="#e7edf6"/>
                </g>
              </g>
            </g>
            <g id="Grupo_1017993" data-name="Grupo 1017993" transform="translate(54.101 162.903)" opacity="0.1">
              <g id="Grupo_1017992" data-name="Grupo 1017992">
                <g id="Grupo_1017991" data-name="Grupo 1017991" clip-path="url(#clip-path-20)">
                  <path id="Trazado_719813" data-name="Trazado 719813" d="M143.458,397.4v5.693a27.419,27.419,0,0,1-9.868-3.2c-4.09-2.361-6.135-5.455-6.135-8.548v-5.7a7.2,7.2,0,0,1,.251-1.867h0c-.992,3.681.968,7.577,5.88,10.415a27.5,27.5,0,0,0,9.868,3.2" transform="translate(-127.455 -383.779)"/>
                </g>
              </g>
            </g>
            <path id="Trazado_719814" data-name="Trazado 719814" d="M390.6,327.695c.248.1.3.578.317,1.525.013.717.138,1.97-.707,2.2a2.625,2.625,0,0,1-2.593-.612c-.652-.857-1.089-1.609-2.023-2.659a7.26,7.26,0,0,1-2-3.021c-.278-1.137-.014-1.621.764-1.933,1.071-.428,2.7,1.086,3.529,1.337.711.216,2.463,3.061,2.711,3.161" transform="translate(-220.708 -185.965)" fill="#263238"/>
            <path id="Trazado_719815" data-name="Trazado 719815" d="M395.9,331.164l-.026,1.162a2.845,2.845,0,0,1-2.938.013c-.048-.113-.267-1.669-.267-1.669Z" transform="translate(-225.994 -190.31)" fill="#ffa8a7"/>
            <path id="Trazado_719816" data-name="Trazado 719816" d="M360.019,349.164s.311,1.018.47,1.906a5.123,5.123,0,0,1,.047,2.408c-.258.523-1.225.842-2.712.8a8.738,8.738,0,0,0-3.521,1.142,9.23,9.23,0,0,1-4.409.6c-1.32-.185-2.674-.983-2.876-1.537s.1-1.116,3.245-2.375c.028-.011,4.368-1.315,5.915-2.947Z" transform="translate(-199.691 -200.95)" fill="#263238"/>
            <path id="Trazado_719817" data-name="Trazado 719817" d="M372.529,346.2s-.024.862-.031,1.355-.605,1.214-2.11,1.126c-1.057-.062-1.79-.363-1.728-1.233l.028-1.256Z" transform="translate(-212.173 -199.246)" fill="#ffa8a7"/>
            <path id="Trazado_719818" data-name="Trazado 719818" d="M378.775,251.88a31.592,31.592,0,0,0-1.236-6.083s.533-5.212.843-10.158a62.342,62.342,0,0,0-.4-15.809s-16.38-1.472-16.827,4.7.188,21.932.33,24.652.558,5.133,1.02,9.547c.456,4.356,1.777,14.649,1.777,14.649a4.076,4.076,0,0,0,3.841.008s1.493-12.333,1.436-15.469a26.78,26.78,0,0,0-1.034-6.866s.442-5.089.831-9.517.742-6.55.853-8.477l.376-.175s.206,7.657.349,10.377.516,5.334,1.188,10.4c.583,4.391,2.4,13.7,2.4,13.7a2.59,2.59,0,0,0,3.15-.069s1.55-11.595,1.1-15.4" transform="translate(-207.763 -126.43)" fill="#37474f"/>
            <path id="Trazado_719819" data-name="Trazado 719819" d="M382.694,246.08a36.1,36.1,0,0,0,6.369-3.782,13.855,13.855,0,0,1-4.587,3.855s-1.123,9.481-1.114,9.292l-.313-9.371Z" transform="translate(-220.252 -139.45)" fill="#263238"/>
            <path id="Trazado_719820" data-name="Trazado 719820" d="M375.782,166.539l.638,5.656,5.341-.27-.593-6.6Z" transform="translate(-216.274 -95.149)" fill="#ffa8a7"/>
            <path id="Trazado_719821" data-name="Trazado 719821" d="M393.833,173.266c1.988-.092,3,.207,3.891,1.922s1.243,6.84,1.554,9.482.389,4.506-.7,4.778a48.319,48.319,0,0,1-5.321.388Z" transform="translate(-226.332 -99.711)" fill="#37474f"/>
            <path id="Trazado_719822" data-name="Trazado 719822" d="M378.62,176.166a4.088,4.088,0,0,0-4.318-2.929q-.679.11-1.322.224c-.234.951-2.841,1.546-5.332.96-.751.2-3.222.66-3.847.867-1.79.594-2.529,2.356-2.808,8.195,0,0,.143,13.221.074,15.854A21.535,21.535,0,0,0,372.7,200.75c5.363-1.046,6.057-3.245,6.057-3.245l-.8-6.048s1.311-11.71.66-15.29" transform="translate(-207.762 -99.681)" fill="#455a64"/>
            <path id="Trazado_719823" data-name="Trazado 719823" d="M374.323,171.3l.04.356a7.924,7.924,0,0,0,3.279,0c1.736-.386,2.086-.876,2.086-.876l-.036-.4s.432-.16.659.5a7.265,7.265,0,0,1,.251.811s.2,1.215-1.84,1.834a6.307,6.307,0,0,1-5.08-.555l-.8.169s.692-1.595.9-1.919a.532.532,0,0,1,.5-.277Z" transform="translate(-214.605 -98.048)" fill="#37474f"/>
            <path id="Trazado_719824" data-name="Trazado 719824" d="M323.506,158.292l-10.591,5.527,5.263,14.389,9.883-5.537Z" transform="translate(-180.092 -91.102)" fill="#455a64"/>
            <path id="Trazado_719825" data-name="Trazado 719825" d="M324.673,161.61l-8.885,4.637,4.657,12.37,8.292-4.645Z" transform="translate(-181.746 -93.012)" fill="#f5f5f5"/>
            <g id="Grupo_1017996" data-name="Grupo 1017996" transform="translate(136.347 69.375)" opacity="0.15">
              <g id="Grupo_1017995" data-name="Grupo 1017995">
                <g id="Grupo_1017994" data-name="Grupo 1017994" clip-path="url(#clip-path-21)">
                  <path id="Trazado_719826" data-name="Trazado 719826" d="M325.923,164l-.172-.44c-.1-.243-.835-.1-1.652.324l-1.565.808c-.817.422-1.4.961-1.307,1.2l.172.44Z" transform="translate(-321.217 -163.44)"/>
                </g>
              </g>
            </g>
            <path id="Trazado_719827" data-name="Trazado 719827" d="M324.534,160.419c-.059-.152-.381-.127-.719.056l-.612.331s-.377-.95-1.787-.293-1.087,1.76-1.087,1.76l-.65.358c-.359.2-.615.483-.571.638l.079.28,5.455-2.847s-.049-.131-.108-.283" transform="translate(-183.653 -92.246)" fill="#27debf"/>
            <path id="Trazado_719828" data-name="Trazado 719828" d="M325.451,161.824c-.508.25-.707.37-.561.745.167.428.322.735.322.735l-2.413,1.262s-.2-.544-.289-.754-.264-.31-.649-.11l-.143-.151,3.806-1.94Z" transform="translate(-185.158 -93.012)" fill="#27debf"/>
            <g id="Grupo_1017999" data-name="Grupo 1017999" transform="translate(136.56 68.599)" opacity="0.3">
              <g id="Grupo_1017998" data-name="Grupo 1017998">
                <g id="Grupo_1017997" data-name="Grupo 1017997" clip-path="url(#clip-path-22)">
                  <path id="Trazado_719829" data-name="Trazado 719829" d="M325.451,161.824c-.508.25-.707.37-.561.745.167.428.322.735.322.735l-2.413,1.262s-.2-.544-.289-.754-.264-.31-.649-.11l-.143-.151,3.806-1.94Z" transform="translate(-321.718 -161.611)"/>
                </g>
              </g>
            </g>
            <path id="Trazado_719830" data-name="Trazado 719830" d="M326.167,164.053l-.172-.44c-.1-.243-.835-.1-1.652.324l-1.565.808c-.817.422-1.4.961-1.307,1.2l.172.44Z" transform="translate(-185.01 -94.096)" fill="#27debf"/>
            <path id="Trazado_719831" data-name="Trazado 719831" d="M351.04,178.122c-2.445.212-3.487.658-5.322,3.968-1.992,3.592-5.821,10.093-6.307,10.914a4.353,4.353,0,0,0-.22,3.928c.544.979,2.273,1.427,4.232-.785,2.329-2.631,6.663-9.058,6.663-9.058s3.682-4.858.954-8.967" transform="translate(-195.001 -102.514)" fill="#ffa8a7"/>
            <path id="Trazado_719832" data-name="Trazado 719832" d="M324.75,199.415c-1.874-.227-6.252-6.166-7.5-8.106a13.839,13.839,0,0,0-3.793-4c-1.984-1.466-1.695-3.717-.829-5.781.3-.715,1.316-.25,1.316-.25l.358.979.62,1.7c.42.39.659.517.688.4.053-.219-.309-1.131-.3-2.082.011-1.144.811-.392,1.051.009a14.26,14.26,0,0,1,.846,1.89c.4,1.023.234,2.06.721,2.757s7.017,6.955,7.017,6.955Z" transform="translate(-179.547 -104.244)" fill="#ffa8a7"/>
            <path id="Trazado_719833" data-name="Trazado 719833" d="M345.648,177.817a5.223,5.223,0,0,0-4.64,1.991c-1.379,1.791-6.9,11.532-6.9,11.532l-3.1-2.776a5.4,5.4,0,0,0-2.381,3.366,33.544,33.544,0,0,0,2.8,3.805c1.309,1.436,2.769,2.432,3.965,1.991s2.419-1.39,5-4.977,5.39-7.824,5.39-7.824,1.776-4.137-.141-7.109" transform="translate(-189.138 -102.337)" fill="#37474f"/>
            <path id="Trazado_719834" data-name="Trazado 719834" d="M365.3,151.873s-1.333,2.023-1.182,2.222,1.133.378,1.133.378Z" transform="translate(-209.554 -87.407)" fill="#f28f8f"/>
            <path id="Trazado_719835" data-name="Trazado 719835" d="M366.234,150.628a1.589,1.589,0,1,1,1.589-1.589,1.591,1.591,0,0,1-1.589,1.589m0-2.824a1.236,1.236,0,1,0,1.236,1.236,1.237,1.237,0,0,0-1.236-1.236" transform="translate(-209.864 -84.862)" fill="#263238"/>
            <path id="Trazado_719836" data-name="Trazado 719836" d="M370.476,138.329c-2.7.569-3.478,1.755-3.732,6.042-.265,4.479.192,5.887.78,6.491.4.407,2.6.48,3.718.174,1.394-.385,4.543-1.5,6.019-3.754,1.735-2.651,2.191-6.244.333-7.717-2.614-2.074-6.02-1.467-7.118-1.235" transform="translate(-211.028 -79.46)" fill="#ffa8a7"/>
            <path id="Trazado_719837" data-name="Trazado 719837" d="M371.944,167.8l-.125-.825a5.335,5.335,0,0,1-2.767.627,6.682,6.682,0,0,0,2.892.2" transform="translate(-212.4 -96.098)" fill="#f28f8f"/>
            <path id="Trazado_719838" data-name="Trazado 719838" d="M364.995,150.411l4.8.621-.194.337-4.6-.6Z" transform="translate(-210.065 -86.566)" fill="#263238"/>
            <path id="Trazado_719839" data-name="Trazado 719839" d="M364.3,134.584a1.49,1.49,0,0,0,.609-.036.962.962,0,0,0,.329,1.125,1.36,1.36,0,0,0,1.21.16,1.168,1.168,0,0,0-.132.834,1.353,1.353,0,0,0,1.4,1.009c.028.627.036,1.239.706,1.526,0,0,.427-1.656,1.822-1.448s1.594,2,.709,3.088-1.7.676-1.71.671c.082.04.11.568.138.668a4.863,4.863,0,0,0,.359.906,4.323,4.323,0,0,0,1.263,1.48,3.111,3.111,0,0,0,2.532.7,2.722,2.722,0,0,0,1.845-1.484,1.585,1.585,0,0,1,.3-.536,1.766,1.766,0,0,1,.688-.3,2.021,2.021,0,0,0,1.142-2.851,1.852,1.852,0,0,0,.709-3.234,2.223,2.223,0,0,0,.955-2.411,2.258,2.258,0,0,0-1.6-1.53c-.545-.157-.335-.243-.5-.777a1.981,1.981,0,0,0-.628-.936,2,2,0,0,0-1.857-.346,1.885,1.885,0,0,0-1.348-1.45,1.863,1.863,0,0,0-.952-.037c-.224.059-.685.267-.769.481-.284-.28-.376-.648-.722-.9a2.045,2.045,0,0,0-3.012.644,2.515,2.515,0,0,0-1.885-.792,2.059,2.059,0,0,0-1.718,1.049,1.751,1.751,0,0,0,.231,1.962,2.01,2.01,0,0,0-1.042.9,1.263,1.263,0,0,0,.147,1.408,1.092,1.092,0,0,0,.527.393,1.59,1.59,0,0,0,.256.059" transform="translate(-209.048 -73.985)" fill="#263238"/>
            <path id="Trazado_719840" data-name="Trazado 719840" d="M374.165,153.324l.05-1.874a.937.937,0,0,0-.05,1.874" transform="translate(-214.818 -87.164)" fill="#263238"/>
          </g>
        </g>
      </g>
    </g>
  </g>
</svg>
