<svg xmlns="http://www.w3.org/2000/svg" xmlns:xlink="http://www.w3.org/1999/xlink" width="222" height="169" viewBox="0 0 222 169">
  <defs>
    <clipPath id="clip-path">
      <rect id="Rectángulo_350276" data-name="Rectángulo 350276" width="222" height="148" fill="none"/>
    </clipPath>
    <clipPath id="clip-path-3">
      <rect id="Rectángulo_350255" data-name="Rectángulo 350255" width="43.834" height="27.339" fill="none"/>
    </clipPath>
    <clipPath id="clip-path-4">
      <rect id="Rectángulo_350257" data-name="Rectángulo 350257" width="25.824" height="21.327" fill="none"/>
    </clipPath>
    <clipPath id="clip-path-5">
      <rect id="Rectángulo_350258" data-name="Rectángulo 350258" width="20.087" height="16.589" fill="none"/>
    </clipPath>
    <clipPath id="clip-path-6">
      <rect id="Rectángulo_350259" data-name="Rectángulo 350259" width="94.93" height="59.276" fill="none"/>
    </clipPath>
    <clipPath id="clip-path-7">
      <rect id="Rectángulo_350269" data-name="Rectángulo 350269" width="21.822" height="21.974" fill="none"/>
    </clipPath>
    <clipPath id="clip-path-8">
      <rect id="Rectángulo_350270" data-name="Rectángulo 350270" width="20.933" height="24.618" fill="none"/>
    </clipPath>
    <clipPath id="clip-path-9">
      <rect id="Rectángulo_350271" data-name="Rectángulo 350271" width="21.774" height="24.877" fill="none"/>
    </clipPath>
    <clipPath id="clip-path-10">
      <rect id="Rectángulo_350272" data-name="Rectángulo 350272" width="18.01" height="17.264" fill="none"/>
    </clipPath>
    <clipPath id="clip-path-11">
      <rect id="Rectángulo_350273" data-name="Rectángulo 350273" width="16.403" height="25.937" fill="none"/>
    </clipPath>
    <clipPath id="clip-path-12">
      <rect id="Rectángulo_350274" data-name="Rectángulo 350274" width="13.584" height="21.459" fill="none"/>
    </clipPath>
  </defs>
  <g id="Grupo_1018214" data-name="Grupo 1018214" transform="translate(-335 -1760.951)">
    <g id="Grupo_159182" data-name="Grupo 159182" transform="translate(366.501 1760.951)">
      <path id="Unión_12" data-name="Unión 12" d="M84.5,0A84.5,84.5,0,1,1,0,84.5,84.5,84.5,0,0,1,84.5,0Z" transform="translate(0 0)" fill="#fff"/>
    </g>
    <g id="Grupo_1017504" data-name="Grupo 1017504" transform="translate(335 1771)">
      <g id="Grupo_1017503" data-name="Grupo 1017503" clip-path="url(#clip-path)">
        <path id="Trazado_718738" data-name="Trazado 718738" d="M221.582,500h0Z" transform="translate(0 -352.279)" fill="#fff"/>
        <g id="Grupo_1017502" data-name="Grupo 1017502">
          <g id="Grupo_1017501" data-name="Grupo 1017501" clip-path="url(#clip-path)">
            <path id="Trazado_718630" data-name="Trazado 718630" d="M206.167,99.854c2.2-2.811,2-8.849,1.12-12.11-3.221-11.88-9.392-16.632-23.87-16.632-.508,0-1.01.014-1.508.034-.105-12.234-9.718-22.7-16.484-23.689C145.779,44.579,103.9,43.391,90.9,49.043c-6.514,2.832-12.39,9.989-12.39,22.31,0,.246.012.487.017.73a23.727,23.727,0,0,0-28.231,28.4c-.195,0-.388-.015-.583-.015-.607,0-1.209.023-1.808.059H46.582a8.328,8.328,0,0,0-3.008.576,30.215,30.215,0,0,0-23.883,29.627c0,16.714,10.1,29.867,34.833,29.87H207.171c13.3,0,22.083-17.809,22.083-30.491,0-15.607-10.087-28.459-23.087-30.26" transform="translate(-13.873 -31.74)" fill="#ebf3ff"/>
            <rect id="Rectángulo_350234" data-name="Rectángulo 350234" width="5.525" height="11.564" transform="translate(168.035 99.343)" fill="#9ec0ff"/>
            <rect id="Rectángulo_350235" data-name="Rectángulo 350235" width="5.699" height="17.514" transform="translate(176.323 93.393)" fill="#2e6adb"/>
            <rect id="Rectángulo_350236" data-name="Rectángulo 350236" width="6.217" height="21.668" transform="translate(185.992 89.238)" fill="#7fabef"/>
            <rect id="Rectángulo_350237" data-name="Rectángulo 350237" width="7.598" height="25.037" transform="translate(196.352 85.87)" fill="#5d81ec"/>
            <line id="Línea_3218" data-name="Línea 3218" y2="24.142" transform="translate(166.081 87.869)" fill="none" stroke="#26395e" stroke-miterlimit="10" stroke-width="0.5"/>
            <line id="Línea_3219" data-name="Línea 3219" x1="39.789" transform="translate(166.081 112.011)" fill="none" stroke="#26395e" stroke-miterlimit="10" stroke-width="0.5"/>
            <path id="Trazado_718631" data-name="Trazado 718631" d="M567.7,289.783l9.023-9.022h5.525l8.838-4.419h3.683l9.576-3.684" transform="translate(-399.977 -192.103)" fill="none" stroke="#26395e" stroke-miterlimit="10" stroke-width="0.5"/>
            <path id="Trazado_718632" data-name="Trazado 718632" d="M557.038,177.626a1.441,1.441,0,0,1-1.655,1.608H511.5c-1.058,0-2.074-.488-2.074-1.608V147.692a2.08,2.08,0,0,1,2.074-2h43.887c1.059,0,1.655.875,1.655,2Z" transform="translate(-358.917 -102.651)" fill="#cfe3ff"/>
            <rect id="Rectángulo_350238" data-name="Rectángulo 350238" width="7.66" height="7.453" transform="translate(152.265 49.359)" fill="#fff"/>
            <rect id="Rectángulo_350239" data-name="Rectángulo 350239" width="7.66" height="7.453" transform="translate(161.373 49.359)" fill="#2e6adb"/>
            <rect id="Rectángulo_350240" data-name="Rectángulo 350240" width="7.66" height="7.453" transform="translate(170.276 49.359)" fill="#fff"/>
            <rect id="Rectángulo_350241" data-name="Rectángulo 350241" width="7.661" height="7.453" transform="translate(179.384 49.359)" fill="#fff"/>
            <rect id="Rectángulo_350242" data-name="Rectángulo 350242" width="7.659" height="7.453" transform="translate(188.494 49.359)" fill="#9ec0ff"/>
            <rect id="Rectángulo_350243" data-name="Rectángulo 350243" width="7.66" height="7.453" transform="translate(152.265 58.054)" fill="#fff"/>
            <rect id="Rectángulo_350244" data-name="Rectángulo 350244" width="7.66" height="7.453" transform="translate(170.276 58.054)" fill="#fff"/>
            <rect id="Rectángulo_350245" data-name="Rectángulo 350245" width="7.66" height="7.453" transform="translate(161.167 58.054)" fill="#fff"/>
            <rect id="Rectángulo_350246" data-name="Rectángulo 350246" width="7.661" height="7.453" transform="translate(179.384 58.054)" fill="#fff"/>
            <rect id="Rectángulo_350247" data-name="Rectángulo 350247" width="7.659" height="7.453" transform="translate(188.494 58.054)" fill="#fff"/>
            <rect id="Rectángulo_350248" data-name="Rectángulo 350248" width="7.66" height="7.453" transform="translate(152.265 66.956)" fill="#fff"/>
            <rect id="Rectángulo_350249" data-name="Rectángulo 350249" width="7.66" height="7.453" transform="translate(170.483 66.956)" fill="#fff"/>
            <rect id="Rectángulo_350250" data-name="Rectángulo 350250" width="7.66" height="7.453" transform="translate(161.373 66.956)" fill="#fff"/>
            <rect id="Rectángulo_350251" data-name="Rectángulo 350251" width="7.661" height="7.453" transform="translate(179.384 66.956)" fill="#ffbf00"/>
            <rect id="Rectángulo_350252" data-name="Rectángulo 350252" width="7.659" height="7.453" transform="translate(188.494 66.956)" fill="#fff"/>
            <path id="Trazado_718633" data-name="Trazado 718633" d="M557.038,148.068v-2.128a3.059,3.059,0,0,0-3.2-3.047H512.662a3.1,3.1,0,0,0-3.24,3.047v2.128Z" transform="translate(-358.917 -100.676)" fill="#5d81ec"/>
            <path id="Trazado_718634" data-name="Trazado 718634" d="M547.254,149.512a.9.9,0,1,1-.9-.9.9.9,0,0,1,.9.9" transform="translate(-384.308 -104.708)" fill="#2d4c7f"/>
            <path id="Trazado_718635" data-name="Trazado 718635" d="M630.273,149.512a.9.9,0,1,1-.9-.9.9.9,0,0,1,.9.9" transform="translate(-442.799 -104.708)" fill="#2d4c7f"/>
            <path id="Rectángulo_350253" data-name="Rectángulo 350253" d="M1,0H1A1,1,0,0,1,2,1V5A1,1,0,0,1,1,6H1A1,1,0,0,1,0,5V1A1,1,0,0,1,1,0Z" transform="translate(161 39.001)" fill="#ffae00"/>
            <path id="Rectángulo_350254" data-name="Rectángulo 350254" d="M1,0H1A1,1,0,0,1,2,1V5A1,1,0,0,1,1,6H1A1,1,0,0,1,0,5V1A1,1,0,0,1,1,0Z" transform="translate(186 39.001)" fill="#ffae00"/>
            <path id="Trazado_718636" data-name="Trazado 718636" d="M582.534,173.366l1.862,2.38,2.277-5.381" transform="translate(-410.429 -120.032)" fill="none" stroke="#26395e" stroke-miterlimit="10" stroke-width="0.5"/>
            <path id="Trazado_718637" data-name="Trazado 718637" d="M123.666,136a8.273,8.273,0,0,0-7.251-3.863H97.065V167.1h43V136Z" transform="translate(-68.388 -93.096)" fill="#b8d0ff"/>
            <path id="Trazado_718638" data-name="Trazado 718638" d="M117.34,101.546l-4.995,5.147v25.722h33.109V101.546Z" transform="translate(-79.154 -71.545)" fill="#759fdb"/>
            <path id="Trazado_718639" data-name="Trazado 718639" d="M119.888,106.368l-4.745,5.147v25.721H146.6V106.368Z" transform="translate(-81.125 -74.942)" fill="#fff"/>
            <path id="Trazado_718640" data-name="Trazado 718640" d="M134.276,122.242a18.052,18.052,0,0,1-11.328-7.846,18.77,18.77,0,0,1-2.6-8.029h-.464l-4.745,5.147v25.721H146.6V121.748a23.754,23.754,0,0,1-12.324.494" transform="translate(-81.125 -74.942)" fill="#e1edff"/>
            <line id="Línea_3220" data-name="Línea 3220" x2="26.899" transform="translate(36.297 37.364)" fill="none" stroke="#2d4c7f" stroke-miterlimit="10" stroke-width="0.5"/>
            <line id="Línea_3221" data-name="Línea 3221" x2="26.899" transform="translate(36.297 40.119)" fill="none" stroke="#2d4c7f" stroke-miterlimit="10" stroke-width="0.5"/>
            <line id="Línea_3222" data-name="Línea 3222" x2="26.899" transform="translate(36.297 42.875)" fill="none" stroke="#2d4c7f" stroke-miterlimit="10" stroke-width="0.5"/>
            <line id="Línea_3223" data-name="Línea 3223" x2="26.899" transform="translate(36.297 45.63)" fill="none" stroke="#2d4c7f" stroke-miterlimit="10" stroke-width="0.5"/>
            <path id="Trazado_718641" data-name="Trazado 718641" d="M139.488,195.679V173.487a5.146,5.146,0,0,0-5.147-5.147H100.8a5.148,5.148,0,0,0-5.147,5.147v22.193Z" transform="translate(-67.394 -118.605)" fill="#ffc800"/>
            <g id="Grupo_1017473" data-name="Grupo 1017473" transform="translate(28.26 49.735)" opacity="0.2">
              <g id="Grupo_1017472" data-name="Grupo 1017472">
                <g id="Grupo_1017471" data-name="Grupo 1017471" clip-path="url(#clip-path-3)">
                  <path id="Trazado_718642" data-name="Trazado 718642" d="M139.488,188.879c-3.388-2.238-7.94-2.559-12.162-2.655-4.311-.1-8.817,0-12.971-1.338a19.409,19.409,0,0,1-7.173-4.259c-3.25-2.958-6.984-7.674-6.18-12.286h-.2a5.147,5.147,0,0,0-5.147,5.146v22.193h43.834Z" transform="translate(-95.654 -168.34)" fill="#ffa607"/>
                </g>
              </g>
            </g>
            <rect id="Rectángulo_350256" data-name="Rectángulo 350256" width="48.294" height="29.902" transform="translate(17.147 80.555)" fill="#cae0ff"/>
            <path id="Trazado_718643" data-name="Trazado 718643" d="M58.04,302.56l23.809-29.9H58.04Z" transform="translate(-40.892 -192.103)" fill="#fff"/>
            <path id="Trazado_718644" data-name="Trazado 718644" d="M163.113,302.56v-29.9H138.629Z" transform="translate(-97.672 -192.103)" fill="#fff"/>
            <path id="Trazado_718645" data-name="Trazado 718645" d="M58.04,272.658l24.147,19.477,24.147-19.477Z" transform="translate(-40.892 -192.103)" fill="#5d81ec"/>
            <path id="Trazado_718646" data-name="Trazado 718646" d="M58.04,272.658l24.147,18.233,24.147-18.233Z" transform="translate(-40.892 -192.103)" fill="#fff"/>
            <line id="Línea_3224" data-name="Línea 3224" y1="18.068" x2="14.701" transform="translate(17.147 92.389)" fill="none" stroke="#26395e" stroke-miterlimit="10" stroke-width="0.5"/>
            <line id="Línea_3225" data-name="Línea 3225" x2="14.883" y2="17.834" transform="translate(50.558 92.624)" fill="none" stroke="#26395e" stroke-miterlimit="10" stroke-width="0.5"/>
            <path id="Trazado_718647" data-name="Trazado 718647" d="M427.927,98.376a6.231,6.231,0,0,0,3.9-6c.006-3.467-2.44-6.282-5.465-6.288s-5.482,2.8-5.488,6.268a6.232,6.232,0,0,0,3.882,6.017A12.871,12.871,0,0,0,413.41,111.1l-.016,8.568,25.818.048.016-8.568a12.873,12.873,0,0,0-11.3-12.774" transform="translate(-291.26 -60.653)" fill="#7fabef"/>
            <g id="Grupo_1017476" data-name="Grupo 1017476" transform="translate(122.135 37.739)" opacity="0.3" style="mix-blend-mode: multiply;isolation: isolate">
              <g id="Grupo_1017475" data-name="Grupo 1017475">
                <g id="Grupo_1017474" data-name="Grupo 1017474" clip-path="url(#clip-path-4)">
                  <path id="Trazado_718648" data-name="Trazado 718648" d="M424.632,127.737a12.868,12.868,0,0,0-11.221,12.71l-.016,8.568,25.818.048.005-2.923c-8.7-1.951-13.019-9.832-14.587-18.4" transform="translate(-413.395 -127.737)" fill="#2e6adb"/>
                </g>
              </g>
            </g>
            <path id="Trazado_718649" data-name="Trazado 718649" d="M392.483,120.934a4.847,4.847,0,0,0,3.037-4.668c.005-2.7-1.9-4.887-4.251-4.891s-4.264,2.178-4.269,4.875a4.848,4.848,0,0,0,3.02,4.68,10.013,10.013,0,0,0-8.829,9.9l-.012,6.665,20.083.038.013-6.665a10.014,10.014,0,0,0-8.792-9.937" transform="translate(-268.562 -78.47)" fill="#9ec0ff"/>
            <g id="Grupo_1017479" data-name="Grupo 1017479" transform="translate(112.617 42.476)" opacity="0.3" style="mix-blend-mode: multiply;isolation: isolate">
              <g id="Grupo_1017478" data-name="Grupo 1017478">
                <g id="Grupo_1017477" data-name="Grupo 1017477" clip-path="url(#clip-path-5)">
                  <path id="Trazado_718650" data-name="Trazado 718650" d="M389.921,143.772a10.011,10.011,0,0,0-8.728,9.887l-.012,6.665,20.083.038,0-2.273c-6.771-1.518-10.127-7.649-11.346-14.316" transform="translate(-381.18 -143.772)" fill="#2e6adb"/>
                </g>
              </g>
            </g>
            <path id="Trazado_718651" data-name="Trazado 718651" d="M494.476,77.567v-1.8a.755.755,0,0,0-.756-.756h-.561a.832.832,0,0,1-.789-.561,6.972,6.972,0,0,0-.31-.747.838.838,0,0,1,.162-.957l.4-.4a.753.753,0,0,0,0-1.069l-1.27-1.273a.758.758,0,0,0-1.07,0l-.4.4a.836.836,0,0,1-.958.163,6.626,6.626,0,0,0-.747-.312.835.835,0,0,1-.559-.789v-.559a.756.756,0,0,0-.756-.756h-1.8a.756.756,0,0,0-.756.756v.559a.834.834,0,0,1-.562.789,7,7,0,0,0-.745.312.838.838,0,0,1-.959-.163l-.395-.4a.755.755,0,0,0-1.068,0L479.3,71.28a.757.757,0,0,0,0,1.069l.4.4a.836.836,0,0,1,.163.957,6.473,6.473,0,0,0-.31.747.837.837,0,0,1-.791.561h-.56a.755.755,0,0,0-.754.756v1.8a.754.754,0,0,0,.754.753h.56a.837.837,0,0,1,.791.562,6.62,6.62,0,0,0,.31.745.838.838,0,0,1-.163.958l-.4.394a.757.757,0,0,0,0,1.069l1.274,1.275a.758.758,0,0,0,1.068,0l.395-.4a.846.846,0,0,1,.959-.163,6.534,6.534,0,0,0,.745.311.838.838,0,0,1,.562.789v.56a.757.757,0,0,0,.756.756h1.8a.756.756,0,0,0,.756-.756v-.56a.839.839,0,0,1,.559-.789,6.212,6.212,0,0,0,.747-.311.843.843,0,0,1,.958.163l.4.4a.76.76,0,0,0,1.07,0l1.27-1.275a.753.753,0,0,0,0-1.069l-.4-.394a.84.84,0,0,1-.162-.958,7.145,7.145,0,0,0,.31-.745.833.833,0,0,1,.789-.562h.561a.754.754,0,0,0,.756-.753m-8.184,3.186A4.1,4.1,0,1,1,490.047,77a4.1,4.1,0,0,1-3.755,3.756" transform="translate(-336.387 -48.016)" fill="#c1d7f8"/>
            <path id="Trazado_718652" data-name="Trazado 718652" d="M398.906,79.534v-.853a.357.357,0,0,0-.357-.357h-.266a.393.393,0,0,1-.373-.264,3.221,3.221,0,0,0-.147-.354.4.4,0,0,1,.076-.452l.188-.187a.357.357,0,0,0,0-.5l-.6-.6a.356.356,0,0,0-.5,0l-.188.188a.4.4,0,0,1-.453.077,3.169,3.169,0,0,0-.353-.146.4.4,0,0,1-.265-.375v-.265a.357.357,0,0,0-.358-.357h-.85a.358.358,0,0,0-.357.357V75.7a.4.4,0,0,1-.266.375,3.315,3.315,0,0,0-.352.146.4.4,0,0,1-.453-.077l-.187-.188a.355.355,0,0,0-.5,0l-.6.6a.356.356,0,0,0,0,.5l.187.187a.394.394,0,0,1,.077.452,2.773,2.773,0,0,0-.146.354.4.4,0,0,1-.374.264h-.265a.358.358,0,0,0-.357.357v.853a.357.357,0,0,0,.357.356h.265a.4.4,0,0,1,.374.265,2.825,2.825,0,0,0,.146.352.4.4,0,0,1-.077.453l-.187.188a.357.357,0,0,0,0,.5l.6.6a.357.357,0,0,0,.5,0l.187-.188a.4.4,0,0,1,.453-.077,3.387,3.387,0,0,0,.352.147.393.393,0,0,1,.266.373v.264a.358.358,0,0,0,.357.357h.85a.357.357,0,0,0,.358-.357V82.51a.393.393,0,0,1,.265-.373,3.234,3.234,0,0,0,.353-.147.4.4,0,0,1,.453.077l.188.188a.358.358,0,0,0,.5,0l.6-.6a.358.358,0,0,0,0-.5l-.188-.188a.4.4,0,0,1-.076-.453,3.3,3.3,0,0,0,.147-.352.394.394,0,0,1,.373-.265h.266a.357.357,0,0,0,.357-.356m-3.868,1.5a1.938,1.938,0,1,1,1.775-1.775,1.938,1.938,0,0,1-1.775,1.775" transform="translate(-275.38 -52.9)" fill="#5d81ec"/>
            <path id="Trazado_718653" data-name="Trazado 718653" d="M301.578,257.989V200a5.622,5.622,0,0,0-5.622-5.62H201.361a5.621,5.621,0,0,0-5.623,5.62v57.992Z" transform="translate(-137.909 -136.95)" fill="#2d4c7f"/>
            <path id="Trazado_718654" data-name="Trazado 718654" d="M307.529,266.7v-54.51a5.165,5.165,0,0,0-5.165-5.167H215.452a5.167,5.167,0,0,0-5.166,5.167V266.7Z" transform="translate(-148.159 -145.856)" fill="#5d81ec"/>
            <g id="Grupo_1017482" data-name="Grupo 1017482" transform="translate(64.441 61.162)" style="mix-blend-mode: multiply;isolation: isolate">
              <g id="Grupo_1017481" data-name="Grupo 1017481">
                <g id="Grupo_1017480" data-name="Grupo 1017480" clip-path="url(#clip-path-6)">
                  <path id="Trazado_718655" data-name="Trazado 718655" d="M307.88,207.018H220.969a5.145,5.145,0,0,0-2.853.861l94.929,58.415V212.185a5.165,5.165,0,0,0-5.165-5.167" transform="translate(-218.116 -207.018)" fill="#b8d0ff"/>
                </g>
              </g>
            </g>
            <path id="Trazado_718656" data-name="Trazado 718656" d="M163.475,408.337V413.1a5.441,5.441,0,0,0,5.442,5.441h114.02a5.441,5.441,0,0,0,5.443-5.441v-4.764Z" transform="translate(-115.178 -287.697)" fill="#4e73a8"/>
            <path id="Trazado_718657" data-name="Trazado 718657" d="M287.342,408.337v1.188a5.267,5.267,0,0,1-5.268,5.266H171.73a5.267,5.267,0,0,1-5.267-5.266v-1.188H164.45V413.1a5.442,5.442,0,0,0,5.442,5.441h114.02a5.441,5.441,0,0,0,5.444-5.441v-4.764Z" transform="translate(-115.864 -287.697)" fill="#2d4c7f"/>
            <path id="Trazado_718658" data-name="Trazado 718658" d="M287.453,289.648v4.29H269.573V270.845h17.45v4.288H274.884v5.015h10.721V284.3H274.884v5.343Z" transform="translate(-189.93 -190.826)" fill="#fff"/>
            <path id="Trazado_718659" data-name="Trazado 718659" d="M359.2,293.938l-4.453-6.433h-4.915v6.433H344.49V270.846h10c6.169,0,10.029,3.2,10.029,8.378a7.507,7.507,0,0,1-4.75,7.29l5.179,7.423ZM354.189,275.2h-4.355v8.049h4.355c3.266,0,4.915-1.517,4.915-4.025,0-2.54-1.65-4.024-4.915-4.024" transform="translate(-242.713 -190.827)" fill="#fff"/>
            <path id="Trazado_718660" data-name="Trazado 718660" d="M446.577,279.224c0,5.146-3.86,8.346-10.028,8.346H431.9v6.367h-5.344V270.846h10c6.169,0,10.028,3.2,10.028,8.378m-5.41,0c0-2.54-1.65-4.024-4.916-4.024H431.9v8.016h4.355c3.266,0,4.916-1.484,4.916-3.991" transform="translate(-300.531 -190.827)" fill="#fff"/>
            <line id="Línea_3226" data-name="Línea 3226" y2="14.495" transform="translate(112.845 66.919)" fill="none" stroke="#fff" stroke-miterlimit="10" stroke-width="2"/>
            <path id="Trazado_718661" data-name="Trazado 718661" d="M380.878,222.03a.775.775,0,1,1-.776-.776A.776.776,0,0,1,380.878,222.03Z" transform="translate(-267.258 -155.886)" fill="none" stroke="#fff" stroke-miterlimit="10" stroke-width="2"/>
            <path id="Trazado_718662" data-name="Trazado 718662" d="M303.43,226.626V231.7l2.232,2.029v6.29" transform="translate(-213.784 -159.671)" fill="none" stroke="#fff" stroke-miterlimit="10" stroke-width="2"/>
            <path id="Trazado_718663" data-name="Trazado 718663" d="M302.357,222.03a.775.775,0,1,1-.775-.776A.775.775,0,0,1,302.357,222.03Z" transform="translate(-211.936 -155.886)" fill="none" stroke="#fff" stroke-miterlimit="10" stroke-width="2"/>
            <path id="Trazado_718664" data-name="Trazado 718664" d="M455.148,226.626V231.7l-2.231,2.029v6.29" transform="translate(-319.105 -159.671)" fill="none" stroke="#fff" stroke-miterlimit="10" stroke-width="2"/>
            <path id="Trazado_718665" data-name="Trazado 718665" d="M457.845,222.03a.775.775,0,1,0,.775-.776A.775.775,0,0,0,457.845,222.03Z" transform="translate(-322.578 -155.886)" fill="none" stroke="#fff" stroke-miterlimit="10" stroke-width="2"/>
            <line id="Línea_3227" data-name="Línea 3227" y1="19.059" transform="translate(112.845 93.987)" fill="none" stroke="#fff" stroke-miterlimit="10" stroke-width="2"/>
            <path id="Trazado_718666" data-name="Trazado 718666" d="M380.878,383.409a.775.775,0,1,0-.776.775A.775.775,0,0,0,380.878,383.409Z" transform="translate(-267.258 -269.587)" fill="none" stroke="#fff" stroke-miterlimit="10" stroke-width="2"/>
            <path id="Trazado_718667" data-name="Trazado 718667" d="M303.43,352.029v-5.072l2.232-2.029v-5.681" transform="translate(-213.784 -239.019)" fill="none" stroke="#fff" stroke-miterlimit="10" stroke-width="2"/>
            <path id="Trazado_718668" data-name="Trazado 718668" d="M302.357,383.409a.775.775,0,1,0-.775.775A.775.775,0,0,0,302.357,383.409Z" transform="translate(-211.936 -269.587)" fill="none" stroke="#fff" stroke-miterlimit="10" stroke-width="2"/>
            <path id="Trazado_718669" data-name="Trazado 718669" d="M455.148,341.144v-5.072l-2.231-2.029V323.8" transform="translate(-319.105 -228.133)" fill="none" stroke="#fff" stroke-miterlimit="10" stroke-width="2"/>
            <path id="Trazado_718670" data-name="Trazado 718670" d="M457.845,383.409a.775.775,0,1,1,.775.775A.775.775,0,0,1,457.845,383.409Z" transform="translate(-322.578 -269.587)" fill="none" stroke="#fff" stroke-miterlimit="10" stroke-width="2"/>
            <rect id="Rectángulo_350260" data-name="Rectángulo 350260" width="33.09" height="31.655" transform="translate(76.594 23.367)" fill="#fff"/>
            <path id="Trazado_718671" data-name="Trazado 718671" d="M281.8,178l-9.8,8.268V178Z" transform="translate(-191.639 -125.411)" fill="#b8d0ff"/>
            <path id="Trazado_718672" data-name="Trazado 718672" d="M277.683,104.268a43.737,43.737,0,0,1-11.725-11.289c-3.2-4.25-5.794-8.643-6.366-13.888h-.342v31.655h33.09v-1.335a39.34,39.34,0,0,1-14.657-5.143" transform="translate(-182.656 -55.723)" fill="#b8d0ff"/>
            <path id="Trazado_718673" data-name="Trazado 718673" d="M304.124,121.58H290.6V110.235h18Zm-12.74-.91,12.2.125,3.858-9.773H291.384Z" transform="translate(-204.744 -77.667)" fill="#5d81ec"/>
            <path id="Trazado_718674" data-name="Trazado 718674" d="M278.445,99.246h-.726c0-2.537-.063-3.793-.641-4.352-.622-.6-2.082-.553-4.732-.464l-.025-.726c2.942-.1,4.42-.148,5.262.668.822.794.862,2.293.862,4.873" transform="translate(-191.866 -65.983)" fill="#5d81ec"/>
            <path id="Trazado_718675" data-name="Trazado 718675" d="M299.129,169.926a1.984,1.984,0,1,1,1.985-1.983,1.985,1.985,0,0,1-1.985,1.983m0-3.243a1.259,1.259,0,1,0,1.259,1.26,1.261,1.261,0,0,0-1.259-1.26" transform="translate(-209.356 -116.926)" fill="#5d81ec"/>
            <path id="Trazado_718676" data-name="Trazado 718676" d="M325.166,169.926a1.984,1.984,0,1,1,1.986-1.983,1.985,1.985,0,0,1-1.986,1.983m0-3.243a1.259,1.259,0,1,0,1.259,1.26,1.261,1.261,0,0,0-1.259-1.26" transform="translate(-227.7 -116.926)" fill="#5d81ec"/>
            <rect id="Rectángulo_350261" data-name="Rectángulo 350261" width="15.435" height="0.786" transform="translate(86.222 36.435)" fill="#5d81ec"/>
            <rect id="Rectángulo_350262" data-name="Rectángulo 350262" width="14.484" height="0.728" transform="translate(85.855 40.167)" fill="#5d81ec"/>
            <rect id="Rectángulo_350263" data-name="Rectángulo 350263" width="0.785" height="10.21" transform="translate(85.855 32.962)" fill="#5d81ec"/>
            <rect id="Rectángulo_350264" data-name="Rectángulo 350264" width="0.786" height="10.21" transform="translate(88.622 32.966)" fill="#5d81ec"/>
            <rect id="Rectángulo_350265" data-name="Rectángulo 350265" width="0.786" height="10.557" transform="translate(91.686 32.792)" fill="#5d81ec"/>
            <rect id="Rectángulo_350266" data-name="Rectángulo 350266" width="0.786" height="10.557" transform="translate(94.748 32.792)" fill="#5d81ec"/>
            <rect id="Rectángulo_350267" data-name="Rectángulo 350267" width="0.786" height="10.557" transform="translate(97.813 32.792)" fill="#5d81ec"/>
            <path id="Trazado_718677" data-name="Trazado 718677" d="M266.469,94.879a1.327,1.327,0,1,1,1.326-1.327,1.328,1.328,0,0,1-1.326,1.327m0-1.927a.6.6,0,1,0,.6.6.6.6,0,0,0-.6-.6" transform="translate(-186.808 -64.978)" fill="#5d81ec"/>
            <path id="Trazado_718678" data-name="Trazado 718678" d="M299.377,152.02h-8.893a2.559,2.559,0,0,1,0-5.118h10.968l.3-.727H290.484a3.286,3.286,0,0,0,0,6.57h8.6Z" transform="translate(-202.388 -102.989)" fill="#5d81ec"/>
            <line id="Línea_3228" data-name="Línea 3228" x2="17.734" transform="translate(85.855 32.962)" fill="none" stroke="#26395e" stroke-miterlimit="10" stroke-width="0.5"/>
            <line id="Línea_3229" data-name="Línea 3229" x2="13.111" transform="translate(86.134 43.665)" fill="none" stroke="#26395e" stroke-miterlimit="10" stroke-width="0.5"/>
            <rect id="Rectángulo_350268" data-name="Rectángulo 350268" width="9.337" height="9.337" transform="translate(96.31 37.057)" fill="#ffbf00"/>
            <path id="Trazado_718679" data-name="Trazado 718679" d="M333.3,138.8l-2.538-2.336a.51.51,0,0,1,.69-.75l1.786,1.644,3.409-3.724a.51.51,0,1,1,.752.688Z" transform="translate(-232.928 -94.033)" fill="#fff"/>
            <path id="Trazado_718680" data-name="Trazado 718680" d="M181.457,462.156c-.053,1.6-4.065,2.769-8.96,2.608s-8.822-1.59-8.77-3.193,4.064-2.768,8.96-2.607,8.823,1.59,8.77,3.191" transform="translate(-115.355 -323.356)" fill="#e1edff"/>
            <path id="Trazado_718681" data-name="Trazado 718681" d="M175.313,452.893c-.754,1.153-2.243,1.527-3.193,2.515a.613.613,0,0,0-.161.242.447.447,0,0,0,.3.5,1.218,1.218,0,0,0,.615.013l3.485-.529a.969.969,0,0,0,.364-.106,1.047,1.047,0,0,0,.371-.732q.256-1.253.509-2.507a8.779,8.779,0,0,0-2.289.607" transform="translate(-121.147 -318.661)" fill="#132444"/>
            <path id="Trazado_718682" data-name="Trazado 718682" d="M179.691,405.366s-.185-9.15.147-11.549.427-4.555,1.938-5.627c1.349-.956,8.157-1.184,9.6-1.675,1.648-.562,6.591-3.023,8.477-2.942,1.463.063,1.9,2.717,1.465,4.269-1.531,5.461-8.088,4.647-11.012,4.468a49.456,49.456,0,0,0-5.114,0s-.4,5.865-.651,7.692c-.207,1.483-1.177,5.545-1.177,5.545Z" transform="translate(-126.566 -270.248)" fill="#5d81ec"/>
            <g id="Grupo_1017485" data-name="Grupo 1017485" transform="translate(53.09 113.323)" opacity="0.2" style="mix-blend-mode: multiply;isolation: isolate">
              <g id="Grupo_1017484" data-name="Grupo 1017484">
                <g id="Grupo_1017483" data-name="Grupo 1017483" clip-path="url(#clip-path-7)">
                  <path id="Trazado_718683" data-name="Trazado 718683" d="M199.893,383.573a13.331,13.331,0,0,0-4.252,1.2,4.507,4.507,0,0,1-2,1.269c-1.824,1.442-4.362,1.707-6.5,2.51-1.324.5-2.938,1.106-3.634,2.447-.906,1.745-.794,3.858-.678,5.766.136,2.226.756,6.029-2.388,6.408a1.194,1.194,0,0,1-.744-.181c.015,1.4.035,2.373.035,2.373l3.673.18s.971-4.062,1.177-5.545c.251-1.827.651-7.692.651-7.692a49.5,49.5,0,0,1,5.114,0c2.923.18,9.48.994,11.012-4.468.436-1.551,0-4.206-1.465-4.269" transform="translate(-179.697 -383.571)" fill="#5d81ec"/>
                </g>
              </g>
            </g>
            <path id="Trazado_718684" data-name="Trazado 718684" d="M195.364,462.249c-.754,1.153-2.243,1.527-3.193,2.515a.608.608,0,0,0-.16.243.446.446,0,0,0,.3.5,1.216,1.216,0,0,0,.616.013l3.485-.529a.952.952,0,0,0,.364-.106,1.047,1.047,0,0,0,.371-.731q.255-1.254.509-2.507a8.792,8.792,0,0,0-2.29.607" transform="translate(-135.274 -325.253)" fill="#132444"/>
            <path id="Trazado_718685" data-name="Trazado 718685" d="M195.493,408.244s-.711-10.964-.987-13.523c-.289-2.674-.3-3.818,1.171-4.641s8.149-2.924,11.178-4.259a6.341,6.341,0,0,0,2.215-1.628,8.8,8.8,0,0,1,7.057.954c.68.357-.134,3.78-1.411,4.913a18.328,18.328,0,0,1-9.2,3.944c-2.525.226-5.7.252-5.7.252s.786,4.52.891,6.372c.117,2.053-1.008,7.822-1.008,7.822Z" transform="translate(-136.933 -270.431)" fill="#9ec0ff"/>
            <g id="Grupo_1017488" data-name="Grupo 1017488" transform="translate(58.506 113.4)" opacity="0.4" style="mix-blend-mode: multiply;isolation: isolate">
              <g id="Grupo_1017487" data-name="Grupo 1017487">
                <g id="Grupo_1017486" data-name="Grupo 1017486" clip-path="url(#clip-path-8)">
                  <path id="Trazado_718686" data-name="Trazado 718686" d="M218.716,385.147a8.8,8.8,0,0,0-7.057-.954,6.339,6.339,0,0,1-2.215,1.628h0a4.862,4.862,0,0,1,3.016,1.552c2.466,2.99-1.933,5.438-4.38,5.717-1.495.17-6.308-.365-6.32,1.939-.008,1.556.611,3.063.776,4.609.31,2.9-.968,7.609-4.5,7.783l.054.821,4.2.205s1.125-5.768,1.008-7.822c-.105-1.852-.891-6.372-.891-6.372s3.18-.026,5.7-.252a18.325,18.325,0,0,0,9.2-3.943c1.277-1.133,2.091-4.556,1.411-4.913" transform="translate(-198.029 -383.831)" fill="#9ec0ff"/>
                </g>
              </g>
            </g>
            <path id="Trazado_718687" data-name="Trazado 718687" d="M174.47,381.038a1.3,1.3,0,0,1-.588-.193c-.259-.175-.508-.538-.791-.783a3.1,3.1,0,0,0-.93-.587c-.364-.141-.412-.163-.5-.054s-.063.254.118.378.31.233.389.286-.4.1-.68.086-1.2-.064-1.421-.075-.5.116-.321.227a10.606,10.606,0,0,0,1.4.344l-1.463-.2c-.178.023-.386.108-.2.223a15.1,15.1,0,0,0,1.784.37,8.184,8.184,0,0,0-1.469-.1c-.117.08-.16.21.236.282l1.361.256s-1.288-.193-1.225-.031.129.19.762.341a7.012,7.012,0,0,0,1.948.266c.74-.023.577-.041.862.094.181.084.341.255.435.055a5.927,5.927,0,0,0,.292-1.193" transform="translate(-119.359 -267.275)" fill="#fa6e61"/>
            <path id="Trazado_718688" data-name="Trazado 718688" d="M183.69,359.008l.46-1.437,5.041.544c.076-1.559.151-1.618.121-3.021-.066-3.21-.192-4.15-.19-5.169a5.4,5.4,0,0,1,1.306-3.5c.209-.273,2.958,6.694,2.958,6.694s-1.292,6.538-2.054,7.228a2.507,2.507,0,0,1-2.279.578,18.009,18.009,0,0,1-3.8-1.172c-.81-.334-1.566-.75-1.566-.75" transform="translate(-129.42 -244.075)" fill="#ffbf00"/>
            <path id="Trazado_718689" data-name="Trazado 718689" d="M192.329,360.237a24.031,24.031,0,0,1-.427,3.535c-.294,1.524-.557,4.814-2.541,5.241a9.668,9.668,0,0,1-5.5-.807l-.171.534s.755.416,1.566.75a18.008,18.008,0,0,0,3.8,1.172,2.507,2.507,0,0,0,2.279-.578c.761-.69,2.054-7.228,2.054-7.228s-.482-1.221-1.057-2.62" transform="translate(-129.42 -253.808)" fill="#ffa607"/>
            <path id="Trazado_718690" data-name="Trazado 718690" d="M210.172,352.083a33.205,33.205,0,0,0-1.723-5.152,19.441,19.441,0,0,0-2.332-2.852,5.568,5.568,0,0,1-1.8-3.332,4.608,4.608,0,0,1,.343-1.753,5.971,5.971,0,0,1,1.764-2.226,5.654,5.654,0,0,1,3.008-1.375c1.217-.1,4.308-1.02,6.945,2.022a34.081,34.081,0,0,1,5.118,7.89c1.455,3.3,2,4.138,1.9,5.993s-.366,2-.366,2-2.943-.973-4.3-1.361-3.573.088-4.625.118-3.936.027-3.936.027" transform="translate(-143.951 -236.156)" fill="#ffbf00"/>
            <path id="Trazado_718691" data-name="Trazado 718691" d="M224.192,391.318c-.008.059-.015.094-.015.094l.4.041a3.8,3.8,0,0,0-.388-.136" transform="translate(-157.946 -275.706)" fill="#096643"/>
            <path id="Trazado_718692" data-name="Trazado 718692" d="M221.189,345.1a52.587,52.587,0,0,0-5.1-7.8c-2.509-3.036-5.7-2.408-8.041-2a4.362,4.362,0,0,0-2.86,1.671,8.263,8.263,0,0,0-1.456,2.655,6.682,6.682,0,0,1,3.82-3.321c1.918-.793,4.031-.833,4.478.244.915,2.2-.179,5.427-.643,9.134-.448,3.582,1.091,4.406.742,6.23-.005.024,4.867.08,6.171.229a31.352,31.352,0,0,1,4.421,1.2s.311-.309.4-2.163-.219-2.9-1.936-6.073" transform="translate(-143.543 -235.991)" fill="#ffa607"/>
            <path id="Trazado_718693" data-name="Trazado 718693" d="M212.022,396.658a1.3,1.3,0,0,1-.495.371c-.292.112-.732.108-1.095.2a3.085,3.085,0,0,0-1.015.425c-.324.217-.37.244-.329.377s.171.2.377.121.368-.121.457-.155-.149.38-.32.607-.741.947-.877,1.121-.193.479,0,.393a10.6,10.6,0,0,0,1.083-.947l-1,1.085c-.083.16-.133.378.07.289a15.011,15.011,0,0,0,1.326-1.249,8.2,8.2,0,0,0-.92,1.148c0,.142.08.251.366-.032l.99-.968s-.9.945-.728.986.23,0,.716-.429a7.017,7.017,0,0,0,1.335-1.443c.406-.62.3-.5.571-.652.172-.1.4-.134.294-.326a5.932,5.932,0,0,0-.81-.923" transform="translate(-146.973 -279.468)" fill="#fa6e61"/>
            <path id="Trazado_718694" data-name="Trazado 718694" d="M220.552,344.649c.381,2.2,1,3.83.853,4.218s-5.642,5.911-5.642,5.911l1.575,1.309s6.609-4.629,7-5.884,1.441-7.247,1.03-9.748a4.5,4.5,0,0,0-2.514-3.362,1.873,1.873,0,0,0-2.735.452c-.8,1.648.047,4.9.43,7.1" transform="translate(-152.017 -237.236)" fill="#ffbf00"/>
            <path id="Trazado_718695" data-name="Trazado 718695" d="M213.855,328.984a4.978,4.978,0,0,0,1.18,1.866,2.473,2.473,0,0,1-1.591.854,3.273,3.273,0,0,1-.906.1.18.18,0,0,1-.1-.025.189.189,0,0,1-.055-.086q-.725-1.858-1.4-3.736c.635-.017,1.232-.341,1.867-.386a.311.311,0,0,1,.341.166,5.111,5.111,0,0,1,.659,1.244" transform="translate(-148.653 -230.793)" fill="#fa6e61"/>
            <path id="Trazado_718696" data-name="Trazado 718696" d="M212.354,329.73c-.632-.446-.875-1.2-1.362-1.77.636-.018,1.231-.341,1.866-.387a.407.407,0,0,1,.182.018.4.4,0,0,1,.159.149,5.1,5.1,0,0,1,.659,1.244,4.973,4.973,0,0,0,.551,1.1,2.527,2.527,0,0,1-2.055-.35" transform="translate(-148.656 -230.793)" fill="#d75246"/>
            <path id="Trazado_718697" data-name="Trazado 718697" d="M212.006,319.758c.284.376.457.822.724,1.209.365.529.927,1.013.9,1.656a1.33,1.33,0,0,1-.97,1.134,2.366,2.366,0,0,1-1.566-.129,3.634,3.634,0,0,1-2.044-2.1.944.944,0,0,1,.068-.975,3.119,3.119,0,0,1,1.075-.976,1.509,1.509,0,0,1,1.807.182" transform="translate(-147.218 -225.009)" fill="#fa6e61"/>
            <path id="Trazado_718698" data-name="Trazado 718698" d="M208.923,317.579a1.438,1.438,0,0,1,1.472.824.171.171,0,0,1,.017.125c-.028.075-.134.086-.214.067a.357.357,0,0,0-.239-.014c-.12.059-.092.229-.112.357-.037.237-.283.387-.514.472a1.31,1.31,0,0,1-.719.092c-.162-.034-.31-.116-.474-.138a.365.365,0,0,0-.411.2c-.058.195.156.381.121.581a.378.378,0,0,1-.294.267.746.746,0,0,1-.7-.217,1.036,1.036,0,0,1-.265-.69,1.391,1.391,0,0,1,.2-.765,3,3,0,0,1,1.591-1.05c.24-.092.51-.184.539-.11" transform="translate(-145.554 -223.734)" fill="#141d30"/>
            <path id="Trazado_718699" data-name="Trazado 718699" d="M212.354,315.746l1.681-.836a1.53,1.53,0,0,1,.485-.175,1.009,1.009,0,0,1,.672.187,1.4,1.4,0,0,1,.6,1.345.87.87,0,0,1-.678.767c-.391.046-.709-.269-1.088-.356a.277.277,0,0,0-.241.03.513.513,0,0,0-.081.117.492.492,0,0,1-.405.2.812.812,0,0,1-.44-.139,1.128,1.128,0,0,1-.508-1.142" transform="translate(-149.603 -221.745)" fill="#141d30"/>
            <path id="Trazado_718700" data-name="Trazado 718700" d="M208,322.837a2.4,2.4,0,0,0,.3,1.13.581.581,0,0,1,.067.144.514.514,0,0,1,0,.181c-.024.276-.049.554-.073.831a2.369,2.369,0,0,1-1.437-1.52c-.072-.165-.046-.2,0-.37.079-.283.4-.418.684-.5a.583.583,0,0,1,.286-.026c.094.022.179.108.163.127" transform="translate(-145.719 -227.361)" fill="#141d30"/>
            <path id="Trazado_718701" data-name="Trazado 718701" d="M210.044,327.319a.672.672,0,0,0-.719-.1c-.412.194.175.911.933.866.106-.007.23-.043.262-.143a.28.28,0,0,0-.064-.233.955.955,0,0,0-.413-.385" transform="translate(-147.386 -230.499)" fill="#fa6e61"/>
            <path id="Trazado_718702" data-name="Trazado 718702" d="M142.1,330.723a9.671,9.671,0,1,1,9.671,9.647,9.659,9.659,0,0,1-9.671-9.647" transform="translate(-100.118 -226.217)" fill="#2e6adb"/>
            <path id="Trazado_718703" data-name="Trazado 718703" d="M148.358,335.121a7.822,7.822,0,1,1,7.822,7.8,7.812,7.812,0,0,1-7.822-7.8" transform="translate(-104.527 -230.615)" fill="#fff"/>
            <line id="Línea_3230" data-name="Línea 3230" y2="2.624" transform="translate(51.654 97.194)" fill="none" stroke="#132444" stroke-miterlimit="10" stroke-width="0.5"/>
            <line id="Línea_3231" data-name="Línea 3231" y2="2.624" transform="translate(51.654 109.194)" fill="none" stroke="#132444" stroke-miterlimit="10" stroke-width="0.5"/>
            <line id="Línea_3232" data-name="Línea 3232" x1="1.761" y2="1.95" transform="translate(54.799 99.073)" fill="none" stroke="#132444" stroke-miterlimit="10" stroke-width="0.5"/>
            <line id="Línea_3233" data-name="Línea 3233" x1="1.761" y2="1.95" transform="translate(46.747 107.989)" fill="none" stroke="#132444" stroke-miterlimit="10" stroke-width="0.5"/>
            <line id="Línea_3234" data-name="Línea 3234" x2="2.631" transform="translate(44.322 104.506)" fill="none" stroke="#132444" stroke-miterlimit="10" stroke-width="0.5"/>
            <line id="Línea_3235" data-name="Línea 3235" x2="2.631" transform="translate(56.354 104.506)" fill="none" stroke="#132444" stroke-miterlimit="10" stroke-width="0.5"/>
            <line id="Línea_3236" data-name="Línea 3236" x2="1.86" y2="1.855" transform="translate(46.47 99.336)" fill="none" stroke="#132444" stroke-miterlimit="10" stroke-width="0.5"/>
            <line id="Línea_3237" data-name="Línea 3237" x2="1.861" y2="1.855" transform="translate(54.977 107.821)" fill="none" stroke="#132444" stroke-miterlimit="10" stroke-width="0.5"/>
            <path id="Trazado_718704" data-name="Trazado 718704" d="M172.9,352.773a.869.869,0,1,1,1.083.577.868.868,0,0,1-1.083-.577" transform="translate(-121.793 -247.76)" fill="#2d4c7f"/>
            <path id="Trazado_718705" data-name="Trazado 718705" d="M171.255,345.363l-1.559-2.279-.386-1.712.979,1.335Z" transform="translate(-119.289 -240.516)" fill="#2d4c7f"/>
            <path id="Trazado_718706" data-name="Trazado 718706" d="M175.366,341.07l.731-3.477,1.1-2.021-.382,2.085Z" transform="translate(-123.556 -236.429)" fill="#2d4c7f"/>
            <path id="Trazado_718707" data-name="Trazado 718707" d="M546.691,465.286c0,1.283-3.972,2.322-8.87,2.322s-8.869-1.039-8.869-2.322,3.97-2.32,8.869-2.32,8.87,1.039,8.87,2.32" transform="translate(-372.676 -326.186)" fill="#e1edff"/>
            <path id="Trazado_718708" data-name="Trazado 718708" d="M499.609,327.757c.065-1.2.874-2.009,1.3-3.074a2.133,2.133,0,0,0-.2-1.965,3.52,3.52,0,0,1-.578-1.129,1.7,1.7,0,0,1,.186-1.211,2.024,2.024,0,0,1,.383-.452c.037-.033.083-.058.1-.1.215-.519-.334-1.147-.356-1.717a4.166,4.166,0,0,1,.1-.678A2.171,2.171,0,0,1,501.782,316a3.176,3.176,0,0,1,2.715.145c1.175.643.451,1.414,1.705,2.115,1.2.673.443,1.666,1,2.128a6.017,6.017,0,0,0,1.58.7,3.115,3.115,0,0,1,1.263,1.045,2.842,2.842,0,0,1,.535,1.443,6.76,6.76,0,0,0,.12,2.164c.439,1.06,1.591,1.634,2.07,2.69.911,2.006-1.164,3.875-2.964,4.228a4.543,4.543,0,0,1-1.8-.282,3.926,3.926,0,0,0-2.016.522,3.923,3.923,0,0,1-3.068-.3,6.239,6.239,0,0,1-2.225-1.955,4.769,4.769,0,0,1-1.091-2.882" transform="translate(-352.001 -222.471)" fill="#141d30"/>
            <path id="Trazado_718709" data-name="Trazado 718709" d="M518.189,338.618a10.808,10.808,0,0,1,2.777,4.064c1.277,3.477,4.426,12.062,4.426,12.062l-1.648.155s-1.231-1.647-2.749-4.037c-.845-1.331-2.382-2.9-2.7-4.028-.124-.443-.11-8.217-.11-8.217" transform="translate(-365.094 -238.576)" fill="#ffbf00"/>
            <path id="Trazado_718710" data-name="Trazado 718710" d="M567.34,462.931c.6,1.059,1.9,1.471,2.681,2.394a.542.542,0,0,1,.128.222.394.394,0,0,1-.29.422,1.073,1.073,0,0,1-.544-.022l-3.047-.659a.857.857,0,0,1-.316-.113.928.928,0,0,1-.287-.666q-.156-1.12-.311-2.24a7.749,7.749,0,0,1,1.987.661" transform="translate(-398.324 -325.696)" fill="#132444"/>
            <path id="Trazado_718711" data-name="Trazado 718711" d="M518.28,408.613s-3.088-6.652-4.461-10.359-1.335-4.847-1.335-4.847-7.666-1.755-10.315-2.746-3.487-3.3-2.637-4.5,5.6-3.186,7.935-2.115,7.889,4.738,9.344,7.187,1.918,7.565,3.025,11.39c1.151,3.976,1.467,5.154,1.467,5.154Z" transform="translate(-351.724 -270.363)" fill="#5d81ec"/>
            <g id="Grupo_1017491" data-name="Grupo 1017491" transform="translate(147.489 113.372)" opacity="0.2" style="mix-blend-mode: multiply;isolation: isolate">
              <g id="Grupo_1017490" data-name="Grupo 1017490">
                <g id="Grupo_1017489" data-name="Grupo 1017489" clip-path="url(#clip-path-9)">
                  <path id="Trazado_718712" data-name="Trazado 718712" d="M517.686,394.117a.73.73,0,0,1,.136-.328,11.087,11.087,0,0,0-1.011-2.559c-1.455-2.449-7.012-6.116-9.344-7.187s-7.084.906-7.935,2.115-.013,3.512,2.637,4.5,10.315,2.746,10.315,2.746-.037,1.137,1.335,4.847,4.461,10.359,4.461,10.359l2.707-.752c-4.094-3.365-4.123-8.822-3.3-13.744" transform="translate(-499.213 -383.736)" fill="#5d81ec"/>
                </g>
              </g>
            </g>
            <path id="Trazado_718713" data-name="Trazado 718713" d="M540.142,436.737c-.129,1.214.682,2.306.78,3.516a.544.544,0,0,1-.026.256.4.4,0,0,1-.483.173,1.078,1.078,0,0,1-.43-.337l-2.094-2.319a.863.863,0,0,1-.191-.277.934.934,0,0,1,.156-.71l1.058-2a7.781,7.781,0,0,1,1.229,1.7" transform="translate(-378.821 -306.508)" fill="#132444"/>
            <path id="Trazado_718714" data-name="Trazado 718714" d="M498.025,388.845a7.457,7.457,0,0,0,4.83,1.8,41.443,41.443,0,0,0,10-2.041c1.551-.714.478.391-.055,1.072-1.967,2.515-3.418,9.348-3.418,9.348l3.7,1.264a26.515,26.515,0,0,1,2.629-6.156c2.681-4.2,4.49-8.451,3.765-10s-1.6-2.041-3.654-1.845-11.151.84-11.151.84-2.42-.02-3.6,1.311a41.813,41.813,0,0,0-3.044,4.4" transform="translate(-350.887 -269.318)" fill="#b8d0ff"/>
            <g id="Grupo_1017494" data-name="Grupo 1017494" transform="translate(147.138 113.708)" opacity="0.4" style="mix-blend-mode: multiply;isolation: isolate">
              <g id="Grupo_1017493" data-name="Grupo 1017493">
                <g id="Grupo_1017492" data-name="Grupo 1017492" clip-path="url(#clip-path-10)">
                  <path id="Trazado_718715" data-name="Trazado 718715" d="M513.088,397.671c-.235-1.57.658-3.164,1.372-4.494.662-1.232,3.053-5.4.231-5.822-2.029-.307-3.766,1.453-5.768,1.375a2.975,2.975,0,0,1-2.762-3.858l-1.489.106s-2.421-.02-3.6,1.311a41.789,41.789,0,0,0-3.044,4.4,7.456,7.456,0,0,0,4.83,1.8,41.433,41.433,0,0,0,10-2.041c1.551-.714.478.391-.055,1.072-1.967,2.515-3.418,9.348-3.418,9.348l3.7,1.264a29.619,29.619,0,0,1,1.022-2.945,1.917,1.917,0,0,1-1.016-1.519" transform="translate(-498.026 -384.872)" fill="#b8d0ff"/>
                </g>
              </g>
            </g>
            <path id="Trazado_718716" data-name="Trazado 718716" d="M491.715,353.86c.046-2.038.977-5.917.977-8.142s-1.776-5.379-.774-7.354a5.849,5.849,0,0,1,5.28-2.652,4.48,4.48,0,0,1,3.736,2.331,5.976,5.976,0,0,1,.385,3.7,7.281,7.281,0,0,0,.059,4.7,10.278,10.278,0,0,1,.611,3.717s-4.415,1.355-5.6,2.855a13.361,13.361,0,0,0-1.853,4.027s-2.878-.833-2.824-3.181" transform="translate(-346.368 -236.523)" fill="#ffbf00"/>
            <path id="Trazado_718717" data-name="Trazado 718717" d="M491.917,338.406a5.621,5.621,0,0,1,4.171-2.6c-2.65,1.371-2.025,2.354-1.527,4.311,1.134,4.458,1.271,9.485,7.416,9.463.015.376.011.622.011.622s-4.415,1.355-5.6,2.854a13.394,13.394,0,0,0-1.854,4.058s-2.878-.863-2.824-3.21c.046-2.039.977-5.918.977-8.142s-1.776-5.38-.774-7.355" transform="translate(-346.368 -236.595)" fill="#ffa607"/>
            <path id="Trazado_718718" data-name="Trazado 718718" d="M505.213,327.337a4.816,4.816,0,0,1-.15,2.085,2.221,2.221,0,0,0,1.665.027,2.925,2.925,0,0,0,.783-.307.167.167,0,0,0,.067-.063.12.12,0,0,0,.007-.1,8.348,8.348,0,0,1-.45-3.614c-.524.262-1.183.109-1.72.346a.364.364,0,0,0-.14.093.384.384,0,0,0-.065.2,4.986,4.986,0,0,0,0,1.333" transform="translate(-355.846 -229.241)" fill="#ff7055"/>
            <path id="Trazado_718719" data-name="Trazado 718719" d="M507.009,326.979a8.444,8.444,0,0,0,.34-2.083c-.524.261-1.149.248-1.686.486a.366.366,0,0,0-.139.093.385.385,0,0,0-.065.2,4.974,4.974,0,0,0,0,1.333,4.779,4.779,0,0,1,.028,1.163,2.294,2.294,0,0,0,1.519-1.189" transform="translate(-356.095 -228.908)" fill="#d75246"/>
            <path id="Trazado_718720" data-name="Trazado 718720" d="M501.014,319.365c-.067.44-.137.83-.186,1.272a2.409,2.409,0,0,0,.1,1.6,1.288,1.288,0,0,0,1.285.685,1.837,1.837,0,0,0,1.214-.7,3.474,3.474,0,0,0,.751-2.658.911.911,0,0,0-.479-.792,2.838,2.838,0,0,0-1.3-.354,1.371,1.371,0,0,0-1.392.939" transform="translate(-352.803 -224.347)" fill="#ff7055"/>
            <path id="Trazado_718721" data-name="Trazado 718721" d="M499.288,316.133c-.563.421-.784.85-.459,1.274.215.279.464.053.553.052.123,0,.174.152.247.252a.653.653,0,0,0,.623.174,1.174,1.174,0,0,0,.624-.235c.117-.1.2-.233.325-.323a.33.33,0,0,1,.42-.012c.132.139.039.389.154.542a.345.345,0,0,0,.354.1.684.684,0,0,0,.477-.489,1.014,1.014,0,0,0-.084-.7,1.344,1.344,0,0,0-.5-.556c-.508-.316-.965.041-1.488-.252-.436-.245-1.19.127-1.251.171" transform="translate(-351.347 -222.555)" fill="#141d30"/>
            <path id="Trazado_718722" data-name="Trazado 718722" d="M509.607,318.937a2.333,2.333,0,0,1,.242,1.083.611.611,0,0,0,.008.15.536.536,0,0,0,.075.155l.42.669a1.479,1.479,0,0,0,.6-1.662,1.7,1.7,0,0,0-.253-.555.61.61,0,0,0-1.015-.019c-.066.06-.1.17-.077.178" transform="translate(-359.043 -224.396)" fill="#141d30"/>
            <path id="Trazado_718723" data-name="Trazado 718723" d="M510.325,325.312a.612.612,0,0,1,.659-.131c.385.165-.135.87-.835.86-.1,0-.212-.03-.246-.123a.27.27,0,0,1,.051-.223.919.919,0,0,1,.37-.383" transform="translate(-359.25 -229.077)" fill="#ff7055"/>
            <path id="Trazado_718724" data-name="Trazado 718724" d="M505.2,364.643a1.938,1.938,0,1,1-3.25-2.113L517.825,338.1a1.939,1.939,0,1,1,3.252,2.113Z" transform="translate(-353.428 -237.591)" fill="#5d81ec"/>
            <path id="Trazado_718725" data-name="Trazado 718725" d="M509.657,351.429l-13.34,20.523a3.5,3.5,0,1,0,5.877,3.819l13.341-20.521Z" transform="translate(-349.284 -247.602)" fill="#2e6adb"/>
            <g id="Grupo_1017497" data-name="Grupo 1017497" transform="translate(146.466 103.827)" opacity="0.3" style="mix-blend-mode: multiply;isolation: isolate">
              <g id="Grupo_1017496" data-name="Grupo 1017496">
                <g id="Grupo_1017495" data-name="Grupo 1017495" clip-path="url(#clip-path-11)">
                  <path id="Trazado_718726" data-name="Trazado 718726" d="M500.813,376.926a3.5,3.5,0,0,1-1.028-4.848l12.368-19.027-2.5-1.623-13.34,20.523a3.5,3.5,0,0,0,4.563,5.013c-.023-.013-.045-.024-.067-.038" transform="translate(-495.75 -351.428)" fill="#0093cc"/>
                </g>
              </g>
            </g>
            <path id="Trazado_718727" data-name="Trazado 718727" d="M561.537,291.135a13.271,13.271,0,1,1-4.63-18.188,13.27,13.27,0,0,1,4.63,18.188" transform="translate(-378.245 -190.992)" fill="#ffbf00"/>
            <path id="Trazado_718728" data-name="Trazado 718728" d="M564.381,294.629a11.408,11.408,0,1,1-3.98-15.634,11.407,11.407,0,0,1,3.98,15.634" transform="translate(-382.69 -195.439)" fill="#2e6adb"/>
            <path id="Trazado_718729" data-name="Trazado 718729" d="M565.466,295.863a10.677,10.677,0,1,1-3.724-14.634,10.677,10.677,0,0,1,3.724,14.634" transform="translate(-384.412 -197.086)" fill="#b8d0ff"/>
            <g id="Grupo_1017500" data-name="Grupo 1017500" transform="translate(161.108 82.65)" opacity="0.4">
              <g id="Grupo_1017499" data-name="Grupo 1017499">
                <g id="Grupo_1017498" data-name="Grupo 1017498" clip-path="url(#clip-path-12)">
                  <path id="Trazado_718730" data-name="Trazado 718730" d="M555.811,281.877a16.409,16.409,0,0,1,1.448-2.06,10.73,10.73,0,1,0,1.634,21c-5.646-3.983-7.06-12.244-3.082-18.942" transform="translate(-545.309 -279.749)" fill="#7fabef"/>
                </g>
              </g>
            </g>
            <path id="Trazado_718731" data-name="Trazado 718731" d="M549.615,312.467l2.448-7.029,6.318,6.634,3.791-7.977,6,6.4" transform="translate(-387.235 -214.252)" fill="none" stroke="#fff" stroke-miterlimit="10" stroke-width="1"/>
            <path id="Trazado_718732" data-name="Trazado 718732" d="M578.3,329.668a.711.711,0,1,1-.711-.711.711.711,0,0,1,.711.711" transform="translate(-406.446 -231.769)" fill="#fff"/>
            <path id="Trazado_718733" data-name="Trazado 718733" d="M556.651,306.143a.711.711,0,1,1-.711-.711.711.711,0,0,1,.711.711" transform="translate(-391.191 -215.194)" fill="#fff"/>
            <path id="Trazado_718734" data-name="Trazado 718734" d="M590.87,301.6a.711.711,0,1,1-.711-.711.711.711,0,0,1,.711.711" transform="translate(-415.3 -211.992)" fill="#fff"/>
            <path id="Trazado_718735" data-name="Trazado 718735" d="M610.652,323.252a.711.711,0,1,1-.711-.711.711.711,0,0,1,.711.711" transform="translate(-429.237 -227.249)" fill="#fff"/>
            <path id="Trazado_718736" data-name="Trazado 718736" d="M519.675,389a1.306,1.306,0,0,0,.619,0c.3-.087.648-.355.994-.5a3.1,3.1,0,0,1,1.066-.272c.39-.022.442-.027.491.1s-.018.261-.229.323-.367.126-.459.152.348.213.621.292,1.162.309,1.375.366.443.266.235.315a10.528,10.528,0,0,1-1.435-.1l1.452.264c.162.077.333.221.118.272a14.96,14.96,0,0,1-1.811-.2,8.154,8.154,0,0,1,1.426.362c.087.113.088.249-.311.195l-1.374-.176s1.285.214,1.175.348-.182.141-.83.089a6.989,6.989,0,0,1-1.935-.347c-.7-.251-.536-.218-.849-.177-.2.024-.4.137-.431-.082a5.952,5.952,0,0,1,.09-1.225" transform="translate(-366.069 -273.516)" fill="#fa6e61"/>
            <path id="Trazado_718737" data-name="Trazado 718737" d="M491.224,340.53c.772.307,1.036,1.909,1.109,3.13a52.953,52.953,0,0,1-.171,5.884c-.146,1.269-.278,2.18-.26,2.53s.228.571,2.409,1.547,3.759,1.612,3.759,1.612l-.237,1.711a40.655,40.655,0,0,1-5.091-.277,7.169,7.169,0,0,1-3.9-2.556c-.929-1.466-1.089-2.3-.849-4.787a42.731,42.731,0,0,1,.849-6.339c.489-2.022,1.53-2.793,2.381-2.455" transform="translate(-343.749 -239.869)" fill="#ffbf00"/>
          </g>
        </g>
      </g>
    </g>
  </g>
</svg>
