<svg id="Grupo_1018169" data-name="Grupo 1018169" xmlns="http://www.w3.org/2000/svg" xmlns:xlink="http://www.w3.org/1999/xlink" width="232.077" height="230.42" viewBox="0 0 232.077 230.42">
  <defs>
    <clipPath id="clip-path">
      <rect id="Rectángulo_350825" data-name="Rectángulo 350825" width="232.077" height="230.42" fill="none"/>
    </clipPath>
  </defs>
  <g id="Grupo_1018168" data-name="Grupo 1018168" clip-path="url(#clip-path)">
    <path id="Trazado_720388" data-name="Trazado 720388" d="M103.647,145.262c3.143,1.758,5.783,3.168,8.359,4.689,9.208,5.436,14.182,13.545,13.966,24.215S120.5,192.84,111,197.728c-2.329,1.2-2.806,2.259-2.454,4.781,1.15,8.216,1.859,16.493,2.884,24.728.288,2.307-.084,3.193-2.7,3.183q-38.285-.139-76.572-.029c-2.061,0-2.938-.337-2.611-2.789,1.095-8.224,1.82-16.5,2.888-24.727.325-2.5.073-3.86-2.535-5.212-17.1-8.864-20.154-30.457-6.27-43.726,1.752-1.674,2.871-2.675.775-4.968-2.437-2.666,1.1-3,2.151-4.177,1.106-1.235,2.6-2.448,3.86-.031,1.821,3.5,3.967,2.861,6.37.488-.4-1.354-1.77-1.816-2.7-2.651-6.507-5.834-11.791-12.628-14.783-20.834-2.037-5.585-3.631-9.878-10.735-11.921C-.582,107.21-2.694,95.1,3.644,87.7c1.979-2.312,2.157-4.109,1.268-6.823-3.835-11.71-6.373-23.568-3.666-36,5.181-23.795,24.8-41.7,49.251-43.71C65.375-.054,80.512-.914,95.236,1.76c32.835,5.963,52.171,37.876,43.4,70.315a53.418,53.418,0,0,1-1.669,5.626c-1.661,4.225-1.63,7.543,1.467,11.76,6.188,8.427.532,20.305-10.068,22.053-2.941.485-3.848,1.578-4.564,4.2-3.255,11.876-10.059,21.463-20.153,29.552M22.406,87.614c0,4.529-.164,9.065.028,13.586.883,20.673,10.977,35.207,29.612,43.932,2,.938,3.613,1.764,5.588-1.014,2.986-4.2,22.71-4.06,25.8.1,1.8,2.425,3.2,1.927,5.21,1.045,14.582-6.4,24.463-17.149,28.279-32.6,3.511-14.219,1.771-28.844,1.371-43.283-.158-5.709-5-9.237-10.941-9.3-10.567-.105-21.137-.007-31.7-.049-6.228-.024-12.9-.044-18.056-3.323-9.149-5.82-17.111-3.591-25.328,1.258A19.075,19.075,0,0,1,29.8,59.1c-5.053,2.079-7.414,5.912-7.411,11.3q.007,8.606.012,17.211M39.06,46.482c-2.453-2.776-4.658-5.245-6.833-7.741-1.361-1.563-2.051-3.143.486-4.217,1.727-.73,2.964-3.674,5.466-.431C48.209,47.1,61.658,52.881,78.019,52.457c9.351-.242,18.715-.165,28.069-.009,12.47.21,19.939,7.856,20.006,20.212.016,3.056,0,6.112,0,9.168l1.349.151c2.42-4.38,3.274-9.355,4.473-14.148A47.985,47.985,0,0,0,95.051,9.256a12.845,12.845,0,0,0-1.757-.424C78.07,7.92,62.662,6.738,47.661,9.071,18.447,13.615-3.207,44.326,13.3,81.623c.056.126.522.071,1.179.141,1.1-7.679-1.319-16,3.9-23,5.122-6.879,13.637-7.91,20.678-12.28M51.914,181.919c0,7.691.038,15.383-.027,23.073-.015,1.882.093,3.079,2.562,3.052,10.707-.117,21.416-.137,32.122,0,3.574.045,2.2-2.391,2.376-4.018.2-1.8.448-3.585-2.533-3.415-4.209.241-8.448.2-12.663.019a14.726,14.726,0,0,1-13.92-18.144c1.766-7.663,7.648-11.532,17.547-11.543,12.163-.013,12.178-.014,11.573-11.983-.051-1.008.727-2.493-1.32-2.727-1.755-.2-2.23.668-2.722,2.131-1.265,3.771-4.077,5.333-8.011,5.248-4.372-.1-8.748-.061-13.12-.012-3.742.043-6.387-1.515-7.645-5.1-.475-1.355-.845-2.466-2.7-2.267-2.315.249-1.464,1.937-1.475,3.059-.073,7.539-.038,15.081-.038,22.621m37.07,3.957c0,7.454,0,7.455,7.665,7.431,1.057,0,2.117.034,3.17-.041,8.287-.59,15.24-5.721,17.7-13.34,2.564-7.935.754-14.989-5.3-20.658-4.216-3.949-9.743-5.96-14.694-8.819-1.348-.779-3.3-.586-2.453,1.33,2.332,5.3.875,10.729,1.184,16.073.13,2.232.537,3.172,3,3.212a15.482,15.482,0,0,1,9.214,3.314c1.184.9,1.613,1.63.309,2.8-1.981,1.773-3.354,4.7-6.9,2.054-1.265-.943-3.482-.776-5.272-.819-7.622-.184-7.623-.144-7.623,7.466m-18.31,36.957c9.8,0,19.608-.057,29.41.04,2.519.024,3.472-.511,2.981-3.32-.75-4.3-.786-8.717-1.561-13.006-.376-2.082,1.309-5.856-2.846-5.783-4.628.081-2.044,3.884-2.2,5.854-.44,5.709-2.521,8.656-7.567,8.7q-18.55.181-37.1-.011c-4.269-.043-6.9-2.863-7.215-7.145-.1-1.351.074-2.723-.055-4.068-.135-1.407.93-3.389-2.015-3.5-2.5-.1-2.554,1.24-2.728,3.01-.515,5.248-.973,10.512-1.786,15.717-.461,2.951.5,3.6,3.27,3.563,9.8-.134,19.606-.053,29.409-.052M31.081,175.669a6.846,6.846,0,0,0,1.321-1.235c1.71-2.767,7.483-.952,7.028-4.825-.336-2.853-3.652-5.354-5.642-8.012a11.58,11.58,0,0,1-1.084-1.449c-1.469-2.8-2.906-2.122-4.741-.234a19.8,19.8,0,0,0-4.159,21c3.245,7.675,9.272,11.564,17.481,12.4,2.591.263,3.5-.593,3.31-3.2a47.075,47.075,0,0,1,.009-8.146c.371-3.674-1.68-4.6-4.169-3.1-4.689,2.825-6.971.217-9.353-3.2m50.571,10.605c-.093-8.819.871-7.791-4.38-7.879-7-.118-10.525,2.539-10.407,7.619.112,4.878,3.579,6.94,10.3,7.4,7.165.5,3.567-4.688,4.492-7.144M70.282,156.256h2.709c2.62,0,5.248.815,5.155-3.792-.087-4.273-2.46-3.567-4.937-3.571-1.957,0-3.919.089-5.87-.023-2.635-.15-4.525-.124-4.469,3.61.051,3.385,1.324,4.165,4.253,3.8a25.457,25.457,0,0,1,3.158-.021m-55.411-59a40.021,40.021,0,0,0-.033-4.055c-.112-1.094.7-2.621-.784-3.187-1.367-.522-2.611.338-3.687,1.183a7.3,7.3,0,0,0-.181,11.387c1.169.99,2.63,2.055,4.031,1.482,1.5-.611.493-2.4.636-3.655a26.9,26.9,0,0,0,.018-3.155m111.214,7.089c4.335-.536,6.7-2.718,7.229-6.6.457-3.353-1.19-5.861-4.1-7.373-1.526-.793-3.241-1.244-3.157,1.679.114,4.02.028,8.045.028,12.293M44.18,162.987c.886-4.251-.343-8.06,1.839-11.5.713-1.125-1.123-1.821-2.362-1.186-2.116,1.084-4.144,2.338-6.376,3.617l6.9,9.071" transform="translate(0 0)" fill="#080706"/>
    <path id="Trazado_720389" data-name="Trazado 720389" d="M230.559,111.43c3.215-2.945,6.421-5.5,9.144-8.486,2.532-2.78,4.427-3.026,6.49.265a23.634,23.634,0,0,0,1.834,2.242c-4.893,4.513-9.678,9.1-14.678,13.445a6.838,6.838,0,0,0-2.518,5.843c.115,10.567.074,21.137.04,31.706-.022,6.426-2.689,9.151-9.024,9.168q-20.61.059-41.22,0c-6.387-.016-8.97-2.615-8.994-9.139q-.075-20.609.005-41.219c.026-6.244,2.566-8.824,8.765-8.854,13.739-.067,27.48.036,41.22-.057,3.919-.026,7.048,1.036,8.936,5.085m-7.05,17.548c-2.1.362-2.94,1.721-4.008,2.688q-8.063,7.3-16,14.725c-1.507,1.416-2.6,2.121-4.363.2-3.164-3.447-6.549-6.694-9.9-9.958-1.19-1.157-1.416-2.005-.154-3.363,2.239-2.411,4.192-4.489,6.894-.464a28.19,28.19,0,0,0,3.807,3.865c.757.755,1.5,1.619,2.637.572q10.178-9.346,20.342-18.709c1.149-1.064.954-2.578.564-3.834-.394-1.272-1.766-.856-2.751-.858-12.839-.025-25.68.043-38.52-.068-2.476-.021-3.014.893-3,3.159q.129,19.032-.012,38.064c-.024,2.6.813,3.334,3.364,3.311q18.8-.17,37.613.009c2.819.032,3.605-.859,3.554-3.608-.158-8.455-.057-16.915-.057-25.735" transform="translate(-15.95 -9.37)" fill="#060404"/>
    <path id="Trazado_720390" data-name="Trazado 720390" d="M201.021,83.909c-6.944,0-13.89.04-20.833-.013-5.769-.044-8.491-2.515-8.53-8.128q-.15-21.511.009-43.023c.044-5.362,2.829-7.917,8.27-7.936,14.191-.048,28.381,0,42.572-.036,2.2-.006,4.662.117,5.742,1.983,2.346,4.053,3.962,1.709,5.9-.179,1.837-1.79,3.76-3.493,5.659-5.218,3.209-2.913,5.709-2.329,7.594,1.545.859,1.765-.7,2.11-1.39,2.763C241.748,29.719,237.421,33.711,233,37.6a6.016,6.016,0,0,0-2.173,5.076c.107,10.718.074,21.436.039,32.154-.022,6.491-2.569,9.042-9.014,9.077-6.944.036-13.889.008-20.833.007M223.5,46.422c-7.3,6.661-13.791,12.487-20.144,18.465-1.652,1.553-2.68,1.851-4.347.028-2.948-3.225-6.059-6.317-9.28-9.27-1.835-1.683-1.859-2.709-.132-4.642,2.386-2.67,4.088-2.775,6.258.059a50.5,50.5,0,0,0,4.125,4.181c.812.834,1.5,1.293,2.594.28q9.954-9.222,19.99-18.356c1.181-1.08,1.05-2.474.861-3.788-.261-1.813-1.832-1.211-2.9-1.215-12.82-.041-25.642.032-38.462-.077-2.434-.021-3.039.814-3.022,3.113q.133,19.229.007,38.461c-.011,2.043.43,2.944,2.725,2.927q19.458-.144,38.915-.009c2.155.013,2.873-.676,2.848-2.844-.1-8.714-.04-17.43-.04-27.313" transform="translate(-15.949 -1.815)" fill="#050303"/>
    <path id="Trazado_720391" data-name="Trazado 720391" d="M201.442,212.373c-8.895,0-17.793-.151-26.681.079-3.269.085-3.151-1.566-3.216-3.864-.071-2.472.18-3.775,3.306-3.746q26.455.245,52.912,0c3.29-.033,3.118,1.566,3.173,3.838.058,2.423-.079,3.865-3.265,3.779-8.737-.237-17.485-.082-26.228-.082" transform="translate(-15.945 -19.04)" fill="#070707"/>
    <path id="Trazado_720392" data-name="Trazado 720392" d="M218.394,195.93c-3.908,0-7.823-.133-11.724.044-2.934.133-2.647-1.722-2.513-3.52.128-1.717-.962-4.1,2.459-4.05,8.266.112,16.536.129,24.8-.008,3.44-.056,2.382,2.29,2.465,4,.082,1.7.642,3.7-2.415,3.576-4.352-.181-8.717-.046-13.076-.046" transform="translate(-18.97 -17.512)" fill="#0b0b0b"/>
    <path id="Trazado_720393" data-name="Trazado 720393" d="M182.954,195.92c-2.262,0-4.581-.32-6.775.067-4.59.809-4.83-1.7-4.64-5.151.114-2.087,1.015-2.444,2.815-2.418,5.578.081,11.167.2,16.736-.035,3.338-.142,2.679,1.944,2.691,3.809s.62,4.062-2.688,3.776c-2.695-.233-5.425-.047-8.14-.047" transform="translate(-15.941 -17.51)" fill="#070707"/>
    <path id="Trazado_720394" data-name="Trazado 720394" d="M178.992,225c.8,3.2-.863,3.645-3.642,3.661s-3.869-.523-3.885-3.645c-.016-3.253,1.03-3.909,4.073-3.926,3.1-.016,4.085,1.011,3.454,3.909" transform="translate(-15.938 -20.551)" fill="#070707"/>
    <path id="Trazado_720395" data-name="Trazado 720395" d="M207.733,228.442c-3.6.91-3.443-1.219-3.691-3.716-.38-3.818,1.81-3.352,4.328-3.607,3.761-.381,3.025,1.931,3.284,4.156.411,3.534-1.484,3.717-3.921,3.167" transform="translate(-18.962 -20.55)" fill="#070707"/>
    <path id="Trazado_720396" data-name="Trazado 720396" d="M195.247,225.444c.942,3.528-1.575,2.929-3.869,3.195-3.351.388-3.308-1.343-3.536-3.885-.336-3.732,1.671-3.4,4.255-3.639,3.758-.351,3.332,1.851,3.149,4.329" transform="translate(-17.457 -20.55)" fill="#050303"/>
    <path id="Trazado_720397" data-name="Trazado 720397" d="M24.69,93.068q-.007-8.606-.006-17.211c0-5.391,2.358-9.225,7.411-11.3a19.135,19.135,0,0,0,2.463-1.127c8.218-4.85,16.179-7.079,25.328-1.258,5.154,3.278,11.828,3.3,18.056,3.323,10.568.041,21.138-.057,31.706.049,5.938.059,10.782,3.588,10.941,9.3.4,14.439,2.141,29.064-1.371,43.282-3.815,15.451-13.7,26.2-28.279,32.6-2.009.883-3.409,1.38-5.21-1.046-3.092-4.161-22.817-4.3-25.8-.1-1.976,2.777-3.585,1.951-5.588,1.013-18.635-8.724-28.73-23.258-29.611-43.931-.193-4.521-.029-9.057-.034-13.587m28.741,24.41c3.409,15.924,9.177,22.174,19.9,21.886,10.427-.279,16.087-6.862,18.68-21.886ZM47.22,80.2A14.952,14.952,0,0,0,32.646,90.908c-.339,1.286-1.443,3.542.549,3.808,2.093.278,5.186,1.911,6.489-1.614,1.227-3.322,3.528-5.389,7.025-5.436,3.7-.049,6.1,2.048,7.343,5.6,1.2,3.44,4.222,1.708,6.175,1.485,2.377-.272,1.147-2.64.772-4A14.872,14.872,0,0,0,47.22,80.2m62.206,14.746c2.162.048,4.409.614,3.733-3.049-1.188-6.433-7.745-11.81-14.723-11.69-6.943.119-13.647,5.8-14.32,12.18-.1.949-.606,2.518.98,2.447,2.5-.112,5.728,1.727,6.933-2.642.837-3.036,3.547-4.539,6.637-4.537,3.29,0,6,1.664,6.857,4.886.662,2.491,2.083,2.561,3.9,2.4" transform="translate(-2.289 -5.455)" fill="#eccdb1"/>
    <path id="Trazado_720398" data-name="Trazado 720398" d="M39.838,47.272C32.8,51.64,24.282,52.672,19.16,59.55c-5.217,7.007-2.793,15.324-3.9,23-.659-.071-1.124-.015-1.18-.142C-2.429,45.116,19.224,14.4,48.438,9.861c15-2.333,30.41-1.151,45.634-.239a12.849,12.849,0,0,1,1.757.424A47.984,47.984,0,0,1,132.7,68.62c-1.2,4.793-2.053,9.768-4.473,14.148l-1.349-.151c0-3.056.015-6.112,0-9.168-.067-12.356-7.535-20-20.006-20.211-9.354-.157-18.719-.234-28.069.008-16.36.424-29.81-5.357-39.839-18.363-2.5-3.245-3.739-.3-5.466.431-2.537,1.074-1.848,2.654-.486,4.216,2.175,2.5,4.38,4.966,6.833,7.742" transform="translate(-0.778 -0.79)" fill="#af7745"/>
    <path id="Trazado_720399" data-name="Trazado 720399" d="M57.223,197.926c0-7.54-.034-15.081.038-22.621.01-1.122-.84-2.811,1.475-3.059,1.859-.2,2.23.912,2.7,2.267,1.256,3.581,3.9,5.138,7.645,5.1,4.373-.049,8.748-.084,13.12.012,3.933.085,6.746-1.478,8.011-5.248.491-1.463.967-2.332,2.722-2.131,2.047.234,1.269,1.72,1.32,2.727.605,11.968.59,11.969-11.574,11.983-9.9.01-15.78,3.879-17.547,11.542a14.727,14.727,0,0,0,13.92,18.144c4.216.179,8.455.222,12.664-.018,2.981-.171,2.73,1.61,2.533,3.414-.179,1.628,1.2,4.064-2.376,4.018-10.706-.137-21.416-.117-32.122,0-2.47.027-2.577-1.17-2.561-3.052.065-7.691.027-15.383.027-23.073" transform="translate(-5.309 -16.008)" fill="#e1e4e8"/>
    <path id="Trazado_720400" data-name="Trazado 720400" d="M98.1,201.249c0-7.609,0-7.65,7.623-7.466,1.79.044,4.007-.124,5.273.819,3.547,2.643,4.92-.28,6.9-2.054,1.3-1.167.875-1.9-.309-2.8a15.482,15.482,0,0,0-9.214-3.314c-2.459-.04-2.866-.98-3-3.212-.309-5.344,1.147-10.774-1.185-16.073-.843-1.916,1.1-2.109,2.453-1.33,4.951,2.859,10.478,4.87,14.7,8.819,6.052,5.669,7.862,12.723,5.3,20.658-2.463,7.619-9.415,12.749-17.7,13.34-1.052.075-2.113.038-3.17.041-7.665.024-7.665.023-7.665-7.431" transform="translate(-9.119 -15.374)" fill="#f4d06c"/>
    <path id="Trazado_720401" data-name="Trazado 720401" d="M74.557,243.388c-9.8,0-19.608-.083-29.409.053-2.766.038-3.732-.613-3.271-3.564.813-5.206,1.271-10.469,1.787-15.717.174-1.77.232-3.107,2.728-3.01,2.945.115,1.88,2.1,2.015,3.5.13,1.345-.044,2.718.055,4.068.316,4.282,2.945,7.1,7.215,7.146q18.549.188,37.1.01c5.046-.049,7.128-3,7.567-8.7.151-1.97-2.433-5.773,2.2-5.854,4.155-.072,2.47,3.7,2.846,5.783.775,4.289.811,8.71,1.561,13.006.49,2.81-.463,3.344-2.981,3.32-9.8-.1-19.607-.04-29.41-.04" transform="translate(-3.882 -20.556)" fill="#f4d06c"/>
    <path id="Trazado_720402" data-name="Trazado 720402" d="M33.376,191.888c2.383,3.421,4.664,6.029,9.353,3.2,2.489-1.5,4.541-.578,4.17,3.1a47,47,0,0,0-.009,8.147c.192,2.6-.719,3.459-3.311,3.2-8.208-.834-14.236-4.723-17.48-12.4a19.8,19.8,0,0,1,4.158-21c1.835-1.888,3.273-2.564,4.742.234a11.582,11.582,0,0,0,1.084,1.449c1.99,2.658,5.306,5.16,5.642,8.013.455,3.872-5.319,2.057-7.028,4.824a6.9,6.9,0,0,1-1.321,1.236" transform="translate(-2.295 -16.219)" fill="#f5d16d"/>
    <path id="Trazado_720403" data-name="Trazado 720403" d="M88.5,204.554c-.925,2.456,2.673,7.639-4.492,7.145-6.717-.463-10.183-2.526-10.3-7.4-.118-5.08,3.406-7.737,10.407-7.619,5.251.088,4.287-.941,4.38,7.879" transform="translate(-6.852 -18.281)" fill="#e5c7ac"/>
    <path id="Trazado_720404" data-name="Trazado 720404" d="M76.724,171.507a25.46,25.46,0,0,0-3.158.021c-2.929.368-4.2-.411-4.253-3.8-.056-3.734,1.834-3.759,4.469-3.609,1.95.111,3.912.02,5.87.022,2.478,0,4.85-.7,4.937,3.571.094,4.607-2.535,3.791-5.155,3.792H76.724" transform="translate(-6.443 -15.252)" fill="#abd278"/>
    <path id="Trazado_720405" data-name="Trazado 720405" d="M15.647,106.463a27.5,27.5,0,0,1-.021,3.155c-.143,1.256.86,3.043-.636,3.654-1.4.573-2.862-.493-4.031-1.482a7.3,7.3,0,0,1,.181-11.387c1.076-.844,2.32-1.7,3.687-1.183,1.483.566.672,2.093.784,3.187.136,1.339.033,2.7.035,4.055" transform="translate(-0.773 -9.208)" fill="#e5c7ac"/>
    <path id="Trazado_720406" data-name="Trazado 720406" d="M139,113.542c0-4.248.086-8.273-.029-12.293-.083-2.923,1.633-2.472,3.158-1.679,2.91,1.512,4.557,4.02,4.1,7.373-.53,3.88-2.893,6.063-7.228,6.6" transform="translate(-12.918 -9.2)" fill="#eccdb1"/>
    <path id="Trazado_720407" data-name="Trazado 720407" d="M48,178.365l-6.9-9.071c2.231-1.279,4.259-2.533,6.376-3.617,1.239-.636,3.075.061,2.362,1.186-2.181,3.443-.952,7.252-1.839,11.5" transform="translate(-3.82 -15.378)" fill="#f4d06c"/>
    <path id="Trazado_720408" data-name="Trazado 720408" d="M224.271,130.307c0,8.82-.1,17.28.057,25.735.052,2.749-.735,3.64-3.554,3.608q-18.8-.209-37.613-.009c-2.552.024-3.388-.71-3.364-3.311q.173-19.03.012-38.064c-.015-2.267.523-3.18,3-3.159,12.839.111,25.68.043,38.52.068.985,0,2.357-.414,2.751.858.39,1.256.585,2.77-.564,3.834q-10.143,9.387-20.342,18.709c-1.14,1.047-1.879.182-2.637-.572a28.19,28.19,0,0,1-3.807-3.865c-2.7-4.025-4.654-1.947-6.894.464-1.262,1.358-1.036,2.206.154,3.363,3.356,3.264,6.741,6.512,9.9,9.958,1.76,1.916,2.856,1.211,4.363-.205q7.921-7.449,16-14.725c1.068-.967,1.909-2.326,4.008-2.688" transform="translate(-16.713 -10.7)" fill="#f97f6b"/>
    <path id="Trazado_720409" data-name="Trazado 720409" d="M224.268,47.707c0,9.883-.057,18.6.04,27.313.024,2.168-.693,2.856-2.848,2.844q-19.458-.114-38.915.009c-2.295.017-2.736-.884-2.725-2.927q.1-19.23-.007-38.461c-.016-2.3.589-3.134,3.022-3.113,12.82.109,25.642.036,38.462.077,1.064,0,2.635-.6,2.9,1.215.19,1.314.32,2.708-.861,3.788q-10.015,9.157-19.99,18.356c-1.094,1.013-1.782.554-2.594-.28a50.5,50.5,0,0,1-4.125-4.181c-2.17-2.834-3.872-2.729-6.258-.059-1.726,1.933-1.7,2.959.132,4.642,3.221,2.953,6.332,6.045,9.28,9.27,1.666,1.823,2.695,1.525,4.347-.028,6.353-5.977,12.848-11.8,20.144-18.465" transform="translate(-16.714 -3.101)" fill="#fb806c"/>
    <path id="Trazado_720410" data-name="Trazado 720410" d="M56.382,123.5H94.964c-2.591,15.024-8.253,21.606-18.68,21.885-10.727.288-16.494-5.962-19.9-21.885m19.405,7.139c-2.406,0-4.817.09-7.219-.024-2.586-.123-2.851.747-1.563,2.8,3.249,5.187,11.172,6.188,15.775,1.843,1.144-1.079,2.95-2.288,2.14-4.051-.58-1.263-2.439-.473-3.72-.546-1.8-.1-3.608-.025-5.413-.024" transform="translate(-5.241 -11.48)" fill="#050303"/>
    <path id="Trazado_720411" data-name="Trazado 720411" d="M47.979,82.4a14.87,14.87,0,0,1,13.778,10.55c.375,1.362,1.605,3.73-.771,4-1.953.223-4.975,1.955-6.176-1.485-1.239-3.547-3.64-5.645-7.343-5.6-3.5.047-5.8,2.114-7.025,5.436-1.3,3.525-4.4,1.891-6.489,1.613-1.992-.265-.888-2.522-.549-3.808A14.953,14.953,0,0,1,47.979,82.4" transform="translate(-3.048 -7.659)" fill="#080706"/>
    <path id="Trazado_720412" data-name="Trazado 720412" d="M115.506,97.145c-1.82.156-3.242.086-3.9-2.4-.857-3.223-3.567-4.884-6.857-4.886-3.09,0-5.8,1.5-6.637,4.537-1.2,4.369-4.433,2.531-6.933,2.642-1.586.071-1.079-1.5-.98-2.447.672-6.383,7.376-12.061,14.32-12.18,6.978-.12,13.535,5.257,14.723,11.69.677,3.663-1.57,3.1-3.733,3.049" transform="translate(-8.37 -7.66)" fill="#060404"/>
    <path id="Trazado_720413" data-name="Trazado 720413" d="M76.8,131.357c1.805,0,3.615-.076,5.413.025,1.281.073,3.14-.717,3.72.546.81,1.763-1,2.971-2.14,4.051-4.6,4.344-12.526,3.344-15.775-1.843-1.288-2.055-1.023-2.926,1.563-2.8,2.4.114,4.813.024,7.219.024" transform="translate(-6.252 -12.196)" fill="#f57d6a"/>
  </g>
</svg>
