<svg id="Grupo_1018153" data-name="Grupo 1018153" xmlns="http://www.w3.org/2000/svg" xmlns:xlink="http://www.w3.org/1999/xlink" width="505.977" height="464.977" viewBox="0 0 505.977 464.977">
  <defs>
    <clipPath id="clip-path">
      <rect id="Rectángulo_350818" data-name="Rectángulo 350818" width="505.977" height="464.976" fill="none"/>
    </clipPath>
    <clipPath id="clip-path-3">
      <rect id="Rectángulo_350793" data-name="Rectángulo 350793" width="37.75" height="37.137" fill="none"/>
    </clipPath>
    <clipPath id="clip-path-6">
      <rect id="Rectángulo_350810" data-name="Rectángulo 350810" width="79.488" height="87.933" fill="none"/>
    </clipPath>
    <clipPath id="clip-path-7">
      <rect id="Rectángulo_350811" data-name="Rectángulo 350811" width="35.527" height="36.176" fill="none"/>
    </clipPath>
    <clipPath id="clip-path-8">
      <rect id="Rectángulo_350812" data-name="Rectángulo 350812" width="44.923" height="14.787" fill="none"/>
    </clipPath>
    <clipPath id="clip-path-9">
      <rect id="Rectángulo_350813" data-name="Rectángulo 350813" width="43.244" height="14.22" fill="none"/>
    </clipPath>
    <clipPath id="clip-path-10">
      <rect id="Rectángulo_350814" data-name="Rectángulo 350814" width="42.405" height="26.283" fill="none"/>
    </clipPath>
    <clipPath id="clip-path-11">
      <rect id="Rectángulo_350815" data-name="Rectángulo 350815" width="27.063" height="106.38" fill="none"/>
    </clipPath>
    <clipPath id="clip-path-12">
      <rect id="Rectángulo_350816" data-name="Rectángulo 350816" width="24.237" height="15.459" fill="none"/>
    </clipPath>
  </defs>
  <g id="Grupo_1018152" data-name="Grupo 1018152" clip-path="url(#clip-path)">
    <rect id="Rectángulo_350785" data-name="Rectángulo 350785" width="43.248" height="16.288" transform="translate(460.929 422.235)" fill="#ebebeb"/>
    <rect id="Rectángulo_350786" data-name="Rectángulo 350786" width="135.825" height="3.41" transform="translate(370.154 419.438)" fill="#455a64"/>
    <rect id="Rectángulo_350787" data-name="Rectángulo 350787" width="135.194" height="3.412" transform="translate(370.154 437.795)" fill="#455a64"/>
    <path id="Trazado_720155" data-name="Trazado 720155" d="M409,361.3l-.2,20.307H318.229V361.3Z" transform="translate(51.926 58.953)" fill="#455a64"/>
    <g id="Grupo_1018126" data-name="Grupo 1018126">
      <g id="Grupo_1018125" data-name="Grupo 1018125" clip-path="url(#clip-path)">
        <path id="Trazado_720156" data-name="Trazado 720156" d="M377.344,370.717a4.9,4.9,0,1,0,4.9-5.053,4.976,4.976,0,0,0-4.9,5.053" transform="translate(61.572 59.666)" fill="#263238"/>
        <path id="Trazado_720157" data-name="Trazado 720157" d="M376.691,370.819a5.656,5.656,0,1,1,5.655,5.78,5.724,5.724,0,0,1-5.655-5.78m1.519,0a4.14,4.14,0,1,0,4.136-4.327,4.24,4.24,0,0,0-4.136,4.327" transform="translate(61.465 59.564)" fill="#e0e0e0"/>
        <path id="Trazado_720158" data-name="Trazado 720158" d="M399.063,373.626c0,.209,8.887.378,19.845.378s19.847-.169,19.847-.378-8.883-.378-19.847-.378-19.845.17-19.845.378" transform="translate(65.116 60.903)" fill="#263238"/>
        <path id="Trazado_720159" data-name="Trazado 720159" d="M399.063,371.186c0,.209,8.887.378,19.845.378s19.847-.169,19.847-.378-8.883-.378-19.847-.378-19.845.17-19.845.378" transform="translate(65.116 60.505)" fill="#263238"/>
        <path id="Trazado_720160" data-name="Trazado 720160" d="M399.063,368.747c0,.209,8.887.378,19.845.378s19.847-.169,19.847-.378-8.883-.378-19.847-.378-19.845.169-19.845.378" transform="translate(65.116 60.107)" fill="#263238"/>
        <path id="Trazado_720161" data-name="Trazado 720161" d="M399.063,366.308c0,.209,8.887.378,19.845.378s19.847-.169,19.847-.378-8.883-.378-19.847-.378-19.845.17-19.845.378" transform="translate(65.116 59.709)" fill="#263238"/>
        <rect id="Rectángulo_350788" data-name="Rectángulo 350788" width="40.814" height="10.868" transform="translate(380.198 424.569)" fill="#fff"/>
        <path id="Trazado_720162" data-name="Trazado 720162" d="M356.541,374.618c.219,0,.4-1.938.4-4.329s-.177-4.329-.4-4.329-.4,1.938-.4,4.329.177,4.329.4,4.329" transform="translate(58.113 59.714)" fill="#e0e0e0"/>
        <path id="Trazado_720163" data-name="Trazado 720163" d="M351.9,374.618c.219,0,.4-1.938.4-4.329s-.177-4.329-.4-4.329-.4,1.938-.4,4.329.177,4.329.4,4.329" transform="translate(57.356 59.714)" fill="#e0e0e0"/>
        <path id="Trazado_720164" data-name="Trazado 720164" d="M347.262,374.618c.219,0,.4-1.938.4-4.329s-.177-4.329-.4-4.329-.4,1.938-.4,4.329.177,4.329.4,4.329" transform="translate(56.599 59.714)" fill="#e0e0e0"/>
        <path id="Trazado_720165" data-name="Trazado 720165" d="M342.622,374.618c.219,0,.4-1.938.4-4.329s-.177-4.329-.4-4.329-.4,1.938-.4,4.329.177,4.329.4,4.329" transform="translate(55.842 59.714)" fill="#e0e0e0"/>
        <path id="Trazado_720166" data-name="Trazado 720166" d="M337.983,374.618c.219,0,.4-1.938.4-4.329s-.177-4.329-.4-4.329-.4,1.938-.4,4.329.177,4.329.4,4.329" transform="translate(55.085 59.714)" fill="#e0e0e0"/>
        <path id="Trazado_720167" data-name="Trazado 720167" d="M333.343,374.618c.219,0,.4-1.938.4-4.329s-.177-4.329-.4-4.329-.4,1.938-.4,4.329.177,4.329.4,4.329" transform="translate(54.327 59.714)" fill="#e0e0e0"/>
        <path id="Trazado_720168" data-name="Trazado 720168" d="M395.8,382.3c.219,0,.4-4.828.4-10.783s-.177-10.784-.4-10.784-.4,4.827-.4,10.784.177,10.783.4,10.783" transform="translate(64.518 58.861)" fill="#263238"/>
        <rect id="Rectángulo_350789" data-name="Rectángulo 350789" width="43.248" height="16.288" transform="translate(455.183 443.403)" fill="#ebebeb"/>
        <rect id="Rectángulo_350790" data-name="Rectángulo 350790" width="135.823" height="3.412" transform="translate(364.408 440.607)" fill="#bcf987"/>
        <rect id="Rectángulo_350791" data-name="Rectángulo 350791" width="135.194" height="3.412" transform="translate(364.408 458.964)" fill="#bcf987"/>
        <path id="Trazado_720169" data-name="Trazado 720169" d="M404.063,379.5l-.2,20.307H313.289V379.5Z" transform="translate(51.12 61.923)" fill="#bcf987"/>
        <path id="Trazado_720170" data-name="Trazado 720170" d="M372.4,388.917a4.9,4.9,0,1,0,4.9-5.053,4.977,4.977,0,0,0-4.9,5.053" transform="translate(60.766 62.635)" fill="#263238"/>
        <path id="Trazado_720171" data-name="Trazado 720171" d="M371.752,389.018a5.657,5.657,0,1,1,5.655,5.78,5.724,5.724,0,0,1-5.655-5.78m1.519,0a4.14,4.14,0,1,0,4.136-4.327,4.241,4.241,0,0,0-4.136,4.327" transform="translate(60.659 62.534)" fill="#e0e0e0"/>
        <path id="Trazado_720172" data-name="Trazado 720172" d="M394.123,391.825c0,.209,8.887.378,19.845.378s19.847-.169,19.847-.378-8.884-.378-19.847-.378-19.845.17-19.845.378" transform="translate(64.309 63.873)" fill="#263238"/>
        <path id="Trazado_720173" data-name="Trazado 720173" d="M394.123,389.386c0,.209,8.887.378,19.845.378s19.847-.169,19.847-.378-8.884-.378-19.847-.378-19.845.17-19.845.378" transform="translate(64.309 63.475)" fill="#263238"/>
        <path id="Trazado_720174" data-name="Trazado 720174" d="M394.123,386.947c0,.209,8.887.378,19.845.378s19.847-.169,19.847-.378-8.884-.378-19.847-.378-19.845.169-19.845.378" transform="translate(64.309 63.077)" fill="#263238"/>
        <path id="Trazado_720175" data-name="Trazado 720175" d="M394.123,384.508c0,.208,8.887.378,19.845.378s19.847-.17,19.847-.378-8.884-.378-19.847-.378-19.845.169-19.845.378" transform="translate(64.309 62.679)" fill="#263238"/>
        <rect id="Rectángulo_350792" data-name="Rectángulo 350792" width="40.814" height="10.868" transform="translate(374.452 445.738)" fill="#fff"/>
        <path id="Trazado_720176" data-name="Trazado 720176" d="M351.6,392.818c.219,0,.4-1.938.4-4.329s-.177-4.329-.4-4.329-.4,1.938-.4,4.329.177,4.329.4,4.329" transform="translate(57.307 62.684)" fill="#e0e0e0"/>
        <path id="Trazado_720177" data-name="Trazado 720177" d="M346.962,392.818c.219,0,.4-1.938.4-4.329s-.177-4.329-.4-4.329-.4,1.938-.4,4.329.177,4.329.4,4.329" transform="translate(56.55 62.684)" fill="#e0e0e0"/>
        <path id="Trazado_720178" data-name="Trazado 720178" d="M342.322,392.818c.219,0,.4-1.938.4-4.329s-.177-4.329-.4-4.329-.4,1.938-.4,4.329.177,4.329.4,4.329" transform="translate(55.793 62.684)" fill="#e0e0e0"/>
        <path id="Trazado_720179" data-name="Trazado 720179" d="M337.682,392.818c.219,0,.4-1.938.4-4.329s-.177-4.329-.4-4.329-.4,1.938-.4,4.329.177,4.329.4,4.329" transform="translate(55.035 62.684)" fill="#e0e0e0"/>
        <path id="Trazado_720180" data-name="Trazado 720180" d="M333.043,392.818c.219,0,.4-1.938.4-4.329s-.177-4.329-.4-4.329-.4,1.938-.4,4.329.177,4.329.4,4.329" transform="translate(54.279 62.684)" fill="#e0e0e0"/>
        <path id="Trazado_720181" data-name="Trazado 720181" d="M328.4,392.818c.219,0,.4-1.938.4-4.329s-.177-4.329-.4-4.329-.4,1.938-.4,4.329.177,4.329.4,4.329" transform="translate(53.521 62.684)" fill="#e0e0e0"/>
        <path id="Trazado_720182" data-name="Trazado 720182" d="M390.856,400.5c.219,0,.4-4.828.4-10.783s-.177-10.784-.4-10.784-.4,4.827-.4,10.784.177,10.783.4,10.783" transform="translate(63.712 61.831)" fill="#263238"/>
        <path id="Trazado_720183" data-name="Trazado 720183" d="M323.488,334.11v-5.3l116.086.23h6.707v5.149h-6.707v31.757H314.2V334.11Z" transform="translate(51.268 53.652)" fill="#ebebeb"/>
        <path id="Trazado_720184" data-name="Trazado 720184" d="M444.961,333.487c0,.167-27.466.266-61.337.222s-61.343-.217-61.343-.385,27.46-.266,61.345-.221,61.336.216,61.336.384" transform="translate(52.587 54.351)" fill="#263238"/>
        <path id="Trazado_720185" data-name="Trazado 720185" d="M439.572,339.593c0,.167-28.067.285-62.683.262s-62.689-.176-62.689-.343,28.063-.285,62.689-.262,62.683.176,62.683.343" transform="translate(51.268 55.355)" fill="#263238"/>
        <path id="Trazado_720186" data-name="Trazado 720186" d="M439.572,345.811c0,.168-28.067.285-62.683.263s-62.689-.177-62.689-.344,28.063-.285,62.689-.262,62.683.176,62.683.343" transform="translate(51.268 56.37)" fill="#263238"/>
        <path id="Trazado_720187" data-name="Trazado 720187" d="M439.572,352.029c0,.167-28.067.285-62.683.263s-62.689-.177-62.689-.344,28.063-.284,62.689-.262,62.683.176,62.683.343" transform="translate(51.268 57.384)" fill="#263238"/>
        <path id="Trazado_720188" data-name="Trazado 720188" d="M439.572,358.248c0,.167-28.067.285-62.683.262s-62.689-.176-62.689-.343,28.063-.285,62.689-.262,62.683.176,62.683.343" transform="translate(51.268 58.399)" fill="#263238"/>
        <g id="Grupo_1018124" data-name="Grupo 1018124" transform="translate(365.469 382.458)" opacity="0.3">
          <g id="Grupo_1018123" data-name="Grupo 1018123">
            <g id="Grupo_1018122" data-name="Grupo 1018122" clip-path="url(#clip-path-3)">
              <path id="Trazado_720189" data-name="Trazado 720189" d="M351.951,365.943V328.807H323.487v5.3H314.2v31.834Z" transform="translate(-314.201 -328.806)"/>
            </g>
          </g>
        </g>
      </g>
    </g>
    <g id="Grupo_1018128" data-name="Grupo 1018128">
      <g id="Grupo_1018127" data-name="Grupo 1018127" clip-path="url(#clip-path)">
        <path id="Trazado_720190" data-name="Trazado 720190" d="M238.2,131.973H42.009a6.136,6.136,0,0,1-6.136-6.136V6.636A6.136,6.136,0,0,1,42.009.5H238.2a6.136,6.136,0,0,1,6.136,6.136v119.2a6.136,6.136,0,0,1-6.136,6.136" transform="translate(5.853 0.082)" fill="#fff"/>
        <path id="Trazado_720191" data-name="Trazado 720191" d="M238.281,132.636H42.09a6.725,6.725,0,0,1-6.717-6.717V6.717A6.725,6.725,0,0,1,42.09,0H238.281A6.726,6.726,0,0,1,245,6.717v119.2a6.726,6.726,0,0,1-6.718,6.717M42.09,1.163a5.56,5.56,0,0,0-5.554,5.554v119.2a5.56,5.56,0,0,0,5.554,5.554H238.281a5.561,5.561,0,0,0,5.555-5.554V6.717a5.561,5.561,0,0,0-5.555-5.554Z" transform="translate(5.772 0)" fill="#263238"/>
        <path id="Trazado_720192" data-name="Trazado 720192" d="M232,105.368H45.93V25.711H232Zm-185.653-.382H231.583V26.093H46.351Z" transform="translate(7.494 4.195)" fill="#ebebeb"/>
        <rect id="Rectángulo_350795" data-name="Rectángulo 350795" width="185.653" height="0.382" transform="translate(53.635 95.97)" fill="#ebebeb"/>
        <rect id="Rectángulo_350796" data-name="Rectángulo 350796" width="185.653" height="0.382" transform="translate(53.635 82.756)" fill="#ebebeb"/>
        <rect id="Rectángulo_350797" data-name="Rectángulo 350797" width="185.653" height="0.382" transform="translate(53.635 69.544)" fill="#ebebeb"/>
        <rect id="Rectángulo_350798" data-name="Rectángulo 350798" width="185.653" height="0.382" transform="translate(53.635 56.331)" fill="#ebebeb"/>
        <rect id="Rectángulo_350799" data-name="Rectángulo 350799" width="185.653" height="0.382" transform="translate(53.635 43.119)" fill="#ebebeb"/>
        <rect id="Rectángulo_350800" data-name="Rectángulo 350800" width="6.118" height="53.583" transform="translate(71.23 55.51)" fill="#bcf987"/>
        <rect id="Rectángulo_350801" data-name="Rectángulo 350801" width="7.557" height="66.54" transform="translate(80.91 42.552)" fill="#cda7ff"/>
        <rect id="Rectángulo_350802" data-name="Rectángulo 350802" width="6.117" height="15.204" transform="translate(114.038 93.889)" fill="#bcf987"/>
        <rect id="Rectángulo_350803" data-name="Rectángulo 350803" width="6.117" height="46.515" transform="translate(123.717 62.577)" fill="#cda7ff"/>
        <rect id="Rectángulo_350804" data-name="Rectángulo 350804" width="6.117" height="76.48" transform="translate(153.965 32.613)" fill="#bcf987"/>
        <rect id="Rectángulo_350805" data-name="Rectángulo 350805" width="6.117" height="18.234" transform="translate(165.084 90.859)" fill="#cda7ff"/>
        <rect id="Rectángulo_350806" data-name="Rectángulo 350806" width="6.117" height="68.735" transform="translate(193.892 40.357)" fill="#bcf987"/>
        <rect id="Rectángulo_350807" data-name="Rectángulo 350807" width="6.117" height="39.513" transform="translate(203.57 69.58)" fill="#455a64"/>
        <rect id="Rectángulo_350808" data-name="Rectángulo 350808" width="6.117" height="5.335" transform="translate(223.824 103.757)" fill="#ff725e"/>
        <path id="Trazado_720193" data-name="Trazado 720193" d="M74.794,101.98H62.341a.963.963,0,0,1-.963-.963v-.6a.963.963,0,0,1,.963-.963H74.794a.964.964,0,0,1,.963.963v.6a.963.963,0,0,1-.963.963" transform="translate(10.015 16.228)" fill="#e0e0e0"/>
        <path id="Trazado_720194" data-name="Trazado 720194" d="M110.612,101.98H98.159a.963.963,0,0,1-.963-.963v-.6a.963.963,0,0,1,.963-.963h12.453a.964.964,0,0,1,.963.963v.6a.963.963,0,0,1-.963.963" transform="translate(15.86 16.228)" fill="#e0e0e0"/>
        <path id="Trazado_720195" data-name="Trazado 720195" d="M142.231,101.98H129.777a.963.963,0,0,1-.962-.963v-.6a.963.963,0,0,1,.962-.963h12.454a.963.963,0,0,1,.963.963v.6a.963.963,0,0,1-.963.963" transform="translate(21.019 16.228)" fill="#e0e0e0"/>
        <path id="Trazado_720196" data-name="Trazado 720196" d="M174.8,101.98H162.343a.964.964,0,0,1-.963-.963v-.6a.964.964,0,0,1,.963-.963H174.8a.963.963,0,0,1,.962.963v.6a.963.963,0,0,1-.962.963" transform="translate(26.333 16.228)" fill="#e0e0e0"/>
        <path id="Trazado_720197" data-name="Trazado 720197" d="M202.393,101.98H189.94a.963.963,0,0,1-.963-.963v-.6a.963.963,0,0,1,.963-.963h12.453a.964.964,0,0,1,.963.963v.6a.963.963,0,0,1-.963.963" transform="translate(30.836 16.228)" fill="#e0e0e0"/>
        <path id="Trazado_720198" data-name="Trazado 720198" d="M51.628,13.42a2.849,2.849,0,1,1-2.849-2.849,2.849,2.849,0,0,1,2.849,2.849" transform="translate(7.494 1.725)" fill="#e0e0e0"/>
        <path id="Trazado_720199" data-name="Trazado 720199" d="M58.451,13.42A2.849,2.849,0,1,1,55.6,10.571a2.849,2.849,0,0,1,2.849,2.849" transform="translate(8.608 1.725)" fill="#e0e0e0"/>
        <path id="Trazado_720200" data-name="Trazado 720200" d="M65.275,13.42a2.849,2.849,0,1,1-2.849-2.849,2.849,2.849,0,0,1,2.849,2.849" transform="translate(9.721 1.725)" fill="#e0e0e0"/>
      </g>
    </g>
    <g id="Grupo_1018151" data-name="Grupo 1018151">
      <g id="Grupo_1018150" data-name="Grupo 1018150" clip-path="url(#clip-path)">
        <path id="Trazado_720201" data-name="Trazado 720201" d="M322.683,357.649l-6.427-47.789-133.517,3.761s-11.618,69.388-11.029,98.229h77.18l.643-9.666,4.116.893s.955,3.871,2.047,8.773l74.863.137Z" transform="translate(28.015 50.56)" fill="#263238"/>
        <path id="Trazado_720202" data-name="Trazado 720202" d="M188.378,257.75l-38.9-13.257s21.337-84.355,51.106-84.355Z" transform="translate(24.391 26.13)" fill="#cda7ff"/>
        <path id="Trazado_720203" data-name="Trazado 720203" d="M309.108,284.606l-4.617-126.3c-7.286-3.326-38.467-7.328-38.467-7.328l-40.57,5.708-33.795,5.794L182.6,248.745l-3.818,119.311c43.424,16.023,96.4,10.626,143-1.224Z" transform="translate(29.171 24.636)" fill="#cda7ff"/>
        <g id="Grupo_1018131" data-name="Grupo 1018131" transform="translate(261.203 236.95)" opacity="0.3">
          <g id="Grupo_1018130" data-name="Grupo 1018130">
            <g id="Grupo_1018129" data-name="Grupo 1018129" clip-path="url(#clip-path-6)">
              <path id="Trazado_720204" data-name="Trazado 720204" d="M224.561,203.71s22.664,48.211,42.762,66.119,36.725,21.814,36.725,21.814L301.637,276Z" transform="translate(-224.561 -203.71)"/>
            </g>
          </g>
        </g>
        <path id="Trazado_720205" data-name="Trazado 720205" d="M183.347,188.916c.167.007-.229,13.19-.885,29.442s-1.323,29.428-1.49,29.421.229-13.187.885-29.445,1.323-29.426,1.49-29.419" transform="translate(29.523 30.826)" fill="#263238"/>
        <path id="Trazado_720206" data-name="Trazado 720206" d="M280.029,155.39s35.935,3.212,40.717,40.682c2.211,17.329,6.3,44.69,6.3,44.69l-35.3,3.082-4.869-3.608c-2.71-8.093-7.409-24.778-6.75-25.372.895-.806-.1-59.474-.1-59.474" transform="translate(45.693 25.355)" fill="#cda7ff"/>
        <path id="Trazado_720207" data-name="Trazado 720207" d="M213.485,300.078a12.724,12.724,0,0,1,1.569-1.234c1.031-.765,2.549-1.837,4.446-3.13,3.793-2.588,9.14-6.011,15.225-9.49s11.755-6.34,15.911-8.293c2.077-.977,3.771-1.74,4.954-2.239a12.58,12.58,0,0,1,1.86-.725,12.427,12.427,0,0,1-1.761.939l-4.866,2.41c-4.1,2.048-9.723,4.968-15.8,8.435s-11.44,6.828-15.288,9.32l-4.549,2.967a12.68,12.68,0,0,1-1.7,1.04" transform="translate(34.834 44.866)" fill="#263238"/>
        <path id="Trazado_720208" data-name="Trazado 720208" d="M230.823,291.8a13.893,13.893,0,0,1,2.714-1.76,53.982,53.982,0,0,1,14.558-5.531,13.863,13.863,0,0,1,3.2-.487,22.211,22.211,0,0,1-3.1.9c-1.915.523-4.539,1.317-7.368,2.389s-5.313,2.226-7.093,3.106a22.245,22.245,0,0,1-2.914,1.381" transform="translate(37.663 46.34)" fill="#263238"/>
        <path id="Trazado_720209" data-name="Trazado 720209" d="M284.256,234.338c-.168-.008.3-11.357,1.035-25.343s1.473-25.322,1.64-25.313-.3,11.354-1.035,25.345-1.473,25.32-1.64,25.311" transform="translate(46.377 29.972)" fill="#263238"/>
        <path id="Trazado_720210" data-name="Trazado 720210" d="M188.964,96.064a10.576,10.576,0,0,1-12.349-3.727,6.3,6.3,0,0,1-1.235-3.929,3.581,3.581,0,0,1,2.337-3.185,8.45,8.45,0,0,1-4.868-4.469,6.628,6.628,0,0,1,.658-6.456,5.473,5.473,0,0,1,6.044-1.922,6.547,6.547,0,0,1,2.111-6.615l10.23-.209Z" transform="translate(28.115 10.696)" fill="#263238"/>
        <path id="Trazado_720211" data-name="Trazado 720211" d="M221.684,173.794l-1.781-6.927s-21.056,1.791-26.252-18.43c-2.508-9.766-6.038-30.3-9.018-48.915a38.9,38.9,0,0,1,29.2-43.938l1.956-.477c21.4-3.912,36.682,12.078,40,33.582l10.969,78.78-32.287,24.279Z" transform="translate(30.046 8.896)" fill="#ae7461"/>
        <path id="Trazado_720212" data-name="Trazado 720212" d="M214.886,152.8a57.306,57.306,0,0,0,25.078-12.068s-3.067,14.123-23.751,17.23Z" transform="translate(35.063 22.963)" fill="#6f4439"/>
        <path id="Trazado_720213" data-name="Trazado 720213" d="M193.638,110.7a2.981,2.981,0,0,0,3.5,2.241,2.852,2.852,0,0,0,2.35-3.339,2.983,2.983,0,0,0-3.5-2.244,2.854,2.854,0,0,0-2.352,3.342" transform="translate(31.587 17.509)" fill="#263238"/>
        <path id="Trazado_720214" data-name="Trazado 720214" d="M190.406,101.481c.45.29,2.248-1.869,5.367-2.621,3.1-.8,5.783.25,6.028-.214.127-.209-.406-.8-1.578-1.284a8.187,8.187,0,0,0-4.941-.3,7.863,7.863,0,0,0-4.157,2.558c-.779.969-.938,1.732-.718,1.858" transform="translate(31.054 15.798)" fill="#263238"/>
        <path id="Trazado_720215" data-name="Trazado 720215" d="M216.461,105.582a2.981,2.981,0,0,0,3.5,2.241,2.851,2.851,0,0,0,2.35-3.339,2.983,2.983,0,0,0-3.5-2.244,2.853,2.853,0,0,0-2.351,3.342" transform="translate(35.311 16.674)" fill="#263238"/>
        <path id="Trazado_720216" data-name="Trazado 720216" d="M216.865,95.559c.451.29,2.253-1.869,5.37-2.621,3.1-.8,5.782.251,6.028-.213.124-.209-.4-.8-1.581-1.284a8.171,8.171,0,0,0-4.939-.3,7.854,7.854,0,0,0-4.158,2.557c-.777.969-.936,1.732-.72,1.858" transform="translate(35.372 14.832)" fill="#263238"/>
        <path id="Trazado_720217" data-name="Trazado 720217" d="M213.179,120.841c-.029-.181-2.048-.044-5.285.32-.815.113-1.607.138-1.874-.373a4.17,4.17,0,0,1-.044-2.488q.419-3.161.876-6.635c1.166-9.425,1.8-17.1,1.423-17.14s-1.633,7.561-2.8,16.987c-.268,2.319-.526,4.531-.768,6.646a4.747,4.747,0,0,0,.348,3.224,2.06,2.06,0,0,0,1.594.844,5.566,5.566,0,0,0,1.4-.142c3.2-.6,5.164-1.064,5.133-1.243" transform="translate(33.383 15.424)" fill="#263238"/>
        <path id="Trazado_720218" data-name="Trazado 720218" d="M214.493,91.739c.669.643,3.362-1.141,6.938-2.394,3.553-1.326,6.763-1.677,6.866-2.6.035-.435-.8-.938-2.276-1.154a12.757,12.757,0,0,0-10.516,3.8c-.995,1.109-1.317,2.031-1.012,2.341" transform="translate(34.981 13.951)" fill="#263238"/>
        <path id="Trazado_720219" data-name="Trazado 720219" d="M189.511,93.5c.721.575,2.688-.684,5.262-1.348,2.55-.754,4.884-.686,5.206-1.549.134-.414-.383-1.039-1.5-1.476a7.867,7.867,0,0,0-8.435,2.334c-.735.95-.856,1.753-.53,2.039" transform="translate(30.895 14.476)" fill="#263238"/>
        <path id="Trazado_720220" data-name="Trazado 720220" d="M184.416,90.125s2.253-14.006,7.655-18.463c6.539-5.4,11.717,1.966,18.3-1.732s12.823-8.868,21.376-5.166c9.362,4.051,6.681,9.148,9.364,18.029,10.874,36,20.053,44.7,17.758,27.048-.251-1.933,4.61-4.7,3.444-12.848-1.51-10.56-4.168-23.181-8.254-29.94-3.445-5.7-8-9.1-15.456-12.264-11.767-4.991-25.485-1.816-34.546,1.383s-24.365,18.256-19.641,33.953" transform="translate(29.947 8.516)" fill="#263238"/>
        <path id="Trazado_720221" data-name="Trazado 720221" d="M247.09,102.516a5.667,5.667,0,0,1,4.651-6.755c3.87-.563,8.6.558,10.259,8.436,2.938,13.974-11.7,14.041-11.806,13.645-.074-.269-1.927-9.468-3.1-15.327" transform="translate(40.299 15.605)" fill="#ae7461"/>
        <path id="Trazado_720222" data-name="Trazado 720222" d="M251.562,111.295c.052-.058.28.12.73.221a2.488,2.488,0,0,0,1.829-.345c1.362-.851,2.112-3.457,1.651-5.989a8.214,8.214,0,0,0-1.414-3.342,2.869,2.869,0,0,0-2.224-1.484,1.267,1.267,0,0,0-1.3.969c-.106.43.042.691-.027.73-.031.043-.349-.172-.358-.772a1.589,1.589,0,0,1,.366-.991,1.874,1.874,0,0,1,1.27-.639,3.493,3.493,0,0,1,3,1.632A8.443,8.443,0,0,1,256.751,105c.5,2.835-.385,5.773-2.283,6.781a2.667,2.667,0,0,1-2.3.1c-.506-.255-.646-.552-.6-.587" transform="translate(40.867 16.257)" fill="#6f4439"/>
        <path id="Trazado_720223" data-name="Trazado 720223" d="M200.122,78.626c-.034.008-.062.027-.1.036-.081.026-.165.047-.245.076Z" transform="translate(32.598 12.829)" fill="#ff725e"/>
        <path id="Trazado_720224" data-name="Trazado 720224" d="M173.19,66.293c.389-3.816,3.143-7.117,6.534-8.911A22.621,22.621,0,0,1,190.9,55.219c-1.45-4.984,3.273-10.047,8.382-10.966s10.25,1.047,15.069,2.977c5.346-5.116,15.147-4.3,19.574,1.628A12.3,12.3,0,0,1,254.074,55.8a9.531,9.531,0,0,1,8.215,14.69,6.723,6.723,0,0,1-.59,12.8l-12.02-6.8c-5.319,2.168-12.162-1.221-13.66-6.766a11.977,11.977,0,0,1-13.11-.191,8.629,8.629,0,0,1-12.873,6.347A10.148,10.148,0,0,1,194.317,85.5,9.29,9.29,0,0,1,179,75.064c-3.745-.829-6.2-4.954-5.81-8.77" transform="translate(28.253 7.155)" fill="#263238"/>
        <path id="Trazado_720225" data-name="Trazado 720225" d="M228.237,69.293c-.047.023.072.441.511,1.1a6.945,6.945,0,0,0,2.523,2.214,7.1,7.1,0,0,0,5.056.625,7.667,7.667,0,0,0,4.978-3.992l-.813.148a8.8,8.8,0,0,0,3.286,1.961,9.115,9.115,0,0,0,7.609-.834,8.652,8.652,0,0,0,3.679-5.068,8.477,8.477,0,0,0,.1-4.206,3.035,3.035,0,0,0-.607-1.411c-.213.021.841,2.155-.191,5.405a8.143,8.143,0,0,1-3.477,4.464,8.331,8.331,0,0,1-6.784.663,7.95,7.95,0,0,1-2.906-1.71l-.513-.478-.3.626a6.884,6.884,0,0,1-4.287,3.57,6.618,6.618,0,0,1-4.536-.359,10.279,10.279,0,0,1-3.324-2.714" transform="translate(37.24 9.762)" fill="#455a64"/>
        <path id="Trazado_720226" data-name="Trazado 720226" d="M222.38,122.212c.008.18-1.715.19-3.4,1.309-1.708,1.082-2.418,2.65-2.58,2.569-.069-.027.007-.464.351-1.086a5.944,5.944,0,0,1,4.492-2.914c.707-.06,1.138.049,1.134.122" transform="translate(35.307 19.919)" fill="#263238"/>
        <path id="Trazado_720227" data-name="Trazado 720227" d="M215.251,202.4l-2.66,3.481c-1.884,1.07-3.517.249-4.417-2.125l-21.913-40.689,6.5-3.378,24.693,39.341s.221,1.991-2.2,3.37" transform="translate(30.392 26.056)" fill="#455a64"/>
        <path id="Trazado_720228" data-name="Trazado 720228" d="M165.49,167.28a28.236,28.236,0,1,1,25.612,3.3,28.087,28.087,0,0,1-25.612-3.3M196.42,122.3a26.334,26.334,0,1,0,9.856,12.741A26.338,26.338,0,0,0,196.42,122.3" transform="translate(25.002 18.889)" fill="#263238"/>
        <path id="Trazado_720229" data-name="Trazado 720229" d="M166.609,166.355a28.236,28.236,0,1,1,25.612,3.3,28.087,28.087,0,0,1-25.612-3.3m30.93-44.978a26.333,26.333,0,1,0,9.856,12.743,26.338,26.338,0,0,0-9.856-12.743" transform="translate(25.185 18.738)" fill="#455a64"/>
        <path id="Trazado_720230" data-name="Trazado 720230" d="M171.769,159.276c.027-.067,1.269.522,3.41,1.008l.842.177c.293.059.6.087.924.135.636.108,1.325.134,2.047.184a21.933,21.933,0,0,0,9.208-1.638c.661-.3,1.3-.557,1.859-.878.283-.155.565-.287.82-.444l.729-.456c1.842-1.195,2.806-2.176,2.854-2.123a5.959,5.959,0,0,1-.678.68,8.489,8.489,0,0,1-.855.734,13.436,13.436,0,0,1-1.2.886l-.727.479c-.255.163-.537.3-.821.464a19.9,19.9,0,0,1-1.87.914,21.231,21.231,0,0,1-9.326,1.659,20.185,20.185,0,0,1-2.072-.213c-.321-.055-.635-.088-.931-.154l-.848-.2a13.538,13.538,0,0,1-1.435-.418,8.229,8.229,0,0,1-1.055-.394,5.906,5.906,0,0,1-.871-.4" transform="translate(28.028 25.331)" fill="#fff"/>
        <path id="Trazado_720231" data-name="Trazado 720231" d="M255.443,205.335c-6.749-6.464-38.7-38.518-39.476-38.97-.981-.568-16.149-7.5-19.305-5.974S184.584,171.3,184.584,171.3s.214,6.344,7.621,2.466l6.625-3.471-.01.007,7.3,2.394s-9.425,3-11.524,4.831-5.808,9.208-4.065,11.135a7.392,7.392,0,0,0,3.933,2.269s-4.22,5,2.158,8.8c0,0,.58,4.568,3.711,6.61s9.305,1.958,9.305,1.958a2.893,2.893,0,0,0,1.12-4.4c-1.865-2.967-5.72-3.692-5.72-3.692l5.067-2.39a22.281,22.281,0,0,1,5.9,4.182s10.157,10.928,14.829,8.128L237.448,218c5.035-3.066,18-12.662,18-12.662" transform="translate(30.119 26.136)" fill="#ae7461"/>
        <path id="Trazado_720232" data-name="Trazado 720232" d="M207.288,184.755a2.465,2.465,0,0,0-.719-.021,11,11,0,0,0-1.944.276,12.624,12.624,0,0,0-9.2,8.4,10.911,10.911,0,0,0-.45,1.91,2.488,2.488,0,0,0-.045.718c.067.012.171-1.012.734-2.545a13.122,13.122,0,0,1,9.019-8.235c1.577-.422,2.607-.433,2.6-.5" transform="translate(31.806 30.142)" fill="#6f4439"/>
        <path id="Trazado_720233" data-name="Trazado 720233" d="M208.64,177.8a3.19,3.19,0,0,0-.769-.013,7.149,7.149,0,0,0-.9.067c-.35.045-.751.077-1.184.174a17.48,17.48,0,0,0-3,.841,18.456,18.456,0,0,0-6.4,4.1,17.505,17.505,0,0,0-2.023,2.373,11.643,11.643,0,0,0-.654,1,6.822,6.822,0,0,0-.44.789,3.165,3.165,0,0,0-.311.7c.063.034.55-.948,1.608-2.345a19.518,19.518,0,0,1,2.048-2.287,21.473,21.473,0,0,1,2.952-2.316,25.169,25.169,0,0,1,3.493-1.947,15.238,15.238,0,0,1,2.781-.662c1.711-.375,2.808-.406,2.8-.477" transform="translate(31.484 29.009)" fill="#6f4439"/>
        <path id="Trazado_720234" data-name="Trazado 720234" d="M209.193,169.944a2.084,2.084,0,0,0-.995-.316,5.6,5.6,0,0,0-2.508.226,4.708,4.708,0,0,0-2.162,1.293c-.461.458-.65.817-.617.84a7.12,7.12,0,0,1,6.281-2.043" transform="translate(33.109 27.669)" fill="#6f4439"/>
        <g id="Grupo_1018134" data-name="Grupo 1018134" transform="translate(194.336 148.431)" opacity="0.1">
          <g id="Grupo_1018133" data-name="Grupo 1018133">
            <g id="Grupo_1018132" data-name="Grupo 1018132" clip-path="url(#clip-path-7)">
              <path id="Trazado_720235" data-name="Trazado 720235" d="M200.111,130.173a4.327,4.327,0,0,0-2.608-2.516,3.21,3.21,0,0,0-3.222,1.733,9.508,9.508,0,0,0-.943,3.765,37.533,37.533,0,0,1-1.969,9.733,13.08,13.08,0,0,1-6.389,7.32c-2.447,1.11-5.223,1.16-7.907,1.281s-5.488.371-7.764,1.8l-.069.043a4.829,4.829,0,0,0,.72,8.443c8.006,3.569,18.121,2.357,24.8-3.409a23.786,23.786,0,0,0,5.351-28.193" transform="translate(-167.074 -127.609)"/>
            </g>
          </g>
        </g>
        <path id="Trazado_720236" data-name="Trazado 720236" d="M333.715,234.616l-33.047,2.774c-7.615-5.031-60.735-46.228-62.283-47.3l-13.824,15.846c28.985,35.137,49.291,60.8,73.7,78.828,12.062,8.909,31.7,4.1,36.788-12.159,2.487-7.953-1.332-37.987-1.332-37.987" transform="translate(36.642 31.017)" fill="#ae7461"/>
        <g id="Grupo_1018137" data-name="Grupo 1018137" transform="translate(203.397 450.189)" opacity="0.3">
          <g id="Grupo_1018136" data-name="Grupo 1018136">
            <g id="Grupo_1018135" data-name="Grupo 1018135" clip-path="url(#clip-path-8)">
              <path id="Trazado_720237" data-name="Trazado 720237" d="M174.864,399.822s11.878,1.657,12.724,1.916c.283.086,32.2.086,32.2.086l-.84-14.787-36.29.806Z" transform="translate(-174.864 -387.036)"/>
            </g>
          </g>
        </g>
        <g id="Grupo_1018140" data-name="Grupo 1018140" transform="translate(204.237 437.123)" opacity="0.3">
          <g id="Grupo_1018139" data-name="Grupo 1018139">
            <g id="Grupo_1018138" data-name="Grupo 1018138" clip-path="url(#clip-path-9)">
              <path id="Trazado_720238" data-name="Trazado 720238" d="M175.586,388.021s12.054,2.492,12.724,1.916,30.52-1.068,30.52-1.068L217.992,377l-36.335-1.2Z" transform="translate(-175.586 -375.803)"/>
            </g>
          </g>
        </g>
        <g id="Grupo_1018143" data-name="Grupo 1018143" transform="translate(204.237 412.038)" opacity="0.3">
          <g id="Grupo_1018142" data-name="Grupo 1018142">
            <g id="Grupo_1018141" data-name="Grupo 1018141" clip-path="url(#clip-path-10)">
              <path id="Trazado_720239" data-name="Trazado 720239" d="M175.586,378.583s11.062,1.454,11.731.878,30.675,1.058,30.675,1.058l-1.623-26.283-34.923,9.446Z" transform="translate(-175.586 -354.236)"/>
            </g>
          </g>
        </g>
        <path id="Trazado_720240" data-name="Trazado 720240" d="M78.689,196.125s79.838,123.635,74.238,207.741l47.626,29.143H235.48c-1.906-21.849-1.646-57.59-12.3-107.728-27.424-129.01-76.153-129.371-76.153-129.371Z" transform="translate(12.84 31.967)" fill="#e0e0e0"/>
        <path id="Trazado_720241" data-name="Trazado 720241" d="M227.022,365.154,147.266,378.79c.667,2.55-.606,5.743-2.362,7.494s-4.22,2.573-6.618,3.2a67.008,67.008,0,0,1-14.4,2.145,34.125,34.125,0,0,0-7.623.725A8.623,8.623,0,0,0,110.4,396.9c-1,2.354-.141,8.409,5.936,8.409h80.993c-6.078,0-6.936-6.054-5.936-8.409a8.621,8.621,0,0,1,5.86-4.542,34.138,34.138,0,0,1,7.623-.725,67,67,0,0,0,14.4-2.145c2.4-.63,4.862-1.452,6.618-3.2s1.5-18.186,1.127-21.13" transform="translate(17.957 59.583)" fill="#e0e0e0"/>
        <path id="Trazado_720242" data-name="Trazado 720242" d="M226.777,355.015l-78.416,11.633c.666,2.55-.606,5.743-2.362,7.493s-4.219,2.574-6.618,3.2a67.081,67.081,0,0,1-14.4,2.145,34.139,34.139,0,0,0-7.623.725,8.623,8.623,0,0,0-5.861,4.542c-1,2.354-.141,8.409,5.936,8.409h80.993c-6.078,0-6.936-6.054-5.937-8.409a8.625,8.625,0,0,1,5.861-4.542,34.139,34.139,0,0,1,7.623-.725,67.069,67.069,0,0,0,14.4-2.145c2.4-.63,4.862-1.452,6.618-3.2s.162-16.182-.213-19.126" transform="translate(18.136 57.928)" fill="#e0e0e0"/>
        <path id="Trazado_720243" data-name="Trazado 720243" d="M226.631,352.56l-79.364,2.619c.667,2.4-.606,5.411-2.364,7.062s-4.219,2.425-6.618,3.018a70.826,70.826,0,0,1-14.4,2.02,36.223,36.223,0,0,0-7.623.684c-2.469.629-4.86,2.06-5.86,4.279a5.892,5.892,0,0,0,5.936,7.922l80.744-.9c-6.078,0-6.688-4.8-5.688-7.019s3.391-3.65,5.861-4.279a36.212,36.212,0,0,1,7.622-.684,70.814,70.814,0,0,0,14.4-2.02c2.4-.593,4.862-1.368,6.62-3.018s1.11-6.907.735-9.681" transform="translate(17.957 57.528)" fill="#e0e0e0"/>
        <path id="Trazado_720244" data-name="Trazado 720244" d="M105.593,253.906s-9.338-20.214-11.154-25.8,2.853-8.7,7.263-12.071,20.492-4.669,21.27-1.816.519,7-1.816,7.263-11.154-.24-16.341,6.624c0,0,21.529-4.789,26.718,0s-4.41,6.6-4.41,6.6,2.853,4.67.258,5.967-16.86,4.15-16.86,4.15l-.259,2.075s7-.519,11.672.778,6.745,6.225,6.745,6.225c-1.038,3.891-2.853,3.891-5.448,2.075a11.474,11.474,0,0,0-4.41-2.075s-4.15,5.188-7,5.447-6.225-5.447-6.225-5.447" transform="translate(15.344 34.698)" fill="#ae7461"/>
        <g id="Grupo_1018146" data-name="Grupo 1018146" transform="translate(128.898 227.868)" opacity="0.3">
          <g id="Grupo_1018145" data-name="Grupo 1018145">
            <g id="Grupo_1018144" data-name="Grupo 1018144" clip-path="url(#clip-path-11)">
              <path id="Trazado_720245" data-name="Trazado 720245" d="M137.88,195.9s-16.474,18.162-13.61,46.523,2.814,59.857,2.814,59.857l-9.567-23.119-6.7-66.569,13.533-14.844Z" transform="translate(-110.816 -195.902)"/>
            </g>
          </g>
        </g>
        <path id="Trazado_720246" data-name="Trazado 720246" d="M151.369,195.9l-67.936.012s-28.052.577-28.052,55.88c0,71.626,16.447,96.085-27.232,136.975l70.494,8.852s33.352-3.206,33.317-62.879c-.015-27.232-1.26-75.565-2.75-98.854-1.085-16.971,11.433-38.828,22.16-39.985" transform="translate(4.593 31.966)" fill="#fff"/>
        <path id="Trazado_720247" data-name="Trazado 720247" d="M151.461,195.928l-1.085.218a13.182,13.182,0,0,0-3.011,1.21c-2.519,1.366-5.767,4.251-8.883,8.776a54.459,54.459,0,0,0-7.971,18.319c-2.1,7.694-.444,16.774-.219,26.765.878,20.02,1.606,44.074,1.941,71.173.04,6.772.228,13.742-.169,20.889a100.712,100.712,0,0,1-3.4,21.673,56.667,56.667,0,0,1-10.052,20.5,38.557,38.557,0,0,1-8.713,7.971,28.614,28.614,0,0,1-11.139,4.517l-.027,0-.038,0-63.756-8L28.2,389.1l-.632-.079.462-.442c3.527-3.378,6.988-6.787,10.143-10.43a101.221,101.221,0,0,0,8.67-11.4,68.209,68.209,0,0,0,10.036-25.91c1.528-9.059,1.481-18.142,1.119-26.966s-1.045-17.473-1.551-25.907c-.525-8.433-.914-16.664-1.1-24.664q-.141-6-.127-11.822.1-2.912.191-5.776c.067-1.91.08-3.807.334-5.673q.295-2.8.584-5.559a25.413,25.413,0,0,1,.432-2.723q.253-1.349.5-2.687t.5-2.661c.187-.878.472-1.73.7-2.59s.484-1.709.723-2.558a18.245,18.245,0,0,1,.812-2.5c2.271-6.587,5.775-12.569,10.579-16.856a24.351,24.351,0,0,1,7.919-4.949,18.422,18.422,0,0,1,4.377-1.133c1.51-.119,2.946-.03,4.392-.055l16.252.031,25.967.1,21.969.051-22.174.059-25.884.1-16.148.037c-5.73-.657-11.767,1.777-16.387,6.074-4.724,4.232-8.185,10.152-10.427,16.694a18.311,18.311,0,0,0-.8,2.485q-.354,1.265-.713,2.543c-.227.854-.508,1.7-.693,2.573q-.244,1.319-.492,2.649t-.5,2.673a25.07,25.07,0,0,0-.425,2.71q-.284,2.743-.573,5.536c-.25,1.856-.261,3.748-.325,5.651s-.121,3.822-.183,5.757q0,5.812.141,11.809c.193,7.992.591,16.215,1.122,24.643.514,8.431,1.2,17.065,1.573,25.918.368,8.838.423,17.958-1.111,27.088a68.773,68.773,0,0,1-10.113,26.135,101.71,101.71,0,0,1-8.721,11.478c-3.171,3.663-6.645,7.085-10.184,10.474l-.169-.522,6.739.847,63.753,8.013h-.065a28.136,28.136,0,0,0,10.876-4.418,37.989,37.989,0,0,0,8.584-7.846,56.105,56.105,0,0,0,9.963-20.29,100.257,100.257,0,0,0,3.4-21.552c.4-7.11.223-14.081.193-20.853-.3-27.091-.983-51.145-1.808-71.162-.224-5-.44-9.756-.717-14.237a41.342,41.342,0,0,1,1.025-12.61,54.4,54.4,0,0,1,8.093-18.37c3.155-4.527,6.446-7.406,9-8.751a12.721,12.721,0,0,1,3.049-1.17c.355-.074.622-.093.81-.123l.288-.042" transform="translate(4.499 31.939)" fill="#263238"/>
        <g id="Grupo_1018149" data-name="Grupo 1018149" transform="translate(83.131 414.199)" opacity="0.3">
          <g id="Grupo_1018148" data-name="Grupo 1018148">
            <g id="Grupo_1018147" data-name="Grupo 1018147" clip-path="url(#clip-path-12)">
              <path id="Trazado_720248" data-name="Trazado 720248" d="M71.47,356.1H82.88s.622,15.153,12.827,14.126a9.737,9.737,0,0,1-6.069,1.262c-3.485-.439-14.362,2.234-18.168-15.388" transform="translate(-71.47 -356.095)"/>
            </g>
          </g>
        </g>
        <path id="Trazado_720249" data-name="Trazado 720249" d="M.056,349.522s-1.8,21.715,25.237,23.014,76.07,0,76.07,0-17.028-3.071-17.028-21.59Z" transform="translate(0.005 57.032)" fill="#e0e0e0"/>
        <path id="Trazado_720250" data-name="Trazado 720250" d="M.062,349.524a2.813,2.813,0,0,1,.394-.013l1.2,0,4.671.04,17.537.215,60.484.888.287,0v.289a20.867,20.867,0,0,0,16.789,21.291l2.312.541-2.358.06-.149,0c-15.787.38-30.828.565-44.509.548-6.841-.016-13.342-.069-19.425-.213a168.475,168.475,0,0,1-16.915-.934,27.155,27.155,0,0,1-12.831-5.353,19.847,19.847,0,0,1-6.114-8.528,22.17,22.17,0,0,1-1.395-6.516,16.274,16.274,0,0,1-.029-1.734,3.076,3.076,0,0,1,.05-.59c.007.014.006.2.012.59s.024.97.09,1.726a22.912,22.912,0,0,0,1.492,6.44,19.706,19.706,0,0,0,6.108,8.348,26.9,26.9,0,0,0,12.686,5.195c5.1.675,10.787.684,16.858.855,6.078.122,12.576.155,19.413.156,13.675-.013,28.713-.214,44.492-.594l.149,0-.045.6a23.593,23.593,0,0,1-7.229-2.971,20.625,20.625,0,0,1-5.694-5.1,22.611,22.611,0,0,1-4.344-13.813l.287.292-60.287-1.153-17.6-.38-4.729-.117-1.231-.04a4.3,4.3,0,0,1-.429-.027" transform="translate(0 57.03)" fill="#263238"/>
        <path id="Trazado_720251" data-name="Trazado 720251" d="M106.861,279.313c0,.314-6.128.569-13.685.569s-13.687-.255-13.687-.569,6.126-.569,13.687-.569,13.685.255,13.685.569" transform="translate(12.97 45.483)" fill="#263238"/>
        <path id="Trazado_720252" data-name="Trazado 720252" d="M62.333,279.388c0-.314,1.71-.569,3.819-.569s3.819.255,3.819.569-1.71.569-3.819.569-3.819-.255-3.819-.569" transform="translate(10.171 45.495)" fill="#263238"/>
        <path id="Trazado_720253" data-name="Trazado 720253" d="M108.315,270.726c0,.314-6.128.569-13.685.569s-13.687-.255-13.687-.569,6.126-.569,13.687-.569,13.685.255,13.685.569" transform="translate(13.208 44.082)" fill="#263238"/>
        <path id="Trazado_720254" data-name="Trazado 720254" d="M62.333,271.215c0-.314,1.71-.569,3.819-.569s3.819.255,3.819.569-1.71.569-3.819.569-3.819-.255-3.819-.569" transform="translate(10.171 44.162)" fill="#263238"/>
        <path id="Trazado_720255" data-name="Trazado 720255" d="M108.048,263.458c0,.314-6.128.569-13.685.569s-13.687-.255-13.687-.569,6.126-.569,13.687-.569,13.685.255,13.685.569" transform="translate(13.164 42.896)" fill="#263238"/>
        <path id="Trazado_720256" data-name="Trazado 720256" d="M62.333,263.533c0-.314,1.71-.569,3.819-.569s3.819.255,3.819.569-1.71.569-3.819.569-3.819-.255-3.819-.569" transform="translate(10.171 42.908)" fill="#263238"/>
        <path id="Trazado_720257" data-name="Trazado 720257" d="M107.127,254.925c0,.314-6.128.569-13.685.569s-13.686-.255-13.686-.569,6.126-.569,13.686-.569,13.685.255,13.685.569" transform="translate(13.014 41.504)" fill="#263238"/>
        <path id="Trazado_720258" data-name="Trazado 720258" d="M61.146,255.414c0-.314,1.71-.569,3.819-.569s3.819.255,3.819.569-1.71.569-3.819.569-3.819-.255-3.819-.569" transform="translate(9.977 41.583)" fill="#263238"/>
        <path id="Trazado_720259" data-name="Trazado 720259" d="M106.86,247.657c0,.314-6.128.569-13.685.569s-13.687-.255-13.687-.569,6.126-.569,13.687-.569,13.685.255,13.685.569" transform="translate(12.97 40.318)" fill="#263238"/>
        <path id="Trazado_720260" data-name="Trazado 720260" d="M61.146,247.732c0-.314,1.71-.569,3.819-.569s3.819.255,3.819.569-1.71.569-3.819.569-3.819-.255-3.819-.569" transform="translate(9.977 40.33)" fill="#263238"/>
        <path id="Trazado_720261" data-name="Trazado 720261" d="M106.026,239.124c0,.314-6.128.569-13.685.569s-13.687-.255-13.687-.569,6.126-.569,13.687-.569,13.685.255,13.685.569" transform="translate(12.834 38.925)" fill="#263238"/>
        <path id="Trazado_720262" data-name="Trazado 720262" d="M60.044,239.613c0-.314,1.71-.569,3.819-.569s3.819.255,3.819.569-1.71.569-3.819.569-3.819-.255-3.819-.569" transform="translate(9.797 39.005)" fill="#263238"/>
        <path id="Trazado_720263" data-name="Trazado 720263" d="M105.759,231.856c0,.314-6.129.569-13.686.569s-13.687-.255-13.687-.569,6.128-.569,13.687-.569,13.686.255,13.686.569" transform="translate(12.79 37.739)" fill="#263238"/>
        <path id="Trazado_720264" data-name="Trazado 720264" d="M107.211,224.409c0,.314-6.128.569-13.685.569s-13.687-.255-13.687-.569,6.126-.569,13.687-.569,13.685.255,13.685.569" transform="translate(13.027 36.524)" fill="#263238"/>
        <path id="Trazado_720265" data-name="Trazado 720265" d="M60.044,231.931c0-.314,1.71-.569,3.819-.569s3.819.255,3.819.569-1.71.569-3.819.569-3.819-.255-3.819-.569" transform="translate(9.797 37.752)" fill="#263238"/>
        <path id="Trazado_720266" data-name="Trazado 720266" d="M61.146,223.932c0-.314,1.71-.569,3.819-.569s3.819.255,3.819.569-1.71.569-3.819.569-3.819-.255-3.819-.569" transform="translate(9.977 36.446)" fill="#263238"/>
        <path id="Trazado_720267" data-name="Trazado 720267" d="M108.731,217.126c0,.314-6.128.569-13.685.569s-13.687-.255-13.687-.569,6.126-.569,13.687-.569,13.685.255,13.685.569" transform="translate(13.275 35.336)" fill="#263238"/>
        <path id="Trazado_720268" data-name="Trazado 720268" d="M62.666,216.649c0-.314,1.71-.569,3.819-.569s3.819.255,3.819.569-1.71.569-3.819.569-3.819-.255-3.819-.569" transform="translate(10.225 35.258)" fill="#263238"/>
        <path id="Trazado_720269" data-name="Trazado 720269" d="M110.251,209.843c0,.314-6.128.569-13.685.569s-13.687-.255-13.687-.569,6.126-.569,13.687-.569,13.685.255,13.685.569" transform="translate(13.523 34.147)" fill="#263238"/>
        <path id="Trazado_720270" data-name="Trazado 720270" d="M64.186,209.366c0-.314,1.71-.569,3.819-.569s3.819.255,3.819.569-1.71.569-3.819.569-3.819-.255-3.819-.569" transform="translate(10.473 34.07)" fill="#263238"/>
        <path id="Trazado_720271" data-name="Trazado 720271" d="M115.753,203.288c0,.314-6.128.569-13.685.569s-13.687-.255-13.687-.569,6.126-.569,13.687-.569,13.685.255,13.685.569" transform="translate(14.421 33.078)" fill="#263238"/>
        <path id="Trazado_720272" data-name="Trazado 720272" d="M69.688,202.81c0-.313,1.71-.568,3.819-.568s3.819.255,3.819.568-1.71.57-3.819.57-3.819-.255-3.819-.57" transform="translate(11.371 33)" fill="#263238"/>
        <path id="Trazado_720273" data-name="Trazado 720273" d="M106.861,288.691c0,.314-6.128.569-13.685.569s-13.687-.255-13.687-.569,6.126-.569,13.687-.569,13.685.255,13.685.569" transform="translate(12.97 47.013)" fill="#263238"/>
        <path id="Trazado_720274" data-name="Trazado 720274" d="M62.333,288.766c0-.314,1.71-.569,3.819-.569s3.819.255,3.819.569-1.71.569-3.819.569-3.819-.255-3.819-.569" transform="translate(10.171 47.025)" fill="#263238"/>
        <path id="Trazado_720275" data-name="Trazado 720275" d="M108.048,297.887c0,.314-6.128.57-13.685.57s-13.687-.256-13.687-.57,6.126-.569,13.687-.569,13.685.255,13.685.569" transform="translate(13.164 48.514)" fill="#263238"/>
        <path id="Trazado_720276" data-name="Trazado 720276" d="M63.521,297.962c0-.314,1.71-.569,3.819-.569s3.819.255,3.819.569-1.71.569-3.819.569-3.819-.255-3.819-.569" transform="translate(10.365 48.526)" fill="#263238"/>
        <path id="Trazado_720277" data-name="Trazado 720277" d="M108.422,305.829c0,.314-6.128.569-13.685.569s-13.687-.255-13.687-.569,6.126-.569,13.687-.569,13.685.255,13.685.569" transform="translate(13.225 49.81)" fill="#263238"/>
        <path id="Trazado_720278" data-name="Trazado 720278" d="M63.894,305.9c0-.314,1.71-.569,3.819-.569s3.819.255,3.819.569-1.71.569-3.819.569-3.819-.255-3.819-.569" transform="translate(10.426 49.822)" fill="#263238"/>
        <path id="Trazado_720279" data-name="Trazado 720279" d="M108.795,313.771c0,.314-6.128.569-13.685.569s-13.687-.255-13.687-.569,6.126-.569,13.687-.569,13.685.255,13.685.569" transform="translate(13.286 51.106)" fill="#263238"/>
        <path id="Trazado_720280" data-name="Trazado 720280" d="M64.268,313.846c0-.314,1.71-.569,3.819-.569s3.818.255,3.818.569-1.709.569-3.818.569-3.819-.255-3.819-.569" transform="translate(10.487 51.118)" fill="#263238"/>
        <path id="Trazado_720281" data-name="Trazado 720281" d="M109.169,321.713c0,.314-6.128.569-13.685.569s-13.687-.255-13.687-.569,6.126-.569,13.687-.569,13.685.255,13.685.569" transform="translate(13.347 52.401)" fill="#263238"/>
        <path id="Trazado_720282" data-name="Trazado 720282" d="M64.642,321.788c0-.314,1.71-.569,3.819-.569s3.819.255,3.819.569-1.71.569-3.819.569-3.819-.255-3.819-.569" transform="translate(10.548 52.414)" fill="#263238"/>
        <path id="Trazado_720283" data-name="Trazado 720283" d="M109.3,329.435c0,.314-6.128.569-13.685.569s-13.687-.255-13.687-.569,6.126-.569,13.687-.569,13.685.255,13.685.569" transform="translate(13.369 53.661)" fill="#263238"/>
        <path id="Trazado_720284" data-name="Trazado 720284" d="M64.778,329.51c0-.314,1.71-.569,3.819-.569s3.819.255,3.819.569-1.71.569-3.819.569-3.819-.255-3.819-.569" transform="translate(10.57 53.674)" fill="#263238"/>
        <path id="Trazado_720285" data-name="Trazado 720285" d="M108.048,337.12c0,.314-6.128.569-13.685.569s-13.687-.255-13.687-.569,6.126-.569,13.687-.569,13.685.255,13.685.569" transform="translate(13.164 54.915)" fill="#263238"/>
        <path id="Trazado_720286" data-name="Trazado 720286" d="M63.521,337.195c0-.314,1.71-.569,3.819-.569s3.819.255,3.819.569-1.71.569-3.819.569-3.819-.255-3.819-.569" transform="translate(10.365 54.928)" fill="#263238"/>
        <path id="Trazado_720287" data-name="Trazado 720287" d="M105.029,345.28c0,.314-6.128.569-13.685.569s-13.687-.255-13.687-.569,6.126-.569,13.687-.569,13.685.255,13.685.569" transform="translate(12.671 56.247)" fill="#263238"/>
        <path id="Trazado_720288" data-name="Trazado 720288" d="M60.5,345.355c0-.314,1.71-.569,3.819-.569s3.819.255,3.819.569-1.71.569-3.819.569-3.819-.255-3.819-.569" transform="translate(9.872 56.259)" fill="#263238"/>
        <path id="Trazado_720289" data-name="Trazado 720289" d="M102.755,352.711c0,.314-6.128.569-13.685.569s-13.687-.255-13.687-.569,6.126-.569,13.687-.569,13.685.255,13.685.569" transform="translate(12.3 57.459)" fill="#263238"/>
        <path id="Trazado_720290" data-name="Trazado 720290" d="M227.458,377.089a1.006,1.006,0,0,1-.285.014l-.834-.021-3.2-.138c-2.778-.142-6.8-.316-11.767-.5-9.937-.377-23.673-.641-38.846-.57s-28.918.343-38.864.479l-11.779.137-3.2,0-.833-.014a.98.98,0,0,1-.285-.026,1.038,1.038,0,0,1,.284-.036l.832-.046,3.2-.118,11.776-.329c9.944-.247,23.683-.586,38.87-.657s28.928.262,38.866.749c4.969.24,8.989.479,11.763.694l3.194.251.829.081a.977.977,0,0,1,.282.048" transform="translate(19.183 61.231)" fill="#263238"/>
        <path id="Trazado_720291" data-name="Trazado 720291" d="M223.091,387.565c0,.167-22.391.375-50.006.463s-50.012.024-50.013-.143,22.386-.373,50.011-.463,50.008-.024,50.008.143" transform="translate(20.082 63.209)" fill="#263238"/>
        <path id="Trazado_720292" data-name="Trazado 720292" d="M210.649,356.1a4.609,4.609,0,0,1,.839.215l2.366.729,1.706.541a2.941,2.941,0,0,1,1.883,1.133,1.089,1.089,0,0,1-.3,1.272,2.954,2.954,0,0,1-1.191.607l-2.683.625a113.038,113.038,0,0,1-13.38,1.98c-5.071.466-10.665.7-16.532.814l-30.045.4-9.105.049-2.476-.017a4.652,4.652,0,0,1-.864-.047,4.566,4.566,0,0,1,.862-.074l2.474-.1,9.1-.242,30.039-.579c5.861-.113,11.441-.329,16.5-.764a120.515,120.515,0,0,0,13.342-1.842l2.667-.577a2.632,2.632,0,0,0,1.049-.5.737.737,0,0,0,.231-.868c-.3-.587-1.072-.783-1.666-1l-1.689-.591-2.331-.836a4.584,4.584,0,0,1-.8-.332" transform="translate(22.986 58.104)" fill="#263238"/>
      </g>
    </g>
  </g>
</svg>
