<svg id="Grupo_1018173" data-name="Grupo 1018173" xmlns="http://www.w3.org/2000/svg" xmlns:xlink="http://www.w3.org/1999/xlink" width="208.782" height="214.805" viewBox="0 0 208.782 214.805">
  <defs>
    <clipPath id="clip-path">
      <rect id="Rectángulo_350826" data-name="Rectángulo 350826" width="208.783" height="214.805" fill="none"/>
    </clipPath>
  </defs>
  <g id="Grupo_1018172" data-name="Grupo 1018172" clip-path="url(#clip-path)">
    <path id="Trazado_720414" data-name="Trazado 720414" d="M123.022,177.56c4.095.755,3.391,4.016,3.121,6.634-.392,3.808.857,4.915,4.7,4.751,7.674-.327,15.372-.151,23.06-.081,8.119.074,12.588,4.65,12.677,12.821.14,12.8.735,13.174-13.077,13.118-34.386-.14-68.773-.045-103.159-.048-6.871,0-7.8-1.26-8.224-7.923-.979-15.369,5.335-18.751,18.091-18.042,6.131.341,12.3-.094,18.446.125,2.948.1,4.121-.4,3.992-3.77-.3-7.956-.256-15.937-.017-23.9.091-3.061-.907-3.6-3.735-3.584-22.364.119-44.73.071-67.095.063-8.637,0-11.8-3.189-11.8-11.945q-.016-54.515,0-109.029c0-7.741,2.214-9.929,9.955-9.93,14.817,0,29.635-.11,44.449.085,3.222.042,3.991-.868,3.847-3.948C58,17.38,58.134,11.78,58.2,6.19,58.256,1.9,60.044.038,64.319.031q40.047-.062,80.095,0c4.3.006,6.1,1.843,6.161,6.114.073,5.45.229,10.914-.058,16.35-.178,3.36.571,4.485,4.225,4.426,14.953-.238,29.912-.108,44.868-.095,6.634.006,9.148,2.436,9.152,9.044q.039,55.353,0,110.706c-.006,7.811-3.449,11.143-11.328,11.148-22.226.014-44.452.126-66.675-.1-4.016-.042-4.945,1.222-4.6,4.844.274,2.837.805,6.1-3.271,7.059-4.045-1.639-3.013-5.224-2.969-8.26.038-2.6-.587-3.718-3.457-3.6-5.964.254-11.943.166-17.916.218-1.948-.051-3.915.046-5.842-.187-3.034-.367-4.206.583-4.062,3.85.264,5.983.075,11.985.075,17.98,0,9.754,0,9.754,9.817,9.118,5.439.064,10.9-.119,16.313.274,3.995.29,5.579-.844,5.081-5-.306-2.558-.557-5.526,3.09-6.365M68.315,195.447q-7.086-.1-14.174-.194c-2.455-.037-4.436.837-5.284,3.246-1.09,3.092-.715,6.3-.233,9.457.047.311,1.192.661,1.819.646,5.68-.14,11.378.5,17.044-.33q43.536.059,87.072.1c6.483,0,5.85,1.076,5.842-6.142-.005-4.865-1.623-6.885-5.852-6.888q-43.117-.026-86.234.1m-40.932-44.2c1.251.081,2.5.233,3.751.233q82.392.018,164.785.009c.838,0,1.677-.008,2.515-.031,2.688-.075,4.169-1.323,4.079-4.153a23.718,23.718,0,0,1,.029-4.188c.488-3.317-.817-4.173-4.1-4.15-21.383.148-42.767.076-64.152.076q-34.592,0-69.184.021c-2.648,0-5.11-.063-6.044-3.181.727-3.657,3.583-3.275,6.229-3.275q66.664,0,133.33-.008c1.95,0,4,.754,3.98-2.846-.146-31.165-.1-62.332-.044-93.5,0-2.273-.54-3.251-3-3.239q-23.06.12-46.12,0c-2.141-.01-3.025.562-2.875,2.821.175,2.643-.036,5.311.06,7.963.092,2.5-.833,4.031-3.449,4.273-2.686-.638-2.771-2.7-2.765-4.9.027-10.894-.1-21.789.078-32.68.051-3.154-.589-4.425-4.08-4.274-6.83.3-13.683.062-20.527.092q-22.821.1-45.641.24a47.281,47.281,0,0,1-4.974-.316c-4.07-.672-5.042.931-5.018,4.97.182,31.835.1,63.673.1,95.51,0,9.545,0,9.545,9.862,8.956,21.892.046,43.785.012,65.675.221,3.522.034,4.7-.6,4.643-4.462-.256-16.591-.084-33.189-.138-49.785-.008-2.387.186-4.478,2.789-5.434,3.009.521,3.471,2.555,3.46,5.23-.072,17.872-.026,35.745-.045,53.618-.005,5.5-1.663,7.162-7.3,7.168q-38.957.039-77.914,0c-5.565-.007-7.175-1.693-7.18-7.29q-.024-23.876-.006-47.753c0-10.333-.018-20.665.016-31,.006-1.79.126-3.236-2.489-3.179-9.48.206-18.965.222-28.449.309-6.134-.094-12.269-.159-18.4-.3-1.984-.045-2.64.77-2.637,2.747q.068,47.157-.009,94.316c0,2.021.583,2.633,2.589,2.575,5.86-.168,11.725-.152,17.589-.208,6.528.052,13.057.154,19.586.132,2.446-.008,4.45.388,4.991,3.209-.5,2.849-2.536,3.272-4.973,3.268-6.258-.011-12.515.063-18.773.1-4.26-.823-8.563-.311-12.843-.356-8.849-.092-8.785-.032-8.208,8.719.17,2.569,1.361,4.016,3.778,4.021,5.811.013,11.636.528,17.433-.3" transform="translate(0 0)" fill="#040404"/>
    <path id="Trazado_720415" data-name="Trazado 720415" d="M117.4,188.044c5.973-.052,11.952.036,17.916-.218,2.87-.123,3.495.995,3.457,3.6-.044,3.036-1.076,6.621,2.969,8.26l.131,8.038c-3.647.838-3.4,3.806-3.09,6.364.5,4.151-1.086,5.286-5.081,5-5.416-.393-10.874-.209-16.313-.273q.006-15.382.012-30.762" transform="translate(-18.849 -30.158)" fill="#8e808e"/>
    <path id="Trazado_720416" data-name="Trazado 720416" d="M56,142.106c-.541-2.821-2.545-3.218-4.991-3.209-6.529.022-13.057-.079-19.586-.132l-.01-10c2.491-.077,4.987-.081,7.471-.254,2.03-.141,3.526-1.147,3.388-3.385-.121-1.94-1.465-2.919-3.362-3-2.492-.1-4.989-.118-7.484-.17l.01-5.312q7.906-.033,15.812-.067c2.2-.011,4.415-.224,4.38-3.135-.034-2.832-2.128-3.135-4.4-3.137-5.267,0-10.536-.08-15.8-.127q0-2.648,0-5.3c5.267-.069,10.536-.156,15.8-.2,2.216-.017,4.42-.158,4.407-3.082C51.623,98.74,49.5,98.5,47.241,98.5c-5.271-.006-10.541-.095-15.811-.15v-5.34c5.269-.057,10.539-.149,15.809-.155,2.259,0,4.389-.226,4.4-3.1.009-2.911-2.176-3.075-4.4-3.087-5.268-.031-10.536-.12-15.8-.186q0-7.678,0-15.356c5.27-.05,10.539-.134,15.809-.136,2.268,0,4.373-.272,4.394-3.125.022-2.925-2.193-3.084-4.4-3.1-5.27-.039-10.54-.1-15.809-.154q0-2.643,0-5.287c2.355-.046,4.712-.125,7.067-.128,2.088,0,3.64-.856,3.769-3,.151-2.491-1.624-3.292-3.808-3.387-2.349-.1-4.7-.172-7.049-.257a60,60,0,0,1,.886-12.91c9.484-.087,18.969-.1,28.449-.309,2.615-.057,2.495,1.389,2.489,3.179-.034,10.333-.016,20.665-.016,31q0,23.877.006,47.753c.005,5.6,1.615,7.284,7.18,7.29q38.957.045,77.914,0c5.642-.005,7.3-1.665,7.3-7.168.018-17.872-.028-35.745.045-53.618.011-2.675-.451-4.709-3.46-5.23q0-4.072-.007-8.143c2.617-.242,3.541-1.774,3.449-4.273-.1-2.652.115-5.319-.06-7.963-.15-2.259.734-2.831,2.875-2.82q23.06.11,46.12,0c2.465-.013,3.008.965,3,3.239-.06,31.165-.1,62.332.044,93.5.017,3.6-2.03,2.845-3.98,2.846q-66.665.015-133.331.009c-2.645,0-5.5-.382-6.228,3.275L56,142.106M181.9,52.785c-13.583,0-13.583,0-13.583,13.585,0,12.915,0,12.8,12.992,12.946,13.529.149,13.76.127,13.6-13.614-.147-12.915-.032-12.917-13.014-12.917m-.537,59.258c2.373,0,4.747.039,7.119-.009,4.289-.086,6.239-1.838,6.351-6,.127-4.743.118-9.493,0-14.236-.1-4.225-1.938-5.924-6.286-6.06-2.371-.074-4.745-.018-7.118-.018-13.093,0-12.977,0-13.126,13.128-.154,13.5.322,13.478,13.058,13.2m.023,16.5c3.209,0,6.418.029,9.627-.01,2.054-.025,3.7-.947,3.732-3.106.032-2.376-1.637-3.33-3.916-3.325q-9.208.019-18.416,0c-2.281-.008-3.985.931-3.932,3.3.053,2.4,1.91,3.168,4.116,3.16,2.93-.011,5.86,0,8.79-.012" transform="translate(-5.032 -6.314)" fill="#e7f3fc"/>
    <path id="Trazado_720417" data-name="Trazado 720417" d="M161.36,49.262l.008,8.142c-2.6.956-2.8,3.046-2.79,5.434.054,16.6-.118,33.193.138,49.786.06,3.861-1.121,4.5-4.642,4.462-21.891-.209-43.784-.175-65.676-.221q.015-54.56.029-109.121,22.819-.122,45.64-.24c6.844-.029,13.7.2,20.527-.092,3.49-.151,4.131,1.121,4.08,4.274-.175,10.891-.052,21.787-.079,32.68-.005,2.2.079,4.259,2.765,4.9M118.416,79.151A24.176,24.176,0,1,0,94.4,55.021a24.431,24.431,0,0,0,24.018,24.13m.1,15.973c6.548,0,13.1-.039,19.642.02,2.339.022,4.439-.51,4.506-3.143.068-2.665-2.043-3.318-4.367-3.317q-19.641.01-39.283,0c-2.292,0-4.494.525-4.5,3.185,0,2.939,2.334,3.3,4.777,3.277,6.407-.056,12.816-.019,19.223-.019m-.243,11.783c6.7,0,13.4-.044,20.093.026,2.216.023,4.122-.539,4.259-2.931.158-2.747-1.933-3.35-4.263-3.349q-19.675.011-39.35-.006c-2.291,0-4.5.442-4.482,3.157.021,2.663,2.133,3.156,4.486,3.129,6.417-.074,12.837-.025,19.256-.026M118.6,16.69c-2.781,0-5.564-.044-8.344.015-2.022.043-3.605.813-3.584,3.145.02,2.261,1.458,3.165,3.553,3.171q8.343.025,16.688,0c2.093,0,3.543-.881,3.584-3.142.041-2.327-1.524-3.128-3.553-3.174-2.78-.062-5.563-.015-8.344-.018" transform="translate(-14.194 -1.188)" fill="#fbfbfb"/>
    <path id="Trazado_720418" data-name="Trazado 720418" d="M56.176,161.768l8.091.091c.934,3.118,3.4,3.186,6.044,3.181q34.591-.054,69.184-.021c21.384,0,42.769.072,64.152-.076,3.285-.023,4.589.834,4.1,4.15a23.879,23.879,0,0,0-.029,4.188c.091,2.83-1.391,4.078-4.079,4.153-.838.024-1.676.031-2.515.031q-82.392,0-164.785-.009c-1.25,0-2.5-.152-3.751-.233q-.081-6.041-.16-12.084c6.258-.04,12.516-.114,18.773-.1,2.437,0,4.469-.419,4.973-3.268" transform="translate(-5.207 -25.975)" fill="#a69aa6"/>
    <path id="Trazado_720419" data-name="Trazado 720419" d="M28.451,39.636a60,60,0,0,0-.887,12.91c-1.8.1-3.6.163-5.4.323-1.886.169-3.209,1.061-3.181,3.139.027,2.018,1.231,3.024,3.176,3.137,1.806.1,3.616.119,5.425.174q0,2.643,0,5.286c-1.937.082-3.876.119-5.808.26a2.716,2.716,0,0,0-2.767,3,2.781,2.781,0,0,0,2.769,3.03c1.931.15,3.873.154,5.811.222q0,7.678,0,15.356c-1.936.088-3.874.149-5.807.274a3.02,3.02,0,0,0,0,6.02c1.935.127,3.876.162,5.814.237q0,2.671,0,5.34c-1.939.072-3.881.1-5.815.231a2.753,2.753,0,0,0-2.766,3.025,2.71,2.71,0,0,0,2.768,3c1.933.126,3.87.192,5.8.285q0,2.647,0,5.3c-1.938.064-3.884.04-5.812.217A2.83,2.83,0,0,0,19,113.455a2.727,2.727,0,0,0,2.771,3.008c1.932.151,3.878.133,5.818.19l-.01,5.312c-1.808.06-3.621.06-5.424.2-1.907.143-3.156,1.122-3.176,3.158-.019,2.076,1.311,2.982,3.179,3.163,1.8.174,3.6.2,5.408.291q.006,5,.011,10c-5.863.056-11.729.04-17.589.209-2.005.057-2.592-.555-2.589-2.576q.089-47.157.009-94.316c0-1.978.654-2.793,2.637-2.747,6.134.139,12.268.2,18.4.3" transform="translate(-1.189 -6.316)" fill="#d0e3f3"/>
    <path id="Trazado_720420" data-name="Trazado 720420" d="M81.2,232.813q43.117-.068,86.234-.1c4.229,0,5.847,2.022,5.852,6.887.008,7.218.641,6.142-5.841,6.143q-43.536,0-87.073-.1c.018-4.292-.705-8.632.828-12.826" transform="translate(-12.88 -37.366)" fill="#a69aa6"/>
    <path id="Trazado_720421" data-name="Trazado 720421" d="M86.52,7.722q-.014,54.56-.029,109.121c-9.862.589-9.862.589-9.862-8.957,0-31.836.081-63.674-.1-95.509-.024-4.039.947-5.642,5.018-4.97a47.281,47.281,0,0,0,4.974.316" transform="translate(-12.288 -1.166)" fill="#e4e2e4"/>
    <path id="Trazado_720422" data-name="Trazado 720422" d="M115.5,188.037q-.006,15.38-.012,30.762c-9.817.635-9.817.635-9.817-9.119,0-5.994.19-12-.075-17.98-.144-3.268,1.028-4.217,4.062-3.85,1.926.233,3.893.135,5.842.186" transform="translate(-16.955 -30.152)" fill="#7a6e7a"/>
    <path id="Trazado_720423" data-name="Trazado 720423" d="M28.361,165.693q.081,6.043.16,12.085c-5.8.828-11.623.313-17.433.3-2.417-.006-3.609-1.453-3.778-4.021-.578-8.752-.641-8.811,8.209-8.72,4.28.044,8.582-.467,12.842.356" transform="translate(-1.139 -26.53)" fill="#7a6e7a"/>
    <path id="Trazado_720424" data-name="Trazado 720424" d="M77.526,232.8c-1.533,4.194-.809,8.534-.828,12.826-5.666.828-11.362.19-17.044.33-.627.015-1.771-.335-1.819-.646-.482-3.154-.857-6.365.233-9.457.849-2.408,2.829-3.283,5.284-3.246q7.086.1,14.174.194" transform="translate(-9.211 -37.349)" fill="#7a6e7a"/>
    <path id="Trazado_720425" data-name="Trazado 720425" d="M208.1,55.36c12.982,0,12.867,0,13.014,12.917.155,13.741-.076,13.762-13.605,13.614-12.989-.144-12.991-.031-12.991-12.946,0-13.585,0-13.585,13.583-13.585m-.074,6.412c-6.995.023-6.995.023-6.995,6.966,0,6.591,0,6.591,6.553,6.632,6.984.044,6.984.044,6.984-7.026,0-6.594,0-6.594-6.542-6.573" transform="translate(-31.235 -8.889)" fill="#0f0f0f"/>
    <path id="Trazado_720426" data-name="Trazado 720426" d="M207.56,120.913c-12.737.278-13.213.3-13.059-13.2.149-13.127.033-13.129,13.126-13.128,2.373,0,4.748-.055,7.118.018,4.348.136,6.183,1.835,6.286,6.06.116,4.743.124,9.493,0,14.236-.111,4.165-2.061,5.917-6.351,6-2.372.049-4.745.008-7.118.009m7.016-12.988c0-7.2,0-7.2-6.519-7.1-6.961.1-6.961.1-6.961,7.155,0,6.6,0,6.6,6.585,6.725,6.9.136,6.9.136,6.9-6.777" transform="translate(-31.228 -15.185)" fill="#060808"/>
    <path id="Trazado_720427" data-name="Trazado 720427" d="M207.619,144.383c-2.93,0-5.86,0-8.79.008-2.206.008-4.063-.763-4.116-3.16-.053-2.366,1.651-3.3,3.932-3.3q9.208.033,18.416,0c2.279-.005,3.948.949,3.916,3.325-.029,2.16-1.678,3.082-3.732,3.106-3.208.039-6.417.011-9.627.015" transform="translate(-31.265 -22.148)" fill="#0f0f0f"/>
    <path id="Trazado_720428" data-name="Trazado 720428" d="M29.806,102.025c-1.938-.076-3.879-.111-5.814-.238a3.02,3.02,0,0,1,0-6.02c1.934-.124,3.872-.185,5.808-.274,5.268.065,10.537.154,15.806.186,2.228.013,4.413.176,4.4,3.087-.009,2.877-2.14,3.1-4.4,3.1-5.27.008-10.539.1-15.809.155" transform="translate(-3.408 -15.334)" fill="#040404"/>
    <path id="Trazado_720429" data-name="Trazado 720429" d="M29.8,116.179c-1.935-.092-3.871-.159-5.8-.285a2.709,2.709,0,0,1-2.768-3,2.753,2.753,0,0,1,2.766-3.026c1.934-.134,3.876-.158,5.814-.23,5.271.055,10.541.144,15.811.149,2.263,0,4.382.245,4.394,3.114.012,2.925-2.192,3.066-4.408,3.082-5.268.04-10.536.128-15.8.2" transform="translate(-3.408 -17.604)" fill="#040404"/>
    <path id="Trazado_720430" data-name="Trazado 720430" d="M29.8,75.955c-1.937-.068-3.88-.072-5.811-.222a2.78,2.78,0,0,1-2.769-3.03,2.715,2.715,0,0,1,2.767-3c1.932-.141,3.872-.178,5.808-.26,5.27.053,10.54.114,15.809.154,2.206.017,4.421.176,4.4,3.1-.022,2.852-2.125,3.124-4.394,3.124-5.269,0-10.539.086-15.808.136" transform="translate(-3.408 -11.15)" fill="#040404"/>
    <path id="Trazado_720431" data-name="Trazado 720431" d="M29.812,130.2c-1.94-.056-3.886-.039-5.819-.19a2.726,2.726,0,0,1-2.77-3.008,2.829,2.829,0,0,1,2.768-3.052c1.928-.176,3.875-.153,5.813-.217,5.267.047,10.536.123,15.8.127,2.27,0,4.365.3,4.4,3.137.034,2.911-2.177,3.124-4.381,3.134q-7.906.038-15.812.068" transform="translate(-3.408 -19.869)" fill="#040404"/>
    <path id="Trazado_720432" data-name="Trazado 720432" d="M29.8,61.847c-1.809-.055-3.62-.069-5.425-.174-1.944-.112-3.148-1.119-3.176-3.137-.028-2.078,1.3-2.97,3.181-3.139,1.8-.16,3.6-.22,5.4-.323,2.35.084,4.7.155,7.05.257,2.183.095,3.959.9,3.808,3.387-.129,2.145-1.682,3-3.769,3-2.356,0-4.712.081-7.067.128" transform="translate(-3.404 -8.843)" fill="#0f0f0f"/>
    <path id="Trazado_720433" data-name="Trazado 720433" d="M29.784,144.578c-1.8-.091-3.613-.118-5.408-.291-1.868-.181-3.2-1.087-3.18-3.163.019-2.036,1.268-3.015,3.176-3.158,1.8-.135,3.615-.136,5.424-.2,2.495.052,4.991.065,7.483.17,1.9.079,3.241,1.058,3.362,3,.139,2.237-1.357,3.244-3.388,3.385-2.484.173-4.98.178-7.471.255" transform="translate(-3.404 -22.122)" fill="#0f0f0f"/>
    <path id="Trazado_720434" data-name="Trazado 720434" d="M119.563,83.627a24.176,24.176,0,1,1,24.362-24.214,24.42,24.42,0,0,1-24.362,24.214M115.037,76.3c.483.459.969.949,1.245-.164.071-4.866.3-9.737.159-14.6-.119-4.024,1.628-5.525,5.509-5.36s7.8-.111,11.692.084c2.941.147,3.747-.719,2.6-3.517-3.211-7.86-12.553-13.129-20.741-10.314a17.011,17.011,0,0,0-13.5,16.41c-.2,8.5,4.848,15.39,12.735,17.39Zm15.1-13.644c-7.18,0-7.18,0-7.18,7.124a33.34,33.34,0,0,1-.029,4.169c-.411,3.251,1.163,3.024,3.338,2.094a18.012,18.012,0,0,0,8.508-7.089c1.1-1.766,2.8-3.962,1.982-5.649-.787-1.616-3.516-.375-5.367-.64a9.005,9.005,0,0,0-1.251-.008" transform="translate(-15.342 -5.664)" fill="#060808"/>
    <path id="Trazado_720435" data-name="Trazado 720435" d="M119.682,110.674c-6.408,0-12.816-.037-19.223.019-2.443.021-4.781-.338-4.777-3.277,0-2.659,2.206-3.187,4.5-3.185q19.641.016,39.283,0c2.324,0,4.436.652,4.368,3.317-.068,2.633-2.167,3.164-4.507,3.143-6.547-.059-13.094-.02-19.641-.02" transform="translate(-15.364 -16.737)" fill="#0f0f0f"/>
    <path id="Trazado_720436" data-name="Trazado 720436" d="M119.443,124.745c-6.419,0-12.838-.048-19.256.025-2.353.027-4.465-.466-4.486-3.129-.022-2.716,2.191-3.16,4.482-3.158q19.675.028,39.35.007c2.329,0,4.42.6,4.263,3.349-.138,2.392-2.044,2.954-4.26,2.93-6.7-.07-13.4-.025-20.093-.025" transform="translate(-15.367 -19.025)" fill="#040404"/>
    <path id="Trazado_720437" data-name="Trazado 720437" d="M122.092,18.466c2.781,0,5.564-.045,8.344.017,2.03.045,3.594.846,3.553,3.174-.04,2.26-1.491,3.138-3.584,3.142q-8.344.016-16.688,0c-2.1-.006-3.533-.91-3.553-3.171-.022-2.332,1.561-3.1,3.584-3.146,2.78-.06,5.563-.014,8.344-.013" transform="translate(-17.689 -2.962)" fill="#0f0f0f"/>
    <path id="Trazado_720438" data-name="Trazado 720438" d="M209.275,63c6.542-.021,6.542-.021,6.542,6.573,0,7.07,0,7.07-6.984,7.026-6.553-.041-6.553-.041-6.553-6.632,0-6.944,0-6.944,6.995-6.966" transform="translate(-32.481 -10.115)" fill="#fd6c55"/>
    <path id="Trazado_720439" data-name="Trazado 720439" d="M215.841,109.118c0,6.913,0,6.913-6.9,6.777-6.585-.129-6.585-.129-6.585-6.725,0-7.055,0-7.055,6.961-7.155,6.519-.094,6.519-.094,6.519,7.1" transform="translate(-32.494 -16.378)" fill="#00c079"/>
    <path id="Trazado_720440" data-name="Trazado 720440" d="M117.818,43.656c8.189-2.815,17.531,2.454,20.741,10.314,1.143,2.8.336,3.664-2.6,3.517-3.889-.195-7.8.082-11.692-.084s-5.628,1.336-5.508,5.36c.144,4.86-.09,9.731-.16,14.6l-1.245.164-.294-.069a4.438,4.438,0,0,0-1.558-2.862,20.9,20.9,0,0,1-2.827-24.43c1.377-2.366,3.413-4.349,5.147-6.507" transform="translate(-17.655 -6.887)" fill="#25a4fc"/>
    <path id="Trazado_720441" data-name="Trazado 720441" d="M116.74,43.8c-1.734,2.158-3.77,4.141-5.147,6.507a20.9,20.9,0,0,0,2.827,24.43,4.438,4.438,0,0,1,1.558,2.862c-7.886-2-12.936-8.894-12.733-17.389a17.011,17.011,0,0,1,13.5-16.41" transform="translate(-16.577 -7.034)" fill="#068ff5"/>
    <path id="Trazado_720442" data-name="Trazado 720442" d="M135.358,67.857a9.005,9.005,0,0,1,1.251.008c1.852.264,4.58-.976,5.367.64.822,1.687-.884,3.883-1.982,5.649a18.012,18.012,0,0,1-8.508,7.089c-2.175.93-3.749,1.158-3.338-2.094a33.34,33.34,0,0,0,.029-4.169c0-7.124,0-7.124,7.18-7.124" transform="translate(-20.567 -10.864)" fill="#f8cf02"/>
    <path id="Trazado_720443" data-name="Trazado 720443" d="M118.765,84.119l1.245-.164c-.276,1.113-.762.623-1.245.164" transform="translate(-19.07 -13.481)" fill="#068ff5"/>
  </g>
</svg>
