<svg id="Grupo_1017452" data-name="Grupo 1017452" xmlns="http://www.w3.org/2000/svg" xmlns:xlink="http://www.w3.org/1999/xlink" width="90.413" height="128.869" viewBox="0 0 90.413 128.869">
  <defs>
    <clipPath id="clip-path">
      <rect id="Rectángulo_350218" data-name="Rectángulo 350218" width="90.413" height="128.869" fill="none"/>
    </clipPath>
  </defs>
  <path id="Trazado_718476" data-name="Trazado 718476" d="M95.673,30.589l-.036,81.849L43.512,82.343,43.548.495Z" transform="translate(-6.7 -0.076)" fill="#f4de3d"/>
  <path id="Trazado_718477" data-name="Trazado 718477" d="M94.372,96.5l.03-61.536L44.016,5.873l-.036,77.818,37.706,21.77Z" transform="translate(-6.772 -0.904)" fill="#f8f5f4"/>
  <path id="Trazado_718478" data-name="Trazado 718478" d="M93.4,97.212l.03-61.689L43.046,6.432,43.01,84.25l37.754,21.8Z" transform="translate(-6.623 -0.99)" fill="#f8f5f4"/>
  <path id="Trazado_718479" data-name="Trazado 718479" d="M92.434,97.9l.03-61.815L42.077,6.992l-.036,77.818,37.8,21.825Z" transform="translate(-6.474 -1.077)" fill="#f8f5f4"/>
  <path id="Trazado_718480" data-name="Trazado 718480" d="M91.464,98.583l.03-61.94L41.108,7.551,41.071,85.37l37.85,21.853Z" transform="translate(-6.324 -1.163)" fill="#f8f5f4"/>
  <path id="Trazado_718481" data-name="Trazado 718481" d="M90.5,99.268l.03-62.066L40.139,8.111,40.1,85.929,78,107.809Z" transform="translate(-6.175 -1.249)" fill="#f8f5f4"/>
  <path id="Trazado_718482" data-name="Trazado 718482" d="M89.526,99.954l.03-62.192L39.17,8.671l-.036,77.818L77.079,108.4Z" transform="translate(-6.026 -1.335)" fill="#f8f5f4"/>
  <path id="Trazado_718483" data-name="Trazado 718483" d="M76.266,108.913l12.291-8.274.03-62.318L38.2,9.23l-.036,77.818,37.99,21.934Z" transform="translate(-5.877 -1.421)" fill="#f8f5f4"/>
  <path id="Trazado_718484" data-name="Trazado 718484" d="M76.117,109l11.471-7.675.03-62.444L37.231,9.79,37.2,87.608l38.017,21.949Z" transform="translate(-5.728 -1.507)" fill="#f8f5f4"/>
  <path id="Trazado_718485" data-name="Trazado 718485" d="M75.967,109.085l10.651-7.1.03-62.545L36.262,10.35l-.036,77.817L74.27,110.132Z" transform="translate(-5.578 -1.594)" fill="#f8f5f4"/>
  <path id="Trazado_718486" data-name="Trazado 718486" d="M75.818,109.171l9.832-6.537L85.679,40,35.293,10.909l-.036,77.818,38.072,21.98Z" transform="translate(-5.429 -1.68)" fill="#f8f5f4"/>
  <path id="Trazado_718487" data-name="Trazado 718487" d="M75.669,109.257l9.011-5.974.03-62.724L34.324,11.469l-.036,77.817,38.1,22Z" transform="translate(-5.28 -1.766)" fill="#f8f5f4"/>
  <path id="Trazado_718488" data-name="Trazado 718488" d="M75.52,109.343l8.191-5.41.03-62.815L33.355,12.028l-.036,77.818,38.126,22.012Z" transform="translate(-5.131 -1.852)" fill="#f8f5f4"/>
  <path id="Trazado_718489" data-name="Trazado 718489" d="M75.37,109.43l7.371-4.847.03-62.9L32.385,12.588,32.35,90.406,70.5,112.434Z" transform="translate(-4.981 -1.938)" fill="#f8f5f4"/>
  <path id="Trazado_718490" data-name="Trazado 718490" d="M75.221,109.516l6.552-4.283.03-62.994L31.416,13.147l-.036,77.818,38.174,22.04Z" transform="translate(-4.832 -2.024)" fill="#f8f5f4"/>
  <path id="Trazado_718491" data-name="Trazado 718491" d="M26.7,10.286l-.036,81.849,52.844,30.509L79.543,40.8Z" transform="translate(-4.106 -1.584)" fill="#f4de3d"/>
  <g id="Grupo_1017449" data-name="Grupo 1017449">
    <g id="Grupo_1017448" data-name="Grupo 1017448" clip-path="url(#clip-path)">
      <path id="Trazado_718492" data-name="Trazado 718492" d="M89.161,44.765l-.036,81.849,14.975-8.7.036-81.849Zm8.3,59.36c-1.855,1.071-3.357.215-3.363-1.916a7.368,7.368,0,0,1,3.341-5.8c1.855-1.071,3.366-.21,3.372,1.922a7.369,7.369,0,0,1-3.35,5.792" transform="translate(-13.724 -5.553)" fill="#fff176"/>
      <path id="Trazado_718493" data-name="Trazado 718493" d="M102.226,88.63l-9.9,5.713V52.061l9.9-5.713Z" transform="translate(-14.218 -7.137)" fill="#f8f5f4"/>
      <path id="Trazado_718494" data-name="Trazado 718494" d="M98.368,115.025c-1.855,1.071-3.357.215-3.363-1.916a7.369,7.369,0,0,1,3.341-5.8c1.855-1.071,3.366-.21,3.372,1.922a7.369,7.369,0,0,1-3.35,5.792" transform="translate(-14.629 -16.453)" fill="#2d2b29"/>
      <path id="Trazado_718495" data-name="Trazado 718495" d="M101.078,107.757l-.544-.316a2.05,2.05,0,0,1,.854,1.878,6.432,6.432,0,0,1-2.919,5.044,2.054,2.054,0,0,1-2.075.2l.545.316a2.055,2.055,0,0,0,2.074-.2,6.433,6.433,0,0,0,2.919-5.044,2.05,2.05,0,0,0-.854-1.878" transform="translate(-14.843 -16.544)" fill="#b7bbbc"/>
      <path id="Trazado_718496" data-name="Trazado 718496" d="M100.736,106.418a2.544,2.544,0,0,0-2.567.25,7.911,7.911,0,0,0-3.587,6.224,2.52,2.52,0,0,0,1.048,2.31l.544.316a2.52,2.52,0,0,1-1.048-2.31,7.913,7.913,0,0,1,3.587-6.224,2.544,2.544,0,0,1,2.567-.25Z" transform="translate(-14.564 -16.349)" fill="#b7bbbc"/>
      <path id="Trazado_718497" data-name="Trazado 718497" d="M98.812,107.042a7.911,7.911,0,0,0-3.587,6.224c.007,2.288,1.619,3.207,3.611,2.058a7.91,7.91,0,0,0,3.6-6.218c-.007-2.288-1.629-3.213-3.62-2.063m.021,7.5c-1.607.928-2.922.178-2.928-1.668a6.433,6.433,0,0,1,2.909-5.05c1.618-.933,2.932-.184,2.938,1.674a6.432,6.432,0,0,1-2.919,5.044" transform="translate(-14.663 -16.407)" fill="#cfd2d3"/>
      <path id="Trazado_718498" data-name="Trazado 718498" d="M41.681,0,40.96.418,93.085,30.513l-13.54,7.869L27.42,8.287l-.714.415L79.55,39.212l14.975-8.7Z" transform="translate(-4.112 0)" fill="#fff176"/>
    </g>
  </g>
  <path id="Trazado_718499" data-name="Trazado 718499" d="M69.01,39.82l-.036,81.849L16.849,91.574l.036-81.849Z" transform="translate(-2.594 -1.498)" fill="#bcf987"/>
  <path id="Trazado_718500" data-name="Trazado 718500" d="M67.709,105.73l.03-61.536L17.352,15.1l-.036,77.818,37.706,21.77Z" transform="translate(-2.666 -2.326)" fill="#f8f5f4"/>
  <path id="Trazado_718501" data-name="Trazado 718501" d="M66.74,106.443l.03-61.689L16.383,15.663l-.036,77.818,37.754,21.8Z" transform="translate(-2.517 -2.412)" fill="#f8f5f4"/>
  <path id="Trazado_718502" data-name="Trazado 718502" d="M65.77,107.128l.03-61.815L15.414,16.223l-.036,77.818,37.8,21.825Z" transform="translate(-2.368 -2.498)" fill="#f8f5f4"/>
  <path id="Trazado_718503" data-name="Trazado 718503" d="M64.8,107.814l.03-61.94L14.445,16.782,14.408,94.6l37.85,21.853Z" transform="translate(-2.219 -2.584)" fill="#f8f5f4"/>
  <path id="Trazado_718504" data-name="Trazado 718504" d="M63.832,108.5l.03-62.066L13.475,17.342,13.439,95.16l37.9,21.881Z" transform="translate(-2.069 -2.67)" fill="#f8f5f4"/>
  <path id="Trazado_718505" data-name="Trazado 718505" d="M62.863,109.184l.03-62.192L12.506,17.9,12.471,95.72l37.945,21.908Z" transform="translate(-1.92 -2.757)" fill="#f8f5f4"/>
  <path id="Trazado_718506" data-name="Trazado 718506" d="M49.6,118.143l12.291-8.274.03-62.318L11.537,18.461,11.5,96.279l37.99,21.934Z" transform="translate(-1.771 -2.843)" fill="#f8f5f4"/>
  <path id="Trazado_718507" data-name="Trazado 718507" d="M49.453,118.23l11.471-7.675.03-62.444L10.568,19.021l-.036,77.818,38.017,21.949Z" transform="translate(-1.622 -2.929)" fill="#f8f5f4"/>
  <path id="Trazado_718508" data-name="Trazado 718508" d="M49.3,118.316l10.651-7.1.03-62.545L9.6,19.581,9.562,97.4l38.045,21.965Z" transform="translate(-1.472 -3.015)" fill="#f8f5f4"/>
  <path id="Trazado_718509" data-name="Trazado 718509" d="M49.155,118.4l9.832-6.537.03-62.635L8.63,20.14,8.593,97.958l38.072,21.98Z" transform="translate(-1.323 -3.101)" fill="#f8f5f4"/>
  <path id="Trazado_718510" data-name="Trazado 718510" d="M49.006,118.488l9.012-5.974.03-62.724L7.661,20.7,7.624,98.517l38.1,22Z" transform="translate(-1.174 -3.187)" fill="#f8f5f4"/>
  <path id="Trazado_718511" data-name="Trazado 718511" d="M48.856,118.574l8.191-5.41.03-62.815L6.692,21.259,6.655,99.077l38.126,22.012Z" transform="translate(-1.025 -3.273)" fill="#f8f5f4"/>
  <path id="Trazado_718512" data-name="Trazado 718512" d="M48.707,118.66l7.371-4.847.03-62.9L5.722,21.819,5.686,99.637l38.153,22.028Z" transform="translate(-0.876 -3.36)" fill="#f8f5f4"/>
  <path id="Trazado_718513" data-name="Trazado 718513" d="M48.558,118.746l6.552-4.283.03-62.994L4.753,22.378,4.717,100.2l38.174,22.04Z" transform="translate(-0.726 -3.446)" fill="#f8f5f4"/>
  <path id="Trazado_718514" data-name="Trazado 718514" d="M0,101.366l52.844,30.509.036-81.848L.036,19.518Z" transform="translate(0 -3.005)" fill="#bcf987"/>
  <g id="Grupo_1017451" data-name="Grupo 1017451">
    <g id="Grupo_1017450" data-name="Grupo 1017450" clip-path="url(#clip-path)">
      <path id="Trazado_718515" data-name="Trazado 718515" d="M62.5,53.995l-.036,81.849,14.975-8.7.036-81.849Zm8.3,59.36c-1.855,1.071-3.357.215-3.363-1.916a7.368,7.368,0,0,1,3.341-5.8c1.855-1.071,3.366-.21,3.372,1.922a7.369,7.369,0,0,1-3.35,5.792" transform="translate(-9.618 -6.974)" fill="#e7edf6"/>
      <path id="Trazado_718516" data-name="Trazado 718516" d="M75.563,97.86l-9.9,5.713V61.292l9.9-5.713Z" transform="translate(-10.112 -8.558)" fill="#f8f5f4"/>
      <path id="Trazado_718517" data-name="Trazado 718517" d="M71.7,124.255c-1.855,1.071-3.357.215-3.363-1.916a7.368,7.368,0,0,1,3.341-5.8c1.855-1.071,3.366-.21,3.372,1.922a7.369,7.369,0,0,1-3.35,5.792" transform="translate(-10.523 -17.875)" fill="#2d2b29"/>
      <path id="Trazado_718518" data-name="Trazado 718518" d="M74.414,116.988l-.545-.316a2.049,2.049,0,0,1,.854,1.878,6.433,6.433,0,0,1-2.918,5.044,2.056,2.056,0,0,1-2.076.2l.545.316a2.055,2.055,0,0,0,2.074-.2,6.431,6.431,0,0,0,2.919-5.044,2.052,2.052,0,0,0-.854-1.878" transform="translate(-10.737 -17.966)" fill="#b7bbbc"/>
      <path id="Trazado_718519" data-name="Trazado 718519" d="M74.072,115.649a2.544,2.544,0,0,0-2.567.25,7.911,7.911,0,0,0-3.587,6.224,2.52,2.52,0,0,0,1.048,2.31l.544.316a2.52,2.52,0,0,1-1.048-2.31,7.913,7.913,0,0,1,3.587-6.224,2.544,2.544,0,0,1,2.567-.25Z" transform="translate(-10.458 -17.77)" fill="#b7bbbc"/>
      <path id="Trazado_718520" data-name="Trazado 718520" d="M72.148,116.273a7.913,7.913,0,0,0-3.587,6.224c.007,2.288,1.619,3.207,3.611,2.058a7.91,7.91,0,0,0,3.6-6.218c-.007-2.288-1.629-3.213-3.62-2.063m.021,7.5c-1.607.928-2.922.178-2.928-1.668a6.433,6.433,0,0,1,2.909-5.05c1.618-.933,2.933-.184,2.938,1.674a6.432,6.432,0,0,1-2.919,5.044" transform="translate(-10.557 -17.828)" fill="#cfd2d3"/>
      <path id="Trazado_718521" data-name="Trazado 718521" d="M15.018,9.23l-.721.419L66.422,39.744l-13.54,7.869L.757,17.518l-.714.415L52.886,48.442l14.975-8.7Z" transform="translate(-0.007 -1.421)" fill="#e7edf6"/>
    </g>
  </g>
</svg>
