<svg id="Grupo_1018185" data-name="Grupo 1018185" xmlns="http://www.w3.org/2000/svg" xmlns:xlink="http://www.w3.org/1999/xlink" width="144.508" height="165.333" viewBox="0 0 144.508 165.333">
  <defs>
    <clipPath id="clip-path">
      <rect id="Rectángulo_350835" data-name="Rectángulo 350835" width="144.508" height="165.333" fill="none"/>
    </clipPath>
  </defs>
  <g id="Grupo_1018184" data-name="Grupo 1018184" clip-path="url(#clip-path)">
    <path id="Trazado_720609" data-name="Trazado 720609" d="M128.65,110.819c2.226,1.612,3.332,2.22,5.151.639,2.357-2.05,3.793.471,5.315,1.846,1.471,1.329,2.382,2.725.93,4.728-1.683,2.322-1.136,3.638,1.716,4.136s2.759,2.54,2.742,4.649c-.017,2.089.145,4.153-2.8,4.556-2.615.358-3.336,1.979-1.8,3.976,1.9,2.468.281,3.886-1.3,5.448-1.5,1.48-2.833,3.033-5.183,1.2-2.044-1.6-3.66-.941-4.042,1.661-.457,3.117-2.669,2.835-4.845,2.882-2.216.048-4.049-.228-4.457-3.006-.378-2.571-1.867-3.109-4.054-1.465-2.208,1.66-3.538.319-4.942-1.131-1.482-1.53-3.629-3.04-1.478-5.358,1.727-1.861.458-2.91-.592-4.823-1.025,2.538-2.133,4.13-4.739,4.17-1.932.03-.954,1.824-.895,2.757.548,8.7,1.262,17.387,1.809,26.086.32,5.088-1.425,6.843-6.5,6.845q-46.018.009-92.037,0c-5.133,0-6.989-2.088-6.611-7.128q1.558-20.765,3.014-41.536c.381-5.4,2.8-9.477,7.8-11.657,7.567-3.3,15.2-6.445,22.848-9.553,2.156-.876,3.284-3.4,5.96-3.574.215-.014,1.128-3.211-.751-4.449a25.076,25.076,0,0,1-11.4-16.858c-.229-1.221-.93-1.392-2-1.566a11.2,11.2,0,0,1-9.525-8.07c-1.493-4.67-.209-8.739,3.287-12.027a4.183,4.183,0,0,0,1.184-3.45c.081-3.868-.365-7.763.378-11.6C23.322,26.323,32.795,17.392,45.772,15.62c6.11-.835,12.2-1.112,18.264.482,6.816,1.793,11.55,5.565,12.608,12.932.109.76.081,1.434,1.082,1.676,4.98,1.209,6.058,5.253,6.825,9.514a57.572,57.572,0,0,1,.463,10.952,4.153,4.153,0,0,0,1.383,3.36,10.948,10.948,0,0,1,2.872,11.859,10.9,10.9,0,0,1-9.331,7.852c-1.5.223-1.868.752-2.163,2.091A25.807,25.807,0,0,1,66.829,92.472c-2.411,1.67-2.069,3.994.619,5.254a4.854,4.854,0,0,1,1.305.933c1.218,1.2,2.314,2.31,3.444-.159a2.034,2.034,0,0,1,2.265-.936c4.365,1.019,4.568-2.632,5.793-5.108.7-1.423-.769-1.826-1.4-2.524-2.447-2.7-2.483-3.917.048-6.519.826-.849,1.667-1.682,2.514-2.509,2.8-2.733,3.836-2.777,6.7.044,1.1,1.082,1.968,1.806,3.511.736,1.572-1.089,4.268-.634,3.986-3.984-.3-3.574.986-4.584,4.51-4.633,1.184-.017,2.369-.012,3.552,0,3.837.035,4.685.854,4.742,4.749.02,1.322-.16,2.689,1.646,2.916,1.952.246,3.6,2.893,5.95.193,2.583-2.963,3.815-2.744,6.657.039.692.678,1.372,1.369,2.054,2.057,3.1,3.134,3.2,4.041.12,7.143-1.213,1.224-1.412,2.2-.471,3.58,1.016,1.488.471,4.09,3.709,3.874,3.977-.266,4.91.858,4.787,4.925-.1,3.151,1.433,7.091-4.216,8.277M74.968,61.927h.082c0-3.445.008-6.89,0-10.335a11.688,11.688,0,0,0-1.319-5.9c-1.963-3.468-3.251-3.747-6.633-1.607-9.461,5.986-19.021,6.018-28.548.183C34.675,41.89,33.04,42.3,31.2,46.51a11.446,11.446,0,0,0-.966,4.7c.028,6.783-.083,13.566.037,20.346a22.358,22.358,0,0,0,44.666,1.024c.222-3.538.034-7.1.034-10.653M23.735,45.192c0,1.292-.033,2.584.011,3.874.031.914-.226,2.029,1.31,2.073,1.327.038,1.91-.444,1.994-1.844a12.87,12.87,0,0,1,3.289-7.564c2.259-2.68,5.485-3.261,8.364-1.285,9.326,6.4,18.553,6.435,27.885.011,2.852-1.963,5.669-1.44,8.127,1.065a12.928,12.928,0,0,1,3.342,6.5c.3,1.358.058,3.358,2.348,3.094,2.474-.286,1.332-2.351,1.343-3.581a45.175,45.175,0,0,0-.588-7.705c-.488-2.97-1.55-5.622-5.159-6.141-1.738-.25-2.411-1.52-2.545-3.235-.476-6.058-3.988-9.518-9.672-11.019a43.47,43.47,0,0,0-15.331-.8c-15.019,1.388-24.692,11.6-24.719,26.559M21.122,149.041c0,5.267.076,10.536-.038,15.8-.043,2,.647,2.594,2.6,2.556,5.479-.107,10.965-.125,16.443,0,2.615.06,2.575-.887,1.647-2.828-2.826-5.908-5.4-11.94-8.37-17.774-1.578-3.1-1.729-6,.037-8.845,1.787-2.885.548-3.832-2.2-4.141-3.125-.351-4.354-2.018-4.261-5.223.184-6.337,0-12.683.085-19.024.027-2.034-.574-2.457-2.409-1.638-4.018,1.793-8.11,3.423-12.114,5.247-3.462,1.577-3.641,2.062-.669,4.432,7.175,5.722,10.162,13.007,9.3,22.089-.293,3.089-.047,6.23-.046,9.348m89.459-30.023c-12.477,2.687-18.986.713-23.245-6.892a16.8,16.8,0,1,1,30.67-13.343c1.576,4.654.67,9.184-1.263,13.813,2.167-.211,3.489-.513,3.467-2.8-.017-1.739,1.211-2.64,3.026-2.6a41.559,41.559,0,0,1,4.191.008c2.791.343,2.221-1.6,2.2-3.1-.023-1.538.793-3.719-2.23-3.318-2.989.4-4.624-1.058-5.322-3.9a11.491,11.491,0,0,0-1.273-2.943c-1.167-2.014-.871-3.823.93-5.131,2.416-1.755,1.226-2.925-.239-4.474-1.479-1.565-2.591-2.4-4.239-.213-1.418,1.879-3.275,2.239-5.4.932A10.574,10.574,0,0,0,108.9,83.8c-2.719-.673-4.127-2.259-3.7-5.1.443-2.923-1.564-2.38-3.193-2.372s-3.7-.635-3.256,2.337c.42,2.82-.848,4.493-3.626,5.123a7.183,7.183,0,0,0-2.38.956c-2.517,1.689-4.667,1.339-6.424-1.069-1.683-2.307-2.683-.469-3.646.615-.947,1.068-3.445,1.923-.933,3.9C84.057,90,84.5,92.129,82.819,94.658a7.48,7.48,0,0,0-.954,2.379c-.652,2.717-2.254,4.127-5.1,3.713-2.93-.427-2.338,1.608-2.413,3.241-.081,1.776-.322,3.608,2.464,3.2,2.871-.415,4.429.994,5.064,3.713a7.486,7.486,0,0,0,.964,2.377c1.568,2.391,1.334,4.5-.959,6.194-2.382,1.759-.593,2.794.568,3.939,1.122,1.105,2.068,3.111,3.913.691,1.687-2.212,3.775-2.62,6.213-1.071a9.174,9.174,0,0,0,2.672,1.094c2.6.65,3.785,2.174,3.542,4.9-.082.922-.535,2.124,1.143,2.521,3.907.925,5.181.022,5.189-3.945,0-.861,0-1.721.014-2.583.028-1.663.944-2.809,2.521-2.759,2.268.071,2.668-1.252,2.917-3.251M17.827,149.61c0-3.543-.247-7.108.05-10.626.683-8.1-2.294-14.367-8.6-19.368-1.818-1.442-2.417-1.288-2.767.849-.1.634-.144,1.278-.189,1.92-1,13.907-1.957,27.818-3.026,41.72-.19,2.473.792,3.32,3.1,3.275,3.005-.059,6.02-.138,9.017.027,2.119.117,2.489-.817,2.455-2.657-.094-5.045-.032-10.093-.032-15.141m44.546,17.751c6.753,0,12.981-.1,19.2.05,2.3.053,2.9-.707,2.887-2.936-.07-11.088.018-22.177.056-33.265,0-.743.275-1.683-.509-2.063-2.223-1.08-3.418-3.448-5.907-4.785,0,.99,0,1.61,0,2.229-.048,5.712-.014,5.823-5.539,7.542-2.242.7-1.674,1.833-.932,3.082,2.129,3.582,1.822,6.869-.132,10.584-3.241,6.163-5.926,12.619-9.127,19.564m25.294-18.313c0,5.271.083,10.544-.042,15.812-.048,2,.581,2.649,2.564,2.54a72.581,72.581,0,0,1,8.386,0c2.751.167,3.613-.955,3.4-3.607-.725-9-1.337-18-1.946-27.008-.075-1.111-.336-1.712-1.572-1.943-2.1-.391-3.313-1.9-2.934-3.952.683-3.7-2.172-4.268-4.351-4.632-2.394-.4-2.243,2.285-2.894,3.825a11.14,11.14,0,0,0-.612,4.444q.014,7.261,0,14.522m-39.43,18.289c2.3.318,2.119-.917,1.708-2.526Q42.507,135.66,35.123,106.5c-.683-2.683-2.2-3.032-4.219-1.14-.868.815-.563,1.792-.568,2.705-.035,5.8.242,11.623-.111,17.4-.228,3.733.851,5.383,4.652,5.852,3.43.422,4.014,1.987,2.712,5.252a41.351,41.351,0,0,1-1.645,3.846,4.133,4.133,0,0,0,.027,3.98c3.331,7.093,6.607,14.211,9.887,21.328.483,1.047,1.04,1.9,2.38,1.613m22.126-61.476L54.876,167c2.631.957,4.079.212,5.122-2.3,1.931-4.662,4.009-9.282,6.361-13.744,2.636-5,4.806-9.77,1.089-15.266-1.263-1.867-.079-3.506,2.01-4.21a13.224,13.224,0,0,1,3.126-.75c1.75-.138,2.349-.914,2.315-2.68-.1-5.161-.027-10.326-.047-15.489,0-.807.256-1.776-.945-2.093-2.4-.632-2.893-2.605-3.545-4.6m66.689,31.7c-.122-.249-.257-.5-.374-.765-1.876-4.161-.736-6.984,3.631-8.672a1.25,1.25,0,0,0,.945-1.4,1.2,1.2,0,0,0-1.018-1.333c-4.128-1.361-5.662-4.81-3.69-8.366a1.346,1.346,0,0,0-.193-1.923c-.681-.716-1.127-.471-1.887,0a5.723,5.723,0,0,1-8.259-3.208c-.262-1-.477-1.533-1.591-1.485-.986.043-1.1.57-1.307,1.411a5.628,5.628,0,0,1-8.158,3.328c-.92-.6-1.394-.654-2.134.11s-.294,1.2.131,1.886c1.823,2.959-.01,7.488-3.334,8.229-.787.176-1.436.12-1.468,1.2s.346,1.336,1.408,1.6c3.414.846,5.23,5.347,3.409,8.236-.429.68-.873,1.118-.162,1.872s1.221.713,2.156.153a5.6,5.6,0,0,1,8.158,3.434c.208.837.343,1.4,1.329,1.421.9.016,1.242-.36,1.527-1.241,1.235-3.81,5.042-5.484,8.319-3.519,1.538.922,1.826-.114,2.563-.975M52.4,161.217l.592.114q2.1-8.856,4.188-17.715a3.084,3.084,0,0,0-.1-.957c-.771-7.159-1.552-14.316-2.3-21.477-.124-1.192.033-2.294-1.825-2.307-1.645-.012-2.255.491-2.4,2.091-.5,5.457-1.1,10.906-1.666,16.357-.3,2.877-1.1,5.757-.4,8.649,1.237,5.1,2.6,10.165,3.911,15.245m37.472-51.981c1.072-2.5,2.667-4.3,5.2-4.941,1.475-.371.753-1.061.487-1.852-1.218-3.625-.381-6.714,2.264-8.63a7.019,7.019,0,0,1,8.424.041c2.662,2,3.393,4.959,2.185,8.673-.179.549-1.221,1.34.246,1.65,2.679.565,4.1,2.742,5.734,4.807a13.319,13.319,0,0,0-4.692-16.2,13.6,13.6,0,0,0-16.471.816,12.773,12.773,0,0,0-3.378,15.633M43.622,95.107c-1.711,3.839-.21,6.427,2.534,8.752a46.567,46.567,0,0,1,4.446,4.651c1.372,1.538,2.653,1.57,4.055.055a56.21,56.21,0,0,1,5.143-5.319c2.788-2.308,3.4-4.877,1.783-8.1a26.059,26.059,0,0,1-17.961-.037M101.929,107.3v.048c-1.82,0-3.651-.114-5.46.033a3.5,3.5,0,0,0-3.341,2.992c-.267,1.507-.746,3.142.782,4.46,3.182,2.744,10.069,3.68,13.66,1.376,1.983-1.273,4.064-3.044,3.268-5.965-.74-2.716-2.964-3.062-5.375-2.953-1.176.054-2.356.01-3.535.01M78.306,62.709c0,2.151.09,4.307-.027,6.452-.1,1.892.657,2.206,2.3,1.724a8.5,8.5,0,0,0,6.01-7.915,8.291,8.291,0,0,0-5.647-8.139c-1.816-.659-2.853-.655-2.671,1.751.155,2.032.032,4.085.032,6.128m-51.312.32c0-2.355-.038-4.711.016-7.065.028-1.2-.228-1.731-1.621-1.478a8.463,8.463,0,0,0-.243,16.519c1.363.28,1.954-.032,1.877-1.555-.109-2.135-.028-4.28-.028-6.421M38.9,101.081c-.646.531-1.658.837-1.365,1.707,1.09,3.241,1.079,6.855,2.911,9.809,2.722,4.388,2.738,4.227,6.38.532,1.6-1.622,1.521-2.579-.08-4.068-2.276-2.119-4.309-4.5-6.461-6.751-.427-.447-.927-.826-1.385-1.23M61.587,116.22c4.7-3.186,4.745-8.53,6.138-13.248a1.322,1.322,0,0,0-.827-1.561c-.735-.4-1.166.237-1.6.684-1.338,1.381-2.661,2.778-3.991,4.168-4.8,5.022-4.8,5.022.279,9.957m-19.864,3.148c1.328,5.155,2.48,9.625,3.631,14.095l.648-.048c.562-5.257,1.124-10.513,1.773-16.58-1.881,2.117-3.391,3.493-6.051,2.533M105.862,99.39c-.336-2.333-1.644-3.759-4.053-3.656a3.806,3.806,0,0,0,.227,7.607c2.4-.022,3.641-1.529,3.826-3.951M57.7,117.927q.84,7.972,1.679,15.943l.506.024L63.5,119.7a7.324,7.324,0,0,1-5.8-1.773M53,115.715c.706-.2,2.121-.032,2.113-1.107-.009-1.263-1.179-1.8-2.532-1.714-1.164.075-2.372.469-2.276,1.634.1,1.219,1.506,1.109,2.7,1.187m25.175,2.621c3.21-2.714,1-4.526,0-7.223Z" transform="translate(0 -5.285)" fill="#080706"/>
    <path id="Trazado_720610" data-name="Trazado 720610" d="M139.331,9.158a1.877,1.877,0,0,1,1.676,1.331c.263,1.577.983,2.48,2.619,2.59.176.012.361.224.5.378.575.625.736,1.879.306,2.027-2.493.852-2.891,3.943-5.207,4.737-.9.308-1.82-.671-2-1.721-.216-1.275-.962-1.588-2.108-1.952-1.729-.549-2.169-2.349-.67-3.13a5.678,5.678,0,0,0,3.276-3.407,1.482,1.482,0,0,1,1.6-.853" transform="translate(-47.213 -3.236)" fill="#6acbed"/>
    <path id="Trazado_720611" data-name="Trazado 720611" d="M17.23,120.034a8.625,8.625,0,0,0-5.494-5.7,8.4,8.4,0,0,0,5.425-5.446c1.44,2.475,2.819,4.625,6.114,5.357a9.669,9.669,0,0,0-6.045,5.787" transform="translate(-4.149 -38.498)" fill="#ecc049"/>
    <path id="Trazado_720612" data-name="Trazado 720612" d="M156.5,84.784a6.069,6.069,0,0,0-3.171-3.276c1.088-1.093,2.481-1.8,3.115-3.311a10.232,10.232,0,0,0,3.419,3.147,7.664,7.664,0,0,0-3.363,3.44" transform="translate(-54.209 -27.646)" fill="#f4627a"/>
    <path id="Trazado_720613" data-name="Trazado 720613" d="M8.335,149.534c-1.544-.118-2.3-.974-2.231-2.308a1.974,1.974,0,0,1,2.136-1.958,2.061,2.061,0,0,1,2.107,2.327,1.963,1.963,0,0,1-2.012,1.939" transform="translate(-2.157 -51.358)" fill="#ecc049"/>
    <path id="Trazado_720614" data-name="Trazado 720614" d="M178.047,226.455c-.289,1.263-.942,2.135-2.387,2a1.879,1.879,0,0,1-1.89-2.114,2.018,2.018,0,0,1,2.323-2.054,2.127,2.127,0,0,1,1.954,2.169" transform="translate(-61.434 -79.292)" fill="#f4627a"/>
    <path id="Trazado_720615" data-name="Trazado 720615" d="M118.444,4.292c-1.374-.081-2.23-.729-2.378-1.892A2.023,2.023,0,0,1,118.053.017a1.88,1.88,0,0,1,2.205,1.791c.186,1.431-.784,2.062-1.815,2.484" transform="translate(-41.026 0)" fill="#ecc049"/>
    <path id="Trazado_720616" data-name="Trazado 720616" d="M91.489,77.115c0,3.552.188,7.116-.034,10.653a22.358,22.358,0,0,1-44.666-1.023c-.12-6.781-.009-13.565-.037-20.346a11.447,11.447,0,0,1,.966-4.7c1.844-4.208,3.479-4.619,7.351-2.248,9.527,5.836,19.087,5.8,28.548-.183,3.382-2.14,4.669-1.86,6.633,1.607a11.689,11.689,0,0,1,1.319,5.905c.011,3.445,0,6.89,0,10.335h-.082M69.453,97.032A10.44,10.44,0,0,0,76.728,94.2c.688-.692,1.408-1.458.581-2.488-.9-1.117-1.734-.671-2.737.036-3.857,2.719-6.053,2.7-10.137-.044-.88-.591-1.71-1.108-2.517-.167-.886,1.033-.334,1.978.522,2.778a10.718,10.718,0,0,0,7.013,2.714M83.6,78.906c-.3-1.924-1.375-3.08-3.426-2.973a2.91,2.91,0,0,0-2.985,3.108,2.988,2.988,0,0,0,3.228,3.225c1.95-.03,3.063-1.29,3.182-3.36m-21.73.105c-.224-1.919-1.214-3.133-3.29-3.087a2.883,2.883,0,0,0-3.042,3.027,2.948,2.948,0,0,0,3.093,3.325c1.964.033,3.093-1.2,3.239-3.265" transform="translate(-16.522 -20.473)" fill="#f6cdb2"/>
    <path id="Trazado_720617" data-name="Trazado 720617" d="M36.706,47.039c.029-14.957,9.7-25.171,24.72-26.558a43.469,43.469,0,0,1,15.331.8c5.684,1.5,9.2,4.962,9.672,11.019.135,1.714.807,2.985,2.546,3.235,3.609.519,4.671,3.171,5.158,6.141a45.249,45.249,0,0,1,.588,7.706c-.012,1.23,1.131,3.3-1.343,3.581-2.29.264-2.049-1.736-2.348-3.094a12.929,12.929,0,0,0-3.342-6.5c-2.458-2.5-5.276-3.027-8.127-1.065-9.333,6.425-18.56,6.388-27.885-.011-2.88-1.976-6.105-1.4-8.364,1.285a12.876,12.876,0,0,0-3.289,7.564c-.084,1.4-.667,1.882-1.994,1.844-1.537-.045-1.279-1.159-1.31-2.074-.044-1.29-.011-2.583-.012-3.874" transform="translate(-12.974 -7.131)" fill="#5a5b5e"/>
    <path id="Trazado_720618" data-name="Trazado 720618" d="M26.47,199.675c0-3.117-.248-6.258.046-9.348.863-9.083-2.124-16.367-9.3-22.089-2.972-2.37-2.793-2.855.67-4.431,4-1.824,8.095-3.454,12.113-5.247,1.835-.819,2.436-.4,2.409,1.637-.085,6.341.1,12.688-.085,19.024-.093,3.206,1.136,4.872,4.261,5.224,2.747.309,3.986,1.255,2.2,4.14-1.765,2.85-1.615,5.742-.036,8.845,2.967,5.834,5.543,11.867,8.37,17.775.928,1.941.968,2.887-1.647,2.827-5.479-.126-10.965-.108-16.444,0-1.95.038-2.641-.56-2.6-2.556.114-5.265.039-10.533.038-15.8" transform="translate(-5.349 -55.919)" fill="#744d33"/>
    <path id="Trazado_720619" data-name="Trazado 720619" d="M151.223,152.555c-.25,2-.65,3.323-2.917,3.251-1.577-.05-2.493,1.1-2.521,2.76-.015.86-.012,1.722-.014,2.582-.008,3.967-1.282,4.87-5.189,3.945-1.678-.4-1.225-1.6-1.143-2.521.243-2.729-.946-4.253-3.542-4.9a9.173,9.173,0,0,1-2.672-1.094c-2.438-1.549-4.526-1.142-6.213,1.071-1.845,2.42-2.791.414-3.913-.691-1.162-1.145-2.95-2.18-.568-3.938,2.294-1.694,2.527-3.8.959-6.194a7.5,7.5,0,0,1-.964-2.378c-.635-2.718-2.194-4.128-5.064-3.713-2.786.4-2.546-1.428-2.464-3.2.075-1.633-.517-3.667,2.413-3.241,2.841.414,4.444-1,5.1-3.713a7.477,7.477,0,0,1,.954-2.38c1.682-2.529,1.239-4.655-1.069-6.473-2.512-1.978-.014-2.833.933-3.9.963-1.085,1.963-2.922,3.646-.615,1.756,2.407,3.907,2.757,6.424,1.069a7.172,7.172,0,0,1,2.38-.957c2.779-.629,4.047-2.3,3.627-5.122-.443-2.972,1.642-2.33,3.256-2.337s3.636-.551,3.193,2.372c-.431,2.841.977,4.427,3.7,5.1a10.557,10.557,0,0,1,2.951,1.255c2.122,1.307,3.98.946,5.4-.933,1.648-2.187,2.76-1.352,4.239.214,1.464,1.549,2.655,2.718.239,4.473-1.8,1.308-2.1,3.117-.93,5.131a11.49,11.49,0,0,1,1.273,2.943c.7,2.839,2.332,4.3,5.322,3.9,3.023-.4,2.207,1.779,2.23,3.317.023,1.506.593,3.445-2.2,3.1a41.561,41.561,0,0,0-4.191-.008c-1.815-.037-3.043.865-3.026,2.6.022,2.292-1.3,2.594-3.467,2.806,1.932-4.63,2.839-9.16,1.263-13.814a16.8,16.8,0,1,0-30.67,13.343c4.259,7.606,10.769,9.579,23.245,6.893" transform="translate(-40.642 -38.821)" fill="#f3d581"/>
    <path id="Trazado_720620" data-name="Trazado 720620" d="M19.613,206.337c0,5.047-.062,10.1.032,15.141.034,1.84-.336,2.773-2.455,2.657-3-.165-6.011-.087-9.017-.028-2.3.046-3.286-.8-3.1-3.275,1.069-13.9,2.027-27.812,3.025-41.72.046-.641.086-1.286.19-1.92.35-2.138.948-2.291,2.767-.849,6.308,5,9.286,11.269,8.6,19.368-.3,3.519-.05,7.083-.05,10.627" transform="translate(-1.787 -62.011)" fill="#976849"/>
    <path id="Trazado_720621" data-name="Trazado 720621" d="M96.484,227.2c3.2-6.945,5.886-13.4,9.127-19.564,1.954-3.715,2.261-7,.132-10.584-.741-1.248-1.31-2.385.933-3.082,5.525-1.718,5.49-1.829,5.539-7.542.006-.619,0-1.239,0-2.229,2.488,1.337,3.683,3.705,5.906,4.785.784.381.513,1.32.51,2.063-.039,11.089-.127,22.177-.057,33.265.014,2.229-.59,2.989-2.887,2.936-6.223-.145-12.451-.05-19.2-.05" transform="translate(-34.112 -65.123)" fill="#744d33"/>
    <path id="Trazado_720622" data-name="Trazado 720622" d="M135.589,209.9q0-7.261,0-14.522a11.133,11.133,0,0,1,.612-4.444c.652-1.539.5-4.225,2.894-3.824,2.179.364,5.034.932,4.351,4.632-.379,2.056.839,3.561,2.934,3.951,1.235.231,1.5.832,1.572,1.943.609,9.006,1.221,18.012,1.946,27.009.213,2.652-.648,3.775-3.4,3.607a72.728,72.728,0,0,0-8.386,0c-1.983.109-2.612-.542-2.564-2.539.125-5.268.042-10.541.043-15.812" transform="translate(-47.921 -66.138)" fill="#996a4a"/>
    <path id="Trazado_720623" data-name="Trazado 720623" d="M64.751,216.13c-1.34.286-1.9-.566-2.38-1.613-3.279-7.117-6.556-14.235-9.887-21.328a4.131,4.131,0,0,1-.026-3.98,41.526,41.526,0,0,0,1.645-3.846c1.3-3.265.718-4.83-2.712-5.252-3.8-.469-4.88-2.118-4.652-5.852.353-5.782.076-11.6.111-17.4.006-.913-.3-1.891.569-2.705,2.016-1.892,3.535-1.542,4.219,1.14q7.426,29.153,14.823,58.313c.41,1.61.595,2.844-1.708,2.526" transform="translate(-16.514 -54.078)" fill="#976849"/>
    <path id="Trazado_720624" data-name="Trazado 720624" d="M100.373,155.582c.652,2,1.145,3.973,3.545,4.6,1.2.316.942,1.285.945,2.093.021,5.163-.054,10.328.047,15.489.034,1.765-.564,2.542-2.315,2.679a13.252,13.252,0,0,0-3.125.751c-2.089.7-3.273,2.343-2.01,4.21,3.716,5.5,1.546,10.266-1.09,15.266-2.352,4.461-4.43,9.082-6.361,13.743-1.042,2.517-2.49,3.261-5.122,2.3l15.486-61.14" transform="translate(-30.011 -55.005)" fill="#976849"/>
    <path id="Trazado_720625" data-name="Trazado 720625" d="M196.305,189.765c-.736.861-1.025,1.9-2.563.975-3.278-1.964-7.084-.29-8.319,3.519-.286.88-.624,1.257-1.527,1.24-.987-.017-1.122-.584-1.33-1.42a5.6,5.6,0,0,0-8.158-3.435c-.935.561-1.431.615-2.155-.153s-.268-1.191.161-1.872c1.822-2.888,0-7.39-3.409-8.236-1.061-.263-1.44-.534-1.408-1.6s.681-1.023,1.468-1.2c3.324-.742,5.158-5.271,3.335-8.23-.425-.689-.862-1.129-.131-1.885s1.214-.707,2.134-.111a5.628,5.628,0,0,0,8.158-3.327c.2-.842.321-1.369,1.308-1.411,1.113-.048,1.328.482,1.59,1.485a5.722,5.722,0,0,0,8.26,3.206c.76-.474,1.206-.72,1.887,0a1.347,1.347,0,0,1,.193,1.923c-1.973,3.556-.439,7,3.689,8.366.787.26,1.021.616,1.018,1.332a1.249,1.249,0,0,1-.945,1.4c-4.367,1.688-5.507,4.511-3.631,8.673.118.261.252.516.375.764m-2.766-10.787a9.514,9.514,0,1,0-9.554,9.591,9.563,9.563,0,0,0,9.554-9.591" transform="translate(-59.253 -57.494)" fill="#6acbed"/>
    <path id="Trazado_720626" data-name="Trazado 720626" d="M78.768,218.055c-1.31-5.08-2.674-10.147-3.911-15.245-.7-2.892.1-5.772.4-8.649.565-5.452,1.165-10.9,1.666-16.357.147-1.6.757-2.1,2.4-2.091,1.858.012,1.7,1.114,1.826,2.307.748,7.161,1.529,14.318,2.3,21.477a3.1,3.1,0,0,1,.1.957q-2.073,8.862-4.188,17.715l-.592-.114" transform="translate(-26.366 -62.123)" fill="#f4627a"/>
    <path id="Trazado_720627" data-name="Trazado 720627" d="M138.286,150.5a12.772,12.772,0,0,1,3.378-15.633,13.6,13.6,0,0,1,16.471-.816,13.319,13.319,0,0,1,4.691,16.2c-1.632-2.065-3.055-4.243-5.734-4.808-1.467-.309-.425-1.1-.246-1.65,1.208-3.715.477-6.675-2.185-8.673a7.018,7.018,0,0,0-8.424-.041c-2.645,1.916-3.481,5-2.264,8.63.266.791.988,1.481-.487,1.852-2.533.637-4.128,2.441-5.2,4.941" transform="translate(-48.412 -46.548)" fill="#ecc049"/>
    <path id="Trazado_720628" data-name="Trazado 720628" d="M67.081,138.946a26.055,26.055,0,0,0,17.961.037c1.621,3.226,1,5.794-1.783,8.1a56.2,56.2,0,0,0-5.143,5.318c-1.4,1.515-2.683,1.483-4.055-.055a46.568,46.568,0,0,0-4.446-4.651c-2.744-2.325-4.245-4.914-2.534-8.752" transform="translate(-23.459 -49.124)" fill="#f2caaf"/>
    <path id="Trazado_720629" data-name="Trazado 720629" d="M152.7,157.794c1.178,0,2.359.045,3.535-.009,2.411-.11,4.634.236,5.374,2.952.8,2.922-1.285,4.693-3.268,5.965-3.592,2.3-10.478,1.368-13.66-1.376-1.528-1.317-1.049-2.953-.782-4.459a3.5,3.5,0,0,1,3.341-2.992c1.809-.147,3.639-.032,5.46-.032v-.049" transform="translate(-50.775 -55.778)" fill="#396dbb"/>
    <path id="Trazado_720630" data-name="Trazado 720630" d="M121.1,84.317c0-2.043.122-4.1-.032-6.128-.183-2.406.855-2.411,2.67-1.751a8.291,8.291,0,0,1,5.648,8.14,8.5,8.5,0,0,1-6.01,7.915c-1.647.481-2.407.167-2.3-1.724.116-2.145.027-4.3.027-6.452" transform="translate(-42.797 -26.892)" fill="#f2caaf"/>
    <path id="Trazado_720631" data-name="Trazado 720631" d="M37.19,84.619c0,2.141-.081,4.286.028,6.422.078,1.522-.513,1.834-1.877,1.554a8.462,8.462,0,0,1,.244-16.519c1.393-.253,1.648.273,1.621,1.478-.054,2.354-.016,4.71-.016,7.065" transform="translate(-10.196 -26.874)" fill="#f2caaf"/>
    <path id="Trazado_720632" data-name="Trazado 720632" d="M59.4,148.187c.459.4.958.782,1.385,1.23,2.153,2.253,4.185,4.632,6.461,6.751,1.6,1.49,1.678,2.446.08,4.068-3.641,3.7-3.659,3.856-6.381-.532-1.831-2.954-1.821-6.568-2.911-9.809-.293-.871.718-1.177,1.365-1.707" transform="translate(-20.501 -52.391)" fill="#e2e9f1"/>
    <path id="Trazado_720633" data-name="Trazado 720633" d="M93.166,163.438c-5.078-4.936-5.078-4.936-.278-9.957,1.329-1.391,2.652-2.787,3.991-4.168.432-.447.864-1.081,1.6-.685a1.324,1.324,0,0,1,.828,1.562c-1.393,4.718-1.442,10.063-6.139,13.248" transform="translate(-31.579 -52.503)" fill="#e2e9f1"/>
    <path id="Trazado_720634" data-name="Trazado 720634" d="M64.542,175.09c2.66.96,4.17-.417,6.051-2.533-.649,6.066-1.211,11.323-1.773,16.579l-.647.049c-1.151-4.47-2.3-8.939-3.631-14.095" transform="translate(-22.819 -61.007)" fill="#c9d4de"/>
    <path id="Trazado_720635" data-name="Trazado 720635" d="M159.561,143.57c-.184,2.422-1.422,3.929-3.826,3.95a3.806,3.806,0,0,1-.227-7.607c2.409-.1,3.716,1.323,4.053,3.656" transform="translate(-53.7 -49.464)" fill="#f2caaf"/>
    <path id="Trazado_720636" data-name="Trazado 720636" d="M89.256,174.247a7.322,7.322,0,0,0,5.8,1.773l-3.61,14.194-.506-.023q-.84-7.972-1.679-15.944" transform="translate(-31.556 -61.604)" fill="#c9d4de"/>
    <path id="Trazado_720637" data-name="Trazado 720637" d="M80.5,169.277c-1.189-.078-2.594.032-2.694-1.186-.1-1.166,1.111-1.559,2.275-1.635,1.353-.088,2.523.452,2.533,1.714.008,1.075-1.407.9-2.113,1.107" transform="translate(-27.508 -58.847)" fill="#f4627a"/>
    <path id="Trazado_720638" data-name="Trazado 720638" d="M120.925,170.928v-7.223c1,2.7,3.21,4.509,0,7.223" transform="translate(-42.753 -57.877)" fill="#744d33"/>
    <path id="Trazado_720639" data-name="Trazado 720639" d="M77.511,115.139a10.7,10.7,0,0,1-7.013-2.711c-.856-.8-1.408-1.745-.522-2.778.807-.941,1.637-.424,2.517.167,4.083,2.743,6.28,2.764,10.137.044,1-.707,1.839-1.152,2.737-.035.827,1.029.107,1.8-.581,2.488a10.426,10.426,0,0,1-7.276,2.824" transform="translate(-24.58 -38.583)" fill="#080706"/>
    <path id="Trazado_720640" data-name="Trazado 720640" d="M100.265,88.76c-.12,2.07-1.232,3.33-3.182,3.36a2.988,2.988,0,0,1-3.228-3.225,2.909,2.909,0,0,1,2.985-3.107c2.051-.108,3.122,1.049,3.426,2.972" transform="translate(-33.182 -30.327)" fill="#080706"/>
    <path id="Trazado_720641" data-name="Trazado 720641" d="M66.692,88.863c-.145,2.067-1.275,3.3-3.239,3.265A2.948,2.948,0,0,1,60.361,88.8,2.883,2.883,0,0,1,63.4,85.775c2.076-.046,3.065,1.168,3.29,3.087" transform="translate(-21.339 -30.325)" fill="#080706"/>
    <path id="Trazado_720642" data-name="Trazado 720642" d="M197.322,182.693a9.513,9.513,0,1,1-9.627-9.563,9.475,9.475,0,0,1,9.627,9.563m-9.474-6.274a6.191,6.191,0,0,0-6.3,6.355,6.268,6.268,0,1,0,6.3-6.355" transform="translate(-63.036 -61.209)" fill="#080706"/>
    <path id="Trazado_720643" data-name="Trazado 720643" d="M189.629,178.218a6.317,6.317,0,1,1-6.3,6.355,6.191,6.191,0,0,1,6.3-6.355" transform="translate(-64.817 -63.008)" fill="#3aa5d6"/>
  </g>
</svg>
