<svg xmlns="http://www.w3.org/2000/svg" xmlns:xlink="http://www.w3.org/1999/xlink" width="142" height="142" viewBox="0 0 142 142">
  <defs>
    <clipPath id="clip-path">
      <rect id="Rectángulo_350828" data-name="Rectángulo 350828" width="130.112" height="130.09" fill="none"/>
    </clipPath>
  </defs>
  <g id="Grupo_1018228" data-name="Grupo 1018228" transform="translate(-1040 -1194)">
    <circle id="Elipse_5856" data-name="Elipse 5856" cx="71" cy="71" r="71" transform="translate(1040 1194)" fill="#fff"/>
    <g id="Grupo_1018177" data-name="Grupo 1018177" transform="translate(1049.944 1199.955)">
      <g id="Grupo_1018176" data-name="Grupo 1018176" clip-path="url(#clip-path)">
        <path id="Trazado_720474" data-name="Trazado 720474" d="M64.871,130.016c-20.605,0-41.212-.059-61.816.073-2.636.017-3.272-.736-3-3.157.246-2.158-.122-4.405.265-6.524a14.542,14.542,0,0,1,10.919-12.086c.918-.27,1.859-.468,2.767-.769a2.169,2.169,0,0,0,.879-3.731,12.362,12.362,0,0,1-3.928-6.632,2.716,2.716,0,0,0-1.585-1.877c-4.524-2.651-6.16-7.032-4.393-11.828a3.807,3.807,0,0,0,.005-2.939A9.3,9.3,0,0,1,7.334,69.993a3.645,3.645,0,0,0,1.174-2.949c-.056-5.588.023-11.177-.057-16.764-.021-1.486.169-2.312,1.931-2.052,1.479.219,2.922-.085,3.264-1.826.345-1.757-.933-2.484-2.349-2.926-1.335-.417-1.687-1.029-1.069-2.431,1.791-4.058,3.465-8.17,5.1-12.295.5-1.254,1.067-1.555,2.273-.9,1.267.693,2.715,1.2,3.774-.235,1.147-1.551.212-2.81-1-3.819-1.036-.861-1.088-1.477-.045-2.474q4.826-4.614,9.442-9.446c1-1.044,1.611-.989,2.473.045,1.007,1.208,2.256,2.167,3.812,1.008,1.423-1.06.94-2.505.242-3.775-.66-1.2-.373-1.777.89-2.275,4.126-1.627,8.237-3.3,12.3-5.086,1.384-.609,2.023-.321,2.435,1.046.428,1.423,1.147,2.7,2.908,2.366,1.738-.332,2.064-1.758,1.85-3.247C56.429.25,57.163-.035,58.7,0c4.276.1,8.556.077,12.833.012,1.313-.02,2.173.076,1.964,1.747C73.3,3.309,73.476,4.893,75.4,5.215c1.755.293,2.458-1.019,2.872-2.436.424-1.45,1.16-1.542,2.468-.969,3.983,1.747,8,3.432,12.055,5,1.363.526,1.77,1.074,1.055,2.4-.692,1.285-1.148,2.715.309,3.754,1.595,1.137,2.819.116,3.8-1.083.914-1.116,1.54-.932,2.471.035q4.544,4.714,9.26,9.259c1.014.976,1.319,1.663.079,2.659-1.134.91-2.075,2.075-1.1,3.591,1.069,1.665,2.591,1.14,3.932.4,1.279-.7,1.771-.234,2.246.953,1.648,4.119,3.318,8.232,5.11,12.29.637,1.441.173,2.009-1.128,2.414-1.424.444-2.681,1.176-2.306,2.94.37,1.738,1.814,2.024,3.285,1.8,1.809-.275,1.917.636,1.9,2.075-.061,6.9,0,13.8-.05,20.693a4.807,4.807,0,0,0,1.227,3.508,20.562,20.562,0,0,1,5.095,13.916,166.05,166.05,0,0,1-1.764,22.165,3.911,3.911,0,0,0,.871,3.315c3.7,4.555,2.945,10.01,2.974,15.3,0,.724-.448.827-1.023.817-.611-.012-1.223,0-1.834,0H64.871M88.078,75.473l-4.061.008c-.023-13.074-.077-26.149-.029-39.223.007-1.779-.275-2.393-2.246-2.076-10.915,1.753-21.835,3.5-32.794,4.945-2.537.334-2.776,1.315-2.764,3.407.06,10.982-.006,21.965-.028,32.947l-4.062-.008V47.612a5.149,5.149,0,0,0-.97.094q-11.976,5.22-23.946,10.456c-4.558,1.993-4.528,1.994-4.516,6.869,0,1.333-.061,2.285,1.844,2.159,1.6-.105,2.768-.124,2.368-2.181-.342-1.757.5-2.025,2.127-2.158,2.523-.206,2.182,1.338,2.04,2.756-.168,1.686.865,1.615,1.945,1.5.964-.1,2.421.635,2.293-1.417-.114-1.827-.046-3.667-.009-5.5.01-.536-.264-1.166.647-1.458,2.237-.718,3.53.157,3.535,2.529,0,.961,0,1.921,0,2.882,0,3.89,0,3.89,4.189,4.478,0-4.116.081-8.22-.04-12.319-.048-1.626.607-1.9,1.978-1.779,1.163.1,2.4-.355,2.307,1.72-.175,3.748.1,7.517-.095,11.263-.173,3.25.25,6.182,2.617,8.594,2.1,4.894,2.518,9.976-.063,14.644a119.383,119.383,0,0,1-8.739,12.826c-1.341,1.817-1.1,3.6,1.151,4.1,4.307.962,8.091,2.71,10.693,6.442.47.673.772.835,1.307.056,2.638-3.841,6.512-5.683,10.929-6.505,1.951-.363,2.363-2.484,1.786-3-2.494-2.226-3.306-5.551-5.453-7.839-5.866-6.252-7.187-13.28-4.492-21.249,2.684-2.958,3.249-6.473,2.922-10.323-.175-2.059-.744-4.839.3-6.049,1.236-1.428,4.081-.419,6.222-.445,5.987-.073,6.035-.025,5.987,6-.013,1.605.064,2.455,2.126,2.456s2.235-.849,2.116-2.458c-.109-1.473.055-2.966-.047-4.44-.087-1.26.342-1.647,1.6-1.607a79.648,79.648,0,0,0,8.359-.022c2.155-.159,2.725.446,2.719,2.653-.014,4.9-1.309,10.132,2.808,14.24,1.941,5.125,2.124,10.388-.394,15.206a85.544,85.544,0,0,1-8.186,12.228c-2.189,2.849-2.006,4.135,1.614,4.949,3.6.81,6.866,2.3,8.983,5.344,1.554,2.231,2.061.77,2.97-.33.62-.75.243-1.48.156-2.232-.8-6.831-1.563-13.658-1.76-20.548A24.3,24.3,0,0,1,89.74,76.069c2.192-1.793,2.786-4.093,2.649-6.884-.205-4.182.045-8.385-.1-12.573-.061-1.795.571-2.08,2.2-2.136,1.844-.064,2.114.651,2.079,2.244-.1,4.294-.033,8.591-.033,12.813,3.737-.378,4.746-2.4,4.213-5.564-.158-.934.058-1.927-.043-2.876-.175-1.65.114-2.434,2.144-2.449,2.126-.017,2.183.944,2.092,2.5s0,3.143-.026,4.715c-.011.779.058,1.352,1.1,1.286,1.623-.1,3.775.61,3.1-2.429-.424-1.916.856-1.816,2.154-1.813,1.208,0,2.091-.1,2.089,1.681-.006,4,.113,4,4.134,4.892,0-2.46-.1-4.909.035-7.345a2.557,2.557,0,0,0-1.877-2.885c-8.411-3.588-16.769-7.3-25.158-10.939-.683-.3-1.327-.908-2.413-.485Zm29.21-20.059c.425-1.927.254-2.966-1.55-3.814a5.934,5.934,0,0,1-2.334-9.072c1.615-1.96,1.354-3.437.39-5.291a13.9,13.9,0,0,1-.919-2.162c-.512-1.6-1.208-2.488-3.241-2.56-3.567-.126-6.451-3.844-5.3-7.2.948-2.754-.272-4-1.907-5.465a14.461,14.461,0,0,1-1.481-1.481A2.956,2.956,0,0,0,97.2,17.29c-3.687,1.234-7.772-1.228-7.925-4.944-.1-2.435-1.3-3.095-3.091-3.719a17.653,17.653,0,0,1-2.648-1.113c-1.465-.8-2.505-.647-3.883.532a5.967,5.967,0,0,1-9.235-1.62C69.353,4.3,68.032,4.073,66.124,4.218a22.075,22.075,0,0,1-3.4,0,2.227,2.227,0,0,0-2.536,1.569C58.415,9.469,54,10.81,50.959,8.31c-1.976-1.627-3.439-1.312-5.3-.373a19.338,19.338,0,0,1-2.9,1.2c-1.254.394-1.645,1.1-1.728,2.457-.255,4.174-3.922,6.967-7.832,5.726a3.368,3.368,0,0,0-4.2,1.255,17.911,17.911,0,0,1-2.217,2.224,2.981,2.981,0,0,0-1.059,3.759,5.991,5.991,0,0,1-4.976,7.936,3.465,3.465,0,0,0-3.586,2.857A16.21,16.21,0,0,1,16.073,38c-.744,1.484-.924,2.583.424,4.124a6.031,6.031,0,0,1-2.1,9.5c-1.974.917-1.887,2.007-1.494,3.8,2.33-1.017,4.45-2.024,6.634-2.867a3.066,3.066,0,0,0,2.172-2.789,44.021,44.021,0,0,1,52.6-36.122c17.429,3.612,31.2,18.158,34.2,36.138.153.914-.025,1.878,1.188,2.358,2.5.989,4.942,2.124,7.586,3.277m4.827,53.892a131.343,131.343,0,0,0,1.644-21.863A16.818,16.818,0,0,0,107.3,71.319c-8.881-.119-16.612,6.831-17,15.539a118.619,118.619,0,0,0,1.628,22.476,45.808,45.808,0,0,0,5.314-1.75c1.35-.626,3.3-1.963,1.716-3.426-4.216-3.886-4.8-8.664-4.538-13.883.17-3.347,1.36-6.3,4.165-8.05,2.021-1.258,2.685-2.53,2.162-4.733-.314-1.318.119-2.151,1.755-2.011,1.3.111,2.492-.259,2.485,1.9-.011,3.271,1.872,5.014,5.173,5.449,1.383.182,2.777.316,4.144.587,2.3.455,4.3,1.686,4.754,3.987,1.106,5.59,1.308,11.142-3.084,15.713-1.849,1.925-1.549,3.58.968,4.58,1.608.639,3.311,1.039,5.171,1.607M82.7,21.48c-13.174-6.59-26.059-6.221-38.448,1.362C34.356,28.9,28.379,37.816,25.9,49.753c5.431-2.384,10.265-4.553,15.146-6.61.986-.416.991-1.043.989-1.842-.007-2.707,0-5.414,0-8.12,0-5.728.013-5.636,5.572-6.442,11.709-1.7,23.4-3.5,35.1-5.259M52.274,90.264c.586-2.811,1.206-5.2,3.082-6.932,1.831-1.69,3.781-3.181,4.988-5.512a4.563,4.563,0,0,1,4.208-2.251c.926.012,2.514-.855,2.595,1.1.059,1.419.714,3.307-2.031,3.094a1.866,1.866,0,0,0-2.052,2.181c.1,1.337,1.055,1.928,2.361,1.936s2.619.012,3.929.007c1.918-.008,3.834-.135,5.536,1.086a7.849,7.849,0,0,1,2.979,5.009,8.755,8.755,0,0,0,1.69-4.292C81.23,77.31,76.363,71.33,67.9,71.319c-2.008,0-4.017.031-6.024-.007-4.472-.084-8.14,1.513-10.18,5.586-2.164,4.322-1.729,8.724.576,13.366m-16.286-.258c4.347-8,.4-16.949-8.166-18.411-4.8-.82-9.758-.436-14.626-.126-2.734.175-4.658,2.753-4.7,5.465-.038,2.474,1.766,5.246,4.275,5.606,2.39.342,3.75-1.436,4.77-3.505a5.894,5.894,0,0,1,5.422-3.506c1.039-.019,2.446-.462,2.3,1.48-.1,1.293.521,2.95-1.886,2.737a1.918,1.918,0,0,0-2.239,2.016c-.005,1.5,1.016,2.114,2.433,2.124,1.483.01,2.967,0,4.451.007,4.745.008,6.54,1.352,7.966,6.114m79.487,2.563c-.077-4.846-.073-4.877-4.832-5.453a13.426,13.426,0,0,1-5.235-1.43c-2.739-1.573-4.882-.814-6.225,2.205-.965,2.169-.567,4.468-.519,6.7a8.35,8.35,0,0,0,16.506,1.6,25.554,25.554,0,0,0,.3-3.627M14.794,92.453c0,.94-.05,1.729.008,2.51a8.375,8.375,0,0,0,16.707.017c.1-1.39.01-2.792.039-4.189.038-1.85-.839-2.749-2.7-2.708-1.047.023-2.1-.025-3.143.008-2.746.087-5.436.091-7.412-2.332-.824-1.009-1.379-.045-1.863.465-1.719,1.81-1.783,4.077-1.639,6.228m58.747.283c-.067-4.649-.067-4.649-4.754-4.65-1.135,0-2.271-.021-3.4,0a5.459,5.459,0,0,1-4.5-1.723c-1.358-1.628-2.171-.808-2.951.384-1.984,3.035-1.493,6.429-.9,9.639a8.035,8.035,0,0,0,8.2,6.364,8.369,8.369,0,0,0,8.036-6.637,24.889,24.889,0,0,0,.273-3.38m30.7-43.019c-2.158-10.768-7.423-18.84-16.093-25.41,0,6.126,0,11.754,0,17.382a1.28,1.28,0,0,0,.867,1.391c4.922,2.1,9.819,4.269,15.23,6.636M83.9,27.742c.564-2.21-.652-2.164-2.293-1.91-11.188,1.731-22.373,3.5-33.589,5.033-2.519.345-1.715,1.876-1.787,3.169-.112,2.013,1.414,1.1,2.187.99,11.2-1.646,22.387-3.4,33.594-5.019,1.553-.224,2.252-.665,1.888-2.263m22.869,87.6c2.007,0,4.022-.106,6.02.029,2.091.141,2.752-1.567,3.319-2.808.513-1.124-1.244-.958-1.917-1.465a9.9,9.9,0,0,1-3.142-3.437c-.29-.584-.444-1.313-1.478-1.015a9.325,9.325,0,0,1-5.169-.007c-.841-.237-1.06.261-1.336.826a8.3,8.3,0,0,1-4.475,4.189c-.58.235-1.3.363-.621,1.213,1,1.247,1.671,2.835,3.832,2.521a34.865,34.865,0,0,1,4.968-.047m-87.9,10.483c-3.164-4.065-6.011-7.663-8.781-11.321-.894-1.18-1.488-.358-2.089.164-3.1,2.693-3.931,6.221-3.721,10.155.07,1.311.957.987,1.663.991,4.1.021,8.193.01,12.928.01m8.586,0c4.747,0,8.846.009,12.945-.008.716,0,1.579.289,1.645-1.013.2-3.935-.635-7.458-3.737-10.15-.62-.539-1.207-1.3-2.088-.133-2.764,3.657-5.612,7.251-8.766,11.3m75.258,0c-3.114-4.009-5.867-7.483-8.529-11.026-.781-1.04-1.368-1.01-2.269-.216-3.073,2.71-3.992,6.179-3.789,10.117.05.97.482,1.137,1.3,1.133,4.235-.019,8.471-.009,13.29-.009m8.6,0c4.857,0,9.1,0,13.345,0,.653,0,1.174-.033,1.227-.922.24-4.018-.627-7.6-3.823-10.349-.749-.643-1.315-.935-2.088.089-2.713,3.6-5.514,7.132-8.661,11.179m-50.521,0c-3.149-4.05-5.953-7.583-8.666-11.185-.778-1.034-1.351-.715-2.089-.081-3.2,2.746-4.066,6.333-3.822,10.354.055.9.585.915,1.232.914,4.245,0,8.49,0,13.344,0m8.6,0H82.878a.931.931,0,0,0,1.084-.795c.851-3.116-1.408-9.012-4.148-10.726-.567-.355-.989-.629-1.52.058-2.843,3.688-5.711,7.357-8.905,11.463m-.314-6.419c.028-1.007-3.822-3.428-4.648-3.035-3.421,1.629-3.66,2.618-1.343,5.571.429.546.851,1.1,1.289,1.638.261.32.614.876,1.007.422,1.3-1.508,2.507-3.1,3.695-4.6m-41.918-.014c.018-.843-3.714-3.4-4.443-3.156-3.107,1.06-3.7,2.96-1.711,5.506.481.617.959,1.236,1.451,1.844.261.322.613.869,1.008.411,1.3-1.511,2.505-3.107,3.7-4.606m-5.639-12.516c-1.135-.222-1.7-.548-1.954.193a1.152,1.152,0,0,0,.471,1.569c.82.489,1.559,1.12,2.4,1.572,1.009.545,4.421-1.436,4.437-2.55.013-.9-.409-1.193-1.339-.948a10.2,10.2,0,0,1-4.012.164m41.988.008c-1.174-.221-1.738-.566-2.007.165a1.144,1.144,0,0,0,.445,1.577c.819.492,1.561,1.116,2.4,1.573.989.542,4.423-1.416,4.452-2.517.024-.878-.36-1.23-1.314-.974a10.155,10.155,0,0,1-3.972.177M54.69,65.754c.473.531-1.088,2.4.724,2.3,1.434-.087,3.83.013,3.458-2.965-.19-1.519-.289-2.166-2.093-2.24-2.252-.093-2.4.963-2.09,2.91m20.858.161c.03-1.7.511-3.285-2.164-3.078-1.789.138-1.9.738-2.085,2.252-.374,2.98,2.013,2.813,3.466,2.972,1.691.185.263-1.607.783-2.145M110.5,119.662H103.58c3.1,5.342,3.328,5.361,6.647.657a4.161,4.161,0,0,0,.27-.657M15.949,111.3c-.531.706-2.231.022-1.963,1.1.3,1.2,1.157,2.778,2.581,2.918.937.092,2.527-1.064,2.42-1.877-.162-1.231-1.684-1.737-3.039-2.144m11.086,2.325c1.4.208,2.045,3.272,3.931.826.55-.713,1.914-1.364,1.21-2.482-.773-1.229-3.168-.439-5.141,1.656m34.069-.116a4.6,4.6,0,0,0-2.482-1.9,2.469,2.469,0,0,0-2.624.534c-.529.6.506,1.1.815,1.665,1.668,3.021,2.875.626,4.291-.3m7.767.122c1.531.079,2.052,3.12,3.87.9.573-.7,2.366-1.637,1.172-2.543-1.643-1.246-3.385-.22-5.042,1.64M10.325,90.668c.262-1.171.506-2.146.695-3.132.263-1.371-.905-1.761-1.726-1.812-1.2-.076-.783,1.112-.745,1.761a3.981,3.981,0,0,0,1.776,3.183" transform="translate(0 0)" fill="#040303"/>
        <path id="Trazado_720475" data-name="Trazado 720475" d="M128.786,59.209c-2.644-1.153-5.086-2.288-7.586-3.277-1.212-.48-1.035-1.443-1.188-2.357-3-17.981-16.774-32.527-34.2-36.139a44.021,44.021,0,0,0-52.6,36.122,3.065,3.065,0,0,1-2.172,2.789c-2.183.844-4.3,1.85-6.634,2.867-.392-1.794-.479-2.883,1.495-3.8a6.031,6.031,0,0,0,2.1-9.5c-1.348-1.542-1.168-2.64-.424-4.124a16.21,16.21,0,0,0,1.1-2.652,3.465,3.465,0,0,1,3.586-2.857,5.991,5.991,0,0,0,4.976-7.936,2.981,2.981,0,0,1,1.058-3.759,17.88,17.88,0,0,0,2.218-2.224,3.368,3.368,0,0,1,4.2-1.255c3.91,1.242,7.577-1.551,7.832-5.726.083-1.355.474-2.063,1.728-2.457a19.283,19.283,0,0,0,2.9-1.2c1.857-.939,3.32-1.253,5.3.373,3.038,2.5,7.455,1.16,9.225-2.526A2.226,2.226,0,0,1,74.218,8.01a22.141,22.141,0,0,0,3.4,0c1.909-.144,3.23.085,4.293,2.208a5.967,5.967,0,0,0,9.235,1.62c1.378-1.178,2.419-1.333,3.883-.532a17.6,17.6,0,0,0,2.648,1.113c1.787.625,2.99,1.285,3.091,3.72.153,3.716,4.238,6.177,7.925,4.943a2.957,2.957,0,0,1,3.75,1.083,14.408,14.408,0,0,0,1.481,1.481c1.635,1.471,2.855,2.711,1.907,5.465-1.153,3.352,1.73,7.069,5.3,7.2,2.033.072,2.729.958,3.241,2.56a13.928,13.928,0,0,0,.919,2.163c.964,1.854,1.224,3.331-.39,5.291a5.934,5.934,0,0,0,2.334,9.072c1.8.848,1.975,1.887,1.55,3.814" transform="translate(-11.498 -3.795)" fill="#f6d26d"/>
        <path id="Trazado_720476" data-name="Trazado 720476" d="M88.023,106.415c.022-10.982.088-21.965.027-32.947-.012-2.092.227-3.073,2.764-3.408,10.959-1.444,21.879-3.192,32.794-4.945,1.971-.317,2.253.3,2.246,2.076-.048,13.074.007,26.149.029,39.223l-1.373.1c-4.117-4.108-2.823-9.344-2.809-14.24.007-2.208-.564-2.812-2.719-2.653a79.647,79.647,0,0,1-8.359.022c-1.26-.04-1.688.347-1.6,1.607.1,1.474-.062,2.967.047,4.44.119,1.609-.052,2.459-2.116,2.458s-2.139-.851-2.126-2.456c.049-6.022,0-6.07-5.987-6-2.14.026-4.985-.983-6.222.445-1.047,1.209-.479,3.99-.3,6.049.328,3.849-.238,7.364-2.922,10.323l-1.371-.1M104.7,79.4c0-2.076.817-4.868-.211-6.043-1.23-1.4-4.086-.408-6.232-.433-5.976-.068-5.99-.024-5.97,6.051.007,2.076-.7,4.86.355,6.045,1.245,1.4,4.091.407,6.236.432,5.976.068,5.977.024,5.822-6.052m16.779.013c0-2.078.817-4.862-.211-6.049-1.227-1.416-4.084-.414-6.228-.438-5.989-.07-6-.025-5.982,6.038.007,2.078-.7,4.855.347,6.051,1.242,1.413,4.088.412,6.233.437,5.989.07,5.989.025,5.842-6.039" transform="translate(-41.867 -30.933)" fill="#e4e7eb"/>
        <path id="Trazado_720477" data-name="Trazado 720477" d="M203.957,174c-1.86-.568-3.563-.968-5.171-1.607-2.517-1-2.817-2.655-.968-4.58,4.392-4.571,4.19-10.123,3.084-15.713-.456-2.3-2.458-3.532-4.754-3.987-1.366-.271-2.76-.4-4.144-.587-3.3-.436-5.184-2.178-5.173-5.45.007-2.161-1.182-1.791-2.485-1.9-1.635-.139-2.068.693-1.755,2.011.523,2.2-.141,3.476-2.162,4.734-2.805,1.746-4,4.7-4.165,8.05-.265,5.218.321,10,4.538,13.883,1.588,1.463-.367,2.8-1.716,3.426a45.9,45.9,0,0,1-5.314,1.75,118.621,118.621,0,0,1-1.628-22.476c.387-8.708,8.118-15.657,17-15.539A16.819,16.819,0,0,1,205.6,152.132,131.34,131.34,0,0,1,203.957,174" transform="translate(-81.843 -64.69)" fill="#ad7644"/>
        <path id="Trazado_720478" data-name="Trazado 720478" d="M167.97,118.725V91.08c1.086-.424,1.73.188,2.413.485,8.389,3.64,16.747,7.351,25.158,10.939a2.557,2.557,0,0,1,1.877,2.885c-.132,2.436-.035,4.885-.035,7.345-4.021-.895-4.14-.9-4.134-4.892,0-1.784-.88-1.678-2.089-1.681-1.3,0-2.578-.1-2.154,1.813.673,3.039-1.479,2.327-3.1,2.429-1.042.066-1.111-.507-1.1-1.286.022-1.572-.066-3.148.026-4.715s.035-2.521-2.091-2.5c-2.03.016-2.319.8-2.144,2.449.1.95-.115,1.942.042,2.876.533,3.162-.477,5.187-4.213,5.564,0-4.223-.063-8.52.033-12.814.035-1.592-.235-2.308-2.079-2.244-1.625.056-2.257.342-2.2,2.137.144,4.187-.106,8.39.1,12.572.137,2.792-.457,5.091-2.649,6.885-.386-.666-1.055-.547-1.662-.6" transform="translate(-79.892 -43.252)" fill="#c9ced6"/>
        <path id="Trazado_720479" data-name="Trazado 720479" d="M53.577,118.661c-.624.043-1.3-.047-1.686.628-2.368-2.412-2.789-5.344-2.617-8.594.2-3.745-.08-7.515.1-11.262.1-2.076-1.145-1.616-2.307-1.72-1.372-.123-2.027.154-1.979,1.779.121,4.1.04,8.2.04,12.319-4.189-.589-4.189-.589-4.189-4.478,0-.961,0-1.921,0-2.882-.005-2.372-1.3-3.246-3.535-2.529-.911.293-.636.922-.647,1.459-.036,1.834-.1,3.674.009,5.5.128,2.052-1.329,1.317-2.293,1.417-1.08.112-2.114.184-1.945-1.5.142-1.418.483-2.963-2.04-2.756-1.626.133-2.469.4-2.127,2.158.4,2.057-.769,2.075-2.368,2.181-1.905.126-1.841-.826-1.844-2.159-.012-4.875-.042-4.877,4.516-6.869q11.971-5.233,23.947-10.456a5.059,5.059,0,0,1,.969-.094Z" transform="translate(-11.484 -43.187)" fill="#c9ced6"/>
        <path id="Trazado_720480" data-name="Trazado 720480" d="M97.889,154.947c-2.305-4.642-2.74-9.044-.576-13.366,2.039-4.073,5.707-5.67,10.18-5.586,2.008.038,4.016,0,6.024.006,8.462.012,13.328,5.991,11.656,14.376a8.759,8.759,0,0,1-1.69,4.292,7.849,7.849,0,0,0-2.979-5.01c-1.7-1.222-3.618-1.095-5.536-1.086q-1.964.008-3.929-.007c-1.307-.009-2.257-.6-2.361-1.936a1.866,1.866,0,0,1,2.052-2.181c2.746.213,2.09-1.674,2.031-3.093-.08-1.956-1.669-1.091-2.595-1.1a4.563,4.563,0,0,0-4.208,2.251c-1.207,2.33-3.157,3.821-4.988,5.512-1.876,1.732-2.5,4.12-3.082,6.931" transform="translate(-45.615 -64.682)" fill="#636a75"/>
        <path id="Trazado_720481" data-name="Trazado 720481" d="M43.7,154.5c-1.425-4.761-3.22-6.106-7.966-6.114-1.483,0-2.967,0-4.451-.007-1.417-.01-2.438-.625-2.433-2.124a1.918,1.918,0,0,1,2.24-2.016c2.406.213,1.788-1.444,1.886-2.737.146-1.942-1.261-1.5-2.3-1.48a5.9,5.9,0,0,0-5.422,3.506c-1.02,2.069-2.38,3.848-4.77,3.505-2.509-.36-4.312-3.132-4.275-5.606.041-2.711,1.965-5.29,4.7-5.464,4.867-.31,9.822-.694,14.626.126C44.1,137.553,48.043,146.5,43.7,154.5" transform="translate(-7.707 -64.495)" fill="#636a75"/>
        <path id="Trazado_720482" data-name="Trazado 720482" d="M204.86,169.567a25.549,25.549,0,0,1-.3,3.627,8.35,8.35,0,0,1-16.505-1.6c-.049-2.234-.447-4.532.518-6.7,1.344-3.02,3.487-3.779,6.225-2.205a13.417,13.417,0,0,0,5.235,1.43c4.758.576,4.754.608,4.831,5.453" transform="translate(-89.385 -76.998)" fill="#ecccb1"/>
        <path id="Trazado_720483" data-name="Trazado 720483" d="M28.168,169.843c-.144-2.15-.079-4.418,1.639-6.227.485-.51,1.04-1.475,1.863-.466,1.977,2.423,4.667,2.419,7.413,2.332,1.046-.033,2.1.014,3.142-.009,1.859-.04,2.735.858,2.7,2.709-.029,1.4.062,2.8-.039,4.189a8.375,8.375,0,0,1-16.707-.018c-.059-.781-.008-1.57-.008-2.51" transform="translate(-13.374 -77.389)" fill="#ecccb1"/>
        <path id="Trazado_720484" data-name="Trazado 720484" d="M124.8,170.251a24.982,24.982,0,0,1-.273,3.381,8.37,8.37,0,0,1-8.036,6.637,8.035,8.035,0,0,1-8.2-6.364c-.6-3.21-1.087-6.6.9-9.639.779-1.192,1.593-2.011,2.951-.384a5.455,5.455,0,0,0,4.5,1.723c1.134-.024,2.269,0,3.4,0,4.687,0,4.687,0,4.754,4.65" transform="translate(-51.258 -77.514)" fill="#ecccb1"/>
        <path id="Trazado_720485" data-name="Trazado 720485" d="M125.783,51.066c.363,1.6-.335,2.039-1.888,2.263C112.688,54.945,101.5,56.7,90.3,58.348c-.772.114-2.3,1.023-2.187-.99.072-1.292-.731-2.824,1.787-3.169,11.216-1.535,22.4-3.3,33.589-5.033,1.641-.254,2.857-.3,2.293,1.91" transform="translate(-41.878 -23.323)" fill="#c5cad1"/>
        <path id="Trazado_720486" data-name="Trazado 720486" d="M195.392,212.008a34.865,34.865,0,0,0-4.968.047c-2.161.314-2.833-1.274-3.832-2.521-.681-.85.041-.978.621-1.213a8.3,8.3,0,0,0,4.475-4.189c.276-.565.5-1.063,1.336-.826a9.325,9.325,0,0,0,5.169.007c1.034-.3,1.187.43,1.478,1.015a9.9,9.9,0,0,0,3.142,3.437c.673.507,2.43.341,1.917,1.465-.567,1.241-1.228,2.949-3.319,2.808-2-.135-4.013-.029-6.02-.029" transform="translate(-88.618 -96.669)" fill="#ecccb1"/>
        <path id="Trazado_720487" data-name="Trazado 720487" d="M22.722,229.132c-4.735,0-8.831.011-12.928-.01-.705,0-1.593.321-1.663-.991-.211-3.934.619-7.462,3.721-10.155.6-.522,1.2-1.344,2.089-.164,2.769,3.657,5.617,7.255,8.781,11.321" transform="translate(-3.853 -103.311)" fill="#f6d26d"/>
        <path id="Trazado_720488" data-name="Trazado 720488" d="M52.358,229.141c3.154-4.053,6-7.647,8.766-11.3.88-1.164,1.467-.406,2.088.133,3.1,2.693,3.937,6.215,3.737,10.15-.067,1.3-.929,1.009-1.646,1.013-4.1.017-8.2.008-12.945.008" transform="translate(-24.903 -103.319)" fill="#f6d26d"/>
        <path id="Trazado_720489" data-name="Trazado 720489" d="M182.625,229.217c-4.819,0-9.055-.01-13.29.009-.814,0-1.246-.164-1.3-1.133-.2-3.939.715-7.407,3.788-10.117.9-.795,1.489-.824,2.27.216,2.661,3.543,5.415,7.017,8.528,11.026" transform="translate(-79.912 -103.4)" fill="#fa7f6c"/>
        <path id="Trazado_720490" data-name="Trazado 720490" d="M212.277,229.191c3.148-4.048,5.949-7.58,8.661-11.179.772-1.025,1.339-.733,2.087-.089,3.2,2.746,4.063,6.331,3.823,10.35-.053.888-.574.922-1.227.921-4.244-.005-8.488,0-13.345,0" transform="translate(-100.966 -103.374)" fill="#fa7f6c"/>
        <path id="Trazado_720491" data-name="Trazado 720491" d="M102.673,229.188c-4.854,0-9.1,0-13.344,0-.647,0-1.178-.018-1.232-.914-.244-4.021.625-7.609,3.822-10.355.738-.634,1.31-.952,2.089.081,2.713,3.6,5.516,7.136,8.666,11.185" transform="translate(-41.884 -103.371)" fill="#b0d87c"/>
        <path id="Trazado_720492" data-name="Trazado 720492" d="M132.328,229.155c3.194-4.106,6.062-7.775,8.906-11.463.53-.687.952-.413,1.519-.058,2.74,1.714,5,7.61,4.148,10.726a.931.931,0,0,1-1.084.795H132.328" transform="translate(-62.94 -103.34)" fill="#b0d87c"/>
        <path id="Trazado_720493" data-name="Trazado 720493" d="M124.916,224.905c-1.187,1.493-2.391,3.087-3.695,4.6-.392.454-.746-.1-1.007-.422-.438-.539-.86-1.091-1.289-1.638-2.317-2.953-2.079-3.942,1.343-5.571.826-.393,4.676,2.028,4.648,3.035" transform="translate(-55.841 -105.509)" fill="#fa7f6c"/>
        <path id="Trazado_720494" data-name="Trazado 720494" d="M45.163,224.794c-1.189,1.5-2.393,3.094-3.695,4.606-.4.459-.748-.089-1.008-.411-.492-.608-.97-1.228-1.451-1.844-1.988-2.547-1.4-4.447,1.71-5.506.729-.249,4.461,2.313,4.443,3.155" transform="translate(-18.006 -105.411)" fill="#b0d87c"/>
        <path id="Trazado_720495" data-name="Trazado 720495" d="M39.153,203.561a10.2,10.2,0,0,0,4.012-.163c.93-.245,1.352.049,1.339.948-.016,1.115-3.428,3.1-4.437,2.551-.837-.453-1.577-1.083-2.4-1.572a1.152,1.152,0,0,1-.471-1.569c.257-.742.818-.416,1.953-.194" transform="translate(-17.635 -96.694)" fill="#ecccb1"/>
        <path id="Trazado_720496" data-name="Trazado 720496" d="M119.166,203.567a10.146,10.146,0,0,0,3.972-.177c.954-.256,1.338.1,1.314.975-.03,1.1-3.462,3.059-4.452,2.517-.835-.457-1.578-1.081-2.4-1.573a1.144,1.144,0,0,1-.444-1.577c.268-.731.834-.386,2.007-.165" transform="translate(-55.66 -96.692)" fill="#ecccb1"/>
        <path id="Trazado_720497" data-name="Trazado 720497" d="M104.137,122.754c-.314-1.946-.163-3,2.089-2.91,1.8.074,1.9.721,2.093,2.241.372,2.977-2.025,2.878-3.458,2.965-1.812.109-.252-1.765-.724-2.3" transform="translate(-49.447 -56.999)" fill="#67d1ef"/>
        <path id="Trazado_720498" data-name="Trazado 720498" d="M140.187,122.9c-.519.539.908,2.33-.782,2.146-1.454-.159-3.84.008-3.466-2.972.19-1.514.3-2.113,2.085-2.252,2.674-.206,2.193,1.382,2.163,3.078" transform="translate(-64.638 -56.981)" fill="#67d1ef"/>
        <path id="Trazado_720499" data-name="Trazado 720499" d="M204.449,228.2a4.215,4.215,0,0,1-.27.656c-3.319,4.7-3.549,4.685-6.647-.656Z" transform="translate(-93.953 -108.541)" fill="#b0d87c"/>
        <path id="Trazado_720500" data-name="Trazado 720500" d="M28.609,212.261c1.354.407,2.876.913,3.039,2.144.107.812-1.484,1.97-2.421,1.877-1.424-.14-2.284-1.722-2.58-2.918-.269-1.081,1.431-.4,1.963-1.1" transform="translate(-12.66 -100.959)" fill="#91c05e"/>
        <path id="Trazado_720501" data-name="Trazado 720501" d="M51.556,214.664c1.974-2.1,4.368-2.885,5.142-1.656.7,1.118-.661,1.769-1.211,2.482-1.886,2.446-2.526-.618-3.931-.826" transform="translate(-24.522 -101.036)" fill="#91c05e"/>
        <path id="Trazado_720502" data-name="Trazado 720502" d="M111.763,214.6c-1.417.921-2.624,3.316-4.292.3-.308-.559-1.343-1.062-.815-1.664a2.469,2.469,0,0,1,2.624-.535,4.6,4.6,0,0,1,2.482,1.9" transform="translate(-50.659 -101.088)" fill="#fa7f6c"/>
        <path id="Trazado_720503" data-name="Trazado 720503" d="M131.34,214.722c1.657-1.859,3.4-2.886,5.042-1.64,1.195.906-.6,1.845-1.172,2.543-1.819,2.217-2.34-.824-3.87-.9" transform="translate(-62.47 -101.089)" fill="#fa7f6c"/>
        <path id="Trazado_720504" data-name="Trazado 720504" d="M17.988,168.424a3.981,3.981,0,0,1-1.776-3.183c-.038-.649-.458-1.836.745-1.761.821.051,1.989.441,1.726,1.812-.189.986-.433,1.961-.695,3.132" transform="translate(-7.662 -77.755)" fill="#636a75"/>
        <path id="Trazado_720505" data-name="Trazado 720505" d="M108.364,86.269c.155,6.076.155,6.12-5.822,6.052-2.146-.024-4.991.971-6.237-.431-1.053-1.186-.348-3.969-.354-6.046-.02-6.074-.006-6.119,5.97-6.051,2.146.024,5-.972,6.232.433,1.029,1.175.211,3.967.211,6.043m-4.083-.111c.362-1.65-.132-2.341-1.965-2.262-1.541.067-2.347.209-2.247,2.079.082,1.538.212,2.366,2.082,2.24,1.493-.1,2.635-.118,2.13-2.057" transform="translate(-45.53 -37.8)"/>
        <path id="Trazado_720506" data-name="Trazado 720506" d="M140.35,86.282c.147,6.063.146,6.108-5.842,6.039-2.145-.025-4.99.976-6.233-.437-1.052-1.2-.34-3.973-.347-6.051-.019-6.062-.006-6.108,5.982-6.038,2.145.025,5-.977,6.228.438,1.028,1.187.211,3.972.211,6.05m-6.083-2.273c-1.705-.4-2.257.24-2.22,2,.034,1.606.315,2.272,2.114,2.213,1.6-.052,2.289-.318,2.209-2.119-.071-1.563-.231-2.573-2.1-2.095" transform="translate(-60.738 -37.8)"/>
        <path id="Trazado_720507" data-name="Trazado 720507" d="M108.212,90.165c.505,1.938-.637,1.955-2.13,2.057-1.87.126-2-.7-2.082-2.24-.1-1.87.706-2.011,2.247-2.079,1.834-.08,2.328.612,1.965,2.262" transform="translate(-49.462 -41.807)" fill="#67d1ef"/>
        <path id="Trazado_720508" data-name="Trazado 720508" d="M138.209,88.015c1.872-.478,2.032.532,2.1,2.095.081,1.8-.606,2.067-2.209,2.119-1.8.059-2.081-.607-2.114-2.213-.037-1.761.514-2.4,2.22-2" transform="translate(-64.68 -41.806)" fill="#67d1ef"/>
      </g>
    </g>
  </g>
</svg>
