<svg id="Grupo_1018188" data-name="Grupo 1018188" xmlns="http://www.w3.org/2000/svg" xmlns:xlink="http://www.w3.org/1999/xlink" width="157.178" height="156.611" viewBox="0 0 157.178 156.611">
  <defs>
    <clipPath id="clip-path">
      <rect id="Rectángulo_350838" data-name="Rectángulo 350838" width="157.178" height="156.611" fill="none"/>
    </clipPath>
  </defs>
  <g id="Grupo_1018187" data-name="Grupo 1018187" clip-path="url(#clip-path)">
    <path id="Trazado_720644" data-name="Trazado 720644" d="M5.347,120.923C1.3,116.656.055,111.507.312,105.814c.152-3.358.027-6.729.028-10.094,0-8.9,2.507-13.431,10.307-18.363-3.907-4.015-6.084-8.693-5-14.391A14.843,14.843,0,0,1,12.015,53.2a15.077,15.077,0,0,1,20.749,3.59c5.173,7.045,3.519,15.655-4.5,22.065,6.169,4.023,7.728,10.421,8.8,17.034.309,1.907,1,2.876,3.193,2.675a66.677,66.677,0,0,1,7.881-.041c4.711.129,7.919,3.4,7.633,8.119-.109,1.8.407,2.252,1.918,1.938,1.233-.256,3.285,1.166,3.264-1.811-.088-13.039-.035-26.079-.05-39.119A7.188,7.188,0,0,0,58.346,62.1C52.436,56.88,46.48,51.714,40.6,46.461a4.665,4.665,0,0,0-3.5-.969c-11.357.011-22.714-.059-34.07.063C.828,45.578.263,45.041.283,42.816q.172-20.031,0-40.064C.266.551.794-.013,3.02,0Q28.1.156,53.179,0c2.195-.013,2.791.5,2.757,2.732-.14,9.147-.059,18.3-.059,27.445,0,5.538,1.692,7.8,7.53,9.724C58.869,29.888,60.3,21.347,69.641,15.222a17.067,17.067,0,0,1,20.5,1.786c6.355,5.531,7.607,13.077,3.632,22.877a8.985,8.985,0,0,0,4.962-2.637c3.857-3.413,7.6-6.961,11.482-10.34a3.813,3.813,0,0,0,1.2-3.343c-.025-7.045.067-14.092-.063-21.135C111.32.471,111.833,0,113.781.008q20.347.138,40.7,0c1.951-.013,2.434.471,2.421,2.421q-.139,20.347,0,40.7c.013,1.949-.465,2.441-2.42,2.424-11.461-.1-22.924-.027-34.386-.078a5.406,5.406,0,0,0-3.968,1.406q-8.1,7.26-16.364,14.343a9.371,9.371,0,0,0-3.53,7.681c.091,12.408.125,24.818-.034,37.224-.033,2.579,1.116,2.5,2.969,2.532,1.824.035,2.4-.218,2.252-2.331a7.281,7.281,0,0,1,7.307-7.8,64.527,64.527,0,0,1,8.2.03c2.189.191,2.963-.739,3.2-2.667.114-.933.447-1.837.588-2.769.862-5.71,3.048-10.681,8.253-14.272-4.63-3.261-7.326-7.41-7.436-12.919a14.573,14.573,0,0,1,4.115-10.583,15.016,15.016,0,0,1,21.015-1c6.809,6.042,6.823,14.661-.1,23.075,8.163,4.3,10.887,11.381,10.32,20.177a70.891,70.891,0,0,0,0,8.2c.294,5.7-.994,10.838-5.019,15.114,4.731,1.778,6.93,9.371,4,13.365-1.692,2.308-4.157,2.272-6.575,2.05-2.075-.191-2.687.5-2.578,2.567a94.358,94.358,0,0,1,0,10.09c-.112,2.081.54,2.892,2.584,2.521,2.079-.378,2.578.511,2.6,2.54.018,2.086-.594,2.562-2.622,2.56q-70.665-.087-141.33,0c-2.027,0-2.641-.472-2.623-2.559.018-2.027.514-2.918,2.6-2.54,2.042.371,2.689-.438,2.584-2.52-.179-3.566-.121-7.15-.015-10.723.045-1.518-.407-2.086-1.933-1.919a27.187,27.187,0,0,1-3.152.015,4.888,4.888,0,0,1-4.043-2.089c-2.966-3.985-.749-11.577,4-13.354M78.484,88.409a85.792,85.792,0,0,1,9.14.069c3.211.345,3.8-.9,3.662-3.812-.246-5.351-.012-10.722-.088-16.083a13.294,13.294,0,0,1,4.866-10.8c3.188-2.742,6.326-5.541,9.49-8.311,7.987-7,16-13.967,23.955-21,2.433-2.148,2.731-4.582,1.015-6.6-1.758-2.072-4.614-2.168-7.023-.222-.408.33-.777.707-1.165,1.061-5.058,4.6-10.272,9.032-15.134,13.826-5.87,5.79-12.3,10.146-20.876,10.382-1.32.036-2.061.551-1.884,2.168.57,5.222.833,10.48,1.519,15.684.386,2.934-.091,5.078-2.4,7.212-5.094,4.7-4.965,4.848-9.927-.138-1.372-1.378-2.916-2.488-2.606-4.974.689-5.522.861-11.111,1.6-16.626.34-2.543-.333-3.364-2.786-3.5A26.15,26.15,0,0,1,52.728,39c-5.759-5.533-11.794-10.781-17.709-16.152-.389-.354-.764-.724-1.167-1.059-2.439-2.025-5.2-2.052-7.043-.08-1.906,2.044-1.629,4.569.94,6.83Q44.2,43.019,60.734,57.411A14.108,14.108,0,0,1,66,68.995c-.123,5.675.063,11.357-.078,17.031-.05,1.987.546,2.516,2.469,2.427,3.357-.155,6.727-.043,10.092-.043M50.825,30.346c0-8.172-.066-15.627.045-23.081.028-1.878-.633-2.2-2.324-2.19q-20.481.094-40.964-.007c-1.819-.01-2.25.542-2.23,2.284.09,7.772.025,15.545.045,23.317.008,3.137-1.119,7.353.46,9.125,1.808,2.029,6.105.571,9.316.623,5.916.1,11.835.027,18.419.027-2.054-1.811-3.529-3.113-5.006-4.412-1.577-1.387-3.195-2.73-4.726-4.166-4.461-4.184-4.438-10.62.013-14.391a9.792,9.792,0,0,1,12.962.242c4.57,3.977,9,8.113,13.988,12.628m72.734,10.1c9.342,0,17.842-.037,26.343.034,1.53.013,1.933-.448,1.925-1.947-.06-10.516-.044-21.032-.015-31.549,0-1.2-.089-1.914-1.635-1.906-10.726.062-21.452.032-32.179.035-.717,0-1.534-.141-1.533,1,.007,4.854,0,9.709,0,15.016,1.609-1.431,2.683-2.438,3.81-3.381,4.435-3.71,10.594-3.35,14.1.8,3.531,4.177,2.942,9.749-1.5,13.719-2.881,2.578-5.814,5.1-9.327,8.173M22.332,108.6c-1.3-5.264-2.4-10.175-3.771-15-.643-2.259.657-2.3,2.134-2.73,1.531-.445,2.435-.444,2.853,1.424,1.006,4.5,2.227,8.949,3.273,13.439.444,1.9,1.376,2.912,3.445,2.891,5.777-.057,11.555-.03,17.332-.013,1.827.005,3.208-.657,3.148-2.642-.054-1.786-1.365-2.428-3.06-2.416-3.046.021-6.092.034-9.138,0-3.548-.043-5.17-1.351-5.973-4.782-.669-2.858-1.171-5.76-1.964-8.582a12.767,12.767,0,0,0-13.949-9.269A12.93,12.93,0,0,0,5.423,93.367c-.116,4.409.015,8.824-.057,13.234-.023,1.394.211,2.072,1.851,2.038,4.928-.1,9.861-.037,15.116-.037m112.522,0h2.695c4.2,0,8.4-.06,12.6.03,1.518.033,1.675-.674,1.661-1.9-.052-4.516.084-9.037-.063-13.549A12.89,12.89,0,0,0,140.342,80.9a12.752,12.752,0,0,0-13.806,9.461c-.772,2.828-1.293,5.724-1.955,8.583-.71,3.066-2.563,4.683-5.808,4.623-2.94-.054-5.882.021-8.823-.022-1.879-.027-3.554.388-3.5,2.6s1.792,2.487,3.632,2.475c5.462-.036,10.925-.078,16.385.018,2.277.04,3.454-.808,3.952-3.072.967-4.4,2.247-8.731,3.176-13.137.448-2.122,1.428-1.974,3.081-1.544,1.687.439,2.482.891,1.918,2.9-1.358,4.827-2.469,9.722-3.737,14.824M50.83,151.513c5.864,0,12.048-.08,18.228.049,1.83.038,2-.715,1.985-2.193-.056-7.028-.086-14.058.019-21.085.026-1.735-.574-2.068-2.14-2.04-4.929.088-9.871.224-14.787-.042-2.8-.152-3.46.653-3.377,3.4.217,7.209.073,14.429.073,21.914m56.328,0a14.861,14.861,0,0,1-.809-5.7c.025-5.769-.056-11.54.049-17.308.032-1.745-.408-2.319-2.226-2.277-5.347.122-10.7.087-16.049.015-1.428-.02-2.01.265-1.991,1.866q.13,10.856.006,21.714c-.015,1.449.518,1.722,1.82,1.711,6.284-.056,12.569-.025,19.2-.025M65.977,30.5A12.617,12.617,0,1,0,78.41,17.735,12.69,12.69,0,0,0,65.977,30.5M6.467,113.719c2.774,5.085,6.6,7.4,11.761,7.49,3.465.06,6.932.011,10.4.013,6.932.005,9.575,2.606,9.58,9.436q.007,8.192,0,16.384c0,2.584,1.131,4.407,3.83,4.378s3.747-1.907,3.742-4.472c-.016-7.036.1-14.076-.049-21.109-.136-6.3-4.932-11.774-11.159-12.025-9.191-.37-18.409-.1-28.1-.1m144.285-.066c-9.1,0-17.68-.041-26.258.012-7.716.049-13.016,5.384-13.073,13.123-.047,6.511-.023,13.023-.005,19.534.009,3.4,1.285,5.128,3.735,5.159,2.435.031,3.807-1.751,3.823-5.073.023-5.251,0-10.5.007-15.753.006-6.833,2.643-9.428,9.581-9.433,3.466,0,6.932.046,10.4-.013,5.158-.088,8.986-2.4,11.792-7.556m-105.033.057a19.551,19.551,0,0,1,3.9,6.247c.378,1.149,1.175,1.274,2.2,1.272q26.768-.023,53.537-.008c.852,0,1.759.077,2.082-.954.745-2.382,2.355-4.3,3.826-6.558ZM30.625,65.685a10.09,10.09,0,1,0-10.245,10.1,10.13,10.13,0,0,0,10.245-10.1m116.115-.1a10.091,10.091,0,1,0-10.142,10.2,10.129,10.129,0,0,0,10.142-10.2M65.978,100.82c0,8.2,0,8.2,8.056,7.778a1.736,1.736,0,0,1,.314,0c1.441.184,1.755-.575,1.734-1.854-.055-3.563-.13-7.132.025-10.69.09-2.036-.512-2.644-2.6-2.646-7.533,0-7.533-.087-7.533,7.412m25.233.517c0-8.222,0-8.172-7.961-7.915-1.6.052-2.218.419-2.16,2.114.118,3.455.181,6.925-.017,10.373-.132,2.282.681,2.758,2.824,2.741,7.314-.057,7.315.028,7.315-7.314M19.227,131.318c3.674,0,7.351.075,11.021-.046,1.075-.035,2.935,1.008,2.925-1.51-.009-2.118-.715-3.475-3.04-3.478-7.663-.007-15.327.056-22.988-.041-2.416-.031-1.625,1.58-1.743,2.771-.134,1.354-.1,2.413,1.861,2.345,3.984-.14,7.976-.042,11.965-.041m118.59,0c3.989,0,7.983-.118,11.965.047,2.138.089,2.071-1.063,2.026-2.524-.042-1.354.306-2.692-1.938-2.608-4.193.158-8.4.044-12.6.045-3.464,0-6.928-.025-10.392.02-2.146.028-2.788,1.346-2.877,3.32-.112,2.464,1.644,1.649,2.79,1.673,3.673.075,7.348.028,11.022.027m-56.705,7.43c0-3.458-.115-6.92.043-10.371.093-2.033-.917-2.2-2.475-2.116-1.347.073-2.68-.289-2.645,1.94q.167,10.684,0,21.373c-.035,2.21,1.262,1.9,2.628,1.956,1.533.066,2.584-.042,2.493-2.1-.157-3.555-.044-7.123-.043-10.685M33.886,151.3a13.89,13.89,0,0,1-.739-5.49,46.685,46.685,0,0,1,.054-5.644c.438-3.138-.636-3.965-3.811-3.924-3.055.039-4.4.642-3.841,3.881a24.487,24.487,0,0,1,.037,4.075c0,7.883,0,7.883,8.3,7.1m89.457.216c2.218,0,4.2-.092,6.172.029,1.582.1,2.222-.316,2.125-2.04-.152-2.713-.04-5.439-.04-8.16,0-5.036,0-4.912-5.087-5.028-2.128-.049-2.533.643-2.538,2.615-.01,4.056.563,8.153-.633,12.584M20.529,143.868c0-1.882-.107-3.772.029-5.644.145-1.977-1.059-1.918-2.384-1.849-1.27.066-2.8-.477-2.714,1.839.132,3.446.1,6.9.005,10.35-.052,1.877.009,3.05,2.541,3.048,2.517,0,2.671-1.147,2.545-3.039-.1-1.562-.021-3.136-.023-4.7m121.163.181c0-1.986-.083-3.978.022-5.959.112-2.09-1.318-1.722-2.51-1.7-1.152.021-2.61-.482-2.567,1.644.083,3.972.037,7.946.018,11.919-.005.986.253,1.534,1.395,1.57,2.2.069,4.289.273,3.687-3.091a25.5,25.5,0,0,1-.045-4.384M80.944,66c-.474-5.417-.928-10.835-1.445-16.248-.059-.617.242-1.651-.878-1.688-1.162-.038-.869,1.017-.929,1.63-.53,5.411-.993,10.829-1.5,16.243a2.765,2.765,0,0,0,2.526,3.268A2.722,2.722,0,0,0,80.944,66" transform="translate(0 0)" fill="#030202"/>
    <path id="Trazado_720645" data-name="Trazado 720645" d="M93.41,100.228c-3.365,0-6.734-.112-10.091.044-1.924.089-2.52-.439-2.47-2.427.141-5.674-.045-11.356.079-17.031A14.113,14.113,0,0,0,75.661,69.23Q59.1,54.874,42.676,40.356c-2.569-2.261-2.846-4.786-.94-6.829,1.841-1.973,4.6-1.946,7.043.079.4.335.779.706,1.167,1.059C55.861,40.036,61.9,45.283,67.655,50.816a26.154,26.154,0,0,0,17.1,7.744c2.452.138,3.125.959,2.786,3.5-.736,5.515-.908,11.1-1.6,16.626-.31,2.486,1.234,3.6,2.606,4.974,4.962,4.986,4.834,4.837,9.927.138,2.313-2.134,2.791-4.278,2.4-7.213-.686-5.2-.949-10.463-1.519-15.684-.176-1.618.564-2.133,1.884-2.169,8.573-.236,15.006-4.592,20.876-10.382,4.861-4.795,10.076-9.231,15.134-13.827.389-.353.758-.731,1.166-1.061,2.409-1.946,5.265-1.851,7.023.222,1.716,2.023,1.418,4.457-1.015,6.605-7.959,7.027-15.967,14-23.955,20.994-3.163,2.77-6.3,5.57-9.49,8.311a13.3,13.3,0,0,0-4.866,10.8c.076,5.361-.158,10.732.088,16.083.134,2.915-.451,4.157-3.662,3.812a85.8,85.8,0,0,0-9.14-.069" transform="translate(-14.926 -11.819)" fill="#fa806c"/>
    <path id="Trazado_720646" data-name="Trazado 720646" d="M53.754,33.3c-4.986-4.515-9.418-8.651-13.988-12.628A9.792,9.792,0,0,0,26.8,20.434c-4.451,3.771-4.474,10.208-.013,14.391,1.531,1.436,3.149,2.779,4.726,4.166,1.478,1.3,2.952,2.6,5.006,4.412-6.584,0-12.5.069-18.419-.027-3.211-.052-7.507,1.406-9.315-.623-1.58-1.772-.452-5.988-.461-9.125-.02-7.772.044-15.545-.045-23.317-.02-1.743.41-2.295,2.23-2.284q20.481.116,40.964.007c1.69-.008,2.352.312,2.324,2.19-.112,7.453-.046,14.909-.046,23.081" transform="translate(-2.929 -2.958)" fill="#e4e7eb"/>
    <path id="Trazado_720647" data-name="Trazado 720647" d="M191.546,43.409c3.513-3.074,6.445-5.6,9.327-8.174,4.438-3.97,5.025-9.542,1.5-13.719-3.509-4.152-9.668-4.511-14.1-.8-1.127.943-2.2,1.95-3.811,3.381,0-5.308,0-10.162,0-15.017,0-1.144.815-1,1.532-1,10.726,0,21.453.026,32.179-.036,1.546-.009,1.638.7,1.635,1.906-.03,10.516-.045,21.033.015,31.549.009,1.5-.395,1.96-1.925,1.947-8.5-.07-17-.033-26.343-.033m18.091-5.048c1.154,0,2.312-.056,3.462.016s1.632-.252,1.677-1.542c.081-2.3.1-4.2-3.158-3.562a15.631,15.631,0,0,1-4.083.023c-1.858-.136-3.039-.078-3.007,2.493.03,2.392.885,2.862,2.907,2.588a16.61,16.61,0,0,1,2.2-.016m5.042-22.451c.3-1.822.189-3.106-2.262-2.85-1.652.172-3.07-.112-2.791,2.378.184,1.651-.1,3.093,2.381,2.783,1.6-.2,3.35.218,2.673-2.311m0,10.1c.3-1.825.182-3.1-2.264-2.848-1.65.171-3.073-.117-2.79,2.378.187,1.647-.108,3.095,2.381,2.783,1.6-.2,3.35.219,2.673-2.312" transform="translate(-67.987 -2.964)" fill="#e4e7eb"/>
    <path id="Trazado_720648" data-name="Trazado 720648" d="M25.464,155.773c-5.255,0-10.187-.066-15.116.037-1.64.034-1.874-.645-1.851-2.038.072-4.41-.059-8.825.057-13.234a12.929,12.929,0,0,1,11.24-12.453,12.767,12.767,0,0,1,13.949,9.269c.792,2.821,1.3,5.724,1.964,8.581.8,3.431,2.425,4.739,5.973,4.782,3.045.037,6.092.025,9.138,0,1.694-.012,3,.631,3.059,2.416.06,1.986-1.321,2.648-3.148,2.642-5.777-.016-11.555-.044-17.332.013-2.069.021-3-.986-3.445-2.891-1.046-4.49-2.266-8.941-3.273-13.439-.418-1.868-1.322-1.868-2.853-1.424-1.477.429-2.776.471-2.134,2.73,1.374,4.83,2.468,9.741,3.771,15" transform="translate(-3.131 -47.171)" fill="#f8d46e"/>
    <path id="Trazado_720649" data-name="Trazado 720649" d="M196.993,155.779c1.268-5.1,2.38-10,3.737-14.824.564-2.008-.231-2.46-1.918-2.9-1.653-.43-2.634-.578-3.081,1.544-.929,4.407-2.209,8.738-3.176,13.137-.5,2.264-1.674,3.112-3.952,3.072-5.46-.1-10.923-.054-16.385-.018-1.84.012-3.581-.263-3.632-2.475s1.623-2.625,3.5-2.6c2.94.044,5.882-.032,8.823.022,3.245.061,5.1-1.557,5.808-4.623.662-2.859,1.183-5.755,1.955-8.583a12.752,12.752,0,0,1,13.806-9.461,12.891,12.891,0,0,1,11.41,12.288c.147,4.512.011,9.033.063,13.549.014,1.224-.143,1.931-1.661,1.9-4.2-.09-8.4-.031-12.6-.03h-2.695" transform="translate(-62.138 -47.176)" fill="#f8d46e"/>
    <path id="Trazado_720650" data-name="Trazado 720650" d="M80.455,225.173c0-7.484.143-14.7-.073-21.914-.083-2.744.577-3.549,3.377-3.4,4.916.265,9.858.129,14.787.042,1.567-.028,2.166.3,2.14,2.04-.1,7.027-.074,14.057-.019,21.085.012,1.478-.154,2.231-1.985,2.193-6.18-.128-12.364-.049-18.228-.049" transform="translate(-29.625 -73.66)" fill="#f7f9fa"/>
    <path id="Trazado_720651" data-name="Trazado 720651" d="M157.437,225.2c-6.631,0-12.916-.031-19.2.025-1.3.011-1.834-.262-1.82-1.711q.106-10.857-.005-21.714c-.019-1.6.562-1.885,1.99-1.866,5.349.073,10.7.108,16.049-.015,1.819-.042,2.259.532,2.226,2.278-.105,5.767-.024,11.538-.049,17.308a14.871,14.871,0,0,0,.809,5.7" transform="translate(-50.28 -73.687)" fill="#f7f9fa"/>
    <path id="Trazado_720652" data-name="Trazado 720652" d="M104.491,40.855a12.617,12.617,0,1,1,12.8,12.423,12.656,12.656,0,0,1-12.8-12.423" transform="translate(-38.514 -10.352)" fill="#ecccb1"/>
    <path id="Trazado_720653" data-name="Trazado 720653" d="M10.242,180.046c9.7,0,18.913-.275,28.1.1,6.227.251,11.023,5.726,11.159,12.025.153,7.033.033,14.073.049,21.109.006,2.565-1.034,4.442-3.742,4.472s-3.83-1.793-3.83-4.378q0-8.192,0-16.384c-.006-6.829-2.649-9.431-9.581-9.436-3.466,0-6.933.047-10.4-.013-5.158-.089-8.987-2.405-11.761-7.49" transform="translate(-3.775 -66.326)" fill="#818d99"/>
    <path id="Trazado_720654" data-name="Trazado 720654" d="M215.777,179.99c-2.806,5.153-6.634,7.468-11.793,7.556-3.465.059-6.931.011-10.4.013-6.939.005-9.576,2.6-9.581,9.433,0,5.251.016,10.5-.008,15.753-.015,3.322-1.387,5.1-3.822,5.073-2.451-.031-3.726-1.755-3.735-5.159-.018-6.511-.043-13.023,0-19.534.057-7.739,5.358-13.074,13.073-13.123,8.578-.053,17.156-.012,26.258-.012" transform="translate(-65.026 -66.337)" fill="#818d99"/>
    <path id="Trazado_720655" data-name="Trazado 720655" d="M72.407,180.09h65.539c-1.471,2.259-3.081,4.176-3.826,6.558-.323,1.03-1.23.954-2.082.954q-26.769-.007-53.537.008c-1.024,0-1.821-.124-2.2-1.272a19.562,19.562,0,0,0-3.9-6.247" transform="translate(-26.688 -66.379)" fill="#ce9d75"/>
    <path id="Trazado_720656" data-name="Trazado 720656" d="M36.723,98.139a10.09,10.09,0,1,1-9.936-10.088,10.136,10.136,0,0,1,9.936,10.088" transform="translate(-6.098 -32.454)" fill="#ebcbb0"/>
    <path id="Trazado_720657" data-name="Trazado 720657" d="M220.621,98.037a10.091,10.091,0,1,1-10.039-9.985,10.134,10.134,0,0,1,10.039,9.985" transform="translate(-73.88 -32.455)" fill="#ebcbb0"/>
    <path id="Trazado_720658" data-name="Trazado 720658" d="M104.492,155.346c0-7.5,0-7.416,7.534-7.411,2.084,0,2.685.609,2.6,2.645-.156,3.557-.081,7.127-.025,10.69.02,1.279-.294,2.039-1.734,1.854a1.8,1.8,0,0,0-.314,0c-8.056.423-8.056.423-8.056-7.778" transform="translate(-38.514 -54.527)" fill="#828e9a"/>
    <path id="Trazado_720659" data-name="Trazado 720659" d="M138.528,155.827c0,7.341,0,7.257-7.315,7.314-2.142.016-2.955-.46-2.824-2.742.2-3.448.135-6.918.017-10.373-.058-1.7.561-2.063,2.16-2.115,7.963-.258,7.961-.306,7.961,7.915" transform="translate(-47.318 -54.491)" fill="#828e9a"/>
    <path id="Trazado_720660" data-name="Trazado 720660" d="M22.353,205.01c-3.989,0-7.982-.1-11.966.041-1.96.069-1.995-.991-1.86-2.344.119-1.191-.672-2.8,1.743-2.771,7.662.1,15.326.034,22.988.041,2.325,0,3.031,1.36,3.04,3.478.011,2.519-1.85,1.474-2.925,1.51-3.67.121-7.346.047-11.021.046" transform="translate(-3.126 -73.694)" fill="#ce9d75"/>
    <path id="Trazado_720661" data-name="Trazado 720661" d="M210.2,205c-3.674,0-7.349.048-11.022-.028-1.147-.023-2.9.792-2.791-1.673.09-1.973.731-3.292,2.877-3.32,3.464-.045,6.928-.019,10.392-.02,4.2,0,8.4.114,12.6-.045,2.245-.085,1.9,1.254,1.938,2.608.045,1.461.112,2.613-2.026,2.524-3.982-.166-7.976-.048-11.965-.047" transform="translate(-72.385 -73.685)" fill="#ce9d75"/>
    <path id="Trazado_720662" data-name="Trazado 720662" d="M125.5,212.441c0,3.562-.113,7.13.044,10.685.09,2.055-.96,2.163-2.493,2.1-1.366-.059-2.663.253-2.628-1.956q.17-10.685,0-21.373c-.035-2.229,1.3-1.867,2.645-1.94,1.558-.084,2.568.083,2.475,2.116-.158,3.451-.044,6.913-.044,10.371" transform="translate(-44.385 -73.695)" fill="#b17946"/>
    <path id="Trazado_720663" data-name="Trazado 720663" d="M48.729,230.824c-8.3.781-8.3.781-8.3-7.1a24.419,24.419,0,0,0-.037-4.074c-.555-3.238.786-3.842,3.841-3.881,3.175-.041,4.249.787,3.811,3.924a46.694,46.694,0,0,0-.054,5.644,13.886,13.886,0,0,0,.738,5.489" transform="translate(-14.843 -79.529)" fill="#f7f9fa"/>
    <path id="Trazado_720664" data-name="Trazado 720664" d="M195.344,231.084c1.2-4.431.623-8.528.633-12.584.005-1.972.409-2.663,2.538-2.615,5.084.116,5.087-.008,5.087,5.028,0,2.721-.112,5.447.04,8.16.1,1.724-.544,2.137-2.125,2.04-1.971-.121-3.955-.029-6.172-.029" transform="translate(-72.001 -79.572)" fill="#f7f9fa"/>
    <path id="Trazado_720665" data-name="Trazado 720665" d="M29.552,223.462c0,1.568-.081,3.143.022,4.7.126,1.892-.028,3.037-2.545,3.039-2.532,0-2.594-1.171-2.541-3.048.1-3.448.127-6.9-.005-10.351-.088-2.315,1.445-1.772,2.714-1.838,1.325-.069,2.528-.128,2.384,1.849-.136,1.873-.029,3.763-.028,5.645" transform="translate(-9.022 -79.594)" fill="#b17946"/>
    <path id="Trazado_720666" data-name="Trazado 720666" d="M221.455,223.644a25.434,25.434,0,0,0,.044,4.384c.6,3.364-1.488,3.16-3.687,3.091-1.142-.036-1.4-.585-1.395-1.57.02-3.973.065-7.948-.017-11.919-.044-2.125,1.414-1.622,2.567-1.644,1.192-.023,2.622-.39,2.51,1.7-.105,1.981-.023,3.972-.021,5.959" transform="translate(-79.762 -79.595)" fill="#b17946"/>
    <path id="Trazado_720667" data-name="Trazado 720667" d="M125.414,94.057a2.722,2.722,0,0,1-2.222,3.205,2.765,2.765,0,0,1-2.526-3.268c.5-5.414.965-10.832,1.5-16.243.06-.614-.232-1.668.929-1.63,1.12.037.819,1.071.878,1.688.516,5.413.971,10.831,1.445,16.248" transform="translate(-44.47 -28.057)" fill="#d7dade"/>
    <path id="Trazado_720668" data-name="Trazado 720668" d="M221.356,53.018a16.523,16.523,0,0,0-2.2.016c-2.021.274-2.876-.2-2.906-2.588-.033-2.572,1.149-2.63,3.007-2.493a15.631,15.631,0,0,0,4.083-.023c3.258-.638,3.239,1.263,3.158,3.562-.045,1.29-.518,1.614-1.677,1.541s-2.308-.015-3.461-.015" transform="translate(-79.706 -17.62)"/>
    <path id="Trazado_720669" data-name="Trazado 720669" d="M229.353,18.822c.678,2.529-1.07,2.111-2.672,2.311-2.486.311-2.2-1.133-2.382-2.783-.278-2.49,1.14-2.206,2.791-2.379,2.452-.256,2.558,1.028,2.262,2.85" transform="translate(-82.661 -5.875)"/>
    <path id="Trazado_720670" data-name="Trazado 720670" d="M229.352,34.812c.677,2.531-1.07,2.111-2.673,2.312-2.489.312-2.194-1.135-2.381-2.783-.283-2.495,1.14-2.207,2.79-2.378,2.446-.254,2.564,1.023,2.264,2.848" transform="translate(-82.66 -11.77)"/>
  </g>
</svg>
