<svg xmlns="http://www.w3.org/2000/svg" xmlns:xlink="http://www.w3.org/1999/xlink" width="146" height="146" viewBox="0 0 146 146">
  <defs>
    <clipPath id="clip-path">
      <rect id="Rectángulo_350870" data-name="Rectángulo 350870" width="129" height="129.008" fill="none"/>
    </clipPath>
  </defs>
  <g id="Grupo_1018231" data-name="Grupo 1018231" transform="translate(-908.25 -8254.999)">
    <circle id="Elipse_5863" data-name="Elipse 5863" cx="73" cy="73" r="73" transform="translate(908.25 8254.999)" fill="#cda7ff"/>
    <g id="Grupo_1018204" data-name="Grupo 1018204" transform="translate(916.75 8264)">
      <g id="Grupo_1018203" data-name="Grupo 1018203" clip-path="url(#clip-path)">
        <path id="Trazado_720685" data-name="Trazado 720685" d="M114.437,66.64c-.306,2.408.15,4.847-.42,7.258a13.644,13.644,0,0,1-4.678,7.818c-1.217.972-1.182,2.071-1.161,3.32.026,1.538,1.408,1.261,2.224,1.528,3.495,1.142,7.046,2.107,10.558,3.2,5.3,1.644,7.926,5.224,7.955,10.812.026,5.282-.068,10.565.047,15.844.038,1.717-.352,2.256-2.164,2.226-7.124-.115-14.252-.058-21.378-.041-2.958.007-3.526.588-3.554,3.513-.017,1.677-.12,3.364.03,5.027.144,1.6-.429,1.938-1.951,1.919-6.706-.086-13.414-.037-20.121-.037-16.768,0-33.536-.033-50.3.045-1.925.009-2.688-.414-2.456-2.431.181-1.572-.024-3.184.05-4.774.111-2.375-.99-3.307-3.321-3.288-7.21.058-14.421-.047-21.629.067-1.813.029-2.2-.511-2.164-2.226.114-5.363.012-10.731.051-16.1.038-5.253,2.722-8.921,7.706-10.5,3.743-1.188,7.525-2.259,11.281-3.405,1.8-.55,2.688-2.87,1.288-3.966-5.262-4.116-5.981-9.766-5.8-15.806.031-.669.078-1.337.091-2.007A14.522,14.522,0,0,1,27.382,50.141c4.7-.637,8.7,1.088,12.264,4.269A67.5,67.5,0,0,1,41.7,47.574c.7-1.782,3.229-3.5,2.213-5-.881-1.3-3.644-1.275-5.524-1.973a3.011,3.011,0,0,0-3.526.8c-3.609,3.3-7.941,3.271-11.5-.079a2.9,2.9,0,0,0-3.305-.777c-3.43,1.091-6.89,2.086-10.328,3.15-4.167,1.289-5.545,3.154-5.566,7.512-.025,5.117-.03,10.235-.043,15.352-4.083.207-4.083.207-4.083-3.9,0-3.941-.015-7.883,0-11.824C.074,45.064,2.63,41.571,8.1,39.86c3.671-1.147,7.359-2.236,11.033-3.375a2.443,2.443,0,0,0,.948-4.185c-7.341-6.583-6.472-14.906-4.273-23.02,1.674-6.174,8.573-9.8,14.928-9.065A14.54,14.54,0,0,1,43.4,12.06a39.8,39.8,0,0,1,.15,10.53,14.028,14.028,0,0,1-4.908,9.324c-2.231,2-1.77,3.928,1.084,4.8.08.025.162.045.239.076,4.6,1.808,8.553,2.077,13.447-.763,8.191-4.753,16.832-3.362,24.537,2.194a3.913,3.913,0,0,0,4.08.678c2.521-.887,5.11-1.582,7.664-2.378,2.016-.629,2.749-2.8,1.185-4.105-7.127-5.96-6.39-13.873-4.978-21.572C87.174,3.924,94.523-.628,101.491.225A14.578,14.578,0,0,1,114.33,14.375c.047,2.179.022,4.36.012,6.541a13.633,13.633,0,0,1-4.933,10.836,3.6,3.6,0,0,0-1.207,3.54c.115,1.448,1.51,1.152,2.345,1.428,3.411,1.13,6.883,2.074,10.315,3.142,5.474,1.7,8.029,5.2,8.054,10.984.019,4.36-.165,8.73.07,13.079.131,2.428-.753,3.06-2.9,2.729-.412-.063-.834-.06-1.251-.088-.014-5.281,0-10.562-.051-15.843-.037-3.75-1.509-5.726-5.065-6.847-3.669-1.156-7.364-2.231-11.035-3.384a2.573,2.573,0,0,0-2.883.645c-3.938,3.627-8,3.578-12.07-.012-.643-.567-1.119-1.131-2.146-.79-2.424.8-4.888,1.487-7.789,2.355,4.223,2.8,5.811,6.588,5.656,11.442.857-.611,1.387-1,1.926-1.371A14.515,14.515,0,0,1,114.1,61.89a35.952,35.952,0,0,1,.342,4.75M99.748,110.433c-1.857.234-2.066-.748-2.071-2.352-.015-5.371-2.86-9-8.063-10.4-3.067-.827-6.195-1.43-9.266-2.244-1.375-.365-1.684.14-1.9,1.391-.6,3.415-1.372,6.8-2.11,10.372-.593-.279-.952-.465-1.324-.618-1.03-.423-2.127-1.934-2.937-1.279-1,.8-1.286,2.461-1.185,3.935.023.334.063.668.1,1,.4,3.833.974,7.658,1.16,11.5.13,2.7,1.16,3.591,3.8,3.211a24.126,24.126,0,0,1,5.274-.015c1.563.123,2.008-.4,1.97-1.952-.1-4.274.087-8.557-.09-12.826-.082-1.985.926-1.842,2.271-1.918,1.507-.085,2.038.316,1.992,1.927-.12,4.189.049,8.387-.082,12.575-.057,1.82.571,2.312,2.287,2.195a39.526,39.526,0,0,1,6.032.007c1.853.157,2.325-.575,2.142-2.264a7.952,7.952,0,0,1,2.072-6.718,8.818,8.818,0,0,1,5.684-1.531c1.67.087,3.356-.076,5.022.045,1.458.106,1.843-.425,1.809-1.835-.092-3.683.042-7.372-.065-11.054-.045-1.558.625-1.808,1.934-1.728,1.173.072,2.37-.239,2.242,1.686-.144,2.168-.032,4.353-.032,6.531,0,6.582,0,6.542,6.541,6.4,1.367-.028,1.917-.319,1.883-1.8-.093-4.1.016-8.209-.048-12.312-.055-3.543-1.6-5.524-5.044-6.6-3.668-1.15-7.359-2.225-11.027-3.373a2.579,2.579,0,0,0-2.895.626c-3.968,3.641-8.01,3.6-12.057.019-.647-.573-1.143-1.149-2.15-.813-1.9.636-3.842,1.176-5.766,1.755a14.611,14.611,0,0,0,4.1,1.428c7.511,1.854,11.758,7.173,11.95,14.709.043,1.708-.39,2.505-2.147,2.323m-70.532,0c-1.756.182-2.19-.616-2.147-2.323.192-7.622,4.538-12.953,12.192-14.778,1.309-.312,2.754-.276,4.05-1.317-1.646-.49-3.13-.806-4.51-1.376a3.483,3.483,0,0,0-4.192.851c-3.412,3.1-7.685,3.015-11.086-.145a3.227,3.227,0,0,0-3.744-.8C16.377,91.7,12.9,92.629,9.47,93.693c-3.846,1.193-5.261,3.122-5.3,7.17-.023,2.429,0,4.858,0,7.287,0,6.56,0,6.508,6.627,6.333,1.472-.039,1.823-.514,1.793-1.89-.082-3.683.066-7.373-.065-11.054-.069-1.923,1.074-1.613,2.247-1.685,1.309-.08,1.985.169,1.933,1.728-.111,3.347.114,6.709-.085,10.047-.135,2.27.508,2.955,2.834,2.886,3.276-.1,6.738-.8,9.7,1.443a7.95,7.95,0,0,1,2.072,6.717c-.182,1.688.288,2.421,2.142,2.264a39.526,39.526,0,0,1,6.032-.007c1.715.118,2.344-.373,2.287-2.194-.131-4.189.038-8.386-.082-12.575-.046-1.609.48-2.016,1.99-1.929,1.342.078,2.353-.072,2.273,1.916-.176,4.353-.01,8.719-.081,13.078-.021,1.317.378,1.752,1.706,1.7,2.428-.1,4.866-.109,7.292,0,1.355.063,1.671-.469,1.775-1.7.276-3.255.695-6.5,1.068-9.743.22-1.907.7-3.816.313-5.735-.618-3.043-.735-3.057-3.336-1.565-.621.356-1.164,1.019-2.044.727-.692-3.358-1.487-6.7-2.031-10.084-.249-1.552-.824-1.677-2.155-1.327-2.749.724-5.547,1.261-8.31,1.932-5.757,1.4-8.74,5.012-8.772,10.9-.009,1.649-.5,2.264-2.075,2.1M43.96,60.27c4.238-2.705,8.921-1.8,13.463-1.862,5.228-.067,10.181-1.036,14.49-4.11,1.547-1.1,2.01-.573,2.688.822.556,1.144.694,3.034,2.126,3.15,2.877.234,5.727.328,8.451,2.242,0-3.3.064-5.977-.019-8.652a5.878,5.878,0,0,0-3.265-5.31,20.987,20.987,0,0,1-4.706-3.677A19.917,19.917,0,0,0,43.96,60.27m33.127,8.508-.094-.005c0-1.423-.094-2.854.026-4.267.125-1.485-.276-2.275-1.893-1.962-1.388.269-1.885-.613-2.38-1.661-.311-.658-.457-1.886-1.679-1.242C65.509,62.573,59.5,62.7,53.448,62.52c-1.285-.037-1.519.517-1.5,1.638.062,3.013-.081,6.032.058,9.04a12.5,12.5,0,0,0,11.3,12.068,12.3,12.3,0,0,0,13.43-10.488,50.91,50.91,0,0,0,.352-6m22.76,12.414a10.541,10.541,0,0,0,10.383-9.946c.166-1.821-.158-2.609-2.32-2.619-3.966-.017-7.933.514-11.926-.928-1.711-.618-4.024,1.095-6.186,1.247-.139.01-.295.712-.332,1.1A10.458,10.458,0,0,0,99.847,81.192M24.67,68.7c-1.509,0-3.019.048-4.525-.016-1.1-.047-1.393.386-1.45,1.455A10.609,10.609,0,0,0,29.274,81.19,10.461,10.461,0,0,0,39.511,70.142c-.034-.492.039-1.312-.462-1.29-2.217.093-4.332-1.771-6.23-1.13a26.491,26.491,0,0,1-8.15.983M39.487,20.961c-.209-.7.66-2.446-1.435-2.11-5.868.941-11.68-1.9-17.592-.133-1.258.375-1.795.525-1.766,1.927A10.639,10.639,0,0,0,28.856,31.318C34.5,31.5,39.1,27.129,39.487,20.961M99.936,31.327a10.591,10.591,0,0,0,10.3-11.012c-.028-.625.2-1.532-.834-1.463-2.86.19-5.609-2.282-8.59-.242-.648.443-1.793.2-2.709.206-2.339.022-4.679.049-7.016-.01-1.112-.028-1.617.216-1.667,1.492A10.561,10.561,0,0,0,99.936,31.327M33.777,14.722c1.006,0,2.012,0,3.018,0,2.808-.01,3.049-.334,2.245-3.01a10.555,10.555,0,0,0-9.249-7.374,10.43,10.43,0,0,0-9.732,5.5c-.773,1.467-1.978,3.594-.856,4.551,1.369,1.169,3.253-.248,4.606-1.463.53-.476,1.093-1.35,1.841-.46,2.214,2.636,5.192,2.327,8.126,2.261M99.7,4.3a10.533,10.533,0,0,0-9.673,7.159c-.969,2.945-.74,3.262,2.376,3.265,2.012,0,4.024-.02,6.036.005a4.418,4.418,0,0,0,3.3-.984c1.539-1.559,2.837-1.928,4.406-.058a3.931,3.931,0,0,0,2.027.913c1.353.329,2.239.244,1.861-1.688A10.554,10.554,0,0,0,99.7,4.3M39.348,63.162c-.154-4.586-5.29-9.037-10.26-8.954-5.218.087-10.2,4.6-10.267,9.256-.011.72.129,1.12.908,1.112,3.18-.036,6.715.795,9.447-.328,3.077-1.265,5.356-2.156,8.163.153.672.554,2.3.63,2.009-1.238m65.265,1.42c1.257,0,2.522-.1,3.767.023,1.715.163,1.928-.5,1.591-2.032a10.324,10.324,0,0,0-8.252-8.115,10.087,10.087,0,0,0-10.729,4.811c-.932,1.564-2.33,3.719-.978,4.993,1.308,1.233,3.218-.354,4.574-1.523.487-.419,1.021-1.189,1.662-.427,2.285,2.719,5.363,2.313,8.365,2.271M42.685,76.248a18.744,18.744,0,0,1-4.438,5.9c-1.683,1.488-1.124,3.62,1.013,4.278,3.677,1.131,7.366,2.221,11.047,3.341,3.522,1.072,4.271.419,3.767-3.194a2.663,2.663,0,0,0-1.01-1.645A15.726,15.726,0,0,1,49.654,80.3c-.339-.708-.677-1.345-1.553-1.453a11.708,11.708,0,0,1-5.416-2.6m43.6,0a12.1,12.1,0,0,1-5.388,2.6,1.589,1.589,0,0,0-1.349.961,20.757,20.757,0,0,1-4.106,5.612c-1.112,1.183-.855,3.009-.276,4.25.547,1.173,2,.551,3.138.194,3.81-1.2,7.65-2.3,11.468-3.469,2.192-.674,2.674-2.716.912-4.279a18.469,18.469,0,0,1-4.4-5.872m-21.831,48.66a7.721,7.721,0,0,1,1.255.01c2.274.38,2.844-.414,2.427-2.717a87.2,87.2,0,0,1-1.11-10.227c-.113-1.849-1.214-1.69-2.389-1.615-1.126.072-2.561-.57-2.69,1.559-.187,3.087-.687,6.154-.974,9.236-.349,3.751-.313,3.755,3.48,3.755M59.008,88.593a.444.444,0,0,0-.627.347c-.162.735-.27,1.5.458,2.054q2.489,1.888,4.984,3.771a.866.866,0,0,0,1.134.11c1.794-1.357,3.6-2.693,5.361-4.1.6-.477.408-1.237.252-1.874-.1-.393-.48-.336-.817-.234a17.546,17.546,0,0,1-10.745-.078M47.864,63.256c-4.672,1.274-5.475,7.563-1.786,10.311.45.335.9.909,1.532.561.514-.286.24-.9.243-1.369.021-3.1.011-6.2.011-9.5M81.1,63.243c0,3.3-.009,6.4.01,9.5,0,.467-.264,1.086.231,1.376.623.364,1.083-.21,1.533-.545,3.723-2.783,2.875-9.049-1.774-10.332m-20.21,39.623c0,2.45,1.061,3.143,3.549,3.384,2.4.233,3.361-.845,3.609-2.969.093-.794-2.787-3.177-3.629-2.8-1.352.6-2.992,1.01-3.529,2.387M29.225,89.495a4.935,4.935,0,0,0,3.748-2.2,2.049,2.049,0,0,0,.186-2.14c-.34-.7-1.022.009-1.558.008-1.5,0-3-.027-4.494.067-.679.043-1.544-.921-1.987.07A2.321,2.321,0,0,0,25.9,88a4.847,4.847,0,0,0,3.323,1.5M100,89.5a4.317,4.317,0,0,0,3.858-2.819c.294-.856.564-2.118-1.327-1.617a16.42,16.42,0,0,1-4.981.134c-.592-.027-1.361-.863-1.753.012a2.124,2.124,0,0,0,.386,2.335A5.074,5.074,0,0,0,100,89.5m.173-49.926a4.347,4.347,0,0,0,3.578-2.475,2.318,2.318,0,0,0,.082-1.688c-.3-.861-.964-.163-1.471-.156-1.577.02-3.157,0-4.731.087-.636.037-1.46-1.045-1.875.127a2.17,2.17,0,0,0,.525,2.31,5.088,5.088,0,0,0,3.892,1.8M29.22,39.573a4.811,4.811,0,0,0,3.749-2.163,2.065,2.065,0,0,0,.2-2.138c-.333-.7-1.015-.006-1.547,0-1.494.026-2.992,0-4.483.089-.68.039-1.525-.935-1.982.032a2.274,2.274,0,0,0,.751,2.695,4.544,4.544,0,0,0,3.314,1.482m31.56,58.09c-1.567-1.176-2.834-2.131-4.108-3.077-.528-.392-1.025-.925-1.79-.523-.845.444-.463,1.172-.35,1.775.29,1.549.657,3.084,1.046,4.867l5.2-3.042m7.468-.037a28.2,28.2,0,0,0,5.174,2.917c.356-1.637.721-3.179,1.014-4.734.114-.606.478-1.329-.376-1.763-.653-.332-1.124.052-1.592.4-1.339,1-2.667,2.009-4.22,3.181" transform="translate(0 -0.061)" fill="#050404"/>
        <path id="Trazado_720686" data-name="Trazado 720686" d="M8.193,106.2c.014-5.117.018-10.235.043-15.352.021-4.358,1.4-6.223,5.566-7.512,3.439-1.064,6.9-2.058,10.329-3.15a2.9,2.9,0,0,1,3.3.777c3.558,3.349,7.889,3.377,11.5.079a3.011,3.011,0,0,1,3.526-.8c1.88.7,4.642.672,5.524,1.973,1.015,1.5-1.515,3.216-2.214,5a67.5,67.5,0,0,0-2.057,6.836c-3.56-3.181-7.56-4.906-12.264-4.269a14.523,14.523,0,0,0-12.764,14.493c-.013.669-.059,1.338-.091,2.007l-10.4-.074" transform="translate(-4.066 -39.689)" fill="#fa806c"/>
        <path id="Trazado_720687" data-name="Trazado 720687" d="M197.012,106.163a35.952,35.952,0,0,0-.342-4.75,14.515,14.515,0,0,0-22.715-9.128c-.539.373-1.068.76-1.925,1.371.155-4.854-1.432-8.646-5.656-11.442,2.9-.867,5.366-1.55,7.789-2.355,1.027-.341,1.5.223,2.147.79,4.068,3.589,8.132,3.639,12.07.012a2.572,2.572,0,0,1,2.882-.645c3.671,1.153,7.366,2.227,11.035,3.384,3.556,1.121,5.028,3.1,5.065,6.847.052,5.281.038,10.562.051,15.843l-10.4.074" transform="translate(-82.574 -39.584)" fill="#fa806c"/>
        <path id="Trazado_720688" data-name="Trazado 720688" d="M156.929,28.216c0,3.269-.109,6.544.043,9.807.086,1.843-1.015,1.53-2.065,1.517-1.016-.014-2.146.4-2.118-1.466.1-6.621.107-13.247-.008-19.868-.032-1.851,1.036-1.532,2.082-1.527,1.021.005,2.182-.394,2.1,1.478-.138,3.348-.039,6.706-.039,10.059" transform="translate(-75.827 -8.262)"/>
        <path id="Trazado_720689" data-name="Trazado 720689" d="M94.98,28.237c0-3.354.11-6.712-.043-10.059-.086-1.882,1.069-1.493,2.089-1.494s2.132-.365,2.1,1.505q-.167,9.932-.005,19.868c.027,1.842-1.064,1.48-2.1,1.488s-2.158.333-2.08-1.5c.139-3.264.039-6.537.039-9.807" transform="translate(-47.117 -8.264)"/>
        <path id="Trazado_720690" data-name="Trazado 720690" d="M140.389,23.909c0,1.585,0,3.17,0,4.756-.007,2.315-1.47,3.276-3.621,2.473-.8-.3-.645-.867-.647-1.411-.013-3.921.046-7.843-.032-11.764-.033-1.654,1.033-1.442,2-1.381.945.06,2.344-.57,2.309,1.32-.037,2-.008,4-.008,6.007" transform="translate(-67.543 -8.203)" fill="#181818"/>
        <path id="Trazado_720691" data-name="Trazado 720691" d="M115.642,23.992c0,1.752-.109,3.513.032,5.253.129,1.589-.459,2.073-1.972,1.943-1.231-.106-2.477.278-2.383-1.809.166-3.664.163-7.345,0-11.01-.09-2.054,1.113-1.743,2.373-1.838,1.517-.115,2.1.373,1.98,1.957-.137,1.825-.032,3.669-.032,5.5" transform="translate(-55.247 -8.197)" fill="#181818"/>
        <path id="Trazado_720692" data-name="Trazado 720692" d="M138.256,57.917c-1.788.449-2.215-.314-2.252-2.048-.04-1.832.618-2.17,2.27-2.146,1.545.023,2.2.316,2.13,2.044-.066,1.575-.19,2.667-2.147,2.149" transform="translate(-67.5 -26.663)" fill="#181818"/>
        <path id="Trazado_720693" data-name="Trazado 720693" d="M115.541,55.865c.581,2.22-.763,2.038-2.194,2.169-2.014.186-1.949-.879-2.053-2.352-.134-1.9.845-1.886,2.23-1.927,1.678-.049,2.641.309,2.017,2.109" transform="translate(-55.231 -26.678)" fill="#181818"/>
        <path id="Trazado_720694" data-name="Trazado 720694" d="M94.988,2.258C94.691.76,94.951-.058,96.8.051c1.5.088,2.48.074,2.3,2.051-.126,1.369-.047,2.334-1.927,2.18-1.455-.119-2.753.029-2.183-2.023" transform="translate(-47.076 -0.02)"/>
        <path id="Trazado_720695" data-name="Trazado 720695" d="M154.951.14c2.07-.581,1.887.744,2.01,2.183.16,1.857-.763,1.823-2.155,1.941-1.966.166-1.983-.788-2.062-2.3-.1-1.828.695-2.128,2.206-1.822" transform="translate(-75.806 0)"/>
        <path id="Trazado_720696" data-name="Trazado 720696" d="M87.124,97.169a19.917,19.917,0,0,1,33.228-17.4,20.987,20.987,0,0,0,4.706,3.677,5.878,5.878,0,0,1,3.265,5.31c.084,2.675.019,5.355.019,8.652-2.724-1.915-5.575-2.009-8.451-2.242-1.431-.116-1.569-2.006-2.126-3.15-.677-1.4-1.141-1.925-2.688-.822-4.309,3.074-9.262,4.043-14.49,4.11-4.542.058-9.225-.844-13.463,1.862" transform="translate(-43.163 -36.96)" fill="#f8d36e"/>
        <path id="Trazado_720697" data-name="Trazado 720697" d="M57.943,204.257c1.571.164,2.066-.451,2.075-2.1.032-5.888,3.016-9.5,8.772-10.9,2.764-.67,5.562-1.207,8.31-1.931,1.331-.351,1.905-.225,2.155,1.326.544,3.384,1.339,6.727,2.031,10.084.879.293,1.423-.371,2.043-.727,2.6-1.491,2.719-1.478,3.336,1.566.389,1.919-.093,3.828-.312,5.735-.374,3.246-.793,6.488-1.068,9.743-.1,1.233-.421,1.766-1.776,1.7-2.426-.113-4.865-.1-7.292,0-1.328.053-1.727-.382-1.705-1.7.071-4.359-.1-8.725.081-13.078.081-1.988-.931-1.838-2.273-1.916-1.51-.087-2.036.32-1.99,1.929.12,4.189-.049,8.386.082,12.574.057,1.821-.573,2.311-2.287,2.194a39.528,39.528,0,0,0-6.032.006c-1.853.158-2.324-.576-2.142-2.264a7.952,7.952,0,0,0-2.071-6.717l.063-5.526" transform="translate(-28.727 -93.886)" fill="#e1e4e8"/>
        <path id="Trazado_720698" data-name="Trazado 720698" d="M169.645,209.759a7.951,7.951,0,0,0-2.072,6.718c.182,1.688-.289,2.421-2.142,2.264a39.532,39.532,0,0,0-6.032-.007c-1.716.118-2.344-.375-2.287-2.195.131-4.189-.039-8.386.082-12.575.046-1.611-.485-2.012-1.992-1.927-1.345.076-2.353-.067-2.271,1.918.177,4.269-.013,8.552.09,12.826.037,1.554-.407,2.075-1.97,1.952a24.126,24.126,0,0,0-5.274.015c-2.639.379-3.669-.515-3.8-3.212-.186-3.843-.756-7.668-1.16-11.5-.035-.333-.075-.667-.1-1-.1-1.475.188-3.131,1.185-3.935.81-.654,1.908.856,2.937,1.279.372.153.73.339,1.324.618.739-3.571,1.506-6.957,2.11-10.372.221-1.251.53-1.756,1.905-1.391,3.071.815,6.2,1.418,9.266,2.245,5.2,1.4,8.049,5.033,8.064,10.4,0,1.6.214,2.585,2.07,2.352q.032,2.763.064,5.525" transform="translate(-69.832 -93.862)" fill="#e1e4e8"/>
        <path id="Trazado_720699" data-name="Trazado 720699" d="M128.275,127.247a50.914,50.914,0,0,1-.352,6,12.3,12.3,0,0,1-13.43,10.488,12.5,12.5,0,0,1-11.3-12.068c-.139-3.007,0-6.027-.058-9.04-.023-1.12.21-1.675,1.5-1.637,6.051.176,12.061.052,17.618-2.879,1.221-.644,1.367.583,1.679,1.242.5,1.048.993,1.93,2.38,1.661,1.617-.313,2.019.476,1.893,1.962-.119,1.413-.026,2.844-.026,4.267l.094,0" transform="translate(-51.188 -58.53)" fill="#eccdb1"/>
        <path id="Trazado_720700" data-name="Trazado 720700" d="M184.4,204.635q-.033-2.763-.064-5.525c1.757.182,2.191-.616,2.147-2.323-.191-7.536-4.438-12.855-11.95-14.709a14.608,14.608,0,0,1-4.1-1.428c1.924-.58,3.86-1.12,5.765-1.756,1.006-.335,1.5.24,2.15.813,4.047,3.583,8.089,3.622,12.057-.019a2.579,2.579,0,0,1,2.895-.626c3.668,1.148,7.359,2.223,11.027,3.373,3.445,1.08,4.99,3.06,5.044,6.6.064,4.1-.045,8.21.048,12.312.034,1.485-.516,1.775-1.883,1.8-6.542.136-6.541.177-6.541-6.405,0-2.177-.112-4.363.032-6.531.128-1.925-1.069-1.614-2.242-1.686-1.309-.08-1.979.169-1.934,1.728.107,3.682-.027,7.371.064,11.054.035,1.41-.351,1.94-1.808,1.835-1.667-.12-3.352.042-5.023-.045a8.818,8.818,0,0,0-5.684,1.531" transform="translate(-84.589 -88.738)" fill="#b0d97d"/>
        <path id="Trazado_720701" data-name="Trazado 720701" d="M33.316,199.261l-.063,5.526c-2.964-2.243-6.425-1.54-9.7-1.443-2.327.068-2.97-.616-2.835-2.886.2-3.338-.026-6.7.085-10.047.052-1.559-.625-1.808-1.933-1.728-1.173.072-2.316-.237-2.247,1.685.131,3.68-.016,7.37.065,11.054.03,1.376-.321,1.851-1.793,1.89-6.628.175-6.627.226-6.627-6.333,0-2.429-.019-4.858,0-7.287.038-4.048,1.454-5.978,5.3-7.17,3.432-1.064,6.907-2,10.309-3.149a3.226,3.226,0,0,1,3.744.8c3.4,3.159,7.675,3.239,11.086.144a3.484,3.484,0,0,1,4.193-.851c1.38.569,2.864.886,4.509,1.376-1.295,1.041-2.74,1-4.05,1.317-7.654,1.824-12,7.156-12.192,14.778-.043,1.708.39,2.505,2.147,2.323" transform="translate(-4.099 -88.889)" fill="#b0d97d"/>
        <path id="Trazado_720702" data-name="Trazado 720702" d="M187.962,147.649a10.457,10.457,0,0,1-10.382-11.144c.037-.39.193-1.092.332-1.1,2.162-.153,4.475-1.865,6.186-1.247,3.994,1.442,7.96.911,11.926.928,2.162.01,2.486.8,2.32,2.619a10.541,10.541,0,0,1-10.383,9.946" transform="translate(-88.115 -66.517)" fill="#eacbaf"/>
        <path id="Trazado_720703" data-name="Trazado 720703" d="M43.078,135.183a26.507,26.507,0,0,0,8.15-.983c1.9-.642,4.013,1.223,6.23,1.13.5-.021.428.8.462,1.29a10.461,10.461,0,0,1-10.237,11.047A10.61,10.61,0,0,1,37.1,136.622c.057-1.069.354-1.5,1.45-1.455,1.506.064,3.016.016,4.525.017" transform="translate(-18.408 -66.539)" fill="#eacbaf"/>
        <path id="Trazado_720704" data-name="Trazado 720704" d="M57.907,38.7c-.388,6.169-4.986,10.542-10.631,10.358A10.638,10.638,0,0,1,37.114,38.385c-.028-1.4.508-1.552,1.766-1.927,5.912-1.762,11.724,1.074,17.592.133C58.567,36.255,57.7,38,57.907,38.7" transform="translate(-18.42 -17.802)" fill="#ebcbb0"/>
        <path id="Trazado_720705" data-name="Trazado 720705" d="M188.044,48.745a10.561,10.561,0,0,1-10.513-11.028c.05-1.277.555-1.521,1.667-1.492,2.338.058,4.678.031,7.016.01.916-.009,2.061.237,2.709-.206,2.981-2.039,5.73.433,8.59.242,1.036-.069.806.839.834,1.463a10.591,10.591,0,0,1-10.3,11.012" transform="translate(-88.107 -17.478)" fill="#ebcbb0"/>
        <path id="Trazado_720706" data-name="Trazado 720706" d="M52.251,18.839c-2.934.066-5.912.375-8.126-2.261-.748-.89-1.311-.016-1.841.46-1.353,1.215-3.237,2.631-4.606,1.463-1.122-.958.084-3.085.856-4.551a10.429,10.429,0,0,1,9.732-5.5,10.553,10.553,0,0,1,9.248,7.374c.8,2.676.563,3-2.245,3.01-1.006,0-2.012,0-3.018,0" transform="translate(-18.474 -4.178)" fill="#ae7644"/>
        <path id="Trazado_720707" data-name="Trazado 720707" d="M187.9,8.408a10.554,10.554,0,0,1,10.328,8.613c.378,1.932-.508,2.017-1.862,1.688a3.931,3.931,0,0,1-2.027-.913c-1.569-1.87-2.867-1.5-4.406.058a4.418,4.418,0,0,1-3.3.984c-2.012-.025-4.023,0-6.036-.005-3.116,0-3.345-.32-2.376-3.265A10.534,10.534,0,0,1,187.9,8.408" transform="translate(-88.206 -4.173)" fill="#ae7644"/>
        <path id="Trazado_720708" data-name="Trazado 720708" d="M57.894,116.455c.289,1.869-1.337,1.792-2.01,1.239-2.807-2.309-5.085-1.418-8.163-.154-2.732,1.123-6.266.292-9.446.328-.779.009-.919-.391-.909-1.111.067-4.655,5.049-9.169,10.268-9.256,4.97-.083,10.1,4.368,10.26,8.953" transform="translate(-18.545 -53.354)" fill="#ae7644"/>
        <path id="Trazado_720709" data-name="Trazado 720709" d="M192.755,117.952c-3,.042-6.081.449-8.366-2.271-.64-.763-1.175.008-1.661.427-1.356,1.168-3.267,2.756-4.575,1.523-1.352-1.274.045-3.429.978-4.993a10.087,10.087,0,0,1,10.729-4.81,10.324,10.324,0,0,1,8.252,8.115c.337,1.528.123,2.2-1.591,2.033-1.245-.118-2.51-.023-3.767-.023" transform="translate(-88.142 -53.431)" fill="#ae7644"/>
        <path id="Trazado_720710" data-name="Trazado 720710" d="M79.4,151.26a11.708,11.708,0,0,0,5.416,2.6c.876.108,1.214.745,1.553,1.453a15.728,15.728,0,0,0,3.409,4.626,2.662,2.662,0,0,1,1.01,1.645c.5,3.613-.244,4.267-3.767,3.194-3.68-1.12-7.37-2.21-11.047-3.341-2.138-.657-2.7-2.789-1.013-4.278a18.743,18.743,0,0,0,4.438-5.9" transform="translate(-36.716 -75.073)" fill="#f0f2f3"/>
        <path id="Trazado_720711" data-name="Trazado 720711" d="M159.862,151.258a18.469,18.469,0,0,0,4.4,5.872c1.762,1.563,1.28,3.605-.912,4.279-3.818,1.174-7.658,2.274-11.468,3.469-1.136.357-2.591.979-3.138-.194-.579-1.241-.836-3.067.276-4.25a20.764,20.764,0,0,0,4.106-5.612,1.588,1.588,0,0,1,1.349-.961,12.1,12.1,0,0,0,5.388-2.6" transform="translate(-73.577 -75.072)" fill="#f0f2f3"/>
        <path id="Trazado_720712" data-name="Trazado 720712" d="M124.4,233.491c-3.793,0-3.829,0-3.48-3.754.287-3.083.786-6.149.974-9.237.129-2.13,1.564-1.488,2.69-1.559,1.174-.075,2.276-.233,2.389,1.615a87.184,87.184,0,0,0,1.109,10.227c.418,2.3-.153,3.1-2.427,2.717a7.721,7.721,0,0,0-1.255-.01" transform="translate(-59.946 -108.644)" fill="#f57d6a"/>
        <path id="Trazado_720713" data-name="Trazado 720713" d="M116.419,175.728a17.547,17.547,0,0,0,10.746.078c.337-.1.72-.16.817.234.157.637.347,1.4-.252,1.874-1.757,1.4-3.568,2.739-5.361,4.1a.866.866,0,0,1-1.134-.11q-2.5-1.88-4.984-3.771c-.728-.553-.621-1.318-.458-2.054a.444.444,0,0,1,.627-.347" transform="translate(-57.411 -87.196)" fill="#e5c6ac"/>
        <path id="Trazado_720714" data-name="Trazado 720714" d="M90.986,125.465c0,3.3.01,6.4-.011,9.5,0,.465.27,1.084-.243,1.369-.628.349-1.082-.225-1.532-.561-3.688-2.748-2.886-9.038,1.786-10.311" transform="translate(-43.122 -62.27)" fill="#eacbaf"/>
        <path id="Trazado_720715" data-name="Trazado 720715" d="M160.957,125.441c4.649,1.283,5.5,7.549,1.774,10.332-.45.336-.911.909-1.533.545-.5-.29-.228-.909-.231-1.376-.02-3.1-.01-6.2-.01-9.5" transform="translate(-79.856 -62.258)" fill="#eacbaf"/>
        <path id="Trazado_720716" data-name="Trazado 720716" d="M120.891,201.716c.537-1.377,2.178-1.786,3.53-2.387.841-.375,3.721,2.009,3.629,2.8-.248,2.124-1.211,3.2-3.609,2.969-2.488-.241-3.553-.934-3.55-3.384" transform="translate(-60 -98.91)" fill="#f57d6a"/>
        <path id="Trazado_720717" data-name="Trazado 720717" d="M53.8,172.978a4.864,4.864,0,0,1-3.324-1.5,2.322,2.322,0,0,1-.781-2.7c.443-.991,1.307-.027,1.987-.069,1.493-.094,3-.068,4.494-.067.536,0,1.217-.711,1.558-.009a2.051,2.051,0,0,1-.186,2.141,4.946,4.946,0,0,1-3.747,2.206" transform="translate(-24.578 -83.541)" fill="#e5c6ac"/>
        <path id="Trazado_720718" data-name="Trazado 720718" d="M194.2,172.959A5.074,5.074,0,0,1,190.382,171a2.124,2.124,0,0,1-.386-2.335c.392-.875,1.161-.039,1.753-.012a16.436,16.436,0,0,0,4.981-.134c1.89-.5,1.62.761,1.327,1.617a4.317,4.317,0,0,1-3.858,2.819" transform="translate(-94.203 -83.515)" fill="#e5c6ac"/>
        <path id="Trazado_720719" data-name="Trazado 720719" d="M194.388,73.873a5.088,5.088,0,0,1-3.891-1.8,2.17,2.17,0,0,1-.525-2.31c.416-1.172,1.24-.09,1.876-.127,1.573-.091,3.153-.066,4.731-.087.507-.007,1.175-.7,1.471.156a2.318,2.318,0,0,1-.082,1.688,4.347,4.347,0,0,1-3.578,2.475" transform="translate(-94.219 -34.355)" fill="#eacbaf"/>
        <path id="Trazado_720720" data-name="Trazado 720720" d="M53.818,73.9a4.537,4.537,0,0,1-3.315-1.48,2.274,2.274,0,0,1-.75-2.695c.457-.968,1.3.007,1.982-.032,1.491-.086,2.988-.062,4.483-.089.531-.01,1.214-.707,1.546,0a2.064,2.064,0,0,1-.2,2.137A4.8,4.8,0,0,1,53.818,73.9" transform="translate(-24.597 -34.387)" fill="#eacbaf"/>
        <path id="Trazado_720721" data-name="Trazado 720721" d="M114.335,190.089l-5.2,3.042c-.389-1.783-.756-3.318-1.046-4.867-.113-.6-.495-1.331.35-1.775.764-.4,1.261.131,1.79.523,1.274.946,2.54,1.9,4.108,3.077" transform="translate(-53.554 -92.486)" fill="#c1c5cd"/>
        <path id="Trazado_720722" data-name="Trazado 720722" d="M135.5,190.049c1.553-1.173,2.881-2.185,4.22-3.181.467-.348.938-.732,1.592-.4.854.435.491,1.157.376,1.763-.293,1.555-.658,3.1-1.014,4.734a28.2,28.2,0,0,1-5.174-2.917" transform="translate(-67.25 -92.484)" fill="#c1c5cd"/>
      </g>
    </g>
  </g>
</svg>
