<svg id="Grupo_1018191" data-name="Grupo 1018191" xmlns="http://www.w3.org/2000/svg" xmlns:xlink="http://www.w3.org/1999/xlink" width="171.059" height="170.97" viewBox="0 0 171.059 170.97">
  <defs>
    <clipPath id="clip-path">
      <rect id="Rectángulo_350841" data-name="Rectángulo 350841" width="171.059" height="170.97" fill="none"/>
    </clipPath>
  </defs>
  <g id="Grupo_1018190" data-name="Grupo 1018190" clip-path="url(#clip-path)">
    <path id="Trazado_720671" data-name="Trazado 720671" d="M167.62,184.816c2.349.43,3.373,1.869,3.344,4.222-.042,3.449-.032,6.9,0,10.349.022,2.7-1.205,4.22-3.973,4.222q-20.2.023-40.395,0c-3.087,0-3.909-1.87-3.894-4.608.051-8.791-.05-17.583.061-26.373.032-2.55-.475-2.886-2.656-1.52-5.927,3.713-11.989,7.21-17.933,10.9-5.261,3.261-10.423,3.605-15.469-.285-1.032-.8-1.541-.661-2.5.064-4.947,3.741-10.019,3.524-15.19.345-5.864-3.606-11.78-7.128-17.692-10.655-.824-.492-1.646-1.611-2.593-1.146-1,.492-.445,1.795-.45,2.723-.039,8.569,0,17.138-.033,25.706-.015,4.017-.877,4.85-4.956,4.855q-19.2.026-38.392,0c-3.856-.006-4.87-1.049-4.875-4.98C0,184.387.05,170.143,0,155.9c-.031-8.777,3.289-15.788,10.759-20.544,1.842-1.173,1.126-1.712.136-2.889-7.351-8.746-6.28-23.343,2.171-30.05a16.887,16.887,0,0,1,17.879-2.544,17,17,0,0,1,11,14.718c.659,6.408.255,12.726-4.541,17.866,18.083,6.087,31.045,19.776,46.308,29.889,1.479.979,2.111,1.051,3.545-.019,9.892-7.374,19.888-14.611,29.863-21.873A47.3,47.3,0,0,1,133.7,132.81c-5.23-6.219-5.753-13.259-4.225-20.51a17.79,17.79,0,0,1,34.932,1.361c1.029,7.043.531,13.819-4.8,19.3-1.032,1.061-.768,1.5.345,2.189,9.4,5.842,11.678,14.823,10.988,25.1a3.531,3.531,0,0,1-3.313,3.536c-2.593-.4-3.479-2.054-3.375-4.5.061-1.444.027-2.892.007-4.338-.119-8.669-5.905-15.422-14.493-16.339-8.44-.9-16.847-.1-24.171,4.466-12.072,7.534-23.18,16.476-34.65,24.882a5.267,5.267,0,0,0-1.09,7.462,5.61,5.61,0,0,0,7.117,1.779,25.223,25.223,0,0,0,2.6-1.481q14.411-8.681,28.818-17.371c2-1.2,4.128-1.789,5.536.558,1.383,2.3.1,4.123-2.062,5.131-2.017.942-2.55,2.3-2.517,4.468q.2,12.845.007,25.7c-.029,2.126.475,2.832,2.721,2.794,8.229-.14,16.462-.055,24.694-.055,7.378,0,7.432,0,7.462-7.24.01-2.512.6-4.395,3.381-4.877M6.7,174.123c0,6.67.068,13.342-.041,20.01-.033,2.036.327,2.891,2.664,2.858,9.892-.14,19.788-.121,29.681-.01,2.086.023,2.619-.6,2.591-2.622-.11-7.892-.1-15.786-.017-23.679.033-3.063.237-5.877-3.435-7.353-1.871-.752-2.148-2.818-1.023-4.577,1.076-1.682,2.755-1.7,4.439-.955a21.361,21.361,0,0,1,2.3,1.333Q57.7,167.466,71.54,175.805c4.456,2.683,7.727,2.491,9.668-.55s.965-5.834-3.178-8.864c-9.058-6.624-18.217-13.114-27.169-19.878-8.406-6.352-17.869-8.682-28.18-8.1-9.581.544-15.926,7.373-15.974,17.03C6.676,161.672,6.7,167.9,6.7,174.123m28.693-55.67c0-6.933-2.91-11.488-8.24-12.893a11.158,11.158,0,0,0-13.963,8.891c-1.7,9.253,2.325,16.409,9.632,17.111,7.643.734,12.57-4.4,12.571-13.109m100.18.025c0,7.3,3.451,12.144,9.273,13.034a11.1,11.1,0,0,0,12.941-9.134c1.569-8.621-1.822-15.464-8.376-16.9-.216-.047-.44-.057-.66-.091-7.795-1.2-13.181,4.148-13.178,13.088" transform="translate(0 -32.656)" fill="#040404"/>
    <path id="Trazado_720672" data-name="Trazado 720672" d="M211.727,204.627c-2.781.482-3.371,2.365-3.381,4.877-.03,7.24-.084,7.24-7.462,7.24-8.232,0-16.465-.084-24.694.055-2.246.038-2.75-.668-2.721-2.794q.172-12.847-.007-25.7c-.033-2.166.5-3.526,2.517-4.468,2.158-1.008,3.445-2.827,2.062-5.13-1.408-2.347-3.54-1.762-5.536-.559q-14.408,8.689-28.819,17.372a25.212,25.212,0,0,1-2.6,1.48,5.61,5.61,0,0,1-7.117-1.779,5.266,5.266,0,0,1,1.09-7.461c11.47-8.407,22.578-17.348,34.65-24.882,7.324-4.571,15.73-5.368,24.171-4.466,8.588.917,14.374,7.67,14.493,16.339.02,1.446.054,2.895-.007,4.338-.1,2.449.782,4.1,3.375,4.5q-.022,3.325-.045,6.65c-1.761.534-3.284,1.358-3.284,3.48s1.557,2.924,3.29,3.491l.028,7.41" transform="translate(-44.107 -52.467)" fill="#71d6fc"/>
    <path id="Trazado_720673" data-name="Trazado 720673" d="M147.5,6.849c-.927-.072-1.343-.144-1.756-.13-2.444.08-4.366-.8-4.279-3.469C141.55.57,143.618-.04,145.986.007c2.891.057,5.785.079,8.674,0,3.156-.09,4.431,1.519,4.412,4.494-.018,2.892,0,5.784,0,8.675,0,2.327-.573,4.4-3.345,4.435-2.546.031-3.3-1.831-3.371-4.078a11.631,11.631,0,0,0-.191-1.315c-1.332.275-1.872,1.326-2.617,2.068Q131,32.777,112.493,51.313c-3.24,3.239-4.461,3.24-7.695.011-7.4-7.385-14.833-14.736-22.137-22.212-1.527-1.563-2.331-1.5-3.815.029C73.2,34.971,67.4,40.656,61.656,46.4c-.472.472-.948.939-1.414,1.417-1.623,1.662-3.517,2.769-5.483.847-2.123-2.074-.889-4.02.849-5.726,1.269-1.247,2.522-2.511,3.781-3.769q8.732-8.727,17.465-17.453c3.335-3.323,4.432-3.339,7.685-.092,7.479,7.464,14.975,14.91,22.383,22.443,1.294,1.316,2,1.441,3.377.055,12.207-12.32,24.494-24.561,37.2-37.267" transform="translate(-17.801 0)" fill="#060606"/>
    <path id="Trazado_720674" data-name="Trazado 720674" d="M249.21,213.191c-1.732-.567-3.29-1.363-3.29-3.491s1.523-2.946,3.284-3.48c1.779.522,3.328,1.332,3.333,3.476s-1.579,2.935-3.327,3.5" transform="translate(-81.617 -68.442)" fill="#0b0e0f"/>
    <path id="Trazado_720675" data-name="Trazado 720675" d="M47.722,80.518c-.41,1.955-1.506,3.257-3.578,3.107a3.27,3.27,0,0,1,.3-6.531c2.061.038,3.071,1.41,3.276,3.424" transform="translate(-13.644 -25.586)" fill="#0b0b0b"/>
    <path id="Trazado_720676" data-name="Trazado 720676" d="M10.009,193.961c0-6.225-.025-12.451.006-18.676.048-9.658,6.393-16.487,15.974-17.03,10.311-.585,19.774,1.745,28.18,8.1,8.951,6.764,18.11,13.254,27.168,19.878,4.144,3.03,5.125,5.813,3.178,8.864s-5.211,3.232-9.667.549q-13.841-8.333-27.675-16.676a21.314,21.314,0,0,0-2.3-1.333c-1.684-.745-3.364-.728-4.44.955-1.124,1.759-.847,3.826,1.024,4.577,3.671,1.476,3.468,4.29,3.435,7.353-.083,7.892-.093,15.787.016,23.678.028,2.024-.5,2.646-2.591,2.622-9.893-.11-19.788-.13-29.68.01-2.337.033-2.7-.822-2.664-2.858.109-6.668.041-13.34.041-20.01" transform="translate(-3.308 -52.493)" fill="#9ee356"/>
    <path id="Trazado_720677" data-name="Trazado 720677" d="M41.754,121.817c0,8.706-4.927,13.844-12.571,13.109-7.308-.7-11.336-7.857-9.632-17.111a11.158,11.158,0,0,1,13.963-8.891c5.33,1.405,8.241,5.96,8.24,12.893" transform="translate(-6.36 -36.021)" fill="#f8c39a"/>
    <path id="Trazado_720678" data-name="Trazado 720678" d="M202.919,121.871c0-8.939,5.383-14.288,13.178-13.088.22.034.444.043.66.091,6.554,1.432,9.946,8.275,8.376,16.9a11.1,11.1,0,0,1-12.941,9.134c-5.822-.89-9.271-5.737-9.273-13.034" transform="translate(-67.346 -36.048)" fill="#f8c39a"/>
  </g>
</svg>
