<svg xmlns="http://www.w3.org/2000/svg" xmlns:xlink="http://www.w3.org/1999/xlink" width="146" height="146" viewBox="0 0 146 146">
  <defs>
    <clipPath id="clip-path">
      <rect id="Rectángulo_350871" data-name="Rectángulo 350871" width="127.126" height="129.008" fill="none"/>
    </clipPath>
  </defs>
  <g id="Grupo_1018230" data-name="Grupo 1018230" transform="translate(-488.25 -8254.999)">
    <circle id="Elipse_5862" data-name="Elipse 5862" cx="73" cy="73" r="73" transform="translate(488.25 8254.999)" fill="#cda7ff"/>
    <g id="Grupo_1018206" data-name="Grupo 1018206" transform="translate(497.687 8264)">
      <g id="Grupo_1018205" data-name="Grupo 1018205" clip-path="url(#clip-path)">
        <path id="Trazado_720723" data-name="Trazado 720723" d="M38.3,103.845c-.06,1.314-.4,2.022-2.064,1.994-7.137-.122-14.279.028-21.416-.075A14.753,14.753,0,0,1,.028,90.792q-.054-37.922,0-75.844A14.684,14.684,0,0,1,14.843.033q38.046-.071,76.094,0a14.694,14.694,0,0,1,14.937,14.8c.069,12.347-.019,24.694.054,37.04.015,2.436-.956,3.306-3.3,3.212-2.851-.113-5.715-.119-8.564.017-1.189.056-3.2-1.088-3.166,1.708.007.678-1.385.191-2.021.624-2.56.164-2.2-2.011-2.637-3.428-.616-2.013.167-3.036,2.276-3.1,2.431-.068,4.865-.019,7.3-.019,5.914,0,5.937,0,5.909-5.818-.041-8.465-.119-16.931-.18-25.4a47.586,47.586,0,0,0,.1-5.264c-.517-5.894-4.323-9.95-10.251-10.084-11.575-.262-23.16-.086-34.741-.135-1.415-.006-1.658.668-1.627,1.865.059,2.264.084,4.534-.007,6.8-.061,1.506.138,2.078,2,2.039,6.9-.143,12.248,4.937,12.881,11.891.559,6.135-3.975,11.839-10.342,13.293-1.485.339-3.619-.662-4.324.858-.641,1.38-.14,3.292-.136,4.969a3.449,3.449,0,0,0,.073.5c-.042.581-.043,1.168-.135,1.742-.342,2.126.342,2.972,2.67,2.8,3.162-.23,6.353-.066,9.531-.054,3.355.012,3.855.657,3.048,3.868-1.1,4.392.651,8.4,4.76,10.148,1.451.617,1.7,1.327,1.348,2.61-.218,1.834-1.008,2.353-2.8,1.5-5.026-2.391-7.8-6.3-7.875-11.852-.026-1.847-.52-2.255-2.217-2.15a64.236,64.236,0,0,1-6.8.007c-1.367-.061-1.7.456-1.683,1.74.068,4.114.031,8.229.023,12.345-.007,3.57-.494,3.937-4.011,3.069a8.588,8.588,0,0,0-9.952,4.483,8.159,8.159,0,0,0,2.756,10.479c1.6,1.046,1.078,1.911.683,3.064-.525,1.5-1.268,1.805-2.7.834A14.058,14.058,0,0,1,36,82.106c-.19-8.892,4.571-14.1,13.352-14.456,1.283-.052,1.549-.458,1.53-1.6-.052-3.1-.073-6.211.007-9.314.035-1.346-.459-1.734-1.751-1.711-3.607.067-7.217.041-10.825.016-2.914-.02-3.6-.94-2.825-3.7,1.111-3.983.045-7.407-3-9.629a8.5,8.5,0,0,0-9.884-.039c-3.034,2.18-4.136,5.649-3.053,9.61.749,2.736.018,3.739-2.83,3.762-3.608.029-7.218.054-10.825-.017-1.319-.026-1.74.414-1.73,1.731.081,10.654.1,21.308.144,31.962-.628,7.953,3.758,12.723,11.739,12.74,6.523.015,13.048.077,19.568-.043,1.9-.035,2.829.46,2.675,2.428M4.31,40.318c-.045,2.847-.053,5.7-.151,8.542-.045,1.312.474,1.789,1.766,1.751,2.179-.064,4.365-.1,6.54.01,1.63.079,2.325-.264,2.367-2.16a12.244,12.244,0,0,1,6.249-10.816c8.437-5,18.762.811,19.16,10.816.064,1.6.406,2.258,2.093,2.163a65.308,65.308,0,0,1,6.539-.005c1.51.067,2.08-.431,2.036-1.995-.1-3.352-.04-6.709-.025-10.064.014-3.212.678-3.725,3.746-2.95a8.449,8.449,0,0,0,9.414-12.991c-2.164-3.029-5.653-4.13-9.6-3.03-2.521.7-3.142.289-3.681-2.448.038-3.69.03-7.38.139-11.067.042-1.43-.471-1.923-1.882-1.9-3.691.063-7.384.02-11.076.02-7.3,0-14.6-.057-21.9.018C9.033,4.286,4.481,8.1,4.28,14.654c-.262,8.546,0,17.108.029,25.664" transform="translate(0 0)" fill="#040302"/>
        <path id="Trazado_720724" data-name="Trazado 720724" d="M128.817,120.229c1.949-.266,3.578-1.361,5.343-2.1,3.153-1.315,3.653-1.151,4.83,1.983,1.855,4.935,3.718,9.868,5.526,14.821a6.3,6.3,0,0,0,2.534,3.27c5.158,3.451,10.222,7.041,15.362,10.518a11.146,11.146,0,0,1,5.251,9.967c-.077,8.146-.012,16.294-.035,24.44,0,.959.531,2.311-1.408,2.15-1.438-.119-3.194.42-2.879-2.063.034-8.446.1-16.892.078-25.339a6.233,6.233,0,0,0-2.9-5.287q-5.9-4.033-11.8-8.049l-.646.086.363.279c.863,2.439,1.677,4.9,2.6,7.311,1.025,2.674,2.326,5.436,1.7,8.252-.692,3.1-.085,5.313,2.481,7.061,1.728,1.177.495,1.936-.335,2.873-.936,1.057-1.553,1.369-2.741.131-4.179-4.357-8.495-8.582-12.775-12.841-1.941-1.931-3.531-2.148-5.019-.753-1.513,1.419-1.3,3.213.657,5.207,1.822,1.854,3.631,3.725,5.527,5.5a5.751,5.751,0,0,1,1.884,3.932,10.011,10.011,0,0,0,8.235,8.957c1.891.277,2.4,1.019,2.353,2.647.1,1.662-.586,2.136-2.251,1.81a31.994,31.994,0,0,1-5.662-1.9,23.541,23.541,0,0,1-4.433-4.353c-2.247-3.344-2.278-3.321-6.165-1.794-.232.091-.473.163-.713.236-1.179.355-1.207.978-.4,1.766a5.2,5.2,0,0,0,1.495,1.3c1.587.591,1.651,1.607,1.082,2.924-.363,2.106-1.482,1.914-2.917,1.007a8.45,8.45,0,0,1-3.434-3.235c-.863-1.861-1.926-1.475-3.355-.922-5.765,2.227-11.558,4.381-17.343,6.556-2.942,1.105-3.555.832-4.666-2.113-.914-2.423-1.8-4.855-2.694-7.286-.3-.813-.514-1.473-1.7-.911a12.735,12.735,0,0,1-17.882-13.479,5.656,5.656,0,0,0,0-.751c1.321-4.028,3.445-7.61,7.631-8.92,2.947-.922,2.391-2.178,1.323-4.007q-1.746-4.829-3.492-9.659c-1.041-2.872-.775-3.526,1.956-4.562q6.1-2.315,12.211-4.589c3.034-1.13,3.751-.654,4.109,2.673a8.5,8.5,0,0,0,16.921.3c.366-2.757-1.1-5.007-2.035-7.406a2.7,2.7,0,0,1,1.92-2.589c1.962-.848,3.892-1.769,5.836-2.66l.5-.431Zm-41.44,48.383c2.655,4.8,7.955,5.9,12.622,2.628,2.322-1.63,3.269-1.381,4.3,1.245q1.608,4.09,3.085,8.232c.391,1.092.712,1.653,2.122,1.107,8.9-3.44,17.841-6.785,26.788-10.109,1.259-.467,1.45-.887.451-1.845-1.695-1.625-3.34-3.3-4.987-4.978-3.441-3.5-3.676-7.832-.609-10.936,3-3.031,7.583-2.845,10.961.486,2,1.976,3.956,4,5.931,6.01l.734-.417c-1.53-7.227-4.649-13.937-7.317-20.793-1.886-5.192-3.785-10.38-5.647-15.581-.369-1.032-.906-1.236-1.886-.782-2.2,1.022-4.422,2.021-6.669,2.947-1.192.491-1.55.964-1.108,2.4,2.187,7.123-1.241,13.948-7.963,16.218-6.6,2.228-13.342-1.073-16-7.98-.492-1.28-.965-1.519-2.146-1.046-2.178.872-4.367,1.727-6.593,2.461-1.447.478-1.733,1.133-1.152,2.577,1.531,3.808,2.911,7.677,4.327,11.531,1.175,3.2.683,4.075-2.776,4.32-6.053.428-9.514,7.437-6.473,12.3" transform="translate(-40.569 -58.172)" fill="#050505"/>
        <path id="Trazado_720725" data-name="Trazado 720725" d="M141.782,81.78c-1.944.891-3.875,1.812-5.836,2.659a2.7,2.7,0,0,0-1.92,2.589,10.683,10.683,0,0,1-3.643-.18c.349-1.284.1-1.995-1.347-2.612-4.109-1.746-5.864-5.756-4.759-10.147.807-3.211.307-3.856-3.048-3.868-3.179-.011-6.37-.175-9.531.054-2.328.169-3.012-.676-2.671-2.8.092-.573.093-1.161.137-1.741,3.1-.045,5.8-1.452,8.582-2.53,13.518-5.237,26.032-12.069,36.031-22.86.5-.539.948-1.194,1.764-1.337.062,8.465.139,16.93.18,25.4.028,5.817.006,5.817-5.909,5.818-2.433,0-4.867-.05-7.3.018-2.108.059-2.891,1.083-2.276,3.1.434,1.418.077,3.592,2.638,3.428.254,1.605-.7,3.049-.625,4.63l.033-.042c-.359-.079-.449.155-.5.431" transform="translate(-54.003 -19.334)" fill="#d25144"/>
        <path id="Trazado_720726" data-name="Trazado 720726" d="M54.538,171.645c1.068,1.829,1.623,3.085-1.323,4.007-4.185,1.31-6.31,4.891-7.631,8.92l-3.1-.023c.154-1.968-.774-2.463-2.675-2.428-6.521.12-13.045.057-19.568.043-7.981-.017-12.367-4.787-11.739-12.741,5.957.014,11.76-1.113,17.562-2.31,4.848-1,9.362-3.054,14.127-4.3a14.06,14.06,0,0,0,5.8,8.924c1.436.971,2.18.67,2.7-.834a10.278,10.278,0,0,0,5.848.745" transform="translate(-4.184 -80.703)" fill="#faa419"/>
        <path id="Trazado_720727" data-name="Trazado 720727" d="M199.34,171.266q5.9,4.024,11.8,8.05a6.233,6.233,0,0,1,2.9,5.287c.025,8.446-.044,16.892-.078,25.338l-10.345-.031c.05-1.628-.461-2.369-2.353-2.647a10.012,10.012,0,0,1-8.235-8.957,5.749,5.749,0,0,0-1.884-3.932c-1.9-1.777-3.705-3.647-5.527-5.5-1.959-1.994-2.171-3.788-.657-5.207,1.488-1.4,3.079-1.178,5.019.752,4.28,4.259,8.6,8.485,12.775,12.842,1.188,1.238,1.8.925,2.741-.131.83-.937,2.063-1.7.335-2.873-2.567-1.749-3.174-3.965-2.481-7.061.629-2.816-.672-5.578-1.7-8.252-.925-2.415-1.739-4.873-2.6-7.311a1.533,1.533,0,0,0,.282-.366" transform="translate(-91.194 -84.895)" fill="#f8c49f"/>
        <path id="Trazado_720728" data-name="Trazado 720728" d="M186.065,240.776c.569-1.317.5-2.333-1.082-2.924a5.2,5.2,0,0,1-1.5-1.3c-.811-.788-.783-1.411.4-1.767.239-.072.48-.145.712-.236,3.886-1.527,3.918-1.549,6.165,1.795a23.537,23.537,0,0,0,4.433,4.353l-9.129.08" transform="translate(-90.677 -115.772)" fill="#f3b88d"/>
        <path id="Trazado_720729" data-name="Trazado 720729" d="M40.1,121.529c-4.764,1.249-9.279,3.3-14.126,4.3-5.8,1.2-11.6,2.323-17.562,2.31-.04-10.654-.063-21.309-.144-31.962-.01-1.316.411-1.757,1.73-1.73,3.607.071,7.217.046,10.825.017,2.847-.023,3.579-1.026,2.83-3.762-1.084-3.961.018-7.43,3.052-9.61a8.5,8.5,0,0,1,9.884.039c3.045,2.222,4.111,5.646,3,9.629-.772,2.765-.089,3.685,2.825,3.705,3.608.025,7.218.05,10.825-.016,1.292-.024,1.786.365,1.751,1.711-.081,3.1-.06,6.21-.008,9.314.02,1.139-.247,1.545-1.529,1.6-8.782.354-13.542,5.564-13.353,14.456" transform="translate(-4.1 -39.422)" fill="#fbb42f"/>
        <path id="Trazado_720730" data-name="Trazado 720730" d="M8.4,44.421c-.034-8.556-.291-17.118-.029-25.664.2-6.552,4.752-10.368,11.758-10.441,7.3-.076,14.6-.018,21.9-.018,3.692,0,7.385.043,11.076-.02,1.411-.024,1.924.47,1.882,1.9-.109,3.687-.1,7.378-.139,11.067a2.263,2.263,0,0,0-.7.247A120.311,120.311,0,0,1,22.169,39.939C17.678,41.719,13.2,43.56,8.4,44.421" transform="translate(-4.093 -4.103)" fill="#87b136"/>
        <path id="Trazado_720731" data-name="Trazado 720731" d="M155.5,23.773c-.815.144-1.263.8-1.764,1.337-10,10.792-22.514,17.624-36.031,22.86-2.783,1.078-5.486,2.485-8.582,2.53a3.263,3.263,0,0,1-.075-.5c0-1.678-.5-3.589.136-4.969.705-1.52,2.839-.519,4.324-.858,6.366-1.454,10.9-7.158,10.342-13.293-.633-6.954-5.979-12.034-12.881-11.891-1.86.038-2.059-.534-2-2.039.091-2.262.066-4.532.007-6.8-.031-1.2.212-1.871,1.627-1.865,11.581.049,23.166-.127,34.741.135,5.928.134,9.734,4.19,10.251,10.084a47.585,47.585,0,0,1-.1,5.264" transform="translate(-53.958 -4.103)" fill="#e55849"/>
        <path id="Trazado_720732" data-name="Trazado 720732" d="M8.395,57.167c4.794-.861,9.275-2.7,13.766-4.482A120.311,120.311,0,0,0,54.142,34.237a2.264,2.264,0,0,1,.7-.247c.539,2.737,1.16,3.15,3.681,2.448,3.951-1.1,7.441,0,9.6,3.03a8.449,8.449,0,0,1-9.414,12.991c-3.068-.776-3.732-.263-3.746,2.95-.015,3.355-.071,6.712.025,10.064.044,1.563-.525,2.062-2.036,1.995a65.306,65.306,0,0,0-6.539.005c-1.687.095-2.03-.564-2.093-2.163-.4-10-10.723-15.814-19.16-10.816a12.244,12.244,0,0,0-6.249,10.816c-.042,1.9-.737,2.239-2.367,2.16-2.175-.106-4.361-.074-6.54-.01C8.717,67.5,8.2,67.02,8.243,65.708c.1-2.845.106-5.694.151-8.542" transform="translate(-4.085 -16.848)" fill="#7ea533"/>
        <path id="Trazado_720733" data-name="Trazado 720733" d="M91.712,173.816c-3.041-4.866.421-11.874,6.473-12.3,3.459-.245,3.95-1.122,2.776-4.32-1.416-3.854-2.8-7.723-4.327-11.531-.58-1.444-.3-2.1,1.152-2.577,2.227-.734,4.416-1.589,6.593-2.461,1.181-.474,1.654-.234,2.146,1.046,2.657,6.907,9.4,10.208,16,7.98,6.721-2.269,10.15-9.095,7.963-16.218-.442-1.438-.084-1.91,1.108-2.4,2.246-.926,4.464-1.925,6.669-2.947.979-.454,1.516-.25,1.886.782,1.861,5.2,3.761,10.389,5.647,15.581a63.049,63.049,0,0,1-16.929,15.52c-11.365,7.275-23.954,11.42-37.155,13.849" transform="translate(-44.904 -63.377)" fill="#4296cf"/>
        <path id="Trazado_720734" data-name="Trazado 720734" d="M92.816,190.124c13.2-2.429,25.79-6.574,37.155-13.849a63.049,63.049,0,0,0,16.929-15.52c2.668,6.856,5.787,13.565,7.317,20.793l-.734.417c-1.975-2.005-3.928-4.033-5.931-6.01-3.377-3.331-7.966-3.518-10.961-.486-3.067,3.1-2.832,7.439.609,10.936,1.647,1.674,3.292,3.353,4.987,4.978,1,.958.807,1.377-.451,1.845-8.946,3.324-17.886,6.669-26.788,10.109-1.41.545-1.731-.016-2.122-1.107q-1.481-4.138-3.085-8.232c-1.032-2.626-1.979-2.876-4.3-1.245-4.667,3.277-9.967,2.174-12.622-2.628" transform="translate(-46.008 -79.685)" fill="#3d8dc6"/>
        <path id="Trazado_720735" data-name="Trazado 720735" d="M174.058,123.384c.053-.276.143-.511.5-.432l-.5.432" transform="translate(-86.279 -60.939)" fill="#f6f8f9"/>
        <path id="Trazado_720736" data-name="Trazado 720736" d="M213.527,171.633l-.363-.279.646-.086a1.549,1.549,0,0,1-.282.365" transform="translate(-105.663 -84.896)" fill="#f8c49f"/>
      </g>
    </g>
  </g>
</svg>
