<svg xmlns="http://www.w3.org/2000/svg" xmlns:xlink="http://www.w3.org/1999/xlink" width="152.988" height="94.901" viewBox="0 0 152.988 94.901">
  <defs>
    <clipPath id="clip-path">
      <rect id="Rectángulo_350224" data-name="Rectángulo 350224" width="152.988" height="94.901" fill="none"/>
    </clipPath>
    <clipPath id="clip-path-3">
      <rect id="Rectángulo_350220" data-name="Rectángulo 350220" width="17.024" height="5.259" fill="none"/>
    </clipPath>
    <clipPath id="clip-path-4">
      <rect id="Rectángulo_350221" data-name="Rectángulo 350221" width="44.844" height="25.891" fill="none"/>
    </clipPath>
    <clipPath id="clip-path-5">
      <rect id="Rectángulo_350222" data-name="Rectángulo 350222" width="49.143" height="28.373" fill="none"/>
    </clipPath>
    <clipPath id="clip-path-6">
      <rect id="Rectángulo_350217" data-name="Rectángulo 350217" width="50.471" height="37.929" fill="none"/>
    </clipPath>
    <clipPath id="clip-path-8">
      <rect id="Rectángulo_350212" data-name="Rectángulo 350212" width="35.864" height="14.65" fill="none"/>
    </clipPath>
    <clipPath id="clip-path-9">
      <rect id="Rectángulo_350214" data-name="Rectángulo 350214" width="25.51" height="14.486" fill="none"/>
    </clipPath>
    <clipPath id="clip-path-10">
      <rect id="Rectángulo_350213" data-name="Rectángulo 350213" width="25.504" height="10.45" fill="none"/>
    </clipPath>
    <clipPath id="clip-path-11">
      <rect id="Rectángulo_350215" data-name="Rectángulo 350215" width="25.512" height="10.618" fill="none"/>
    </clipPath>
  </defs>
  <g id="Grupo_1018214" data-name="Grupo 1018214" transform="translate(-1223.006 -168.072)">
    <g id="Grupo_1017465" data-name="Grupo 1017465" transform="translate(1223.006 168.072)">
      <g id="Grupo_1017464" data-name="Grupo 1017464" clip-path="url(#clip-path)">
        <path id="Trazado_718522" data-name="Trazado 718522" d="M0,45.872,89.629,97.619V56.958L.006,39.307Z" transform="translate(0 -2.718)" fill="#bdb6c6"/>
        <path id="Trazado_718523" data-name="Trazado 718523" d="M96.288,58.084V98.745l63.36-36.58V55.582Z" transform="translate(-6.659 -3.844)" fill="#e9e6e6"/>
        <path id="Trazado_718524" data-name="Trazado 718524" d="M63.378,0,.006,36.589,89.617,88.326l51.057-29.478,12.315-7.111Z" transform="translate(0 0)" fill="#f8f5f4"/>
        <path id="Trazado_718525" data-name="Trazado 718525" d="M19.83,43.5l-.588.34L14.6,41.163l.588-.34Z" transform="translate(-1.01 -2.823)" fill="#7b9fe1"/>
        <path id="Trazado_718526" data-name="Trazado 718526" d="M20.545,43.154l-.63.364-3.887-2.244.63-.364Z" transform="translate(-1.108 -2.829)" fill="#2d6ad8"/>
        <path id="Trazado_718527" data-name="Trazado 718527" d="M22.38,42.064l-.588.34-4.265-2.463.588-.339Z" transform="translate(-1.212 -2.739)" fill="#7b9fe1"/>
        <path id="Trazado_718528" data-name="Trazado 718528" d="M23,41.657l-.63.364-4.853-2.8.63-.364Z" transform="translate(-1.211 -2.687)" fill="#2d6ad8"/>
        <path id="Trazado_718529" data-name="Trazado 718529" d="M24.779,40.525l-.588.34-6.058-3.5.588-.339Z" transform="translate(-1.254 -2.561)" fill="#7b9fe1"/>
        <path id="Trazado_718530" data-name="Trazado 718530" d="M25.56,40.214l-.63.364L20.518,38.03l.63-.364Z" transform="translate(-1.419 -2.605)" fill="#2d6ad8"/>
        <path id="Trazado_718531" data-name="Trazado 718531" d="M27.353,39.1l-.588.34-5.378-3.105.588-.34Z" transform="translate(-1.479 -2.489)" fill="#7b9fe1"/>
        <path id="Trazado_718532" data-name="Trazado 718532" d="M28.062,38.744l-.63.364-4.706-2.717.63-.364Z" transform="translate(-1.572 -2.492)" fill="#2d6ad8"/>
        <path id="Trazado_718533" data-name="Trazado 718533" d="M34.926,34.712l-.588.34-5.525-3.19.588-.34Z" transform="translate(-1.993 -2.18)" fill="#7b9fe1"/>
        <path id="Trazado_718534" data-name="Trazado 718534" d="M35.617,34.349l-.63.364L29.9,31.773l.63-.364Z" transform="translate(-2.068 -2.172)" fill="#2d6ad8"/>
        <path id="Trazado_718535" data-name="Trazado 718535" d="M37.57,33.32l-.588.34L33.01,31.367l.588-.34Z" transform="translate(-2.283 -2.146)" fill="#7b9fe1"/>
        <path id="Trazado_718536" data-name="Trazado 718536" d="M38.119,32.874l-.63.364L32.04,30.092l.63-.363Z" transform="translate(-2.216 -2.056)" fill="#2d6ad8"/>
        <path id="Trazado_718537" data-name="Trazado 718537" d="M39.835,31.709l-.588.34-7.5-4.33.588-.34Z" transform="translate(-2.196 -1.893)" fill="#7b9fe1"/>
        <path id="Trazado_718538" data-name="Trazado 718538" d="M40.586,31.38l-.63.364L33.7,28.129l.63-.364Z" transform="translate(-2.33 -1.92)" fill="#2d6ad8"/>
        <path id="Trazado_718539" data-name="Trazado 718539" d="M42.433,30.29l-.588.34L35.29,26.845l.588-.34Z" transform="translate(-2.441 -1.833)" fill="#7b9fe1"/>
        <path id="Trazado_718540" data-name="Trazado 718540" d="M43.178,29.957l-.63.364-5.4-3.117.63-.364Z" transform="translate(-2.569 -1.856)" fill="#2d6ad8"/>
        <path id="Trazado_718541" data-name="Trazado 718541" d="M45.152,28.94l-.588.34-3.991-2.3.588-.34Z" transform="translate(-2.806 -1.842)" fill="#7b9fe1"/>
        <path id="Trazado_718542" data-name="Trazado 718542" d="M45.745,28.52l-.63.364L40.241,26.07l.63-.364Z" transform="translate(-2.783 -1.778)" fill="#2d6ad8"/>
        <path id="Trazado_718543" data-name="Trazado 718543" d="M30.069,37.747l-.588.34-2.844-1.642.588-.34Z" transform="translate(-1.842 -2.497)" fill="#7b9fe1"/>
        <path id="Trazado_718544" data-name="Trazado 718544" d="M30.568,37.273l-.63.364-4.987-2.879.63-.364Z" transform="translate(-1.726 -2.379)" fill="#2d6ad8"/>
        <path id="Trazado_718545" data-name="Trazado 718545" d="M32.594,36.289l-.588.34-2.844-1.642.588-.34Z" transform="translate(-2.017 -2.396)" fill="#7b9fe1"/>
        <path id="Trazado_718546" data-name="Trazado 718546" d="M33.311,35.94l-.63.364-2.059-1.189.63-.364Z" transform="translate(-2.118 -2.403)" fill="#2d6ad8"/>
        <path id="Trazado_718547" data-name="Trazado 718547" d="M45.393,28.611,19.218,43.724l-.532-.307L44.861,28.3Z" transform="translate(-1.292 -1.958)" fill="#7b9fe1"/>
        <path id="Trazado_718548" data-name="Trazado 718548" d="M50.94,25.6l-.588.34-3.961-2.287.588-.34Z" transform="translate(-3.208 -1.612)" fill="#7b9fe1"/>
        <path id="Trazado_718549" data-name="Trazado 718549" d="M51.655,25.251l-.63.364-3.2-1.851.63-.364Z" transform="translate(-3.307 -1.618)" fill="#2d6ad8"/>
        <path id="Trazado_718550" data-name="Trazado 718550" d="M53.645,24.25l-.588.34-1.5-.864.588-.34Z" transform="translate(-3.566 -1.617)" fill="#7b9fe1"/>
        <path id="Trazado_718551" data-name="Trazado 718551" d="M54.261,23.843l-.63.364L51.546,23l.63-.364Z" transform="translate(-3.565 -1.566)" fill="#2d6ad8"/>
        <path id="Trazado_718552" data-name="Trazado 718552" d="M55.948,22.656,55.36,23l-4.577-2.643.588-.34Z" transform="translate(-3.512 -1.384)" fill="#7b9fe1"/>
        <path id="Trazado_718553" data-name="Trazado 718553" d="M56.782,22.375l-.63.364-2.225-1.285.63-.364Z" transform="translate(-3.73 -1.459)" fill="#2d6ad8"/>
        <path id="Trazado_718554" data-name="Trazado 718554" d="M58.7,21.328l-.588.34-1.58-.912.588-.34Z" transform="translate(-3.909 -1.412)" fill="#7b9fe1"/>
        <path id="Trazado_718555" data-name="Trazado 718555" d="M59.279,20.9l-.63.364L56.06,19.772l.63-.364Z" transform="translate(-3.877 -1.342)" fill="#2d6ad8"/>
        <path id="Trazado_718556" data-name="Trazado 718556" d="M65.966,16.769l-.588.34-5.789-3.343.588-.339Z" transform="translate(-4.121 -0.929)" fill="#7b9fe1"/>
        <path id="Trazado_718557" data-name="Trazado 718557" d="M66.683,16.42l-.63.364-5-2.889.63-.364Z" transform="translate(-4.222 -0.936)" fill="#2d6ad8"/>
        <path id="Trazado_718558" data-name="Trazado 718558" d="M68.326,15.212l-.588.34L59.68,10.9l.588-.34Z" transform="translate(-4.127 -0.73)" fill="#7b9fe1"/>
        <path id="Trazado_718559" data-name="Trazado 718559" d="M69.022,14.851l-.63.364-7.554-4.361.63-.364Z" transform="translate(-4.208 -0.725)" fill="#2d6ad8"/>
        <path id="Trazado_718560" data-name="Trazado 718560" d="M71.064,13.874l-.588.34-5.229-3.019.588-.34Z" transform="translate(-4.512 -0.751)" fill="#7b9fe1"/>
        <path id="Trazado_718561" data-name="Trazado 718561" d="M71.8,13.533l-.63.364-4.248-2.453.63-.364Z" transform="translate(-4.628 -0.766)" fill="#2d6ad8"/>
        <path id="Trazado_718562" data-name="Trazado 718562" d="M73.532,12.38l-.588.34-6.03-3.481L67.5,8.9Z" transform="translate(-4.628 -0.615)" fill="#7b9fe1"/>
        <path id="Trazado_718563" data-name="Trazado 718563" d="M74.277,12.047l-.63.364L68.773,9.6l.63-.364Z" transform="translate(-4.756 -0.639)" fill="#2d6ad8"/>
        <path id="Trazado_718564" data-name="Trazado 718564" d="M76.285,11.05l-.588.34L72.7,9.661l.588-.339Z" transform="translate(-5.028 -0.645)" fill="#7b9fe1"/>
        <path id="Trazado_718565" data-name="Trazado 718565" d="M76.97,10.683l-.63.364L73.7,9.521l.63-.364Z" transform="translate(-5.097 -0.633)" fill="#2d6ad8"/>
        <path id="Trazado_718566" data-name="Trazado 718566" d="M60.969,19.723l-.588.34L55.4,17.185l.588-.34Z" transform="translate(-3.831 -1.165)" fill="#7b9fe1"/>
        <path id="Trazado_718567" data-name="Trazado 718567" d="M61.569,19.306l-.63.364-5.781-3.338.63-.364Z" transform="translate(-3.815 -1.104)" fill="#2d6ad8"/>
        <path id="Trazado_718568" data-name="Trazado 718568" d="M63.508,18.272l-.588.34-4.8-2.772.588-.34Z" transform="translate(-4.019 -1.072)" fill="#7b9fe1"/>
        <path id="Trazado_718569" data-name="Trazado 718569" d="M64.225,17.924l-.63.364-4.018-2.32.631-.364Z" transform="translate(-4.12 -1.079)" fill="#2d6ad8"/>
        <path id="Trazado_718570" data-name="Trazado 718570" d="M76.453,10.679,50.279,25.791l-.532-.307L75.921,10.372Z" transform="translate(-3.44 -0.717)" fill="#7b9fe1"/>
        <path id="Trazado_718571" data-name="Trazado 718571" d="M44.072,35.936,24.64,47.156l-2.766-1.6L41.306,34.339Z" transform="translate(-1.513 -2.375)" fill="#2d6ad8"/>
        <path id="Trazado_718572" data-name="Trazado 718572" d="M26.438,46.874l-1.8,1.038-2.766-1.6,1.8-1.037Z" transform="translate(-1.513 -3.131)" fill="#3ed0ee"/>
        <path id="Trazado_718573" data-name="Trazado 718573" d="M63.108,24.945,43.677,36.165l-2.766-1.6L60.342,23.349Z" transform="translate(-2.829 -1.615)" fill="#2d6ad8"/>
        <path id="Trazado_718574" data-name="Trazado 718574" d="M45.474,35.883l-1.8,1.038-2.766-1.6,1.8-1.038Z" transform="translate(-2.829 -2.371)" fill="#97cc66"/>
        <path id="Trazado_718575" data-name="Trazado 718575" d="M82.144,13.955,62.712,25.174l-2.766-1.6L79.379,12.358Z" transform="translate(-4.146 -0.855)" fill="#2d6ad8"/>
        <path id="Trazado_718576" data-name="Trazado 718576" d="M64.51,24.892l-1.8,1.038-2.766-1.6,1.8-1.038Z" transform="translate(-4.146 -1.611)" fill="#44bfe5"/>
        <path id="Trazado_718577" data-name="Trazado 718577" d="M66.679,21.475l-2.925,1.689-.314-.181,2.925-1.689Z" transform="translate(-4.388 -1.473)" fill="#e1e9f4"/>
        <path id="Trazado_718578" data-name="Trazado 718578" d="M67.1,20.945l.314.181,1.216-.7-.313-.181Z" transform="translate(-4.64 -1.4)" fill="#e1e9f4"/>
        <path id="Trazado_718579" data-name="Trazado 718579" d="M66.779,23.122l-1.6.922-.313-.181,1.6-.922Z" transform="translate(-4.486 -1.587)" fill="#e1e9f4"/>
        <path id="Trazado_718580" data-name="Trazado 718580" d="M71.008,20.6l-3.595,2.076-.314-.182,3.595-2.076Z" transform="translate(-4.641 -1.412)" fill="#e1e9f4"/>
        <path id="Trazado_718581" data-name="Trazado 718581" d="M73.776,19.066l-1.983,1.145-.314-.182,1.983-1.145Z" transform="translate(-4.944 -1.306)" fill="#e1e9f4"/>
        <path id="Trazado_718582" data-name="Trazado 718582" d="M47.819,32.364l-2.925,1.689-.314-.181L47.5,32.183Z" transform="translate(-3.083 -2.226)" fill="#e1e9f4"/>
        <path id="Trazado_718583" data-name="Trazado 718583" d="M48.237,31.834l.314.181,1.217-.7-.314-.181Z" transform="translate(-3.336 -2.153)" fill="#e1e9f4"/>
        <path id="Trazado_718584" data-name="Trazado 718584" d="M47.919,34.011l-1.6.922-.314-.181,1.6-.923Z" transform="translate(-3.182 -2.34)" fill="#e1e9f4"/>
        <path id="Trazado_718585" data-name="Trazado 718585" d="M52.148,31.484,48.553,33.56l-.314-.182L51.834,31.3Z" transform="translate(-3.336 -2.165)" fill="#e1e9f4"/>
        <path id="Trazado_718586" data-name="Trazado 718586" d="M54.916,29.955,52.933,31.1l-.314-.182L54.6,29.774Z" transform="translate(-3.639 -2.059)" fill="#e1e9f4"/>
        <path id="Trazado_718587" data-name="Trazado 718587" d="M28.959,43.253l-2.925,1.689-.314-.181,2.925-1.689Z" transform="translate(-1.779 -2.979)" fill="#e1e9f4"/>
        <path id="Trazado_718588" data-name="Trazado 718588" d="M29.377,42.722l.314.181,1.217-.7-.313-.181Z" transform="translate(-2.032 -2.906)" fill="#e1e9f4"/>
        <path id="Trazado_718589" data-name="Trazado 718589" d="M29.059,44.9l-1.6.922-.314-.181,1.6-.922Z" transform="translate(-1.877 -3.093)" fill="#e1e9f4"/>
        <path id="Trazado_718590" data-name="Trazado 718590" d="M33.288,42.373l-3.595,2.076-.314-.182,3.595-2.075Z" transform="translate(-2.032 -2.918)" fill="#e1e9f4"/>
        <path id="Trazado_718591" data-name="Trazado 718591" d="M36.056,40.844l-1.983,1.145-.314-.182,1.983-1.145Z" transform="translate(-2.335 -2.812)" fill="#e1e9f4"/>
        <path id="Trazado_718592" data-name="Trazado 718592" d="M46.893,47.8l-9.766,5.639-1.005-.581,9.766-5.639Z" transform="translate(-2.498 -3.266)" fill="#3ed0ee"/>
        <path id="Trazado_718593" data-name="Trazado 718593" d="M43.872,52.076l-4.74,2.737-1.005-.581,4.74-2.737Z" transform="translate(-2.637 -3.561)" fill="#3ed0ee"/>
        <path id="Trazado_718594" data-name="Trazado 718594" d="M56.506,46.642,41.139,55.515l-1.005-.581L55.5,46.062Z" transform="translate(-2.776 -3.186)" fill="#e7edf6"/>
        <path id="Trazado_718595" data-name="Trazado 718595" d="M65.719,43.329,43.144,56.363l-1.005-.58L64.714,42.749Z" transform="translate(-2.914 -2.956)" fill="#e7edf6"/>
        <path id="Trazado_718596" data-name="Trazado 718596" d="M66,45.556,45.149,57.6l-1.005-.58L65,44.976Z" transform="translate(-3.053 -3.11)" fill="#e7edf6"/>
        <path id="Trazado_718597" data-name="Trazado 718597" d="M65.037,48.557,47.156,58.881,46.151,58.3,64.031,47.976Z" transform="translate(-3.192 -3.318)" fill="#bcf987"/>
        <path id="Trazado_718598" data-name="Trazado 718598" d="M63.524,51.9,49.162,60.19l-1.005-.58,14.362-8.293Z" transform="translate(-3.33 -3.549)" fill="#bcf987"/>
        <path id="Trazado_718599" data-name="Trazado 718599" d="M62.513,54.926l-11.346,6.55-1.005-.58,11.346-6.551Z" transform="translate(-3.469 -3.759)" fill="#cda7ff"/>
        <path id="Trazado_718600" data-name="Trazado 718600" d="M71.054,52.031,53.173,62.355l-1.006-.581L70.049,51.45Z" transform="translate(-3.608 -3.558)" fill="#cda7ff"/>
        <path id="Trazado_718601" data-name="Trazado 718601" d="M73.855,52.7,55.179,63.479,54.174,62.9,72.849,52.115Z" transform="translate(-3.747 -3.604)" fill="#cda7ff"/>
        <path id="Trazado_718602" data-name="Trazado 718602" d="M72.624,55.862,57.185,64.775l-1.006-.58,15.44-8.915Z" transform="translate(-3.885 -3.823)" fill="#cda7ff"/>
        <path id="Trazado_718603" data-name="Trazado 718603" d="M71.9,58.712,59.19,66.051l-1.005-.581L70.9,58.132Z" transform="translate(-4.024 -4.02)" fill="#bcf987"/>
        <path id="Trazado_718604" data-name="Trazado 718604" d="M79.149,56.619,61.2,66.984,60.19,66.4,78.144,56.038Z" transform="translate(-4.163 -3.876)" fill="#3ed0ee"/>
        <path id="Trazado_718605" data-name="Trazado 718605" d="M82.258,57.093,63.2,68.1,62.2,67.514l19.056-11Z" transform="translate(-4.301 -3.908)" fill="#3ed0ee"/>
        <path id="Trazado_718606" data-name="Trazado 718606" d="M61.948,67.95l-.606.35L35.275,53.249l.606-.349Z" transform="translate(-2.44 -3.659)" fill="#86b1ff"/>
        <g id="Grupo_1017463" data-name="Grupo 1017463" transform="translate(0 0)">
          <g id="Grupo_1017462" data-name="Grupo 1017462" clip-path="url(#clip-path)">
            <path id="Trazado_718607" data-name="Trazado 718607" d="M72.509,73.449a.674.674,0,0,1,0,1.277,2.443,2.443,0,0,1-2.212,0,.674.674,0,0,1,0-1.277,2.443,2.443,0,0,1,2.212,0" transform="translate(-4.83 -5.061)" fill="#2d6ad8"/>
            <path id="Trazado_718608" data-name="Trazado 718608" d="M78.295,76.789a.674.674,0,0,1,0,1.277,2.443,2.443,0,0,1-2.212,0,.674.674,0,0,1,0-1.277,2.443,2.443,0,0,1,2.212,0" transform="translate(-5.23 -5.292)" fill="#2d6ad8"/>
            <path id="Trazado_718609" data-name="Trazado 718609" d="M84,80.084a.674.674,0,0,1,0,1.277,2.443,2.443,0,0,1-2.212,0,.674.674,0,0,1,0-1.277,2.443,2.443,0,0,1,2.212,0" transform="translate(-5.625 -5.52)" fill="#2d6ad8"/>
            <path id="Trazado_718610" data-name="Trazado 718610" d="M89.751,83.4a.674.674,0,0,1,0,1.277,2.443,2.443,0,0,1-2.212,0,.674.674,0,0,1,0-1.277,2.443,2.443,0,0,1,2.212,0" transform="translate(-6.022 -5.75)" fill="#2d6ad8"/>
            <path id="Trazado_718611" data-name="Trazado 718611" d="M95.455,86.7a.674.674,0,0,1,0,1.277,2.443,2.443,0,0,1-2.212,0,.674.674,0,0,1,0-1.277,2.443,2.443,0,0,1,2.212,0" transform="translate(-6.417 -5.978)" fill="#2d6ad8"/>
            <path id="Trazado_718612" data-name="Trazado 718612" d="M101.591,56.614l3.206-1.851-.415-.24-3.206,1.851Zm-14.3,8.257,7.18-4.145-.415-.24-7.18,4.145ZM95.033,60.4l5.994-3.461-.415-.239-5.994,3.46Zm-8.308,4.8-.415-.24L76.133,70.833l.415.24Zm18.635-10.76,4.556-2.631-.415-.239-4.556,2.63ZM74.955,70.089l3.359-1.939-.415-.24L74.54,69.85Zm29.372-17.437.415.239,3.991-2.3-.415-.239Zm-7.376,4.738,7.227-4.173-.415-.239-7.228,4.172ZM93.18,59.568l3.207-1.851-.415-.24-3.207,1.851ZM88.627,62.2l3.989-2.3-.415-.239-3.989,2.3Zm-9.749,5.629,9.185-5.3-.415-.24-9.185,5.3Z" transform="translate(-5.155 -3.482)" fill="#86b1ff"/>
            <path id="Trazado_718613" data-name="Trazado 718613" d="M98.461,62.231l.415.24,5.994-3.461-.415-.239Zm-.149.566-.415-.24L90.718,66.7l.415.239Zm1.277.686.415.239,3.988-2.3-.415-.239Zm4.552-2.629.415.24,3.207-1.851-.415-.24Zm11-6.349-7.227,4.172.415.24,7.227-4.173ZM89.692,69.677l-.415-.24-7.711,4.452.415.239ZM111.6,54.643l-6.586,3.8.415.239,6.586-3.8ZM90.569,67.268l-.415-.24L79.9,72.946l.415.239Zm21.6-12.951.415.239,3.848-2.221-.415-.239ZM99.44,64.048l-.415-.239-9.186,5.3.416.24Z" transform="translate(-5.526 -3.603)" fill="#86b1ff"/>
            <path id="Trazado_718614" data-name="Trazado 718614" d="M101.426,67.437l.415.24,3.989-2.3-.415-.24Zm.989,1.811L102,69.009,94.908,73.1l.415.239Zm6.77-6.291-3.207,1.851.415.24L109.6,63.2Zm.564-.326.415.239,7.228-4.172-.416-.24Zm7.53-1.966,4.2-2.424L121.062,58l-4.2,2.423ZM91.528,73.631l-.415-.239-5.2,3,.416.239Zm9.334-5.868-9.185,5.3.415.239,9.185-5.3Zm1.7.921.414.239,7.181-4.145-.415-.24ZM116.3,60.752l-5.993,3.46.415.24,5.993-3.46Zm3.4-3.863-2.156,1.245.416.24,2.155-1.245ZM94.759,73.668l-.415-.239-6.8,3.928.415.239Z" transform="translate(-5.942 -3.934)" fill="#86b1ff"/>
            <path id="Trazado_718615" data-name="Trazado 718615" d="M104.386,74.742l7.18-4.145-.415-.24-7.18,4.145Zm7.744-4.471,5.994-3.461-.415-.239-5.994,3.46Zm-8.308,4.8-.415-.24L93.229,80.7l.415.24ZM92.051,79.96l3.359-1.939L95,77.781l-3.359,1.94Zm29.372-17.437.415.239,3.991-2.3-.415-.239Zm-7.377,4.738,7.228-4.173-.415-.239-7.228,4.172Zm-3.77,2.177,3.207-1.851-.415-.24L109.861,69.2Zm-4.553,2.628,3.989-2.3-.415-.239-3.989,2.3ZM95.975,77.7l9.185-5.3-.415-.24-9.185,5.3Z" transform="translate(-6.337 -4.165)" fill="#86b1ff"/>
            <path id="Trazado_718616" data-name="Trazado 718616" d="M121.745,70.116l.415.24,5.994-3.461-.415-.239Z" transform="translate(-8.42 -4.61)" fill="#86b1ff"/>
            <path id="Trazado_718617" data-name="Trazado 718617" d="M115.8,75.681l.415.24,3.989-2.3-.415-.24Z" transform="translate(-8.008 -5.075)" fill="#86b1ff"/>
            <path id="Trazado_718618" data-name="Trazado 718618" d="M120.605,70.723l-7.181,4.145.415.24,7.18-4.146Z" transform="translate(-7.844 -4.891)" fill="#86b1ff"/>
            <path id="Trazado_718619" data-name="Trazado 718619" d="M126.884,69.184l-6.2,3.579L121.1,73l6.2-3.578Z" transform="translate(-8.347 -4.785)" fill="#86b1ff"/>
            <path id="Trazado_718620" data-name="Trazado 718620" d="M112.159,75.766l-.415-.24-14.48,8.361.415.239Z" transform="translate(-6.727 -5.223)" fill="#86b1ff"/>
            <path id="Trazado_718621" data-name="Trazado 718621" d="M128.789,66.169l.415.24,3.207-1.851-.415-.24Z" transform="translate(-8.907 -4.448)" fill="#86b1ff"/>
            <path id="Trazado_718622" data-name="Trazado 718622" d="M104.745,82.489l-.415-.239-5.2,3,.415.239Z" transform="translate(-6.856 -5.688)" fill="#86b1ff"/>
            <path id="Trazado_718623" data-name="Trazado 718623" d="M114.507,76.2l-9.185,5.3.415.24,9.185-5.3Z" transform="translate(-7.284 -5.27)" fill="#86b1ff"/>
            <path id="Trazado_718624" data-name="Trazado 718624" d="M132.84,63.851l.415.24,2.72-1.57-.415-.24Z" transform="translate(-9.187 -4.307)" fill="#86b1ff"/>
            <g id="Grupo_1017455" data-name="Grupo 1017455" transform="translate(80.864 86.865)" opacity="0.3" style="mix-blend-mode: multiply;isolation: isolate">
              <g id="Grupo_1017454" data-name="Grupo 1017454">
                <g id="Grupo_1017453" data-name="Grupo 1017453" clip-path="url(#clip-path-3)">
                  <path id="Trazado_718625" data-name="Trazado 718625" d="M99.706,95.892c-1.363.752-2.708,1.533-4.062,2.3-1.437-.822-2.874-1.646-4.32-2.455q-2.21-1.236-4.452-2.417,2.145,1.35,4.32,2.647c1.45.864,2.91,1.713,4.368,2.563l.085.049.084-.049c1.367-.807,2.745-1.6,4.105-2.416s2.716-1.647,4.061-2.492q-2.107,1.113-4.189,2.271" transform="translate(-86.872 -93.319)" fill="#aca5b7"/>
                </g>
              </g>
            </g>
            <g id="Grupo_1017458" data-name="Grupo 1017458" transform="translate(101.854 57.562)" opacity="0.3" style="mix-blend-mode: multiply;isolation: isolate">
              <g id="Grupo_1017457" data-name="Grupo 1017457">
                <g id="Grupo_1017456" data-name="Grupo 1017456" clip-path="url(#clip-path-4)">
                  <path id="Trazado_718626" data-name="Trazado 718626" d="M109.422,87.729c2.179-1.026,43.352-24.855,44.844-25.891-1.65.778-42.875,24.522-44.844,25.891" transform="translate(-109.422 -61.838)" fill="#aca5b7"/>
                </g>
              </g>
            </g>
            <g id="Grupo_1017461" data-name="Grupo 1017461" transform="translate(4.843 42.194)" opacity="0.3" style="mix-blend-mode: multiply;isolation: isolate">
              <g id="Grupo_1017460" data-name="Grupo 1017460">
                <g id="Grupo_1017459" data-name="Grupo 1017459" clip-path="url(#clip-path-5)">
                  <path id="Trazado_718627" data-name="Trazado 718627" d="M54.347,73.7C52.585,72.873,6.41,46.167,5.2,45.329,6.538,45.958,52.754,72.6,54.347,73.7" transform="translate(-5.203 -45.329)" fill="#aca5b7"/>
                </g>
              </g>
            </g>
          </g>
        </g>
      </g>
    </g>
    <g id="Grupo_1017466" data-name="Grupo 1017466" transform="translate(1291 177.594)">
      <g id="Grupo_1017446" data-name="Grupo 1017446" clip-path="url(#clip-path-6)">
        <g id="Grupo_1017445" data-name="Grupo 1017445" transform="translate(0 0)">
          <g id="Grupo_1017444" data-name="Grupo 1017444" clip-path="url(#clip-path-6)">
            <path id="Trazado_718466" data-name="Trazado 718466" d="M43.083,30.847c-9.837,5.68-25.787,5.68-35.625,0s-9.837-14.889,0-20.568,25.787-5.679,35.625,0,9.836,14.889,0,20.568" transform="translate(0.011 0.799)" fill="#e7edf6"/>
            <path id="Trazado_718467" data-name="Trazado 718467" d="M42.218,29.157c-9.837,5.68-25.787,5.68-35.625,0v2.023c9.837,5.68,25.787,5.68,35.625,0,4.976-2.874,7.436-6.652,7.376-10.418V18.739c.06,3.767-2.4,7.545-7.376,10.418" transform="translate(0.876 2.488)" fill="#bcf987"/>
            <path id="Trazado_718468" data-name="Trazado 718468" d="M24.79,14.139l-.152,6.466-.433.136L6.59,10.575,6.6,3.738Z" transform="translate(0.875 0.496)" fill="#bcf987"/>
            <path id="Trazado_718469" data-name="Trazado 718469" d="M22.527,14.146v6.769L40.337,10.627l.012-6.838Z" transform="translate(2.992 0.503)" fill="#559914"/>
            <g id="Grupo_1017434" data-name="Grupo 1017434" transform="translate(7.478 0)" opacity="0.56">
              <g id="Grupo_1017433" data-name="Grupo 1017433" transform="translate(0 0)">
                <g id="Grupo_1017432" data-name="Grupo 1017432" clip-path="url(#clip-path-8)">
                  <path id="Trazado_718470" data-name="Trazado 718470" d="M42.465,4.292,24.642,14.649,6.6,4.234c9.929-5.664,25.915-5.646,35.864.058" transform="translate(-6.601 0)" fill="#e7edf6"/>
                </g>
              </g>
            </g>
            <g id="Grupo_1017440" data-name="Grupo 1017440" transform="translate(0.01 6.672)">
              <g id="Grupo_1017439" data-name="Grupo 1017439">
                <g id="Grupo_1017438" data-name="Grupo 1017438" clip-path="url(#clip-path-9)">
                  <path id="Trazado_718471" data-name="Trazado 718471" d="M.018,15.115.009,18.639l25.511.512,0-4.036Z" transform="translate(-0.009 -4.665)" fill="#bcf987"/>
                  <g id="Grupo_1017437" data-name="Grupo 1017437" transform="translate(0.004)" opacity="0.56">
                    <g id="Grupo_1017436" data-name="Grupo 1017436">
                      <g id="Grupo_1017435" data-name="Grupo 1017435" clip-path="url(#clip-path-10)">
                        <path id="Trazado_718472" data-name="Trazado 718472" d="M7.461,5.89C2.511,8.787.015,12.558.013,16.34h25.5Z" transform="translate(-0.013 -5.89)" fill="#e7edf6"/>
                      </g>
                    </g>
                  </g>
                </g>
              </g>
            </g>
            <path id="Trazado_718473" data-name="Trazado 718473" d="M7.439,27.285C3.871,25.225,1.316,22.538.35,19.457A8.715,8.715,0,0,1,.011,17.04L0,17.653a28.545,28.545,0,0,0,.347,5.539s.033.138.033.134c.778,3.033,3.184,5.831,7.226,8.164.162.093.329.181.494.271l0-4.105q-.338-.182-.666-.37" transform="translate(0 2.263)" fill="#bcf987"/>
            <path id="Trazado_718474" data-name="Trazado 718474" d="M24.572,17.066l0,2.087L7.152,29.74l0-2.088Z" transform="translate(0.95 2.266)" fill="#559914"/>
            <g id="Grupo_1017443" data-name="Grupo 1017443" transform="translate(0.01 19.3)" opacity="0.56">
              <g id="Grupo_1017442" data-name="Grupo 1017442">
                <g id="Grupo_1017441" data-name="Grupo 1017441" clip-path="url(#clip-path-11)">
                  <path id="Trazado_718475" data-name="Trazado 718475" d="M25.521,17.07,8.1,27.656q-.338-.182-.666-.37C3.871,25.225,1.316,22.538.349,19.458a8.844,8.844,0,0,1-.34-2.42Z" transform="translate(-0.009 -17.038)" fill="#e7edf6"/>
                </g>
              </g>
            </g>
          </g>
        </g>
      </g>
    </g>
  </g>
</svg>
