<svg id="Grupo_1018157" data-name="Grupo 1018157" xmlns="http://www.w3.org/2000/svg" xmlns:xlink="http://www.w3.org/1999/xlink" width="185.219" height="201.88" viewBox="0 0 185.219 201.88">
  <defs>
    <clipPath id="clip-path">
      <rect id="Rectángulo_350822" data-name="Rectángulo 350822" width="185.219" height="201.88" fill="none"/>
    </clipPath>
  </defs>
  <g id="Grupo_1018156" data-name="Grupo 1018156" clip-path="url(#clip-path)">
    <path id="Trazado_720294" data-name="Trazado 720294" d="M3.381,167.724q0-3.815.008-7.631c3.409-.6,3.227-3.144,3.225-5.732Q6.577,85.4,6.6,16.445c0-8.022.85-8.895,8.7-8.895q58.521,0,117.043.009c1.434,0,2.869.159,4.3.245a26.161,26.161,0,0,1,.828,5.79q-.078,41.686-.042,83.372c-3.148.051-6.311-.07-9.439.205-2.756.242-3.506-.635-3.476-3.424.152-13.92.076-27.843.066-41.763,0-5.252-.469-5.729-5.5-5.753-2.758-.013-5.527.148-8.272-.038-3.774-.256-5.054,1.3-5.012,5.069.162,14.182-.021,28.368.137,42.55.032,2.855-.857,3.414-3.512,3.407-2.686-.007-3.574-.649-3.524-3.475.175-10.11,0-20.225.109-30.336.035-3.194-1.123-4.6-4.382-4.431-3.013.155-6.04.02-9.061.035-4.814.024-5.141.333-5.15,5.165-.018,10.113-.111,20.227.058,30.337.05,3.019-1.679,2.636-3.517,2.608-1.758-.028-3.621.554-3.467-2.55.26-5.24-.032-10.506.109-15.756.088-3.285-1.029-4.926-4.537-4.745-3.275.169-6.57.155-9.847,0s-4.485,1.369-4.439,4.477c.077,5.252-.081,10.509.069,15.758.062,2.2-.641,2.64-2.8,2.926-4.123.546-3.987-1.7-3.952-4.563.1-8.257.032-8.258-8.092-8.258-10.283,0-10.379,0-10.535,10.04-.037,2.4-.883,2.8-2.969,2.706-3.276-.15-6.567-.094-9.847,0a2.817,2.817,0,0,0-3.075,2.895c-.062,1.957,1.177,2.84,2.915,3.06a28.477,28.477,0,0,0,3.542.067q43.935,0,87.87.009c9.32.007,18.641.1,27.962.159-.934,2.855-3.313,3.972-5.9,4.622a54.486,54.486,0,0,0-26.39,15.349c-14.436,14.9-18.063,37.252-11.022,56,2.545,6.778,7.117,12.116,11.018,17.957a3.169,3.169,0,0,1-.761.193q-45.1.027-90.2.008c-4.247-.006-5.947-1.813-5.991-6.037q-.1-9.647.007-19.3c.029-2.4-.489-4.17-3.238-4.428M77.093,14.287q-21.649,0-43.3.01c-5.4.011-7.546,2.235-7.586,7.677-.019,2.492-.053,4.986.009,7.478.11,4.39,2.415,6.777,6.88,6.784q43.889.066,87.779,0c4.388-.007,6.7-2.433,6.888-6.875.1-2.357.042-4.723.017-7.084-.063-5.886-2.189-7.979-8.176-7.985q-21.256-.022-42.512,0M62.518,122.245c5.774,0,11.547-.021,17.321.012,2.045.011,3.827-.482,3.951-2.817.141-2.66-1.825-3.181-3.984-3.183q-17.124-.015-34.248-.008c-2.144,0-4.21.454-4.172,3.034.038,2.514,2.006,3,4.205,2.98,5.642-.053,11.285-.017,16.927-.018M36.885,134.917c6.553,0,13.107-.039,19.659.021,2.209.021,4.193-.454,4.165-2.971-.028-2.563-2.123-2.873-4.271-2.868q-19.463.046-38.926.014c-1.961,0-3.858.234-3.916,2.748-.062,2.705,1.851,3.073,4.023,3.064,6.422-.027,12.844-.009,19.266-.009m.641,19.64c-6.555,0-13.109.021-19.664-.012-2.107-.009-4.157.148-4.264,2.836-.108,2.747,1.965,3.038,4.06,3.038q19.468.014,38.935.012c2.174,0,4.215-.51,4.121-3.059-.093-2.5-2.129-2.865-4.311-2.841-6.291.07-12.585.025-18.877.025m22.991-6.919c6.422,0,12.844-.013,19.266.007,2.177.007,4.118-.414,3.98-3.1-.124-2.422-1.994-2.7-3.992-2.7q-19.463.033-38.925-.007c-2.166-.006-4.214.324-4.215,2.906,0,2.6,2.08,2.918,4.226,2.906,6.553-.036,13.106-.013,19.659-.013m15.464,6.931c-1.838,0-3.676-.052-5.51.015a2.67,2.67,0,0,0-2.752,2.766,2.555,2.555,0,0,0,2.516,2.949c3.666.115,7.341.127,11.006,0a2.552,2.552,0,0,0,2.567-2.9,2.7,2.7,0,0,0-2.713-2.8c-1.7-.12-3.409-.027-5.114-.035m-54.153-6.964v.025c1.572,0,3.146.015,4.719,0,1.866-.023,3.03-.937,3.045-2.841a2.645,2.645,0,0,0-2.952-2.914c-3.408-.018-6.817-.043-10.224.014a2.629,2.629,0,0,0-2.847,3.005,2.573,2.573,0,0,0,2.757,2.7c1.832.072,3.669.017,5.5.017M76,134.912c1.574,0,3.148.033,4.72-.009,1.833-.049,3.03-.969,3.08-2.847.05-1.9-1.123-2.888-2.966-2.915q-5.112-.077-10.226.01a2.642,2.642,0,0,0-2.879,3c.095,1.834,1.269,2.786,3.156,2.771,1.7-.014,3.41,0,5.114-.007M28.468,122.205v.032c1.183,0,2.365.013,3.548,0,1.844-.025,3.056-.932,3.179-2.784a2.723,2.723,0,0,0-2.828-3.109,75.456,75.456,0,0,0-8.268.046,2.624,2.624,0,0,0-2.612,2.895,2.756,2.756,0,0,0,2.65,2.888,37.21,37.21,0,0,0,4.331.035" transform="translate(-0.714 -1.593)" fill="#dcf3fa"/>
    <path id="Trazado_720295" data-name="Trazado 720295" d="M2.67,175.6c2.749.259,3.267,2.033,3.238,4.428q-.116,9.647-.007,19.3c.044,4.223,1.744,6.031,5.991,6.036q45.1.063,90.2-.007a3.171,3.171,0,0,0,.761-.194h15.976c-1.886-1.427-3-2.248-4.085-3.1a43.731,43.731,0,0,1-14.194-49.188c6.357-17.491,23.768-29.48,42.026-28.58,3.428.169,4.05-.721,4.031-3.928-.137-23.249-.069-46.5-.08-69.749,0-2.4-.2-4.861,2.842-5.736,3.13.593,3.152,2.9,3.148,5.4-.036,23.6.031,47.2-.085,70.806-.015,3.11.594,4.649,3.905,5.832,25.838,9.229,36.754,39.828,22.733,63.007-1.257,2.079-2.562,3.681-5.283,2.574-1.864-2.152-.768-4.024.385-6.062,7.39-13.055,6.586-29.517-1.864-39.872l.019.064a1.614,1.614,0,0,0-.951-1.488c-9.554-12.43-22.282-17.223-37.407-14.123-15.707,3.219-25.786,13.3-29.11,28.923-3.169,14.9,1.414,27.633,13.618,37.248l.935.694,0-.006a10.518,10.518,0,0,0,1.131,1.037,37.48,37.48,0,0,0,42.133-.081c1.927-1.29,3.7-2.64,5.95-.716,1.183,2.421.006,3.886-1.933,5.233-7.075,4.914-14.886,7.886-23.486,7.909q-65.943.176-131.887.047c-6.673-.006-11.1-4.391-11.236-11.062-.14-6.821-.011-13.647-.053-20.47C.013,177.771.4,176.125,2.67,175.6" transform="translate(-0.002 -9.473)" fill="#060706"/>
    <path id="Trazado_720296" data-name="Trazado 720296" d="M172.993,37.01c-3.044.874-2.843,3.331-2.842,5.736.011,23.25-.057,46.5.08,69.749.019,3.207-.6,4.1-4.03,3.928-18.259-.9-35.668,11.089-42.026,28.58a43.73,43.73,0,0,0,14.193,49.188c1.089.847,2.2,1.667,4.086,3.1H126.478c-3.9-5.841-8.472-11.179-11.017-17.957-7.041-18.751-3.414-41.1,11.021-56a54.493,54.493,0,0,1,26.39-15.349c2.586-.649,4.965-1.766,5.9-4.622,1.954-.257,4.148-.351,4.535-2.846.321-2.072-1.25-2.959-2.959-3.544q0-41.686.041-83.372a26.16,26.16,0,0,0-.827-5.79c.9-.088,1.8-.242,2.7-.252,6.66-.073,7.864,1.094,7.886,7.61q.019,5.086,0,10.174c-.008,2.035.646,3.576,2.846,4.043q0,3.815-.007,7.631" transform="translate(-23.632 -1.593)" fill="#c3e9f7"/>
    <path id="Trazado_720297" data-name="Trazado 720297" d="M149.368,27.786c-2.2-.467-2.854-2.008-2.846-4.043q.02-5.086,0-10.174c-.023-6.516-1.227-7.684-7.886-7.61-.9.009-1.8.164-2.7.252-1.435-.085-2.869-.245-4.3-.245Q73.1,5.948,14.582,5.958c-7.849,0-8.7.873-8.7,8.895q0,68.958.018,137.916c0,2.588.183,5.131-3.225,5.732C.489,157.667,0,156,0,153.8Q.063,82.645.063,11.491C.071,4.344,4.548.026,11.721.021q64.459-.043,128.918,0c7.331,0,11.76,4.454,11.842,11.753.044,3.942-.049,7.886.03,11.826.046,2.3-.731,3.813-3.142,4.188" transform="translate(0 0)" fill="#070809"/>
    <path id="Trazado_720298" data-name="Trazado 720298" d="M204.239,173.779c8.451,10.354,9.255,26.817,1.864,39.871-1.153,2.039-2.249,3.911-.386,6.062l-5.162,5.617c-2.247-1.924-4.023-.574-5.95.716a37.481,37.481,0,0,1-42.134.081,10.509,10.509,0,0,1-1.131-1.037c8.371,1.774,16.674,2.526,25.14.114,18.264-5.2,31.424-24.7,28.634-43.688-.375-2.548-1.441-5.068-.877-7.737" transform="translate(-31.938 -36.674)" fill="#9fe12e"/>
    <path id="Trazado_720299" data-name="Trazado 720299" d="M140.152,107.3c1.709.585,3.28,1.472,2.959,3.544-.387,2.495-2.58,2.589-4.534,2.846-9.321-.055-18.642-.151-27.962-.159q-43.935-.031-87.87-.009a28.324,28.324,0,0,1-3.542-.068c-1.738-.219-2.977-1.1-2.915-3.06a2.817,2.817,0,0,1,3.075-2.895c3.281-.1,6.571-.155,9.847,0,2.086.095,2.932-.3,2.969-2.706.156-10.041.252-10.04,10.535-10.04,8.125,0,8.194,0,8.092,8.258-.036,2.864-.171,5.109,3.952,4.563,2.163-.286,2.867-.722,2.8-2.926-.149-5.249.009-10.506-.069-15.758-.046-3.108,1.162-4.63,4.439-4.477s6.573.166,9.847,0c3.509-.181,4.626,1.46,4.537,4.745-.141,5.25.151,10.515-.109,15.756-.154,3.1,1.71,2.522,3.467,2.549,1.838.029,3.568.412,3.517-2.607-.169-10.11-.076-20.224-.058-30.337.009-4.832.335-5.142,5.15-5.165,3.021-.016,6.048.12,9.061-.035,3.258-.168,4.417,1.237,4.382,4.431-.113,10.111.066,20.227-.109,30.336-.05,2.825.839,3.467,3.524,3.475,2.655.007,3.544-.551,3.512-3.407-.159-14.182.024-28.368-.137-42.55-.043-3.765,1.238-5.325,5.012-5.069,2.746.185,5.514.024,8.272.038,5.032.024,5.5.5,5.5,5.752.009,13.921.086,27.844-.066,41.764-.03,2.789.72,3.666,3.476,3.424,3.128-.275,6.291-.154,9.439-.205M121.281,85.27c0-6.688-.141-13.382.067-20.063.087-2.791-1.265-2.873-3.329-2.815s-3.722-.226-3.679,2.929q.27,19.669.013,39.342c-.037,3.208,1.822,2.7,3.789,2.836,2.256.154,3.28-.35,3.2-2.952-.192-6.42-.063-12.851-.063-19.277m-25.39,6.2c0-4.578-.144-9.161.05-13.731.128-2.99-1.72-2.588-3.557-2.616-1.9-.03-3.541-.249-3.487,2.677q.247,13.533,0,27.072c-.054,3.006,1.729,2.57,3.542,2.595,1.88.026,3.641.286,3.5-2.658-.207-4.437-.054-8.892-.054-13.338m-25.6,7.363a45.683,45.683,0,0,1,.04-5.483c.359-2.944-1.287-3.088-3.522-3.094-2.115,0-3.451.156-3.287,2.884a117.249,117.249,0,0,1,.016,11.752c-.086,2.122.718,2.492,2.679,2.645,3.178.248,4.621-.621,4.114-4.01a32.033,32.033,0,0,1-.039-4.7m-28.827,8.528c3.044.828,3.389-.782,3.413-3.353.023-2.5-.574-3.428-3.243-3.355-2.493.068-3.834.328-3.718,3.364.1,2.641.589,4.086,3.547,3.344" transform="translate(-3.437 -11.923)" fill="#080807"/>
    <path id="Trazado_720300" data-name="Trazado 720300" d="M83.192,16.087q21.256,0,42.512,0c5.987.006,8.113,2.1,8.175,7.986.025,2.361.082,4.726-.016,7.083-.185,4.442-2.5,6.868-6.888,6.875q-43.889.072-87.779,0c-4.465-.007-6.77-2.394-6.88-6.784-.062-2.492-.028-4.985-.01-7.478.04-5.442,2.191-7.666,7.587-7.677q21.65-.045,43.3-.01m35.095,15.7a42.472,42.472,0,0,1,4.678.217c3.8.581,5.289-.6,4.939-4.741-.428-5.055-.1-5.1-5.326-5.073-1.431.006-2.862.112-4.292.172-1.437-.062-2.874-.178-4.311-.178q-35.01-.017-70.021-.008c-5.759,0-5.532.011-5.806,5.879-.162,3.46,1.123,4.031,4.236,4,14.684-.157,29.371-.046,44.057-.078,10.615-.023,21.23-.122,31.845-.186" transform="translate(-6.812 -3.394)" fill="#0e090c"/>
    <path id="Trazado_720301" data-name="Trazado 720301" d="M72.683,151.322c-5.643,0-11.285-.035-16.927.018-2.2.021-4.167-.465-4.205-2.981-.038-2.581,2.028-3.034,4.172-3.034q17.123,0,34.248.007c2.159,0,4.125.523,3.984,3.183-.124,2.335-1.906,2.828-3.951,2.817-5.774-.032-11.547-.011-17.321-.011" transform="translate(-10.879 -30.669)" fill="#0e090c"/>
    <path id="Trazado_720302" data-name="Trazado 720302" d="M39.617,167.429c-6.422,0-12.844-.017-19.266.009-2.172.009-4.086-.359-4.023-3.064.058-2.514,1.954-2.748,3.916-2.748q19.463,0,38.926-.015c2.148,0,4.243.306,4.271,2.869.028,2.517-1.957,2.992-4.165,2.971-6.553-.06-13.106-.021-19.659-.022" transform="translate(-3.446 -34.106)" fill="#010101"/>
    <path id="Trazado_720303" data-name="Trazado 720303" d="M40.258,193.873c6.293,0,12.586.045,18.877-.025,2.182-.024,4.218.338,4.311,2.841.095,2.548-1.947,3.06-4.121,3.059q-19.466-.019-38.935-.012c-2.095,0-4.168-.291-4.06-3.038.107-2.688,2.156-2.846,4.264-2.836,6.555.032,13.109.012,19.664.012" transform="translate(-3.445 -40.909)" fill="#010101"/>
    <path id="Trazado_720304" data-name="Trazado 720304" d="M69.412,183.56c-6.553,0-13.106-.022-19.659.013-2.145.011-4.228-.309-4.226-2.906s2.049-2.912,4.215-2.907q19.462.053,38.925.007c2,0,3.868.274,3.992,2.7.137,2.689-1.8,3.109-3.98,3.1-6.422-.021-12.844-.007-19.266-.007" transform="translate(-9.608 -37.514)" fill="#010101"/>
    <path id="Trazado_720305" data-name="Trazado 720305" d="M93.189,193.892c1.706,0,3.418-.09,5.115.031a2.7,2.7,0,0,1,2.712,2.8,2.551,2.551,0,0,1-2.566,2.9c-3.666.123-7.341.111-11.006,0a2.555,2.555,0,0,1-2.517-2.949,2.67,2.67,0,0,1,2.752-2.766c1.834-.067,3.673-.015,5.51-.011" transform="translate(-17.922 -40.912)" fill="#060706"/>
    <path id="Trazado_720306" data-name="Trazado 720306" d="M24.553,183.529c-1.834,0-3.673.055-5.5-.017a2.572,2.572,0,0,1-2.756-2.7,2.627,2.627,0,0,1,2.847-3.005c3.407-.057,6.816-.032,10.224-.014a2.646,2.646,0,0,1,2.952,2.915c-.016,1.9-1.18,2.817-3.045,2.84-1.572.019-3.145,0-4.718,0v-.025" transform="translate(-3.438 -37.517)" fill="#060706"/>
    <path id="Trazado_720307" data-name="Trazado 720307" d="M93.211,167.43c-1.7,0-3.409-.009-5.114,0-1.887.015-3.061-.936-3.156-2.771a2.64,2.64,0,0,1,2.878-3q5.112-.084,10.226-.011c1.843.028,3.017,1.011,2.966,2.915-.05,1.878-1.248,2.8-3.08,2.847-1.572.042-3.147.009-4.72.01" transform="translate(-17.924 -34.108)" fill="#060706"/>
    <path id="Trazado_720308" data-name="Trazado 720308" d="M33.311,151.281a37.21,37.21,0,0,1-4.331-.036,2.756,2.756,0,0,1-2.65-2.888,2.624,2.624,0,0,1,2.612-2.895,75.46,75.46,0,0,1,8.268-.046,2.723,2.723,0,0,1,2.828,3.109c-.122,1.853-1.335,2.759-3.179,2.784-1.183.016-2.365,0-3.548,0v-.032" transform="translate(-5.556 -30.669)" fill="#0e090c"/>
    <path id="Trazado_720309" data-name="Trazado 720309" d="M200.085,169.377c-.563,2.669.5,5.188.877,7.737,2.79,18.982-10.371,38.486-28.634,43.688-8.466,2.412-16.769,1.659-25.141-.115l0,.006-.935-.693c-12.205-9.615-16.788-22.347-13.618-37.248,3.324-15.626,13.4-25.7,29.11-28.923,15.125-3.1,27.854,1.692,37.408,14.123a1.369,1.369,0,0,0,.949,1.488Zm-5.613,10.289a10.276,10.276,0,0,0-6.4-8.935,9.915,9.915,0,0,0-11.34,1.87c-3.562,3.3-6.98,6.765-10.335,10.279-1.519,1.592-2.438,2.359-4.589.45a10.2,10.2,0,0,0-14.8.711c-3.976,4.323-3.793,10.3.574,14.862,3.086,3.226,6.234,6.4,9.481,9.465,4.238,4,9.584,4.09,13.746.047,6.971-6.772,13.788-13.7,20.624-20.612a10.857,10.857,0,0,0,3.034-8.136" transform="translate(-27.786 -32.27)" fill="#b8e96a"/>
    <path id="Trazado_720310" data-name="Trazado 720310" d="M218.157,173.462a1.371,1.371,0,0,1-.95-1.488,1.612,1.612,0,0,1,.95,1.488" transform="translate(-45.839 -36.293)" fill="#9fe12e"/>
    <path id="Trazado_720311" data-name="Trazado 720311" d="M150.158,237.943l.935.694-.935-.694" transform="translate(-31.689 -50.215)" fill="#9fe12e"/>
    <path id="Trazado_720312" data-name="Trazado 720312" d="M147.509,86.844c0,6.426-.129,12.856.063,19.277.078,2.6-.946,3.106-3.2,2.952-1.968-.134-3.826.372-3.789-2.836q.227-19.669-.013-39.342c-.043-3.156,1.628-2.871,3.678-2.929s3.416.023,3.329,2.815c-.208,6.682-.067,13.375-.067,20.063" transform="translate(-29.665 -13.497)" fill="#99d92b"/>
    <path id="Trazado_720313" data-name="Trazado 720313" d="M115.314,96.443c0,4.447-.153,8.9.054,13.338.137,2.944-1.624,2.684-3.5,2.658-1.813-.025-3.6.411-3.542-2.595q.244-13.533,0-27.072c-.054-2.926,1.583-2.707,3.487-2.677,1.837.028,3.684-.374,3.557,2.616-.195,4.57-.05,9.154-.05,13.731" transform="translate(-22.859 -16.9)" fill="#4e88ce"/>
    <path id="Trazado_720314" data-name="Trazado 720314" d="M82.919,107.858a32.044,32.044,0,0,0,.039,4.7c.508,3.388-.935,4.257-4.113,4.009-1.961-.153-2.765-.524-2.679-2.645a117,117,0,0,0-.015-11.752c-.164-2.729,1.172-2.89,3.287-2.884,2.235.006,3.881.15,3.522,3.094a45.67,45.67,0,0,0-.04,5.482" transform="translate(-16.068 -20.952)" fill="#f9cc59"/>
    <path id="Trazado_720315" data-name="Trazado 720315" d="M47.244,119.166c-2.959.742-3.447-.7-3.547-3.344-.116-3.036,1.224-3.3,3.718-3.364,2.668-.073,3.266.851,3.243,3.355-.024,2.571-.369,4.182-3.413,3.353" transform="translate(-9.22 -23.732)" fill="#fc79b4"/>
    <path id="Trazado_720316" data-name="Trazado 720316" d="M119.853,33.418c-10.615.065-21.23.163-31.845.186-14.687.032-29.373-.079-44.057.078-3.112.034-4.4-.536-4.236-4,.274-5.868.047-5.879,5.806-5.879q35.01,0,70.021.008c1.437,0,2.874.117,4.311.178q0,4.712,0,9.425" transform="translate(-8.378 -5.024)" fill="#fc79b4"/>
    <path id="Trazado_720317" data-name="Trazado 720317" d="M141.292,33.421q0-4.712,0-9.425c1.43-.06,2.861-.166,4.292-.172,5.225-.022,4.9.018,5.326,5.073.35,4.14-1.138,5.322-4.939,4.741a42.473,42.473,0,0,0-4.678-.217" transform="translate(-29.818 -5.027)" fill="#fd5ca6"/>
    <path id="Trazado_720318" data-name="Trazado 720318" d="M197.816,184.165a10.854,10.854,0,0,1-3.034,8.136c-6.836,6.909-13.652,13.84-20.623,20.612-4.163,4.043-9.509,3.953-13.747-.047-3.247-3.064-6.395-6.239-9.48-9.465-4.367-4.566-4.55-10.54-.575-14.862a10.2,10.2,0,0,1,14.8-.712c2.151,1.91,3.07,1.143,4.59-.449,3.355-3.513,6.771-6.979,10.334-10.279a9.915,9.915,0,0,1,11.34-1.87,10.275,10.275,0,0,1,6.395,8.935m-6.043,1.114c-.035-2.245-.85-3.659-2.522-4.5a4.392,4.392,0,0,0-5.411.9c-3.66,3.572-7.266,7.2-10.885,10.816-5.417,5.409-5.447,5.448-10.957.369-2.265-2.088-4.7-2.652-6.963-.5-2.466,2.34-1.87,4.938.4,7.223,2.773,2.79,5.606,5.523,8.334,8.357,2.416,2.51,4.641,2.418,7.059-.028,6.268-6.343,12.6-12.624,18.916-18.921,1.143-1.14,2.094-2.355,2.028-3.71" transform="translate(-31.13 -36.77)" fill="#060706"/>
    <path id="Trazado_720319" data-name="Trazado 720319" d="M193.359,186.879c.066,1.355-.884,2.57-2.028,3.71-6.316,6.3-12.648,12.578-18.916,18.921-2.417,2.447-4.643,2.538-7.059.028-2.727-2.834-5.561-5.567-8.334-8.357-2.271-2.285-2.867-4.883-.4-7.223,2.267-2.151,4.7-1.588,6.963.5,5.51,5.079,5.54,5.04,10.957-.369,3.62-3.614,7.225-7.243,10.885-10.816a4.392,4.392,0,0,1,5.411-.9c1.671.843,2.487,2.258,2.522,4.5" transform="translate(-32.716 -38.37)" fill="#d9eff6"/>
  </g>
</svg>
