<svg xmlns="http://www.w3.org/2000/svg" xmlns:xlink="http://www.w3.org/1999/xlink" width="142" height="142" viewBox="0 0 142 142">
  <defs>
    <clipPath id="clip-path">
      <rect id="Rectángulo_350827" data-name="Rectángulo 350827" width="142" height="141.99" fill="none"/>
    </clipPath>
  </defs>
  <g id="Grupo_1018227" data-name="Grupo 1018227" transform="translate(-420 -1194)">
    <circle id="Elipse_5855" data-name="Elipse 5855" cx="71" cy="71" r="71" transform="translate(420 1194)" fill="#fff"/>
    <g id="Grupo_1018175" data-name="Grupo 1018175" transform="translate(420 1194.005)">
      <g id="Grupo_1018174" data-name="Grupo 1018174" clip-path="url(#clip-path)">
        <path id="Trazado_720444" data-name="Trazado 720444" d="M96.966,68.315c.715-1.716,1.933-1.845,3.619-1.453a28.16,28.16,0,0,1,16.526,43.666c-.532.752-2.071,1.372-.87,2.738.93,1.058,1.691,1.8,3.474,1.113,3.293-1.265,6.348-.311,8.862,2.2,3.6,3.592,7.234,7.143,10.77,10.793s3.515,8.781.1,12.148-8.5,3.3-12.15-.255-7.211-7.164-10.788-10.774c-2.5-2.524-3.373-5.591-2.1-8.886.639-1.652-.1-2.321-1.009-3.255-1.317-1.353-1.953.123-2.73.653a27.176,27.176,0,0,1-8.681,4.162c-1.462.365-1.855,1.024-1.82,2.461.1,3.971.073,7.947.022,11.92-.056,4.4-2.107,6.423-6.5,6.425q-43.663.015-87.327,0c-4.248,0-6.337-2.06-6.344-6.25C0,123.059-.021,110.4.031,97.739A19.107,19.107,0,0,1,12.566,79.561c7.537-2.978,15.1-5.894,22.647-8.845a3.948,3.948,0,0,0,1.333-6.628A20.035,20.035,0,0,1,29.332,49.66c-.058-1.2-.509-1.447-1.65-1.6-8.5-1.127-11.377-7.778-6.517-15a2.71,2.71,0,0,0,.475-1.757c-.1-5.17-.265-10.342-.207-15.512C21.538,6.3,27.895.051,37.337.017q9.288-.033,18.574,0c5.715.023,8.064,1.608,9.916,6.907a2.173,2.173,0,0,0,2.15,1.649c5.5.749,7.933,3.556,7.958,9.059.017,3.789.033,7.578-.014,11.366a2.687,2.687,0,0,0,1.356,2.669A8.483,8.483,0,0,1,81.2,41.2a8.69,8.69,0,0,1-8.091,6.807c-1.548.134-2.117.365-2.261,2.108a20.16,20.16,0,0,1-6.944,13.724,4.082,4.082,0,0,0,1.248,7.047,5.692,5.692,0,0,1,.785.266c4.932,2.811,9.528,3.742,14.122-1.025,1.922-1.994,5.054-2.516,7.825-3.284,1.711-.474,2.88-.133,3.657,1.463-.149,1.646-1.2,2.274-2.692,2.673-12.2,3.26-19.107,12.819-18.419,25.394.713,13.035,13.967,23.643,26.785,21.438,9.264-1.194,15.713-6.272,19.149-14.781,3.547-8.785,1.961-17.038-4.036-24.364-3.794-4.634-8.928-7.008-14.658-8.271q-.355-1.04-.709-2.081M71.072,38.828a26.777,26.777,0,0,1-.116,3.035c-.274,1.854.608,2.208,2.2,1.981,2.934-.416,4.336-2.626,3.813-6.131-.376-1.242-1.55-3.032-2.246-2.4-1.216,1.11-4.164.677-3.654,3.511m-41.945,0c.406-2.865-2.251-1.479-3.313-2.338-1.446-1.169-2.274-.409-2.521,1.229-1.089,2.1-.116,3.679,1.351,5.065a3.733,3.733,0,0,0,4.056.912c1.165-.5.427-1.95.547-2.97a10.089,10.089,0,0,0-.12-1.9M49.943,68.991a28.086,28.086,0,0,1-6.737-1.219c-.556-.2-1.16-.467-1.484.528-1.012,3.1-.551,4.579,2.186,6.462,1.207.831,2.425,1.65,3.591,2.537.752.573,1.129,1.794,2.441,1.3.366.028.85.223,1.08.059,2.542-1.8,5.048-3.65,7.555-5.5.386-.285.676-.658.364-1.165-.81-1.321-.387-2.888-.84-4.4-1.378.355-2.686.781-4.027,1.011-1.359.232-2.752.27-4.129.393m87.278,66.418c1.074-2.129.447-3.893-1.143-5.476q-5.1-5.074-10.172-10.17c-1.243-1.248-2.634-2.009-4.46-1.527-3.7,1.558-4.577,4.536-1.944,7.319,3.487,3.688,7.1,7.265,10.761,10.778,2.355,2.258,4.982,1.823,6.958-.924M64.4,115.437c-1.729-.359-2.041-1.615-2.034-3.126.018-4.062,0-8.123,0-12.185V89.345c-1.3.292-2.345.852-3.228.664-3.063-.65-3.084.9-2.894,3.233.94,11.495,1.74,23,2.613,34.5a11.056,11.056,0,0,1-1.274,6.129c-2.125,4.063-2.092,3.993,2.664,3.97,1.743-.008,2.2-.572,2.155-2.234-.107-3.874-.017-7.753-.041-11.63-.01-1.524.348-2.75,2.036-3.146,1.84.358,2.209,1.624,2.185,3.285-.058,3.877.047,7.757-.049,11.632-.039,1.577.477,2.087,2.045,2.037,3.228-.1,6.465-.117,9.692,0,1.786.067,2.152-.677,2.125-2.282q-.122-7.477,0-14.956a2.974,2.974,0,0,0-1.578-2.908,27.14,27.14,0,0,1-7.7-7.473,44.131,44.131,0,0,1-4.361-8.784c-.2,3.725-.229,7.39-.18,11.054.022,1.6-.508,2.685-2.182,2.994M52.2,64.456a15.914,15.914,0,0,0,13.843-11.3c1.071-3.423.472-6.945.751-10.41.3-3.694-.06-6.913-3.515-9.25-1-.677-1.305-.743-2.128-.029a15.664,15.664,0,0,1-10.963,3.7c-2.3-.04-4.6.054-6.894.089-2.767-.034-5.536-.009-8.3-.128-1.394-.06-1.7.515-1.67,1.778.075,3.322-.089,6.652.066,9.969.462,9.887,9.634,17.437,18.808,15.578M18.707,81.873l-.081-.02c-1.729.621-3.508,1.13-5.178,1.883-5.5,2.481-8.939,6.742-9.06,12.793-.26,12.995-.1,26-.151,39-.007,1.71.738,2.277,2.343,2.226a51.7,51.7,0,0,1,6.358.027c2.267.21,2.747-.7,2.732-2.808-.09-12.447-.037-24.894-.054-37.341,0-1.4-.048-2.776,1.051-3.86,2.806-.5,3.26,1.141,3.254,3.419-.034,12.642.023,25.283-.056,37.923-.012,1.963.361,2.842,2.552,2.692a62.2,62.2,0,0,1,8.575,0c2.3.162,2.738-.752,2.73-2.843-.072-17.624-.041-35.248-.041-52.872,0-1.569-.028-3.138.007-4.706.025-1.137-.3-1.493-1.463-1.014-4.25,1.756-8.526,3.445-12.792,5.159l-.723.342m17.915-49.1c4.422.036,8.848-.033,13.265.138,4.739.184,8.479-1.413,10.981-5.525a2.524,2.524,0,0,1,2.738-1.4,2.261,2.261,0,0,1,1.965,2.3,4.917,4.917,0,0,0,2.52,4.053c2.214,1.2,3.539.482,3.562-2.02.04-4.425.049-8.852,0-13.277-.034-2.847-1.186-4.029-3.933-4.28-3.535-.321-4.952-1.324-5.88-4.761a4.442,4.442,0,0,0-4.753-3.714c-5.528.011-11.056.07-16.584.109-1.565-.035-3.137-.178-4.7-.085A10.7,10.7,0,0,0,25.61,14.487c-.2,4.889-.089,9.792-.041,14.688.022,2.284,1.208,3.66,3.58,3.689,2.49.03,4.982-.055,7.473-.09m8.856,94.12c-1.015,3.787,1.893,6.714,3.5,10.054.429.889,1.525,1.157,2,.227,1.482-2.914,4.032-5.477,3.778-9.04-.781-10.958-1.71-21.906-2.5-32.863-.107-1.483-.379-2.04-2.048-1.93-1.45.095-2.339-.019-2.462,1.9-.664,10.41-1.476,20.812-2.269,31.648M37.764,89.279V132.2c0,5.858,0,5.862,5.848,5.584.235-.011.461-.209.853-.4-2.253-3.723-3.638-7.426-3.143-12,1.15-10.623,1.674-21.314,2.507-31.973.177-2.268.276-4.143-3-3.4-.79.178-1.749-.392-3.068-.729m46.752,39.892h.033c0,2.663-.011,5.327.024,7.99a.769.769,0,0,0,.529.533c2.754.077,5.51.108,8.265.15.092,0,.184-.007.276,0,1.787.1,2.417-.76,2.354-2.516-.1-2.848-.027-5.7-.027-8.553,0-4.325,0-4.528-4.153-4.558-2.49-.018-5.614-2.405-7.041-.563-1.246,1.609-.26,4.945-.26,7.518M37.758,75.594c0,2.662.088,4.752-.026,6.832-.107,1.98,1.506,2.442,2.7,3.056,1.308.674,1.511-.914,2-1.6,2.443-3.407,2.408-3.431-1-5.765-1.051-.719-2.1-1.442-3.671-2.523m12.716,13.69a4.606,4.606,0,0,0,3.688-2.925c.434-1.164-2.581-3.5-4.112-3.633-2.636-.232-3.152,1.96-3.983,3.543-.5.957,2.456,3.06,4.406,3.015M62.38,75.668c-2.167,1.459-3.783,2.657-5.506,3.672-1.412.832-1.447,1.641-.4,2.764.435.467.655,1.154,1.127,1.561.728.629.664,2.5,2.2,1.8,1.359-.621,2.825-1.341,2.622-3.422-.187-1.913-.039-3.858-.039-6.377m4.354.575V87.424c.967-2.289,1.68-4.25,2.6-6.106,1.923-3.861,1.97-3.839-2.216-5.16-.075-.024-.176.036-.388.085" transform="translate(0 0)" fill="#060505"/>
        <path id="Trazado_720445" data-name="Trazado 720445" d="M153.433,123.114q.355,1.04.709,2.081c-6.712,3.333-11.578,8.317-13.914,15.562-6.444,3.151-7.225,7.936-2.147,13.074.577.584,1.092,1.228,1.637,1.844l.534.617-.027-.038a5.02,5.02,0,0,0,.706,3.161,27.247,27.247,0,0,0,12.757,13.2c-12.819,2.205-26.072-8.4-26.785-21.439-.688-12.575,6.22-22.134,18.419-25.394,1.491-.4,2.542-1.026,2.692-2.673l5.42.007" transform="translate(-56.467 -54.799)" fill="#01c33a"/>
        <path id="Trazado_720446" data-name="Trazado 720446" d="M68.977,7.847c5.528-.039,11.055-.1,16.583-.109a4.442,4.442,0,0,1,4.754,3.713c.928,3.436,2.345,4.44,5.879,4.761,2.748.25,3.9,1.433,3.933,4.279.054,4.426.045,8.852,0,13.277-.023,2.5-1.347,3.222-3.561,2.02a4.917,4.917,0,0,1-2.52-4.053,2.262,2.262,0,0,0-1.965-2.3,2.523,2.523,0,0,0-2.737,1.4c-2.5,4.112-6.243,5.709-10.981,5.525-4.417-.171-8.844-.1-13.266-.138a15.687,15.687,0,0,1-1.052-3.662c-.143-3.664-.019-7.337-.067-11.005-.059-4.63.728-8.923,4.353-12.248.358-.328.436-.964.643-1.457" transform="translate(-28.478 -3.444)" fill="#d87d49"/>
        <path id="Trazado_720447" data-name="Trazado 720447" d="M32.747,142.632c4.266-1.714,8.543-3.4,12.792-5.159,1.16-.479,1.489-.124,1.463,1.014-.034,1.568-.006,3.137-.006,4.706,0,17.624-.031,35.248.041,52.872.009,2.091-.433,3-2.73,2.843a62.19,62.19,0,0,0-8.574,0c-2.191.149-2.565-.73-2.552-2.692.079-12.641.022-25.283.056-37.923.006-2.277-.448-3.915-3.254-3.419-.16-3.674-.186-7.318,1.884-10.609.2-.324.059-.867.077-1.309l.082.021.721-.343" transform="translate(-13.317 -61.101)" fill="#8176be"/>
        <path id="Trazado_720448" data-name="Trazado 720448" d="M150.9,142.432c2.337-7.245,7.2-12.229,13.914-15.562,5.73,1.263,10.864,3.637,14.658,8.272,6,7.326,7.583,15.579,4.036,24.364-3.436,8.508-9.885,13.586-19.149,14.781a27.243,27.243,0,0,1-12.756-13.2,5.023,5.023,0,0,1-.706-3.161c1.412,1.31,2.807,2.639,4.24,3.925,3.023,2.714,6.793,2.808,9.729.024q5.328-5.051,10.384-10.387a6.876,6.876,0,0,0,.068-9.536,6.8,6.8,0,0,0-9.712-.376,39.479,39.479,0,0,0-3.932,3.9c-1.121,1.287-1.991,1.622-3.2.086a8.049,8.049,0,0,0-7.576-3.135" transform="translate(-67.139 -56.474)" fill="#71d276"/>
        <path id="Trazado_720449" data-name="Trazado 720449" d="M22.024,147.518c-.017.442.127.985-.077,1.309-2.07,3.29-2.044,6.934-1.884,10.608-1.1,1.084-1.053,2.459-1.051,3.86.017,12.447-.036,24.894.054,37.341.016,2.112-.464,3.018-2.731,2.808a51.7,51.7,0,0,0-6.358-.027c-1.605.051-2.35-.517-2.343-2.226.055-13-.109-26,.151-39,.121-6.051,3.557-10.312,9.06-12.793,1.67-.753,3.449-1.262,5.178-1.883" transform="translate(-3.398 -65.665)" fill="#6b5db3"/>
        <path id="Trazado_720450" data-name="Trazado 720450" d="M78.026,63.7c2.3-.034,4.6-.128,6.894-.089a15.661,15.661,0,0,0,10.962-3.7c.823-.713,1.127-.648,2.128.029,3.455,2.338,3.812,5.556,3.515,9.25-.28,3.466.319,6.988-.752,10.411A15.915,15.915,0,0,1,86.931,90.9c-.145-.234-.236-.543-.443-.69a18.7,18.7,0,0,1-8.094-14.091c-.435-4.161-.166-8.284-.367-12.417" transform="translate(-34.732 -26.44)" fill="#fdccbc"/>
        <path id="Trazado_720451" data-name="Trazado 720451" d="M116.058,196.774c1.674-.309,2.2-1.389,2.182-2.994-.049-3.664-.016-7.329.18-11.054a44.131,44.131,0,0,0,4.361,8.784,27.14,27.14,0,0,0,7.7,7.473,2.974,2.974,0,0,1,1.578,2.908q-.117,7.477,0,14.956c.026,1.6-.339,2.349-2.125,2.282-3.227-.121-6.464-.1-9.692,0-1.568.049-2.084-.46-2.045-2.037.1-3.875-.009-7.755.049-11.632.025-1.662-.344-2.927-2.185-3.285q0-2.7,0-5.4" transform="translate(-51.661 -81.337)" fill="#8176be"/>
        <path id="Trazado_720452" data-name="Trazado 720452" d="M81.793,201.766c.793-10.837,1.6-21.238,2.269-31.648.123-1.923,1.012-1.808,2.463-1.9,1.668-.109,1.941.448,2.048,1.93.789,10.958,1.719,21.905,2.5,32.863.254,3.563-2.3,6.126-3.779,9.04-.473.929-1.569.661-2-.227-1.61-3.34-4.518-6.267-3.5-10.054" transform="translate(-36.315 -74.872)" fill="#f8606b"/>
        <path id="Trazado_720453" data-name="Trazado 720453" d="M60.954,7.842c-.208.493-.285,1.128-.643,1.457-3.625,3.325-4.412,7.618-4.353,12.248.047,3.668-.077,7.341.067,11.005a15.687,15.687,0,0,0,1.052,3.662c-2.49.035-4.983.12-7.472.09-2.372-.028-3.558-1.4-3.58-3.689-.048-4.9-.154-9.8.041-14.688A10.7,10.7,0,0,1,56.258,7.756c1.558-.092,3.13.051,4.7.086" transform="translate(-20.455 -3.439)" fill="#c66a34"/>
        <path id="Trazado_720454" data-name="Trazado 720454" d="M70.026,67.042c.2,4.134-.068,8.256.367,12.417A18.7,18.7,0,0,0,78.487,93.55c.207.147.3.456.443.69C69.757,96.1,60.585,88.549,60.122,78.662c-.155-3.316.009-6.647-.066-9.968-.029-1.264.276-1.839,1.67-1.779,2.763.119,5.533.093,8.3.128" transform="translate(-26.732 -29.784)" fill="#fbae9d"/>
        <path id="Trazado_720455" data-name="Trazado 720455" d="M68.06,160.9c1.319.338,2.278.907,3.069.729,3.271-.739,3.172,1.136,3,3.4-.833,10.659-1.357,21.35-2.507,31.973-.495,4.577.89,8.28,3.143,12-.392.19-.618.388-.853.4-5.848.277-5.848.274-5.848-5.584V160.9Z" transform="translate(-30.296 -71.623)" fill="#f9cb83"/>
        <path id="Trazado_720456" data-name="Trazado 720456" d="M109.465,187.112q0,2.7,0,5.4c-1.688.4-2.046,1.622-2.036,3.146.024,3.877-.066,7.756.041,11.63.045,1.662-.411,2.226-2.155,2.234-4.756.023-4.789.094-2.664-3.969a11.061,11.061,0,0,0,1.274-6.129c-.873-11.5-1.673-23.006-2.613-34.5-.191-2.337-.169-3.883,2.894-3.233.883.188,1.924-.372,3.228-.664,0,3.637,0,7.209,0,10.782,0,4.061.014,8.123,0,12.184-.007,1.511.305,2.767,2.034,3.126" transform="translate(-45.068 -71.675)" fill="#f9cb83"/>
        <path id="Trazado_720457" data-name="Trazado 720457" d="M152.021,226.205c0-2.573-.986-5.909.26-7.518,1.427-1.842,4.551.545,7.041.563,4.154.03,4.153.233,4.153,4.558,0,2.851-.075,5.706.027,8.553.063,1.757-.567,2.613-2.354,2.516-.092-.005-.184,0-.276,0-2.755-.042-5.511-.074-8.265-.15a.769.769,0,0,1-.529-.534c-.035-2.663-.024-5.326-.024-7.99h-.033" transform="translate(-67.505 -97.035)" fill="#8176be"/>
        <path id="Trazado_720458" data-name="Trazado 720458" d="M231.87,230.261c-1.976,2.748-4.6,3.182-6.959.924-3.664-3.513-7.273-7.091-10.761-10.778-2.633-2.784-1.759-5.762,1.944-7.319a5.624,5.624,0,0,0,1.938,4.891c3.285,3.188,6.482,6.468,9.731,9.692a8.41,8.41,0,0,0,4.105,2.59" transform="translate(-94.649 -94.853)" fill="#d87d49"/>
        <path id="Trazado_720459" data-name="Trazado 720459" d="M234.619,230.144a8.41,8.41,0,0,1-4.105-2.59c-3.249-3.225-6.446-6.5-9.731-9.692a5.624,5.624,0,0,1-1.938-4.891c1.826-.482,3.217.279,4.46,1.527q5.075,5.1,10.172,10.17c1.59,1.582,2.217,3.347,1.143,5.476" transform="translate(-97.398 -94.735)" fill="#da946e"/>
        <path id="Trazado_720460" data-name="Trazado 720460" d="M90.006,123.211c1.378-.123,2.77-.16,4.129-.393,1.341-.229,2.649-.656,4.027-1.011.453,1.516.029,3.082.84,4.4.311.508.022.881-.364,1.165-2.507,1.848-5.013,3.7-7.555,5.5-.231.163-.714-.031-1.08-.059q0-4.8,0-9.6" transform="translate(-40.063 -54.22)" fill="#fbae9d"/>
        <path id="Trazado_720461" data-name="Trazado 720461" d="M83.019,123.206q0,4.8,0,9.6c-1.313.5-1.69-.722-2.441-1.295-1.165-.888-2.383-1.706-3.591-2.537-2.737-1.883-3.2-3.362-2.186-6.462.325-1,.928-.731,1.484-.529a28.054,28.054,0,0,0,6.737,1.219" transform="translate(-33.076 -54.216)" fill="#f5a089"/>
        <path id="Trazado_720462" data-name="Trazado 720462" d="M68.025,136.238c1.572,1.081,2.62,1.8,3.671,2.523,3.411,2.333,3.445,2.358,1,5.764-.492.686-.695,2.274-2,1.6-1.19-.613-2.8-1.075-2.7-3.056.113-2.079.025-4.169.025-6.831" transform="translate(-30.267 -60.644)" fill="#f5d4a1"/>
        <path id="Trazado_720463" data-name="Trazado 720463" d="M87.387,155.635c-1.95.045-4.908-2.059-4.406-3.015.831-1.584,1.347-3.776,3.982-3.543,1.531.135,4.546,2.47,4.112,3.633a4.607,4.607,0,0,1-3.688,2.925" transform="translate(-36.912 -66.351)" fill="#f8606b"/>
        <path id="Trazado_720464" data-name="Trazado 720464" d="M107.1,136.372c0,2.519-.147,4.464.04,6.377.2,2.082-1.263,2.8-2.622,3.422-1.533.7-1.469-1.174-2.2-1.8-.472-.408-.692-1.095-1.127-1.561-1.046-1.122-1.011-1.932.4-2.764,1.723-1.015,3.339-2.213,5.506-3.672" transform="translate(-44.721 -60.704)" fill="#f5d4a1"/>
        <path id="Trazado_720465" data-name="Trazado 720465" d="M47.441,69.081a10.183,10.183,0,0,1,.12,1.9c-.12,1.019.618,2.465-.547,2.97a3.733,3.733,0,0,1-4.056-.912c-1.467-1.387-2.44-2.968-1.351-5.065,1.776,1.255,3.8,1.209,5.833,1.109" transform="translate(-18.313 -30.257)" fill="#f5a089"/>
        <path id="Trazado_720466" data-name="Trazado 720466" d="M133.855,67.968c.523,3.5-.88,5.715-3.813,6.131-1.6.226-2.476-.127-2.2-1.981a26.792,26.792,0,0,0,.116-3.035,10.921,10.921,0,0,0,5.9-1.115" transform="translate(-56.884 -30.255)" fill="#f5a089"/>
        <path id="Trazado_720467" data-name="Trazado 720467" d="M120.271,137.335c.212-.049.314-.109.388-.085,4.186,1.321,4.139,1.3,2.216,5.16-.924,1.856-1.637,3.817-2.6,6.106Z" transform="translate(-53.537 -61.092)" fill="#8176be"/>
        <path id="Trazado_720468" data-name="Trazado 720468" d="M133.941,65.939a10.921,10.921,0,0,1-5.9,1.115c-.51-2.834,2.439-2.4,3.654-3.512.7-.635,1.869,1.155,2.246,2.4" transform="translate(-56.969 -28.226)" fill="#fbae9d"/>
        <path id="Trazado_720469" data-name="Trazado 720469" d="M47.814,67.641c-2.034.1-4.057.146-5.833-1.109.246-1.639,1.075-2.4,2.521-1.229,1.062.858,3.719-.528,3.313,2.338" transform="translate(-18.687 -28.817)" fill="#fbae9d"/>
        <path id="Trazado_720470" data-name="Trazado 720470" d="M34.439,146.937l-.721.343c.24-.115.481-.229.721-.343" transform="translate(-15.009 -65.407)" fill="#6b5db3"/>
        <path id="Trazado_720471" data-name="Trazado 720471" d="M146.572,152.744a8.048,8.048,0,0,1,7.576,3.134c1.2,1.536,2.075,1.2,3.2-.085a39.487,39.487,0,0,1,3.932-3.9,6.8,6.8,0,0,1,9.712.376,6.876,6.876,0,0,1-.068,9.536q-5.05,5.329-10.384,10.387c-2.936,2.784-6.706,2.689-9.729-.024-1.433-1.287-2.828-2.616-4.24-3.925l.028.037-.535-.616c-.544-.616-1.059-1.261-1.636-1.845-5.078-5.137-4.3-9.923,2.147-13.073m9.052,17.215a2.96,2.96,0,0,0,2.413-1.139q4.7-4.7,9.411-9.4c1.354-1.347,1.922-2.865.384-4.331-1.489-1.419-3.006-.931-4.358.448-1.874,1.912-3.824,3.751-5.674,5.687-1.464,1.531-2.788,1.526-4.213-.028-1-1.087-2.078-2.1-3.131-3.134-1.289-1.268-2.769-1.651-4.155-.339-1.529,1.447-1.073,2.965.3,4.329q3.441,3.416,6.865,6.849a2.792,2.792,0,0,0,2.157,1.058" transform="translate(-62.812 -66.786)" fill="#060505"/>
        <path id="Trazado_720472" data-name="Trazado 720472" d="M150.034,181.8l.534.616-.534-.616" transform="translate(-66.785 -80.927)" fill="#71d276"/>
        <path id="Trazado_720473" data-name="Trazado 720473" d="M159.024,173.33a2.8,2.8,0,0,1-2.16-1.059q-3.43-3.427-6.865-6.849c-1.374-1.364-1.83-2.881-.3-4.328,1.386-1.313,2.866-.929,4.155.338,1.053,1.036,2.134,2.047,3.131,3.134,1.425,1.554,2.749,1.559,4.214.027,1.849-1.935,3.8-3.774,5.673-5.687,1.352-1.379,2.869-1.867,4.358-.448,1.538,1.466.97,2.984-.384,4.331q-4.713,4.692-9.411,9.4a2.965,2.965,0,0,1-2.41,1.14" transform="translate(-66.21 -70.155)" fill="#c5ebf9"/>
      </g>
    </g>
  </g>
</svg>
