<svg id="Grupo_1018179" data-name="Grupo 1018179" xmlns="http://www.w3.org/2000/svg" xmlns:xlink="http://www.w3.org/1999/xlink" width="185.443" height="185.492" viewBox="0 0 185.443 185.492">
  <defs>
    <clipPath id="clip-path">
      <rect id="Rectángulo_350829" data-name="Rectángulo 350829" width="185.443" height="185.492" fill="none"/>
    </clipPath>
  </defs>
  <g id="Grupo_1018178" data-name="Grupo 1018178" clip-path="url(#clip-path)">
    <path id="Trazado_720509" data-name="Trazado 720509" d="M111.119,126.383c-1.7-.31-2.949-1.243-2.948-3.024.006-6.408-.554-12.834,1.372-19.144,4.808-15.743,20.469-26.142,36.471-24.056,17.139,2.234,29.85,16.253,30.061,33.281.1,8.233-.007,16.468.034,24.7a14.9,14.9,0,0,1-3.377,10.006,3.412,3.412,0,0,0-.663,4.1c1.551,3.668.883,7.614.917,11.45.057,6.432.108,12.869-.107,19.294-.063,1.852.473,2.148,2.029,2.085,2.055-.083,4.118.031,6.174-.032,1.978-.062,3.725.365,4.156,2.534.438,2.209-1.012,3.265-2.954,3.783-1.411-.039-2.821-.114-4.232-.114q-58-.009-116,0c-14,0-28,.066-42,.1l-17.042.01c-1.938-.513-3.367-1.578-2.939-3.769.42-2.154,2.145-2.577,4.121-2.546,3.84.059,7.687-.089,11.522.059,2.076.08,2.8-.421,2.847-2.684.141-6.2,3.8-9.612,9.938-9.719,8.788-.153,8.788-.153,8.433-9.19.032-1.541.058-3.082.094-4.623.168-7.1-1.167-14.434,3.135-20.919,4.538-3.925,9.5-6.565,15.765-5.03C63.9,134.886,67.573,140.38,68.049,151c-.036,2.184.039,4.377-.137,6.55-.181,2.232.725,2.888,2.873,2.82,4.238-.134,8.483-.037,12.727-.039,7.6,0,9.355-1.816,9.037-9.331q0-5.385,0-10.769c.034-9.655.131-19.311.073-28.965-.025-4.079-2.45-6.511-6.521-6.524-13.775-.041-27.55.041-41.325.076l-23.132,0c-6.646-.283-9.278,1.527-9.3,6.735q-.1,21.048,0,42.1c.02,4.32,2.4,6.552,6.773,6.667,2.444.064,4.894.08,7.337,0,2.362-.083,4.034.65,4.486,3.183-.316,1.5-1.131,2.894-2.67,2.9-4.606.013-9.288.861-13.8-.622a11.888,11.888,0,0,1-8.3-11.388c-.092-14.549-.119-29.1,0-43.649A12.054,12.054,0,0,1,18.538,98.562q33.992-.122,67.984,0A12.057,12.057,0,0,1,98.8,110.825q.174,21.632,0,43.264c-.051,7.176-5.318,12.288-12.543,12.412-5.148.087-10.306.165-15.448-.045-2.478-.1-3.1.719-2.932,3.034.137,1.875-.191,3.38,2.689,3.3,4.159-.118,8.465,1.112,12.337,1.288,4.324.2,8.959.244,13.222.009,4.144-.227,8.687-1.207,13.1-1.335,1.908-.055,1.994-.957,1.979-2.4-.049-4.377-.666-8.882.153-13.1.967-4.978.692-9.169-2.258-13.425-1.527-2.2-1.072-5.223-.995-7.935a3.272,3.272,0,0,1,3-3.411c2.587.387,3.346,2.107,3.165,4.442a9.9,9.9,0,0,0,1.466,6.259c.485.765,1.111,1.965,1.973,1.332,3.432-2.524,7.449-2.768,11.938-2.957-3.2-3.628-6.385-6.409-7.815-10.615-2.617-7.691-.9-15.554-1.28-23.327a2.733,2.733,0,0,1,2.676-2.822,10.69,10.69,0,0,0,9.668-7c1.124-2.606,3.1-3.217,5.513-1.051a29.347,29.347,0,0,0,21.033,7.956c1.99-.055,3.738.422,4.134,2.573.4,2.182-.978,3.294-3.021,3.669-7.908.187-15.281-1.568-21.835-6.144-1.33-.928-2.276-1.112-2.917.634l-2.263,2.218c-6.2,1.505-8.032,5.568-6.95,11.531.316,1.747-.076,3.612.121,5.394.641,5.81,3.542,10.183,8.886,12.627,5.287,2.417,10.461,2.181,15.226-1.488,4.975-3.081,6.723-7.8,6.705-13.37-.008-2.4-.077-4.743,3.038-5.318,1.727.233,3,1.183,3.06,2.913a31.75,31.75,0,0,1-.406,8.394c-1.239,5.335-4.684,9.171-8.908,13.274,3.7.281,6.61.13,9.394,1.282,1.3.54,2.489,3.06,4.22,1.02A7.606,7.606,0,0,0,169.906,139q-.016-5.195-.029-10.39c-.207-6.89.615-13.8-.7-20.671C166.386,93.382,150.1,83.062,135.982,87c-11.242,2.848-18.092,9.991-21,21.167-1.194,4.586-.485,9.192-.648,13.785-.081,2.325-.629,4.048-3.211,4.436m45.632,52.624c-3.532-.043-7.065-.1-10.6-.121-2.09-.011-3.748.59-3.9,3.073.082,2.59,1.791,3.107,3.929,3.1q8.291-.009,16.583,0c2.6,0,4.232-.972,3.929-3.9.043-1.919-.067-3.856.166-5.751.329-2.669-.984-3.05-3.12-2.593-1.677-.226-3.365-.6-3.127,2.133.236,2.707-1.361,3.86-3.866,4.052m-28.174-18.33,1.191,1.189c-.009,6.688.049,13.376-.063,20.062-.036,2.173.32,3.374,2.9,3.19,2.064-.147,3.665.106,3.42-2.972-.317-3.987,1.991-6.768,5.437-8.587,2.392-1.262,5.055-.65,7.579-1.009,5.421.316,5.424.316,5.421-4.934,0-1.916-.019-3.833-.029-5.75,4.06-2.527,5.359-1.969,6.165,2.893.213,1.283.618,1.677,1.88,1.79,2.979.267,5.047-.1,4.4-3.959-.315-1.876.011-3.851-.088-5.773a9.127,9.127,0,0,0-4.622-7.568c-1.317-.821-2.637-1.222-3.343.8-1.388,3.977-3.628,7.643-4.324,11.872-2.371,2.178-4.463,1.35-6.817-.278-5.666-3.917-5.728-3.831-11.349.094-.414.289-.783.644-1.173.969-2.042,1.276-3.788.5-5.459-.787a1.826,1.826,0,0,0-.557-1.739c-1.093-3-2.272-5.963-3.255-8.994-.976-3.011-2.547-3.114-4.774-1.3a9.154,9.154,0,0,0-3.7,6.877c-.1,2.429.083,4.872-.072,7.3-.14,2.188.956,2.661,2.777,2.452,1.471-.169,3.532.768,3.458-2.124-.088-3.457,1.782-4.546,4.992-3.713m-15.089,18.33c-3.545-.043-7.09-.1-10.635-.124-2.1-.017-3.784.533-3.861,3.076.077,2.572,1.774,3.1,3.9,3.1q5.756,0,11.511,0c9.362,0,9.362,0,9.162-9.381a4.7,4.7,0,0,1,0-.767c.3-2.025-.86-2.469-2.5-2.2-1.471.241-3.924-1.126-3.694,2.141.192,2.739-1.311,3.962-3.882,4.15m-33.334,2.941c-.113-2.566-1.817-3.073-3.94-3.067q-22.286.052-44.571.1a26.775,26.775,0,0,0-4.212.009c-2.432.374-2.755,2.226-2.779,4.327-.029,2.479,1.758,1.716,2.958,1.718,16.665.039,33.331-.036,50,.09,2.7.02,3.012-1.061,2.548-3.173m-18.513-13.9c.035-6.759.236-13.521.056-20.275-.175-6.561-6.051-10.381-12.3-8.278-4.122,1.256-6.032,4.309-6.125,8.349-.172,7.461.026,14.93-.1,22.392-.038,2.168.818,2.553,2.707,2.5a88.518,88.518,0,0,1,11.573.05c4.029.41,4.941-1.257,4.191-4.736m26.94,16.976c2.648.063,4.4.453,4.123-2.3-.2-2.028-.8-3.655-2.973-3.738-2.414-.092-3.087,1.582-3.3,3.789-.274,2.848,1.609,2.231,2.148,2.253m48.251-41.008c5.29,6.541,5.453,6.549,9.5.945-3.043-.348-6.008.357-9.5-.945m-3.982,4.021-1.205,1.091c.63,1.6,1.267,3.19,1.887,4.79.489,1.262,1.272,1.432,2.355.7.955-.643.952-1.289.234-2.175-1.15-1.42-2.187-2.934-3.272-4.408m19.259,1.457-1.046-1.063c-1.044,1.4-2.074,2.822-3.139,4.21a1.15,1.15,0,0,0,.284,1.888c.786.557,1.705.963,2.208-.141.714-1.565,1.77-3.054,1.693-4.894" transform="translate(0 -18.132)" fill="#333"/>
    <path id="Trazado_720510" data-name="Trazado 720510" d="M78.9,40.317c1.782-1.187,3.567-2.369,5.344-3.564,2.3-1.545,2.3-3.848-.006-5.381A23.167,23.167,0,0,0,81.9,30.034c-2.938-1.494-3.306-3.491-1.594-6.279,2.684-4.372,5.277-8.807,7.689-13.333,1.67-3.131,3.735-3.565,6.559-1.71.536.352,1.1.669,1.66.974,3.111,1.684,4.99.546,5.075-3.069.155-6.571.155-6.571,6.773-6.572,4.369,0,8.742.115,13.106-.037,3.393-.118,5.088,1.109,4.879,4.679-.158,2.69-.085,5.394-.114,8.091-3.684,2.1-6.265,1.393-5.956-1.981.423-4.618-1.787-5.01-5.3-4.59a18.251,18.251,0,0,1-4.219,0c-2.293-.265-3.329.439-3.016,2.911.227,1.786.2,3.644-1.687,4.745s-3.769,2.157-5.637,3.264a2.678,2.678,0,0,1-3.241.008c-3.578-2.972-5.473-1.269-6.917,2.267a16.725,16.725,0,0,1-2.08,3.663c-1.306,1.742-1.124,2.9.945,3.758,2.159.9,3.666,2.33,3.461,4.926-.049,1.658-.168,3.319-.124,4.975.039,1.526-.2,2.97-1.735,3.525-4.256,1.541-3.637,3.885-1.425,6.789a34.849,34.849,0,0,1,2.722,4.639c.617,1.144,1.52,1.539,2.476.7,4.9-4.3,8.119.632,11.919,2.158a2.371,2.371,0,0,1,1.317,2.605c-.962,4.842,1.9,5.094,5.452,4.741a25.018,25.018,0,0,1,4.616,0c1.9.165,2.311-.636,2.378-2.426.23-6.2,7.107-10.288,12.528-7.4,1.825.971,2.777.763,3.58-1.028.468-1.044,1.016-2.052,1.528-3.077.7-1.071,1.316-2.2,2.1-3.2,1.345-1.712.6-2.5-1.013-3.486-5.112-3.117-5-11.314.2-14.587,1.5-.945,1.953-1.6.911-3.23-2.346-3.657-4.511-7.432-6.749-11.158-.194-1.815-.537-3.755,1.77-4.512,2.359-.774,3.488.759,4.508,2.567,2.523,4.474,5.026,8.965,7.728,13.331,1.865,3.015,1.182,4.94-1.841,6.53-1.3.681-3.087.986-3.575,2.652-.647,2.213.531,3.413,2.465,4.482,5.088,2.813,5.113,3.214,2.177,8.308-2.308,4.006-4.737,7.948-6.893,12.034-1.664,3.155-3.717,3.48-6.586,1.714-1.269-.782-2.466-2.224-4.068-1.851-2.4.56-2.754,2.435-2.691,4.743.147,5.378-.337,5.753-5.612,5.762-4.76.008-9.524-.116-14.279.04-3.462.114-5.062-1.248-4.8-4.758.094-1.277.4-2.795-.135-3.806-1.087-2.049-2.739-2.449-5.029-1.115-5.7,3.322-5.957,3.273-9.056-2.526-2.761-5.167-6.719-9.725-8.1-15.609l-.057.049" transform="translate(-17.907 0)" fill="#363634"/>
    <path id="Trazado_720511" data-name="Trazado 720511" d="M182.3,231.778c1.941.526,3.4,1.59,2.927,3.8-.514,2.4-2.513,2.516-4.56,2.515q-44.393-.034-88.786-.015H6.574c-.772,0-1.546-.037-2.316.006-1.975.111-3.727-.342-4.172-2.508-.453-2.208.984-3.274,2.931-3.794,1.54.039,3.08.111,4.62.111q85.023.009,170.047,0c1.541,0,3.081-.072,4.62-.111" transform="translate(0 -52.603)" fill="#323232"/>
    <path id="Trazado_720512" data-name="Trazado 720512" d="M60.792,46.749a15.78,15.78,0,0,1,.582,3.788,4.181,4.181,0,0,0,2.893,4.738c3.37,1.419,3.9,3.664,1.866,6.74a79.45,79.45,0,0,0-4.447,7.661c-1.57,3.076-3.469,3.646-6.5,1.813-4.456-2.692-6.068-1.719-6.032,3.571.022,3.26-1.217,4.768-4.555,4.637-3.211-.126-6.435-.107-9.648,0-3.1.1-4.4-1.235-4.433-4.361-.058-5.772-1.283-6.454-6.468-3.6-2.55,1.4-4.319,1.065-5.741-1.488q-2.531-4.544-5.2-9.008c-1.536-2.564-.739-4.211,1.7-5.679,4.895-2.948,4.947-4.542.213-7.277-2.83-1.636-3.475-3.442-1.65-6.255a88.689,88.689,0,0,0,4.616-8.01c1.574-3.085,3.477-3.629,6.505-1.8,4.463,2.69,6.066,1.722,6.027-3.578-.023-3.267,1.222-4.763,4.557-4.631,3.212.128,6.435.107,9.648.005,3.1-.1,4.4,1.237,4.432,4.362.052,5.659,1.414,6.456,6.154,3.806,1.788-1,3.544-1.9,5.177.022,1.485,1.749.567,3.34-.685,4.8a5.508,5.508,0,0,0-1.391.6c-4,3.271-8.026,4.113-12.168.251a2.009,2.009,0,0,0-.689-.329,3.587,3.587,0,0,1-2.607-4.155c.336-2.485-.563-3.24-3.107-3.238s-3.472.747-3.107,3.235a3.1,3.1,0,0,1-1.282,3.4c-3.938,2.1-7.661,5.879-12.6,2.114-3.378,4.019-3.378,4.019.207,6.879,2.558,2.041,2.09,11.029-.873,12.628-2.269,1.225-2.3,2.225-1.133,4.373,1.3,2.386,2.488,2.444,4.417.977,1.656-1.259,3.262-1.021,4.916.259a19.778,19.778,0,0,0,3.991,2.3,3.566,3.566,0,0,1,2.352,3.974c-.289,2.408.429,3.346,3.082,3.314,2.537-.029,3.484-.741,3.141-3.256a3.519,3.519,0,0,1,1.95-3.845c1.8-.977,3.563-2.027,5.317-3.086a2.688,2.688,0,0,1,3.251-.036c3.819,3.057,4.927.257,6-2.692l.026-.107c.524-.558.362-.846-.36-.915-3.273-1.523-4.75-3.934-3.891-7.6a7.711,7.711,0,0,0-.077-2.277c-.111-1.414-.275-2.877,1.15-3.767,1.669-1.043,3.147-.467,4.478.753" transform="translate(-2.795 -5.446)" fill="#363634"/>
    <path id="Trazado_720513" data-name="Trazado 720513" d="M206.611,17.124c.5-2.231,1.9-3.19,4.167-3.091,1.925.084,3.863-.077,5.782.055a9.057,9.057,0,0,1,8.643,8.738c.188,6.422.173,12.857.015,19.28-.127,5.154-4.068,9.5-9.162,8.865-8.919-1.112-15.912,2.227-22.52,7.485a52.6,52.6,0,0,1-6.415,4.254c-2.73,1.583-4.787.472-5.1-2.639a19.921,19.921,0,0,1-.017-3.083c.192-3.449.348-6.633-3.438-8.786-2.119-1.2-2.75-3.919-2.747-6.49.005-6.042-.074-12.085.018-18.126.086-5.621,3.859-9.385,9.461-9.519,3.725-.09,7.457.04,11.183-.039,2.27-.049,3.669.865,4.168,3.1-.516,2.43-2.111,3.2-4.461,3.135-2.661-.076-5.328.056-7.992.1-5.745-.268-6.192.152-6.2,5.853,0,4.87.031,9.74-.015,14.61-.019,2.011.533,3.715,2.688,4.024,3.047.436,3.654,2.319,3.518,4.92-.071,1.366-.012,2.74-.012,4.094,1.47.221,2.225-.625,2.955-1.227,6.957-5.735,14.57-9.22,23.9-7.732,2.625.419,4.089-1.109,4.038-3.852-.023-1.279-.078-2.558-.118-3.837.04-4.238.027-8.477.14-12.713.085-3.17-1.453-4.437-4.49-4.273-1.281.07-2.572-.043-3.854.022a3.594,3.594,0,0,1-4.145-3.119" transform="translate(-39.898 -3.183)" fill="#333"/>
    <path id="Trazado_720514" data-name="Trazado 720514" d="M34.551,170.81c-.453-2.533-2.124-3.266-4.487-3.184-2.443.086-4.892.07-7.336.005-4.378-.115-6.753-2.347-6.773-6.667q-.1-21.047,0-42.1c.026-5.208,2.659-7.018,9.3-6.735-.019,5.645-.291,11.3,0,16.931a30.739,30.739,0,0,0,10.656,21.852c1.194,1.078,1.892,1.47,2.676-.511.938-2.369,2.3-4.6,5.185-5.13-4.3,6.485-2.967,13.815-3.135,20.919-.036,1.541-.063,3.082-.094,4.623l-6-.009" transform="translate(-3.609 -25.443)" fill="#929899"/>
    <path id="Trazado_720515" data-name="Trazado 720515" d="M202.5,130.693q.014,5.195.029,10.39a7.606,7.606,0,0,1-1.967,4.911c-1.731,2.041-2.915-.479-4.221-1.02-2.783-1.151-5.7-1-9.393-1.282,4.224-4.1,7.669-7.939,8.908-13.274a31.717,31.717,0,0,0,.405-8.395c-.056-1.73-1.332-2.679-3.059-2.912l-.056-3.037q.023-1.524.046-3.047c2.042-.375,3.421-1.487,3.02-3.669-.4-2.151-2.144-2.628-4.133-2.573a29.342,29.342,0,0,1-21.033-7.956c-2.412-2.166-4.389-1.555-5.513,1.051a10.69,10.69,0,0,1-9.668,7,2.733,2.733,0,0,0-2.676,2.822c.381,7.773-1.337,15.636,1.279,23.327,1.431,4.206,4.614,6.988,7.815,10.615-4.489.189-8.507.433-11.939,2.957-.861.634-1.487-.567-1.972-1.332a9.887,9.887,0,0,1-1.466-6.259c.181-2.335-.577-4.054-3.166-4.442v-6.1c2.583-.388,3.13-2.11,3.212-4.436.162-4.593-.547-9.2.648-13.785,2.911-11.175,9.762-18.319,21-21.167,2.569,7.758,11.964,14.4,20.68,14.627,6.027.155,10.079,4.208,10.155,10.2.036,2.823-.176,5.663.058,8.466.249,2.991.209,6.2,3,8.318" transform="translate(-32.623 -20.217)" fill="#464a51"/>
    <path id="Trazado_720516" data-name="Trazado 720516" d="M135.364,14.067c2.239,3.727,4.4,7.5,6.749,11.159,1.042,1.624.592,2.284-.911,3.23-5.2,3.273-5.312,11.47-.2,14.587,1.613.983,2.359,1.774,1.013,3.485-.786,1-1.408,2.13-2.1,3.2-.751.133-1.506.245-2.252.4-5.138,1.078-10.278,2.038-15.482.375.913-.7,1.8-1.433,2.744-2.086,7.046-4.869,8.674-14.095,3.759-21.391a15.258,15.258,0,0,0-21.055-4.116c-6.249,4.023-7.4,10.051-6.977,16.79-2.769-1.3-3.691-4.392-5.968-6.171.2-2.6-1.3-4.027-3.461-4.925-2.069-.861-2.251-2.015-.945-3.759a16.679,16.679,0,0,0,2.081-3.663c1.444-3.536,3.339-5.238,6.917-2.267a2.679,2.679,0,0,0,3.241-.008c1.868-1.107,3.761-2.171,5.637-3.264s1.913-2.959,1.687-4.746c-.313-2.472.724-3.176,3.016-2.911a18.209,18.209,0,0,0,4.219,0c3.51-.421,5.721-.029,5.3,4.59-.309,3.374,2.27,4.085,5.955,1.981,2.514,2.223,4.783.966,7.037-.495" transform="translate(-20.301 -1.785)" fill="#fce701"/>
    <path id="Trazado_720517" data-name="Trazado 720517" d="M183.189,230.029c-1.54.039-3.08.111-4.62.111q-85.024.009-170.047,0c-1.541,0-3.081-.072-4.62-.111q0-2.974,0-5.948l17.042-.01c.95,3.388,3.74,2.974,6.268,2.975q77.963.035,155.928.042.026,1.47.052,2.941" transform="translate(-0.885 -50.854)" fill="#cfd7d9"/>
    <path id="Trazado_720518" data-name="Trazado 720518" d="M191.826,21.266c2.665-.042,5.332-.173,7.993-.1,2.35.067,3.946-.706,4.461-3.135h5.956a3.6,3.6,0,0,0,4.145,3.12c1.282-.065,2.573.047,3.854-.022,3.037-.165,4.574,1.1,4.489,4.273-.113,4.236-.1,8.475-.14,12.713-6.166.007-12.333.07-18.5,0-5.1-.056-8.757-2.572-11.09-7.025-1.627-3.106-1.167-6.505-1.17-9.828" transform="translate(-43.523 -4.093)" fill="#ace7f3"/>
    <path id="Trazado_720519" data-name="Trazado 720519" d="M188.141,227.055q-77.963-.016-155.927-.042c-2.529,0-5.319.413-6.268-2.975,14-.035,28-.1,42-.1q58-.021,116,0c1.41,0,2.821.075,4.231.114q-.016,1.5-.033,3" transform="translate(-5.889 -50.822)" fill="#e7eff0"/>
    <path id="Trazado_720520" data-name="Trazado 720520" d="M25.933,40.675c4.94,3.766,8.663-.013,12.6-2.114a3.1,3.1,0,0,0,1.283-3.4c-.365-2.488.568-3.233,3.107-3.234s3.443.753,3.106,3.238a3.588,3.588,0,0,0,2.607,4.155,2.022,2.022,0,0,1,.689.328c4.143,3.861,8.167,3.02,12.168-.251a5.479,5.479,0,0,1,1.391-.6c1.217,2.973,4.148,5.165,3.994,8.764l.057-.048c-1.251-.344-1.982.846-3.052,1.034-1.331-1.22-2.809-1.8-4.478-.753-1.425.89-1.26,2.354-1.15,3.767a7.738,7.738,0,0,1,.077,2.277c-.86,3.67.618,6.082,3.891,7.605q.18.457.36.915l-.029.1c-3.456-.411-6.99,1.725-10.393-.329a29.244,29.244,0,0,0,1.822-2.924c3.1-6.507.359-14.2-5.955-16.863a12.128,12.128,0,0,0-16.7,7.43c-3.838-1.825-4.293-5.654-5.391-9.1" transform="translate(-5.886 -7.246)" fill="#fce701"/>
    <path id="Trazado_720521" data-name="Trazado 720521" d="M46.483,145.285c-2.886.533-4.248,2.761-5.185,5.129-.784,1.982-1.482,1.589-2.677.512a30.743,30.743,0,0,1-10.656-21.852c-.293-5.629-.02-11.286,0-16.931l23.132,0c.748,2.991,3.171,2.965,5.494,2.972,10.672.028,21.345-.007,32.016.022,5.114.013,7.246,2.15,7.27,7.253.033,6.687-.016,13.374.023,20.06.013,2.224.152,4.47,2.969,5.108q0,5.384,0,10.769h-24.5c-.476-10.622-4.148-16.116-12.116-18.067-6.271-1.535-11.228,1.105-15.766,5.03M59.195,124.39c-4.882,0-9.764.028-14.645-.012-2.328-.019-4.3.586-4.182,3.285.1,2.44,2.018,2.934,4.166,2.926q14.26-.049,28.521,0c2.328.007,4.3-.594,4.183-3.288-.1-2.44-2.018-2.945-4.167-2.924-4.624.047-9.249.015-13.875.015" transform="translate(-6.316 -25.45)" fill="#cfd7d9"/>
    <path id="Trazado_720522" data-name="Trazado 720522" d="M198.6,121.49l.056,3.036c-3.115.574-3.046,2.917-3.039,5.317.018,5.568-1.729,10.288-6.705,13.371-8.164.413-14.481-2.8-18.758-9.771-3.484-5.682-3.1-10.984.925-16.5a5.875,5.875,0,0,0,.551-1.789l2.262-2.219a5.275,5.275,0,0,1,1.757.663c6.524,5.934,14.319,8.119,22.951,7.9M177.111,124.6c-.2-1.593-1-2.868-2.771-3.036a2.836,2.836,0,0,0-3.35,2.853,2.787,2.787,0,0,0,2.673,3.149c1.967.218,3.038-.967,3.448-2.966m12.369-.116c-.259-1.52-1.066-2.8-2.839-2.928a2.839,2.839,0,0,0-3.29,2.924,2.789,2.789,0,0,0,2.736,3.1c1.964.175,3.023-1.025,3.394-3.091" transform="translate(-38.079 -25.631)" fill="#fce701"/>
    <path id="Trazado_720523" data-name="Trazado 720523" d="M209.8,130.446c-2.794-2.119-2.754-5.327-3-8.318-.234-2.8-.022-5.643-.058-8.466-.077-5.993-4.129-10.046-10.155-10.2-8.716-.223-18.112-6.868-20.681-14.627,14.12-3.934,30.405,6.386,33.195,20.941,1.316,6.87.494,13.781.7,20.671" transform="translate(-39.922 -19.97)" fill="#646a75"/>
    <path id="Trazado_720524" data-name="Trazado 720524" d="M74.317,185.543c.75,3.479-.162,5.145-4.191,4.735a88.515,88.515,0,0,0-11.573-.049c-1.889.056-2.745-.329-2.708-2.5.13-7.463-.069-14.931.1-22.392.094-4.04,2-7.093,6.126-8.35,0,4.225-.028,8.45,0,12.675.053,7.167,7.074,15.354,12.239,15.878" transform="translate(-12.674 -35.63)" fill="#cfd7d9"/>
    <path id="Trazado_720525" data-name="Trazado 720525" d="M76.142,185.373c-5.165-.524-12.186-8.711-12.239-15.878-.032-4.225,0-8.449,0-12.675,6.247-2.1,12.124,1.717,12.3,8.279.179,6.753-.022,13.516-.056,20.275" transform="translate(-14.5 -35.46)" fill="#e7eff0"/>
    <path id="Trazado_720526" data-name="Trazado 720526" d="M105.7,147.526c-2.817-.638-2.956-2.883-2.969-5.107-.039-6.686.009-13.373-.023-20.059-.026-5.1-2.157-7.24-7.27-7.254-10.672-.029-21.345.007-32.017-.022-2.322-.005-4.746.019-5.493-2.971,13.775-.035,27.55-.116,41.325-.076,4.072.012,6.5,2.445,6.521,6.524.06,9.655-.038,19.31-.072,28.965" transform="translate(-13.147 -25.425)" fill="#e7eff0"/>
    <path id="Trazado_720527" data-name="Trazado 720527" d="M87.98,171.879h24.5c.318,7.516-1.436,9.328-9.037,9.331-4.242,0-8.488-.1-12.727.039-2.148.068-3.054-.588-2.873-2.82.176-2.173.1-4.366.137-6.55" transform="translate(-19.931 -39.009)" fill="#929899"/>
    <path id="Trazado_720528" data-name="Trazado 720528" d="M167.784,185.989c1.672,1.289,3.418,2.063,5.46.786.117,1.911,1.63,2.883,2.877,3.878a36.49,36.49,0,0,0,11,5.964c-2.524.359-5.187-.253-7.579,1.01-3.446,1.819-5.754,4.6-5.437,8.586.245,3.079-1.356,2.826-3.42,2.973-2.584.184-2.941-1.017-2.9-3.19.112-6.686.055-13.374.063-20.062l-.064.056" transform="translate(-38.079 -42.198)" fill="#0095c5"/>
    <path id="Trazado_720529" data-name="Trazado 720529" d="M87.392,211.011c.464,2.112.148,3.193-2.548,3.173-16.664-.127-33.33-.051-50-.09-1.2,0-2.987.761-2.958-1.718.025-2.1.347-3.953,2.779-4.328a26.777,26.777,0,0,1,4.212-.009c.824,3.185,3.42,2.982,5.836,2.984q21.337.022,42.674-.012" transform="translate(-7.238 -47.195)" fill="#cfd7d9"/>
    <path id="Trazado_720530" data-name="Trazado 720530" d="M170.638,115.8a5.864,5.864,0,0,1-.551,1.788c-4.024,5.52-4.409,10.823-.925,16.5,4.277,6.974,10.594,10.183,18.758,9.771-4.764,3.669-9.939,3.9-15.225,1.488-5.345-2.444-8.245-6.817-8.887-12.627-.2-1.782.2-3.646-.121-5.394-1.081-5.962.752-10.026,6.951-11.53" transform="translate(-37.083 -26.282)" fill="#fbcd01"/>
    <path id="Trazado_720531" data-name="Trazado 720531" d="M188.729,195.7a36.507,36.507,0,0,1-11-5.964c-1.247-.995-2.761-1.967-2.877-3.878.39-.324.758-.68,1.173-.969,5.621-3.924,5.683-4.01,11.348-.094,2.355,1.628,4.447,2.457,6.817.278l-.066-.057c.011,1.916.029,3.833.029,5.75,0,5.249,0,5.249-5.421,4.933" transform="translate(-39.683 -41.284)" fill="#01b1d4"/>
    <path id="Trazado_720532" data-name="Trazado 720532" d="M142.551,206.234c2.571-.189,4.075-1.412,3.882-4.15-.229-3.268,2.223-1.9,3.7-2.141,1.643-.269,2.8.175,2.5,2.2a4.605,4.605,0,0,0,0,.766c.2,9.382.2,9.382-9.161,9.382q-5.756,0-11.511,0c-2.127,0-3.824-.532-3.9-3.1,2.658,0,5.318-.061,7.972.032,2.711.1,5.009-.547,6.524-2.985" transform="translate(-29.063 -45.359)" fill="#fbcd01"/>
    <path id="Trazado_720533" data-name="Trazado 720533" d="M89.445,211.009q-21.337.012-42.674.012c-2.417,0-5.012.2-5.836-2.984q22.286-.046,44.571-.1c2.124-.005,3.827.5,3.939,3.067" transform="translate(-9.29 -47.194)" fill="#e7eff0"/>
    <path id="Trazado_720534" data-name="Trazado 720534" d="M199.844,182.09c.7-4.229,2.937-7.9,4.324-11.872.707-2.025,2.027-1.623,3.344-.8a9.127,9.127,0,0,1,4.621,7.568c.1,1.923-.227,3.9.089,5.773.648,3.857-1.421,4.226-4.4,3.959-1.262-.114-1.667-.507-1.88-1.79-.806-4.862-2.1-5.421-6.165-2.893l.066.057" transform="translate(-45.341 -38.297)" fill="#01b1d4"/>
    <path id="Trazado_720535" data-name="Trazado 720535" d="M163.023,180.883c-3.206-.84-5.076.249-4.988,3.706.073,2.892-1.988,1.955-3.459,2.124-1.82.209-2.916-.264-2.776-2.451.155-2.423-.03-4.867.071-7.3a9.155,9.155,0,0,1,3.7-6.877c2.226-1.816,3.8-1.713,4.774,1.3.983,3.032,2.162,6,3.255,9q-.293.245-.575.5" transform="translate(-34.449 -38.33)" fill="#0095c5"/>
    <path id="Trazado_720536" data-name="Trazado 720536" d="M208.463,208.4c.3,2.924-1.325,3.9-3.929,3.9q-8.291,0-16.583,0c-2.138,0-3.847-.515-3.929-3.1,2.657,0,5.317-.062,7.971.032,2.711.1,5.008-.547,6.524-2.985,2.5-.192,4.1-1.344,3.865-4.052-.238-2.73,1.45-2.359,3.127-2.133-.1,3.165-.328,6.375,2.954,8.343" transform="translate(-41.765 -45.37)" fill="#fbcd01"/>
    <path id="Trazado_720537" data-name="Trazado 720537" d="M200.4,121.1c-8.632.223-16.426-1.962-22.951-7.9a5.268,5.268,0,0,0-1.757-.663c.642-1.746,1.589-1.562,2.917-.634,6.555,4.577,13.928,6.332,21.836,6.145q-.023,1.524-.046,3.047" transform="translate(-39.874 -25.241)" fill="#fbcd01"/>
    <path id="Trazado_720538" data-name="Trazado 720538" d="M142.551,208.07c-1.516,2.437-3.813,3.081-6.524,2.985-2.654-.094-5.314-.028-7.972-.032.078-2.543,1.759-3.093,3.861-3.076,3.545.029,7.09.081,10.635.124" transform="translate(-29.063 -47.194)" fill="#fce701"/>
    <path id="Trazado_720539" data-name="Trazado 720539" d="M198.517,208.071c-1.516,2.437-3.813,3.081-6.523,2.985-2.655-.094-5.314-.028-7.971-.032.148-2.482,1.806-3.084,3.9-3.073,3.533.019,7.065.078,10.6.121" transform="translate(-41.765 -47.195)" fill="#fce701"/>
    <path id="Trazado_720540" data-name="Trazado 720540" d="M113.949,214.11c-.54-.022-2.423.6-2.148-2.252.212-2.208.884-3.882,3.3-3.789,2.178.083,2.771,1.709,2.973,3.738.275,2.757-1.476,2.367-4.123,2.3" transform="translate(-25.368 -47.222)" fill="#e7eff0"/>
    <path id="Trazado_720541" data-name="Trazado 720541" d="M177.005,162.838c3.487,1.3,6.452.6,9.5.946-4.042,5.6-4.205,5.595-9.5-.946" transform="translate(-40.172 -36.957)" fill="#fbb601"/>
    <path id="Trazado_720542" data-name="Trazado 720542" d="M214.757,208.4c-3.282-1.968-3.053-5.179-2.954-8.343,2.136-.458,3.449-.077,3.12,2.593-.233,1.895-.123,3.832-.166,5.751" transform="translate(-48.06 -45.367)" fill="#fce701"/>
    <path id="Trazado_720543" data-name="Trazado 720543" d="M171.5,168.04c1.085,1.474,2.121,2.987,3.272,4.408.717.885.721,1.531-.233,2.175-1.084.73-1.868.56-2.356-.7-.619-1.6-1.257-3.194-1.886-4.791l1.2-1.09" transform="translate(-38.65 -38.138)" fill="#0095c5"/>
    <path id="Trazado_720544" data-name="Trazado 720544" d="M195.429,169.612c.077,1.84-.979,3.329-1.693,4.894-.5,1.1-1.422.7-2.208.141a1.15,1.15,0,0,1-.284-1.888c1.065-1.388,2.095-2.805,3.139-4.21l1.046,1.063" transform="translate(-43.32 -38.253)" fill="#0095c5"/>
    <path id="Trazado_720545" data-name="Trazado 720545" d="M166.9,183.755a1.824,1.824,0,0,1,.557,1.739l.064-.056c-.4-.4-.795-.792-1.194-1.185.186-.169.377-.335.573-.5" transform="translate(-37.748 -41.704)" fill="#0095c5"/>
    <path id="Trazado_720546" data-name="Trazado 720546" d="M122.246,58.042c5.2,1.663,10.343.7,15.482-.375.746-.157,1.5-.269,2.252-.4-.512,1.025-1.06,2.033-1.528,3.077-.8,1.79-1.754,2-3.58,1.028-5.421-2.883-12.3,1.205-12.527,7.4-.066,1.79-.481,2.59-2.378,2.426a25.018,25.018,0,0,0-4.616,0c-3.554.353-6.414.1-5.452-4.741a2.369,2.369,0,0,0-1.316-2.605c-3.8-1.527-7.019-6.461-11.919-2.159-.956.84-1.859.444-2.477-.7a34.717,34.717,0,0,0-2.722-4.639c-2.212-2.9-2.83-5.248,1.425-6.79,1.531-.554,1.774-2,1.734-3.524-.043-1.657.077-3.317.125-4.976,2.277,1.779,3.2,4.869,5.967,6.171,4.875,11.6,13.572,13.02,21.53,10.8" transform="translate(-20.368 -9.32)" fill="#fbcd01"/>
    <path id="Trazado_720547" data-name="Trazado 720547" d="M25.181,43.244c1.1,3.449,1.553,7.277,5.392,9.1a14.15,14.15,0,0,0-.738,2.556,12.3,12.3,0,0,0,6.378,12.208C41.8,69.9,46.865,68.795,51.41,64.7c3.4,2.055,6.937-.082,10.393.329-1.075,2.951-2.183,5.75-6,2.694a2.686,2.686,0,0,0-3.251.035c-1.754,1.06-3.517,2.11-5.317,3.086a3.519,3.519,0,0,0-1.95,3.845c.343,2.516-.6,3.227-3.14,3.257-2.654.031-3.371-.906-3.082-3.315a3.567,3.567,0,0,0-2.352-3.974,19.775,19.775,0,0,1-3.991-2.3c-1.654-1.281-3.26-1.519-4.916-.26-1.929,1.467-3.115,1.409-4.417-.976-1.172-2.148-1.136-3.149,1.133-4.373,2.963-1.6,3.431-10.588.872-12.628-3.585-2.859-3.585-2.859-.206-6.879" transform="translate(-5.134 -9.814)" fill="#fbcd01"/>
    <path id="Trazado_720548" data-name="Trazado 720548" d="M73.237,71.026l-.36-.915c.722.068.884.357.36.915" transform="translate(-16.54 -15.912)" fill="#fbcd01"/>
    <path id="Trazado_720549" data-name="Trazado 720549" d="M190.019,22.2c0,3.323-.458,6.722,1.17,9.828,2.333,4.454,5.993,6.969,11.09,7.025,6.165.067,12.332,0,18.5,0,.04,1.279.1,2.558.118,3.837.05,2.744-1.414,4.271-4.038,3.853-9.331-1.488-16.944,2-23.9,7.731-.73.6-1.485,1.448-2.955,1.228,0-1.355-.059-2.728.013-4.095.136-2.6-.472-4.483-3.519-4.92-2.155-.308-2.706-2.012-2.687-4.024.045-4.869.009-9.74.014-14.61.005-5.7.453-6.12,6.2-5.853" transform="translate(-41.716 -5.024)" fill="#48c8e2"/>
    <path id="Trazado_720550" data-name="Trazado 720550" d="M125.444,54.181c-7.958,2.216-16.655.8-21.529-10.8-.426-6.739.727-12.767,6.977-16.789A15.257,15.257,0,0,1,131.947,30.7c4.916,7.3,3.288,16.523-3.759,21.391-.944.652-1.831,1.388-2.744,2.086m-6.133-27.036A12.36,12.36,0,1,0,131.674,39.7a12.386,12.386,0,0,0-12.363-12.553" transform="translate(-23.566 -5.459)" fill="#fbb601"/>
    <path id="Trazado_720551" data-name="Trazado 720551" d="M53.511,64.874c-4.546,4.09-9.61,5.2-15.2,2.406a12.3,12.3,0,0,1-6.378-12.208,14.187,14.187,0,0,1,.738-2.556,12.126,12.126,0,0,1,16.7-7.43c6.315,2.666,9.051,10.355,5.956,16.862a29.344,29.344,0,0,1-1.822,2.924m-9.064.791a9.272,9.272,0,1,0-9.453-9.178,9.411,9.411,0,0,0,9.453,9.178" transform="translate(-7.234 -9.984)" fill="#fbb601"/>
    <path id="Trazado_720552" data-name="Trazado 720552" d="M62.874,127.982c4.625,0,9.25.032,13.875-.015,2.15-.022,4.065.484,4.167,2.923.113,2.695-1.855,3.3-4.183,3.289q-14.26-.044-28.521,0c-2.148.008-4.062-.485-4.166-2.926-.114-2.7,1.855-3.3,4.182-3.285,4.881.04,9.764.012,14.645.012" transform="translate(-9.996 -29.043)" fill="#333"/>
    <path id="Trazado_720553" data-name="Trazado 720553" d="M178.05,127.132c-.41,2-1.481,3.184-3.448,2.967a2.788,2.788,0,0,1-2.674-3.15,2.837,2.837,0,0,1,3.351-2.853c1.766.168,2.572,1.443,2.771,3.036" transform="translate(-39.017 -28.16)" fill="#363634"/>
    <path id="Trazado_720554" data-name="Trazado 720554" d="M194.049,127.017c-.371,2.066-1.43,3.266-3.394,3.091a2.789,2.789,0,0,1-2.736-3.1,2.839,2.839,0,0,1,3.29-2.924c1.773.126,2.58,1.408,2.839,2.928" transform="translate(-42.648 -28.16)" fill="#363634"/>
    <path id="Trazado_720555" data-name="Trazado 720555" d="M120.227,28.051a12.36,12.36,0,1,1-12.355,12.168,12.4,12.4,0,0,1,12.355-12.168m6.184,12.431a6.181,6.181,0,1,0-6.157,6.107,6.221,6.221,0,0,0,6.157-6.107" transform="translate(-24.482 -6.366)" fill="#363634"/>
    <path id="Trazado_720556" data-name="Trazado 720556" d="M45.362,66.584a9.272,9.272,0,1,1,9.083-9.555,9.369,9.369,0,0,1-9.083,9.555m2.926-9.238c-.239-1.893-1.233-3.132-3.23-3.072A2.793,2.793,0,0,0,42.15,57.24a2.84,2.84,0,0,0,3.156,3.1c1.79-.037,2.72-1.224,2.982-3" transform="translate(-8.15 -10.904)" fill="#363634"/>
    <path id="Trazado_720557" data-name="Trazado 720557" d="M128.225,42.3a6.181,6.181,0,1,1-6.011-6.25,6.233,6.233,0,0,1,6.011,6.25" transform="translate(-26.296 -8.18)" fill="#e7eff0"/>
    <path id="Trazado_720558" data-name="Trazado 720558" d="M50.12,59.175c-.261,1.772-1.192,2.958-2.982,3a2.84,2.84,0,0,1-3.156-3.1A2.793,2.793,0,0,1,46.89,56.1c2-.06,2.991,1.179,3.23,3.072" transform="translate(-9.982 -12.732)" fill="#e7eff0"/>
  </g>
</svg>
