<svg id="Grupo_1018182" data-name="Grupo 1018182" xmlns="http://www.w3.org/2000/svg" xmlns:xlink="http://www.w3.org/1999/xlink" width="184.939" height="162.057" viewBox="0 0 184.939 162.057">
  <defs>
    <clipPath id="clip-path">
      <rect id="Rectángulo_350832" data-name="Rectángulo 350832" width="184.939" height="162.057" fill="none"/>
    </clipPath>
  </defs>
  <g id="Grupo_1018181" data-name="Grupo 1018181" clip-path="url(#clip-path)">
    <path id="Trazado_720559" data-name="Trazado 720559" d="M130.019,125.873c-3.737-1.051-2.83-4.073-2.506-6.54.393-2.989,2.478-4.667,5.5-4.726,5.653-.11,11.317-.237,16.96.013,3.013.133,3.692-.923,3.389-3.668-.531-4.816-3.859-8.241-8.79-8.267-15.641-.082-31.282-.007-46.923-.074-1.814-.008-2.666.382-2.435,2.356a15.47,15.47,0,0,1,0,3.962c-.56,3.893.228,6.338,4.974,5.9,2.124-.2,3.755,1.394,5.224,2.864,4.252,4.255,8.487,8.527,12.768,12.753a9.9,9.9,0,0,1,3.114,7.4c-.03,13.955.008,27.91-.025,41.866-.012,4.8-2.017,6.787-6.8,6.8q-22.017.039-44.036,0c-4.767-.009-6.77-2.017-6.777-6.821q-.04-29.053,0-58.107c.006-4.986,1.982-6.967,7.017-7.022,5.534-.061,11.07-.085,16.6.024,1.856.036,2.4-.484,2.464-2.4.309-9.542.372-9.541-8.952-9.54-13.235,0-26.47-.029-39.7.014-5.907.02-9.482,3.662-9.564,9.367-.025,1.773.314,2.709,2.341,2.542,3.5-.288,6.181,1.274,8.563,3.779,3.895,4.1,7.928,8.066,11.985,12a10.2,10.2,0,0,1,3.216,7.731c-.022,13.835.017,27.669-.022,41.5-.015,5.018-1.987,6.918-7.053,6.925q-21.838.029-43.674,0C2.01,186.5.023,184.564.017,179.8q-.033-29.234,0-58.467c.006-4.738,2-6.713,6.857-6.772,5.534-.067,11.071-.108,16.6.03,2.05.051,2.555-.564,2.618-2.593.282-9.116,5.982-14.657,15.118-14.811,8.412-.142,16.825-.164,25.238-.239,5.88.07,11.76.168,17.64.2,5.82.035,5.82.007,5.44-6.052.457-1.4.989-2.77,2.75-2.869,1.973-.109,2.608,1.329,3.106,2.869-.046,1.317-.045,2.639-.153,3.952-.123,1.491.348,2.163,1.989,2.132,7.08-.134,14.163-.167,21.245-.236,7.81.074,15.621.181,23.431.214,11.1.047,15.912,4.395,16.94,15.554.127,1.382.46,1.971,1.864,1.832,4.264-.423,7.249,1.744,10.01,4.694,3.533,3.775,7.264,7.366,10.956,10.988a10.167,10.167,0,0,1,3.27,7.691c-.067,13.954-.013,27.908-.038,41.861-.009,4.774-1.986,6.719-6.831,6.727q-22.015.036-44.031,0c-4.6-.009-6.688-1.985-6.706-6.535-.059-14.675-.007-29.351-.04-44.026,0-2.026.557-3.533,2.672-4.106,2.595.491,2.919,2.319,2.916,4.568-.015,12.815.05,25.631.088,38.446-.043.6-.128,1.2-.121,1.794.06,5.353-.529,4.537,4.631,4.552,12.874.037,25.749-.064,38.621.074,2.671.028,3.518-.649,3.484-3.394-.145-11.548-.061-23.1-.061-34.648,0-6.11,0-6.11-6.2-5.771-1.437-.038-2.872-.089-4.309-.109-4.953-.068-6.874-1.988-6.953-7.033-.04-2.518-.144-5.045.033-7.551.153-2.184-.525-2.874-2.781-2.831-7.551.142-15.108.087-22.661.033-2.221-.016-4.365-.41-3.9,3.1.212,1.6-1.153,2.506-2.734,2.8M5.649,174.838c-.653,6.38-.653,6.38,5.446,6.38,12.627,0,25.254-.073,37.88.061,2.568.027,3.192-.744,3.166-3.225-.126-11.663-.056-23.327-.056-34.991,0-5.933,0-5.933-5.869-5.6-1.562-.038-3.123-.088-4.685-.111-4.765-.071-6.761-2.042-6.814-6.806-.033-2.888-.056-5.777.015-8.662.033-1.323-.272-1.93-1.77-1.919q-12.815.09-25.63.006c-1.375-.007-1.9.4-1.895,1.831q.147,26.519.212,53.037m63.7.048C68.9,181.2,68.9,181.2,74.91,181.2c12.482,0,24.965-.077,37.445.061,2.636.029,3.483-.569,3.444-3.346-.164-11.638-.069-23.28-.069-34.921,0-5.847,0-5.847-5.957-5.524-1.319-.04-2.637-.107-3.956-.116-5.623-.038-7.433-1.879-7.457-7.634-.01-2.522-.106-5.05.032-7.565.1-1.77-.554-2.214-2.247-2.2-8.288.077-16.577.064-24.866.008-1.483-.01-2.127.3-2.117,1.967.1,17.651.134,35.3.186,52.954m-28.74-51.171c-1.041,8.817-.242,9.584,7.02,7.706-.429-.493-.8-.941-1.193-1.369-1.769-1.93-3.544-3.855-5.827-6.337m63.711.707c-1.174,7.905.033,9.08,7.447,6.707-2.286-2.067-4.319-3.909-6.355-5.749-.317-.285-.641-.562-1.093-.957m63.57,1.064c-1.8,6.036-.516,7.425,7.059,6.027l-7.059-6.027" transform="translate(0 -24.474)" fill="#080807"/>
    <path id="Trazado_720560" data-name="Trazado 720560" d="M130.019,125.873c-3.737-1.051-2.83-4.073-2.506-6.54.393-2.989,2.478-4.667,5.5-4.726,5.653-.11,11.317-.237,16.96.013,3.013.133,3.692-.923,3.389-3.668-.531-4.816-3.859-8.241-8.79-8.267-15.641-.082-31.282-.007-46.923-.074-1.814-.008-2.666.382-2.435,2.356a15.47,15.47,0,0,1,0,3.962c-.56,3.893.228,6.338,4.974,5.9,2.124-.2,3.755,1.394,5.224,2.864,4.252,4.255,8.487,8.527,12.768,12.753a9.9,9.9,0,0,1,3.114,7.4c-.03,13.955.008,27.91-.025,41.866-.012,4.8-2.017,6.787-6.8,6.8q-22.017.039-44.036,0c-4.767-.009-6.77-2.017-6.777-6.821q-.04-29.053,0-58.107c.006-4.986,1.982-6.967,7.017-7.022,5.534-.061,11.07-.085,16.6.024,1.856.036,2.4-.484,2.464-2.4.309-9.542.372-9.541-8.952-9.54-13.235,0-26.47-.029-39.7.014-5.907.02-9.482,3.662-9.564,9.367-.025,1.773.314,2.709,2.341,2.542,3.5-.288,6.181,1.274,8.563,3.779,3.895,4.1,7.928,8.066,11.985,12a10.2,10.2,0,0,1,3.216,7.731c-.022,13.835.017,27.669-.022,41.5-.015,5.018-1.987,6.918-7.053,6.925q-21.838.029-43.674,0C2.01,186.5.023,184.564.017,179.8q-.033-29.234,0-58.467c.006-4.738,2-6.713,6.857-6.772,5.534-.067,11.071-.108,16.6.03,2.05.051,2.555-.564,2.618-2.593.282-9.116,5.982-14.657,15.118-14.811,8.412-.142,16.825-.164,25.238-.239,5.88.07,11.76.168,17.64.2,5.82.035,5.82.007,5.44-6.052.457-1.4.989-2.77,2.75-2.869,1.973-.109,2.608,1.329,3.106,2.869-.046,1.317-.045,2.639-.153,3.952-.123,1.491.348,2.163,1.989,2.132,7.08-.134,14.163-.167,21.245-.236,7.81.074,15.621.181,23.431.214,11.1.047,15.912,4.395,16.94,15.554.127,1.382.46,1.971,1.864,1.832,4.264-.423,7.249,1.744,10.01,4.694,3.533,3.775,7.264,7.366,10.956,10.988a10.167,10.167,0,0,1,3.27,7.691c-.067,13.954-.013,27.908-.038,41.861-.009,4.774-1.986,6.719-6.831,6.727q-22.015.036-44.031,0c-4.6-.009-6.688-1.985-6.706-6.535-.059-14.675-.007-29.351-.04-44.026,0-2.026.557-3.533,2.672-4.106,2.595.491,2.919,2.319,2.916,4.568-.015,12.815.05,25.631.088,38.446-.043.6-.128,1.2-.121,1.794.06,5.353-.529,4.537,4.631,4.552,12.874.037,25.749-.064,38.621.074,2.671.028,3.518-.649,3.484-3.394-.145-11.548-.061-23.1-.061-34.648,0-6.11,0-6.11-6.2-5.771-1.437-.038-2.872-.089-4.309-.109-4.953-.068-6.874-1.988-6.953-7.033-.04-2.518-.144-5.045.033-7.551.153-2.184-.525-2.874-2.781-2.831-7.551.142-15.108.087-22.661.033-2.221-.016-4.365-.41-3.9,3.1.212,1.6-1.153,2.506-2.734,2.8M5.649,174.838c-.653,6.38-.653,6.38,5.446,6.38,12.627,0,25.254-.073,37.88.061,2.568.027,3.192-.744,3.166-3.225-.126-11.663-.056-23.327-.056-34.991,0-5.933,0-5.933-5.869-5.6-1.562-.038-3.123-.088-4.685-.111-4.765-.071-6.761-2.042-6.814-6.806-.033-2.888-.056-5.777.015-8.662.033-1.323-.272-1.93-1.77-1.919q-12.815.09-25.63.006c-1.375-.007-1.9.4-1.895,1.831q.147,26.519.212,53.037m63.7.048C68.9,181.2,68.9,181.2,74.91,181.2c12.482,0,24.965-.077,37.445.061,2.636.029,3.483-.569,3.444-3.346-.164-11.638-.069-23.28-.069-34.921,0-5.847,0-5.847-5.957-5.524-1.319-.04-2.637-.107-3.956-.116-5.623-.038-7.433-1.879-7.457-7.634-.01-2.522-.106-5.05.032-7.565.1-1.77-.554-2.214-2.247-2.2-8.288.077-16.577.064-24.866.008-1.483-.01-2.127.3-2.117,1.967.1,17.651.134,35.3.186,52.954m-28.74-51.171c-1.041,8.817-.242,9.584,7.02,7.706-.429-.493-.8-.941-1.193-1.369-1.769-1.93-3.544-3.855-5.827-6.337m63.711.707c-1.174,7.905.033,9.08,7.447,6.707-2.286-2.067-4.319-3.909-6.355-5.749-.317-.285-.641-.562-1.093-.957m63.57,1.064c-1.8,6.036-.516,7.425,7.059,6.027l-7.059-6.027" transform="translate(0 -24.474)" fill="#080807"/>
    <path id="Trazado_720561" data-name="Trazado 720561" d="M182.86,187.029c-.038-12.815-.1-25.63-.087-38.446,0-2.25-.322-4.078-2.916-4.568q.026-2.985.053-5.969c1.58-.29,2.947-1.192,2.734-2.8-.465-3.512,1.679-3.119,3.9-3.1,7.553.055,15.11.11,22.661-.033,2.255-.043,2.934.647,2.78,2.832-.176,2.505-.072,5.033-.032,7.55.079,5.046,2,6.965,6.952,7.034,1.437.02,2.873.072,4.31.108.012,10.442.041,20.883.027,31.324-.005,4.144-1.974,6.084-6.171,6.089q-17.1.02-34.209-.022m11.7-19.656a2.525,2.525,0,0,0-2.434,1.384,2.6,2.6,0,0,0,.58,3.273c2.6,2.651,5.285,5.226,7.858,7.9,1.819,1.893,3.44,1.74,5.209-.055,4.376-4.438,8.8-8.83,13.211-13.234,1.343-1.342,2.061-2.859.434-4.341-1.554-1.415-3.048-.728-4.382.639-2.344,2.4-4.746,4.746-7.12,7.118-4.75,4.745-4.729,4.727-9.45.086-1.161-1.14-2.059-2.738-3.907-2.774" transform="translate(-49.891 -36.647)" fill="#b6e97b"/>
    <path id="Trazado_720562" data-name="Trazado 720562" d="M182.86,187.029c-.038-12.815-.1-25.63-.087-38.446,0-2.25-.322-4.078-2.916-4.568q.026-2.985.053-5.969c1.58-.29,2.947-1.192,2.734-2.8-.465-3.512,1.679-3.119,3.9-3.1,7.553.055,15.11.11,22.661-.033,2.255-.043,2.934.647,2.78,2.832-.176,2.505-.072,5.033-.032,7.55.079,5.046,2,6.965,6.952,7.034,1.437.02,2.873.072,4.31.108.012,10.442.041,20.883.027,31.324-.005,4.144-1.974,6.084-6.171,6.089q-17.1.02-34.209-.022m11.7-19.656a2.525,2.525,0,0,0-2.434,1.384,2.6,2.6,0,0,0,.58,3.273c2.6,2.651,5.285,5.226,7.858,7.9,1.819,1.893,3.44,1.74,5.209-.055,4.376-4.438,8.8-8.83,13.211-13.234,1.343-1.342,2.061-2.859.434-4.341-1.554-1.415-3.048-.728-4.382.639-2.344,2.4-4.746,4.746-7.12,7.118-4.75,4.745-4.729,4.727-9.45.086-1.161-1.14-2.059-2.738-3.907-2.774" transform="translate(-49.891 -36.647)" fill="#b6e97b"/>
    <path id="Trazado_720563" data-name="Trazado 720563" d="M118.249.09C131.138-.9,139.9,6.38,141.879,19.151c.22,1.422.561,2.827.871,4.234,1.686,7.639-.869,12.521-8.279,15.346a18.315,18.315,0,0,0-5.477,3.238,16.949,16.949,0,0,1-22.144-.236,13.1,13.1,0,0,0-4.888-2.841,14.513,14.513,0,0,1-6.289-4.077c-2.6-2.757-4.275-5.683-2.832-9.72a70.8,70.8,0,0,0,1.851-7.7C97.464,5.589,104.344.116,116.444.09c.6,0,1.2,0,1.805,0m-1.718,40.247c4.343.793,7.8-.875,10.562-4.054,3.453-3.971,3.055-5.292-1.846-6.938a11.517,11.517,0,0,0-1.4-.289q-4.614-2.326-9.226-4.654c-.62-.314-1.138-.772-1.967-.484-5.984,2.087-7.548,8.108-3.271,12.763a10.706,10.706,0,0,0,7.147,3.656m-3.55-34.525c-6.4.506-10.348,4.162-12.251,10.025-1.069,3.293-1.408,6.819-2.4,10.141-.8,2.651-.025,4.309,2.927,6.059-1.509-3.938.952-5.62,2.911-7.556.94-.929,1.908-1.831,2.823-2.786.549-.573,1.418-1.146.532-2.085-1.341-1.421-1.805-3.026-.208-4.39,1.806-1.541,3.288-.119,4.77.959a54.5,54.5,0,0,0,18.971,9.228c3.408.585,4.745,2.754,4.3,6.6,1.849-1.585,3.238-2.671,2.731-4.842-.874-3.732-1.588-7.509-2.631-11.192a13.389,13.389,0,0,0-9.007-9.549,26.676,26.676,0,0,0-13.464-.617" transform="translate(-25.606 0)" fill="#060504"/>
    <path id="Trazado_720564" data-name="Trazado 720564" d="M118.249.09C131.138-.9,139.9,6.38,141.879,19.151c.22,1.422.561,2.827.871,4.234,1.686,7.639-.869,12.521-8.279,15.346a18.315,18.315,0,0,0-5.477,3.238,16.949,16.949,0,0,1-22.144-.236,13.1,13.1,0,0,0-4.888-2.841,14.513,14.513,0,0,1-6.289-4.077c-2.6-2.757-4.275-5.683-2.832-9.72a70.8,70.8,0,0,0,1.851-7.7C97.464,5.589,104.344.116,116.444.09c.6,0,1.2,0,1.805,0m-1.718,40.247c4.343.793,7.8-.875,10.562-4.054,3.453-3.971,3.055-5.292-1.846-6.938a11.517,11.517,0,0,0-1.4-.289q-4.614-2.326-9.226-4.654c-.62-.314-1.138-.772-1.967-.484-5.984,2.087-7.548,8.108-3.271,12.763a10.706,10.706,0,0,0,7.147,3.656m-3.55-34.525c-6.4.506-10.348,4.162-12.251,10.025-1.069,3.293-1.408,6.819-2.4,10.141-.8,2.651-.025,4.309,2.927,6.059-1.509-3.938.952-5.62,2.911-7.556.94-.929,1.908-1.831,2.823-2.786.549-.573,1.418-1.146.532-2.085-1.341-1.421-1.805-3.026-.208-4.39,1.806-1.541,3.288-.119,4.77.959a54.5,54.5,0,0,0,18.971,9.228c3.408.585,4.745,2.754,4.3,6.6,1.849-1.585,3.238-2.671,2.731-4.842-.874-3.732-1.588-7.509-2.631-11.192a13.389,13.389,0,0,0-9.007-9.549,26.676,26.676,0,0,0-13.464-.617" transform="translate(-25.606 0)" fill="#060504"/>
    <path id="Trazado_720565" data-name="Trazado 720565" d="M90.881,85.118C86.9,83.211,86.3,75.042,90.3,71.973c4.992-3.827,10.544-6.152,17.007-3.209a22.322,22.322,0,0,0,19.135-.074c6.489-2.911,12.02-.446,16.944,3.458,3.767,2.987,3.1,10.977-.637,12.989-2.1-.7-2.751-2.18-2.774-4.334-.061-5.66-.325-5.892-5.813-7.24a4.577,4.577,0,0,0-4.484-.284c-8.6,3.92-17.047,3.762-25.752.1-4.994-2.1-10.416,1.873-10.39,7.183.01,2.156-.654,3.68-2.522,4.7Z" transform="translate(-24.295 -18.7)" fill="#0a0907"/>
    <path id="Trazado_720566" data-name="Trazado 720566" d="M90.881,85.118C86.9,83.211,86.3,75.042,90.3,71.973c4.992-3.827,10.544-6.152,17.007-3.209a22.322,22.322,0,0,0,19.135-.074c6.489-2.911,12.02-.446,16.944,3.458,3.767,2.987,3.1,10.977-.637,12.989-2.1-.7-2.751-2.18-2.774-4.334-.061-5.66-.325-5.892-5.813-7.24a4.577,4.577,0,0,0-4.484-.284c-8.6,3.92-17.047,3.762-25.752.1-4.994-2.1-10.416,1.873-10.39,7.183.01,2.156-.654,3.68-2.522,4.7Z" transform="translate(-24.295 -18.7)" fill="#0a0907"/>
    <path id="Trazado_720567" data-name="Trazado 720567" d="M146.418,75.924c5.488,1.348,5.753,1.58,5.813,7.239.023,2.154.673,3.64,2.774,4.335q.007,3.02.012,6.039c-7.082.069-14.165.1-21.245.236-1.641.031-2.112-.641-1.989-2.132.108-1.312.107-2.634.154-3.952,1.918,0,3.836.037,5.753,0,6.183-.129,8.454-3.2,8.728-11.762" transform="translate(-36.551 -21.061)" fill="#fdde76"/>
    <path id="Trazado_720568" data-name="Trazado 720568" d="M146.418,75.924c5.488,1.348,5.753,1.58,5.813,7.239.023,2.154.673,3.64,2.774,4.335q.007,3.02.012,6.039c-7.082.069-14.165.1-21.245.236-1.641.031-2.112-.641-1.989-2.132.108-1.312.107-2.634.154-3.952,1.918,0,3.836.037,5.753,0,6.183-.129,8.454-3.2,8.728-11.762" transform="translate(-36.551 -21.061)" fill="#fdde76"/>
    <path id="Trazado_720569" data-name="Trazado 720569" d="M92.1,91.914l.133.135,22.811.075c.38,6.059.38,6.087-5.439,6.051-5.881-.035-11.76-.133-17.641-.2l.137-6.058" transform="translate(-25.509 -25.496)" fill="#fdde76"/>
    <path id="Trazado_720570" data-name="Trazado 720570" d="M92.1,91.914l.133.135,22.811.075c.38,6.059.38,6.087-5.439,6.051-5.881-.035-11.76-.133-17.641-.2l.137-6.058" transform="translate(-25.509 -25.496)" fill="#fdde76"/>
    <path id="Trazado_720571" data-name="Trazado 720571" d="M95.9,187.067c-.051-17.652-.084-35.3-.186-52.955-.009-1.663.635-1.976,2.118-1.966,8.288.056,16.577.069,24.865-.008,1.693-.016,2.345.427,2.248,2.2-.138,2.515-.043,5.042-.033,7.565.023,5.754,1.833,7.6,7.457,7.633,1.319.009,2.637.076,3.955.116.008,8.939.027,17.877.011,26.815,0,1.157.33,2.408-.61,3.41-2.033-.66-2.455-2.1-2.4-4.122.138-5.164.044-10.335.046-15.5,0-2.109.062-4.444-2.884-4.386-2.679.052-2.684,2.244-2.684,4.237,0,5.529-.108,11.06.046,16.585.071,2.546-1.45,2.249-3.023,2.222-1.515-.025-3.208.44-3.067-2.163.163-3,.059-6.008.023-9.012-.021-1.741-.664-3.148-2.636-3.213-2.183-.073-2.883,1.4-2.908,3.3a70.637,70.637,0,0,0,.038,7.566c.267,2.819-.652,3.623-3.528,3.627-3.4,0-2.415-2.147-2.514-3.857-.116-2,.385-4.471-2.477-4.815-2.619-.314-2.927,1.661-3.169,3.779-.194,1.7,1.28,3.848-1.229,5.094a2.386,2.386,0,0,0-1.3,3.3c.612,1.438,1.806,1.744,3.236,1.734q14.78-.116,29.56-.184c-.154,2.951-2.268,3.005-4.429,3q-17.266-.005-34.53-.005" transform="translate(-26.55 -36.654)" fill="#fcecaa"/>
    <path id="Trazado_720572" data-name="Trazado 720572" d="M95.9,187.067c-.051-17.652-.084-35.3-.186-52.955-.009-1.663.635-1.976,2.118-1.966,8.288.056,16.577.069,24.865-.008,1.693-.016,2.345.427,2.248,2.2-.138,2.515-.043,5.042-.033,7.565.023,5.754,1.833,7.6,7.457,7.633,1.319.009,2.637.076,3.955.116.008,8.939.027,17.877.011,26.815,0,1.157.33,2.408-.61,3.41-2.033-.66-2.455-2.1-2.4-4.122.138-5.164.044-10.335.046-15.5,0-2.109.062-4.444-2.884-4.386-2.679.052-2.684,2.244-2.684,4.237,0,5.529-.108,11.06.046,16.585.071,2.546-1.45,2.249-3.023,2.222-1.515-.025-3.208.44-3.067-2.163.163-3,.059-6.008.023-9.012-.021-1.741-.664-3.148-2.636-3.213-2.183-.073-2.883,1.4-2.908,3.3a70.637,70.637,0,0,0,.038,7.566c.267,2.819-.652,3.623-3.528,3.627-3.4,0-2.415-2.147-2.514-3.857-.116-2,.385-4.471-2.477-4.815-2.619-.314-2.927,1.661-3.169,3.779-.194,1.7,1.28,3.848-1.229,5.094a2.386,2.386,0,0,0-1.3,3.3c.612,1.438,1.806,1.744,3.236,1.734q14.78-.116,29.56-.184c-.154,2.951-2.268,3.005-4.429,3q-17.266-.005-34.53-.005" transform="translate(-26.55 -36.654)" fill="#fcecaa"/>
    <path id="Trazado_720573" data-name="Trazado 720573" d="M7.736,187.02q-.094-26.518-.212-53.036c-.008-1.436.52-1.838,1.895-1.831q12.815.07,25.63-.007c1.5-.01,1.8.6,1.77,1.92-.072,2.885-.047,5.775-.014,8.661.053,4.764,2.049,6.737,6.813,6.808,1.562.023,3.123.073,4.685.111.014,3.234.144,6.476-.005,9.7-.083,1.811.864,3.864-.909,5.409-.409-.856-.793-1.724-1.229-2.566-3.4-6.574-10.013-10.007-17.627-9.166a16.893,16.893,0,0,0-14.3,12.862c-2.106,8.254,1.564,15.438,10.341,20.25-.8,1.281-2.1.921-3.239.926-4.534.015-9.069-.025-13.6-.044" transform="translate(-2.087 -36.656)" fill="#eae8ea"/>
    <path id="Trazado_720574" data-name="Trazado 720574" d="M7.736,187.02q-.094-26.518-.212-53.036c-.008-1.436.52-1.838,1.895-1.831q12.815.07,25.63-.007c1.5-.01,1.8.6,1.77,1.92-.072,2.885-.047,5.775-.014,8.661.053,4.764,2.049,6.737,6.813,6.808,1.562.023,3.123.073,4.685.111.014,3.234.144,6.476-.005,9.7-.083,1.811.864,3.864-.909,5.409-.409-.856-.793-1.724-1.229-2.566-3.4-6.574-10.013-10.007-17.627-9.166a16.893,16.893,0,0,0-14.3,12.862c-2.106,8.254,1.564,15.438,10.341,20.25-.8,1.281-2.1.921-3.239.926-4.534.015-9.069-.025-13.6-.044" transform="translate(-2.087 -36.656)" fill="#eae8ea"/>
    <path id="Trazado_720575" data-name="Trazado 720575" d="M183.967,193.713q17.1.014,34.208.022c4.2-.005,6.166-1.945,6.172-6.089.014-10.442-.015-20.883-.027-31.324,6.2-.34,6.2-.34,6.2,5.771,0,11.549-.083,23.1.061,34.648.034,2.745-.814,3.422-3.484,3.394-12.873-.138-25.747-.038-38.621-.074-5.16-.014-4.571.8-4.63-4.552-.007-.6.078-1.2.121-1.794" transform="translate(-50.998 -43.33)" fill="#91d076"/>
    <path id="Trazado_720576" data-name="Trazado 720576" d="M183.967,193.713q17.1.014,34.208.022c4.2-.005,6.166-1.945,6.172-6.089.014-10.442-.015-20.883-.027-31.324,6.2-.34,6.2-.34,6.2,5.771,0,11.549-.083,23.1.061,34.648.034,2.745-.814,3.422-3.484,3.394-12.873-.138-25.747-.038-38.621-.074-5.16-.014-4.571.8-4.63-4.552-.007-.6.078-1.2.121-1.794" transform="translate(-50.998 -43.33)" fill="#91d076"/>
    <path id="Trazado_720577" data-name="Trazado 720577" d="M47.362,171.432c1.773-1.546.826-3.6.91-5.409.148-3.227.017-6.469,0-9.7,5.868-.333,5.868-.333,5.868,5.6,0,11.664-.07,23.328.057,34.99.026,2.482-.6,3.252-3.166,3.226-12.625-.134-25.254-.061-37.88-.061-6.1,0-6.1,0-5.446-6.38,4.534.018,9.069.059,13.6.043,1.142-.005,2.441.356,3.24-.926a27.662,27.662,0,0,0,10.274.808,11.063,11.063,0,0,0,4.5.849c7.863.014,11.632-5.85,7.958-12.461a25.023,25.023,0,0,0,.074-10.575" transform="translate(-2.06 -43.33)" fill="#cfcccf"/>
    <path id="Trazado_720578" data-name="Trazado 720578" d="M47.362,171.432c1.773-1.546.826-3.6.91-5.409.148-3.227.017-6.469,0-9.7,5.868-.333,5.868-.333,5.868,5.6,0,11.664-.07,23.328.057,34.99.026,2.482-.6,3.252-3.166,3.226-12.625-.134-25.254-.061-37.88-.061-6.1,0-6.1,0-5.446-6.38,4.534.018,9.069.059,13.6.043,1.142-.005,2.441.356,3.24-.926a27.662,27.662,0,0,0,10.274.808,11.063,11.063,0,0,0,4.5.849c7.863.014,11.632-5.85,7.958-12.461a25.023,25.023,0,0,0,.074-10.575" transform="translate(-2.06 -43.33)" fill="#cfcccf"/>
    <path id="Trazado_720579" data-name="Trazado 720579" d="M135.729,186.555c.94-1,.608-2.254.61-3.41.017-8.939,0-17.877-.011-26.815,5.957-.323,5.958-.323,5.958,5.524,0,11.641-.1,23.283.069,34.921.039,2.778-.809,3.376-3.445,3.346-12.48-.138-24.963-.061-37.445-.061-6.006,0-6.006,0-5.561-6.314q17.264,0,34.53.006c2.161,0,4.275-.054,4.428-3,1.108-1.228,1.814-2.539.867-4.193" transform="translate(-26.556 -43.334)" fill="#f9db75"/>
    <path id="Trazado_720580" data-name="Trazado 720580" d="M135.729,186.555c.94-1,.608-2.254.61-3.41.017-8.939,0-17.877-.011-26.815,5.957-.323,5.958-.323,5.958,5.524,0,11.641-.1,23.283.069,34.921.039,2.778-.809,3.376-3.445,3.346-12.48-.138-24.963-.061-37.445-.061-6.006,0-6.006,0-5.561-6.314q17.264,0,34.53.006c2.161,0,4.275-.054,4.428-3,1.108-1.228,1.814-2.539.867-4.193" transform="translate(-26.556 -43.334)" fill="#f9db75"/>
    <path id="Trazado_720581" data-name="Trazado 720581" d="M115.143,87.4l-22.811-.074c1.868-1.016,2.532-2.541,2.521-4.7-.025-5.31,5.4-9.286,10.391-7.183,8.705,3.666,17.154,3.825,25.752-.095a4.575,4.575,0,0,1,4.484.284c-.273,8.559-2.544,11.633-8.727,11.761-1.917.04-3.836,0-5.754,0-.5-1.54-1.133-2.978-3.106-2.869-1.76.1-2.293,1.47-2.749,2.869" transform="translate(-25.612 -20.768)" fill="#fcecaa"/>
    <path id="Trazado_720582" data-name="Trazado 720582" d="M115.143,87.4l-22.811-.074c1.868-1.016,2.532-2.541,2.521-4.7-.025-5.31,5.4-9.286,10.391-7.183,8.705,3.666,17.154,3.825,25.752-.095a4.575,4.575,0,0,1,4.484.284c-.273,8.559-2.544,11.633-8.727,11.761-1.917.04-3.836,0-5.754,0-.5-1.54-1.133-2.978-3.106-2.869-1.76.1-2.293,1.47-2.749,2.869" transform="translate(-25.612 -20.768)" fill="#fcecaa"/>
    <path id="Trazado_720583" data-name="Trazado 720583" d="M56.054,137.338c2.283,2.481,4.058,4.406,5.827,6.337.393.429.765.877,1.193,1.37-7.262,1.878-8.061,1.111-7.02-7.707" transform="translate(-15.446 -38.097)" fill="#cfcccf"/>
    <path id="Trazado_720584" data-name="Trazado 720584" d="M56.054,137.338c2.283,2.481,4.058,4.406,5.827,6.337.393.429.765.877,1.193,1.37-7.262,1.878-8.061,1.111-7.02-7.707" transform="translate(-15.446 -38.097)" fill="#cfcccf"/>
    <path id="Trazado_720585" data-name="Trazado 720585" d="M144.217,138.317c.452.4.776.672,1.093.957,2.036,1.84,4.069,3.682,6.355,5.749-7.415,2.374-8.621,1.2-7.447-6.707" transform="translate(-39.897 -38.368)" fill="#f9db75"/>
    <path id="Trazado_720586" data-name="Trazado 720586" d="M144.217,138.317c.452.4.776.672,1.093.957,2.036,1.84,4.069,3.682,6.355,5.749-7.415,2.374-8.621,1.2-7.447-6.707" transform="translate(-39.897 -38.368)" fill="#f9db75"/>
    <path id="Trazado_720587" data-name="Trazado 720587" d="M232.061,139.789l7.059,6.027c-7.575,1.4-8.861.009-7.059-6.027" transform="translate(-64.172 -38.777)" fill="#91d076"/>
    <path id="Trazado_720588" data-name="Trazado 720588" d="M232.061,139.789l7.059,6.027c-7.575,1.4-8.861.009-7.059-6.027" transform="translate(-64.172 -38.777)" fill="#91d076"/>
    <path id="Trazado_720589" data-name="Trazado 720589" d="M199.131,178.665c1.848.036,2.747,1.634,3.907,2.774,4.721,4.641,4.7,4.659,9.45-.086,2.374-2.372,4.776-4.716,7.12-7.118,1.334-1.366,2.828-2.054,4.382-.639,1.627,1.481.91,3-.434,4.341-4.411,4.4-8.835,8.8-13.211,13.234-1.77,1.795-3.39,1.948-5.209.055-2.573-2.679-5.255-5.254-7.858-7.9a2.6,2.6,0,0,1-.58-3.273,2.525,2.525,0,0,1,2.434-1.384" transform="translate(-54.467 -47.938)" fill="#060504"/>
    <path id="Trazado_720590" data-name="Trazado 720590" d="M199.131,178.665c1.848.036,2.747,1.634,3.907,2.774,4.721,4.641,4.7,4.659,9.45-.086,2.374-2.372,4.776-4.716,7.12-7.118,1.334-1.366,2.828-2.054,4.382-.639,1.627,1.481.91,3-.434,4.341-4.411,4.4-8.835,8.8-13.211,13.234-1.77,1.795-3.39,1.948-5.209.055-2.573-2.679-5.255-5.254-7.858-7.9a2.6,2.6,0,0,1-.58-3.273,2.525,2.525,0,0,1,2.434-1.384" transform="translate(-54.467 -47.938)" fill="#060504"/>
    <path id="Trazado_720591" data-name="Trazado 720591" d="M133.249,27.639a54.507,54.507,0,0,1-18.971-9.227c-1.481-1.079-2.964-2.5-4.769-.96-1.6,1.364-1.133,2.969.207,4.39.887.939.018,1.512-.532,2.085-.913.954-1.882,1.856-2.823,2.785-1.958,1.935-4.419,3.617-2.911,7.556-2.951-1.75-3.722-3.409-2.927-6.059,1-3.322,1.335-6.848,2.4-10.141,1.9-5.863,5.847-9.519,12.251-10.024,1.637,4.907,5.889,5.381,10.08,5.906a7.23,7.23,0,0,1,6.394,4.959c.982,2.8,1.91,5.667,1.6,8.73" transform="translate(-27.803 -2.231)" fill="#a06758"/>
    <path id="Trazado_720592" data-name="Trazado 720592" d="M133.249,27.639a54.507,54.507,0,0,1-18.971-9.227c-1.481-1.079-2.964-2.5-4.769-.96-1.6,1.364-1.133,2.969.207,4.39.887.939.018,1.512-.532,2.085-.913.954-1.882,1.856-2.823,2.785-1.958,1.935-4.419,3.617-2.911,7.556-2.951-1.75-3.722-3.409-2.927-6.059,1-3.322,1.335-6.848,2.4-10.141,1.9-5.863,5.847-9.519,12.251-10.024,1.637,4.907,5.889,5.381,10.08,5.906a7.23,7.23,0,0,1,6.394,4.959c.982,2.8,1.91,5.667,1.6,8.73" transform="translate(-27.803 -2.231)" fill="#a06758"/>
    <path id="Trazado_720593" data-name="Trazado 720593" d="M138.987,27.419c.314-3.063-.614-5.928-1.6-8.73A7.23,7.23,0,0,0,131,13.73c-4.191-.525-8.444-1-10.08-5.906a26.665,26.665,0,0,1,13.464.616,13.389,13.389,0,0,1,9.007,9.549c1.043,3.684,1.758,7.46,2.631,11.192.508,2.171-.882,3.258-2.731,4.842.445-3.851-.893-6.02-4.3-6.6" transform="translate(-33.542 -2.012)" fill="#804f4f"/>
    <path id="Trazado_720594" data-name="Trazado 720594" d="M138.987,27.419c.314-3.063-.614-5.928-1.6-8.73A7.23,7.23,0,0,0,131,13.73c-4.191-.525-8.444-1-10.08-5.906a26.665,26.665,0,0,1,13.464.616,13.389,13.389,0,0,1,9.007,9.549c1.043,3.684,1.758,7.46,2.631,11.192.508,2.171-.882,3.258-2.731,4.842.445-3.851-.893-6.02-4.3-6.6" transform="translate(-33.542 -2.012)" fill="#804f4f"/>
    <path id="Trazado_720595" data-name="Trazado 720595" d="M122.155,49.484a10.706,10.706,0,0,1-7.147-3.656c-4.276-4.656-2.713-10.677,3.271-12.763.829-.289,1.348.171,1.967.484q4.61,2.334,9.226,4.654a10.672,10.672,0,0,1-.874,4.088c-1.028,3.478-4.182,4.906-6.443,7.193" transform="translate(-31.231 -9.147)" fill="#f6b97d"/>
    <path id="Trazado_720596" data-name="Trazado 720596" d="M122.155,49.484a10.706,10.706,0,0,1-7.147-3.656c-4.276-4.656-2.713-10.677,3.271-12.763.829-.289,1.348.171,1.967.484q4.61,2.334,9.226,4.654a10.672,10.672,0,0,1-.874,4.088c-1.028,3.478-4.182,4.906-6.443,7.193" transform="translate(-31.231 -9.147)" fill="#f6b97d"/>
    <path id="Trazado_720597" data-name="Trazado 720597" d="M125.829,51.492c2.261-2.286,5.415-3.715,6.443-7.193a10.672,10.672,0,0,0,.874-4.088,11.489,11.489,0,0,1,1.4.289c4.9,1.646,5.3,2.966,1.846,6.937-2.764,3.179-6.218,4.848-10.562,4.055" transform="translate(-34.904 -11.154)" fill="#e8a26d"/>
    <path id="Trazado_720598" data-name="Trazado 720598" d="M125.829,51.492c2.261-2.286,5.415-3.715,6.443-7.193a10.672,10.672,0,0,0,.874-4.088,11.489,11.489,0,0,1,1.4.289c4.9,1.646,5.3,2.966,1.846,6.937-2.764,3.179-6.218,4.848-10.562,4.055" transform="translate(-34.904 -11.154)" fill="#e8a26d"/>
    <path id="Trazado_720599" data-name="Trazado 720599" d="M138.064,188.983c.947,1.653.241,2.965-.867,4.193q-14.779.086-29.56.183c-1.43.012-2.624-.3-3.236-1.734a2.386,2.386,0,0,1,1.3-3.3c2.509-1.246,1.035-3.395,1.229-5.094.242-2.118.55-4.092,3.169-3.779,2.862.343,2.361,2.81,2.477,4.815.1,1.71-.882,3.861,2.514,3.856,2.876,0,3.8-.808,3.528-3.627a70.649,70.649,0,0,1-.038-7.567c.025-1.906.725-3.374,2.908-3.3,1.972.066,2.615,1.473,2.636,3.213.036,3,.14,6.016-.023,9.012-.142,2.6,1.552,2.138,3.067,2.163,1.573.026,3.094.324,3.023-2.222-.154-5.524-.045-11.056-.046-16.585,0-1.993.005-4.185,2.684-4.237,2.946-.058,2.885,2.278,2.884,4.387,0,5.168.092,10.338-.046,15.5-.054,2.022.369,3.462,2.4,4.123" transform="translate(-28.891 -45.761)" fill="#0a0907"/>
    <path id="Trazado_720600" data-name="Trazado 720600" d="M138.064,188.983c.947,1.653.241,2.965-.867,4.193q-14.779.086-29.56.183c-1.43.012-2.624-.3-3.236-1.734a2.386,2.386,0,0,1,1.3-3.3c2.509-1.246,1.035-3.395,1.229-5.094.242-2.118.55-4.092,3.169-3.779,2.862.343,2.361,2.81,2.477,4.815.1,1.71-.882,3.861,2.514,3.856,2.876,0,3.8-.808,3.528-3.627a70.649,70.649,0,0,1-.038-7.567c.025-1.906.725-3.374,2.908-3.3,1.972.066,2.615,1.473,2.636,3.213.036,3,.14,6.016-.023,9.012-.142,2.6,1.552,2.138,3.067,2.163,1.573.026,3.094.324,3.023-2.222-.154-5.524-.045-11.056-.046-16.585,0-1.993.005-4.185,2.684-4.237,2.946-.058,2.885,2.278,2.884,4.387,0,5.168.092,10.338-.046,15.5-.054,2.022.369,3.462,2.4,4.123" transform="translate(-28.891 -45.761)" fill="#0a0907"/>
    <path id="Trazado_720601" data-name="Trazado 720601" d="M37.207,194.913a27.685,27.685,0,0,1-10.275-.808c-8.777-4.811-12.447-12-10.341-20.249a16.893,16.893,0,0,1,14.3-12.862c7.613-.84,14.225,2.593,17.627,9.166.436.842.821,1.71,1.229,2.565A25.035,25.035,0,0,1,49.67,183.3c-2.239,5.926-6.586,9.59-12.463,11.613m5.448-10.374c3.377-5.691,2.688-11.145-1.222-14.973a11.616,11.616,0,0,0-14.545-1.494,11.946,11.946,0,0,0-4.873,13.548c.71,2.131,1.538,2.387,3.078.645,1.506-1.7,3.291-3.159,4.789-4.869,2.211-2.525,4.281-2.781,6.528-.086,1.983,2.378,4.047,4.689,6.246,7.228m-3.031,2.955c-1.9-1.655-3.52-3.077-5.154-4.483-.506-.435-1.041-1.34-1.762-.622-1.763,1.756-5.087,3.437-4.748,5.42.37,2.161,3.919,2.007,6.264,1.856a8.571,8.571,0,0,0,5.4-2.17" transform="translate(-4.441 -44.624)" fill="#060504"/>
    <path id="Trazado_720602" data-name="Trazado 720602" d="M37.207,194.913a27.685,27.685,0,0,1-10.275-.808c-8.777-4.811-12.447-12-10.341-20.249a16.893,16.893,0,0,1,14.3-12.862c7.613-.84,14.225,2.593,17.627,9.166.436.842.821,1.71,1.229,2.565A25.035,25.035,0,0,1,49.67,183.3c-2.239,5.926-6.586,9.59-12.463,11.613m5.448-10.374c3.377-5.691,2.688-11.145-1.222-14.973a11.616,11.616,0,0,0-14.545-1.494,11.946,11.946,0,0,0-4.873,13.548c.71,2.131,1.538,2.387,3.078.645,1.506-1.7,3.291-3.159,4.789-4.869,2.211-2.525,4.281-2.781,6.528-.086,1.983,2.378,4.047,4.689,6.246,7.228m-3.031,2.955c-1.9-1.655-3.52-3.077-5.154-4.483-.506-.435-1.041-1.34-1.762-.622-1.763,1.756-5.087,3.437-4.748,5.42.37,2.161,3.919,2.007,6.264,1.856a8.571,8.571,0,0,0,5.4-2.17" transform="translate(-4.441 -44.624)" fill="#060504"/>
    <path id="Trazado_720603" data-name="Trazado 720603" d="M45.343,203.524c5.877-2.023,10.223-5.687,12.463-11.612,3.674,6.611-.095,12.476-7.958,12.462a11.066,11.066,0,0,1-4.5-.85" transform="translate(-12.578 -53.235)" fill="#eae8ea"/>
    <path id="Trazado_720604" data-name="Trazado 720604" d="M45.343,203.524c5.877-2.023,10.223-5.687,12.463-11.612,3.674,6.611-.095,12.476-7.958,12.462a11.066,11.066,0,0,1-4.5-.85" transform="translate(-12.578 -53.235)" fill="#eae8ea"/>
    <path id="Trazado_720605" data-name="Trazado 720605" d="M44.744,186.578c-2.2-2.539-4.263-4.85-6.246-7.227-2.247-2.7-4.317-2.439-6.528.086-1.5,1.709-3.283,3.166-4.789,4.869-1.54,1.742-2.368,1.486-3.078-.645a11.947,11.947,0,0,1,4.873-13.549,11.616,11.616,0,0,1,14.545,1.494c3.91,3.828,4.6,9.282,1.222,14.972" transform="translate(-6.531 -46.664)" fill="#f8ca59"/>
    <path id="Trazado_720606" data-name="Trazado 720606" d="M44.744,186.578c-2.2-2.539-4.263-4.85-6.246-7.227-2.247-2.7-4.317-2.439-6.528.086-1.5,1.709-3.283,3.166-4.789,4.869-1.54,1.742-2.368,1.486-3.078-.645a11.947,11.947,0,0,1,4.873-13.549,11.616,11.616,0,0,1,14.545,1.494c3.91,3.828,4.6,9.282,1.222,14.972" transform="translate(-6.531 -46.664)" fill="#f8ca59"/>
    <path id="Trazado_720607" data-name="Trazado 720607" d="M44.2,195.652a8.571,8.571,0,0,1-5.4,2.17c-2.346.151-5.894.306-6.264-1.856-.339-1.983,2.985-3.664,4.748-5.42.721-.718,1.256.187,1.762.622,1.635,1.406,3.255,2.828,5.154,4.483" transform="translate(-9.019 -52.782)" fill="#e8a26d"/>
    <path id="Trazado_720608" data-name="Trazado 720608" d="M44.2,195.652a8.571,8.571,0,0,1-5.4,2.17c-2.346.151-5.894.306-6.264-1.856-.339-1.983,2.985-3.664,4.748-5.42.721-.718,1.256.187,1.762.622,1.635,1.406,3.255,2.828,5.154,4.483" transform="translate(-9.019 -52.782)" fill="#e8a26d"/>
  </g>
</svg>
