<svg id="Grupo_1018167" data-name="Grupo 1018167" xmlns="http://www.w3.org/2000/svg" xmlns:xlink="http://www.w3.org/1999/xlink" width="208.783" height="213.536" viewBox="0 0 208.783 213.536">
  <defs>
    <clipPath id="clip-path">
      <rect id="Rectángulo_350824" data-name="Rectángulo 350824" width="208.783" height="213.536" fill="none"/>
    </clipPath>
  </defs>
  <g id="Grupo_1018166" data-name="Grupo 1018166" clip-path="url(#clip-path)">
    <path id="Trazado_720348" data-name="Trazado 720348" d="M86.99,176.992H82.112q-33.179,0-66.356-.005C5.342,176.979.011,171.613.007,161.127Q-.011,109.115,0,57.1C0,44.233,4.71,39.47,17.44,39.47q68.71,0,137.421.083c3.338.009,5.029-1,6.555-3.948,5.1-9.856,10.519-19.549,15.876-29.27,3.584-6.5,8.508-7.969,15-4.539,3.4,1.795,6.768,3.644,10.122,5.519,6.511,3.638,8.017,8.5,4.569,14.985-2.672,5.027-5.438,10-8.22,14.972-.982,1.755-1.629,2.919.9,4.281,4.629,2.491,6.716,6.774,6.715,12.048q-.005,54.581-.022,109.161c-.012,8.486-5.75,14.182-14.294,14.206-22.547.064-45.095.111-67.64-.068-3.552-.028-4.2,1.006-3.7,4.229,1.3,8.307,2.4,16.647,3.434,24.991.28,2.25,1.033,3.322,3.468,3.135,2.411-.186,4.849-.034,7.274-.01,1.3.014,2.206.525,2.264,1.976s-.848,2.057-2.086,2.22a23.028,23.028,0,0,1-2.991.087q-28.469.006-56.938,0a21.316,21.316,0,0,1-2.99-.094c-1.227-.176-2.143-.78-2.07-2.236.075-1.473,1.034-1.932,2.3-1.95,2.569-.036,5.137-.069,7.705-.021,1.615.031,2.639-.281,2.885-2.227,1.249-9.89,2.624-19.764,4-30.009M188.451,46.76c2.888-5.128,5.708-10.294,8.7-15.361,1-1.688.517-2.464-1.013-3.254-1.687-.87-3.848-1.4-3.677-4.012,1.536-2.046,3.157-1.123,4.873-.234.943.489,2.164,1.9,2.963.99a16.117,16.117,0,0,0,4.081-7.825c.41-2.459-1.039-4.317-3.228-5.516-3.488-1.91-6.95-3.868-10.458-5.741-5.229-2.792-7-1.8-10.642,4.281-3.17,5.289,2.015,4.893,4.034,6.586a19.634,19.634,0,0,0,4.088,2.268,3.07,3.07,0,0,1,1.783,3.859L176.812,46.69c-2.637,4.715-5.291,9.42-7.895,14.153-.393.715-1.017,1.792-.755,2.3,1.779,3.43,3.768,6.752,5.982,10.621l14.307-27m-16.5-.771c3.3-5.938,6.613-11.867,9.889-17.817,3.4-6.173,3.35-6.121-3-9.481-1.78-.941-2.813-1.283-3.951.921-4.089,7.923-8.385,15.739-12.6,23.6L152.212,61.221c8.43,1.492,14.137-1,16.673-9.181.66-2.129,2.023-4.04,3.062-6.051M116.3,181.308c.423-3.187-.6-4.589-4.169-4.382a148.7,148.7,0,0,1-16.539.006c-3.462-.186-4.989.921-4.682,4.384q-1.352,10.249-2.706,20.5c-.2.826-.383,1.658-.615,2.476-1.064,3.738-.084,5.239,4.192,5.051,8.081-.355,16.194-.293,24.281-.016,3.641.124,4.316-1.158,3.77-4.389-1.042-6.152-1.834-12.347-2.73-18.524q-.4-2.552-.8-5.1m28.383-8.758c15.979.04,31.958.159,47.936.081,5.591-.027,9.265-3.9,9.429-9.522.116-3.992-.153-8,.093-11.981.173-2.8-.939-3.328-3.444-3.254-5.56.166-11.129-.006-16.694.072-3.05.043-3.871-1.251-2.788-3.987,6.206-.78,12.444-.4,18.655-.261,3.484.075,5.085-.669,4.067-4.354q0-34.308,0-68.614c.047-2.127.111-4.254.133-6.381.009-.825.1-1.929-1.059-1.943-5.111-.059-10.33-.609-15.29.264-2.474.436-3,4.473-4.467,6.848a13.072,13.072,0,0,0-.813,1.943c-2.851,5.065-5.714,10.124-8.543,15.2-.848,1.523-1.728,2.746-3.667,3.21-5.391,1.289-10.733,2.794-16.072,4.29-3.263.914-5.253-.413-6.264-3.417-.905-2.689-1.645-5.433-2.456-8.153-3.392-7.243-1.605-13.853,3.565-20.261H120.226q-55.845,0-111.691.026c-1.889,0-4.336-1.026-4.289,2.76.2,16.682.184,33.367.245,50.052l-.01,24.187c-1.113,3.844.766,4.327,4.141,4.321q79.325-.148,158.649-.061c1.841,0,3.682.2,5.524.313,1.4,3.166-.045,4.029-3.043,4.023-9.511-.02-19.023.079-28.535.131l-19.679-.021c-34.352-.045-68.7-.134-103.054-.088-4.632.007-11.131-2.148-13.414.909-2.344,3.139-.669,9.279-.749,14.106a6.77,6.77,0,0,0,.032.855c.572,5.117,4.179,8.772,9.334,8.791,18.243.066,36.487-.049,54.731-.1l76.263.011M156.54,43.764H152.8q-68.281,0-136.56,0a29.508,29.508,0,0,0-2.993.087c-5.189.532-8.427,4.01-8.967,9.228-.373,3.6.373,5.084,4.627,5.065C51,57.959,93.1,58.04,135.193,58.023c4.554,0,9.99,1.377,13.43-.619,3.966-2.3,5.187-8.195,7.576-12.542a10.961,10.961,0,0,0,.341-1.1m2.952,21.724c-10.489.875-10.943,1.118-13.307,6.895-1.462,3.571.571,6.448,4.284,6.061,5.032-.523,8,1.108,9.925,6.082.859,2.217,1.609,2.686,3.944,1.952,5.068-1.594,7.612-6.673,5.3-11.341a54.439,54.439,0,0,1-2.433-4.963c-1.462-3.915-3.933-5.833-7.715-4.685m28-7.455H197.6c.853,0,1.706.009,2.559-.009.833-.017,1.55.036,1.924-1.113,1.276-3.931-1.1-9.864-4.765-11.917-1.609-.9-2.44-.691-3.295,1-1.912,3.776-4.025,7.449-6.538,12.045m-35.57,24.625c-1.316.293-3.567-.2-3.012,2.26.4,1.766-.368,4.817,2.642,4.789,1.8-.017,4.858.123,5.033-2.511.17-2.55-1.622-4.438-4.663-4.537" transform="translate(0 0)" fill="#070707"/>
    <path id="Trazado_720349" data-name="Trazado 720349" d="M5.2,125.541c-.061-16.684-.039-33.369-.245-50.05-.046-3.787,2.4-2.758,4.29-2.76q55.845-.051,111.691-.026h26.778c-5.17,6.407-6.956,13.019-3.564,20.261-4.418,1.52-7.367,5.526-11.82,6.983a38.779,38.779,0,0,0,.561-4.222c.159-5.786-2.294-10.187-7.417-12.885a12.776,12.776,0,0,0-14.435,1.17A12.947,12.947,0,0,0,105.793,97.9c1.724,8.064,8.3,11.807,18.065,10.316-.012,3.914-3.6,5.739-5.126,8.768-6.373.832-10.76,4.17-12.962,10.267L93,132.425c.5-2.21-.049-3.619-2.638-3.59-2.966.033-5.933,0-8.9.009-1.534,0-2.978.3-2.868,2.238.106,1.862,1.6,2.079,3.086,2.12q3.595.1,7.189.193c-10.732,3.676-21.853,4.262-33.042,3.89-4.94-.165-9.86-.911-14.789-1.394,1.982-8.85-1.448-15.7-9.038-18.055-8.03-2.49-14.838,1.806-17.8,11.233l-9-3.529m22.669-16.815c8.873.076,15.812-8.172,13.5-16.6-.843-3.065-1.124-5.294,1.56-7.362,1.065-.82,1.713-2.056.527-3.293a2.1,2.1,0,0,0-3.588.427c-1.856,3.056-3.77,1.936-6.187.721A13.217,13.217,0,0,0,18.655,84.94,13.872,13.872,0,0,0,15.236,100.2a13.615,13.615,0,0,0,12.632,8.531m42.569-6.747c6.42,0,12.842.014,19.262-.01,1.559-.005,3.449.164,3.42-2.147-.027-2.212-1.842-2.2-3.436-2.206q-19.263-.021-38.526,0c-1.593,0-3.409,0-3.417,2.222-.01,2.312,1.881,2.126,3.435,2.131,6.42.024,12.84.01,19.262.01M59.753,128.849c-3.128,0-6.257-.008-9.386,0-1.4.005-2.614.348-2.654,2.052-.037,1.655,1.119,2.249,2.51,2.259q9.812.077,19.625.019c1.378-.007,2.635-.531,2.669-2.137.04-1.946-1.414-2.2-2.951-2.2q-4.907,0-9.814.007M80.434,92.3c3.266,0,6.534-.01,9.8.005,1.572.007,2.951-.317,2.877-2.246-.063-1.611-1.254-2.054-2.684-2.054q-9.587.006-19.174,0c-1.587,0-2.968.433-2.885,2.284.085,1.891,1.6,2.034,3.118,2.021,2.984-.026,5.965-.008,8.949-.009M54.75,92.288v-.025c1.844,0,3.689.045,5.532-.016a1.879,1.879,0,0,0,1.964-1.834,1.93,1.93,0,0,0-1.909-2.324c-3.542-.1-7.093-.1-10.637-.01a1.919,1.919,0,0,0-1.958,2.278c.107,1.377,1.023,1.926,2.326,1.931,1.56.005,3.121,0,4.682,0" transform="translate(-0.708 -10.375)" fill="#f9f0d1"/>
    <path id="Trazado_720350" data-name="Trazado 720350" d="M132.365,101.364c4.454-1.457,7.4-5.463,11.82-6.983.813,2.719,1.552,5.463,2.456,8.152,1.011,3,3,4.332,6.265,3.417,5.34-1.5,10.68-3,16.072-4.29,1.94-.463,2.819-1.686,3.668-3.209,2.828-5.079,5.692-10.137,8.542-15.2,7.135-1.115,14.326-.606,21.5-.731l-.005,68.614-197.451.014q.005-12.094.009-24.188,4.5,1.763,9,3.528a30.541,30.541,0,0,0,.585,5.486c1.606,5.557,5.335,9.09,11.085,9.924,7.138,1.034,12.007-2.377,15.168-8.589,4.929.483,9.85,1.229,14.79,1.394,11.189.372,22.309-.213,33.042-3.89l4.131-.97,12.77-5.173c-.093.7-.22,1.4-.275,2.1-.45,5.753,1.643,10.376,6.594,13.342a13,13,0,0,0,14.855-.427c4.789-3.272,6.866-8.025,5.641-13.68-.7-3.22-1.319-5.937,1.808-8.187a2,2,0,0,0,.283-3.043c-.666-.789-2.018-1.347-2.6-.388-2.785,4.556-5.945,2.115-9.183.819a21.651,21.651,0,0,0-4.156-.8c1.527-3.029,5.114-4.854,5.125-8.767l.014.25a1.488,1.488,0,0,0,1.783-1.037,24.81,24.81,0,0,0,5.953-5.827,1.781,1.781,0,0,0,.889-1.7Zm30.407,28.96q9.618,0,19.236,0c1.583,0,3.481.083,3.6-2.043.14-2.589-2.017-2.284-3.686-2.287q-19.023-.031-38.045,0c-1.5,0-3.489-.351-3.578,1.95-.1,2.534,1.97,2.364,3.67,2.371,6.269.027,12.539.011,18.808.01m-10.222,5.3c-3.122,0-6.242.009-9.364,0-1.557-.007-2.957.28-2.917,2.21.034,1.609,1.205,2.091,2.643,2.09,6.526,0,13.053.006,19.579-.01,1.461,0,2.569-.669,2.515-2.228s-1.206-2.071-2.667-2.06c-3.263.022-6.526.007-9.789,0m26.208,4.262v.032c1.415,0,2.829,0,4.244,0,1.449-.005,2.59-.582,2.622-2.13.032-1.568-1.091-2.161-2.552-2.159-3.254,0-6.508,0-9.762.027a2.107,2.107,0,1,0-.068,4.213c1.836.07,3.677.018,5.515.018" transform="translate(-0.747 -11.79)" fill="#f6d972"/>
    <path id="Trazado_720351" data-name="Trazado 720351" d="M69.051,197.087c-18.243.046-36.488.16-54.731.094-5.155-.018-8.762-3.674-9.334-8.791a6.929,6.929,0,0,1-.032-.855c.081-4.826-1.6-10.967.749-14.105,2.283-3.056,8.783-.9,13.414-.909,34.352-.045,68.7.042,103.054.088A43.269,43.269,0,0,1,110.161,181c-3.99-3.721-6.908-4.421-10.2-2.2-3.639,2.457-4.043,5.917-2.656,9.8a237.021,237.021,0,0,1-28.254,8.485" transform="translate(-0.636 -24.549)" fill="#a1d9ef"/>
    <path id="Trazado_720352" data-name="Trazado 720352" d="M157.24,51.06a10.866,10.866,0,0,1-.341,1.1c-2.389,4.347-3.611,10.242-7.576,12.543-3.44,2-8.876.617-13.43.619-42.1.017-84.191-.065-126.286.124-4.253.02-5-1.465-4.626-5.065.54-5.217,3.777-8.7,8.967-9.227a29.252,29.252,0,0,1,2.992-.088q68.281-.006,136.56,0Z" transform="translate(-0.7 -7.296)" fill="#9dd5ea"/>
    <path id="Trazado_720353" data-name="Trazado 720353" d="M202.727,167.953c-1.083,2.737-.261,4.03,2.789,3.987,5.564-.077,11.133.094,16.693-.071,2.505-.075,3.618.457,3.445,3.254-.246,3.979.023,7.988-.093,11.981-.163,5.623-3.837,9.494-9.428,9.522-15.978.078-31.958-.039-47.937-.081-3.413-7.836-3.954-16.077-3.463-24.467,9.512-.052,19.024-.152,28.536-.131,3,.005,4.437-.857,3.042-4.023l6.416.029" transform="translate(-23.518 -23.996)" fill="#2ca3e6"/>
    <path id="Trazado_720354" data-name="Trazado 720354" d="M152.622,172.768c-.491,8.388.05,16.631,3.463,24.467l-76.263-.01a237.178,237.178,0,0,0,28.254-8.484c2.844,3.081,6.052,4.826,10.177,2.486,3.335-1.892,4.184-5.274,2.678-10.088a43.269,43.269,0,0,0,12.011-8.39l19.68.021" transform="translate(-11.406 -24.685)" fill="#5fc1e6"/>
    <path id="Trazado_720355" data-name="Trazado 720355" d="M179.9,167.189l-6.416-.029c-1.841-.109-3.682-.312-5.523-.312q-79.325-.022-158.65.06c-3.374.005-5.253-.477-4.14-4.321l197.451-.013c1.019,3.684-.583,4.429-4.067,4.354-6.21-.134-12.449-.519-18.655.261" transform="translate(-0.693 -23.232)" fill="#fefdfa"/>
    <path id="Trazado_720356" data-name="Trazado 720356" d="M131.633,217.491c.9,6.177,1.688,12.371,2.73,18.523.548,3.231-.129,4.513-3.77,4.389-8.087-.276-16.2-.338-24.281.016-4.276.188-5.255-1.312-4.192-5.05.232-.818.411-1.651.615-2.477a10.752,10.752,0,0,0,4.167-.708,67.213,67.213,0,0,0,24.73-14.693" transform="translate(-14.536 -31.079)" fill="#5dbce0"/>
    <path id="Trazado_720357" data-name="Trazado 720357" d="M131.8,216.64a67.213,67.213,0,0,1-24.73,14.693,10.752,10.752,0,0,1-4.167.708q1.353-10.248,2.707-20.5l25.39-.009q.4,2.553.8,5.1" transform="translate(-14.705 -30.228)" fill="#a1d9ef"/>
    <path id="Trazado_720358" data-name="Trazado 720358" d="M183.785,76.351c3.782-1.147,6.253.771,7.715,4.685A54.577,54.577,0,0,0,193.933,86c2.31,4.668-.234,9.746-5.3,11.34-2.336.735-3.086.266-3.944-1.952-1.928-4.973-4.893-6.6-9.925-6.081-3.713.386-5.746-2.491-4.285-6.061,2.365-5.776,2.818-6.019,13.308-6.9" transform="translate(-24.293 -10.863)" fill="#f6d972"/>
    <path id="Trazado_720359" data-name="Trazado 720359" d="M219.8,23.521a3.069,3.069,0,0,0-1.783-3.859,19.678,19.678,0,0,1-4.088-2.268c-2.018-1.693-7.2-1.3-4.034-6.586,3.645-6.082,5.412-7.074,10.642-4.281,3.508,1.873,6.97,3.83,10.458,5.741,2.189,1.2,3.637,3.056,3.228,5.516a16.131,16.131,0,0,1-4.081,7.825c-.8.908-2.02-.5-2.963-.99-1.716-.889-3.338-1.812-4.873.231q-1.253-.667-2.507-1.33" transform="translate(-29.851 -0.72)" fill="#1c74d5"/>
    <path id="Trazado_720360" data-name="Trazado 720360" d="M189.333,46.2c4.217-7.856,8.512-15.673,12.6-23.6,1.138-2.2,2.173-1.863,3.951-.922,6.356,3.361,6.4,3.309,3.006,9.482-3.276,5.95-6.591,11.879-9.888,17.816-3.454-.122-6.523-1.588-9.67-2.78" transform="translate(-27.055 -2.994)" fill="#f97ea4"/>
    <path id="Trazado_720361" data-name="Trazado 720361" d="M216.477,54.543l-14.307,27c-2.214-3.869-4.2-7.191-5.983-10.622-.262-.506.363-1.583.755-2.3,2.6-4.734,5.258-9.439,7.9-14.154l11.639.069" transform="translate(-28.026 -7.784)" fill="#f72d6b"/>
    <path id="Trazado_720362" data-name="Trazado 720362" d="M217.93,50.561l-11.639-.069q6.57-11.944,13.139-23.889,1.254.663,2.507,1.331c-.17,2.611,1.99,3.144,3.678,4.015,1.529.788,2.009,1.565,1.013,3.252-2.99,5.068-5.811,10.235-8.7,15.361" transform="translate(-29.479 -3.801)" fill="#f97ea4"/>
    <path id="Trazado_720363" data-name="Trazado 720363" d="M187.655,50.41c3.147,1.192,6.216,2.659,9.67,2.78-1.04,2.012-2.4,3.924-3.062,6.052-2.536,8.183-8.244,10.674-16.673,9.181L187.655,50.41" transform="translate(-25.377 -7.204)" fill="#f72d6b"/>
    <path id="Trazado_720364" data-name="Trazado 720364" d="M232.02,81.095c-7.17.125-14.361-.384-21.5.732a13.01,13.01,0,0,1,.813-1.944c1.461-2.375,1.993-6.412,4.466-6.848,4.96-.873,10.179-.323,15.29-.264,1.156.014,1.067,1.117,1.059,1.943-.021,2.127-.086,4.254-.133,6.381" transform="translate(-30.084 -10.367)" fill="#f9f0d1"/>
    <path id="Trazado_720365" data-name="Trazado 720365" d="M218.748,65.447c2.513-4.6,4.626-8.269,6.538-12.045.855-1.686,1.686-1.9,3.295-1,3.665,2.054,6.042,7.986,4.765,11.917-.373,1.149-1.09,1.1-1.924,1.113-.853.019-1.706.009-2.559.009H218.748" transform="translate(-31.259 -7.414)" fill="#9dd5ea"/>
    <path id="Trazado_720366" data-name="Trazado 720366" d="M131.444,210.8l-25.39.009c-.308-3.464,1.22-4.57,4.682-4.384a148.492,148.492,0,0,0,16.539-.006c3.567-.207,4.591,1.195,4.168,4.382" transform="translate(-15.15 -29.494)" fill="#5dbce0"/>
    <path id="Trazado_720367" data-name="Trazado 720367" d="M176.731,96.44c3.04.1,4.832,1.988,4.663,4.537-.175,2.634-3.231,2.494-5.033,2.511-3.009.028-2.243-3.022-2.642-4.789-.555-2.464,1.7-1.967,3.012-2.26" transform="translate(-24.812 -13.781)" fill="#1c74d5"/>
    <path id="Trazado_720368" data-name="Trazado 720368" d="M135.485,124.3a21.651,21.651,0,0,1,4.156.8c3.238,1.3,6.4,3.737,9.182-.819.587-.96,1.938-.4,2.6.388a2,2,0,0,1-.282,3.043c-3.128,2.249-2.506,4.967-1.808,8.187,1.226,5.655-.852,10.407-5.641,13.679a13,13,0,0,1-14.855.428c-4.951-2.966-7.044-7.589-6.594-13.342.055-.7.182-1.4.275-2.1,2.2-6.1,6.589-9.436,12.962-10.267m8.923,10.861c-1.785,1.922-3.352,3.673-4.992,5.353-1.137,1.165-2.216,3.227-4.154,1.91-2.2-1.492-4.718-3.22-5.209-5.935a1.832,1.832,0,0,1,3.188-1.544c3.71,4.315,4.945.124,6.963-1.642,2.059-1.8,1.626-2.893-.82-3.829a9.455,9.455,0,0,0-10.519,15.058,9.661,9.661,0,0,0,11.713,1.978c3.9-2.2,5.335-6.079,3.83-11.349" transform="translate(-17.461 -17.688)" fill="#0d0907"/>
    <path id="Trazado_720369" data-name="Trazado 720369" d="M29.418,110.068a13.616,13.616,0,0,1-12.632-8.532A13.87,13.87,0,0,1,20.2,86.282a13.218,13.218,0,0,1,15.023-2.319c2.416,1.216,4.33,2.335,6.186-.72A2.1,2.1,0,0,1,45,82.815c1.185,1.237.537,2.473-.528,3.293-2.684,2.066-2.4,4.3-1.56,7.362,2.315,8.425-4.624,16.674-13.5,16.6m9-17.288c-2.47,2.671-4.4,4.682-6.238,6.768-1.558,1.764-3.031,1.871-4.632.085-.949-1.059-1.984-2.041-2.967-3.069-.963-1.008-1.6-2.158-.416-3.341,1.127-1.121,2.252-.681,3.382.264.795.664,1.544,2.472,2.612,1.56,1.98-1.691,5.148-3.4,4.8-5.967-.249-1.86-3.619-2.216-5.953-2.184a6.355,6.355,0,0,0-1.263.188,9.458,9.458,0,1,0,3.8,18.53c5.153-.971,7.952-5.6,6.873-12.833" transform="translate(-2.258 -11.715)" fill="#070707"/>
    <path id="Trazado_720370" data-name="Trazado 720370" d="M148.359,103.028a24.81,24.81,0,0,1-5.953,5.827c-.639.271-1.551.071-1.784,1.037l-.013-.25c-9.763,1.49-16.342-2.253-18.064-10.318a12.946,12.946,0,0,1,5.242-13.888,12.772,12.772,0,0,1,14.434-1.17c5.125,2.7,7.578,7.1,7.418,12.885a39.019,39.019,0,0,1-.561,4.222l.167-.05c-.871.269-.769,1.045-.888,1.7m-12.446,2.807a9.22,9.22,0,0,0,9.415-9.463,9.517,9.517,0,0,0-9.591-9.408,9.713,9.713,0,0,0-9.284,9.367,9.41,9.41,0,0,0,9.46,9.5" transform="translate(-17.46 -11.799)" fill="#0d0907"/>
    <path id="Trazado_720371" data-name="Trazado 720371" d="M42.577,143.316c-3.16,6.213-8.029,9.624-15.168,8.59-5.75-.833-9.479-4.368-11.085-9.924a30.54,30.54,0,0,1-.585-5.486c2.963-9.427,9.771-13.723,17.8-11.233,7.59,2.353,11.02,9.205,9.036,18.054m-12.851,4.433a9.341,9.341,0,0,0,9.25-9.657,9.423,9.423,0,0,0-18.843.346,9.315,9.315,0,0,0,9.593,9.311" transform="translate(-2.249 -17.8)" fill="#070707"/>
    <path id="Trazado_720372" data-name="Trazado 720372" d="M77.569,106.148c-6.421,0-12.842.014-19.262-.01-1.554-.005-3.446.181-3.435-2.131.009-2.222,1.824-2.221,3.417-2.222q19.263-.021,38.526,0c1.594,0,3.41-.006,3.437,2.207.028,2.31-1.862,2.141-3.42,2.146-6.421.024-12.842.01-19.263.01" transform="translate(-7.841 -14.543)" fill="#131210"/>
    <path id="Trazado_720373" data-name="Trazado 720373" d="M66.883,138.221q4.9-.005,9.813,0c1.537,0,2.991.258,2.951,2.2-.034,1.606-1.291,2.13-2.668,2.137q-9.813.046-19.625-.019c-1.392-.01-2.547-.6-2.51-2.259.039-1.7,1.256-2.047,2.654-2.052,3.128-.011,6.258,0,9.386-.007" transform="translate(-7.837 -19.751)" fill="#131210"/>
    <path id="Trazado_720374" data-name="Trazado 720374" d="M91.006,94.87c-2.983,0-5.965-.018-8.948.008-1.516.013-3.033-.13-3.118-2.02-.083-1.852,1.3-2.287,2.885-2.285q9.587.012,19.174,0c1.431,0,2.622.441,2.684,2.053.074,1.929-1.3,2.253-2.876,2.246-3.266-.015-6.534,0-9.8,0" transform="translate(-11.28 -12.943)" fill="#070707"/>
    <path id="Trazado_720375" data-name="Trazado 720375" d="M105.277,141.8l-4.132.97-7.189-.193c-1.49-.041-2.979-.258-3.086-2.12-.111-1.941,1.334-2.235,2.869-2.238,2.966-.006,5.932.024,8.9-.009,2.59-.028,3.14,1.38,2.64,3.59" transform="translate(-12.984 -19.75)" fill="#131210"/>
    <path id="Trazado_720376" data-name="Trazado 720376" d="M61.883,94.857c-1.562,0-3.122,0-4.682,0-1.3-.005-2.219-.554-2.326-1.931a1.919,1.919,0,0,1,1.958-2.278c3.545-.086,7.1-.093,10.637.01a1.93,1.93,0,0,1,1.909,2.324,1.879,1.879,0,0,1-1.964,1.834c-1.843.061-3.688.016-5.532.016v.025" transform="translate(-7.84 -12.944)" fill="#070707"/>
    <path id="Trazado_720377" data-name="Trazado 720377" d="M185.292,137.572c-6.27,0-12.539.016-18.808-.01-1.7-.008-3.769.164-3.671-2.372.089-2.3,2.075-1.947,3.578-1.95q19.024-.039,38.045,0c1.67,0,3.826-.3,3.687,2.287-.115,2.127-2.013,2.042-3.6,2.044q-9.618.015-19.235,0" transform="translate(-23.265 -19.037)" fill="#0d0907"/>
    <path id="Trazado_720378" data-name="Trazado 720378" d="M175.066,144.486c3.263,0,6.526.017,9.789-.005,1.461-.01,2.614.5,2.667,2.06s-1.053,2.225-2.515,2.228c-6.526.016-13.053.009-19.579.01-1.438,0-2.608-.482-2.642-2.09-.041-1.929,1.359-2.216,2.916-2.21,3.122.014,6.242,0,9.364.006" transform="translate(-23.262 -20.646)" fill="#070707"/>
    <path id="Trazado_720379" data-name="Trazado 720379" d="M206.418,148.748c-1.838,0-3.68.052-5.515-.018a2.107,2.107,0,1,1,.068-4.213c3.254-.028,6.507-.023,9.762-.027,1.461,0,2.584.591,2.552,2.159-.032,1.548-1.173,2.125-2.622,2.13-1.415,0-2.829,0-4.244,0v-.032" transform="translate(-28.406 -20.647)" fill="#070707"/>
    <path id="Trazado_720380" data-name="Trazado 720380" d="M152.723,106.155c.12-.66.017-1.436.888-1.7a1.781,1.781,0,0,1-.888,1.7" transform="translate(-21.824 -14.926)" fill="#f9f0d1"/>
    <path id="Trazado_720381" data-name="Trazado 720381" d="M143.7,114.275c.233-.967,1.144-.767,1.783-1.037a1.488,1.488,0,0,1-1.783,1.037" transform="translate(-20.534 -16.182)" fill="#f9f0d1"/>
    <path id="Trazado_720382" data-name="Trazado 720382" d="M125.52,181.959c1.505,4.814.657,8.2-2.678,10.089-4.126,2.34-7.333.6-10.177-2.486-1.387-3.884-.983-7.344,2.656-9.8,3.291-2.223,6.21-1.523,10.2,2.2m-3.557,3.536c-.491-1.293-1.252-2.523-2.974-2.352a2.714,2.714,0,0,0,.375,5.415c1.606-.135,2.456-1.275,2.6-3.063" transform="translate(-15.994 -25.507)" fill="#070707"/>
    <path id="Trazado_720383" data-name="Trazado 720383" d="M145.13,136c1.505,5.269.069,9.151-3.83,11.349a9.661,9.661,0,0,1-11.713-1.978,9.455,9.455,0,0,1,10.519-15.058c2.446.936,2.879,2.027.82,3.829-2.018,1.766-3.254,5.957-6.963,1.642a1.832,1.832,0,0,0-3.188,1.544c.49,2.715,3.012,4.443,5.209,5.935,1.938,1.316,3.017-.746,4.154-1.91,1.64-1.68,3.206-3.431,4.992-5.353" transform="translate(-18.182 -18.529)" fill="#f26b94"/>
    <path id="Trazado_720384" data-name="Trazado 720384" d="M39.134,93.6c1.079,7.236-1.72,11.861-6.873,12.833a9.458,9.458,0,1,1-3.8-18.53,6.355,6.355,0,0,1,1.263-.188c2.335-.032,5.7.324,5.953,2.184.344,2.57-2.824,4.276-4.8,5.967-1.067.912-1.817-.9-2.612-1.56-1.13-.945-2.255-1.385-3.382-.264-1.189,1.183-.547,2.333.416,3.341.983,1.029,2.018,2.01,2.967,3.069,1.6,1.786,3.074,1.679,4.632-.085,1.842-2.085,3.768-4.1,6.238-6.768" transform="translate(-2.971 -12.534)" fill="#f26b94"/>
    <path id="Trazado_720385" data-name="Trazado 720385" d="M136.625,106.567a9.41,9.41,0,0,1-9.46-9.5,9.713,9.713,0,0,1,9.284-9.367A9.517,9.517,0,0,1,146.04,97.1a9.22,9.22,0,0,1-9.415,9.463" transform="translate(-18.172 -12.531)" fill="#9dd5ea"/>
    <path id="Trazado_720386" data-name="Trazado 720386" d="M30.46,148.471a9.315,9.315,0,0,1-9.593-9.311,9.423,9.423,0,0,1,18.843-.346,9.341,9.341,0,0,1-9.25,9.657" transform="translate(-2.982 -18.522)" fill="#a1d9ef"/>
    <path id="Trazado_720387" data-name="Trazado 720387" d="M122.721,186.266c-.144,1.789-.993,2.929-2.6,3.063a2.714,2.714,0,0,1-.375-5.415c1.722-.171,2.483,1.059,2.974,2.352" transform="translate(-16.752 -26.279)" fill="#1c74d5"/>
  </g>
</svg>
