<svg xmlns="http://www.w3.org/2000/svg" xmlns:xlink="http://www.w3.org/1999/xlink" width="207.155" height="169" viewBox="0 0 207.155 169">
  <defs>
    <clipPath id="clip-path">
      <rect id="Rectángulo_350331" data-name="Rectángulo 350331" width="207.155" height="144.6" fill="none"/>
    </clipPath>
    <clipPath id="clip-path-3">
      <rect id="Rectángulo_350282" data-name="Rectángulo 350282" width="145.982" height="80.016" fill="none"/>
    </clipPath>
    <clipPath id="clip-path-5">
      <rect id="Rectángulo_350286" data-name="Rectángulo 350286" width="26.675" height="21.24" fill="none"/>
    </clipPath>
    <clipPath id="clip-path-6">
      <rect id="Rectángulo_350287" data-name="Rectángulo 350287" width="46.637" height="32.076" fill="none"/>
    </clipPath>
    <clipPath id="clip-path-7">
      <rect id="Rectángulo_350288" data-name="Rectángulo 350288" width="13.005" height="14.342" fill="none"/>
    </clipPath>
    <clipPath id="clip-path-8">
      <rect id="Rectángulo_350289" data-name="Rectángulo 350289" width="24.665" height="27.221" fill="none"/>
    </clipPath>
    <clipPath id="clip-path-9">
      <path id="Trazado_718784" data-name="Trazado 718784" d="M79.98,164.293a13.966,13.966,0,1,0,13.967-13.967A13.966,13.966,0,0,0,79.98,164.293" transform="translate(-79.98 -150.326)" fill="none"/>
    </clipPath>
    <clipPath id="clip-path-11">
      <rect id="Rectángulo_350291" data-name="Rectángulo 350291" width="24.665" height="27.222" fill="none"/>
    </clipPath>
    <clipPath id="clip-path-12">
      <rect id="Rectángulo_350292" data-name="Rectángulo 350292" width="20.469" height="17.014" fill="none"/>
    </clipPath>
    <clipPath id="clip-path-14">
      <path id="Trazado_718804" data-name="Trazado 718804" d="M275.605,18.9A13.966,13.966,0,1,0,289.572,4.933,13.967,13.967,0,0,0,275.605,18.9" transform="translate(-275.605 -4.933)" fill="none"/>
    </clipPath>
    <clipPath id="clip-path-15">
      <rect id="Rectángulo_350307" data-name="Rectángulo 350307" width="5.533" height="13.792" fill="none"/>
    </clipPath>
    <clipPath id="clip-path-16">
      <rect id="Rectángulo_350308" data-name="Rectángulo 350308" width="7.921" height="10.623" fill="none"/>
    </clipPath>
    <clipPath id="clip-path-19">
      <rect id="Rectángulo_350311" data-name="Rectángulo 350311" width="14.189" height="11.413" fill="none"/>
    </clipPath>
    <clipPath id="clip-path-20">
      <rect id="Rectángulo_350312" data-name="Rectángulo 350312" width="17.39" height="10.846" fill="none"/>
    </clipPath>
    <clipPath id="clip-path-22">
      <path id="Trazado_718820" data-name="Trazado 718820" d="M350.638,265.728A13.967,13.967,0,1,0,364.6,251.761a13.966,13.966,0,0,0-13.967,13.967" transform="translate(-350.638 -251.761)" fill="none"/>
    </clipPath>
    <clipPath id="clip-path-23">
      <rect id="Rectángulo_350324" data-name="Rectángulo 350324" width="21.386" height="25.292" fill="none"/>
    </clipPath>
    <clipPath id="clip-path-25">
      <rect id="Rectángulo_350325" data-name="Rectángulo 350325" width="24.666" height="27.222" fill="none"/>
    </clipPath>
    <clipPath id="clip-path-26">
      <path id="Trazado_718829" data-name="Trazado 718829" d="M408.9,47.547A13.967,13.967,0,1,0,422.87,33.58,13.967,13.967,0,0,0,408.9,47.547" transform="translate(-408.903 -33.58)" fill="none"/>
    </clipPath>
    <clipPath id="clip-path-27">
      <rect id="Rectángulo_350327" data-name="Rectángulo 350327" width="19.665" height="17.796" fill="none"/>
    </clipPath>
    <clipPath id="clip-path-29">
      <rect id="Rectángulo_350328" data-name="Rectángulo 350328" width="34.701" height="37.798" fill="none"/>
    </clipPath>
    <clipPath id="clip-path-30">
      <rect id="Rectángulo_350329" data-name="Rectángulo 350329" width="22.675" height="31.866" fill="none"/>
    </clipPath>
  </defs>
  <g id="Grupo_1018215" data-name="Grupo 1018215" transform="translate(-696.423 -1760.951)">
    <g id="Grupo_159183" data-name="Grupo 159183" transform="translate(719.001 1760.951)">
      <path id="Unión_12" data-name="Unión 12" d="M84.5,0A84.5,84.5,0,1,1,0,84.5,84.5,84.5,0,0,1,84.5,0Z" fill="#fff"/>
    </g>
    <g id="Grupo_1017583" data-name="Grupo 1017583" transform="translate(696.423 1774.4)">
      <g id="Grupo_1017582" data-name="Grupo 1017582" clip-path="url(#clip-path)">
        <rect id="Rectángulo_350277" data-name="Rectángulo 350277" width="20.418" height="14.974" transform="translate(95.168 107.382)" fill="#2d4c7f"/>
        <rect id="Rectángulo_350278" data-name="Rectángulo 350278" width="106.631" height="4.765" transform="translate(52.062 121.894)" fill="#4e73a8"/>
        <rect id="Rectángulo_350279" data-name="Rectángulo 350279" width="106.631" height="1.361" transform="translate(52.062 125.298)" fill="#2d4c7f"/>
        <rect id="Rectángulo_350280" data-name="Rectángulo 350280" width="165.544" height="92.649" transform="translate(22.606 15.382)" fill="#4e73a8"/>
        <rect id="Rectángulo_350281" data-name="Rectángulo 350281" width="155.132" height="80.016" transform="translate(27.812 18.636)" fill="#b8d0ff"/>
        <g id="Grupo_1017509" data-name="Grupo 1017509">
          <g id="Grupo_1017508" data-name="Grupo 1017508" clip-path="url(#clip-path)">
            <g id="Grupo_1017507" data-name="Grupo 1017507" transform="translate(27.812 18.636)" opacity="0.5" style="mix-blend-mode: multiply;isolation: isolate">
              <g id="Grupo_1017506" data-name="Grupo 1017506">
                <g id="Grupo_1017505" data-name="Grupo 1017505" clip-path="url(#clip-path-3)">
                  <path id="Trazado_718739" data-name="Trazado 718739" d="M229.488,136.9a95.973,95.973,0,0,1-17.733-6.527c-5.743-2.661-11.511-5.332-17.166-8.174-30.335-15.247-57.3-37.968-78.169-64.844H85.6v80.016H231.584c-.7-.149-1.4-.3-2.1-.471" transform="translate(-85.602 -57.36)" fill="#b8d0ff"/>
                </g>
              </g>
            </g>
          </g>
        </g>
        <rect id="Rectángulo_350284" data-name="Rectángulo 350284" width="155.336" height="1.463" transform="translate(27.71 98.652)" fill="#2d4c7f"/>
        <g id="Grupo_1017523" data-name="Grupo 1017523">
          <g id="Grupo_1017522" data-name="Grupo 1017522" clip-path="url(#clip-path)">
            <path id="Trazado_718740" data-name="Trazado 718740" d="M251.749,125.31c1.173-1.1,1.069-3.451.6-4.722-1.719-4.632-5.012-6.485-12.739-6.485-.27,0-.538.005-.8.013-.056-4.77-5.187-8.851-8.8-9.238-10.484-1.123-32.835-1.586-39.771.618-3.476,1.1-6.612,3.9-6.612,8.7,0,.1.007.19.009.285a17.16,17.16,0,0,0-2.717-.216c-6.991,0-12.66,4.144-12.66,9.256a6.915,6.915,0,0,0,.312,2.037c-.1,0-.207-.006-.312-.006-.324,0-.645.009-.965.023h-.706a5.9,5.9,0,0,0-1.6.225c-7.277,1.114-12.745,5.863-12.745,11.553,0,6.518,5.392,11.647,18.589,11.648h81.46c7.1,0,11.785-6.945,11.785-11.89,0-6.085-5.382-11.1-12.32-11.8" transform="translate(-102.775 -70.169)" fill="#fff"/>
            <path id="Trazado_718741" data-name="Trazado 718741" d="M216.474,165.868c0-6.428,4.935-11.028,11.576-11.028a11.007,11.007,0,0,1,8.773,3.778l-3.168,2.924a6.859,6.859,0,0,0-5.361-2.5,6.824,6.824,0,1,0,0,13.648,6.793,6.793,0,0,0,5.361-2.529l3.168,2.925a10.956,10.956,0,0,1-8.8,3.808c-6.611,0-11.546-4.6-11.546-11.028" transform="translate(-146.143 -104.533)" fill="#2e6adb"/>
            <path id="Trazado_718742" data-name="Trazado 718742" d="M302.909,177.29l-4.112-5.941h-4.539v5.941h-4.935V155.965h9.231c5.7,0,9.261,2.955,9.261,7.738a6.934,6.934,0,0,1-4.386,6.732l4.782,6.855Zm-4.63-17.3h-4.021v7.433h4.021c3.016,0,4.539-1.4,4.539-3.717,0-2.346-1.523-3.716-4.539-3.716" transform="translate(-195.323 -105.293)" fill="#2e6adb"/>
            <path id="Trazado_718743" data-name="Trazado 718743" d="M377.64,177.29l-.031-12.8-6.275,10.54h-2.224l-6.245-10.266V177.29h-4.631V155.965h4.082l7.981,13.252,7.86-13.252h4.052l.061,21.325Z" transform="translate(-241.845 -105.293)" fill="#2e6adb"/>
            <rect id="Rectángulo_350285" data-name="Rectángulo 350285" width="26.675" height="21.24" transform="translate(7.97 120.196)" fill="#83b3ff"/>
            <g id="Grupo_1017512" data-name="Grupo 1017512" transform="translate(7.97 120.197)" opacity="0.4" style="mix-blend-mode: multiply;isolation: isolate">
              <g id="Grupo_1017511" data-name="Grupo 1017511">
                <g id="Grupo_1017510" data-name="Grupo 1017510" clip-path="url(#clip-path-5)">
                  <path id="Trazado_718744" data-name="Trazado 718744" d="M30.564,383.258c1.582-3.523,6.609-4.307,9.948-5,4.15-.862,8.1-1.727,10.695-5.007v-3.3H24.532V391.2h7.876c-1.484-2.291-3.037-5.281-1.845-7.937" transform="translate(-24.532 -369.955)" fill="#83b3ff"/>
                </g>
              </g>
            </g>
            <path id="Trazado_718745" data-name="Trazado 718745" d="M16.921,397.748l-.7-1.638a.767.767,0,0,0-1.012-.382l-.531.227a.859.859,0,0,1-.968-.191,7.268,7.268,0,0,0-.585-.554.8.8,0,0,1-.221-.936l.219-.522a.721.721,0,0,0-.417-.97l-1.7-.644a.8.8,0,0,0-1.012.432l-.223.521a.892.892,0,0,1-.845.537,7.1,7.1,0,0,0-.83.018.828.828,0,0,1-.839-.49l-.218-.51a.766.766,0,0,0-1.011-.381l-1.708.729a.764.764,0,0,0-.423.994l.219.509a.832.832,0,0,1-.225.947,7.268,7.268,0,0,0-.586.585.89.89,0,0,1-.971.239l-.529-.2a.8.8,0,0,0-1.015.434l-.711,1.674a.725.725,0,0,0,.416.971l.53.2a.8.8,0,0,1,.528.807,6.487,6.487,0,0,0,0,.8.861.861,0,0,1-.531.831l-.531.226a.762.762,0,0,0-.422.992l.7,1.638a.764.764,0,0,0,1.012.38L2.3,404.8a.858.858,0,0,1,.969.191,6.69,6.69,0,0,0,.584.553.8.8,0,0,1,.219.936l-.221.52a.729.729,0,0,0,.418.973l1.7.641a.8.8,0,0,0,1.014-.431l.221-.521a.892.892,0,0,1,.845-.535,7.8,7.8,0,0,0,.83-.019.828.828,0,0,1,.841.491l.217.508a.768.768,0,0,0,1.014.382l1.708-.728a.761.761,0,0,0,.421-.995l-.216-.508a.825.825,0,0,1,.221-.946,7.372,7.372,0,0,0,.589-.585.892.892,0,0,1,.97-.239l.532.2a.8.8,0,0,0,1.014-.433l.711-1.673a.724.724,0,0,0-.417-.971l-.53-.2a.8.8,0,0,1-.525-.808,6.874,6.874,0,0,0,0-.8.854.854,0,0,1,.531-.831l.532-.226a.762.762,0,0,0,.421-.994M10.4,403.96a4.065,4.065,0,1,1-3.819-7.168A4.065,4.065,0,1,1,10.4,403.96" transform="translate(0 -264.7)" fill="#cfe3ff"/>
            <path id="Trazado_718746" data-name="Trazado 718746" d="M48.893,414.9l-.466-1.09a.509.509,0,0,0-.673-.254l-.353.15a.571.571,0,0,1-.644-.126,4.652,4.652,0,0,0-.389-.368.536.536,0,0,1-.148-.623l.147-.347a.48.48,0,0,0-.278-.645l-1.134-.428a.53.53,0,0,0-.673.288l-.148.346a.593.593,0,0,1-.562.357,4.633,4.633,0,0,0-.553.012.553.553,0,0,1-.558-.327l-.145-.339a.51.51,0,0,0-.673-.254l-1.136.485a.508.508,0,0,0-.281.661l.145.338a.553.553,0,0,1-.15.631,4.845,4.845,0,0,0-.39.389.593.593,0,0,1-.645.159l-.353-.134a.535.535,0,0,0-.675.289l-.473,1.114a.482.482,0,0,0,.276.646l.352.133a.532.532,0,0,1,.352.537,4.3,4.3,0,0,0,0,.533.574.574,0,0,1-.354.554l-.352.15a.508.508,0,0,0-.282.661l.466,1.089a.509.509,0,0,0,.674.253l.353-.15a.573.573,0,0,1,.645.127,4.431,4.431,0,0,0,.389.368.531.531,0,0,1,.145.623l-.147.345a.485.485,0,0,0,.279.647l1.133.427a.534.534,0,0,0,.674-.287l.147-.346a.593.593,0,0,1,.562-.356,5.387,5.387,0,0,0,.551-.012.55.55,0,0,1,.559.326l.145.339a.509.509,0,0,0,.674.253l1.136-.485a.5.5,0,0,0,.28-.661l-.143-.338a.55.55,0,0,1,.147-.629,4.765,4.765,0,0,0,.391-.39.6.6,0,0,1,.647-.159l.353.132a.535.535,0,0,0,.675-.288l.472-1.113a.482.482,0,0,0-.277-.647l-.353-.133a.532.532,0,0,1-.349-.536,4.643,4.643,0,0,0,0-.534.568.568,0,0,1,.353-.553l.354-.151a.506.506,0,0,0,.279-.66" transform="translate(-25.409 -277.556)" fill="#5d81ec"/>
            <path id="Trazado_718747" data-name="Trazado 718747" d="M71.895,278.232a117.948,117.948,0,0,0,10.118,7.745,56.173,56.173,0,0,0,3.943-8.537l2.291,1.169a30.452,30.452,0,0,1-2.7,8.944,4.817,4.817,0,0,1-1.605,2.114c-1.487.921-3.362.042-4.876-.834l-4.857-2.809a2.261,2.261,0,0,1-.675-.515,2.46,2.46,0,0,1-.4-1.194,40.9,40.9,0,0,0-1.239-6.082" transform="translate(-48.537 -187.301)" fill="#fa6e61"/>
            <path id="Trazado_718748" data-name="Trazado 718748" d="M73.471,283.12a1.177,1.177,0,0,1,.423.738,1.191,1.191,0,0,1-.182.564l-1.782,3.427a.436.436,0,0,1-.182.216.442.442,0,0,1-.329-.033c-1.883-.707-3.892-1.51-5-3.19a8,8,0,0,1-1.086-3.608,3.487,3.487,0,0,1,.272-2.176c.383-.639.935-.942,1.548-.521a42.669,42.669,0,0,1,6.319,4.583" transform="translate(-44.071 -187.91)" fill="#ffbf00"/>
            <path id="Trazado_718749" data-name="Trazado 718749" d="M114,269.258a6.6,6.6,0,0,0,.334-2.61,3.081,3.081,0,0,1-.006-1.611c.047-.1.178-.2.289-.126a.245.245,0,0,1,.079.224,4.383,4.383,0,0,0,.272,1.253,9.081,9.081,0,0,0,.829-2.022.955.955,0,0,1,.172-.388c.1-.109.323-.242.431-.121a9.014,9.014,0,0,1-.466,2.118l.711-1.668c.057-.136.231-.3.361-.187.174.153-.337,1.478-.5,2.217q.37-.777.74-1.554c.1-.208.4-.546.476-.313.146.425-.4,1.46-.665,2.235l.569-.937c.063-.1.215-.213.316-.118a.181.181,0,0,1,.029.184,29.225,29.225,0,0,1-1.329,3.807c-.748-.427-2,.221-2.638-.384" transform="translate(-76.962 -178.099)" fill="#fa6e61"/>
            <path id="Trazado_718750" data-name="Trazado 718750" d="M154.04,435.079c1.024,1.073,2.674,1.179,3.872,2.038a.648.648,0,0,1,.217.225.481.481,0,0,1-.219.584,1.309,1.309,0,0,1-.649.134l-3.792.121a1.05,1.05,0,0,1-.407-.041,1.127,1.127,0,0,1-.535-.7q-.515-1.277-1.029-2.555a9.458,9.458,0,0,1,2.542.2" transform="translate(-102.277 -293.583)" fill="#132444"/>
            <path id="Trazado_718751" data-name="Trazado 718751" d="M164.217,415.993c.756,1.276,2.339,1.751,3.313,2.858a.648.648,0,0,1,.161.268.482.482,0,0,1-.345.52,1.317,1.317,0,0,1-.662-.016l-3.722-.737a1.047,1.047,0,0,1-.388-.132,1.131,1.131,0,0,1-.363-.8q-.213-1.36-.426-2.721a9.477,9.477,0,0,1,2.432.764" transform="translate(-109.222 -280.323)" fill="#132444"/>
            <path id="Trazado_718752" data-name="Trazado 718752" d="M38.563,339.33s-1.775,5.1,0,7.935,5.692,3.023,10.217,3.023,17.039-1.135,17.039-1.135,4.814,6.043,10.444,18.014l6.353-2.155c-5.57-14.15-5.5-14.09-6.353-16.079-1.765-4.137-2.3-8.1-12.7-8.463-4.8-.174-25-1.14-25-1.14" transform="translate(-25.502 -229.083)" fill="#2d4c7f"/>
            <path id="Trazado_718753" data-name="Trazado 718753" d="M26.522,339.639a28.282,28.282,0,0,0-.656,7.834c.573,4.762,8.79,5.074,10.466,5.1,4.53.062,19.52-1.7,19.52-1.7s4.961,11.639,6.377,15.049a43.115,43.115,0,0,0,3.191,6.881l7-1.8s-7.162-20.324-8.789-23.865c-1.877-4.087-2.362-6.095-12.764-6.458-4.8-.174-24.34-1.039-24.34-1.039" transform="translate(-17.402 -229.292)" fill="#2e6adb"/>
            <g id="Grupo_1017515" data-name="Grupo 1017515" transform="translate(8.375 110.347)" opacity="0.4" style="mix-blend-mode: multiply;isolation: isolate">
              <g id="Grupo_1017514" data-name="Grupo 1017514">
                <g id="Grupo_1017513" data-name="Grupo 1017513" clip-path="url(#clip-path-6)">
                  <path id="Trazado_718754" data-name="Trazado 718754" d="M33.841,347.2c1.095-2.265,4.512-2.5,6.688-2.67,3.136-.243,6.325-.527,9.469-.532,3.286-.006,7,.392,9.454,2.833,2.542,2.525,3.624,5.987,4.791,9.282,1.144,3.233,2.366,6.437,3.489,9.678a44.8,44.8,0,0,1,1.91,5.921L72.415,371s-7.162-20.324-8.789-23.865c-1.877-4.087-2.362-6.095-12.764-6.458-4.8-.174-24.34-1.039-24.34-1.039a28.282,28.282,0,0,0-.656,7.834c.573,4.762,8.79,5.074,10.466,5.1h.017c-1.834-1.24-3.542-3.227-2.507-5.367" transform="translate(-25.778 -339.639)" fill="#2e6adb"/>
                </g>
              </g>
            </g>
            <path id="Trazado_718755" data-name="Trazado 718755" d="M100.817,300.19,95.861,314.6l12.906.506,5.381-14.469Z" transform="translate(-64.716 -202.659)" fill="#e1edff"/>
            <path id="Trazado_718756" data-name="Trazado 718756" d="M72.1,342.545l-.015-.521,8.218.179-.218.631Z" transform="translate(-48.665 -230.902)" fill="#e1edff"/>
            <g id="Grupo_1017518" data-name="Grupo 1017518" transform="translate(31.145 98.104)" style="mix-blend-mode: multiply;isolation: isolate">
              <g id="Grupo_1017517" data-name="Grupo 1017517">
                <g id="Grupo_1017516" data-name="Grupo 1017516" clip-path="url(#clip-path-7)">
                  <path id="Trazado_718757" data-name="Trazado 718757" d="M107.511,315.684c-5.584-1.916-7.736-8.255-6.892-13.73L95.861,315.79l12.906.506.1-.269a8.858,8.858,0,0,1-1.355-.343" transform="translate(-95.861 -301.954)" fill="#e1edff"/>
                </g>
              </g>
            </g>
            <path id="Trazado_718758" data-name="Trazado 718758" d="M40.621,276.369a12.23,12.23,0,0,0-3.008-1.386,21.866,21.866,0,0,0-5.6-.47,16.132,16.132,0,0,0-4.053,1.179c-2,.722-2.344,1.188-3.082,3.641-.518,1.709.961,16.322.961,16.322l15.408.914-.221-12.33Z" transform="translate(-16.723 -185.308)" fill="#ffbf00"/>
            <path id="Trazado_718759" data-name="Trazado 718759" d="M37.241,293.363c-2.788-.277-5.512-5.892-5.512-8.286,0-5.212-3.048-7.118-2.219-8.591-.449.156-.956.341-1.547.555-2,.721-2.343,1.188-3.082,3.641-.518,1.709.961,16.322.961,16.322l15.409.914-.092-5.138a8.334,8.334,0,0,1-3.917.583" transform="translate(-16.723 -186.657)" fill="#ffa607"/>
            <path id="Trazado_718760" data-name="Trazado 718760" d="M57.511,304.183c.521-.778,1.208-1.5,1.7-2.342a12.722,12.722,0,0,0,1.154-2.688" transform="translate(-38.826 -201.959)" fill="none" stroke="#26395e" stroke-miterlimit="10" stroke-width="0.5"/>
            <path id="Trazado_718761" data-name="Trazado 718761" d="M61.021,313.332c.453-.626.889-1.3,1.3-1.96.42-.68.692-1.486,1.141-2.117" transform="translate(-41.196 -208.779)" fill="none" stroke="#26395e" stroke-miterlimit="10" stroke-width="0.5"/>
            <path id="Trazado_718762" data-name="Trazado 718762" d="M26.4,287.159c2.159,1.3,1.826,3.591,2.323,5.883.471,2.173.3,5.466.923,7.588.924,3.161,10.711,2.007,13.859,1.769a4.464,4.464,0,0,0-.518,2.626c-4.212.731-8.52,1.466-12.763.928a8.69,8.69,0,0,1-3.349-.992c-2.146-1.277-2.869-3.766-3.27-6.05a50.751,50.751,0,0,1-.744-7.381,5.1,5.1,0,0,1,.734-3.343,2.917,2.917,0,0,1,2.805-1.029" transform="translate(-15.425 -193.799)" fill="#fa6e61"/>
            <path id="Trazado_718763" data-name="Trazado 718763" d="M26.39,282.335a43.248,43.248,0,0,1,2.261,10.693,47.659,47.659,0,0,0-6.844.652,26.58,26.58,0,0,1-.515-6.061c0-1.95.193-4.4.921-5.476.69-1.018,2.086-1.539,2.721-1.226a2.781,2.781,0,0,1,1.456,1.418" transform="translate(-14.374 -189.588)" fill="#ffbf00"/>
            <path id="Trazado_718764" data-name="Trazado 718764" d="M83.774,331.893a4.27,4.27,0,0,0,2.138-.562,4.216,4.216,0,0,1,1.848-.622c.135.007.305.1.272.234-.023.1-.132.133-.223.163-.357.119-1.642.87-1.319.745a13.135,13.135,0,0,0,2.689.037,1.367,1.367,0,0,1,.522.021c.167.052.42.222.329.375a12.962,12.962,0,0,1-2.639.354l2.232.057c.181,0,.448.111.374.282-.1.228-1.847.236-2.771.353l2.113.13c.283.018.8.179.57.346-.424.306-1.851.172-2.861.2l1.328.2c.146.022.341.129.275.265-.033.071-.123.089-.2.1a45.778,45.778,0,0,1-5.079,0,9.652,9.652,0,0,1,.4-2.677" transform="translate(-56.284 -223.262)" fill="#fa6e61"/>
            <path id="Trazado_718765" data-name="Trazado 718765" d="M47.205,263.129a6.944,6.944,0,0,0,.755,2.986,3.457,3.457,0,0,1-2.48.443,4.627,4.627,0,0,1-1.248-.256.267.267,0,0,1-.118-.076.263.263,0,0,1-.035-.138q-.157-2.778-.234-5.56c.851.252,1.782.083,2.645.3a.433.433,0,0,1,.379.368,7.145,7.145,0,0,1,.336,1.935" transform="translate(-29.601 -175.884)" fill="#fa6e61"/>
            <path id="Trazado_718766" data-name="Trazado 718766" d="M44.889,263.469c-.645-.865-.639-1.974-1.039-2.937.851.252,1.781.082,2.643.3a.557.557,0,0,1,.233.1.564.564,0,0,1,.147.266,7.145,7.145,0,0,1,.336,1.935,6.866,6.866,0,0,0,.255,1.693,3.527,3.527,0,0,1-2.574-1.355" transform="translate(-29.603 -175.886)" fill="#d75246"/>
            <path id="Trazado_718767" data-name="Trazado 718767" d="M47.355,251.693c.213.623.25,1.288.437,1.917.255.861.791,1.747.482,2.589a1.857,1.857,0,0,1-1.778,1.084,3.3,3.3,0,0,1-2.02-.85,5.068,5.068,0,0,1-1.8-3.672,1.317,1.317,0,0,1,.514-1.264,4.346,4.346,0,0,1,1.848-.827,2.106,2.106,0,0,1,2.319,1.024" transform="translate(-28.808 -169.192)" fill="#fa6e61"/>
            <path id="Trazado_718768" data-name="Trazado 718768" d="M44.193,248.144a2.007,2.007,0,0,1,1.595,1.731.238.238,0,0,1-.032.173c-.07.088-.215.056-.313,0a.506.506,0,0,0-.311-.122c-.185.027-.221.263-.3.425a1,1,0,0,1-.887.4,1.828,1.828,0,0,1-.993-.19c-.2-.115-.36-.288-.568-.389a.511.511,0,0,0-.631.084c-.161.233.041.574-.091.824a.527.527,0,0,1-.5.226,1.044,1.044,0,0,1-.839-.593,1.447,1.447,0,0,1-.052-1.03,1.949,1.949,0,0,1,.6-.926,4.185,4.185,0,0,1,2.564-.7c.358-.018.757-.023.763.087" transform="translate(-27.136 -167.458)" fill="#141d30"/>
            <path id="Trazado_718769" data-name="Trazado 718769" d="M49.392,247.277l2.592-.38a2.162,2.162,0,0,1,.718-.023,1.419,1.419,0,0,1,.811.539,1.948,1.948,0,0,1,.217,2.045,1.215,1.215,0,0,1-1.231.723c-.538-.108-.824-.664-1.29-.944a.39.39,0,0,0-.332-.065.664.664,0,0,0-.158.121.691.691,0,0,1-.626.094,1.131,1.131,0,0,1-.523-.374,1.572,1.572,0,0,1-.179-1.735" transform="translate(-33.221 -166.65)" fill="#141d30"/>
            <path id="Trazado_718770" data-name="Trazado 718770" d="M42.064,252.865a3.324,3.324,0,0,0-.086,1.631.885.885,0,0,1,.027.219.735.735,0,0,1-.073.242l-.457,1.072a3.3,3.3,0,0,1-1.248-2.639c-.025-.25.023-.281.163-.49a1.229,1.229,0,0,1,1.122-.361.8.8,0,0,1,.391.088c.114.071.19.221.161.238" transform="translate(-27.153 -170.487)" fill="#141d30"/>
            <path id="Trazado_718771" data-name="Trazado 718771" d="M43.15,258.592a.939.939,0,0,0-.908-.451c-.63.079-.163,1.285.862,1.553a.305.305,0,0,0,.428-.412,1.339,1.339,0,0,0-.382-.69" transform="translate(-28.325 -174.268)" fill="#fa6e61"/>
            <ellipse id="Elipse_5878" data-name="Elipse 5878" cx="64.571" cy="36.64" rx="64.571" ry="36.64" transform="translate(37.517 22.077)" fill="none" stroke="#2e6adb" stroke-miterlimit="10" stroke-width="1"/>
            <path id="Trazado_718772" data-name="Trazado 718772" d="M106.186,160.962a15.569,15.569,0,1,1-15.569-15.569,15.569,15.569,0,0,1,15.569,15.569" transform="translate(-50.665 -98.155)" fill="#e1edff"/>
            <path id="Trazado_718773" data-name="Trazado 718773" d="M107.913,164.292a13.966,13.966,0,1,1-13.966-13.967,13.966,13.966,0,0,1,13.966,13.967" transform="translate(-53.995 -101.485)" fill="#5d81ec"/>
            <g id="Grupo_1017521" data-name="Grupo 1017521" transform="translate(25.985 49.552)" style="mix-blend-mode: multiply;isolation: isolate">
              <g id="Grupo_1017520" data-name="Grupo 1017520">
                <g id="Grupo_1017519" data-name="Grupo 1017519" clip-path="url(#clip-path-8)">
                  <path id="Trazado_718774" data-name="Trazado 718774" d="M98.024,173.315a16.2,16.2,0,0,1-8.8-9.248,13.771,13.771,0,0,1,.322-11.55,13.966,13.966,0,1,0,15.1,22.23,21.806,21.806,0,0,1-6.621-1.431" transform="translate(-79.98 -152.516)" fill="#b8d0ff"/>
                </g>
              </g>
            </g>
          </g>
        </g>
        <g id="Grupo_1017525" data-name="Grupo 1017525" transform="translate(25.985 48.84)">
          <g id="Grupo_1017524" data-name="Grupo 1017524" clip-path="url(#clip-path-9)">
            <path id="Trazado_718775" data-name="Trazado 718775" d="M99.087,210.1a.464.464,0,0,1-.291.589l-1.816.613a.466.466,0,0,1-.59-.294L94.06,204.1a.466.466,0,0,1,.292-.589l1.817-.613a.465.465,0,0,1,.589.292Z" transform="translate(-89.469 -185.8)" fill="#83b3ff"/>
            <path id="Trazado_718776" data-name="Trazado 718776" d="M94.011,194.055a.517.517,0,0,1-.406.608l-2.663.531a.516.516,0,0,1-.607-.406l-1.113-5.579a.519.519,0,0,1,.407-.609l2.662-.53a.518.518,0,0,1,.61.406Z" transform="translate(-86.213 -175.801)" fill="#fff"/>
            <path id="Trazado_718777" data-name="Trazado 718777" d="M118.3,176.9l-16.775-1.533-1.15-5.779,14.611-9.321Z" transform="translate(-93.747 -157.039)" fill="#fff"/>
            <path id="Trazado_718778" data-name="Trazado 718778" d="M102.908,184.982l-.4-2.386a15.419,15.419,0,0,1,5.918-1.99c2.655-.362,6.346-.543,7.6-3.379a19.957,19.957,0,0,1,1.256-2.736l2.4,12.026Z" transform="translate(-95.189 -166.64)" fill="#b8d0ff"/>
            <path id="Trazado_718779" data-name="Trazado 718779" d="M147.36,168.313c.916,4.594,1.063,8.435.33,8.581s-2.07-3.458-2.985-8.052-1.062-8.436-.33-8.582,2.071,3.459,2.985,8.053" transform="translate(-123.138 -157.03)" fill="#83b3ff"/>
            <path id="Trazado_718780" data-name="Trazado 718780" d="M103.9,190.506a14.729,14.729,0,0,1,2.909-1.212,22,22,0,0,1,3.3-.629c1.035-.136,2.091-.25,3.118-.483a5.49,5.49,0,0,0,2.978-1.633" transform="translate(-96.131 -174.78)" fill="none" stroke="#26395e" stroke-linecap="round" stroke-miterlimit="10" stroke-width="0.5"/>
            <path id="Trazado_718781" data-name="Trazado 718781" d="M145.926,182.943c-.338-1.341-.733-3.132-.817-3.836-.047-.408-.183-.99-.264-1.624a3.738,3.738,0,0,1,.489-.163,2.858,2.858,0,1,1,1.117,5.606,3.17,3.17,0,0,1-.526.017" transform="translate(-123.771 -168.512)" fill="#ffbf00"/>
            <path id="Trazado_718782" data-name="Trazado 718782" d="M147.138,184.577a2.9,2.9,0,0,1-1.373-.882c.128.816.478,2.383.782,3.589a3.17,3.17,0,0,0,.526-.017,2.858,2.858,0,0,0,2.3-2.822,3.141,3.141,0,0,1-2.234.132" transform="translate(-124.392 -172.854)" fill="#ffa607"/>
            <path id="Trazado_718783" data-name="Trazado 718783" d="M94.975,200.555l-.571-2.867a2.911,2.911,0,0,1-3.764.3l.659,3.3a.516.516,0,0,0,.607.406l2.663-.531a.517.517,0,0,0,.406-.608" transform="translate(-87.177 -182.3)" fill="#b8d0ff"/>
          </g>
        </g>
        <g id="Grupo_1017536" data-name="Grupo 1017536">
          <g id="Grupo_1017535" data-name="Grupo 1017535" clip-path="url(#clip-path)">
            <path id="Trazado_718785" data-name="Trazado 718785" d="M171.586,44.216a15.569,15.569,0,1,1-15.569-15.569,15.569,15.569,0,0,1,15.569,15.569" transform="translate(-94.816 -19.34)" fill="#e1edff"/>
            <path id="Trazado_718786" data-name="Trazado 718786" d="M173.314,47.547A13.967,13.967,0,1,1,159.347,33.58a13.967,13.967,0,0,1,13.967,13.967" transform="translate(-98.147 -22.67)" fill="#83b3ff"/>
            <g id="Grupo_1017528" data-name="Grupo 1017528" transform="translate(47.234 11.622)" style="mix-blend-mode: multiply;isolation: isolate">
              <g id="Grupo_1017527" data-name="Grupo 1017527">
                <g id="Grupo_1017526" data-name="Grupo 1017526" clip-path="url(#clip-path-11)">
                  <path id="Trazado_718787" data-name="Trazado 718787" d="M163.425,56.569a16.2,16.2,0,0,1-8.8-9.248,13.77,13.77,0,0,1,.323-11.55A13.966,13.966,0,1,0,170.046,58a21.816,21.816,0,0,1-6.621-1.432" transform="translate(-145.381 -35.77)" fill="#b8d0ff"/>
                </g>
              </g>
            </g>
            <path id="Trazado_718788" data-name="Trazado 718788" d="M180.059,66.2a1.925,1.925,0,0,1-1.872,1.979l-16.363.451a1.925,1.925,0,0,1-1.978-1.871l-.254-9.2a1.926,1.926,0,0,1,1.872-1.978l16.362-.451A1.925,1.925,0,0,1,179.805,57Z" transform="translate(-107.74 -37.22)" fill="#fff"/>
            <path id="Trazado_718789" data-name="Trazado 718789" d="M162.35,94.008s1.218-.3,1.729-2.476a10.813,10.813,0,0,0-.01-4.384l6.13.932s-1.792,3.684-3.359,4.876c-2.488,1.9-4.49,1.052-4.49,1.052" transform="translate(-109.603 -58.834)" fill="#fff"/>
            <path id="Trazado_718790" data-name="Trazado 718790" d="M177.044,70.858a1.066,1.066,0,1,1-1.091-1.041,1.067,1.067,0,0,1,1.091,1.041" transform="translate(-118.084 -47.134)" fill="#2e6adb"/>
            <path id="Trazado_718791" data-name="Trazado 718791" d="M190.911,70.533a1.066,1.066,0,1,1-1.09-1.041,1.065,1.065,0,0,1,1.09,1.041" transform="translate(-127.446 -46.914)" fill="#ffbf00"/>
            <path id="Trazado_718792" data-name="Trazado 718792" d="M204.781,70.207a1.066,1.066,0,1,1-1.091-1.041,1.067,1.067,0,0,1,1.091,1.041" transform="translate(-136.809 -46.694)" fill="#2e6adb"/>
            <g id="Grupo_1017531" data-name="Grupo 1017531" transform="translate(51.85 18.348)" opacity="0.3" style="mix-blend-mode: multiply;isolation: isolate">
              <g id="Grupo_1017530" data-name="Grupo 1017530">
                <g id="Grupo_1017529" data-name="Grupo 1017529" clip-path="url(#clip-path-12)">
                  <path id="Trazado_718793" data-name="Trazado 718793" d="M172,65.5c-2.925-.211-6.292-.939-8.278-3.3a7.8,7.8,0,0,1-1.671-5.735l-.584.016a1.926,1.926,0,0,0-1.872,1.978l.254,9.2a1.925,1.925,0,0,0,1.978,1.871l.588-.016a8.562,8.562,0,0,1-.195,1.306c-.512,2.178-1.73,2.476-1.73,2.476s2,.843,4.49-1.052a11.1,11.1,0,0,0,2.253-2.863l10.957-.3a1.925,1.925,0,0,0,1.871-1.978L180,64.955a31.3,31.3,0,0,1-8,.548" transform="translate(-159.59 -56.472)" fill="#b8d0ff"/>
                </g>
              </g>
            </g>
            <line id="Línea_3238" data-name="Línea 3238" y1="0.203" x2="12.671" transform="translate(55.634 27.567)" fill="none" stroke="#26395e" stroke-linecap="round" stroke-miterlimit="10" stroke-width="0.5"/>
            <line id="Línea_3239" data-name="Línea 3239" y1="0.17" x2="13.955" transform="translate(55.046 28.413)" fill="none" stroke="#26395e" stroke-linecap="round" stroke-miterlimit="10" stroke-width="0.5"/>
            <path id="Trazado_718794" data-name="Trazado 718794" d="M301.809,15.57A15.569,15.569,0,1,1,286.24,0,15.569,15.569,0,0,1,301.809,15.57" transform="translate(-182.73 -0.001)" fill="#e1edff"/>
            <path id="Trazado_718795" data-name="Trazado 718795" d="M303.538,18.9A13.967,13.967,0,1,1,289.572,4.934,13.966,13.966,0,0,1,303.538,18.9" transform="translate(-186.062 -3.331)" fill="#5d81ec"/>
            <g id="Grupo_1017534" data-name="Grupo 1017534" transform="translate(89.543 2.314)" style="mix-blend-mode: multiply;isolation: isolate">
              <g id="Grupo_1017533" data-name="Grupo 1017533">
                <g id="Grupo_1017532" data-name="Grupo 1017532" clip-path="url(#clip-path-11)">
                  <path id="Trazado_718796" data-name="Trazado 718796" d="M293.649,27.922a16.2,16.2,0,0,1-8.8-9.249,13.774,13.774,0,0,1,.322-11.55,13.966,13.966,0,1,0,15.1,22.23,21.823,21.823,0,0,1-6.621-1.431" transform="translate(-275.605 -7.123)" fill="#b8d0ff"/>
                </g>
              </g>
            </g>
          </g>
        </g>
        <g id="Grupo_1017544" data-name="Grupo 1017544" transform="translate(89.543 1.603)">
          <g id="Grupo_1017543" data-name="Grupo 1017543" clip-path="url(#clip-path-14)">
            <rect id="Rectángulo_350295" data-name="Rectángulo 350295" width="2.484" height="7.324" transform="translate(-15.139 13.887)" fill="#b8d0ff"/>
            <rect id="Rectángulo_350296" data-name="Rectángulo 350296" width="2.488" height="12.037" transform="translate(-8.98 9.174)" fill="#b8d0ff"/>
            <rect id="Rectángulo_350297" data-name="Rectángulo 350297" width="2.485" height="13.822" transform="translate(-2.818 7.389)" fill="#b8d0ff"/>
            <rect id="Rectángulo_350298" data-name="Rectángulo 350298" width="2.487" height="12.152" transform="translate(3.341 9.06)" fill="#ffbf00"/>
            <rect id="Rectángulo_350299" data-name="Rectángulo 350299" width="2.485" height="13.212" transform="translate(9.501 8)" fill="#ffbf00"/>
            <rect id="Rectángulo_350300" data-name="Rectángulo 350300" width="2.487" height="17.425" transform="translate(15.66 3.786)" fill="#ffbf00"/>
            <rect id="Rectángulo_350301" data-name="Rectángulo 350301" width="1.28" height="9.795" transform="translate(-11.506 11.417)" fill="#b8d0ff"/>
            <rect id="Rectángulo_350302" data-name="Rectángulo 350302" width="1.281" height="9.795" transform="translate(-5.204 11.417)" fill="#b8d0ff"/>
            <rect id="Rectángulo_350303" data-name="Rectángulo 350303" width="1.282" height="9.795" transform="translate(0.995 11.417)" fill="#b8d0ff"/>
            <rect id="Rectángulo_350304" data-name="Rectángulo 350304" width="1.281" height="9.795" transform="translate(6.872 11.417)" fill="#b8d0ff"/>
            <rect id="Rectángulo_350305" data-name="Rectángulo 350305" width="1.283" height="9.795" transform="translate(13.497 11.417)" fill="#b8d0ff"/>
            <rect id="Rectángulo_350306" data-name="Rectángulo 350306" width="36.334" height="0.731" transform="translate(-16.397 20.884)" fill="#fff"/>
            <path id="Trazado_718797" data-name="Trazado 718797" d="M313.374,71.951a.963.963,0,0,1-1.817-.641l4.809-13.654a.963.963,0,1,1,1.816.639Z" transform="translate(-299.839 -40.092)" fill="#83b3ff"/>
            <path id="Trazado_718798" data-name="Trazado 718798" d="M313.086,65.372l-4.04,11.472A1.741,1.741,0,1,0,312.331,78l4.039-11.471Z" transform="translate(-298.114 -45.736)" fill="#b8d0ff"/>
            <g id="Grupo_1017539" data-name="Grupo 1017539" transform="translate(10.833 19.636)" opacity="0.3" style="mix-blend-mode: multiply;isolation: isolate">
              <g id="Grupo_1017538" data-name="Grupo 1017538">
                <g id="Grupo_1017537" data-name="Grupo 1017537" clip-path="url(#clip-path-15)">
                  <path id="Trazado_718799" data-name="Trazado 718799" d="M311.8,78.719a1.741,1.741,0,0,1-1.064-2.22l3.745-10.635-1.394-.492-4.04,11.472a1.741,1.741,0,0,0,2.791,1.886l-.038-.011" transform="translate(-308.947 -65.372)" fill="#0093cc"/>
                </g>
              </g>
            </g>
            <path id="Trazado_718800" data-name="Trazado 718800" d="M327.618,33.905a6.594,6.594,0,1,1-4.365-8.24,6.594,6.594,0,0,1,4.365,8.24" transform="translate(-302.011 -18.732)" fill="#fff"/>
            <path id="Trazado_718801" data-name="Trazado 718801" d="M328.657,35.558a5.668,5.668,0,1,1-3.752-7.084,5.666,5.666,0,0,1,3.752,7.084" transform="translate(-303.935 -20.656)" fill="#4e73a8"/>
            <path id="Trazado_718802" data-name="Trazado 718802" d="M329.038,36.149a5.3,5.3,0,1,1-3.512-6.629,5.3,5.3,0,0,1,3.512,6.629" transform="translate(-304.672 -21.372)" fill="#b8d0ff"/>
            <g id="Grupo_1017542" data-name="Grupo 1017542" transform="translate(13.952 7.959)" opacity="0.4">
              <g id="Grupo_1017541" data-name="Grupo 1017541">
                <g id="Grupo_1017540" data-name="Grupo 1017540" clip-path="url(#clip-path-16)">
                  <path id="Trazado_718803" data-name="Trazado 718803" d="M322.761,30.593a8.161,8.161,0,0,1,.459-1.164,5.331,5.331,0,1,0,3.248,9.95c-3.193-1.262-4.844-5.086-3.706-8.786" transform="translate(-318.547 -29.429)" fill="#fff"/>
                </g>
              </g>
            </g>
          </g>
        </g>
        <g id="Grupo_1017558" data-name="Grupo 1017558">
          <g id="Grupo_1017557" data-name="Grupo 1017557" clip-path="url(#clip-path)">
            <path id="Trazado_718805" data-name="Trazado 718805" d="M226.778,262.4a15.569,15.569,0,1,1-15.569-15.569A15.569,15.569,0,0,1,226.778,262.4" transform="translate(-132.077 -166.635)" fill="#e1edff"/>
            <path id="Trazado_718806" data-name="Trazado 718806" d="M228.505,265.728a13.967,13.967,0,1,1-13.966-13.967,13.966,13.966,0,0,1,13.966,13.967" transform="translate(-135.407 -169.965)" fill="#83b3ff"/>
            <g id="Grupo_1017547" data-name="Grupo 1017547" transform="translate(65.165 82.507)" style="mix-blend-mode: multiply;isolation: isolate">
              <g id="Grupo_1017546" data-name="Grupo 1017546">
                <g id="Grupo_1017545" data-name="Grupo 1017545" clip-path="url(#clip-path-11)">
                  <path id="Trazado_718807" data-name="Trazado 718807" d="M218.617,274.749a16.2,16.2,0,0,1-8.8-9.248,13.773,13.773,0,0,1,.322-11.551,13.967,13.967,0,1,0,15.1,22.23,21.813,21.813,0,0,1-6.621-1.431" transform="translate(-200.572 -253.95)" fill="#b8d0ff"/>
                </g>
              </g>
            </g>
            <path id="Trazado_718808" data-name="Trazado 718808" d="M227.861,279.6a3.282,3.282,0,0,0-2.876-1.532h-7.677v13.872h17.058V279.6Z" transform="translate(-146.706 -187.724)" fill="#2d4c7f"/>
            <rect id="Rectángulo_350310" data-name="Rectángulo 350310" width="14.189" height="11.413" transform="translate(72.037 87.082)" fill="#fff"/>
            <line id="Línea_3240" data-name="Línea 3240" x1="12.022" transform="translate(73.12 88.806)" fill="none" stroke="#26395e" stroke-linecap="round" stroke-miterlimit="10" stroke-width="0.5"/>
            <line id="Línea_3241" data-name="Línea 3241" x1="12.022" transform="translate(73.12 90.071)" fill="none" stroke="#26395e" stroke-linecap="round" stroke-miterlimit="10" stroke-width="0.5"/>
            <line id="Línea_3242" data-name="Línea 3242" x1="12.022" transform="translate(73.12 91.335)" fill="none" stroke="#26395e" stroke-linecap="round" stroke-miterlimit="10" stroke-width="0.5"/>
            <line id="Línea_3243" data-name="Línea 3243" x1="12.022" transform="translate(73.12 92.598)" fill="none" stroke="#26395e" stroke-linecap="round" stroke-miterlimit="10" stroke-width="0.5"/>
            <g id="Grupo_1017550" data-name="Grupo 1017550" transform="translate(72.037 87.082)" opacity="0.3" style="mix-blend-mode: multiply;isolation: isolate">
              <g id="Grupo_1017549" data-name="Grupo 1017549">
                <g id="Grupo_1017548" data-name="Grupo 1017548" clip-path="url(#clip-path-19)">
                  <path id="Trazado_718809" data-name="Trazado 718809" d="M231.568,274.721a10.382,10.382,0,0,1-6.926-6.691h-2.918v11.413h14.189v-4.594a8.385,8.385,0,0,1-4.344-.128" transform="translate(-221.724 -268.03)" fill="#b8d0ff"/>
                </g>
              </g>
            </g>
            <path id="Trazado_718810" data-name="Trazado 718810" d="M234.189,301.972v-8.8a2.042,2.042,0,0,0-2.042-2.042H218.841a2.042,2.042,0,0,0-2.042,2.042v8.8Z" transform="translate(-146.362 -196.54)" fill="#ffbf00"/>
            <line id="Línea_3244" data-name="Línea 3244" x1="13.494" transform="translate(72.393 95.443)" fill="none" stroke="#26395e" stroke-linecap="round" stroke-miterlimit="10" stroke-width="0.5"/>
            <g id="Grupo_1017553" data-name="Grupo 1017553" transform="translate(70.437 94.586)" opacity="0.2" style="mix-blend-mode: multiply;isolation: isolate">
              <g id="Grupo_1017552" data-name="Grupo 1017552">
                <g id="Grupo_1017551" data-name="Grupo 1017551" clip-path="url(#clip-path-20)">
                  <path id="Trazado_718811" data-name="Trazado 718811" d="M227.478,298.7c-2.4-1.747-6.3-4.37-6.98-7.572h-1.658a2.042,2.042,0,0,0-2.042,2.042v8.8h17.39v-.286a17.52,17.52,0,0,1-6.711-2.987" transform="translate(-216.799 -291.126)" fill="#ffa607"/>
                </g>
              </g>
            </g>
            <path id="Trazado_718812" data-name="Trazado 718812" d="M376.845,262.4a15.569,15.569,0,1,1-15.569-15.569A15.569,15.569,0,0,1,376.845,262.4" transform="translate(-233.388 -166.635)" fill="#e1edff"/>
            <path id="Trazado_718813" data-name="Trazado 718813" d="M378.571,265.728A13.967,13.967,0,1,1,364.6,251.761a13.966,13.966,0,0,1,13.966,13.967" transform="translate(-236.717 -169.965)" fill="#5d81ec"/>
            <g id="Grupo_1017556" data-name="Grupo 1017556" transform="translate(113.921 82.507)" style="mix-blend-mode: multiply;isolation: isolate">
              <g id="Grupo_1017555" data-name="Grupo 1017555">
                <g id="Grupo_1017554" data-name="Grupo 1017554" clip-path="url(#clip-path-11)">
                  <path id="Trazado_718814" data-name="Trazado 718814" d="M368.682,274.749a16.2,16.2,0,0,1-8.8-9.248,13.771,13.771,0,0,1,.322-11.551,13.966,13.966,0,1,0,15.1,22.23,21.815,21.815,0,0,1-6.62-1.431" transform="translate(-350.638 -253.95)" fill="#b8d0ff"/>
                </g>
              </g>
            </g>
          </g>
        </g>
        <g id="Grupo_1017563" data-name="Grupo 1017563" transform="translate(113.921 81.796)">
          <g id="Grupo_1017562" data-name="Grupo 1017562" clip-path="url(#clip-path-22)">
            <rect id="Rectángulo_350315" data-name="Rectángulo 350315" width="21.386" height="25.292" transform="translate(3.146 6.688)" fill="#b8d0ff"/>
            <path id="Trazado_718815" data-name="Trazado 718815" d="M383.527,296.176a2.458,2.458,0,0,1-2.457,2.458h-13.1a2.456,2.456,0,0,1,0-4.913h13.1a2.457,2.457,0,0,1,2.457,2.454" transform="translate(-360.682 -280.089)" fill="#fff"/>
            <path id="Trazado_718816" data-name="Trazado 718816" d="M383.527,313.373a2.457,2.457,0,0,1-2.457,2.456h-13.1a2.456,2.456,0,0,1,0-4.912h13.1a2.457,2.457,0,0,1,2.457,2.456" transform="translate(-360.682 -291.697)" fill="#fff"/>
            <path id="Trazado_718817" data-name="Trazado 718817" d="M383.527,330.566a2.459,2.459,0,0,1-2.457,2.458h-13.1a2.456,2.456,0,0,1,0-4.912h13.1a2.456,2.456,0,0,1,2.457,2.454" transform="translate(-360.682 -303.306)" fill="#fff"/>
            <rect id="Rectángulo_350316" data-name="Rectángulo 350316" width="15.023" height="3.131" transform="translate(6.327 14.5)" fill="#b8d0ff"/>
            <rect id="Rectángulo_350317" data-name="Rectángulo 350317" width="15.023" height="3.132" transform="translate(6.327 20.109)" fill="#b8d0ff"/>
            <rect id="Rectángulo_350318" data-name="Rectángulo 350318" width="15.023" height="3.131" transform="translate(6.327 25.696)" fill="#b8d0ff"/>
            <rect id="Rectángulo_350319" data-name="Rectángulo 350319" width="7.97" height="0.773" transform="translate(9.854 15.282)" fill="#ffbf00"/>
            <path id="Trazado_718818" data-name="Trazado 718818" d="M383.525,278.647a2.456,2.456,0,0,1-2.457,2.456h-13.1a2.456,2.456,0,1,1,0-4.912h13.1a2.457,2.457,0,0,1,2.457,2.456" transform="translate(-360.68 -268.254)" fill="#fff"/>
            <rect id="Rectángulo_350320" data-name="Rectángulo 350320" width="15.022" height="3.131" transform="translate(6.328 8.803)" fill="#b8d0ff"/>
            <rect id="Rectángulo_350321" data-name="Rectángulo 350321" width="7.971" height="0.772" transform="translate(9.854 9.587)" fill="#ffbf00"/>
            <rect id="Rectángulo_350322" data-name="Rectángulo 350322" width="7.97" height="0.769" transform="translate(9.854 20.869)" fill="#ffbf00"/>
            <rect id="Rectángulo_350323" data-name="Rectángulo 350323" width="7.97" height="0.769" transform="translate(9.854 26.455)" fill="#ffbf00"/>
            <line id="Línea_3245" data-name="Línea 3245" x2="13.68" transform="translate(6.818 10.893)" fill="none" stroke="#26395e" stroke-linecap="round" stroke-miterlimit="10" stroke-width="0.5"/>
            <line id="Línea_3246" data-name="Línea 3246" x2="14.06" transform="translate(6.741 16.744)" fill="none" stroke="#26395e" stroke-linecap="round" stroke-miterlimit="10" stroke-width="0.5"/>
            <line id="Línea_3247" data-name="Línea 3247" x2="14.364" transform="translate(6.893 22.444)" fill="none" stroke="#26395e" stroke-linecap="round" stroke-miterlimit="10" stroke-width="0.5"/>
            <line id="Línea_3248" data-name="Línea 3248" x2="13.755" transform="translate(7.046 28.144)" fill="none" stroke="#26395e" stroke-linecap="round" stroke-miterlimit="10" stroke-width="0.5"/>
            <g id="Grupo_1017561" data-name="Grupo 1017561" transform="translate(3.146 6.688)" opacity="0.3" style="mix-blend-mode: multiply;isolation: isolate">
              <g id="Grupo_1017560" data-name="Grupo 1017560">
                <g id="Grupo_1017559" data-name="Grupo 1017559" clip-path="url(#clip-path-23)">
                  <path id="Trazado_718819" data-name="Trazado 718819" d="M372.116,289.414c-4.577-4.732-7.134-10.977-9.376-17.068h-2.42v25.292h21.386v-2.791a19.956,19.956,0,0,1-9.59-5.434" transform="translate(-360.32 -272.346)" fill="#b8d0ff"/>
                </g>
              </g>
            </g>
          </g>
        </g>
        <g id="Grupo_1017568" data-name="Grupo 1017568">
          <g id="Grupo_1017567" data-name="Grupo 1017567" clip-path="url(#clip-path)">
            <path id="Trazado_718821" data-name="Trazado 718821" d="M435.161,44.216a15.569,15.569,0,1,1-15.57-15.569,15.569,15.569,0,0,1,15.57,15.569" transform="translate(-272.757 -19.34)" fill="#e1edff"/>
            <path id="Trazado_718822" data-name="Trazado 718822" d="M436.888,47.547A13.967,13.967,0,1,1,422.921,33.58a13.967,13.967,0,0,1,13.967,13.967" transform="translate(-276.087 -22.67)" fill="#83b3ff"/>
            <g id="Grupo_1017566" data-name="Grupo 1017566" transform="translate(132.868 11.622)" style="mix-blend-mode: multiply;isolation: isolate">
              <g id="Grupo_1017565" data-name="Grupo 1017565">
                <g id="Grupo_1017564" data-name="Grupo 1017564" clip-path="url(#clip-path-25)">
                  <path id="Trazado_718823" data-name="Trazado 718823" d="M427,56.569a16.2,16.2,0,0,1-8.8-9.248,13.774,13.774,0,0,1,.323-11.55A13.966,13.966,0,1,0,433.621,58,21.812,21.812,0,0,1,427,56.569" transform="translate(-408.955 -35.77)" fill="#b8d0ff"/>
                </g>
              </g>
            </g>
          </g>
        </g>
        <g id="Grupo_1017573" data-name="Grupo 1017573" transform="translate(132.851 10.91)">
          <g id="Grupo_1017572" data-name="Grupo 1017572" clip-path="url(#clip-path-26)">
            <path id="Trazado_718824" data-name="Trazado 718824" d="M432.682,49.629a5.23,5.23,0,0,0,2.975-5.009c.005-2.894-1.857-5.243-4.16-5.247s-4.175,2.337-4.182,5.231a5.232,5.232,0,0,0,2.957,5.021c-4.861.64-8.635,5.148-8.646,10.627l-.013,7.15,19.66.037.014-7.15c.01-5.478-3.746-10-8.605-10.66" transform="translate(-417.484 -37.491)" fill="#e1edff"/>
            <g id="Grupo_1017571" data-name="Grupo 1017571" transform="translate(4.129 12.152)" opacity="0.8" style="mix-blend-mode: multiply;isolation: isolate">
              <g id="Grupo_1017570" data-name="Grupo 1017570">
                <g id="Grupo_1017569" data-name="Grupo 1017569" clip-path="url(#clip-path-27)">
                  <path id="Trazado_718825" data-name="Trazado 718825" d="M430.173,70.982c-4.813.688-8.536,5.168-8.547,10.609l-.013,7.15,19.66.037,0-2.438c-6.628-1.627-9.913-8.2-11.1-15.358" transform="translate(-421.613 -70.982)" fill="#b8d0ff"/>
                </g>
              </g>
            </g>
            <path id="Trazado_718826" data-name="Trazado 718826" d="M447.775,78.365l-.591-1.859,2.646-.025-.479,1.858Z" transform="translate(-434.746 -62.543)" fill="#ffbf00"/>
            <path id="Trazado_718827" data-name="Trazado 718827" d="M448.259,86.871l-1.684-2.45.816-2.893h1.52l.788,2.724Z" transform="translate(-434.336 -65.949)" fill="#ffbf00"/>
            <path id="Trazado_718828" data-name="Trazado 718828" d="M437.155,74.6l4.744,7.29,4.243-7.739" transform="translate(-427.976 -60.971)" fill="none" stroke="#26395e" stroke-linecap="round" stroke-miterlimit="10" stroke-width="0.5"/>
          </g>
        </g>
        <g id="Grupo_1017581" data-name="Grupo 1017581">
          <g id="Grupo_1017580" data-name="Grupo 1017580" clip-path="url(#clip-path)">
            <path id="Trazado_718830" data-name="Trazado 718830" d="M528.167,337.3V327.232H515.2v-12.05H493.466v37.8H540.3V337.3Z" transform="translate(-333.141 -212.781)" fill="#b8d0ff"/>
            <g id="Grupo_1017576" data-name="Grupo 1017576" transform="translate(160.325 102.401)" opacity="0.4" style="mix-blend-mode: multiply;isolation: isolate">
              <g id="Grupo_1017575" data-name="Grupo 1017575">
                <g id="Grupo_1017574" data-name="Grupo 1017574" clip-path="url(#clip-path-29)">
                  <path id="Trazado_718831" data-name="Trazado 718831" d="M497.146,341.414c-.8-4.562-.722-10.374,2.829-13.866a8.833,8.833,0,0,1,6.951-2.6c2.881.285,4.438,2.753,6.281,4.648,4.715,4.85,9.961,3.194,14.96.5v-2.866H515.2v-12.05H493.467v37.8h9.45c-3.214-2.9-5.042-7.42-5.77-11.566" transform="translate(-493.467 -315.182)" fill="#b8d0ff"/>
                </g>
              </g>
            </g>
            <path id="Trazado_718832" data-name="Trazado 718832" d="M574.232,396.281l-.294-1.945a.845.845,0,0,0-.975-.69l-.631.094a.95.95,0,0,1-.983-.473,7.675,7.675,0,0,0-.471-.754.885.885,0,0,1,.023-1.062l.381-.5a.8.8,0,0,0-.176-1.153l-1.644-1.162a.883.883,0,0,0-1.2.181l-.382.495a.985.985,0,0,1-1.052.339,7.873,7.873,0,0,0-.893-.211.917.917,0,0,1-.761-.758l-.092-.606a.846.846,0,0,0-.975-.689l-2.03.3a.845.845,0,0,0-.729.945l.093.6a.919.919,0,0,1-.5.95,7.926,7.926,0,0,0-.789.462.986.986,0,0,1-1.105-.013l-.51-.363a.888.888,0,0,0-1.206.182l-1.226,1.593a.8.8,0,0,0,.174,1.153l.51.361a.885.885,0,0,1,.341,1.01,7.262,7.262,0,0,0-.225.858.952.952,0,0,1-.8.741l-.629.094a.843.843,0,0,0-.729.945l.3,1.947a.845.845,0,0,0,.977.688l.63-.094a.948.948,0,0,1,.982.473,7.636,7.636,0,0,0,.471.754.88.88,0,0,1-.026,1.062l-.38.494a.8.8,0,0,0,.177,1.157l1.644,1.16a.887.887,0,0,0,1.2-.18l.381-.495a.986.986,0,0,1,1.052-.338,8.816,8.816,0,0,0,.892.211.915.915,0,0,1,.763.758l.091.6a.849.849,0,0,0,.978.69l2.029-.306a.839.839,0,0,0,.726-.946l-.09-.6a.911.911,0,0,1,.5-.95,8.032,8.032,0,0,0,.792-.463.99.99,0,0,1,1.105.014l.513.36a.887.887,0,0,0,1.2-.181l1.226-1.592a.8.8,0,0,0-.176-1.155l-.511-.361a.887.887,0,0,1-.338-1.009,7.7,7.7,0,0,0,.226-.858.944.944,0,0,1,.8-.74l.632-.094a.841.841,0,0,0,.725-.946m-8.7,4.832a4.491,4.491,0,1,1,3.616-4.7,4.594,4.594,0,0,1-3.616,4.7" transform="translate(-374.499 -261.521)" fill="#5d81ec"/>
            <path id="Trazado_718833" data-name="Trazado 718833" d="M535.588,304.912c-1.067,1.266-3.059,1.212-4.336,2.251a.727.727,0,0,0-.226.265.536.536,0,0,0,.285.635,1.476,1.476,0,0,0,.734.1l4.239-.129a1.164,1.164,0,0,0,.451-.074,1.261,1.261,0,0,0,.548-.818c.322-.971.341-1.82.663-2.791a7.8,7.8,0,0,0-2.357.558" transform="translate(-358.478 -205.471)" fill="#fa6e61"/>
            <path id="Trazado_718834" data-name="Trazado 718834" d="M531.026,311.338a.721.721,0,0,1,.226-.264,5.688,5.688,0,0,1,1.764-.875,1.42,1.42,0,0,0,1.172.646c.328.028.657.027.986.035a3.92,3.92,0,0,0,.984-.08,3.344,3.344,0,0,0,1.361-.654,7.845,7.845,0,0,1-.236.91,1.262,1.262,0,0,1-.548.818,1.171,1.171,0,0,1-.451.074l-4.239.128a1.471,1.471,0,0,1-.734-.1.536.536,0,0,1-.285-.635" transform="translate(-358.478 -209.381)" fill="#132444"/>
            <path id="Trazado_718835" data-name="Trazado 718835" d="M542.327,141.635a55.739,55.739,0,0,1,1.523,24.981,18.52,18.52,0,0,0-.419,3.879,23.817,23.817,0,0,0,.65,3.651c1.458,7.133-.443,14.494-2.678,21.422-1.024-.175-1.008-.211-2.033-.385.975-8.424-1.908-17.031-2.418-25.5-.173-2.879-.192-5.765-.211-8.649q-.06-9.172-.122-18.345a20.415,20.415,0,0,0,5.709-1.056" transform="translate(-362.273 -95.618)" fill="#fa6e61"/>
            <path id="Trazado_718836" data-name="Trazado 718836" d="M543.027,175.008a11.2,11.2,0,0,0-2.511-1.417,4.526,4.526,0,0,0-1.25-.338,6.186,6.186,0,0,0-1.158,0,5.249,5.249,0,0,0-.8.136c-.156-1.237-.281-2.473-.356-3.706-.172-2.879-.192-5.765-.211-8.648q-.06-9.172-.122-18.345a20.429,20.429,0,0,0,5.709-1.056,55.73,55.73,0,0,1,1.522,24.981,18.5,18.5,0,0,0-.419,3.878,23.827,23.827,0,0,0,.649,3.651c.159.775.274,1.552.358,2.331a6.592,6.592,0,0,0-1.41-1.469" transform="translate(-362.272 -95.619)" fill="#d75246"/>
            <path id="Trazado_718837" data-name="Trazado 718837" d="M500.066,303.514c-.856,1.381-2.767,1.591-3.853,2.779a.71.71,0,0,0-.182.29.532.532,0,0,0,.354.585,1.381,1.381,0,0,0,.714,0l4.032-.685a1.1,1.1,0,0,0,.421-.133,1.256,1.256,0,0,0,.418-.874c.184-1,.093-1.83.275-2.825a7.384,7.384,0,0,0-2.18.858" transform="translate(-334.865 -204.324)" fill="#fa6e61"/>
            <path id="Trazado_718838" data-name="Trazado 718838" d="M496.031,310.535a.711.711,0,0,1,.182-.29,5.468,5.468,0,0,1,1.573-1.09,1.352,1.352,0,0,0,1.2.478c.316-.015.631-.06.945-.095a3.7,3.7,0,0,0,.93-.209,3.209,3.209,0,0,0,1.216-.82,8.05,8.05,0,0,1-.109.923,1.256,1.256,0,0,1-.418.875,1.1,1.1,0,0,1-.421.133l-4.032.685a1.38,1.38,0,0,1-.714,0,.532.532,0,0,1-.354-.585" transform="translate(-334.865 -208.276)" fill="#132444"/>
            <path id="Trazado_718839" data-name="Trazado 718839" d="M512.1,156.368a42.634,42.634,0,0,1-2.228,22.535,9.363,9.363,0,0,0-.9,5.821,63.841,63.841,0,0,1-.782,13.14c-.319,2.487-.968,4.042-1.328,6.85a8.117,8.117,0,0,0-2.178.02c-.338-2.651-2.481-19.318-1.177-29.89a159.417,159.417,0,0,1,3.336-18.068.814.814,0,0,1,1.089-.751c1.558.136,3.116.274,4.168.341" transform="translate(-339.64 -105.324)" fill="#fa6e61"/>
            <path id="Trazado_718840" data-name="Trazado 718840" d="M508.924,181.949a13.525,13.525,0,0,0,.049,2.777c.014.189.025.378.036.566-.161-.123-.327-.244-.5-.351-.219-.137-.446-.26-.676-.375a7.69,7.69,0,0,0-1.987-.739,8.125,8.125,0,0,0-2.751-.108,69.631,69.631,0,0,1,.413-8.872,159.437,159.437,0,0,1,3.336-18.068.814.814,0,0,1,1.089-.751c1.558.136,3.116.274,4.168.341a42.631,42.631,0,0,1-2.228,22.535,13.432,13.432,0,0,0-.949,3.045" transform="translate(-339.64 -105.325)" fill="#d75246"/>
            <path id="Trazado_718841" data-name="Trazado 718841" d="M522.519,164.009c-1.211-9.916-2.552-20.217-7.783-28.6a20.859,20.859,0,0,1-10.136.554,1.846,1.846,0,0,0-1.677.194,1.894,1.894,0,0,0-.411.838,95.635,95.635,0,0,0-2.653,11.517c-.433,2.6-.758,5.222-1.083,7.842l-1,8.078a.872.872,0,0,0,.008.376c.085.261.379.366.635.435,5.742,1.539,11.887,2.62,17.647,1.688-.013-.957-.1-1.911-.107-2.868a.751.751,0,0,1,.243-.562.825.825,0,0,1,1.49.453v.156a17.961,17.961,0,0,1,.793,2.3,21.132,21.132,0,0,0,3.475-1.274,1.055,1.055,0,0,0,.487-.364,1.186,1.186,0,0,0,.075-.761" transform="translate(-336.038 -91.413)" fill="#2e6adb"/>
            <g id="Grupo_1017579" data-name="Grupo 1017579" transform="translate(163.832 43.993)" opacity="0.4" style="mix-blend-mode: multiply;isolation: isolate">
              <g id="Grupo_1017578" data-name="Grupo 1017578">
                <g id="Grupo_1017577" data-name="Grupo 1017577" clip-path="url(#clip-path-30)">
                  <path id="Trazado_718842" data-name="Trazado 718842" d="M526.91,164.009c-1.211-9.916-2.552-20.216-7.783-28.6a20.86,20.86,0,0,1-10.136.554,1.846,1.846,0,0,0-1.677.194,1.894,1.894,0,0,0-.411.838,95.607,95.607,0,0,0-2.642,11.45,17.384,17.384,0,0,0,5.857,2.877,12.9,12.9,0,0,0,4.827.375,10.38,10.38,0,0,0,2.362-.582c.174-.064.345-.135.514-.21a3.5,3.5,0,0,1,.657-.156,1.256,1.256,0,0,1,1.137.154,2.435,2.435,0,0,1,.814,1.931,18.44,18.44,0,0,1,.008,2.393,21.373,21.373,0,0,1-.9,4.829,21.682,21.682,0,0,1-3.759,7.22,28.338,28.338,0,0,0,4.678-.345c-.013-.957-.1-1.911-.107-2.868a.751.751,0,0,1,.243-.562.825.825,0,0,1,1.49.453v.156a17.991,17.991,0,0,1,.792,2.3,21.127,21.127,0,0,0,3.476-1.272,1.058,1.058,0,0,0,.487-.365,1.185,1.185,0,0,0,.075-.761" transform="translate(-504.26 -135.406)" fill="#2e6adb"/>
                </g>
              </g>
            </g>
            <path id="Trazado_718843" data-name="Trazado 718843" d="M514.968,201.1a15.633,15.633,0,0,1-8.472-5.6" transform="translate(-341.938 -131.987)" fill="none" stroke="#132444" stroke-miterlimit="10" stroke-width="0.5"/>
            <path id="Trazado_718844" data-name="Trazado 718844" d="M513.651,209.7c-1.97-1.531-4.036-3.192-4.858-5.544" transform="translate(-343.488 -137.829)" fill="none" stroke="#132444" stroke-miterlimit="10" stroke-width="0.5"/>
            <path id="Trazado_718845" data-name="Trazado 718845" d="M515.145,86.294c1.75.034,3.7.154,4.9,1.413s1.176,3.216,1.087,4.951c-.225,4.4-.3,9.094,2.071,12.829a21.6,21.6,0,0,1-14.838.783,24.255,24.255,0,0,0,.124-9.108c-.626-2.677-2.068-5.57-.749-7.992a5.511,5.511,0,0,1,3.573-2.5,19.8,19.8,0,0,1,3.836-.381" transform="translate(-342.412 -58.257)" fill="#ffbf00"/>
            <path id="Trazado_718846" data-name="Trazado 718846" d="M511.4,102.353a7.293,7.293,0,0,0,.891.039,7.709,7.709,0,0,0,.866-.127,13.283,13.283,0,0,0,1.552-.316,7.183,7.183,0,0,0,4.245-3.793,13.905,13.905,0,0,0,1.124-6.339,10.65,10.65,0,0,0-1.3-5.369,5.416,5.416,0,0,1,3.676,1.363c1.2,1.271,1.176,3.216,1.087,4.952-.225,4.4-.3,9.094,2.071,12.829a21.6,21.6,0,0,1-14.838.783c.2-1.335.384-2.686.466-4.035.052,0,.1.01.154.012" transform="translate(-344.828 -58.362)" fill="#ffa607"/>
            <path id="Trazado_718847" data-name="Trazado 718847" d="M520.236,102.686a8.216,8.216,0,0,1-5.082-5.456" transform="translate(-347.783 -65.64)" fill="none" stroke="#26395e" stroke-miterlimit="10" stroke-width="0.5"/>
            <path id="Trazado_718848" data-name="Trazado 718848" d="M516.856,109.314a7.619,7.619,0,0,1-2.578-3.173" transform="translate(-347.191 -71.656)" fill="none" stroke="#26395e" stroke-miterlimit="10" stroke-width="0.5"/>
            <path id="Trazado_718849" data-name="Trazado 718849" d="M528.868,55.966c.452,1.066,1.845,1.333,2.658,2.159.729.739,1.011,1.948,1.962,2.365.792.347,1.784,0,2.535.426.854.489.972,1.729,1.75,2.331a2.111,2.111,0,0,0,1.286.391,3.292,3.292,0,0,0,3.088-3.81c-.145-.672-.5-1.277-.7-1.935a1.966,1.966,0,0,1,.289-1.941,6.441,6.441,0,0,1,.691-.5,2.506,2.506,0,0,0,.16-3.56,3.481,3.481,0,0,0-3.716-.714c-.718.271-1.583.716-2.168.22a3.916,3.916,0,0,1-.507-.7,1.873,1.873,0,0,0-1.855-.634,2.9,2.9,0,0,0-1.675,1.136c-.282.372-.118,1.362-.4,1.735-.667.879-1.811.054-2.367.284-.341.142-1.353,1.986-1.028,2.755" transform="translate(-356.998 -33.766)" fill="#132444"/>
            <path id="Trazado_718850" data-name="Trazado 718850" d="M521.958,73.78a7.2,7.2,0,0,1-.223,3.1,3.311,3.311,0,0,0,2.478.041,4.387,4.387,0,0,0,1.166-.457.26.26,0,0,0,.1-.1.182.182,0,0,0,.01-.143,12.417,12.417,0,0,1-.67-5.381c-.782.39-1.762.162-2.561.515a.54.54,0,0,0-.208.139.568.568,0,0,0-.1.29,7.433,7.433,0,0,0,0,1.986" transform="translate(-352.226 -47.83)" fill="#ff7055"/>
            <path id="Trazado_718851" data-name="Trazado 718851" d="M524.583,73.309c.478-.968.282-2.073.506-3.1-.781.389-1.712.37-2.51.724a.545.545,0,0,0-.208.139.568.568,0,0,0-.1.29,7.414,7.414,0,0,0,0,1.986,7.155,7.155,0,0,1,.041,1.732,3.418,3.418,0,0,0,2.263-1.77" transform="translate(-352.546 -47.398)" fill="#d75246"/>
            <path id="Trazado_718852" data-name="Trazado 718852" d="M516.286,62.847c-.1.655-.2,1.235-.277,1.894a3.59,3.59,0,0,0,.155,2.39,1.918,1.918,0,0,0,1.913,1.021,2.737,2.737,0,0,0,1.807-1.039A5.171,5.171,0,0,0,521,63.155a1.356,1.356,0,0,0-.713-1.178,4.219,4.219,0,0,0-1.931-.527,2.042,2.042,0,0,0-2.073,1.4" transform="translate(-348.275 -41.481)" fill="#ff7055"/>
            <path id="Trazado_718853" data-name="Trazado 718853" d="M513.995,58.377c-.84.627-1.168,1.265-.683,1.9.32.416.69.079.823.077.184,0,.259.227.367.376a.973.973,0,0,0,.929.259,1.747,1.747,0,0,0,.929-.35c.173-.148.3-.346.484-.481a.493.493,0,0,1,.626-.018c.2.207.057.58.228.808a.513.513,0,0,0,.528.144,1.017,1.017,0,0,0,.712-.727,1.5,1.5,0,0,0-.124-1.036,2,2,0,0,0-.74-.827c-.755-.471-1.437.059-2.215-.377-.65-.365-1.773.189-1.862.256" transform="translate(-346.386 -39.154)" fill="#141d30"/>
            <path id="Trazado_718854" data-name="Trazado 718854" d="M527.884,62.2a3.478,3.478,0,0,1,.361,1.613.871.871,0,0,0,.012.224.79.79,0,0,0,.111.23l.626,1a2.2,2.2,0,0,0,.895-2.474,2.549,2.549,0,0,0-.376-.827A.909.909,0,0,0,528,61.934c-.1.089-.147.252-.116.265" transform="translate(-356.37 -41.544)" fill="#141d30"/>
            <path id="Trazado_718855" data-name="Trazado 718855" d="M528.915,70.8a.912.912,0,0,1,.982-.2c.574.246-.2,1.3-1.244,1.281-.145,0-.316-.045-.365-.184a.4.4,0,0,1,.077-.332,1.358,1.358,0,0,1,.551-.571" transform="translate(-356.64 -47.617)" fill="#ff7055"/>
            <path id="Trazado_718856" data-name="Trazado 718856" d="M495.241,106.511c-2.684,1.54-6.831,4.3-8.968,4.636a8.2,8.2,0,0,1-3.3-.2c-3-.768-4.355-2.476-7.12-3.866.554-.658.215-.254.528-1.057,2.648.859,9.274,3.992,13.414-.214,3.27-3.321,3.824-3.119,6.315-4.208a3.83,3.83,0,0,1,2.342-.219c.532.259,1.547,2.4-3.213,5.126" transform="translate(-321.251 -68.369)" fill="#ff7055"/>
            <path id="Trazado_718857" data-name="Trazado 718857" d="M469.042,112.381a10.008,10.008,0,0,1-2.353-.43c-.24-.084-.571-.148-.644-.392.122-.143.167-.039.5.053a1.111,1.111,0,0,0,.6.081,3.689,3.689,0,0,1-1.786-1.128.35.35,0,0,1,.362-.026,1.621,1.621,0,0,1,.314.216,1.888,1.888,0,0,0,.895.366,2.739,2.739,0,0,1-1.439-1.16.242.242,0,0,1,.277-.056.888.888,0,0,1,.246.175,2.492,2.492,0,0,0,.993.527,3.542,3.542,0,0,1-1.231-1.127c.123-.137.34-.006.482.111a2.925,2.925,0,0,0,1.19.628c.061.013.372.122.41.073s-.16-.592-.188-.8c-.023-.187.066-.418.252-.439a4.171,4.171,0,0,0,1.713,2.379,7.648,7.648,0,0,0-.594.954" transform="translate(-314.167 -73.619)" fill="#ff7055"/>
            <path id="Trazado_718858" data-name="Trazado 718858" d="M531.346,91.287A3.706,3.706,0,0,1,532,93.768a5.81,5.81,0,0,1-.408,1.52,13.845,13.845,0,0,1-4.269,5.774,20.516,20.516,0,0,1-3.366-3.231.443.443,0,0,1-.139-.308.438.438,0,0,1,.133-.23,44.917,44.917,0,0,1,5.742-5.376,3.212,3.212,0,0,1,1.349-.732c.207-.038.509.176.3.1" transform="translate(-353.631 -61.556)" fill="#ffbf00"/>
          </g>
        </g>
      </g>
    </g>
  </g>
</svg>
