<svg xmlns="http://www.w3.org/2000/svg" xmlns:xlink="http://www.w3.org/1999/xlink" width="169" height="169" viewBox="0 0 169 169">
  <defs>
    <clipPath id="clip-path">
      <rect id="Rectángulo_350595" data-name="Rectángulo 350595" width="168.755" height="167.772" fill="none"/>
    </clipPath>
    <clipPath id="clip-path-3">
      <rect id="Rectángulo_350573" data-name="Rectángulo 350573" width="44.445" height="125.92" fill="none"/>
    </clipPath>
    <clipPath id="clip-path-4">
      <rect id="Rectángulo_350574" data-name="Rectángulo 350574" width="38.4" height="78.609" fill="none"/>
    </clipPath>
    <clipPath id="clip-path-5">
      <rect id="Rectángulo_350575" data-name="Rectángulo 350575" width="38.8" height="25.369" fill="none"/>
    </clipPath>
    <clipPath id="clip-path-6">
      <rect id="Rectángulo_350576" data-name="Rectángulo 350576" width="39.607" height="27.567" fill="none"/>
    </clipPath>
    <clipPath id="clip-path-7">
      <rect id="Rectángulo_350577" data-name="Rectángulo 350577" width="19.945" height="19.68" fill="none"/>
    </clipPath>
    <clipPath id="clip-path-8">
      <rect id="Rectángulo_350578" data-name="Rectángulo 350578" width="24.339" height="8.431" fill="none"/>
    </clipPath>
    <clipPath id="clip-path-9">
      <path id="Trazado_719520" data-name="Trazado 719520" d="M1282.418,1070.438a3.594,3.594,0,0,0,5.012,1.609l5.757-3.228-13.768-4.778Z" transform="translate(-1279.42 -1064.041)" fill="none"/>
    </clipPath>
    <linearGradient id="linear-gradient" x1="-7.537" y1="4.498" x2="-7.531" y2="4.498" gradientUnits="objectBoundingBox">
      <stop offset="0" stop-color="#fff"/>
      <stop offset="1" stop-color="#efeff4"/>
    </linearGradient>
    <clipPath id="clip-path-11">
      <path id="Trazado_719523" data-name="Trazado 719523" d="M1440.469,1719.2l.557,3.1a.862.862,0,0,0,.579.662,2.834,2.834,0,0,0,1.294.107.728.728,0,0,0,.622-.685l.161-3.189Z" transform="translate(-1440.469 -1719.198)" fill="none"/>
    </clipPath>
    <linearGradient id="linear-gradient-2" x1="-29.905" y1="2.655" x2="-29.885" y2="2.655" xlink:href="#linear-gradient"/>
    <clipPath id="clip-path-13">
      <path id="Trazado_719526" data-name="Trazado 719526" d="M1630.461,1698.351l1.158,3.3a.712.712,0,0,0,.58.474,3.019,3.019,0,0,0,1.633-.4.851.851,0,0,0,.443-.965l-.789-3.137Z" transform="translate(-1630.461 -1697.628)" fill="none"/>
    </clipPath>
    <linearGradient id="linear-gradient-3" x1="-29.697" y1="2.302" x2="-29.679" y2="2.302" xlink:href="#linear-gradient"/>
    <clipPath id="clip-path-15">
      <path id="Trazado_719530" data-name="Trazado 719530" d="M1419.688,845.934l-.224,5.3a1.155,1.155,0,0,0,.641,1.087,5.375,5.375,0,0,0,5.182.081.555.555,0,0,0,.261-.634c-.457-1.624-.976-7.113-.976-7.113Z" transform="translate(-1419.463 -844.659)" fill="none"/>
    </clipPath>
    <linearGradient id="linear-gradient-4" x1="-18.691" y1="9.61" x2="-18.677" y2="9.61" xlink:href="#linear-gradient"/>
    <clipPath id="clip-path-16">
      <path id="Trazado_719531" data-name="Trazado 719531" d="M1390.517,772.279c-.518,1.937-1.206,3.121.978,3.988a4.921,4.921,0,0,0,5.77-1.6s2.248-2.67,2.141-3.978-5.967-3.742-5.967-3.742a24.448,24.448,0,0,0-2.922,5.332" transform="translate(-1389.99 -766.947)" fill="none"/>
    </clipPath>
    <linearGradient id="linear-gradient-5" x1="-8.821" y1="7.028" x2="-8.815" y2="7.028" xlink:href="#linear-gradient"/>
    <clipPath id="clip-path-18">
      <path id="Trazado_719533" data-name="Trazado 719533" d="M1462.508,822.251l.057,1.1c.879.09,2.921-1.575,1.991-2.467a.667.667,0,0,0-.47-.209c-.8,0-1.578,1.573-1.578,1.573" transform="translate(-1462.508 -820.678)" fill="none"/>
    </clipPath>
    <linearGradient id="linear-gradient-6" x1="-33.769" y1="23.209" x2="-33.746" y2="23.209" xlink:href="#linear-gradient"/>
    <clipPath id="clip-path-20">
      <path id="Trazado_719535" data-name="Trazado 719535" d="M1457.621,1062.108a3.679,3.679,0,0,1-.505,2.532c-2.089,3.454-9.722-.71-9.722-.71l-.962,2.119s11.684,9.8,15.98.513a10.56,10.56,0,0,0,.837-6.238,13.488,13.488,0,0,0-5.628,1.783" transform="translate(-1446.432 -1060.325)" fill="none"/>
    </clipPath>
    <linearGradient id="linear-gradient-7" x1="-6.993" y1="4.102" x2="-6.988" y2="4.102" xlink:href="#linear-gradient"/>
    <clipPath id="clip-path-22">
      <path id="Trazado_719539" data-name="Trazado 719539" d="M1409.786,1064.079a24.912,24.912,0,0,0-3.709.989.974.974,0,0,0,1.395.841l-.8.621s.115.994,1.207.463l-.746.823a.87.87,0,0,0,1.273.293c.416-.271.72.232,1.233.735a2.471,2.471,0,0,0,2.235.781,11.915,11.915,0,0,0,.39-3.639c-.238-.861-.678-1.944-2.016-1.945a2.931,2.931,0,0,0-.46.039" transform="translate(-1406.077 -1064.04)" fill="none"/>
    </clipPath>
    <linearGradient id="linear-gradient-8" x1="-18.17" y1="10.932" x2="-18.157" y2="10.932" xlink:href="#linear-gradient"/>
    <clipPath id="clip-path-23">
      <path id="Trazado_719540" data-name="Trazado 719540" d="M1264.151,1019.706c-1.162.5-.745,1.714-.343,2.6a16.2,16.2,0,0,0,2.36,2.784c1.532-.707.375-2.787,1.155-2.7s.578-.779.578-.779l-.921-.35c.954-.034.44-.889.44-.889l-.835-.162c1-.225.329-1.275.329-1.275a14.422,14.422,0,0,0-2.764.776" transform="translate(-1263.393 -1018.93)" fill="none"/>
    </clipPath>
    <linearGradient id="linear-gradient-9" x1="-14.26" y1="9.667" x2="-14.249" y2="9.667" xlink:href="#linear-gradient"/>
  </defs>
  <g id="Grupo_1018217" data-name="Grupo 1018217" transform="translate(7150.499 9957.049)">
    <g id="Grupo_159182" data-name="Grupo 159182" transform="translate(-7150.499 -9957.049)">
      <path id="Unión_12" data-name="Unión 12" d="M84.5,0A84.5,84.5,0,1,1,0,84.5,84.5,84.5,0,0,1,84.5,0Z" transform="translate(0 0)" fill="#fff"/>
    </g>
    <g id="Grupo_1017893" data-name="Grupo 1017893" transform="translate(-7150.254 -9956.435)">
      <g id="Grupo_1017892" data-name="Grupo 1017892" clip-path="url(#clip-path)">
        <g id="Grupo_1017861" data-name="Grupo 1017861">
          <g id="Grupo_1017860" data-name="Grupo 1017860" clip-path="url(#clip-path)">
            <path id="Trazado_719423" data-name="Trazado 719423" d="M7.11,132.065l-3.8.245A3.533,3.533,0,0,0,0,135.895l1.5,90.322a3.707,3.707,0,0,0,3.793,3.645l26.135-.607Z" transform="translate(0 -119.957)" fill="#a8abb2"/>
            <path id="Trazado_719424" data-name="Trazado 719424" d="M79.624,109.719l-48.255-2.242a1.711,1.711,0,0,0-1.79,1.767l3.151,93.07a3.578,3.578,0,0,0,3.726,3.454l33.912-1.427Z" transform="translate(-26.866 -97.622)" fill="#c6c9d3"/>
            <path id="Trazado_719425" data-name="Trazado 719425" d="M106.8,100.349,64.356,95.014a1.8,1.8,0,0,0-2.023,1.828l2.24,93.872a2.487,2.487,0,0,0,2.418,2.426l31.223.855Z" transform="translate(-56.618 -86.29)" fill="#e8e8ef"/>
            <path id="Trazado_719426" data-name="Trazado 719426" d="M165.63,74.316,119.1,71.507a4.029,4.029,0,0,0-4.271,4.029l.18,95.863a3.52,3.52,0,0,0,3.527,3.513l42.9-.08a3.809,3.809,0,0,0,3.8-3.611l4.781-92.006a4.664,4.664,0,0,0-4.377-4.9" transform="translate(-104.299 -64.945)" fill="#a8abb2"/>
            <path id="Trazado_719427" data-name="Trazado 719427" d="M77.495,200.011,80.888,200a1.92,1.92,0,0,0,1.916-1.924l-.046-24.767a1.92,1.92,0,0,0-1.924-1.916l-3.393.006a1.92,1.92,0,0,0-1.916,1.924l.046,24.767a1.92,1.92,0,0,0,1.924,1.916" transform="translate(-68.601 -155.684)" fill="#a8abb2"/>
            <path id="Trazado_719428" data-name="Trazado 719428" d="M204.551,225l-3.8.245a3.533,3.533,0,0,0-3.305,3.584l1.5,90.322a3.707,3.707,0,0,0,3.793,3.645l26.135-.607Z" transform="translate(-179.339 -204.37)" fill="#3ed0ee"/>
            <path id="Trazado_719429" data-name="Trazado 719429" d="M277.064,202.653l-48.255-2.242a1.711,1.711,0,0,0-1.79,1.767l3.151,93.07A3.578,3.578,0,0,0,233.9,298.7l33.912-1.427Z" transform="translate(-206.205 -182.035)" fill="#d7d9e0"/>
            <path id="Trazado_719430" data-name="Trazado 719430" d="M304.245,193.283,261.8,187.947a1.8,1.8,0,0,0-2.023,1.828l2.24,93.872a2.487,2.487,0,0,0,2.418,2.426l31.223.855Z" transform="translate(-235.958 -170.703)" fill="#fff"/>
            <path id="Trazado_719431" data-name="Trazado 719431" d="M363.071,167.25l-46.533-2.809a4.029,4.029,0,0,0-4.271,4.029l.18,95.863a3.52,3.52,0,0,0,3.526,3.513l42.9-.08a3.809,3.809,0,0,0,3.8-3.611l4.781-92.006a4.664,4.664,0,0,0-4.377-4.9" transform="translate(-283.639 -149.358)" fill="#3ed0ee"/>
            <path id="Trazado_719432" data-name="Trazado 719432" d="M274.935,292.944l3.393-.006a1.92,1.92,0,0,0,1.916-1.924l-.046-24.767a1.92,1.92,0,0,0-1.923-1.916l-3.393.006a1.92,1.92,0,0,0-1.916,1.924l.046,24.767a1.92,1.92,0,0,0,1.923,1.916" transform="translate(-247.94 -240.097)" fill="#f3d33f"/>
            <path id="Trazado_719433" data-name="Trazado 719433" d="M966.22,1.477A1.134,1.134,0,0,0,964.458.229C955.509,6.9,933.5,27.435,933.82,67.724c.407,50.549-12.047,67.561-26.236,77.189A56.092,56.092,0,0,0,939.2,124.522C971.778,82.314,960.2,20.074,966.22,1.477" transform="translate(-824.378 0)" fill="#d7d9e0"/>
            <g id="Grupo_1017844" data-name="Grupo 1017844" transform="translate(89.486 15.971)" style="mix-blend-mode: soft-light;isolation: isolate">
              <g id="Grupo_1017843" data-name="Grupo 1017843">
                <g id="Grupo_1017842" data-name="Grupo 1017842" clip-path="url(#clip-path-3)">
                  <path id="Trazado_719434" data-name="Trazado 719434" d="M1020.51,174.587c-1.643,5.435-3.177,10.9-4.51,16.414q-2.042,8.258-3.574,16.623c-1,5.577-1.891,11.171-2.544,16.8-.679,5.621-1.116,11.265-1.535,16.933-.45,5.662-.872,11.369-1.879,17.051a57.6,57.6,0,0,1-5.366,16.478c-.668,1.287-1.362,2.567-2.124,3.793-.74,1.241-1.535,2.45-2.351,3.643a59.729,59.729,0,0,1-18.887,17.653,1.1,1.1,0,0,1-1.159-1.864l0,0c1.18-.756,2.35-1.524,3.482-2.342.573-.4,1.126-.825,1.687-1.238.545-.435,1.107-.848,1.638-1.3a57.9,57.9,0,0,0,6.055-5.742,63.434,63.434,0,0,0,9.5-13.7,55.286,55.286,0,0,0,3.19-7.69,62.688,62.688,0,0,0,2.039-8.109c1.02-5.509,1.484-11.155,1.975-16.813s1.038-11.343,1.811-17q.568-4.241,1.288-8.458c.232-1.407.491-2.809.747-4.211s.548-2.8.836-4.193q1.749-8.37,4.011-16.614c1.535-5.485,3.215-10.927,5.1-16.3a.294.294,0,0,1,.56.183" transform="translate(-976.077 -174.208)" fill="#fff"/>
                </g>
              </g>
            </g>
            <path id="Trazado_719435" data-name="Trazado 719435" d="M1190.958,295.981a2.62,2.62,0,0,0,3.844,2.034,79.886,79.886,0,0,0,40.2-55.592c5.721-29.373,11.614-44.757,14.773-51.555a1.643,1.643,0,0,0-2.279-2.133c-15.349,8.383-63.3,40.172-56.542,107.246" transform="translate(-1081.183 -171.243)" fill="#c6c9d3"/>
            <g id="Grupo_1017847" data-name="Grupo 1017847" transform="translate(112.025 46.997)" style="mix-blend-mode: soft-light;isolation: isolate">
              <g id="Grupo_1017846" data-name="Grupo 1017846">
                <g id="Grupo_1017845" data-name="Grupo 1017845" clip-path="url(#clip-path-4)">
                  <path id="Trazado_719436" data-name="Trazado 719436" d="M1222.115,591a.706.706,0,0,0,.1.094.726.726,0,0,0,1.016-.149c.272-.365,27.271-36.937,37.071-77.419a.726.726,0,0,0-1.412-.342c-9.728,40.188-36.554,76.531-36.823,76.894a.726.726,0,0,0,.045.922" transform="translate(-1221.927 -512.627)" fill="#fff"/>
                </g>
              </g>
            </g>
            <g id="Grupo_1017850" data-name="Grupo 1017850" transform="translate(12.256 108.87)" opacity="0.3">
              <g id="Grupo_1017849" data-name="Grupo 1017849">
                <g id="Grupo_1017848" data-name="Grupo 1017848" clip-path="url(#clip-path-5)">
                  <path id="Trazado_719437" data-name="Trazado 719437" d="M206.495,1212.885a.6.6,0,0,1-.571-.62c.026-.639.025-1.288,0-1.93a.6.6,0,0,1,.557-.621h.012a.6.6,0,0,1,.621.569c.03.676.031,1.359,0,2.031a.6.6,0,0,1-.557.57.566.566,0,0,1-.063,0m-.927-5.664c-.116-.632-.259-1.265-.427-1.881a.6.6,0,1,1,1.149-.313c.177.649.328,1.315.45,1.98a.6.6,0,0,1-.479.693.662.662,0,0,1-.07.008.6.6,0,0,1-.623-.487m-1.46-4.84c-.253-.588-.534-1.173-.836-1.738a.6.6,0,1,1,1.05-.562c.318.595.615,1.211.881,1.83a.6.6,0,1,1-1.095.47m-2.505-4.391c-.378-.518-.783-1.025-1.2-1.508a.6.6,0,0,1,.9-.783c.443.509.87,1.043,1.268,1.588a.6.6,0,0,1-.962.7m-3.421-3.724c-.483-.42-.99-.825-1.509-1.2a.6.6,0,1,1,.7-.962c.545.4,1.079.825,1.587,1.267a.6.6,0,0,1-.782.9m-4.16-2.874c-.564-.3-1.149-.586-1.737-.84a.6.6,0,0,1,.473-1.094c.619.268,1.234.565,1.828.884a.6.6,0,0,1-.564,1.05m-22.119-.277a.6.6,0,0,1,.245-.806c.595-.317,1.211-.613,1.833-.878a.6.6,0,0,1,.468,1.1c-.59.252-1.176.533-1.74.834a.6.6,0,0,1-.806-.245m17.428-1.6c-.617-.17-1.249-.315-1.879-.431a.6.6,0,0,1,.217-1.172c.663.123,1.329.276,1.979.454a.6.6,0,1,1-.316,1.149m-12.652-.433a.6.6,0,0,1,.42-.731c.65-.176,1.317-.326,1.982-.446a.6.6,0,1,1,.212,1.172c-.631.115-1.265.257-1.883.424a.606.606,0,0,1-.118.02.6.6,0,0,1-.612-.439m7.659-.351c-.639-.027-1.288-.028-1.929,0a.6.6,0,0,1-.063-1.189h.013c.675-.029,1.358-.029,2.031,0a.6.6,0,0,1,.013,1.189c-.021,0-.042,0-.064,0" transform="translate(-168.334 -1187.516)" fill="#d7d9e0"/>
                  <path id="Trazado_719438" data-name="Trazado 719438" d="M134.312,1237.7a.6.6,0,0,0,.332-.128c.24-.191.489-.38.739-.563a.6.6,0,1,0-.7-.962c-.263.191-.524.391-.777.592a.6.6,0,0,0,.409,1.061" transform="translate(-133.678 -1231.496)" fill="#d7d9e0"/>
                </g>
              </g>
            </g>
            <g id="Grupo_1017853" data-name="Grupo 1017853" transform="translate(3.486 128.89)" opacity="0.3">
              <g id="Grupo_1017852" data-name="Grupo 1017852">
                <g id="Grupo_1017851" data-name="Grupo 1017851" clip-path="url(#clip-path-6)">
                  <path id="Trazado_719439" data-name="Trazado 719439" d="M39.585,1408.024a.6.6,0,0,0,.555-.538c.029-.306.065-.616.108-.922a.6.6,0,0,0-1.18-.163c-.044.322-.082.649-.113.971a.6.6,0,0,0,.536.65.654.654,0,0,0,.1,0" transform="translate(-38.866 -1405.887)" fill="#d7d9e0"/>
                  <path id="Trazado_719440" data-name="Trazado 719440" d="M62.108,1474.185a.6.6,0,1,1-.017-1.191c.626-.009,1.262-.045,1.9-.107a.6.6,0,0,1,.115,1.186q-.412.04-.823.066c-.39.025-.784.04-1.172.046m4.48-1.087a.6.6,0,0,1,.442-.717c.615-.146,1.23-.319,1.828-.515A.6.6,0,1,1,69.23,1473c-.63.207-1.278.389-1.924.542a.575.575,0,0,1-.1.015.6.6,0,0,1-.617-.457m-7.721.911c-.658-.081-1.321-.191-1.972-.328a.6.6,0,1,1,.245-1.166c.618.13,1.247.235,1.872.312a.6.6,0,0,1-.034,1.186.588.588,0,0,1-.111,0m12.575-2.506a.6.6,0,0,1,.274-.8c.567-.277,1.128-.581,1.669-.9a.6.6,0,0,1,.611,1.022c-.57.34-1.161.661-1.758.952a.6.6,0,0,1-.8-.274M53.774,1472.8c-.623-.224-1.246-.477-1.85-.754a.6.6,0,1,1,.5-1.084c.574.263,1.166.5,1.758.716a.6.6,0,1,1-.4,1.121m-4.7-2.3c-.561-.355-1.113-.739-1.642-1.139a.6.6,0,0,1,.719-.95c.5.38,1.027.745,1.56,1.083a.6.6,0,1,1-.638,1.006m-4.09-3.27c-.47-.469-.926-.964-1.354-1.469a.6.6,0,1,1,.909-.77c.407.48.84.95,1.287,1.4a.6.6,0,0,1-.842.843m-3.279-4.085c-.356-.561-.693-1.143-1-1.731a.6.6,0,1,1,1.056-.552c.292.558.611,1.111.95,1.644a.6.6,0,0,1-1.006.639m-2.3-4.708c-.223-.624-.423-1.266-.593-1.908a.6.6,0,1,1,1.151-.306c.162.61.352,1.219.564,1.812a.6.6,0,1,1-1.122.4m-1.212-5.093c-.061-.485-.107-.977-.138-1.464q-.017-.264-.028-.528a.589.589,0,0,1,.57-.62.6.6,0,0,1,.62.57q.01.25.026.5c.029.463.073.931.131,1.391a.6.6,0,0,1-.517.665l-.037,0a.6.6,0,0,1-.628-.521" transform="translate(-38.021 -1446.618)" fill="#d7d9e0"/>
                  <path id="Trazado_719441" data-name="Trazado 719441" d="M449.712,1633.189a.6.6,0,0,0,.335-.13c.252-.2.5-.413.749-.627a.6.6,0,0,0-.783-.9c-.233.2-.473.4-.712.6a.6.6,0,0,0,.411,1.059" transform="translate(-411.393 -1610.714)" fill="#d7d9e0"/>
                </g>
              </g>
            </g>
            <path id="Trazado_719442" data-name="Trazado 719442" d="M134.99,1276.046a.278.278,0,0,0,0-.323l-1.962-2.763a14.759,14.759,0,0,0,1.084-4.657l2.978-1.613a.279.279,0,0,0,.142-.29l-.665-4.01a.278.278,0,0,0-.228-.229L133,1261.6a14.76,14.76,0,0,0-2.53-4.058l.966-3.248a.278.278,0,0,0-.1-.306l-3.306-2.365a.279.279,0,0,0-.323,0l-2.762,1.963a14.75,14.75,0,0,0-4.658-1.084l-1.613-2.978a.278.278,0,0,0-.29-.142l-4.01.665a.278.278,0,0,0-.229.228l-.565,3.339a14.758,14.758,0,0,0-4.058,2.53l-3.248-.966a.279.279,0,0,0-.306.1l-2.365,3.306a.278.278,0,0,0,0,.323l1.962,2.763a14.758,14.758,0,0,0-1.084,4.658l-2.978,1.613a.278.278,0,0,0-.142.29l.665,4.01a.279.279,0,0,0,.228.229l3.339.565a14.757,14.757,0,0,0,2.53,4.059l-.966,3.248a.278.278,0,0,0,.1.306l3.306,2.365a.278.278,0,0,0,.323,0l2.762-1.963a14.763,14.763,0,0,0,4.658,1.084l1.613,2.978a.279.279,0,0,0,.29.142l4.01-.665a.278.278,0,0,0,.229-.228l.565-3.339a14.758,14.758,0,0,0,4.058-2.53l3.248.966a.278.278,0,0,0,.306-.1Z" transform="translate(-92.06 -1134.832)" fill="#d7d9e0"/>
            <path id="Trazado_719443" data-name="Trazado 719443" d="M256.238,1408.667a4.082,4.082,0,1,1,.6.006,4.16,4.16,0,0,1-.6-.006m-1.685-6.463a3.132,3.132,0,1,0,2.283-.731,3.194,3.194,0,0,0-.465,0,3.11,3.11,0,0,0-1.819.735" transform="translate(-229.343 -1272.112)" fill="#e8e8ef"/>
            <path id="Trazado_719444" data-name="Trazado 719444" d="M197.4,1354.955a10.273,10.273,0,0,0,1.026-.117q.161-.027.322-.059a10.077,10.077,0,0,0,1.548-.438l.021-.007.058-.022.113-.044a.238.238,0,1,0-.175-.443,9.581,9.581,0,0,1-10.657-2.515,9.51,9.51,0,0,1-2.313-4.816,9.684,9.684,0,0,1-.112-.979,9.57,9.57,0,1,1,18.459,2.917.238.238,0,1,0,.443.174,10.016,10.016,0,0,0,.677-4.308,10.047,10.047,0,0,0-11.67-9.281,10.048,10.048,0,0,0-8.385,10.527,10.289,10.289,0,0,0,.118,1.027,10.048,10.048,0,0,0,10.529,8.385" transform="translate(-169.615 -1212.5)" fill="#e8e8ef"/>
            <g id="Grupo_1017856" data-name="Grupo 1017856" transform="translate(52.539 128.938)" opacity="0.3">
              <g id="Grupo_1017855" data-name="Grupo 1017855">
                <g id="Grupo_1017854" data-name="Grupo 1017854" clip-path="url(#clip-path-7)">
                  <path id="Trazado_719445" data-name="Trazado 719445" d="M778.865,1604.831a.368.368,0,0,0,.335-.286c.069-.3.13-.615.18-.924a.368.368,0,0,0-.726-.119c-.048.294-.106.59-.171.881a.368.368,0,0,0,.278.44.38.38,0,0,0,.1.008" transform="translate(-759.643 -1585.152)" fill="#d7d9e0"/>
                  <path id="Trazado_719446" data-name="Trazado 719446" d="M592.629,1423.284a.368.368,0,0,1-.354-.382,15.245,15.245,0,0,0-.019-1.543q-.01-.162-.024-.325a.368.368,0,0,1,.336-.4.381.381,0,0,1,.4.336q.014.17.025.34a16.011,16.011,0,0,1,.02,1.618.368.368,0,0,1-.344.353h-.038m-.668-4.1a15.273,15.273,0,0,0-.494-1.8.368.368,0,1,1,.7-.238,15.955,15.955,0,0,1,.518,1.888.368.368,0,0,1-.285.436.39.39,0,0,1-.052.007.368.368,0,0,1-.383-.292m-1.208-3.529a15.078,15.078,0,0,0-.922-1.625.368.368,0,0,1,.616-.4,15.847,15.847,0,0,1,.967,1.7.368.368,0,0,1-.169.492.376.376,0,0,1-.138.037.369.369,0,0,1-.354-.206m-2.037-3.124a15.179,15.179,0,0,0-1.291-1.35.368.368,0,0,1,.5-.541,15.953,15.953,0,0,1,1.354,1.416.368.368,0,0,1-.562.475M585.978,1410a15.384,15.384,0,0,0-1.58-1,.368.368,0,1,1,.354-.645,16.115,16.115,0,0,1,1.656,1.044.368.368,0,1,1-.43.6m-3.27-1.791a15.1,15.1,0,0,0-1.774-.58.368.368,0,0,1,.185-.712,15.784,15.784,0,0,1,1.861.608.368.368,0,1,1-.271.684m-3.607-.936a15.148,15.148,0,0,0-1.864-.126.368.368,0,0,1,0-.736,15.99,15.99,0,0,1,1.954.133.368.368,0,0,1-.024.732.349.349,0,0,1-.071,0m-6.013.037a.368.368,0,0,1,.27-.444,16.005,16.005,0,0,1,1.672-.314l.256-.032a.364.364,0,0,1,.408.323.368.368,0,0,1-.323.408l-.242.031a15.265,15.265,0,0,0-1.6.3.368.368,0,0,1-.445-.271" transform="translate(-573.078 -1406.411)" fill="#d7d9e0"/>
                </g>
              </g>
            </g>
            <g id="Grupo_1017859" data-name="Grupo 1017859" transform="translate(42.817 152.292)" opacity="0.3">
              <g id="Grupo_1017858" data-name="Grupo 1017858">
                <g id="Grupo_1017857" data-name="Grupo 1017857" clip-path="url(#clip-path-8)">
                  <path id="Trazado_719447" data-name="Trazado 719447" d="M481.588,1669.553a16.087,16.087,0,0,1-1.926-.019.368.368,0,1,1,.052-.734,15.214,15.214,0,0,0,1.837.018.368.368,0,0,1,.042.735h-.005m1.49-.513a.368.368,0,0,1,.3-.425,15.378,15.378,0,0,0,1.79-.42.368.368,0,0,1,.211.705,16.169,16.169,0,0,1-1.876.44l-.04,0a.368.368,0,0,1-.385-.3m-5.327.24a16.014,16.014,0,0,1-1.865-.484.368.368,0,0,1,.228-.7,15.273,15.273,0,0,0,1.779.462.368.368,0,0,1-.047.728.376.376,0,0,1-.094-.006m8.953-1.234a.368.368,0,0,1,.189-.485,15.121,15.121,0,0,0,1.635-.839.368.368,0,1,1,.375.633,15.807,15.807,0,0,1-1.715.88.369.369,0,0,1-.485-.189m-12.609.042a15.979,15.979,0,0,1-1.693-.919.368.368,0,0,1,.39-.625,15.125,15.125,0,0,0,1.615.876.368.368,0,0,1-.311.667m-3.264-2.034a16.094,16.094,0,0,1-1.425-1.3.368.368,0,1,1,.527-.513,15.377,15.377,0,0,0,1.359,1.237.368.368,0,1,1-.462.573m-2.683-2.757a15.887,15.887,0,0,1-1.072-1.6.368.368,0,0,1,.635-.372,15.033,15.033,0,0,0,1.023,1.527.368.368,0,0,1-.07.516.363.363,0,0,1-.2.074.367.367,0,0,1-.316-.144" transform="translate(-467.027 -1661.142)" fill="#d7d9e0"/>
                  <path id="Trazado_719448" data-name="Trazado 719448" d="M717.126,1704.764a.368.368,0,0,0,.2-.076c.249-.193.494-.394.727-.6a.368.368,0,1,0-.484-.555c-.222.194-.456.386-.693.57a.368.368,0,0,0,.249.658" transform="translate(-693.842 -1699.567)" fill="#d7d9e0"/>
                </g>
              </g>
            </g>
            <path id="Trazado_719449" data-name="Trazado 719449" d="M508.643,1465.327a.187.187,0,0,0,0-.216l-1.313-1.849a9.874,9.874,0,0,0,.725-3.117l1.992-1.079a.186.186,0,0,0,.1-.194l-.445-2.683a.186.186,0,0,0-.153-.153l-2.234-.378a9.88,9.88,0,0,0-1.693-2.716l.646-2.173a.186.186,0,0,0-.07-.2l-2.212-1.583a.186.186,0,0,0-.216,0l-1.849,1.313a9.875,9.875,0,0,0-3.117-.725l-1.079-1.993a.186.186,0,0,0-.194-.1l-2.683.445a.186.186,0,0,0-.153.152l-.378,2.234A9.87,9.87,0,0,0,491.6,1452l-2.173-.646a.187.187,0,0,0-.2.07l-1.583,2.212a.186.186,0,0,0,0,.216l1.313,1.849a9.88,9.88,0,0,0-.726,3.117l-1.992,1.079a.186.186,0,0,0-.1.194l.445,2.683a.187.187,0,0,0,.153.153l2.234.378a9.876,9.876,0,0,0,1.693,2.716l-.646,2.173a.186.186,0,0,0,.07.2l2.212,1.583a.186.186,0,0,0,.216,0l1.849-1.313a9.872,9.872,0,0,0,3.117.726l1.079,1.992a.187.187,0,0,0,.194.1l2.683-.445a.186.186,0,0,0,.153-.153l.378-2.234a9.88,9.88,0,0,0,2.716-1.693l2.173.646a.186.186,0,0,0,.2-.07Z" transform="translate(-441.565 -1314.774)" fill="#d7d9e0"/>
            <path id="Trazado_719450" data-name="Trazado 719450" d="M589.286,1553.636a2.774,2.774,0,1,1,.412,0,2.858,2.858,0,0,1-.412,0m-1.81-2.943a2.047,2.047,0,1,0,2.21-1.87,2.048,2.048,0,0,0-2.21,1.87" transform="translate(-532.942 -1406.154)" fill="#e8e8ef"/>
            <path id="Trazado_719451" data-name="Trazado 719451" d="M548.36,1516.256q.348-.022.7-.08a6.978,6.978,0,0,0,1.363-.37l.059-.023a.368.368,0,0,0,.232-.365.363.363,0,0,0-.025-.112.368.368,0,0,0-.477-.207,6.227,6.227,0,0,1-1.271.352h0l-.072.011a6.139,6.139,0,0,1-3.021-.284,6.233,6.233,0,0,1-1.48-.768l-.011-.008-.034-.024a6.156,6.156,0,0,1-2.507-4.025,6.3,6.3,0,0,1-.073-.634,6.2,6.2,0,1,1,11.95,1.888.368.368,0,1,0,.685.27,6.931,6.931,0,1,0-13.369-2.113,7.066,7.066,0,0,0,.081.708,6.941,6.941,0,0,0,7.271,5.784" transform="translate(-491.396 -1364.666)" fill="#e8e8ef"/>
            <path id="Trazado_719452" data-name="Trazado 719452" d="M843.28,1374.394,840,1397.052h38.091l-4.961-22.657Z" transform="translate(-762.987 -1248.391)" fill="#333435"/>
            <path id="Trazado_719453" data-name="Trazado 719453" d="M177.864,508.569v67.438a10.23,10.23,0,0,0,9.967,10.227c24.632.635,110.781,2.175,134.229,1.83a7.528,7.528,0,0,0,7.411-7.313c.452-15.667,1.186-53.34-1.531-70.831a7.746,7.746,0,0,0-7.407-6.557c-20.638-.66-111.963-2.757-135.4-2.23a7.436,7.436,0,0,0-7.27,7.436" transform="translate(-161.558 -455.114)" fill="#48494b"/>
            <path id="Trazado_719454" data-name="Trazado 719454" d="M224.02,534.2V598.27a5.927,5.927,0,0,0,5.839,5.927l130.752,1.615a5.769,5.769,0,0,0,5.855-5.747l.219-63.5a4.219,4.219,0,0,0-4.116-4.233l-133.866-2.7a4.571,4.571,0,0,0-4.682,4.57" transform="translate(-203.482 -481.072)" fill="#74767b"/>
            <path id="Trazado_719455" data-name="Trazado 719455" d="M365.654,1361.454h0l-143.43-2.444a.181.181,0,0,1-.178-.184.184.184,0,0,1,.184-.178l143.43,2.444a.181.181,0,0,1,0,.363" transform="translate(-201.686 -1234.089)" fill="#74767b"/>
            <path id="Trazado_719456" data-name="Trazado 719456" d="M1005.114,1388.652a1.674,1.674,0,1,1,1.674-1.674,1.676,1.676,0,0,1-1.674,1.674m0-2.985a1.311,1.311,0,1,0,1.311,1.311,1.313,1.313,0,0,0-1.311-1.311" transform="translate(-911.446 -1258.302)" fill="#74767b"/>
            <path id="Trazado_719457" data-name="Trazado 719457" d="M768.805,1605.468H713.056c-1.515,0-2.652-1.078-2.359-2.236l.715-2.829a2.307,2.307,0,0,1,2.263-1.51l53.745-1.677a2.377,2.377,0,0,1,2.443,1.465l1.29,4.506c.335,1.171-.808,2.282-2.347,2.282" transform="translate(-645.499 -1450.782)" fill="#48494b"/>
            <path id="Trazado_719458" data-name="Trazado 719458" d="M1062.437,1619.953a.181.181,0,0,1,0-.362l2.3-.034a.185.185,0,0,1,.184.179.181.181,0,0,1-.179.184l-2.3.033Z" transform="translate(-964.869 -1471.078)" fill="#74767b"/>
            <path id="Trazado_719459" data-name="Trazado 719459" d="M731.869,1625.041l-.029,0a.181.181,0,0,1-.15-.208l.329-2.058a2.3,2.3,0,0,1,2.236-1.936l24.427-.357h0a.181.181,0,0,1,0,.363l-24.427.357a1.933,1.933,0,0,0-1.884,1.631l-.329,2.058a.181.181,0,0,1-.179.153" transform="translate(-664.607 -1471.916)" fill="#74767b"/>
            <path id="Trazado_719460" data-name="Trazado 719460" d="M366.252,542.544v-5.323a4.279,4.279,0,0,0-4.155-4.257l-133.911-2.716a4.6,4.6,0,0,0-4.728,4.558v6.564Z" transform="translate(-202.972 -481.634)" fill="#b9bcc5"/>
            <path id="Trazado_719461" data-name="Trazado 719461" d="M1550.006,603.475a1.824,1.824,0,1,1-1.824-1.824,1.824,1.824,0,0,1,1.824,1.824" transform="translate(-1404.59 -546.492)" fill="#efeff4"/>
            <path id="Trazado_719462" data-name="Trazado 719462" d="M1624.8,603.323a1.824,1.824,0,1,1-1.824-1.824,1.824,1.824,0,0,1,1.824,1.824" transform="translate(-1472.528 -546.354)" fill="#efeff4"/>
            <path id="Trazado_719463" data-name="Trazado 719463" d="M1699.6,603.323a1.824,1.824,0,1,1-1.824-1.824,1.824,1.824,0,0,1,1.824,1.824" transform="translate(-1540.469 -546.354)" fill="#efeff4"/>
            <path id="Trazado_719464" data-name="Trazado 719464" d="M274.8,742.6H248.785a3.328,3.328,0,0,1-3.328-3.328V687.907a3.328,3.328,0,0,1,3.328-3.328H274.8a3.328,3.328,0,0,1,3.328,3.328v51.361A3.328,3.328,0,0,1,274.8,742.6" transform="translate(-222.954 -621.817)" fill="#b9bcc5"/>
            <path id="Trazado_719465" data-name="Trazado 719465" d="M294.528,716.713H269.312a.756.756,0,0,1-.756-.756v-.923a.756.756,0,0,1,.756-.756h25.215a.756.756,0,0,1,.756.756v.923a.756.756,0,0,1-.756.756" transform="translate(-243.935 -648.794)" fill="#efeff4"/>
            <path id="Trazado_719466" data-name="Trazado 719466" d="M372.313,772.981H354.948a.756.756,0,0,1-.756-.756V771.3a.756.756,0,0,1,.756-.756h17.364a.756.756,0,0,1,.756.756v.923a.756.756,0,0,1-.756.756" transform="translate(-321.72 -699.903)" fill="#efeff4"/>
            <path id="Trazado_719467" data-name="Trazado 719467" d="M313.177,770.389a1.356,1.356,0,1,1-1.356-1.356,1.356,1.356,0,0,1,1.356,1.356" transform="translate(-282.001 -698.529)" fill="#efeff4"/>
            <path id="Trazado_719468" data-name="Trazado 719468" d="M374.116,828.931H356.751a.756.756,0,0,1-.756-.756v-.923a.756.756,0,0,1,.756-.756h17.364a.756.756,0,0,1,.756.756v.923a.756.756,0,0,1-.756.756" transform="translate(-323.358 -750.724)" fill="#efeff4"/>
            <path id="Trazado_719469" data-name="Trazado 719469" d="M314.98,826.338a1.356,1.356,0,1,1-1.356-1.356,1.356,1.356,0,0,1,1.356,1.356" transform="translate(-283.639 -749.349)" fill="#efeff4"/>
            <path id="Trazado_719470" data-name="Trazado 719470" d="M374.513,881.327H357.148a.756.756,0,0,1-.756-.756v-.923a.756.756,0,0,1,.756-.756h17.364a.756.756,0,0,1,.756.756v.923a.756.756,0,0,1-.756.756" transform="translate(-323.718 -798.316)" fill="#efeff4"/>
            <path id="Trazado_719471" data-name="Trazado 719471" d="M315.377,878.735a1.356,1.356,0,1,1-1.356-1.356,1.356,1.356,0,0,1,1.356,1.356" transform="translate(-283.999 -796.942)" fill="#efeff4"/>
            <path id="Trazado_719472" data-name="Trazado 719472" d="M376.316,937.276H358.951a.756.756,0,0,1-.756-.756V935.6a.756.756,0,0,1,.756-.756h17.364a.756.756,0,0,1,.756.756v.923a.756.756,0,0,1-.756.756" transform="translate(-325.356 -849.136)" fill="#efeff4"/>
            <path id="Trazado_719473" data-name="Trazado 719473" d="M317.18,934.684a1.356,1.356,0,1,1-1.356-1.356,1.356,1.356,0,0,1,1.356,1.356" transform="translate(-285.637 -847.761)" fill="#efeff4"/>
            <path id="Trazado_719474" data-name="Trazado 719474" d="M294.727,1012.089H269.511a.756.756,0,0,1-.756-.756v-.923a.756.756,0,0,1,.756-.756h25.215a.756.756,0,0,1,.756.756v.923a.756.756,0,0,1-.756.756" transform="translate(-244.116 -917.09)" fill="#efeff4"/>
            <path id="Trazado_719475" data-name="Trazado 719475" d="M372.512,1068.357H355.147a.756.756,0,0,1-.756-.756v-.923a.756.756,0,0,1,.756-.756h17.364a.756.756,0,0,1,.756.756v.923a.756.756,0,0,1-.756.756" transform="translate(-321.901 -968.199)" fill="#efeff4"/>
            <path id="Trazado_719476" data-name="Trazado 719476" d="M313.375,1065.764a1.356,1.356,0,1,1-1.356-1.356,1.356,1.356,0,0,1,1.356,1.356" transform="translate(-282.181 -966.824)" fill="#efeff4"/>
            <path id="Trazado_719477" data-name="Trazado 719477" d="M374.315,1124.306H356.95a.756.756,0,0,1-.756-.756v-.923a.756.756,0,0,1,.756-.756h17.364a.756.756,0,0,1,.756.756v.923a.756.756,0,0,1-.756.756" transform="translate(-323.539 -1019.019)" fill="#efeff4"/>
            <path id="Trazado_719478" data-name="Trazado 719478" d="M315.178,1121.714a1.356,1.356,0,1,1-1.356-1.356,1.356,1.356,0,0,1,1.356,1.356" transform="translate(-283.819 -1017.645)" fill="#efeff4"/>
            <path id="Trazado_719479" data-name="Trazado 719479" d="M374.712,1176.7H357.347a.756.756,0,0,1-.756-.756v-.923a.756.756,0,0,1,.756-.756h17.364a.756.756,0,0,1,.756.756v.923a.756.756,0,0,1-.756.756" transform="translate(-323.899 -1066.612)" fill="#efeff4"/>
            <path id="Trazado_719480" data-name="Trazado 719480" d="M315.575,1174.11a1.356,1.356,0,1,1-1.356-1.356,1.356,1.356,0,0,1,1.356,1.356" transform="translate(-284.179 -1065.237)" fill="#efeff4"/>
            <path id="Trazado_719481" data-name="Trazado 719481" d="M376.514,1232.652H359.149a.756.756,0,0,1-.756-.756v-.923a.756.756,0,0,1,.756-.756h17.364a.756.756,0,0,1,.756.756v.923a.756.756,0,0,1-.756.756" transform="translate(-325.536 -1117.432)" fill="#efeff4"/>
            <path id="Trazado_719482" data-name="Trazado 719482" d="M317.378,1230.059a1.356,1.356,0,1,1-1.356-1.356,1.356,1.356,0,0,1,1.356,1.356" transform="translate(-285.817 -1116.057)" fill="#efeff4"/>
            <path id="Trazado_719483" data-name="Trazado 719483" d="M1359.541,726.471V702.884a1.7,1.7,0,0,1,1.822-1.58l30.762.335a1.7,1.7,0,0,1,1.777,1.572l.129,23.836a1.7,1.7,0,0,1-1.838,1.587l-30.891-.584a1.7,1.7,0,0,1-1.761-1.579" transform="translate(-1234.9 -637.01)" fill="#a8abb2"/>
            <path id="Trazado_719484" data-name="Trazado 719484" d="M1359.541,1055.447V1031.86a1.7,1.7,0,0,1,1.822-1.579l30.762.335a1.7,1.7,0,0,1,1.777,1.572l.129,23.837a1.7,1.7,0,0,1-1.838,1.587l-30.891-.584a1.7,1.7,0,0,1-1.761-1.579" transform="translate(-1234.9 -935.826)" fill="#b9bcc5"/>
            <path id="Trazado_719485" data-name="Trazado 719485" d="M625.276,749.4v-50.9a3.408,3.408,0,0,1,3.451-3.408l58.27.722a3.408,3.408,0,0,1,3.366,3.392l.244,51.434a3.408,3.408,0,0,1-3.482,3.424l-58.514-1.261a3.408,3.408,0,0,1-3.335-3.408" transform="translate(-567.951 -631.372)" fill="#b9bcc5"/>
            <path id="Trazado_719486" data-name="Trazado 719486" d="M677.376,715.242V730.3a2.089,2.089,0,0,1-2.089,2.089H662.226a2.089,2.089,0,0,1-2.089-2.089V711.1a2.089,2.089,0,0,1,2.089-2.089h9.049l.127.13,5.883,6.007Z" transform="translate(-599.616 -644.01)" fill="#fff"/>
            <path id="Trazado_719487" data-name="Trazado 719487" d="M788.9,716.44h-4.462a1.421,1.421,0,0,1-1.42-1.421v-4.587Z" transform="translate(-711.23 -645.301)" fill="#e8e8ef"/>
            <path id="Trazado_719488" data-name="Trazado 719488" d="M691.679,813.526a5.708,5.708,0,0,1-.081-11.415.411.411,0,0,1,.417.411v4.96h4.961a.413.413,0,0,1,.411.394.417.417,0,0,1-.108.3.411.411,0,0,1-.3.133h0l-4.5,0,2.8,3.413a.411.411,0,0,1-.063.583,5.643,5.643,0,0,1-3.532,1.224m-.486-10.569a4.886,4.886,0,0,0,.486,9.747,4.829,4.829,0,0,0,2.682-.8l-3.077-3.748a.411.411,0,0,1-.091-.3Z" transform="translate(-623.083 -728.574)" fill="#a8abb2"/>
            <path id="Trazado_719489" data-name="Trazado 719489" d="M770.582,788.069h-5.371a.411.411,0,0,1-.411-.411v-5.371a.411.411,0,0,1,.395-.411h.091a5.715,5.715,0,0,1,5.709,5.708c0,.031,0,.062,0,.093a.411.411,0,0,1-.411.393m-4.96-.822h4.539a4.894,4.894,0,0,0-4.539-4.539Z" transform="translate(-694.684 -710.194)" fill="#a8abb2"/>
            <path id="Trazado_719490" data-name="Trazado 719490" d="M745.835,864.87a.5.5,0,0,1-.383-.181L742.1,860.6a.495.495,0,0,1,.383-.809h0l5.374,0a.495.495,0,0,1,.495.5,5.769,5.769,0,0,1-2.208,4.465.493.493,0,0,1-.306.106m-2.307-4.085,2.366,2.882a4.774,4.774,0,0,0,1.432-2.88Z" transform="translate(-673.961 -780.97)" fill="#a8abb2"/>
            <path id="Trazado_719491" data-name="Trazado 719491" d="M902.98,715.234V730.3a2.091,2.091,0,0,1-2.091,2.091H887.82a2.091,2.091,0,0,1-2.091-2.091V711.089A2.091,2.091,0,0,1,887.82,709h9.055l.127.131,5.887,6.011Z" transform="translate(-804.526 -643.998)" fill="#fff"/>
            <path id="Trazado_719492" data-name="Trazado 719492" d="M1014.582,716.432h-4.466a1.421,1.421,0,0,1-1.422-1.421v-4.59Z" transform="translate(-916.219 -645.29)" fill="#e8e8ef"/>
            <path id="Trazado_719493" data-name="Trazado 719493" d="M933.472,825.776h-8.85a.3.3,0,0,1-.3-.3v-9.495a.3.3,0,0,1,.3-.3h8.85a.3.3,0,0,1,.3.3v9.495a.3.3,0,0,1-.3.3m-8.548-.6h8.245v-8.89h-8.245Z" transform="translate(-839.578 -740.896)" fill="#a8abb2"/>
            <path id="Trazado_719494" data-name="Trazado 719494" d="M949.166,825.775a.3.3,0,0,1-.3-.3v-9.494a.3.3,0,0,1,.605,0v9.494a.3.3,0,0,1-.3.3" transform="translate(-861.873 -740.896)" fill="#a8abb2"/>
            <path id="Trazado_719495" data-name="Trazado 719495" d="M933.48,841.421h-8.851a.3.3,0,0,1,0-.605h8.851a.3.3,0,1,1,0,.605" transform="translate(-839.586 -763.731)" fill="#a8abb2"/>
            <path id="Trazado_719496" data-name="Trazado 719496" d="M933.48,867.955h-8.851a.3.3,0,0,1,0-.605h8.851a.3.3,0,1,1,0,.605" transform="translate(-839.586 -787.832)" fill="#a8abb2"/>
            <path id="Trazado_719497" data-name="Trazado 719497" d="M933.48,893.807h-8.851a.3.3,0,0,1,0-.605h8.851a.3.3,0,1,1,0,.605" transform="translate(-839.586 -811.314)" fill="#a8abb2"/>
            <path id="Trazado_719498" data-name="Trazado 719498" d="M993.557,825.775a.3.3,0,0,1-.3-.3v-9.494a.3.3,0,0,1,.6,0v9.494a.3.3,0,0,1-.3.3" transform="translate(-902.194 -740.896)" fill="#a8abb2"/>
            <path id="Trazado_719499" data-name="Trazado 719499" d="M1126.389,717.64v14.883a2.066,2.066,0,0,1-2.066,2.066H1111.41a2.066,2.066,0,0,1-2.066-2.066V713.545a2.066,2.066,0,0,1,2.066-2.066h8.947l.126.129,5.817,5.939Z" transform="translate(-1007.64 -646.251)" fill="#fff"/>
            <path id="Trazado_719500" data-name="Trazado 719500" d="M1236.654,718.824h-4.412a1.4,1.4,0,0,1-1.4-1.4v-4.535Z" transform="translate(-1117.995 -647.528)" fill="#e8e8ef"/>
            <path id="Trazado_719501" data-name="Trazado 719501" d="M1158.534,831.937h-9.548a.262.262,0,0,1-.262-.262v-7.956a.262.262,0,0,1,.262-.262h9.548a.262.262,0,0,1,.262.262v7.956a.262.262,0,0,1-.262.262m-9.286-.524h9.024v-7.432h-9.024Z" transform="translate(-1043.41 -747.963)" fill="#a8abb2"/>
            <path id="Trazado_719502" data-name="Trazado 719502" d="M1148.993,858.728a.262.262,0,0,1-.19-.443l2.614-2.743a.262.262,0,0,1,.185-.081.279.279,0,0,1,.188.074l1.438,1.4,2.332-2.253a.263.263,0,0,1,.369.005l2.8,2.863a.262.262,0,1,1-.375.366l-2.618-2.677-2.328,2.249a.262.262,0,0,1-.365,0l-1.43-1.392-2.431,2.552a.261.261,0,0,1-.189.081" transform="translate(-1043.417 -776.259)" fill="#a8abb2"/>
            <path id="Trazado_719503" data-name="Trazado 719503" d="M901.141,1061.431v15.064a2.091,2.091,0,0,1-2.091,2.091h-13.07a2.091,2.091,0,0,1-2.091-2.091v-19.208a2.091,2.091,0,0,1,2.091-2.091h9.055l.127.131,5.887,6.011Z" transform="translate(-802.856 -958.456)" fill="#fff"/>
            <path id="Trazado_719504" data-name="Trazado 719504" d="M1012.743,1062.629h-4.466a1.422,1.422,0,0,1-1.422-1.421v-4.59Z" transform="translate(-914.548 -959.749)" fill="#e8e8ef"/>
            <path id="Trazado_719505" data-name="Trazado 719505" d="M928.92,1169.132a1.1,1.1,0,0,1-1.1,1.1h-8.088a1.1,1.1,0,0,1-1.1-1.1v-6.072a1.1,1.1,0,0,1,1.1-1.1h8.088a1.1,1.1,0,0,1,1.1,1.1Zm-.807-5.989a.375.375,0,0,0-.375-.375h-8.125a.375.375,0,0,0-.375.375v5.906a.375.375,0,0,0,.375.375h8.125a.375.375,0,0,0,.375-.375Z" transform="translate(-834.415 -1055.435)" fill="#a8abb2"/>
            <path id="Trazado_719506" data-name="Trazado 719506" d="M925.148,1168.717a.362.362,0,0,1-.209-.067l-4.531-3.213a.362.362,0,0,1,.419-.591l4.321,3.064,4.265-3.029a.362.362,0,0,1,.42.59l-4.474,3.178a.361.361,0,0,1-.21.067" transform="translate(-835.887 -1057.994)" fill="#a8abb2"/>
            <path id="Trazado_719507" data-name="Trazado 719507" d="M921.256,1192.107l-.107-.716.05.359-.3-.2c.084-.135,1.718-2.993,2.8-4.881a.362.362,0,0,1,.629.359s-.7,1.224-1.4,2.449c-.35.612-.7,1.225-.965,1.684-.526.916-.526.916-.7.944" transform="translate(-836.469 -1077.712)" fill="#a8abb2"/>
            <path id="Trazado_719508" data-name="Trazado 719508" d="M991.294,1192.107c-.175-.028-.175-.028-.7-.943l-.964-1.684c-.7-1.224-1.4-2.449-1.4-2.449a.362.362,0,1,1,.629-.359c1.078,1.888,2.712,4.746,2.8,4.881l-.3.2Z" transform="translate(-897.587 -1077.713)" fill="#a8abb2"/>
            <path id="Trazado_719509" data-name="Trazado 719509" d="M1124.55,1063.838v14.883a2.066,2.066,0,0,1-2.066,2.066h-12.913a2.066,2.066,0,0,1-2.066-2.066v-18.979a2.066,2.066,0,0,1,2.066-2.066h8.947l.126.129,5.816,5.939Z" transform="translate(-1005.97 -960.71)" fill="#fff"/>
            <path id="Trazado_719510" data-name="Trazado 719510" d="M1234.814,1065.021H1230.4a1.4,1.4,0,0,1-1.4-1.4v-4.535Z" transform="translate(-1116.325 -961.987)" fill="#e8e8ef"/>
            <path id="Trazado_719511" data-name="Trazado 719511" d="M1150.111,1163.616a4.882,4.882,0,1,1,4.882-4.882,4.888,4.888,0,0,1-4.882,4.882m0-8.946a4.064,4.064,0,1,0,4.064,4.064,4.069,4.069,0,0,0-4.064-4.064" transform="translate(-1040.236 -1048.068)" fill="#a8abb2"/>
            <path id="Trazado_719512" data-name="Trazado 719512" d="M1181.8,1188.036v-3.51a.484.484,0,0,1,.731-.416l2.958,1.755a.484.484,0,0,1,0,.832l-2.958,1.755a.484.484,0,0,1-.731-.416" transform="translate(-1073.453 -1075.49)" fill="#a8abb2" fill-rule="evenodd"/>
            <path id="Trazado_719513" data-name="Trazado 719513" d="M675.69,1068.738v15.025a2.085,2.085,0,0,1-2.085,2.085H660.568a2.085,2.085,0,0,1-2.085-2.085V1064.6a2.086,2.086,0,0,1,2.085-2.086H669.6l.127.13,5.872,6Z" transform="translate(-598.114 -965.107)" fill="#fff"/>
            <path id="Trazado_719514" data-name="Trazado 719514" d="M787.007,1069.934h-4.454a1.418,1.418,0,0,1-1.418-1.418v-4.578Z" transform="translate(-709.521 -966.397)" fill="#e8e8ef"/>
            <path id="Trazado_719515" data-name="Trazado 719515" d="M768.5,1179.616h-2.981a.353.353,0,0,1,0-.706H768.5a.353.353,0,0,1,0,.706" transform="translate(-695.015 -1070.829)" fill="#a8abb2"/>
            <path id="Trazado_719516" data-name="Trazado 719516" d="M768.5,1204.694H765.52a.353.353,0,0,1,0-.706H768.5a.353.353,0,0,1,0,.706" transform="translate(-695.017 -1093.608)" fill="#a8abb2"/>
            <path id="Trazado_719517" data-name="Trazado 719517" d="M708.261,1231.159h-8.828a.353.353,0,1,1,0-.706h8.828a.353.353,0,1,1,0,.706" transform="translate(-634.989 -1117.646)" fill="#a8abb2"/>
            <path id="Trazado_719518" data-name="Trazado 719518" d="M708.261,1256.944h-8.828a.353.353,0,1,1,0-.706h8.828a.353.353,0,1,1,0,.706" transform="translate(-634.989 -1141.068)" fill="#a8abb2"/>
            <path id="Trazado_719519" data-name="Trazado 719519" d="M703.421,1182.026h-4.389a.353.353,0,0,1-.353-.353v-2.5a.353.353,0,0,1,.353-.353h4.389a.353.353,0,0,1,.353.353v2.5a.353.353,0,0,1-.353.353m-4.036-.706h3.683v-1.79h-3.683Z" transform="translate(-634.625 -1070.751)" fill="#a8abb2"/>
          </g>
        </g>
        <g id="Grupo_1017863" data-name="Grupo 1017863" transform="translate(117.296 97.55)">
          <g id="Grupo_1017862" data-name="Grupo 1017862" clip-path="url(#clip-path-9)">
            <rect id="Rectángulo_350580" data-name="Rectángulo 350580" width="15.452" height="16.436" transform="translate(-4.319 5.825) rotate(-53.443)" fill="url(#linear-gradient)"/>
          </g>
        </g>
        <g id="Grupo_1017865" data-name="Grupo 1017865">
          <g id="Grupo_1017864" data-name="Grupo 1017864" clip-path="url(#clip-path)">
            <path id="Trazado_719521" data-name="Trazado 719521" d="M1362.907,1792.9c1.954.169,5.345.443,8.019.561a7.725,7.725,0,0,0,3.065-.3c0,.06,0,.116,0,.17a.553.553,0,0,1-.525.522,93.891,93.891,0,0,1-10.5.01.394.394,0,0,1-.321-.592,3.21,3.21,0,0,1,.267-.372" transform="translate(-1237.664 -1628.533)" fill="#333435"/>
            <path id="Trazado_719522" data-name="Trazado 719522" d="M1374.117,1754.373c-2.674-.118-6.065-.392-8.019-.561,1.921-2.357,8.019-3.946,8.019-3.946h1.722a7.224,7.224,0,0,1,1.343,4.207,7.728,7.728,0,0,1-3.065.3" transform="translate(-1240.856 -1589.44)" fill="#48494b"/>
          </g>
        </g>
        <g id="Grupo_1017867" data-name="Grupo 1017867" transform="translate(132.061 157.614)">
          <g id="Grupo_1017866" data-name="Grupo 1017866" clip-path="url(#clip-path-11)">
            <rect id="Rectángulo_350582" data-name="Rectángulo 350582" width="4.396" height="3.804" transform="translate(-0.625 3.828) rotate(-80.727)" fill="url(#linear-gradient-2)"/>
          </g>
        </g>
        <g id="Grupo_1017869" data-name="Grupo 1017869">
          <g id="Grupo_1017868" data-name="Grupo 1017868" clip-path="url(#clip-path)">
            <path id="Trazado_719524" data-name="Trazado 719524" d="M1664.335,1810.938a1.609,1.609,0,0,0,1.392-1.2l0,.015a1.322,1.322,0,0,1-.742,1.462,4.23,4.23,0,0,1-2.055.375,1.942,1.942,0,0,1-1.541-.827l0-.007a4.485,4.485,0,0,0,2.948.181" transform="translate(-1509.074 -1643.825)" fill="#333435"/>
            <path id="Trazado_719525" data-name="Trazado 719525" d="M1639.766,1729.913h1.42c2.163-.052,3.522,5.261,3.967,7.318a1.611,1.611,0,0,1-1.392,1.2,4.487,4.487,0,0,1-2.948-.182,17.4,17.4,0,0,1-2.027-5.944,2.15,2.15,0,0,1,.979-2.391" transform="translate(-1488.5 -1571.316)" fill="#48494b"/>
          </g>
        </g>
        <g id="Grupo_1017871" data-name="Grupo 1017871" transform="translate(149.479 155.637)">
          <g id="Grupo_1017870" data-name="Grupo 1017870" clip-path="url(#clip-path-13)">
            <rect id="Rectángulo_350584" data-name="Rectángulo 350584" width="5.015" height="5.465" transform="translate(-1.206 0.345) rotate(-15.945)" fill="url(#linear-gradient-3)"/>
          </g>
        </g>
        <g id="Grupo_1017873" data-name="Grupo 1017873">
          <g id="Grupo_1017872" data-name="Grupo 1017872" clip-path="url(#clip-path)">
            <path id="Trazado_719527" data-name="Trazado 719527" d="M1360.85,1238.186s7.048,44.055,6.932,44.3a5.862,5.862,0,0,0,4.068.113s-.637-23.551-2.13-32.58c0,0,12.028,21.049,15.848,31.538a9.546,9.546,0,0,0,3.641-1.323s-12.951-37.888-16.406-42.935Z" transform="translate(-1236.089 -1123.862)" fill="#fff176"/>
            <path id="Trazado_719528" data-name="Trazado 719528" d="M1405.852,1322.679a.341.341,0,0,0,.288-.521l-2.634-4.207a.34.34,0,0,0-.221-.153l-1.939-.39a.341.341,0,0,0-.134.668l1.795.361,2.556,4.083a.341.341,0,0,0,.289.16" transform="translate(-1272.503 -1196.622)" fill="#e5b731"/>
            <path id="Trazado_719529" data-name="Trazado 719529" d="M1339.254,916.647c1.186-2.486,11.42-2.748,18.918-.271,1.578.521,2.7,2.8,2.731,4.444a5.66,5.66,0,0,1-5.077,5.4c-1.9,5.129-3.636,12.15-3.822,15.462a7.121,7.121,0,0,0,.558,3.186l.047.11a.377.377,0,0,1-.265.515,43.233,43.233,0,0,1-12.064.708.658.658,0,0,1-.587-.5c-2.5-10.515-2.224-25.306-.438-29.05" transform="translate(-1215.214 -830.791)" fill="#e7edf6"/>
          </g>
        </g>
        <g id="Grupo_1017875" data-name="Grupo 1017875" transform="translate(130.135 77.437)">
          <g id="Grupo_1017874" data-name="Grupo 1017874" clip-path="url(#clip-path-15)">
            <rect id="Rectángulo_350586" data-name="Rectángulo 350586" width="6.941" height="9.427" transform="matrix(0.996, -0.089, 0.089, 0.996, -0.808, 0.07)" fill="url(#linear-gradient-4)"/>
          </g>
        </g>
        <g id="Grupo_1017877" data-name="Grupo 1017877" transform="translate(127.433 70.313)">
          <g id="Grupo_1017876" data-name="Grupo 1017876" clip-path="url(#clip-path-16)">
            <rect id="Rectángulo_350587" data-name="Rectángulo 350587" width="14.145" height="14.149" transform="matrix(0.558, -0.83, 0.83, 0.558, -5.394, 7.02)" fill="url(#linear-gradient-5)"/>
          </g>
        </g>
        <g id="Grupo_1017879" data-name="Grupo 1017879">
          <g id="Grupo_1017878" data-name="Grupo 1017878" clip-path="url(#clip-path)">
            <path id="Trazado_719532" data-name="Trazado 719532" d="M1412.956,731.37l-.117-.084a.318.318,0,0,1-.063-.459c.448-.551,1.366-1.836.63-2.334-.948-.642-4.882-2.336-5.464-3.979a2.771,2.771,0,0,1,1.814-3.508.16.16,0,0,1,.191.109l.057.2a.157.157,0,0,0,.29.03.156.156,0,0,1,.285.018c.182.493.77,1.353,2.661,2.127,2.688,1.1,4.3,2.616,3.944,4.557a.158.158,0,0,0,.212.177c.233-.083.575-.073.939.39.633.806-.03,2.415-2,3.441a.156.156,0,0,0-.044.248c.264.262.62.83-.69,1.214a4.054,4.054,0,0,1-2.593.023.157.157,0,0,1-.086-.211l.729-1.62a.157.157,0,0,0-.111-.218Z" transform="translate(-1278.73 -654.902)" fill="#333435"/>
          </g>
        </g>
        <g id="Grupo_1017881" data-name="Grupo 1017881" transform="translate(134.081 75.239)">
          <g id="Grupo_1017880" data-name="Grupo 1017880" clip-path="url(#clip-path-18)">
            <rect id="Rectángulo_350589" data-name="Rectángulo 350589" width="3.956" height="4.014" transform="translate(-1.28 1.906) rotate(-56.108)" fill="url(#linear-gradient-6)"/>
          </g>
        </g>
        <g id="Grupo_1017883" data-name="Grupo 1017883">
          <g id="Grupo_1017882" data-name="Grupo 1017882" clip-path="url(#clip-path)">
            <path id="Trazado_719534" data-name="Trazado 719534" d="M1532.841,946.766l.962-9.052c.2-.594,1.913-.926,2.35-.517a21.482,21.482,0,0,1,5.583,11.124,13.482,13.482,0,0,0-5.628,1.783,7.617,7.617,0,0,0-3.267-3.338" transform="translate(-1392.312 -851.111)" fill="#e7edf6"/>
          </g>
        </g>
        <g id="Grupo_1017885" data-name="Grupo 1017885" transform="translate(132.607 97.209)">
          <g id="Grupo_1017884" data-name="Grupo 1017884" clip-path="url(#clip-path-20)">
            <rect id="Rectángulo_350591" data-name="Rectángulo 350591" width="18.842" height="17.431" transform="translate(-1.809 0.214) rotate(-6.738)" fill="url(#linear-gradient-7)"/>
          </g>
        </g>
        <g id="Grupo_1017887" data-name="Grupo 1017887">
          <g id="Grupo_1017886" data-name="Grupo 1017886" clip-path="url(#clip-path)">
            <path id="Trazado_719536" data-name="Trazado 719536" d="M1268.978,992.369l-4.689-16.376a.478.478,0,0,0-.4-.344c-.85-.1-3.312-.377-6.154-.618a69.835,69.835,0,0,0-9.776-.325.479.479,0,0,0-.392.69c1.351,2.733,6.909,13.853,9.692,17.5a.482.482,0,0,0,.387.19l10.88-.1a.479.479,0,0,0,.456-.611" transform="translate(-1133.143 -885.279)" fill="#333435"/>
            <path id="Trazado_719537" data-name="Trazado 719537" d="M1317.157,957.851l-3.4-.567a.244.244,0,0,0-.272.317l.337,1.02a.243.243,0,0,0,.2.165l3.272.437a.244.244,0,0,0,.27-.3l-.208-.89a.244.244,0,0,0-.2-.185" transform="translate(-1193.055 -869.519)" fill="#74767b"/>
            <path id="Trazado_719538" data-name="Trazado 719538" d="M1303.993,970.823l-.28-1.459a.337.337,0,0,0-.3-.272l-6.867-.7a.338.338,0,0,0-.362.414l.437,1.818a.337.337,0,0,0,.311.258l6.71.338a.337.337,0,0,0,.348-.4" transform="translate(-1177.345 -879.612)" fill="#74767b"/>
          </g>
        </g>
        <g id="Grupo_1017889" data-name="Grupo 1017889" transform="translate(128.908 97.55)">
          <g id="Grupo_1017888" data-name="Grupo 1017888" clip-path="url(#clip-path-22)">
            <rect id="Rectángulo_350593" data-name="Rectángulo 350593" width="7.077" height="6.456" transform="translate(-0.669 0.079) rotate(-6.738)" fill="url(#linear-gradient-8)"/>
          </g>
        </g>
        <g id="Grupo_1017891" data-name="Grupo 1017891" transform="translate(115.826 93.414)">
          <g id="Grupo_1017890" data-name="Grupo 1017890" clip-path="url(#clip-path-23)">
            <rect id="Rectángulo_350594" data-name="Rectángulo 350594" width="7.993" height="7.776" transform="matrix(0.596, -0.803, 0.803, 0.596, -3.35, 3.974)" fill="url(#linear-gradient-9)"/>
          </g>
        </g>
      </g>
    </g>
  </g>
</svg>
