<svg xmlns="http://www.w3.org/2000/svg" xmlns:xlink="http://www.w3.org/1999/xlink" width="208.784" height="209" viewBox="0 0 208.784 209">
  <defs>
    <clipPath id="clip-path">
      <rect id="Rectángulo_350823" data-name="Rectángulo 350823" width="208.784" height="209" fill="none"/>
    </clipPath>
  </defs>
  <g id="Grupo_1018160" data-name="Grupo 1018160" clip-path="url(#clip-path)">
    <path id="Trazado_720320" data-name="Trazado 720320" d="M127.971,138.189c-5.936,5.224-12.2,7.759-19.37,6.507-9.591-1.676-15.7-7.514-18.391-16.869-2.435-8.465-4.938-16.913-7.173-25.432a29.488,29.488,0,0,0-5.921-11.865C75.14,88.187,72.964,85.851,72,82.887c-.669-2.068-2.037-2.078-3.534-1.832-1.94.32-1.01,2.005-1.034,3.037-.112,4.766-.141,9.539-.007,14.3.059,2.094-.405,2.873-2.724,2.862q-30.923-.145-61.848-.015c-2.094.007-2.87-.413-2.857-2.726Q.152,70.958.014,43.4c-.008-2.1.426-2.862,2.731-2.852q30.923.143,61.848.013c2.108-.008,2.944.428,2.85,2.737-.189,4.62.134,9.264-.125,13.878-.163,2.91.606,3.74,3.619,3.7,14.443-.175,28.89-.131,43.335-.049a10.08,10.08,0,0,1,10.3,9.115,10.216,10.216,0,0,1-7.585,10.735,13.356,13.356,0,0,1-2.91.312c-5.108.173-7.085,2.642-5.864,7.918,1.79,7.73,3.827,15.4,5.78,23.185,1.91-.365,2.355-2.05,3.3-3.128,6.728-7.636,14.763-13.329,24.575-16.168,2.9-.84,3.018-2.472,2.991-4.865-.024-2.272-.184-3.67-2.951-4.427-7.007-1.918-10.66-7.343-10.509-15.252.061-3.185-.23-5.255-3.827-6.6-5.043-1.887-7.31-7.234-6-12.489,1.118-4.474,2.5-8.884,3.8-13.311.493-1.671.723-2.737-1.4-3.873-7.625-4.079-10.906-11.39-8.961-18.885C117.128,4.991,123.5.122,132.44.249c10.082.144,20.228-.986,30.237.641,18.89,3.07,32.389,17.06,35.6,36.415,2.821,17.013-6.3,34.907-22.237,43.6-4.149,2.265-5.231,4.794-4.343,9.29.312,1.58,1.321,1.481,2.387,1.758,22.053,5.706,34.67,22.072,34.683,44.961.005,9.116.042,18.232-.01,27.348-.06,10.437-6.762,17.381-17.244,17.654-2.374.061-3.051.647-3,3.021.156,7.008-.046,14.026.112,21.034.054,2.4-.655,3.011-3.018,3-18.231-.1-36.465-.135-54.7.028-2.982.027-2.99-1.271-2.975-3.468.074-11.079.034-22.158.034-33.238Zm40.619-15.4-.234.117.3-.152c-1.224,3.4-.008,6.8.987,9.771,3.2,9.567,1.509,16.963-6.984,23.13-4.845,3.517-3.974,3.6-8.9-.144-8.047-6.12-10.454-13.227-6.918-22.743a18.227,18.227,0,0,0,1.144-9.615c-2.079,1.912-3.683,3.388-5.737,5.279-1.089-9.4-2.111-18.223-3.174-27.4a46.7,46.7,0,0,0-21.616,19.342,4.392,4.392,0,0,0-.4,4.008c1.395,3.581-1.388,3.2-3.381,3.974-3.019,1.174-2.881-1.121-3.285-2.69-1.955-7.583-3.807-15.193-5.729-22.786C101.7,91.118,101.686,91.122,90.392,96a2,2,0,0,1-.405.11c-1.213.239-1.6.889-1.232,2.114,3.1,10.452,5.784,21.053,9.408,31.321,2.281,6.462,10.126,9.811,16.68,8.376,6.216-1.36,13.178-8.042,13.024-13.152-.1-3.352,1.393-3.337,3.935-3.477,3.086-.169,2.937,1.481,2.927,3.585-.047,11.073.076,22.147-.089,33.218-.043,2.847.561,3.807,3.618,3.766q19.97-.27,39.945-.005c2.938.036,3.755-.707,3.7-3.681-.187-11.07-.017-22.146-.119-33.218-.023-2.47.249-3.687,3.286-3.7,3.139-.011,3.635,1.1,3.554,3.87-.193,6.582-.062,13.174-.062,19.762,0,10.826,0,10.758,10.955,10.22,2.067-.1,2.579-.741,2.545-2.683-.116-6.586.312-13.2-.174-19.757-1.016-13.709-7.657-24.049-19.81-30.666-4.545-2.474-4.644-2.348-5.2,2.981-.8,7.622-1.646,15.238-2.513,23.234-2.176-2.06-3.971-3.758-5.778-5.438M33.358,94.465c8.122,0,16.246-.094,24.366.057,2.422.045,2.681-.818,3.043-3.023,1.179-7.2-1.171-12.021-7.906-15.157C50.1,75.055,45.7,73.461,45.735,70.8c.025-1.894,4.426-4.29,7.284-5.475,7.153-2.965,8.631-8.275,7.725-15.227-.269-2.062-.552-2.83-2.809-2.816q-24.156.148-48.313.014c-2.046-.008-2.909.342-2.889,2.7q.179,20.794,0,41.591c-.023,2.5.843,2.958,3.1,2.921,7.84-.125,15.683-.048,23.526-.048M172.1,75.029a12.962,12.962,0,0,0,1.614-.623c12.4-6.89,19.986-21.769,18.041-35.378-2.228-15.587-13.374-28.3-27.943-31.1-11.227-2.157-22.655-.961-33.984-.752-4.88.089-8.578,5.052-8.568,9.885.01,4.684,3.459,9.374,8.207,9.771,6.266.525,12.6.285,18.909.2a3.005,3.005,0,0,0,3.055-3.346,3.164,3.164,0,0,0-3.234-3.214c-1.673-.133-3.363-.07-5.046-.081-1.964-.013-1.812-1.477-1.672-2.68.158-1.363-.9-3.183,1.2-3.955a11.527,11.527,0,0,1,15.532,10.525c.04,1.784.223,2.562,2.254,3.08,7.833,2,11.226,6.478,11.236,14.493a6.611,6.611,0,0,0,2.367,5.38,13.776,13.776,0,0,1,.111,20.251c-2.486,2.293-2.79,4.463-2.077,7.544M146.936,33.877c-3.782,0-7.567.1-11.344-.041-1.84-.067-2.849.525-3.341,2.3-1.3,4.713-2.729,9.391-4.019,14.108-.733,2.683.147,5.273,2.862,5.622,7.308.942,7.612,5.729,6.989,11.316a9.823,9.823,0,0,0-.005,1.26c.1,5.972,3.135,9.077,9.019,9.182,2.521.045,5.049.109,7.563-.022,2.357-.123,3.81,0,3.745,3.187-.061,2.945-.8,4.134-3.73,3.578-2.668-.506-2.921.779-3.265,3.191-.828,5.817,2.824,9.333,5.8,13.3.56.747,1.189,1.414,1.891.293,2.364-3.779,6.423-6.489,6.014-11.947-.479-6.407.023-12.882-.173-19.32-.088-2.892.5-4.672,3.289-6.281,4.766-2.747,4.941-9.589.149-12.15-3.418-1.828-3.545-4.108-3.387-7.088.06-1.118.051-2.243,0-3.361-.2-4.423-2.7-6.973-7.128-7.1-3.639-.1-7.284-.021-10.926-.024m11.237,134.65c-6.866,0-13.733.02-20.6-.015-1.652-.008-2.935-.079-2.906,2.307.113,9.667.06,19.336.032,29,0,1.418.115,2.407,1.973,2.377,5.463-.086,10.929-.045,16.394-.022,1.162.005,2.017-.352,1.8-1.638-1.221-7.31,3.5-15.847-4.507-21.774-1.326-.981-.579-2.053.405-2.711,1.256-.84,2.195-3.729,3.79-2.222,3.164,2.988,7.731,5.166,7.175,10.935-.442,4.581.033,9.244-.137,13.862-.093,2.546.353,3.794,3.342,3.618,4.608-.27,9.248-.192,13.867-.021,2.358.088,3.117-.589,3.081-3.021q-.206-13.87,0-27.743c.037-2.464-.819-3.028-3.113-2.985-6.863.132-13.732.047-20.6.048m-.089-56.712c-.7,2.4-1.15,3.55-1.373,4.741q-2.153,11.557-4.219,23.129c-.656,3.642,1.7,8.833,5.107,9.773,2.905.8,3.608-2.84,5.61-4.089,1.6-1,1.363-2.5,1.059-4.1-1.041-5.5-1.839-11.049-3-16.523-.824-3.887-.83-7.994-3.186-12.933M79.577,67.541c-5.469,0-10.94-.077-16.407.035-2.473.051-5.3,1.362-5.433,3.479-.088,1.471,2.868,3.073,5.277,3.206.14.008.28,0,.421,0,10.517,0,21.037-.1,31.552.068,2.839.045,2.691-1.394,2.732-3.352.046-2.2.008-3.68-3-3.516-5.033.274-10.093.075-15.142.077M188.568,168.5c.653,1.957-1.49,5.537.976,6.461,3.438,1.288,7.193-.054,9.795-3.084a11.819,11.819,0,0,0,2.083-3.568c1.928-5.273,1.023-6.522-4.521-6.523h-2.094c-6.239,0-6.239,0-6.239,6.714M78.363,81,84.5,89.242c.529.71,1.139,1.24,2.112.91,4.616-1.565,9.235-3.119,13.845-4.7,1.764-.605,1.489-2.221,1.493-3.534,0-1.246-1.168-.9-1.9-.9C93.126,80.986,86.206,81,78.363,81M110.3,74.265c1.113,0,2.227-.008,3.341,0,2.425.023,4.233-.926,4.127-3.551-.1-2.367-1.85-3.213-4.085-3.183a46.992,46.992,0,0,1-6.258-.045c-2.873-.352-3.1,1.1-3.072,3.394.024,2.218.1,3.9,3.028,3.411a18.133,18.133,0,0,1,2.919-.027m36.562,24.169-1.125.411c.248,2.42.477,4.842.748,7.259s.584,4.812.879,7.217l1.11.63c1.3-1.609,2.541-3.266,3.912-4.809.807-.909,1.422-1.665.492-2.855-2.032-2.6-4.014-5.233-6.015-7.853m24.056-.189c-8.853,6.372-9.182,9.669-1.708,15.252.568-5.066,1.112-9.924,1.708-15.252" transform="translate(0 0)" fill="#030302"/>
    <path id="Trazado_720321" data-name="Trazado 720321" d="M47.187,151.716c0,6.87-.1,13.743.056,20.609.055,2.382-.632,3.027-3.008,3.008q-20.609-.168-41.221,0c-2.377.019-3.026-.631-3.006-3.007q.168-20.609,0-41.22c-.019-2.377.631-3.027,3.007-3.007q20.609.168,41.22,0c2.377-.019,3.063.627,3.008,3.008-.157,6.867-.056,13.739-.056,20.61M23.2,168.546c4.9,0,9.81-.091,14.71.044,2.021.056,2.607-.563,2.586-2.583q-.148-14.289,0-28.58c.021-2.017-.563-2.606-2.584-2.585q-14.288.148-28.58,0c-2.017-.02-2.606.563-2.585,2.584q.148,14.288,0,28.58c-.021,2.017.559,2.647,2.584,2.585,4.619-.139,9.246-.044,13.869-.044" transform="translate(-0.001 -20.222)"/>
    <path id="Trazado_720322" data-name="Trazado 720322" d="M23.2,239.233c-6.73,0-13.463-.1-20.189.056-2.383.056-3.026-.634-3.006-3.009q.168-20.609,0-41.221c-.019-2.377.633-3.025,3.008-3.006q20.609.168,41.221,0c2.377-.019,3.025.633,3.006,3.008q-.168,20.609,0,41.22c.019,2.378-.629,3.06-3.009,3.007-7.007-.157-14.02-.056-21.03-.056m17.252-23.141c0-4.9-.091-9.81.044-14.71.056-2.02-.563-2.607-2.583-2.586q-14.289.148-28.58,0c-2.016-.021-2.606.563-2.585,2.583q.148,14.289,0,28.58c-.021,2.016.563,2.606,2.583,2.585q14.289-.148,28.58,0c2.016.02,2.647-.559,2.585-2.584-.139-4.619-.044-9.246-.044-13.869" transform="translate(-0.001 -30.318)"/>
    <path id="Trazado_720323" data-name="Trazado 720323" d="M90.946,198.834c-7.992,0-15.989-.16-23.974.083-2.966.09-3.016-1.225-3.015-3.449s.053-3.48,3.012-3.448q23.973.259,47.951,0c2.957-.032,3.013,1.224,3.012,3.447s-.045,3.54-3.013,3.449c-7.985-.243-15.982-.083-23.974-.083" transform="translate(-10.097 -30.313)"/>
    <path id="Trazado_720324" data-name="Trazado 720324" d="M90.877,214.821c-7.993,0-15.99-.171-23.975.086-3.086.1-2.855-1.422-2.945-3.516-.1-2.35.234-3.407,3.077-3.379q23.974.242,47.953-.007c3.075-.035,2.851,1.422,2.942,3.514.1,2.352-.226,3.462-3.077,3.38-7.986-.227-15.982-.079-23.975-.079" transform="translate(-10.094 -32.837)"/>
    <path id="Trazado_720325" data-name="Trazado 720325" d="M91.235,246.8c-7.572,0-15.143.013-22.715-.008-2.356-.006-4.809.893-4.719-3.468.083-4.051,2.26-3.253,4.511-3.254,15.142,0,30.286.018,45.429-.021,2.469-.006,4.329-.367,4.3,3.493-.034,4.062-2.259,3.254-4.509,3.256q-11.148.006-22.294,0" transform="translate(-10.071 -37.889)"/>
    <path id="Trazado_720326" data-name="Trazado 720326" d="M99.943,230.81c-5.748,0-11.507-.208-17.241.079-3.351.168-2.562-1.853-2.729-3.7-.2-2.166.172-3.217,2.815-3.182,11.635.155,23.275.2,34.908-.017,3.347-.063,2.558,1.859,2.727,3.7.2,2.167-.167,3.277-2.817,3.18-5.881-.214-11.775-.067-17.663-.067" transform="translate(-12.618 -35.361)"/>
    <path id="Trazado_720327" data-name="Trazado 720327" d="M77.239,134.882c-3.645,0-7.3-.161-10.932.047-3.315.189-2.138-2.114-2.27-3.653-.14-1.644-.48-3.262,2.326-3.189q11.136.285,22.286.008c3.311-.08,2.135,2.125,2.266,3.664.141,1.642.492,3.358-2.326,3.181-3.77-.236-7.567-.058-11.351-.058" transform="translate(-10.094 -20.22)"/>
    <path id="Trazado_720328" data-name="Trazado 720328" d="M77.261,150.87c-3.645,0-7.3-.168-10.931.05-3.3.2-2.18-2.08-2.291-3.635-.115-1.618-.531-3.282,2.3-3.209q11.138.284,22.286.005c3.3-.083,2.179,2.088,2.288,3.642.115,1.617.54,3.38-2.3,3.2-3.77-.232-7.567-.057-11.351-.057" transform="translate(-10.094 -22.744)"/>
    <path id="Trazado_720329" data-name="Trazado 720329" d="M77.337,166.858c-3.645,0-7.306-.212-10.928.067-2.865.221-2.517-1.507-2.366-3.147.139-1.512-1.117-3.774,2.216-3.7,7.426.162,14.861.192,22.285-.015,3.223-.09,2.255,1.945,2.4,3.568.173,1.963.186,3.5-2.675,3.293-3.625-.268-7.284-.065-10.929-.065" transform="translate(-10.091 -25.268)"/>
    <path id="Trazado_720330" data-name="Trazado 720330" d="M77.161,182.844c-3.225,0-6.457-.142-9.67.046-2.535.147-3.739-.314-3.591-3.3.124-2.515.394-3.663,3.365-3.553,6.86.254,13.74.236,20.6,0,2.777-.094,3.152.909,3.152,3.328,0,2.535-.369,3.8-3.35,3.548-3.48-.3-7-.069-10.508-.069" transform="translate(-10.086 -27.788)"/>
    <path id="Trazado_720331" data-name="Trazado 720331" d="M70.651,227.663c.883,3.241-1.169,3.011-3.461,3.228-3.136.3-3.095-1.267-3.283-3.633-.25-3.139,1.273-3.116,3.645-3.278,3.068-.208,3.648,1.1,3.1,3.683" transform="translate(-10.084 -35.355)"/>
    <path id="Trazado_720332" data-name="Trazado 720332" d="M185.216,140.19l5.764,5.455c.867-7.994,1.714-15.612,2.513-23.233.559-5.329.658-5.455,5.2-2.981,12.153,6.616,18.793,16.956,19.81,30.666.486,6.553.058,13.17.174,19.756.034,1.942-.478,2.581-2.544,2.682-10.96.538-10.956.607-10.956-10.219,0-6.588-.131-13.179.062-19.762.081-2.767-.415-3.881-3.554-3.87-3.037.011-3.309,1.228-3.286,3.7.1,11.072-.068,22.147.119,33.217.051,2.974-.766,3.718-3.7,3.681q-19.971-.248-39.946.006c-3.057.041-3.66-.919-3.618-3.766.166-11.071.042-22.146.089-33.218.009-2.1.158-3.754-2.927-3.585-2.542.139-4.036.125-3.935,3.476.153,5.111-6.808,11.792-13.024,13.152-6.554,1.434-14.4-1.915-16.68-8.376-3.624-10.268-6.3-20.869-9.408-31.322-.363-1.224.02-1.875,1.232-2.114a1.946,1.946,0,0,0,.405-.11c11.294-4.883,11.306-4.885,14.282,6.873,1.922,7.592,3.774,15.2,5.729,22.785.4,1.57.266,3.865,3.286,2.691,1.992-.776,4.775-.393,3.38-3.974a4.392,4.392,0,0,1,.4-4.008A46.7,46.7,0,0,1,155.7,118.447c1.064,9.18,2.085,18,3.174,27.4l5.737-5.279a18.209,18.209,0,0,1-1.144,9.615c-3.536,9.515-1.129,16.623,6.918,22.744,4.922,3.743,4.051,3.661,8.9.143,8.494-6.166,10.184-13.563,6.984-23.129-1-2.976-2.211-6.369-.987-9.771l-.057.018" transform="translate(-16.613 -17.42)" fill="#b1d97d"/>
    <path id="Trazado_720333" data-name="Trazado 720333" d="M34.62,103.329c-7.843,0-15.686-.077-23.527.049-2.256.036-3.122-.418-3.1-2.921q.188-20.795,0-41.591c-.02-2.357.843-2.707,2.889-2.7q24.156.1,48.313-.015c2.255-.013,2.54.755,2.809,2.816.906,6.953-.572,12.261-7.725,15.227-2.857,1.184-7.258,3.581-7.284,5.474-.035,2.658,4.361,4.251,7.125,5.538,6.735,3.136,9.085,7.957,7.906,15.158-.361,2.206-.621,3.068-3.043,3.022-8.119-.151-16.243-.057-24.365-.057m23.052-38.4C56.29,63.717,55,62.5,53.615,61.4s-2,.4-2.674,1.07c-8.953,8.887-17.911,17.77-26.736,26.782-1.885,1.925-3.27,2.882-5.121.175-1.259-1.84-2.362-1.516-3.961-.033-2.148,2-2.9,3.452-.135,5.505a28.7,28.7,0,0,1,4.474,4.428c1.357,1.577,2.3,1.89,3.977.184C34.165,88.63,45.012,77.87,55.811,67.065c.484-.484.9-1.033,1.86-2.139" transform="translate(-1.262 -8.864)" fill="#e3e6ea"/>
    <path id="Trazado_720334" data-name="Trazado 720334" d="M194.829,76.278c-.713-3.081-.409-5.25,2.078-7.543a13.777,13.777,0,0,0-.111-20.251,6.612,6.612,0,0,1-2.368-5.381c-.009-8.015-3.4-12.5-11.236-14.493-2.031-.518-2.213-1.3-2.254-3.08A11.528,11.528,0,0,0,165.406,15c-2.092.771-1.037,2.592-1.195,3.955-.14,1.2-.291,2.667,1.672,2.68,1.683.011,3.372-.051,5.046.081a3.165,3.165,0,0,1,3.234,3.214,3.005,3.005,0,0,1-3.056,3.346c-6.3.088-12.642.328-18.908-.2-4.748-.4-8.2-5.087-8.207-9.771-.011-4.832,3.688-9.8,8.568-9.885,11.328-.209,22.756-1.4,33.984.752,14.568,2.8,25.715,15.51,27.942,31.1,1.945,13.609-5.636,28.488-18.04,35.379a13.172,13.172,0,0,1-1.615.622" transform="translate(-22.731 -1.248)" fill="#636b76"/>
    <path id="Trazado_720335" data-name="Trazado 720335" d="M170.927,40.221c3.642,0,7.286-.082,10.926.023,4.428.127,6.924,2.676,7.127,7.1.051,1.118.061,2.243,0,3.361-.158,2.981-.031,5.261,3.387,7.088,4.792,2.563,4.616,9.4-.149,12.15-2.791,1.608-3.377,3.39-3.289,6.281.195,6.437-.307,12.912.173,19.32.408,5.459-3.65,8.169-6.014,11.947-.7,1.121-1.331.454-1.891-.293-2.974-3.966-6.627-7.482-5.8-13.3.344-2.411.6-3.7,3.265-3.19,2.931.556,3.669-.633,3.73-3.579.065-3.182-1.388-3.31-3.746-3.186-2.515.131-5.042.066-7.562.021-5.884-.1-8.916-3.209-9.019-9.181a9.823,9.823,0,0,1,.005-1.26c.623-5.587.319-10.373-6.989-11.316-2.716-.35-3.594-2.94-2.862-5.622,1.289-4.717,2.715-9.4,4.019-14.108.492-1.776,1.5-2.368,3.34-2.3,3.777.138,7.563.041,11.345.043" transform="translate(-23.992 -6.342)" fill="#eeceb2"/>
    <path id="Trazado_720336" data-name="Trazado 720336" d="M183.417,200.109c6.866,0,13.734.084,20.6-.048,2.295-.044,3.15.52,3.113,2.985q-.207,13.87,0,27.743c.036,2.432-.723,3.108-3.081,3.021-4.618-.171-9.258-.249-13.867.022-2.99.175-3.436-1.072-3.342-3.618.169-4.618-.3-9.281.136-13.862.557-5.769-4.01-7.946-7.174-10.934-1.6-1.507-2.534,1.381-3.79,2.222-.984.659-1.731,1.73-.4,2.711,8.009,5.928,3.286,14.465,4.507,21.775.215,1.285-.64,1.642-1.8,1.638-5.465-.024-10.931-.064-16.394.021-1.859.029-1.977-.958-1.973-2.377.028-9.669.081-19.338-.033-29-.028-2.387,1.255-2.315,2.907-2.307,6.866.035,13.733.014,20.6.014" transform="translate(-25.244 -31.582)" fill="#d19f6b"/>
    <path id="Trazado_720337" data-name="Trazado 720337" d="M186.648,132.775c2.355,4.939,2.361,9.045,3.186,12.933,1.16,5.474,1.958,11.023,3,16.523.3,1.6.541,3.1-1.059,4.1-2,1.25-2.7,4.891-5.61,4.089-3.407-.94-5.763-6.131-5.107-9.773q2.086-11.568,4.219-23.128c.222-1.191.669-2.34,1.373-4.742" transform="translate(-28.565 -20.96)" fill="#dee1e5"/>
    <path id="Trazado_720338" data-name="Trazado 720338" d="M90.4,80.184c5.049,0,10.108.2,15.142-.076,3.009-.163,3.047,1.32,3,3.517-.041,1.957.107,3.4-2.732,3.351-10.516-.169-21.035-.067-31.553-.067-.14,0-.28,0-.42,0-2.409-.132-5.365-1.735-5.277-3.206.128-2.116,2.959-3.427,5.433-3.478,5.467-.113,10.938-.035,16.407-.036" transform="translate(-10.823 -12.644)" fill="#fc816d"/>
    <path id="Trazado_720339" data-name="Trazado 720339" d="M223.871,198.833c0-6.714,0-6.714,6.239-6.714H232.2c5.544,0,6.449,1.251,4.52,6.523a11.8,11.8,0,0,1-2.082,3.568c-2.6,3.03-6.356,4.372-9.795,3.084-2.466-.924-.323-4.5-.976-6.461" transform="translate(-35.303 -30.329)" fill="#edceb2"/>
    <path id="Trazado_720340" data-name="Trazado 720340" d="M93.053,96.177c7.843,0,14.763-.011,21.682.017.733,0,1.906-.345,1.9.9,0,1.314.271,2.929-1.493,3.535-4.609,1.583-9.228,3.139-13.845,4.7-.974.33-1.583-.2-2.111-.911-1.873-2.515-3.745-5.032-6.135-8.244" transform="translate(-14.69 -15.179)" fill="#eacbaf"/>
    <path id="Trazado_720341" data-name="Trazado 720341" d="M129.858,86.908a18.036,18.036,0,0,0-2.919.026c-2.926.488-3-1.192-3.027-3.411-.025-2.291.2-3.746,3.071-3.395a46.849,46.849,0,0,0,6.258.045c2.235-.029,3.989.816,4.085,3.183.106,2.626-1.7,3.574-4.127,3.551-1.113-.01-2.227,0-3.341,0" transform="translate(-19.561 -12.641)" fill="#a7afba"/>
    <path id="Trazado_720342" data-name="Trazado 720342" d="M174.178,116.887c2,2.62,3.983,5.257,6.015,7.854.931,1.19.316,1.946-.491,2.855-1.371,1.544-2.616,3.2-3.913,4.809l-1.11-.63c-.295-2.405-.608-4.809-.879-7.216s-.5-4.84-.747-7.259l1.124-.412" transform="translate(-27.319 -18.452)" fill="#95c561"/>
    <path id="Trazado_720343" data-name="Trazado 720343" d="M201.643,116.663c-.6,5.328-1.14,10.186-1.708,15.252-7.474-5.583-7.145-8.879,1.708-15.252" transform="translate(-30.727 -18.417)" fill="#95c561"/>
    <path id="Trazado_720344" data-name="Trazado 720344" d="M200.22,145.763l-.3.152c.077-.039.156-.078.241-.125a.269.269,0,0,1,.064-.027" transform="translate(-31.56 -23.011)" fill="#b1d97d"/>
    <path id="Trazado_720345" data-name="Trazado 720345" d="M24.467,169.81c-4.623,0-9.25-.1-13.869.044-2.024.061-2.6-.568-2.584-2.585q.147-14.289,0-28.58c-.021-2.02.568-2.6,2.585-2.584q14.288.148,28.58,0c2.02-.021,2.6.568,2.584,2.585q-.148,14.289,0,28.58c.021,2.019-.565,2.639-2.586,2.583-4.9-.135-9.806-.044-14.71-.044" transform="translate(-1.265 -21.486)" fill="#fee9a6"/>
    <path id="Trazado_720346" data-name="Trazado 720346" d="M41.719,217.356c0,4.623-.1,9.25.044,13.869.061,2.024-.569,2.6-2.585,2.584q-14.289-.148-28.58,0c-2.02.021-2.6-.569-2.583-2.585q.147-14.289,0-28.58c-.021-2.02.569-2.6,2.585-2.583q14.289.147,28.58,0c2.02-.021,2.638.566,2.583,2.586-.135,4.9-.044,9.806-.044,14.71" transform="translate(-1.265 -31.582)" fill="#fee9a6"/>
    <path id="Trazado_720347" data-name="Trazado 720347" d="M58.647,65.836c-.958,1.106-1.376,1.655-1.86,2.139C45.987,78.78,35.14,89.54,24.415,100.419c-1.681,1.705-2.62,1.393-3.977-.184a28.7,28.7,0,0,0-4.474-4.428C13.2,93.753,13.951,92.3,16.1,90.3c1.6-1.483,2.7-1.807,3.961.033,1.851,2.707,3.236,1.75,5.121-.175,8.826-9.012,17.783-17.895,26.736-26.782.673-.668,1.278-2.177,2.674-1.07s2.675,2.318,4.057,3.528" transform="translate(-2.237 -9.774)" fill="#040404"/>
  </g>
</svg>
